<?xml version="1.0" encoding="utf-8"?>
<!-- Generator: Adobe Illustrator 23.0.3, SVG Export Plug-In . SVG Version: 6.00 Build 0)  -->
<svg version="1.1" id="圖層_1" xmlns="http://www.w3.org/2000/svg" xmlns:xlink="http://www.w3.org/1999/xlink" x="0px" y="0px"
	 viewBox="0 0 36 22" style="enable-background:new 0 0 36 22;" xml:space="preserve">
<style type="text/css">
	.st0{fill:#D43829;}
</style>
<g>
	<g>
		<path class="st0" d="M4,18C4,18,3.9,18,4,18C3.9,18,3.9,18,4,18c-0.3,0-0.4-0.2-0.4-0.4v-0.1v-1.8v-0.1c0-0.2,0.2-0.4,0.4-0.4
			c0.1,0,0.1,0,0.1-0.1V15C4,15.1,4,15,3.9,15l0,0l0,0c-0.2,0-0.4-0.2-0.4-0.4c0-0.1,0-0.2,0-0.2v-0.1c0-0.2,0-0.4,0-0.6v-0.1
			c0-0.2,0.2-0.3,0.4-0.3c0.1,0,0.2,0,0.2-0.1c0,0,0-0.1,0-0.2c0,0,0-0.1-0.1-0.1H3.9c-0.3,0-0.6,0-0.9,0s-0.6,0-0.9,0H2
			c-0.1,0-0.1,0-0.1,0.1s0,0.1,0,0.2c0,0.1,0,0.1,0.1,0.1l0,0l0,0c0.2,0,0.4,0.1,0.4,0.4v0.1l0,0c0,0.3,0,0.5,0,0.8c0,0,0,0,0,0.1
			s0,0.1,0,0.2c0,0.2-0.1,0.4-0.4,0.4c0,0,0,0-0.1,0l0,0c0,0,0,0.1,0,0.2c0,0.1,0,0.1,0.1,0.1c0.2,0,0.4,0.1,0.4,0.4v0.1v1.8V18
			c0-0.1-0.1,0-0.4,0l0,0l0,0c-0.1,0-0.1,0-0.1,0.1l0,0l0,0c0,0.1,0,0.2,0,0.2s0,0,0.2,0h1.4h0.3c0.1,0,0.1,0,0.2,0
			c0.1,0,0.1,0,0.1-0.1v-0.1L4,18C4.1,18.1,4,18,4,18z"/>
		<path class="st0" d="M6.9,14.1c0.1,0,0.1,0,0.2,0l0,0c0.1,0,0.2,0,0.2,0h0.3c0.1,0,0.2,0,0.2-0.2v-0.1c0-0.1,0-0.1,0-0.2
			c0-0.2,0.1-0.3,0.3-0.3l0,0l0,0l0,0l0,0c0-0.1,0-0.2,0-0.2l0,0l0,0c-0.2,0-0.3-0.1-0.3-0.2c-0.2,0-0.3,0-0.5,0s-0.3,0-0.5,0
			c0,0.2-0.1,0.2-0.2,0.2s-0.3,0-0.4,0s-0.3,0-0.4,0s-0.2,0-0.2-0.2l0,0c-0.2,0-0.3,0-0.5,0s-0.3,0-0.5,0l0,0c0,0.2-0.1,0.2-0.3,0.2
			l0,0c-0.1,0-0.1,0-0.1,0v0.2c0,0,0,0.1,0.1,0.1c0.2,0,0.3,0.2,0.3,0.4c0,0.1,0,0.1,0,0.2v0.1c0,0.1,0,0.2,0.2,0.2
			c0.1,0,0.1,0,0.2,0h0.2c0.1,0,0.1,0,0.2,0l0,0c0,0,0.1,0,0.2,0.1c0.1,0,0.1,0.1,0.1,0.2c0,0.1,0,0.2-0.2,0.3H5.4
			c-0.1,0-0.2,0-0.3,0c0,0-0.4,0-0.5,0s-0.1,0-0.1,0.1c0,0.2,0,0.5,0,0.7V16l0,0c0,0.1,0,0.1,0.1,0.1s0.2,0,0.3,0h0.5h0.1
			c0.1,0,0.2,0.1,0.2,0.2s-0.1,0.2-0.2,0.2H5.4l0,0c-0.2,0-0.3,0-0.5,0H4.6c0,0,0,0-0.1,0s-0.1,0-0.1,0.1l0,0c0,0.1,0,0.1,0,0.1
			s0,0,0.1,0h0.8c0,0,0.2,0,0.3,0.1c0,0.1,0.1,0.2,0,0.3c0,0.1-0.1,0.1-0.2,0.1H5.3H5.2H4.9c-0.1,0-0.2,0-0.3,0H4.5
			c0,0-0.1,0-0.1,0.1s0,0.1,0,0.1h0.1c0.1,0,0.2,0,0.3,0c0,0,0.3,0,0.4,0h0.1c0.2,0,0.2,0.2,0.2,0.3c0,0.2-0.1,0.3-0.3,0.3H5.1
			c0,0-0.7,0-0.8,0c-0.1,0-0.1,0-0.2,0.1v0.1v0.1c0,0,0,0.1,0.1,0.1l0,0h3.6l0,0c0.1,0,0.1,0,0.1-0.1s0-0.2,0-0.2s0,0-0.2,0H6.9H6.8
			c-0.2,0-0.3-0.1-0.3-0.3c0-0.2,0.1-0.3,0.2-0.3h0.1c0.1,0,0.2,0,0.3,0h0.5c0.1,0,0.1,0,0.1,0s0,0,0-0.1s0-0.1-0.1-0.1H7.5
			c-0.1,0-0.2,0-0.3,0h0.3c-0.1,0-0.3,0-0.4,0s-0.2,0-0.2-0.1c0,0-0.1-0.1-0.1-0.2s0.1-0.3,0.3-0.3l0,0h0.5c0.1,0,0.3,0,0.4,0
			c0.1,0,0.1,0,0.1-0.1l0,0c0-0.1,0-0.1-0.1-0.1c0,0,0,0-0.1,0H7c0,0,0,0-0.1,0s-0.2-0.1-0.2-0.2s0.1-0.2,0.2-0.3H7h0.8
			C7.9,16,8,16,8,15.8s0-0.9,0-0.9l0,0c0-0.1,0-0.1-0.1-0.1c0,0,0,0-0.1,0H7.6c-0.1,0-0.3,0-0.4,0l0,0c0,0-0.1,0-0.2,0
			s-0.1-0.1-0.1-0.2C6.8,14.3,6.9,14.2,6.9,14.1z M5.7,15.3v0.1c0,0.2-0.1,0.3-0.3,0.3l0,0c-0.2,0-0.3-0.1-0.3-0.3
			c0-0.1,0-0.2,0-0.3c0-0.2,0.1-0.3,0.3-0.3l0,0c0.2,0,0.3,0.1,0.3,0.3C5.7,15.1,5.7,15.2,5.7,15.3C5.7,15.2,5.7,15.2,5.7,15.3
			L5.7,15.3L5.7,15.3z M7.1,14.8L7.1,14.8c0.2,0,0.3,0.1,0.3,0.3v0.1l0,0l0,0l0,0v0.1c0,0.2-0.1,0.3-0.3,0.3l0,0
			c-0.2,0-0.3-0.1-0.3-0.3c0-0.1,0-0.2,0-0.3C6.8,14.9,6.9,14.8,7.1,14.8z M6.6,13.9L6.6,13.9H6.1c-0.1,0-0.1,0-0.1,0
			c-0.2,0-0.3-0.1-0.3-0.3s0.1-0.3,0.3-0.3c0.1,0,0.2,0,0.3,0c0.1,0,0.2,0,0.3,0c0.2,0,0.3,0.1,0.3,0.3C6.9,13.7,6.8,13.9,6.6,13.9z
			"/>
	</g>
	<path class="st0" d="M2.1,7L2.1,7h2.8C5.2,7,5.6,7,6,7c0.1,0,0.1,0,0.2,0c0.2,0,0.3,0.2,0.3,0.4v0.1c0,0.2-0.1,0.4-0.1,0.7
		C6.3,8.6,6.2,9.1,6.2,9.6c0,0.1,0,0.2-0.1,0.4c0,0.2-0.1,0.5-0.1,0.7c0,0.1,0,0.1,0,0.1s0,0,0.1,0c0.2,0,0.3,0,0.5,0s0.3,0,0.5,0
		c0.1,0,0.1,0,0.1-0.1c0.1-0.4,0.1-0.9,0.2-1.3l0.1-0.9c0-0.4,0.1-0.7,0.1-1.1C7.6,7.2,7.7,7.1,8,7c0.1,0,0.1,0,0.1,0
		c0-0.1,0-0.1,0-0.2s0-0.1-0.1-0.1c0,0,0,0-0.1,0H6.6H6.4c-0.1,0-0.1,0-0.2,0C6,6.6,5.8,6.5,5.8,6.3c0-0.1,0-0.1-0.1-0.1
		c-0.2,0-0.4,0-0.6,0s-0.4,0-0.6,0c-0.1,0-0.1,0-0.1,0.1c0,0.2-0.1,0.3-0.3,0.3H4c-0.4,0-0.8,0-1.2,0H2.2c0,0,0,0-0.1,0
		C2,6.6,2,6.7,2,6.7C2,6.8,2,6.9,2.1,7C2,7,2,7,2.1,7z M8.1,11.5H8c-0.8,0-1.5,0-2.3,0h-1c-0.3,0-0.4-0.1-0.5-0.4
		c0-0.1-0.1-0.3-0.1-0.4v-0.2L3.6,8.3V8.2c0-0.1,0-0.2-0.1-0.4c0-0.1,0-0.1-0.1-0.1H3.3H2.6H2.5H2.4H2.3c0,0,0,0,0,0.1l0,0
		c0,0.1,0.1,0.3,0.1,0.4L2.5,9c0.1,0.5,0.2,1,0.3,1.5v0.1c0,0.1,0.1,0.3,0.1,0.4c0,0.1,0,0.2-0.1,0.3s-0.2,0.1-0.3,0.1H2.4H2.1H2
		c-0.1,0-0.1,0-0.1,0.1s0,0.1,0,0.2c0,0.1,0,0.1,0.1,0.1l0,0h6l0,0c0.1,0,0.1,0,0.1-0.1C8.1,11.7,8.1,11.6,8.1,11.5L8.1,11.5z"/>
	<g>
		<path class="st0" d="M10.8,7.5L9.5,7.2l0,0l0,0l0,0l0,0l1.2-0.3L9.5,6.5l0,0l0,0l1.4-0.3v0.1L9.6,6.5l1.2,0.3l0,0l0,0l0,0l0,0l0,0
			L9.6,7.2L10.8,7.5L10.8,7.5z"/>
		<path class="st0" d="M9.4,8.4L9.4,8.4h0.2c-0.1,0-0.1-0.1-0.2-0.2c0-0.1-0.1-0.1-0.1-0.2c0-0.1,0-0.1,0.1-0.2
			c0-0.1,0.1-0.1,0.2-0.2c0.1,0,0.2-0.1,0.2-0.1c0.1,0,0.1,0,0.2,0c0.1,0,0.1,0.1,0.1,0.1l0.1,0.1v0.1v0.1c0,0.1-0.1,0.2-0.2,0.3
			c0.1,0.1,0,0.2-0.1,0.2H9.4z M9.9,8.3c0.1,0,0.2,0,0.3-0.1s0.1-0.2,0.1-0.3c0-0.1,0-0.2-0.1-0.3C10.1,7.5,10,7.5,9.9,7.5
			s-0.2,0-0.3,0.1C9.5,7.7,9.5,7.8,9.5,7.9s0,0.2,0.1,0.3C9.7,8.3,9.8,8.3,9.9,8.3z"/>
		<path class="st0" d="M10.3,8.7V8.4H9.7c-0.1,0-0.1,0-0.1,0.1c0,0,0,0.1,0,0.2H9.4l0,0c0-0.1,0-0.1,0.1-0.2
			c0.1-0.1,0.1-0.1,0.2-0.1h1v0.1h-0.3L10.3,8.7L10.3,8.7z"/>
		<path class="st0" d="M9.8,9.5c-0.1,0-0.2-0.1-0.3-0.2c0-0.1-0.1-0.2-0.1-0.3s0-0.1,0-0.2c0-0.1,0.1-0.1,0.2-0.2
			c0.1,0,0.1-0.1,0.2-0.1c0.1,0,0.1,0,0.2,0c0.1,0,0.1,0.1,0.2,0.1c0.1,0.1,0.1,0.1,0.1,0.2l0,0l0,0c0,0.1,0,0.2-0.1,0.3
			S10.1,9.2,10,9.3c-0.1,0-0.1,0-0.1,0l0,0C9.9,9.5,9.9,9.5,9.8,9.5l0.1-0.9c-0.1,0-0.2,0-0.3,0.1C9.5,8.8,9.5,8.9,9.5,9
			s0,0.1,0,0.2c0,0.1,0.1,0.1,0.1,0.1C9.7,9.4,9.7,9.4,9.8,9.5L9.8,9.5z M9.9,9.4c0.1,0,0.2,0,0.3-0.1s0.1-0.2,0.1-0.3l0,0
			c0-0.1,0-0.2-0.1-0.3c-0.1,0-0.2-0.1-0.3-0.1V9.4z"/>
		<path class="st0" d="M10.3,9.8c0-0.1,0-0.1,0-0.2l-0.1-0.1H9.4l0,0H10c0.1,0,0.1,0,0.2,0.1C10.3,9.6,10.3,9.7,10.3,9.8L10.3,9.8
			L10.3,9.8z"/>
		<path class="st0" d="M10.3,10.4L10.3,10.4v-0.1v-0.1v-0.1c0,0,0-0.1-0.1-0.1h-0.1c0,0,0,0-0.1,0c0,0,0,0-0.1,0.1l-0.1,0.2
			l-0.1,0.1H9.6c-0.1,0-0.1,0-0.2-0.1c0-0.1,0-0.1,0-0.2c0-0.1,0-0.2,0.1-0.2h0.1c0,0,0,0.1-0.1,0.1v0.1v0.1l0.1,0.1l0,0h0.1
			c0,0,0.1,0,0.1-0.1L9.9,10c0,0,0-0.1,0.1-0.1h0.1c0.1,0,0.1,0,0.2,0.1c0.1,0,0.1,0.1,0.1,0.2v0.1C10.3,10.3,10.3,10.4,10.3,10.4z"
			/>
		<path class="st0" d="M9.4,11L9.4,11l0.6-0.1c0.1,0,0.1,0,0.2-0.1c0-0.1,0.1-0.1,0.1-0.2v-0.1c0,0,0-0.1-0.1-0.1h-0.1H10H9.4v-0.1
			h1.4v0.1h-0.6c0.1,0.1,0.1,0.2,0.1,0.3s0,0.2-0.1,0.2c0,0-0.1,0-0.1,0.1H10C10,11,9.4,11,9.4,11z"/>
		<path class="st0" d="M9.9,11.9c-0.1,0-0.2,0-0.3-0.1s-0.1-0.2-0.1-0.3s0-0.2,0.1-0.3C9.6,11,9.7,11,9.9,11c0.1,0,0.2,0,0.3,0.1
			s0.1,0.2,0.1,0.3s0,0.2-0.1,0.3C10.1,11.9,10,11.9,9.9,11.9z M9.9,11.8c0.1,0,0.2,0,0.3-0.1s0.1-0.2,0.1-0.3s0-0.2-0.1-0.3
			c-0.1,0-0.2-0.1-0.3-0.1s-0.2,0-0.3,0.1s-0.1,0.2-0.1,0.3s0,0.2,0.1,0.3C9.7,11.8,9.8,11.8,9.9,11.8z"/>
		<path class="st0" d="M10.3,12.2c0-0.1,0-0.1,0-0.2l-0.1-0.1H9.4v-0.1H10c0.1,0,0.1,0,0.2,0.1C10.3,12,10.3,12.1,10.3,12.2
			L10.3,12.2L10.3,12.2z"/>
		<path class="st0" d="M9.8,13c-0.1,0-0.2-0.1-0.3-0.2c-0.1-0.1-0.1-0.2-0.1-0.3s0-0.1,0-0.2c0-0.1,0.1-0.1,0.2-0.2
			c0.1,0,0.1-0.1,0.2-0.1c0.1,0,0.1,0,0.2,0c0.1,0,0.1,0.1,0.2,0.1c0.1,0.1,0.1,0.1,0.1,0.2l0,0l0,0c0,0.1,0,0.2-0.1,0.3
			s-0.1,0.1-0.2,0.2c0,0.2,0,0.2,0,0.2l0,0C9.9,13,9.9,13,9.8,13l0.1-0.9c-0.1,0-0.2,0-0.3,0.1s-0.1,0.2-0.1,0.3s0,0.1,0,0.2
			c0,0.1,0.1,0.1,0.1,0.1C9.7,12.9,9.7,12.9,9.8,13L9.8,13z M9.9,12.9c0.1,0,0.2,0,0.3-0.1s0.1-0.2,0.1-0.3l0,0c0-0.1,0-0.2-0.1-0.3
			s-0.2-0.1-0.3-0.1V12.9z"/>
		<path class="st0" d="M9.4,13.3L9.4,13.3l1.4-0.1v0.1H9.4z"/>
		<path class="st0" d="M9.4,13.4L9.4,13.4l0.9-0.1v0.1H9.4z M10.6,13.4L10.6,13.4L10.6,13.4C10.6,13.4,10.6,13.3,10.6,13.4
			C10.6,13.3,10.6,13.4,10.6,13.4L10.6,13.4L10.6,13.4L10.6,13.4z"/>
		<path class="st0" d="M10.3,14l-0.9-0.3l0,0l0,0l0.9-0.3v0.1l-0.8,0.3L10.3,14L10.3,14z"/>
		<path class="st0" d="M9.4,14L9.4,14l0.9-0.1V14H9.4z M10.6,14L10.6,14L10.6,14C10.6,14,10.6,13.9,10.6,14
			C10.6,13.9,10.6,14,10.6,14L10.6,14L10.6,14L10.6,14z"/>
		<path class="st0" d="M9.4,14.7L9.4,14.7l0.6-0.1c0.1,0,0.1,0,0.2-0.1s0.1-0.1,0.1-0.2l0,0c0-0.1,0-0.1-0.1-0.1
			c0,0-0.1-0.1-0.2-0.1H9.4V14H10c0.1,0,0.2,0,0.2,0.1c0.1,0.1,0.1,0.1,0.1,0.2l0,0c0,0,0,0,0,0.1c0,0,0,0.1-0.1,0.1
			c-0.1,0.1-0.1,0.1-0.2,0.1L9.4,14.7L9.4,14.7z"/>
		<path class="st0" d="M9.4,15.6c-0.1,0-0.2,0-0.3-0.1S9,15.3,9,15.2l0,0c0-0.1,0-0.2,0.1-0.3s0.2-0.1,0.3-0.1v0.1
			c-0.1,0-0.2,0-0.3,0.1C9,15,9,15.1,9,15.2c0,0.1,0,0.1,0.1,0.2c0,0.1,0.1,0.1,0.1,0.1C9.2,15.5,9.3,15.5,9.4,15.6l0.3-0.1
			c-0.1,0-0.1-0.1-0.2-0.2c0-0.1-0.1-0.1-0.1-0.2c0-0.1,0-0.1,0-0.2c0-0.1,0.1-0.1,0.1-0.2c0.1-0.1,0.2-0.1,0.3-0.1s0.2,0,0.2,0.1
			c0.1,0,0.1,0.1,0.1,0.1l0.1,0.1V15c0,0.1,0,0.1-0.1,0.2s-0.1,0.1-0.2,0.2c-0.1,0-0.1,0.1-0.2,0.1L9.4,15.6L9.4,15.6z M9.9,15.5
			c0.1,0,0.2,0,0.3-0.1s0.1-0.2,0.1-0.3s0-0.2-0.1-0.3s-0.2-0.1-0.3-0.1s-0.2,0-0.3,0.1S9.5,15,9.5,15.1s0,0.2,0.1,0.3
			S9.8,15.5,9.9,15.5z"/>
	</g>
	<path class="st0" d="M15.7,3.6C14.8,3.4,13.9,3.2,13,3c0.1-0.4,0.1-0.8,0.2-1.1c2.8,0,5.6,0,8.4,0c0,0.7,0,1.3,0,2
		c-0.1,0-0.2,0-0.2,0c-0.7,0-1.4,0-2,0c-0.1,0-0.2,0-0.2,0.2C19.1,5,19,5.8,19,6.7c0.2,0,0.3,0,0.4,0c0.7,0,1.4,0,2,0.1
		c0.2,0,0.3,0.1,0.3,0.3c0,3.4,0,6.9,0,10.3c0,0.4,0,0.7,0,1.1c-0.1,0-0.2,0-0.3,0c-1.8,0-9.1,0-9.1,0s0-7.1,0-7.9
		c0.1-1.4,0-2.8,0.1-4.2c0-0.1,0-0.2,0-0.3c0.5,0,1.1,0,1.6,0c0,0.1,0,0.3,0,0.4c0.5,0,1,0,1.5,0C15.5,5.5,15.6,4.6,15.7,3.6z
		 M13.9,16.7l5.8,0.2c0,0,0-3.2,0-4.8c-0.1,0-0.2,0-0.2,0c-0.6,0-1.2-0.1-1.8-0.4c-0.1-0.1-0.2-0.1-0.2-0.3c0-1,0-2,0-3
		c0-0.1,0-0.2,0-0.3c-0.2,0-0.4,0-0.6,0c0,0.1,0,0.2,0,0.2c-0.1,0.7-0.3,1.5-0.4,2.2c-0.1,0.5-0.4,1-0.7,1.3c0,0-0.1,0.1-0.2,0.1
		c-0.4-0.2-0.9-0.4-1.2-0.6c0.3-1.1,0.6-2.3,1-3.4c-0.4,0-0.8,0-1.2,0C13.9,10.9,13.9,16.7,13.9,16.7z M19.9,10.8c0-0.8,0-1.6,0-2.3
		l-0.1-0.1c-0.3,0-0.6,0-0.9,0c0,0.7,0,1.4,0,2.1c0,0.1,0.1,0.2,0.1,0.2C19.3,10.6,19.6,10.7,19.9,10.8z M16.8,3.9
		c0,0.9,0,1.8,0,2.7c0.3,0,0.5,0,0.8,0c0-0.9,0.1-1.8,0.1-2.7C17.4,3.9,17.1,3.9,16.8,3.9z"/>
	<path class="st0" d="M34,17.5c0.3,0,0.7,0,1.1,0c0,0.5,0,1.1,0,1.6c0,0.1-0.1,0.1-0.1,0.1c-0.8,0.3-1.7,0.6-2.6,0.6
		C31,19.9,29.6,20,28.3,20c-1.2,0-2.4,0-3.6-0.1s-3-0.3-4.2-0.4c0,0,0,0-0.1,0c0-0.5,0.1-1,0.1-1.6c0.6,0,1.8,0,2.4,0
		c0.1-2.3-0.1-4.6,0.1-7c0.1,0,0.2,0,0.3,0c3.2,0,6.4,0,9.6,0c0.3,0,0.7,0.1,1,0.1c0.1,0,0.2,0.1,0.2,0.2C34,13.3,34,15.4,34,17.5z
		 M29,17.7c0-1.4,0-2.7,0-4.1c0.5,0,1,0,1.5,0c0,1.3,0,2.7,0,4c0.5,0,1,0,1.5,0c0-1.5,0-2.9,0-4.4c0-0.2,0-0.4-0.1-0.6
		c-2.3,0-4.6,0-6.9,0c-0.1,1.7-0.3,3.4-0.4,5.1c0.4,0,0.8,0,1.2,0c0-1.3,0-2.7,0-4c0.5,0,1,0,1.5,0c0,1.3,0,2.6,0,3.9
		C27.9,17.7,28.4,17.7,29,17.7z"/>
	<path class="st0" d="M26.3,2.1c1.8,0,3.6,0,5.5,0c0,0.2,0.1,0.4,0.1,0.7c0,0.8,0,1.6,0.1,2.4c0.1,1.1,0,2.3,0,3.4
		c0,0.2,0,0.4,0,0.6c0,0.2-0.1,0.3-0.3,0.3c-0.9,0.1-1.7,0.2-2.6,0.2s-1.7,0-2.6,0c-0.8,0-1.5-0.1-2.2-0.4c-0.1,0-0.2-0.1-0.2-0.2
		c0-2.2,0-4.4,0-6.5V2.5C24.2,2,24.2,2,24.7,2c0.4,0,0.9,0,1.3,0C26.1,2,26.1,2,26.3,2.1z M25.9,8.2c1.2,0,3,0,4.2,0
		c0.2-1.5-0.2-3-0.1-4.6c-1.2,0-2.9,0-4.1,0C25.8,4.1,25.9,7.6,25.9,8.2z"/>
	<path class="st0" d="M15.1,15.1c0-0.5,0-1,0-1.4c1.2,0,2.4,0,3.7,0c0,0.6,0,1.1,0,1.6C17.5,15.6,16.3,15.3,15.1,15.1z"/>
	<polygon class="st0" points="27.6,4.1 25.8,7.2 28,6.6 30,7.4 29,4.6 	"/>
</g>
</svg>
