<svg xmlns="http://www.w3.org/2000/svg" xmlns:xlink="http://www.w3.org/1999/xlink" viewBox="0 0 375 387.32"><defs><style>.cls-1{fill:url(#未命名漸層_36);}.cls-2{fill:#dc007f;}.cls-3{font-size:24.85px;letter-spacing:-0.01em;}.cls-12,.cls-3,.cls-8{fill:#db007f;}.cls-3,.cls-8{font-family:NotoSansCJKtc-Bold-B5pc-H, Noto Sans CJK TC;}.cls-4{letter-spacing:-0.12em;}.cls-5{letter-spacing:-0.26em;}.cls-6{letter-spacing:-0.13em;}.cls-7{letter-spacing:-0.01em;}.cls-8{font-size:17.21px;letter-spacing:0.03em;}.cls-9{letter-spacing:0.11em;}.cls-10{letter-spacing:0.11em;}.cls-11{letter-spacing:0.03em;}</style><linearGradient id="未命名漸層_36" y1="193.66" x2="375" y2="193.66" gradientUnits="userSpaceOnUse"><stop offset="0" stop-color="#b3b3b3"/><stop offset="0.5" stop-color="#d9d9d9"/><stop offset="1" stop-color="#b3b3b3"/></linearGradient></defs><g id="圖層_2" data-name="圖層 2"><g id="圖層_1-2" data-name="圖層 1"><rect class="cls-1" width="375" height="387.32"/><path class="cls-2" d="M261.14,94.38h15.4V88.66h-16.9a98,98,0,0,0,.05-10H253s.22,6.88-.06,10H236.76v5.72h15.42a28,28,0,0,1-4.86,11.23,28.5,28.5,0,0,1-11.8,8.91l-.22.09.19.15a18.22,18.22,0,0,1,3.9,4.44l.07.11.12,0a33.44,33.44,0,0,0,10.66-7.64,56.49,56.49,0,0,1,6.46,7.45l.09.13,4.93-3.58-.08-.12c-1.78-2.59-6-6.45-7.77-8l-.09-.07-.72.49a34.36,34.36,0,0,0,4-8.63c3.7,9.75,9.12,16.28,16.56,20l.12.06.07-.13a20.22,20.22,0,0,1,3.91-4.86l.18-.15-.22-.09C270,110.77,264.32,104,261.14,94.38Z"/><path class="cls-2" d="M260,145.33v-4.08c-.07.06,10.1-12.52,10.1-12.52H240.76v5.51h17.38c-.11,0-4.23,5-4.23,5v6.1H236.38v5.55h17.53v10.4c0,.61-.17.83-1.15.87-.32,0-.93,0-1.65,0-1.92,0-4.09-.06-5.81-.16H245l.14.22a21,21,0,0,1,2.23,5.41l0,.11h1.4c2.9,0,6.18-.11,8.33-.95s2.84-2.3,2.84-5.4V150.88h16.87v-5.55Z"/><polygon class="cls-2" points="214.51 80.8 193.36 127.81 191.92 127.81 171.07 80.8 162.78 80.8 141.89 127.81 140.46 127.81 119.3 80.8 97.14 80.8 136.11 167.29 146.09 167.29 166.91 121.01 187.73 167.29 197.71 167.29 236.67 80.8 214.51 80.8"/><path class="cls-2" d="M211.08,154.45h4.33v13.31h-4.33Z"/><path class="cls-2" d="M219,154.45h4l5.27,7.36v-7.36h4.07v13.31h-4.07l-5.24-7.31v7.31H219Z"/><text class="cls-3" transform="translate(22.77 263.42) scale(1 1.07)"><tspan xml:space="preserve">唯一兩房  均質規劃 景</tspan><tspan class="cls-4" x="237.59" y="0">觀</tspan><tspan class="cls-5" x="259.41" y="0">２</tspan><tspan class="cls-6" x="277.82" y="0">７</tspan><tspan class="cls-7" x="299.47" y="0">坪 </tspan></text><text class="cls-8" transform="translate(20 227.54) scale(1 1.07)">中正 北新路<tspan class="cls-9" x="93.04" y="0">口</tspan><tspan x="112.14" y="0" xml:space="preserve">  捷運 公園 飯店宅</tspan><tspan class="cls-10" x="253.89" y="0"> </tspan><tspan class="cls-11" x="259.69" y="0" xml:space="preserve"> 全新完工</tspan></text><path class="cls-12" d="M99,314.73H76.17v-3.81l4-3.77c6.9-6.2,11-10.27,11-14.54,0-2.76-1.68-5.07-5.69-5.07a13,13,0,0,0-6.8,2.31l-2-4.44a19.23,19.23,0,0,1,10.23-2.85c7.82,0,11.38,4.31,11.38,9.47,0,5.61-4.39,10.22-9.69,14.87l-3,2.6v.08H99Z"/><path class="cls-12" d="M119.83,301a9.45,9.45,0,0,1-6.85,2.47c-5.64,0-10.08-3.73-10.08-9.64s4.73-11.22,12.16-11.22c8,0,12.06,5.78,12.06,13.36,0,11-6.56,19.82-21.23,19.23v-4.86a21.45,21.45,0,0,0,3.52-.12A11.27,11.27,0,0,0,120,301ZM110,293.24c0,3.73,2,6,4.92,6a5.46,5.46,0,0,0,4.59-2.39,4.4,4.4,0,0,0,.38-2.3c0-4.23-1.64-7.58-5.06-7.58C111.92,287,110,289.64,110,293.24Z"/><path class="cls-12" d="M140.29,314.73V288.59h-.1l-6.27,2.85L132.38,287l8.88-3.94h6v31.67Z"/><path class="cls-12" d="M179.08,283v5.11h-12.4l-1,6.2a15.83,15.83,0,0,1,2-.13c6.37,0,12.35,3.1,12.35,9.93,0,6.08-5.35,11.06-13.94,11.06a22.1,22.1,0,0,1-8.68-1.63l1.4-4.69a17.59,17.59,0,0,0,6.9,1.46c3.71,0,7.14-2.05,7.14-5.69,0-3.82-3.24-5.95-9.41-5.95a36.68,36.68,0,0,0-4.1.21L161.62,283Z"/><path class="cls-12" d="M184.2,299.82h13.21v4.27H184.2Z"/><path class="cls-12" d="M207.5,296.68a9.79,9.79,0,0,1,7.24-2.81c5.64,0,10,3.73,10,10.05,0,6-4.49,11.27-11.87,11.27-8.25,0-12.68-5.74-12.68-13.49,0-7.24,3.76-19.1,21.13-19.1v4.78c-.92,0-1.93.08-3.14.2-6.71.8-9.89,4.91-10.81,9.1Zm10.13,7.54c0-3.31-1.83-6-5.16-6a5.18,5.18,0,0,0-5.21,5.16c.09,4.1,2,7.37,5.54,7.37C215.94,310.71,217.63,307.78,217.63,304.22Z"/><path class="cls-12" d="M237.65,314.73V288.59h-.09l-6.27,2.85L229.74,287l8.88-3.94h6v31.67Z"/><path class="cls-12" d="M264.77,314.73V288.59h-.1l-6.27,2.85L256.86,287l8.87-3.94h6v31.67Z"/><path class="cls-12" d="M291.88,314.73V288.59h-.09l-6.28,2.85L284,287l8.88-3.94h6v31.67Z"/><rect class="cls-12" x="134.9" y="213.85" width="1.06" height="14.53"/><rect class="cls-12" x="278.97" y="213.85" width="1.06" height="14.53"/></g></g></svg>