<svg xmlns="http://www.w3.org/2000/svg" viewBox="0 0 235.27 60.14"><defs><style>.cls-1,.cls-2{fill:#fff;}.cls-2{opacity:0.5;}</style></defs><g id="圖層_2" data-name="圖層 2"><g id="圖層_1-2" data-name="圖層 1"><path class="cls-1" d="M13.15,40.44H0V38.5l2.27-2.26C6.84,31.79,9.36,29,9.36,25.87a3.4,3.4,0,0,0-3.73-3.74,7.12,7.12,0,0,0-4.17,1.61l-1-2.27a9.7,9.7,0,0,1,5.83-1.91c4.45,0,6.4,2.87,6.4,6,0,3.77-2.7,6.9-6.46,10.5L4.45,37.76v.06h8.7Z"/><path class="cls-1" d="M15.8,31h7.89v2.27H15.8Z"/><path class="cls-1" d="M34.23,29.36a5.26,5.26,0,0,1,4.54,5.21c0,3.36-2.7,6.17-7.61,6.17a10.7,10.7,0,0,1-5.28-1.28L26.74,37A8.84,8.84,0,0,0,31,38.2c3.07,0,4.33-1.91,4.33-3.74,0-2.64-2.35-3.87-4.91-3.87H29V28.32h1.41c1.86,0,4.3-1.06,4.3-3.33,0-1.61-1.09-2.89-3.39-2.89a7.46,7.46,0,0,0-3.84,1.23l-.84-2.27a10.24,10.24,0,0,1,5.43-1.5c4.05,0,6,2.32,6,4.94,0,2.1-1.38,3.93-3.85,4.81Z"/><path class="cls-1" d="M68.21,33H55.83c-.09.65-.2,1.28-.34,1.88h7.69l.61,0,1.55.24a7,7,0,0,1-.15.71c-.63,7-1.29,7.1-5.08,7.1-.63,0-1.38,0-2.15-.06a5.43,5.43,0,0,0-.72-2.15c1.38.11,2.73.13,3.24.13a1.53,1.53,0,0,0,1-.24c.37-.36.66-1.37.89-3.63H54.85c-1.09,2.59-3.15,4.66-7.66,6a6.86,6.86,0,0,0-1.5-2c5.6-1.41,6.92-4.14,7.47-7.88H47.47c-.4,3.3-1.4,6.85-3.73,9.44A10.22,10.22,0,0,0,41.44,41C44.66,37.46,45,32.44,45,28.76V22.59H65.71v6.25H58.3a.84.84,0,0,1-.63.33v1.77H68.21ZM68,18.69V21H42.36V18.69ZM55,28.84H47.7c0,.66,0,1.36-.05,2.1H55ZM63,24.56H47.7v2.32H63Z"/><path class="cls-1" d="M83.26,16.43h1.26V43.71H83.26Z"/><path class="cls-1" d="M112.73,40.44H99.57V38.5l2.27-2.26c4.57-4.45,7.1-7.29,7.1-10.37a3.41,3.41,0,0,0-3.74-3.74A7.09,7.09,0,0,0,101,23.74l-1-2.27a9.7,9.7,0,0,1,5.83-1.91c4.45,0,6.41,2.87,6.41,6,0,3.77-2.7,6.9-6.47,10.5L104,37.76v.06h8.71Z"/><path class="cls-1" d="M126,31.13A5.75,5.75,0,0,1,121.54,33c-3.5,0-6-2.56-6-6.25a7,7,0,0,1,7-7.23c4.42,0,6.89,3.58,6.89,8.63,0,6.57-3.42,11.73-9.82,12.38a12.09,12.09,0,0,1-2.36.14V38.17a9.62,9.62,0,0,0,2.13-.11c4.68-.6,6.26-4.36,6.69-6.93ZM118.9,26.6c0,2.43,1.32,4.21,3.51,4.21a4,4,0,0,0,3.44-1.94,2.53,2.53,0,0,0,.23-1.2c0-3.39-1.23-5.79-3.67-5.79C120.34,21.88,118.9,23.85,118.9,26.6Z"/><path class="cls-1" d="M131.6,30.2c0-6.71,2.67-10.64,7.15-10.64s6.86,4.21,6.86,10.43c0,7-2.64,10.75-7.09,10.75S131.6,36.51,131.6,30.2Zm10.65-.1c0-4.89-1.09-8-3.62-8-2.18,0-3.67,2.9-3.67,8s1.32,8.1,3.61,8.1C141.39,38.2,142.25,34.35,142.25,30.1Z"/><path class="cls-1" d="M158.3,31.13A5.74,5.74,0,0,1,153.83,33c-3.51,0-6-2.56-6-6.25a7,7,0,0,1,7-7.23c4.42,0,6.89,3.58,6.89,8.63,0,6.57-3.42,11.73-9.82,12.38a12.09,12.09,0,0,1-2.36.14V38.17a9.62,9.62,0,0,0,2.13-.11c4.68-.6,6.26-4.36,6.69-6.93Zm-7.12-4.53c0,2.43,1.32,4.21,3.51,4.21a4,4,0,0,0,3.44-1.94,2.42,2.42,0,0,0,.23-1.2c0-3.39-1.23-5.79-3.67-5.79C152.62,21.88,151.18,23.85,151.18,26.6Z"/><path class="cls-1" d="M163.79,31h7.9v2.27h-7.9Z"/><path class="cls-1" d="M174.33,19.89H187.4v2l-8.59,18.56h-3.42L184,22.56v0h-9.65Z"/><path class="cls-1" d="M202.53,19.89v2.62H195l-.72,4.88c.43,0,.84-.08,1.44-.08,3.93,0,7.32,2.19,7.32,6.39,0,3.95-3.19,7-7.89,7A10.73,10.73,0,0,1,190,39.59l.75-2.4a9.37,9.37,0,0,0,4.19,1c2.44,0,4.62-1.58,4.62-4.26s-1.89-4.31-5.74-4.31a17,17,0,0,0-2.61.16l1.35-9.93Z"/><path class="cls-1" d="M218.67,19.89v2.62h-7.58l-.72,4.88c.43,0,.84-.08,1.44-.08,3.93,0,7.32,2.19,7.32,6.39,0,3.95-3.18,7-7.89,7a10.73,10.73,0,0,1-5.06-1.15l.75-2.4a9.37,9.37,0,0,0,4.19,1c2.44,0,4.62-1.58,4.62-4.26s-1.89-4.31-5.74-4.31a17,17,0,0,0-2.61.16l1.35-9.93Z"/><path class="cls-1" d="M234.81,19.89v2.62h-7.58l-.72,4.88c.44,0,.84-.08,1.44-.08,3.94,0,7.32,2.19,7.32,6.39,0,3.95-3.18,7-7.89,7a10.73,10.73,0,0,1-5.06-1.15l.75-2.4a9.37,9.37,0,0,0,4.19,1c2.44,0,4.63-1.58,4.63-4.26s-1.9-4.31-5.75-4.31a17,17,0,0,0-2.61.16l1.35-9.93Z"/><rect class="cls-2" x="116.05" y="-59.08" width="3.17" height="235.27" transform="translate(176.19 -59.08) rotate(90)"/><rect class="cls-2" x="116.05" y="-116.05" width="3.17" height="235.27" transform="translate(119.22 -116.05) rotate(90)"/></g></g></svg>