<svg xmlns="http://www.w3.org/2000/svg" viewBox="0 0 298 13.16"><defs><style>.cls-1{opacity:0.6;}.cls-2{fill:#fff;}</style></defs><g id="圖層_2" data-name="圖層 2"><g id="圖層_1-2" data-name="圖層 1"><g class="cls-1"><path class="cls-2" d="M2,11.34a6.41,6.41,0,0,1-2-5A6.7,6.7,0,0,1,1.88,1.8,6.77,6.77,0,0,1,7,0,14.43,14.43,0,0,1,9.43.2a13.59,13.59,0,0,0,1.71.25c.19,0,.22.09.22.19s0,.33-.08.94,0,1.47,0,1.73-.05.35-.15.35-.14-.12-.14-.35a2.36,2.36,0,0,0-.7-1.72A5.63,5.63,0,0,0,6.88.64,5.14,5.14,0,0,0,3,1.86,5.64,5.64,0,0,0,1.51,6.24a6.06,6.06,0,0,0,6.06,6.14,3.89,3.89,0,0,0,2.92-.83,3.23,3.23,0,0,0,.62-1.41c0-.19.07-.26.17-.26s.11.12.11.26A18.75,18.75,0,0,1,11,12.28c-.11.32-.14.36-.44.49a9.67,9.67,0,0,1-3,.39A7.72,7.72,0,0,1,2,11.34Z"/><path class="cls-2" d="M34.76,0c3.78,0,6.6,2.38,6.6,6.29a6.59,6.59,0,0,1-6.7,6.87c-4.6,0-6.51-3.58-6.51-6.6A6.49,6.49,0,0,1,34.76,0Zm.36,12.52c1.51,0,4.63-.87,4.63-5.76,0-4-2.45-6.19-5.1-6.19-2.81,0-4.9,1.85-4.9,5.52C29.75,10,32.1,12.52,35.12,12.52Z"/><path class="cls-2" d="M72.55,10.76c.07.6.18,1.54.9,1.78a3.72,3.72,0,0,0,1.1.15c.08,0,.13,0,.13.08s-.15.15-.35.15c-.37,0-2.18-.05-2.81-.1-.38,0-.47-.08-.47-.17s0-.1.12-.11.1-.31.07-.61l-.81-8.66h-.05L66.27,12c-.35.74-.4.89-.55.89s-.2-.17-.52-.77c-.44-.83-1.88-3.73-2-3.9S61.2,3.89,61,3.44H61l-.67,7.79c0,.26,0,.57,0,.85a.54.54,0,0,0,.44.52,3.09,3.09,0,0,0,.64.09c.07,0,.13,0,.13.08s-.1.15-.3.15c-.62,0-1.43-.05-1.56-.05s-1,.05-1.41.05c-.17,0-.29,0-.29-.15s.09-.08.17-.08a2.23,2.23,0,0,0,.51,0c.55-.1.6-.76.67-1.4L60.47.3c0-.18.08-.3.18-.3s.17.07.25.25L66,10.81,71,.27C71,.12,71.1,0,71.22,0s.17.13.2.45Z"/><path class="cls-2" d="M93.9,8.05c0,1.62,0,2.94.08,3.65,0,.48.15.85.66.92.23,0,.6.07.75.07s.14.05.14.1-.09.13-.27.13c-.92,0-2-.05-2.06-.05s-1.15.05-1.65.05c-.18,0-.27,0-.27-.13s0-.1.14-.1a2.87,2.87,0,0,0,.5-.07c.34-.07.42-.44.49-.92.08-.71.08-2,.08-3.65v-3c0-2.62,0-3.09,0-3.62s-.2-.86-.57-.94a2.33,2.33,0,0,0-.52-.07c-.07,0-.14,0-.14-.1s.09-.14.27-.14c.55,0,1.61.06,1.7.06S94.34.23,94.84.23c.18,0,.27,0,.27.14s-.07.1-.14.1a3.21,3.21,0,0,0-.42.05c-.45.08-.58.37-.62,1s0,1,0,3.62Z"/><path class="cls-2" d="M115.13,10.64c0,1.38.2,1.81.66,1.95a3.93,3.93,0,0,0,.84.1c.08,0,.13,0,.13.1s-.1.13-.3.13c-1,0-1.63-.05-1.78-.05s-.86.05-1.61.05c-.17,0-.27,0-.27-.13s0-.1.13-.1a2.53,2.53,0,0,0,.69-.1c.42-.12.51-.61.51-2.14V.84c0-.66,0-.84.19-.84s.42.37.58.54l5.34,5.75c1.66,1.78,3.49,3.83,4,4.38l-.19-8.52c0-1.09-.13-1.46-.65-1.6a5.11,5.11,0,0,0-.82-.08c-.12,0-.14,0-.14-.12s.14-.12.34-.12c.75,0,1.56.06,1.74.06S125.3.23,126,.23c.18,0,.3,0,.3.12s-.06.12-.18.12a1.54,1.54,0,0,0-.41.05c-.55.12-.62.49-.62,1.49l0,9.84c0,1.1,0,1.19-.15,1.19s-.34-.19-1.23-1.08c-.18-.16-2.6-2.63-4.38-4.54-1.94-2.1-3.84-4.21-4.38-4.82Z"/><path class="cls-2" d="M153.35,8.64c0-1.36-.08-1.54-.76-1.73a3.45,3.45,0,0,0-.57,0c-.06,0-.13,0-.13-.1s.08-.13.27-.13c.75,0,1.81,0,1.89,0s1.15,0,1.65,0c.18,0,.27,0,.27.13s-.07.1-.14.1a3,3,0,0,0-.42,0c-.45.09-.58.37-.62,1s0,1,0,1.75v1.87c0,.76,0,.79-.22.91a9.11,9.11,0,0,1-9.08-1,6.55,6.55,0,0,1-2-4.78,6.34,6.34,0,0,1,2.8-5.52A8.23,8.23,0,0,1,150.73,0a14,14,0,0,1,2.57.29,8.05,8.05,0,0,0,1.36.16c.17,0,.2.09.2.15A21.08,21.08,0,0,0,154.74,3c0,.27,0,.35-.15.35s-.1-.1-.12-.25A2.48,2.48,0,0,0,154.12,2c-.42-.64-1.78-1.36-3.94-1.36a5.33,5.33,0,0,0-3.59,1.11A5.36,5.36,0,0,0,144.93,6a6.88,6.88,0,0,0,1.77,4.65,6.13,6.13,0,0,0,4.4,1.79,4.56,4.56,0,0,0,1.91-.35.61.61,0,0,0,.34-.59Z"/><path class="cls-2" d="M200.7,12.7c-.23-.11-.25-.18-.25-.63,0-.84.07-1.51.08-1.78s.05-.27.14-.27.11.05.11.18a3,3,0,0,0,.05.62,2.29,2.29,0,0,0,2.49,1.72,2.24,2.24,0,0,0,2.4-2.24c0-1.15-.49-1.83-1.93-3L203,6.66c-1.78-1.46-2.18-2.5-2.18-3.64,0-1.79,1.34-3,3.48-3a6.55,6.55,0,0,1,1.56.17,3.1,3.1,0,0,0,.58.08c.14,0,.17,0,.17.12s-.07.64-.07,1.78c0,.27,0,.38-.11.38s-.12-.08-.14-.21a2.67,2.67,0,0,0-.22-.84c-.1-.19-.55-.89-2.09-.89a1.91,1.91,0,0,0-2.07,1.94c0,1,.47,1.53,2.05,2.82l.47.37c2,1.56,2.45,2.6,2.45,4a3.47,3.47,0,0,1-1.43,2.78,4.42,4.42,0,0,1-2.53.71A5,5,0,0,1,200.7,12.7Z"/><path class="cls-2" d="M230.84,0c3.78,0,6.6,2.38,6.6,6.29a6.59,6.59,0,0,1-6.7,6.87c-4.59,0-6.51-3.58-6.51-6.6A6.49,6.49,0,0,1,230.84,0Zm.36,12.52c1.51,0,4.63-.87,4.63-5.76,0-4-2.45-6.19-5.1-6.19-2.81,0-4.9,1.85-4.9,5.52C225.83,10,228.18,12.52,231.2,12.52Z"/><path class="cls-2" d="M261,0c3.77,0,6.59,2.38,6.59,6.29a6.59,6.59,0,0,1-6.69,6.87c-4.6,0-6.52-3.58-6.52-6.6A6.5,6.5,0,0,1,261,0Zm.35,12.52c1.51,0,4.63-.87,4.63-5.76,0-4-2.45-6.19-5.1-6.19S256,2.42,256,6.09C256,10,258.34,12.52,261.36,12.52Z"/><path class="cls-2" d="M286.84,10.64c0,1.38.2,1.81.66,1.95a3.79,3.79,0,0,0,.83.1c.09,0,.14,0,.14.1s-.1.13-.3.13c-1,0-1.63-.05-1.78-.05s-.86.05-1.61.05c-.17,0-.27,0-.27-.13s.05-.1.13-.1a2.53,2.53,0,0,0,.69-.1c.42-.12.5-.61.5-2.14l0-9.61c0-.66,0-.84.19-.84s.41.37.58.54,2.75,3,5.34,5.75c1.66,1.78,3.49,3.83,4,4.38l-.19-8.52c0-1.09-.13-1.46-.65-1.6a5.11,5.11,0,0,0-.82-.08c-.12,0-.14,0-.14-.12s.14-.12.34-.12c.75,0,1.56.06,1.74.06S297,.23,297.7.23c.18,0,.3,0,.3.12s-.07.12-.18.12a1.5,1.5,0,0,0-.41.05c-.55.12-.62.49-.62,1.49l0,9.84c0,1.1,0,1.19-.15,1.19s-.34-.19-1.23-1.08c-.18-.16-2.6-2.63-4.38-4.54-1.94-2.1-3.84-4.21-4.38-4.82Z"/></g></g></g></svg>