<svg xmlns="http://www.w3.org/2000/svg" viewBox="0 0 234.22 22.41"><defs><style>.cls-1{fill:#fff;}</style></defs><g id="圖層_2" data-name="圖層 2"><g id="圖層_1-2" data-name="圖層 1"><path class="cls-1" d="M0,1.1H21.36V22.41H19V21.34H2.26v1.07H0ZM2.26,19.29H19V3.14H2.26Zm.92-3.76c1.86-.24,4.67-.64,7.43-1.07l.07,1.45c-2.43.45-4.89.93-6.49,1.19a.43.43,0,0,1-.33.36Zm9.71-7.88a36.25,36.25,0,0,0,.73,4.71,16.72,16.72,0,0,0,1.55-3.81l2.26.52c-.05.17-.25.29-.55.29a18.39,18.39,0,0,1-2.56,5.24c.48,1.1,1.15,1.91,1.75,1.91.3,0,.53-1,.66-2.36a12.41,12.41,0,0,0,1.5,1c-.28,2.23-1.05,3.31-2.13,3.31a2,2,0,0,1-.78-.17,4,4,0,0,1-2.38-2.1A13.5,13.5,0,0,1,9.78,18.7a9.69,9.69,0,0,0-1.2-1.31,12.36,12.36,0,0,0,3.61-3,33.25,33.25,0,0,1-1.26-6.78H3.44V6h7.34l-.15-2.34,2.59.12c0,.19-.21.36-.58.38,0,.62.07,1.24.1,1.84h3.61a10.1,10.1,0,0,0-2.53-1.67l1.08-1a10.51,10.51,0,0,1,2.6,1.6L16.4,6h1.53V7.65ZM4.24,9H9.88V13.6H4.24Zm4,3.35V10.24H5.82v2.07Z"/><path class="cls-1" d="M34.63,1.07v9h-7v12.2H25.3V1.07ZM32.4,3H27.66V4.69H32.4ZM27.66,8.26H32.4V6.36H27.66Zm18.7-7.19V19.41c0,2.62-1.07,2.91-6.22,2.91A8.47,8.47,0,0,0,39.29,20c1,.05,2.06.05,2.86.05,1.68,0,1.81,0,1.81-.62V10.15H36.73V1.07ZM44,3H39V4.69H44ZM39,8.31H44V6.36H39Z"/><path class="cls-1" d="M56.32,14.55c.82.53,3.33,2.34,3.93,2.84L58.9,19c-.53-.55-1.63-1.55-2.58-2.38v5.67H54V16.84a17.23,17.23,0,0,1-3.56,3.83,8.81,8.81,0,0,0-1.58-1.59,16.2,16.2,0,0,0,4.76-5H49.45V12.12H54V10H49.15V8.12h2.78a13.4,13.4,0,0,0-1-3.19l1.66-.45h-3V2.6H54V0l2.88.17c0,.19-.17.33-.57.38v2h4.46V4.48H57.9L60,5c-.05.16-.25.23-.57.26A29.82,29.82,0,0,1,58.1,8.12h3.21V10H56.77a1.24,1.24,0,0,1-.45.17v1.95h4.61v1.93H56.32ZM56.09,8a25.4,25.4,0,0,0,1.26-3.5H52.81A12.68,12.68,0,0,1,53.91,8l-.55.17h3.18Zm16.48.09v2.1H69.88V22.34h-2.3V10.17H64.39c0,2.74-.07,8.48-4,12.22a5.38,5.38,0,0,0-1.71-1.57c3.11-3,3.44-7,3.44-10.32V2.26l1.38.38A30,30,0,0,0,70.06.07l2.28,1.64a.7.7,0,0,1-.63.12,42,42,0,0,1-7.32,2.5V8.07Z"/><path class="cls-1" d="M88.16,1.38h7.47c.43-.07.46-.09.48-.09a14.33,14.33,0,0,0,1.56.64c0,.09-.13.24-.26.28-.82,2.05-2,4.6-3.18,7.15,2.41,2.43,3.36,4.19,3.36,5.84,0,4.12-2.93,4.12-4.41,4.12-.35,0-.73,0-1.08,0a4.9,4.9,0,0,0-.75-2.19c.5,0,1,.07,1.43.07,1.43,0,2.45,0,2.45-2.07,0-1.43-1-3-3.48-5.36,1-2.24,1.85-4.38,2.53-6.24H90.52V22.32H88.16v-20a.82.82,0,0,1-.5.09,30.52,30.52,0,0,1-2.83,4.93h2.48v2H83.25a27,27,0,0,1-2.11,2.17h5.09V22H84v-.9H79v1.26H76.83V14.72c-.55.33-1.13.64-1.71.93a11.27,11.27,0,0,0-1.28-1.76,21.66,21.66,0,0,0,3-1.7v-.71h1a23.74,23.74,0,0,0,2.53-2.17H74.29v-2h4.79V4.62H75.37v-2h3.71V.05l2.79.16c0,.19-.2.34-.58.39v2h2.86V4.45a24,24,0,0,0,1.6-3.16l2.41.76ZM84,15.41v-2.1H79v2.1Zm-5,3.86h5V17.15H79Zm2.31-12h.88a26.91,26.91,0,0,0,1.88-2.69H81.29Z"/><path class="cls-1" d="M98.84,17.24c1.63-2.09,2.41-5.43,2.76-8.59l2.31.45c-.38,3.26-1.13,7-2.86,9.38ZM106,6.81,109,7c0,.19-.17.33-.6.4V18.63c0,1.14.25,1.33,1.56,1.33h4.16c1.4,0,1.63-.83,1.83-4.81a6.93,6.93,0,0,0,2.21,1c-.3,4.55-1,5.91-3.87,5.91h-4.58c-2.94,0-3.77-.76-3.77-3.4Zm8.76-.62a38.37,38.37,0,0,0-8.61-4.33L107.64.12a40.34,40.34,0,0,1,8.63,4.1Zm6,11.53a25.68,25.68,0,0,0-4.49-8.91l2.16-1a25.38,25.38,0,0,1,4.71,8.83Z"/><path class="cls-1" d="M141.12,2.29V4.57H134.5l-.63,4.27c.38,0,.73-.08,1.25-.08,3.44,0,6.4,1.91,6.4,5.58,0,3.45-2.78,6.14-6.9,6.14a9.29,9.29,0,0,1-4.41-1l.65-2.09a8.21,8.21,0,0,0,3.66.9,3.77,3.77,0,0,0,4-3.71c0-2.31-1.65-3.77-5-3.77a14.33,14.33,0,0,0-2.29.15l1.18-8.67Z"/><path class="cls-1" d="M159.15,20.22h-3.06l-1.73-5.36h-5.87l-1.66,5.36h-3L149.72,2h3.56Zm-5.27-7.48L152.38,8c-.36-1.19-.68-2.48-1-3.6h0c-.27,1.12-.57,2.46-.9,3.57l-1.53,4.79Z"/><path class="cls-1" d="M167.82,14.55c.83.53,3.34,2.34,3.94,2.84L170.4,19c-.52-.55-1.63-1.55-2.58-2.38v5.67h-2.31V16.84A16.77,16.77,0,0,1,162,20.67a8.21,8.21,0,0,0-1.58-1.59,16.34,16.34,0,0,0,4.77-5H161V12.12h4.56V10h-4.86V8.12h2.78a13,13,0,0,0-1-3.19l1.66-.45h-3V2.6h4.36V0l2.89.17c0,.19-.18.33-.58.38v2h4.47V4.48H169.4l2.06.55c-.05.16-.25.23-.58.26a29.82,29.82,0,0,1-1.28,2.83h3.21V10h-4.54a1.17,1.17,0,0,1-.45.17v1.95h4.62v1.93h-4.62ZM167.6,8a26.76,26.76,0,0,0,1.25-3.5h-4.54A12.34,12.34,0,0,1,165.41,8l-.55.17h3.19Zm16.47.09v2.1h-2.68V22.34h-2.31V10.17H175.9c0,2.74-.08,8.48-4,12.22a5.45,5.45,0,0,0-1.7-1.57c3.11-3,3.43-7,3.43-10.32V2.26l1.38.38A29.79,29.79,0,0,0,181.56.07l2.29,1.64a.72.72,0,0,1-.63.12,42.25,42.25,0,0,1-7.32,2.5V8.07Z"/><path class="cls-1" d="M198.66,19.39h10.16v2.19H186.1V19.39h10.11V13.84h-7.28V11.65h7.28V6.81h-5.72A20.53,20.53,0,0,1,187.73,11a16,16,0,0,0-2-1.38c2-2.07,3.68-5.72,4.66-9.27l3,.79c-.07.19-.27.29-.63.29a30.19,30.19,0,0,1-1.17,3.21h4.69V0l3,.19c0,.19-.2.33-.6.41v4h9V6.81h-9v4.84h8v2.19h-8Z"/><path class="cls-1" d="M212,6.67A20.73,20.73,0,0,1,216.67,9l-1.38,1.9a20.43,20.43,0,0,0-4.62-2.57Zm-.56,13.88a69.23,69.23,0,0,0,4.52-7.76l1.8,1.43a73.66,73.66,0,0,1-4,7.22.59.59,0,0,1,.15.38.53.53,0,0,1-.13.33Zm2-20.36A19.74,19.74,0,0,1,218,2.69l-1.38,1.84a18.8,18.8,0,0,0-4.51-2.7Zm20.84,9.1h-7.15v3.52h5.44V22.2h-2.4v-.91h-8.33v1H219.5V12.81h5.16V9.29h-7V7.12h7V3.62c-1.85.29-3.78.52-5.61.69a6.79,6.79,0,0,0-.73-1.9A63.18,63.18,0,0,0,231,0l2.13,1.84c-.12.09-.25.09-.63.09a45.28,45.28,0,0,1-5.39,1.29V7.12h7.15Zm-4.11,10V14.86h-8.33v4.38Z"/></g></g></svg>