<svg xmlns="http://www.w3.org/2000/svg" viewBox="0 0 234.15 168.66"><defs><style>.cls-1{fill:#fff;}</style></defs><g id="圖層_2" data-name="圖層 2"><g id="圖層_1-2" data-name="圖層 1"><path class="cls-1" d="M56.43,1,67.18,8.63a6,6,0,0,1-3.33,1.73v46c0,6.41-1.74,11.16-13.1,12,0-8.57-3-9.72-8-10.44v-.79H52c.68,0,.91-.36.91-1V41.16H41.35V64.4c0,.65-3.18,2.74-8.78,2.74h-2v-26H19.39C18,51.09,13.71,61,.83,68.07l-.6-.5c8.4-11,9.09-25,9.09-38.64V2.52l12.34,4H52ZM20.07,28.86A92.65,92.65,0,0,1,19.54,40H30.6V24H20.07ZM30.6,7.63H20.07V22.88H30.6Zm22.27,0H41.35V22.88H52.87ZM41.35,40H52.87V24H41.35Z"/><path class="cls-1" d="M140,34.68a84.58,84.58,0,0,0,1.9-10.07l11.81,2.52c-.22.93-1,1.44-2.87,1.37a67.82,67.82,0,0,1-8.26,20.29c1.74,5.11,3.79,7.26,4.32,7.26.91,0,4.16-8.41,4.92-10.64l.45.07-1.21,13.38c1.44,2.74,2.12,4.39,2.12,5.61,0,1.66-2.12,3.75-4.69,3.75-2.12,0-7.65-1.52-12.27-11.16a50,50,0,0,1-14.92,10.65l-.84-.72a46,46,0,0,0,13.41-16,91.69,91.69,0,0,1-3-16.7,3.94,3.94,0,0,1-1.14.29c-.07,15.54-.37,20.51-3,22.6-2,1.51-3.93,2.08-7.8,2.15,0-3.23-.45-4.74-2.19-5.68a29.76,29.76,0,0,1-12,14.68l-.76-.5c6-9.86,6.29-22.38,6.29-33.68V15.26a15.3,15.3,0,0,1-2.05.14H81.1l-.3-1.15H98.67l4.62-6,7,5v-.07l10.6,3.52h8.94c-.23-5.39-.3-11-.45-16.69l12.87,1.3c-.07.93-.61,1.43-2.95,1.79,0,4.68,0,9.21.07,13.6h1.06l4.32-5.18a3.46,3.46,0,0,1-.76-.72A11.91,11.91,0,0,0,141.31,3l.53-.36c8.49.72,11.36,3.38,11.36,5.83s-2.95,4.6-5.83,4.32l6.29,4.1c-.53.86-1.59,1-3.56,1H139.34c.08,6,.15,11.72.61,16.83ZM109.12,45a3.65,3.65,0,0,1-2.35,1.23V61c0,.07-2.34,2.45-9.16,2.45V59.22H92.76v5.11c0,.14-1.44,3.09-9.09,3.09V39.58L93,43.17h3.94l3.25-4ZM105.56,5.61c-.53.79-1.66,1-3.48,1H84.28L83.9,5.47H94L98,.29Zm-5.45,13.31L107.3,24c-.53.8-1.66,1-3.48,1H84.43l-.38-1.15h12.2ZM84.43,34.68l-.38-1.15h12.2l3.86-5,7.19,5.11c-.53.79-1.66,1-3.48,1Zm8.33,23.39h4.85V44.33H92.76ZM119.5,32.6c0,5.61,0,12.37-2,19.07,2.73,0,3,0,3.34-.44,1.06-1,1.06-5.9,1.13-18.63Zm4.92-5L130.63,32c-.38-4.46-.6-9.28-.83-14.17H119.5v13.6h1.66Z"/><path class="cls-1" d="M174.16,28.64c3.18,6.12,4.47,11.15,4.47,15.33,0,6.11-3.18,12.59-9.69,12.59-3.49,0-5.91-2.09-5.91-5a6.56,6.56,0,0,1,2.8-5c3.94-2.59,7.88-9.64,7.58-17.92ZM181.51,3a71.36,71.36,0,0,1,7.5-.43c13.78,0,18.55,5.25,18.55,9.71a6.29,6.29,0,0,1-6.36,6.34,7.89,7.89,0,0,1-3.18-.72c-2-4-7.57-10.22-16.59-14.18Zm2,18.64,13.63.93c-.07.87-.53,1.44-2.65,1.8V55.26c0,2.23.23,2.38,2.35,2.38h9.24c1.51,0,2.35,0,3.26-1.23s2.42-4.74,4.39-9.64h.45V56.92c3.56,1.44,4,2.09,4,3.45,0,4-2.65,6.19-12.2,6.19h-9.62c-10.6,0-12.87-2.16-12.87-11.51Zm30.45,5c15.22,6.33,20.22,14.68,20.22,21,0,5.39-3.64,9.28-7.5,9.28a7,7,0,0,1-5.6-3.17,32.18,32.18,0,0,0,.22-4c0-7.06-1.89-16-7.87-22.67Z"/><path class="cls-1" d="M23.25,133.54c-.68.72-1.82,1.3-4,1.66v17.13c5.15,4.6,9.92,5.18,24,5.18,8.18,0,19.31,0,28.7-.29V158c-4,1-6.36,4.1-6.81,8.78H43.32c-14.46,0-20-2.3-24.92-13.46A132,132,0,0,1,6.82,166.65a2,2,0,0,1-1.37,1.87L0,157.29c2.42-.57,5.6-1.58,9-2.66V133.19H.23L0,131.82H7.8l4.92-6.19ZM2.35,102.32c12.34,1.29,16.43,5.68,16.43,9.42a6.26,6.26,0,0,1-6.28,6,6.58,6.58,0,0,1-4.62-2.08c-.46-4.54-2.58-9.79-6-12.95Zm38.32,24.17V113.76H35.22a37.11,37.11,0,0,1-11,11.15l-.91-.5C25.9,119.08,28,109.73,28.78,101l11.89,2.88V100l13.86,1.3c-.15.93-.76,1.51-2.88,1.8v9.5h3l5.15-6.48,9.39,6.62c-.53.79-1.67,1-3.64,1H51.65v12.73h5.61l5.23-6.62,9.61,6.77c-.53.79-1.59,1-3.63,1H20.9l-.3-1.15Zm24,26.2c-.07.57-5.3,2.59-8.86,2.59H53.93V150.6H38.4v1.73c0,.21-1.74,3.67-10.6,3.67V130.31l11.05,4H53.17l3.94-4.9,10.6,7a5.32,5.32,0,0,1-3,1.59Zm-24-46.85a6.35,6.35,0,0,1-1.21.15A52.19,52.19,0,0,1,36,112.61h4.69ZM38.4,149.45H53.93v-14H38.4Z"/><path class="cls-1" d="M152.82,145.35l-1.66,12.8a21.31,21.31,0,0,1,2,7.2,2.53,2.53,0,0,1-.91,2.23,6.06,6.06,0,0,1-3.41,1c-8,0-12.5-10.8-13.63-13.53a55,55,0,0,1-20.3,12.45l-.61-1a49.8,49.8,0,0,0,18.41-18.28,85.83,85.83,0,0,1-3-15.25,5.2,5.2,0,0,1-2.19.72c-.46,20.29-.84,24.68-10.76,24.68,0-3.81-1.06-5.54-4.62-6.62-3,6.33-8.33,12.38-17.87,16.91l-.61-.58c7.2-7.12,10.3-15.47,11.51-23.89A205.7,205.7,0,0,1,87.61,156a3.45,3.45,0,0,1-2.27,2l-5.08-12c1.59-.21,4.09-.5,7.12-.93V121.67H81.25l-.38-1.15h6.51V101.31l13.26,1.15c-.15,1-.91,1.58-3,1.87v15.11l3.1-5.54,5.31,5.33V112l11.43,3.74h11.21c-.15-5.11-.15-10.43-.15-15.9l12.8,1.22c-.07,1-.68,1.44-2.88,1.8-.15,4.32-.22,8.64-.22,12.88h1.66l3.71-4.6a15.69,15.69,0,0,0-3.71-7.49l.46-.36c9.54-.07,12.65,2.67,12.65,5.26,0,2-1.82,3.88-4.09,4.46l4.24,2.88c-.53.86-1.59,1-3.56,1H138.21a161.42,161.42,0,0,0,.83,16.62h.07c1-3,1.9-6.18,2.73-9.64l11.51,3.74c-.37.94-1.13,1.37-3.1,1.3a84.14,84.14,0,0,1-8.18,17.41c2.12,5.76,4.62,8.49,4.92,8.49.83,0,4.32-7.34,5.38-9.64ZM97.61,121.67v22c2.57-.43,5.15-.86,7.8-1.22A97.18,97.18,0,0,0,106,131v-9.57a9.64,9.64,0,0,1-2.2.21Zm18.33,9.93c0,5.9-.53,12.59-3.26,19.07,1.52,0,3.18.07,4,.07.53,0,.83-.07,1.06-.43,1.06-1.29,1.36-6.55,1.51-18.71Zm6-5.11,7.65,5.47c-.45-4.82-.76-9.78-.91-15H115.94v13.53h2.57Z"/><path class="cls-1" d="M174.16,128.87c3.18,6.11,4.47,11.15,4.47,15.32,0,6.12-3.18,12.6-9.69,12.6-3.49,0-5.91-2.09-5.91-5a6.53,6.53,0,0,1,2.8-5c3.94-2.59,7.88-9.65,7.58-17.92Zm7.35-25.62a71.36,71.36,0,0,1,7.5-.43c13.78,0,18.55,5.25,18.55,9.71a6.29,6.29,0,0,1-6.36,6.34,7.89,7.89,0,0,1-3.18-.72c-2-4-7.57-10.22-16.59-14.18Zm2,18.64,13.63.93c-.07.87-.53,1.44-2.65,1.8v30.87c0,2.23.23,2.38,2.35,2.38h9.24c1.51,0,2.35,0,3.26-1.23s2.42-4.75,4.39-9.64h.45v10.15c3.56,1.44,4,2.08,4,3.45,0,4-2.65,6.19-12.2,6.19h-9.62c-10.6,0-12.87-2.16-12.87-11.51Zm30.45,5c15.22,6.33,20.22,14.67,20.22,21,0,5.39-3.64,9.28-7.5,9.28a7,7,0,0,1-5.6-3.17,32.3,32.3,0,0,0,.22-4c0-7.06-1.89-16-7.87-22.67Z"/></g></g></svg>