<svg enable-background="new 0 0 750 1271" viewBox="0 0 750 1271" xmlns="http://www.w3.org/2000/svg"><path d="m368 95.4c2 34-.9 87.9-.9 87.9"/><path d="m323.1 141.1c9-2 16.4-1.7 25.6-3.4-19.6 3.4-21.6 13.4-26 23.8 9.8-.7 19.4-1.3 32.4 2.7-16-1-17.5 9.1-27 14 9.2-1.6 14.1-6.2 23.4-6.3"/><path d="m334.7 121c3 15.5 5.4 56.6 7.4 61.6"/><path d="m381.5 124.9c12.9-.7 16.1-3.6 28.8-1.6-5.5 2.7 3.8 4.7-.4 5.5-11.8 2.4-19.7 16.7-30.9 19.3"/><path d="m379 146.1c12.5 2.6 15.1.4 25.4 3.6"/><path d="m405.8 150.9c-13.4.4-22.9 17.5-27.5 19 10.1-1.7 17-5.7 28.8.2"/><path d="m393.6 110.8c6.4 15.9.8 58.3-4.8 70.6"/><path d="m314.3 116.8c-6.1 8.4-12.6 47.5 1.8 69-5.3 10.4 77.2 7 108.2-4.3"/><path d="m420.4 102c4.3 13.5 6.5 67.9-2.9 75.1"/><path d="m281.4 221.1c29.7-6.4 136-46.7 163.9-15.8-79.5-17.1-93.7 17.4-105.5 22.5"/><path d="m333.9 224.7c-3.7 9.5 9.4 13.3 9.4 13.3"/><path d="m359 218.6c23-5.3 32-2.3 39.5 2.3"/><path d="m389.5 221.9c-22.3 12.3-24.6 24.1-39.8 29.4"/><path d="m342 257c3.8 5.2 10.3 6.3 10.3 6.3"/><path d="m370.2 241.1c26.6-9.7 53.9 1.6.8 20.1"/><path d="m305.4 280.6c41.7-8.6 103.3-29.2 127.9-2.4-14.1-.5-41.7 4.4-49.7 8.7"/><path d="m394.7 317.4c-12 9.6-55.7 25.7-72.4 25.7"/><path d="m313 362.9c0 28.1 9.3 35.2 28.6 56.2"/><path d="m390.2 352.8c-19.3 27.5-87.4 36.7-108.4 55"/><path d="m287.6 420.8c22.7-21.2 114.5-69.7 149.9-23"/><path d="m431.2 391c-3.9 9.7-41.5 9.4-41.5 9.4"/><path d="m363.1 404.5c.2 13.5 12.2 34.9-21.1 25.9 0 0-43.5-11.9-37.3 35.5"/><path d="m304.7 465.8s68.2-8.3 92-45.7"/><path d="m404.9 409.5c13.4 10.2 15.7 56.4 5.6 63-6.6-6.7-18.7-12-18.7-12"/><path d="m284.1 547.2c100-92 141 15 221.5 15.5"/><path d="m274.4 97.4c-.5 1.4-1.1 1.6-2.2 1.6h-16.6v5h7.9v4.4h-7.2v30.9h2.8v3.9c-.2.6-.7.9-1.3.9h-2.5v4.8h5.8.1c1.6 0 2.9 0 2.9-2v-7.6h3.9v7.6c.1 1.9 1.3 2 2.9 2h.1 6v-4.8h-2.5c-.6 0-1-.3-1.3-.9v-3.9h.2c2.8-.1 4-1.4 4-4v-26.8h-8v-4.4h5.6c2 0 3.2-.4 4.1-1.5 1-1.2 1.6-2.1 1.8-5.2zm-2 15.9v4.2h-7.2v4.6h7.3v3.8h-7.2v4.6h7.2v1.8c0 1.2-.7 1.9-1.7 1.9h-9.3v-21h10.9zm-23.1-9.3h1.7v-5h-18v45.6c0 2.9 1.4 4.3 4.1 4.3h13.9v-5.1h-1.7v-4.1h.2c2.2-.1 3.2-1.3 3.2-4v-27.3h-3.4zm-5 4.5h-3.4v31.4h3.4v4h-4.8c-.6 0-1.7-.6-1.7-1.8v-38.1h6.5zm4.2 24.7c0 1.3-.4 2-1.2 2h-2.3v-22.2h3.4v20.2zm27 42.7v-18.1h-40.9v23.3h35.6c3.5 0 5.3-1.7 5.3-5.2zm-6.2-8.8h-23.8v5h23.8v.9c0 1.5-.6 3.3-1.8 3.3h-27.1v-13.4h28.9zm-36.3 17.5v22.9h38.9c3.6 0 5.3-1.7 5.3-5.2v-17.7zm38.3 9.2h-6.4v5h6.4v.9c0 1.4-.6 2.9-1.8 2.9h-30.5v-12.9h32.3zm-10.2 0h-17.3v5h17.3z"/><path d="m514 362.5c-.6.4-1.6 1.1-2.8 2.1l-4.2 3.2-4 3.1c1.4.1 3.1.1 5.3.1 1.6 0 2.7 0 3.3-.1s1-.3 1.4-.7.6-.9.6-1.5c0-.3.1-.4.2-.4s.1 0 .2.1c0 .1.1.5.1 1.4s.1 1.6.1 2.2v1.4.2c0 .2-.1.3-.2.3s-.2-.1-.2-.3c-.1-.7-.3-1.2-.6-1.5s-.8-.5-1.3-.5-2.6-.1-5.9-.1l-6-.1c-.3 0-.5-.1-.5-.2v-.1c0-.1.4-.4 1.1-.9s1.6-1.2 2.6-2 1.8-1.4 2.5-1.9c1.4-1 2.2-1.6 2.5-1.9 1.2-1 1.9-1.6 2.2-1.7.2-.1.3-.2.3-.3s-.1-.1-.4-.1h-1.7c-2.2 0-4 .1-5.3.2s-2.1.2-2.3.3-.5.3-.7.6-.3.6-.3.9c0 .4-.1.7-.3.7-.1 0-.2-.1-.2-.4v-4.9c0-.2.1-.3.2-.3s.2.1.2.3c0 .8.2 1.4.6 1.7s1.3.4 2.6.4l4-.1c2.3 0 3.7-.1 4.1-.2s.9-.4 1.5-.8.9-.9 1-1.4c0-.2.1-.3.2-.3s.2.1.2.4zm-13.2 17.3c-.5-.3-.9-.7-1.2-1.2s-.4-1-.4-1.6c0-.7.2-1.2.6-1.6s.9-.6 1.6-.6c.5 0 1 .1 1.4.4.4.2.7.5.9.8s.4.8.7 1.6c.4 1.1.7 1.7 1 1.9s.6.3 1 .3c.7 0 1.2-.1 1.6-.4s.6-.7.6-1.2c0-.4-.1-.7-.3-1-.2-.2-.6-.4-1.3-.5s-1-.4-1-.8c0-.1.1-.3.2-.5.2-.2.4-.3.7-.3.6 0 1.1.3 1.5.8.4.6.6 1.3.6 2.3 0 .8-.1 1.4-.4 1.9-.2.5-.5.8-.8.9s-.9.2-1.8.2l-3-.1c-1.2 0-2 .1-2.5.2s-.7.4-.7.7v.3.2c0 .2-.1.2-.2.2-.3 0-.4-.7-.4-2 0-.4.1-.6.3-.8.2 0 .6-.1 1.3-.1zm4.4 0c-.3-.2-.6-.7-1.1-1.4-.4-.7-.8-1.2-1.2-1.5s-.8-.5-1.4-.5c-.5 0-.9.1-1.2.4s-.5.6-.5 1 .1.8.4 1.1.6.6 1 .8 1 .2 1.8.2c.7 0 1.4-.1 2.2-.1zm2.8 6.1c-1.7-.1-3.3-.1-4.9-.1-1.2 0-2 .1-2.4.4s-.6.6-.6 1.1c0 .4.1.8.4 1.2.1.2.2.3.2.3 0 .1-.1.1-.2.1-.2 0-.5-.2-.9-.7s-.6-1.1-.6-1.8.3-1.2.8-1.6c.5-.3 1.3-.5 2.4-.5s3 .1 5.7.2c0 0 0-.4.1-1v-.6c0-.1.1-.2.2-.2s.2.1.2.3c.1.3.4.7 1 1.4.5.7 1.3 1 2.3 1.1.3 0 .4.1.4.2s-.1.2-.3.2c-.1 0-.1 0-.2 0-.3 0-.6 0-1 0h-1.8v2.2c0 .4 0 .6-.1.6-.3 0-.6-.1-.7-.2.1-.3.1-1.1 0-2.6zm.8 6c-.5 0-1.9.1-4.2.1-1.5 0-2.4 0-2.9.1s-.9.2-1.2.5-.5.6-.5 1c0 .5.3 1 .8 1.5s1 .8 1.6.9 1.9.2 4 .2c1 0 1.5-.1 1.7-.2s.3-.4.3-.8c0-.2.1-.2.2-.2s.1 0 .2.1v.5 2c-.8.1-1.7.1-2.8.1l-4.2-.1c-.9 0-1.4.1-1.6.2s-.4.3-.4.6c0 .2-.1.3-.2.3s-.2-.2-.2-.5v-1.6c0-.3.1-.4.3-.4h.2.7.9c-.7-.5-1.3-1-1.7-1.6s-.6-1.1-.6-1.7c0-.5.1-.9.4-1.3.3-.3.6-.6 1-.7s1.4-.2 2.9-.2c1.6 0 2.8-.1 3.7-.1.5 0 .8 0 .9-.1.1 0 .2-.2.2-.4 0-.3.1-.4.2-.4s.2.2.2.5v1.7zm-2.4 10.6c.8.4 1.5.9 1.9 1.4s.6 1 .6 1.5c0 .4-.1.7-.4 1s-.6.4-1 .4c-.7 0-1.1-.3-1.1-.8 0-.3.2-.5.6-.6.5-.2.8-.5.8-.9 0-.3-.2-.7-.6-1-.4-.4-.9-.6-1.4-.7s-1.5-.2-3.1-.2c-1.5 0-2.3.1-2.5.2s-.4.4-.4.8c0 .1-.1.2-.2.2-.2 0-.2-.2-.2-.5v-3.3c0-.2.1-.3.2-.3s.2.2.2.5c0 .4.2.7.4.8.3.1 1.2.2 2.9.2 2.5 0 3.9 0 4.4-.1s.8-.4.8-1c0-.2.1-.4.2-.4s.1 0 .2.1c0 0 .1.4.1.9l.1 1.9c-.4-.2-1.2-.1-2.5-.1zm-5.6 10.4c-.5-.3-.9-.7-1.2-1.2s-.4-1-.4-1.6c0-.7.2-1.2.6-1.6s.9-.6 1.6-.6c.5 0 1 .1 1.4.4.4.2.7.5.9.8s.4.8.7 1.6c.4 1.1.7 1.7 1 1.9s.6.3 1 .3c.7 0 1.2-.1 1.6-.4s.6-.7.6-1.2c0-.4-.1-.7-.3-1-.2-.2-.6-.4-1.3-.5s-1-.4-1-.8c0-.1.1-.3.2-.5.2-.2.4-.3.7-.3.6 0 1.1.3 1.5.8.4.6.6 1.3.6 2.3 0 .8-.1 1.4-.4 1.9-.2.5-.5.8-.8.9s-.9.2-1.8.2l-3-.1c-1.2 0-2 .1-2.5.2s-.7.4-.7.7v.3.2c0 .2-.1.2-.2.2-.3 0-.4-.7-.4-2 0-.4.1-.6.3-.8.2 0 .6-.1 1.3-.1zm4.4 0c-.3-.2-.6-.7-1.1-1.4-.4-.7-.8-1.2-1.2-1.5s-.8-.5-1.4-.5c-.5 0-.9.1-1.2.4s-.5.6-.5 1 .1.8.4 1.1.6.6 1 .8 1 .2 1.8.2c.7 0 1.4 0 2.2-.1zm9.6 6.4c-.9 0-1.9 0-2.8 0h-7-3.4c-.6 0-1.1.1-1.4.2-.3.2-.5.5-.5 1.1 0 .2-.1.3-.2.3s-.2-.1-.2-.3c0 0 0-.1 0-.2.1-.7.1-1.5.1-2.5 0-.6 0-1.1-.1-1.4 0-.1 0-.1 0-.2 0-.2.1-.3.2-.3s.2.1.2.3c0 .6.2 1 .6 1.2s1 .3 1.9.3h6.4c2.1 0 3.3 0 3.7-.1.4 0 .7-.2 1-.4s.4-.6.5-1c0-.3.1-.4.2-.4s.2.1.2.3c.1 1.2.3 2.2.5 2.8v.3zm-7.5 14.7c-.4 1.3-.9 2.2-1.5 2.8s-1.5.9-2.4.9c-1 0-2-.4-2.8-1.2-.9-.8-1.3-1.9-1.3-3.4 0-.3 0-.7.1-1.4 0-.4 0-.6 0-.6 0-2.1 0-3.5-.1-4.2 0-.2.1-.4.2-.4s.1 0 .2.1c0 .1.1.3.2.8.1.3.2.5.4.6.2.2.6.3 1.2.4s1.6.1 2.8.1h2.9 1.7c1.2 0 2.2 0 3-.1s1.2-.2 1.4-.4.4-.5.4-1c0-.2.1-.3.2-.3s.2.1.2.3v1.8 1.7c.1 1.2.1 1.9.1 2.3 0 1.3-.3 2.2-.9 3-.6.7-1.4 1.1-2.5 1.1-.8 0-1.5-.2-2.1-.7-.5-.2-1-1-1.4-2.2zm-.5-3.4c-.2-.1-.5-.1-1-.1l-3.5-.1c-1.2 0-1.9 0-2.1.1-.1.1-.3.3-.4.6s-.1.9-.1 1.6c0 .6.1 1.2.3 1.6s.6.8 1.2 1.1 1.3.5 2.1.5c1.2 0 2.1-.3 2.7-1 .6-.6.9-1.6.9-2.9-.1-.5-.1-.9-.1-1.4zm6.7 0c-1.6-.1-3-.1-4-.1h-1.7c-.2 0-.4 0-.4.1-.1.1-.1.2-.1.5 0 1.3.3 2.3.8 3.1s1.4 1.2 2.6 1.2c1 0 1.8-.3 2.3-.9s.8-1.3.8-2.2c0-.5-.1-1.1-.3-1.7zm-12.7 13.6c-.5-.3-.9-.7-1.2-1.2s-.4-1-.4-1.6c0-.7.2-1.2.6-1.6s.9-.6 1.6-.6c.5 0 1 .1 1.4.4.4.2.7.5.9.8s.4.8.7 1.6c.4 1.1.7 1.7 1 1.9s.6.3 1 .3c.7 0 1.2-.1 1.6-.4s.6-.7.6-1.2c0-.4-.1-.7-.3-1-.2-.2-.6-.4-1.3-.5s-1-.4-1-.8c0-.1.1-.3.2-.5.2-.2.4-.3.7-.3.6 0 1.1.3 1.5.8.4.6.6 1.3.6 2.3 0 .8-.1 1.4-.4 1.9-.2.5-.5.8-.8.9s-.9.2-1.8.2l-3-.1c-1.2 0-2 .1-2.5.2s-.7.4-.7.7v.3.2c0 .2-.1.2-.2.2-.3 0-.4-.7-.4-2 0-.4.1-.6.3-.8.2 0 .6-.1 1.3-.1zm4.4 0c-.3-.2-.6-.7-1.1-1.4-.4-.7-.8-1.2-1.2-1.5s-.8-.5-1.4-.5c-.5 0-.9.1-1.2.4s-.5.6-.5 1 .1.8.4 1.1.6.6 1 .8 1 .2 1.8.2c.7-.1 1.4-.1 2.2-.1zm3.8 6c-.3 0-.6 0-.9 0-.2 0-.6 0-1 0 .7.7 1.2 1.2 1.4 1.5.2.4.3.8.3 1.2 0 1-.5 1.9-1.4 2.7-1 .7-2.1 1.1-3.4 1.1-1.4 0-2.5-.4-3.4-1.3s-1.3-1.8-1.3-2.9c0-.8.3-1.5.8-2.3-.9-.1-1.9-.2-3.1-.2-.7 0-1.2 0-1.5.1h-.4c-.5.1-.8.5-.9 1 0 .2-.1.3-.3.3h-.1v-.1c.1-.8.1-1.5.1-2 0-1.2 0-1.9 0-2.2 0-.2.1-.2.2-.2s.2.1.2.2c.1.6.2 1 .5 1.2.2.2 1.3.3 3.2.3s3.1.1 3.5.1h3.1 1.8c.9 0 1.6-.1 1.8-.2.3-.1.4-.4.5-.9 0-.2.1-.2.2-.2s.1 0 .2.1c0 .1.1.4.1.9zm-5.1-.1c-1.4 0-2.3 0-2.6.1-.4.1-.7.3-1.1.7-.3.4-.5.9-.5 1.5 0 .8.4 1.5 1.2 2s1.7.8 2.9.8c1.3 0 2.3-.3 3.1-.8s1.2-1.1 1.2-1.9c0-.7-.3-1.3-1-1.7-.7-.5-1.7-.7-3.2-.7zm4.1 10.7c-1.7-.1-3.3-.1-4.9-.1-1.2 0-2 .1-2.4.4s-.6.6-.6 1.1c0 .4.1.8.4 1.2.1.2.2.3.2.3 0 .1-.1.1-.2.1-.2 0-.5-.2-.9-.7s-.6-1.1-.6-1.8.3-1.2.8-1.6c.5-.3 1.3-.5 2.4-.5s3 .1 5.7.2c0 0 0-.4.1-1v-.6c0-.1.1-.2.2-.2s.2.1.2.3c.1.3.4.7 1 1.4.5.7 1.3 1 2.3 1.1.3 0 .4.1.4.2s-.1.2-.3.2c-.1 0-.1 0-.2 0-.3 0-.6 0-1 0h-1.8v2.2c0 .4 0 .6-.1.6-.3 0-.6-.1-.7-.2.1-.3.1-1.2 0-2.6zm1 6.4h-2.5-2.4-1.8-1.4c-.5 0-.9.1-1 .2-.1.2-.2.4-.2.7 0 .4-.1.6-.3.6-.1 0-.2-.1-.2-.2s0-.1 0-.2c.1-.6.1-1.2.1-1.8 0-.9 0-1.5-.1-1.8 0-.1 0-.1 0-.2 0-.2.1-.2.2-.2s.2.2.3.6.1.6.3.7c.1.1.5.2 1.1.2l4.7.1c1.2 0 2-.1 2.2-.3s.4-.5.4-1c0-.2.1-.2.2-.2s.1 0 .2.1c0 .1.1.5.1 1.2.1.7.1 1.2.1 1.5zm5.5-1.1c0 .3-.1.5-.3.7s-.4.3-.7.3-.5-.1-.8-.2c-.2-.2-.3-.4-.3-.7s.1-.5.3-.7.4-.3.7-.3.6.1.8.3c.2.1.3.3.3.6zm-12.2 9.7c-.9 0-1.6-.3-2.2-.9s-.9-1.3-.9-2.1c0-.5.2-1 .5-1.7.2-.4.3-.6.3-.6 0-.1-.1-.2-.2-.3-.2-.1-.3-.2-.3-.3s.1-.1.3-.2h1.5 1.3c.3 0 .4.1.4.2s-.1.1-.2.2c-.9.3-1.6.6-2.2 1.1s-.9 1-.9 1.7c0 .5.2.9.5 1.2.3.4.7.5 1.3.5.8 0 1.6-.6 2.2-1.9.4-.9.8-1.5 1-1.8s.5-.5.8-.7.7-.3 1.1-.3c.8 0 1.4.3 1.9.8s.8 1.2.8 1.9c0 .6-.2 1.2-.6 1.8-.1.1-.1.2-.1.3s.1.1.2.2.2.1.2.2 0 .1-.1.1-.4.1-1 .1-1.1.1-1.5.1c-.2 0-.4-.1-.4-.2s.1-.2.3-.2c.2-.1.6-.2 1.2-.5s.9-.6 1.1-.9.2-.6.2-.9c0-.5-.1-.9-.4-1.2s-.6-.5-1-.5c-.3 0-.5.1-.7.2s-.4.2-.5.4c-.1.1-.5.8-1 1.9-.4.7-.7 1.2-.8 1.4-.2.2-.5.4-.8.6-.6.3-.9.3-1.3.3zm6.7 4.1c-.3.1-.6.1-.8.1-.4 0-.7 0-1.1 0 .6.5 1.1 1 1.4 1.5s.5 1 .5 1.6c0 .5-.1.9-.4 1.3s-.6.8-1.2 1.1c.5.5.9 1 1.2 1.5s.4 1 .4 1.5c0 .7-.2 1.2-.5 1.6s-.6.7-1 .8-1 .2-2 .2h-4.2c-.6 0-1 .1-1.3.2-.2.1-.3.3-.3.7 0 .2-.1.3-.2.3s-.2-.2-.2-.6v-3.1c0-.3.1-.5.2-.5s.2.1.2.3c0 .6.2.9.4 1 .3.1 1.6.2 4.1.2 1.2 0 2 0 2.5-.1s.9-.3 1.2-.6.5-.6.5-1.1c0-.4-.1-.7-.4-1.1s-.6-.7-1.1-1c-1-.3-2.7-.4-5.2-.4-.9 0-1.4.1-1.7.2-.2.1-.3.4-.3.8v.2c0 .2-.1.3-.2.3s-.2-.1-.2-.4v-3.4c0-.3.1-.5.2-.5s.2.1.2.3c0 .4.1.7.3.8s.7.2 1.6.3c.9 0 1.8.1 2.7.1 1.6 0 2.7-.1 3.2-.4s.8-.7.8-1.2-.2-.9-.6-1.4-1-.8-1.6-.9c-.7-.2-1.9-.2-3.7-.2-1.2 0-2 .1-2.3.2s-.4.4-.4.8v.3s-.1.1-.2.1-.2-.1-.2-.4v-3.1c0-.4.1-.6.2-.6s.2.1.2.2c0 .4.1.6.2.7s.5.2 1.2.3 1.8.1 3.3.1h2.8c.3 0 .6-.1.8-.3s.3-.5.3-.9c0-.2.1-.3.2-.3s.1 0 .2.1c0 0 .1.4.1.9.1.6.1 1.1.1 1.5.1 0 .1.2.1.4zm-31.3-109.2c0-.3 0-.5 0-.6 0-.3 0-.7 0-1.4s0-2 0-4.1v-2.6c0-.1 0-.4-.1-1 0-.6-.1-1-.1-1.1 0-.5.1-.8.2-.8s.2.1.2.3c0 .7.2 1.1.5 1.4s.6.4 1.1.5 1.9.1 4.1.1h4c1.3 0 2.2-.1 2.7-.2s.9-.3 1.2-.6.4-.7.5-1.1c0-.2.1-.3.2-.3s.2.1.2.3v.3c-.1 1.1-.1 2.3-.1 3.8v1.8c0 .2-.1.3-.2.3s-.2-.1-.2-.3c0-.5-.1-.9-.3-1.2s-.5-.5-.7-.6c-.3-.1-.8-.2-1.6-.2l-5.3-.1h-3c-.9 0-1.5 0-1.8.1s-.5.2-.7.4-.3.6-.3 1.2c0 0 0 .7.1 1.8.1.9.6 1.8 1.5 2.5s1.6 1.2 2.3 1.5c.2.1.3.2.3.3s-.1.2-.3.2-1-.1-2.3-.3c-1.2-.2-1.9-.3-2.1-.3zm9.7 3.9h-2.5-2.4-1.8-1.4c-.5 0-.9.1-1 .2-.1.2-.2.4-.2.7 0 .4-.1.6-.3.6-.1 0-.2-.1-.2-.2s0-.1 0-.2c.1-.6.1-1.2.1-1.8 0-.9 0-1.5-.1-1.8 0-.1 0-.1 0-.2 0-.2.1-.2.2-.2s.2.2.3.6.1.6.3.7c.1.1.5.2 1.1.2l4.7.1c1.2 0 2-.1 2.2-.3s.4-.5.4-1c0-.2.1-.2.2-.2s.1 0 .2.1c0 .1.1.5.1 1.2.1.7.1 1.2.1 1.5zm5.5-1.1c0 .3-.1.5-.3.7s-.4.3-.7.3-.5-.1-.8-.2c-.2-.2-.3-.4-.3-.7s.1-.5.3-.7.4-.3.7-.3.6.1.8.3c.2.1.3.3.3.6zm-13.2 8.3c3.6 1.5 5.8 2.2 6.5 2.2.3 0 .5-.2.6-.6 0-.2.1-.3.2-.3s.2.1.2.3v1.5.9c0 .2-.1.3-.2.3s-.2-.1-.2-.2c-.1-.6-.3-1-.8-1.2-.5-.3-1.3-.6-2.5-1-2-.7-3.4-1.2-4.2-1.6-.7-.3-1.2-.5-1.4-.6-.3-.1-.4-.2-.4-.3s.2-.2.5-.3l2.9-1.2 3.1-1.3c1.1-.4 1.8-.7 2.1-.9s.5-.3.6-.4.1-.3.2-.5c0-.2.1-.2.2-.2s.2.1.2.3v1.8 1.4c0 .2-.1.4-.2.4s-.2-.1-.2-.4c-.1-.3-.3-.5-.6-.5-.6 0-2.8.8-6.6 2.4zm7.7 7.8h-2.5-2.4-1.8-1.4c-.5 0-.9.1-1 .2-.1.2-.2.4-.2.7 0 .4-.1.6-.3.6-.1 0-.2-.1-.2-.2s0-.1 0-.2c.1-.6.1-1.2.1-1.8 0-.9 0-1.5-.1-1.8 0-.1 0-.1 0-.2 0-.2.1-.2.2-.2s.2.2.3.6.1.6.3.7c.1.1.5.2 1.1.2l4.7.1c1.2 0 2-.1 2.2-.3s.4-.5.4-1c0-.2.1-.2.2-.2s.1 0 .2.1c0 .1.1.5.1 1.2.1.7.1 1.2.1 1.5zm5.5-1.1c0 .3-.1.5-.3.7s-.4.3-.7.3-.5-.1-.8-.2c-.2-.2-.3-.4-.3-.7s.1-.5.3-.7.4-.3.7-.3.6.1.8.3c.2.1.3.3.3.6zm-5.5 5.8c-.4.2-1.2.3-2.2.3.7.4 1.3.9 1.7 1.4s.6 1.1.6 1.7c0 .5-.1.9-.3 1.3s-.5.8-1 1-1.3.4-2.4.4l-3.8-.1c-.7 0-1.1.1-1.3.2s-.3.3-.4.7c-.1.2-.2.4-.2.4-.1 0-.2-.1-.2-.2v-.1c.1-.3.1-.8.1-1.4 0-.5 0-1.1-.1-1.8 0-.2.1-.4.2-.4s.1.1.2.2c.1.4.2.6.3.7s.2.2.4.2.7.1 1.6.1h2.3c1.6 0 2.6-.2 3.2-.5.5-.4.8-.8.8-1.3 0-.8-.5-1.4-1.4-2-1-.5-2.5-.8-4.8-.8-1 0-1.6.1-1.9.2s-.4.4-.5.9c0 .1-.1.2-.2.2s-.2-.1-.2-.2v-.5c0-.2 0-.8 0-1.9v-.8c0-.3.1-.4.2-.4s.2.2.3.5.2.5.4.6.7.2 1.7.2 2.1.1 3.6.1c1.3 0 2.2-.1 2.5-.2.3-.2.5-.4.6-.7s.2-.4.3-.4.2.1.2.3v.8c-.3 0-.3.5-.3 1.3zm-1.6 15.4c-.5.3-1.1.5-1.8.5-1 0-1.8-.3-2.5-.9s-1.1-1.4-1.2-2.5c-.1-.7-.1-1.2-.2-1.4-.1-.3-.2-.5-.4-.7s-.4-.3-.6-.3c-.3 0-.5.2-.7.5s-.2 1-.3 2c-.1 1.5-.1 2.5-.2 3s-.3.9-.8 1.3c-.4.4-1 .5-1.7.5-1.1 0-2.1-.5-2.8-1.4s-1.1-2.2-1.1-4c0-1.3.2-2.3.6-3s.9-1 1.7-1c1.2 0 2.1 1 2.9 3 .1-.8.4-1.4.6-1.8.3-.3.6-.5 1.1-.5s.9.2 1.3.5c.4.4.7.9.9 1.6.2-.6.6-1.2 1.1-1.6s1.1-.6 1.9-.6c1 0 1.9.4 2.7 1.1s1.2 1.6 1.2 2.7-.4 1.9-1.2 2.6c.9.7 1.3 1.3 1.3 2 0 .4-.1.8-.4 1s-.6.4-.9.4c-.2 0-.4-.1-.5-.2s-.2-.3-.2-.5c0-.3.2-.6.7-.8.3-.1.4-.3.4-.4-.1-.3-.4-.6-.9-1.1zm-9.1-2.2c0-.7-.1-1.4-.4-2s-.6-1-.9-1.3c-.4-.3-.8-.4-1.3-.4-.7 0-1.2.3-1.5.9s-.5 1.3-.5 2.2c0 1.3.3 2.3.9 2.9s1.2 1 1.9 1c.6 0 1.1-.3 1.4-.8.2-.7.4-1.5.4-2.5zm7.2-2.7c-1.1 0-1.9.2-2.4.7-.5.4-.7.9-.7 1.4s.2.9.7 1.2c.5.4 1.2.5 2.2.5s1.8-.2 2.4-.5c.6-.4.8-.8.8-1.3 0-.6-.3-1-.8-1.4-.5-.5-1.2-.6-2.2-.6zm1.3 17.1h-2.8c-1.9 0-3 0-3.3.1-.2.1-.5.2-.7.3-.2.2-.4.6-.4 1.1 0 .3-.1.5-.2.5-.2 0-.2-.1-.2-.3 0-.1 0-.3.1-.6.1-.7.1-1.3.1-1.9 0-.5 0-1.1-.1-1.9v-.6c0-.2.1-.3.2-.3.2 0 .2.2.2.5 0 .4.1.7.4.9s1 .3 2.1.4 2.6.1 4.4.1c1.7 0 3.1 0 4.1-.1s1.6-.1 1.9-.2.5-.2.7-.4c.1-.2.2-.6.3-1.1 0-.2.1-.3.2-.3s.2.1.2.3c.2 1.7.2 4.9.2 9.6v1.3c0 .1-.1.1-.1.2-.1 0-.6.1-1.6.3s-1.5.2-1.5.2c-.2 0-.2-.1-.2-.2s.1-.2.2-.3c1.8-1 2.8-2.5 2.8-4.6 0-.7 0-1.3-.1-1.8s-.2-.7-.3-.8-.6-.1-1.4-.1-2.3 0-4.4 0v1.1c0 1 .2 1.7.7 2 .5.4.9.6 1.4.6.3 0 .5.1.5.2s-.1.2-.3.2c-.1 0-.2 0-.3 0-.4-.1-1.5-.1-3.3-.1h-1.3c-.3 0-.5-.1-.5-.3 0-.1.1-.2.3-.2.7 0 1.2-.2 1.7-.6.4-.4.6-1.1.6-2.2-.2-.3-.2-.6-.3-1zm-2.2 9.1c-.4 0-.7 0-.9 0-1.1 0-2 .3-2.7.8-.7.6-1.1 1.3-1.1 2.1s.4 1.6 1.1 2.3c.2.2.3.3.3.4s-.1.2-.3.2c-.5-.3-1-.7-1.3-1.3-.4-.6-.5-1.3-.5-2.1 0-1.1.4-2.1 1.3-2.9s2-1.2 3.4-1.2c1.5 0 2.7.4 3.7 1.3s1.5 1.8 1.5 2.7-.4 1.7-1.2 2.5c-.8.7-1.7 1.1-2.7 1.1-.2 0-.3 0-.4-.1-.1 0-.1-.3-.1-.8zm.6 0c0 .9-.1 1.7-.1 2.6v.5c0 .4.1.7.3.9s.4.3.9.3c.6 0 1.2-.2 1.7-.6s.7-.9.7-1.4-.3-1-.8-1.5c-.6-.4-1.5-.7-2.7-.8zm-4.4 11.9c-.5-.3-.9-.7-1.2-1.2s-.4-1-.4-1.6c0-.7.2-1.2.6-1.6s.9-.6 1.6-.6c.5 0 1 .1 1.4.4.4.2.7.5.9.8s.4.8.7 1.6c.4 1.1.7 1.7 1 1.9s.6.3 1 .3c.7 0 1.2-.1 1.6-.4s.6-.7.6-1.2c0-.4-.1-.7-.3-1-.2-.2-.6-.4-1.3-.5s-1-.4-1-.8c0-.1.1-.3.2-.5.2-.2.4-.3.7-.3.6 0 1.1.3 1.5.8.4.6.6 1.3.6 2.3 0 .8-.1 1.4-.4 1.9-.2.5-.5.8-.8.9s-.9.2-1.8.2l-3-.1c-1.2 0-2 .1-2.5.2s-.7.4-.7.7v.3.2c0 .2-.1.2-.2.2-.3 0-.4-.7-.4-2 0-.4.1-.6.3-.8.2 0 .6-.1 1.3-.1zm4.4 0c-.3-.2-.6-.7-1.1-1.4-.4-.7-.8-1.2-1.2-1.5s-.8-.5-1.4-.5c-.5 0-.9.1-1.2.4s-.5.6-.5 1 .1.8.4 1.1.6.6 1 .8 1 .2 1.8.2 1.4 0 2.2-.1zm-2.9 10c-.9 0-1.6-.3-2.2-.9s-.9-1.3-.9-2.1c0-.5.2-1 .5-1.7.2-.4.3-.6.3-.6 0-.1-.1-.2-.2-.3-.2-.1-.3-.2-.3-.3s.1-.1.3-.2h1.5 1.3c.3 0 .4.1.4.2s-.1.1-.2.2c-.9.3-1.6.6-2.2 1.1s-.9 1-.9 1.7c0 .5.2.9.5 1.2.3.4.7.5 1.3.5.8 0 1.6-.6 2.2-1.9.4-.9.8-1.5 1-1.8s.5-.5.8-.7.7-.3 1.1-.3c.8 0 1.4.3 1.9.8s.8 1.2.8 1.9c0 .6-.2 1.2-.6 1.8-.1.1-.1.2-.1.3s.1.1.2.2.2.1.2.2 0 .1-.1.1-.4.1-1 .1-1.1.1-1.5.1c-.2 0-.4-.1-.4-.2s.1-.2.3-.2c.2-.1.6-.2 1.2-.5s.9-.6 1.1-.9.2-.6.2-.9c0-.5-.1-.9-.4-1.2s-.6-.5-1-.5c-.3 0-.5.1-.7.2s-.4.2-.5.4c-.1.1-.5.8-1 1.9-.4.7-.7 1.2-.8 1.4-.2.2-.5.4-.8.6-.6.2-.9.3-1.3.3zm5.7 4.5c-1.7-.1-3.3-.1-4.9-.1-1.2 0-2 .1-2.4.4s-.6.6-.6 1.1c0 .4.1.8.4 1.2.1.2.2.3.2.3 0 .1-.1.1-.2.1-.2 0-.5-.2-.9-.7s-.6-1.1-.6-1.8.3-1.2.8-1.6c.5-.3 1.3-.5 2.4-.5s3 .1 5.7.2c0 0 0-.4.1-1v-.6c0-.1.1-.2.2-.2s.2.1.2.3c.1.3.4.7 1 1.4.5.7 1.3 1 2.3 1.1.3 0 .4.1.4.2s-.1.2-.3.2c-.1 0-.1 0-.2 0-.3 0-.6 0-1 0h-1.8v2.2c0 .4 0 .6-.1.6-.3 0-.6-.1-.7-.2.2-.3.1-1.2 0-2.6z"/><path d="m468.3 481v1.9h4.9v3.1h-4.7c-.1 0-.2.1-.2.3v18.2c0 .2.1.3.2.3h2v2.4h-6.9v-2.8h2.6c.2 0 .3-.1.3-.3v-17.8c0-.1-.1-.2-.3-.3h-2.6v-3.2h2.9v-1.8h-10.6c-.4 0-.6.2-.6.7v26.7c0 .5.2.7.6.7h14.6 1.6.2v-4.3h3.5v4.3h1.4.4 4 .6 1.2v-26.2-.6-1.3zm-3.8 7c.1 0 .1 0 .1.1v14.4c0 .1-.1.1-.1.2h-3.8s0 0-.1-.1v-14.6s0 0 .1-.1h3.8zm-2.8 19.2h-4.5c-.2 0-.3-.1-.3-.3v-23.7c0-.2.1-.3.3-.3h4.5v3.2h-2.6c-.1 0-.2.1-.2.3v17.8c0 .2.1.3.2.3h2.6zm8.3-19.2c0-.1 0-.1 0 0l8.1-.1c.1 0 .1 0 .1.1v10.5h-5.1v-1.9h3.8v-5.9h-7v-2.7zm0 14.9-.1-10.3h5.1v1.9h-3.8v5.9h7v2.3c0 .1 0 .1-.1.2zm11.5 4.3h-4v-2.4h2.2c.2 0 .3-.1.3-.3v-18.2c0-.1-.1-.2-.3-.3h-4.7v-3.1h6.5z"/></svg>