<svg xmlns="http://www.w3.org/2000/svg" viewBox="0 0 880.52 85.23"><defs><style>.cls-1,.cls-2{fill:#fff;}.cls-2{opacity:0.5;}</style></defs><g id="圖層_2" data-name="圖層 2"><g id="圖層_1-2" data-name="圖層 1"><path class="cls-1" d="M108,75H66.9V69L74,61.88C88.25,48,96.14,39.12,96.14,29.49c0-6.22-3.14-11.68-11.66-11.68-5.2,0-9.87,2.65-13,5l-3.14-7.07a30.15,30.15,0,0,1,18.21-6c13.91,0,20,9,20,18.67,0,11.76-8.44,21.56-20.19,32.81L80.8,66.65v.17H108Z"/><path class="cls-1" d="M116.24,45.6h24.67v7.07H116.24Z"/><path class="cls-1" d="M173.83,40.4C181.45,41.76,188,47.65,188,56.68c0,10.48-8.43,19.26-23.77,19.26-7,0-13.28-2-16.51-4l2.69-7.59A27.59,27.59,0,0,0,163.78,68c9.6,0,13.55-6,13.55-11.68,0-8.27-7.36-12.1-15.34-12.1h-4.58V37.16h4.4c5.83,0,13.45-3.32,13.45-10.4,0-5-3.41-9-10.58-9a23.55,23.55,0,0,0-12,3.83l-2.6-7.07C153.46,12.1,160,9.8,167,9.8c12.65,0,18.84,7.25,18.84,15.43,0,6.56-4.31,12.27-12,15Z"/><path class="cls-1" d="M280,51.74H241.29a57.87,57.87,0,0,1-1.08,5.88h24l1.89-.17,4.84.76c-.09.69-.27,1.45-.45,2.22-2,21.91-4,22.16-15.88,22.16-2,0-4.3-.08-6.72-.17a16.68,16.68,0,0,0-2.25-6.73c4.31.34,8.53.42,10.14.42a4.75,4.75,0,0,0,3.14-.76c1.17-1.11,2.06-4.26,2.78-11.34h-23.5c-3.41,8.1-9.87,14.57-24,18.67a21.15,21.15,0,0,0-4.67-6.31c17.5-4.43,21.62-13,23.33-24.63H215.18c-1.25,10.31-4.39,21.39-11.66,29.49a31,31,0,0,0-7.17-4.52c10-11,11.12-26.68,11.12-38.18V19.26h64.68V38.78H249c-.27.51-.89.85-2,1v5.54H280Zm-.63-44.67v7.25h-80.1V7.07ZM238.6,38.78H215.9c0,2-.09,4.26-.18,6.56H238.6ZM263.8,25.4H215.9v7.24h47.9Z"/><path class="cls-1" d="M327,0h4V85.23h-4Z"/><path class="cls-1" d="M419,75H377.92V69L385,61.88C399.27,48,407.17,39.12,407.17,29.49c0-6.22-3.15-11.68-11.67-11.68-5.2,0-9.87,2.65-13,5l-3.14-7.07a30.16,30.16,0,0,1,18.22-6c13.9,0,20,9,20,18.67,0,11.76-8.43,21.56-20.18,32.81l-5.57,5.37v.17H419Z"/><path class="cls-1" d="M460.54,45.94a18.06,18.06,0,0,1-14,6c-10.95,0-18.66-8-18.66-19.52,0-11.93,8.52-22.59,21.89-22.59C463.59,9.8,471.3,21,471.3,36.74c0,20.54-10.67,36.65-30.67,38.69a39.37,39.37,0,0,1-7.36.43V67.93a31.27,31.27,0,0,0,6.64-.34c14.62-1.87,19.55-13.64,20.9-21.65ZM438.29,31.79c0,7.59,4.13,13.13,10.95,13.13A12.47,12.47,0,0,0,460,38.87a7.79,7.79,0,0,0,.72-3.75c0-10.57-3.86-18.07-11.48-18.07C442.78,17.05,438.29,23.18,438.29,31.79Z"/><path class="cls-1" d="M478,43c0-21,8.34-33.24,22.33-33.24,14.27,0,21.44,13.13,21.44,32.56,0,21.74-8.25,33.58-22.16,33.58C485.48,75.94,478,62.73,478,43Zm33.28-.34c0-15.25-3.41-25.06-11.31-25.06-6.81,0-11.48,9-11.48,25.06S492.57,68,499.74,68C508.54,68,511.23,56,511.23,42.7Z"/><path class="cls-1" d="M561.37,45.94a18,18,0,0,1-14,6c-10.94,0-18.66-8-18.66-19.52,0-11.93,8.52-22.59,21.89-22.59,13.81,0,21.53,11.17,21.53,26.94,0,20.54-10.68,36.65-30.68,38.69a39.37,39.37,0,0,1-7.36.43V67.93a31.27,31.27,0,0,0,6.64-.34c14.63-1.87,19.56-13.64,20.9-21.65ZM539.13,31.79c0,7.59,4.13,13.13,10.94,13.13a12.49,12.49,0,0,0,10.77-6.05,7.93,7.93,0,0,0,.71-3.75c0-10.57-3.85-18.07-11.48-18.07C543.61,17.05,539.13,23.18,539.13,31.79Z"/><path class="cls-1" d="M578.51,45.6h24.67v7.07H578.51Z"/><path class="cls-1" d="M611.43,10.82h40.82v6.23L625.43,75H614.75l26.82-55.83V19H611.43Z"/><path class="cls-1" d="M699.52,10.82V19H675.84L673.6,34.26c1.35-.08,2.6-.25,4.49-.25C690.38,34,701,40.83,701,54c0,12.36-10,22-24.67,22-6.64,0-12.65-1.7-15.79-3.58l2.34-7.5a29.11,29.11,0,0,0,13.09,3.24c7.63,0,14.45-4.94,14.45-13.29s-5.93-13.47-18-13.47a53.61,53.61,0,0,0-8.16.51l4.22-31Z"/><path class="cls-1" d="M749.94,10.82V19H726.26L724,34.26c1.34-.08,2.6-.25,4.48-.25,12.29,0,22.88,6.82,22.88,19.94,0,12.36-10,22-24.67,22-6.64,0-12.65-1.7-15.79-3.58l2.33-7.5a29.19,29.19,0,0,0,13.1,3.24c7.62,0,14.44-4.94,14.44-13.29s-5.92-13.47-17.94-13.47a53.52,53.52,0,0,0-8.16.51l4.22-31Z"/><path class="cls-1" d="M800.36,10.82V19H776.68l-2.25,15.25c1.35-.08,2.61-.25,4.49-.25,12.29,0,22.87,6.82,22.87,19.94,0,12.36-9.95,22-24.66,22-6.64,0-12.65-1.7-15.79-3.58l2.33-7.5a29.16,29.16,0,0,0,13.1,3.24c7.62,0,14.44-4.94,14.44-13.29s-5.92-13.47-17.94-13.47a53.76,53.76,0,0,0-8.17.51l4.22-31Z"/><rect class="cls-2" y="4.99" width="11.79" height="71.84"/><rect class="cls-2" x="868.74" y="4.99" width="11.79" height="71.84"/></g></g></svg>