<svg xmlns="http://www.w3.org/2000/svg" viewBox="0 0 1700.99 52.24"><defs><style>.cls-1{opacity:0.6;}.cls-2{fill:#fff;}</style></defs><g id="圖層_2" data-name="圖層 2"><g id="圖層_1-2" data-name="圖層 1"><g class="cls-1"><path class="cls-2" d="M8.06,45C1.6,39.24,0,31.65,0,25.32A26.6,26.6,0,0,1,7.46,7.13c4-4,10.06-7.13,20.32-7.13a57.18,57.18,0,0,1,9.67.8,56.38,56.38,0,0,0,6.79,1c.73.07.87.33.87.73s-.2,1.33-.34,3.73c-.13,2.2-.13,5.87-.19,6.87s-.21,1.39-.6,1.39-.54-.46-.54-1.39a9.19,9.19,0,0,0-2.8-6.8c-2.33-2-7.46-3.8-13.32-3.8-8.86,0-13,2.6-15.33,4.87C7.13,12.06,6,18,6,24.79c0,12.72,9.79,24.38,24.05,24.38,5,0,8.93-.6,11.59-3.33a12.71,12.71,0,0,0,2.47-5.6c.13-.73.26-1,.66-1s.47.47.47,1a69.8,69.8,0,0,1-1.46,8.53c-.4,1.27-.54,1.4-1.74,1.94-2.66,1.06-7.73,1.53-12,1.53C20.06,52.24,13.33,49.77,8.06,45Z"/><path class="cls-2" d="M192.53,0c15,0,26.19,9.46,26.19,25,0,14.92-10.53,27.25-26.59,27.25-18.26,0-25.85-14.2-25.85-26.19C166.28,15.26,174.14,0,192.53,0Zm1.4,49.7c6,0,18.39-3.46,18.39-22.85,0-16-9.73-24.59-20.26-24.59-11.12,0-19.45,7.33-19.45,21.93C172.61,39.71,181.94,49.7,193.93,49.7Z"/><path class="cls-2" d="M397.06,42.71c.27,2.4.73,6.13,3.6,7.06a14.42,14.42,0,0,0,4.33.6c.33,0,.53.07.53.34s-.6.59-1.4.59c-1.46,0-8.66-.2-11.13-.4-1.53-.13-1.86-.33-1.86-.66s.13-.4.46-.47.4-1.2.27-2.4L388.66,13h-.2L372.14,47.64c-1.4,2.93-1.6,3.53-2.2,3.53s-.8-.67-2.07-3.06c-1.73-3.27-7.46-14.8-7.79-15.46-.6-1.2-8.06-17.19-8.8-19H351l-2.67,30.91c-.06,1.07-.06,2.27-.06,3.4A2.13,2.13,0,0,0,350,50a12.66,12.66,0,0,0,2.53.33c.27,0,.53.13.53.34,0,.46-.4.59-1.2.59-2.46,0-5.66-.2-6.19-.2s-3.8.2-5.6.2c-.67,0-1.13-.13-1.13-.59,0-.21.33-.34.66-.34a8.54,8.54,0,0,0,2-.2c2.2-.4,2.4-3,2.67-5.53L349.08,1.2c.14-.73.34-1.2.74-1.2s.66.27,1,1l20.39,41.91L390.79,1.07c.27-.6.54-1.07,1-1.07s.67.53.8,1.8Z"/><path class="cls-2" d="M536.34,32c0,6.4,0,11.66.33,14.46.2,1.93.6,3.4,2.6,3.67a29.72,29.72,0,0,0,3,.26c.4,0,.53.2.53.4s-.33.53-1.06.53c-3.67,0-7.87-.2-8.2-.2s-4.53.2-6.53.2c-.73,0-1.07-.13-1.07-.53,0-.2.14-.4.54-.4a10.54,10.54,0,0,0,2-.26c1.33-.27,1.66-1.74,1.93-3.67.33-2.8.33-8.06.33-14.46V20.26c0-10.4,0-12.26-.13-14.4s-.8-3.4-2.27-3.73a8.66,8.66,0,0,0-2.06-.26c-.27,0-.54-.14-.54-.4s.34-.54,1.07-.54c2.2,0,6.4.2,6.73.2s4.53-.2,6.53-.2c.73,0,1.07.14,1.07.54s-.27.4-.54.4a9.26,9.26,0,0,0-1.66.2c-1.8.33-2.34,1.46-2.47,3.79-.13,2.14-.13,4-.13,14.4Z"/><path class="cls-2" d="M675.15,42.24c.13,5.47.8,7.2,2.6,7.73a14.75,14.75,0,0,0,3.33.4c.33,0,.53.13.53.4s-.4.53-1.2.53c-3.8,0-6.46-.2-7.06-.2s-3.4.2-6.4.2c-.66,0-1.06-.06-1.06-.53,0-.27.2-.4.53-.4a9.68,9.68,0,0,0,2.73-.4c1.67-.46,2-2.4,2-8.46l.07-38.18c0-2.6.2-3.33.73-3.33s1.67,1.47,2.33,2.13c1,1.14,10.93,11.86,21.19,22.86,6.6,7.06,13.86,15.19,16,17.39l-.73-33.85c-.07-4.33-.54-5.8-2.6-6.33a17.4,17.4,0,0,0-3.27-.33c-.46,0-.53-.2-.53-.47s.53-.47,1.33-.47c3,0,6.2.2,6.93.2s2.93-.2,5.67-.2c.73,0,1.2.07,1.2.47s-.27.47-.74.47a5.89,5.89,0,0,0-1.6.2c-2.2.46-2.46,1.93-2.46,5.93l-.13,39c0,4.4-.14,4.73-.6,4.73s-1.34-.73-4.87-4.26c-.73-.67-10.33-10.46-17.39-18.06-7.73-8.33-15.26-16.72-17.39-19.12Z"/><path class="cls-2" d="M881.39,34.31c0-5.39-.33-6.13-3-6.86a12.67,12.67,0,0,0-2.26-.2c-.27,0-.54-.13-.54-.4s.34-.53,1.07-.53c3,0,7.2.2,7.53.2s4.53-.2,6.53-.2c.73,0,1.06.13,1.06.53s-.26.4-.53.4a10.27,10.27,0,0,0-1.67.2c-1.8.33-2.33,1.47-2.46,3.8-.13,2.13-.13,4.13-.13,6.93v7.46c0,3-.07,3.13-.87,3.6-4.27,2.26-10.26,3-14.13,3-5.06,0-14.52-.67-21.92-7.13-4.06-3.53-7.93-10.66-7.93-19,0-10.66,5.2-18.19,11.13-21.92S865.86,0,871,0a57.83,57.83,0,0,1,10.19,1.13,32.79,32.79,0,0,0,5.4.67c.66.07.8.33.8.6a83.66,83.66,0,0,0-.47,9.46c0,1.07-.13,1.4-.6,1.4s-.4-.4-.47-1a10.26,10.26,0,0,0-1.39-4.4c-1.67-2.53-7.07-5.4-15.66-5.4-4.2,0-9.2.4-14.26,4.4-3.87,3.07-6.6,9.13-6.6,16.93,0,9.39,4.73,16.19,7.06,18.45a24.27,24.27,0,0,0,17.46,7.13c2.4,0,5.86-.4,7.6-1.4a2.42,2.42,0,0,0,1.33-2.33Z"/><path class="cls-2" d="M1151.15,50.44c-.93-.47-1-.74-1-2.53,0-3.34.27-6,.33-7.07.07-.73.2-1.06.54-1.06s.46.2.46.73a11.8,11.8,0,0,0,.2,2.47c1,4.93,5.4,6.79,9.86,6.79,6.4,0,9.53-4.6,9.53-8.86,0-4.6-1.93-7.26-7.66-12l-3-2.47c-7.06-5.8-8.66-9.93-8.66-14.46,0-7.13,5.33-12,13.79-12a25.85,25.85,0,0,1,6.2.67,11.32,11.32,0,0,0,2.33.33c.53,0,.67.13.67.47s-.27,2.53-.27,7.06c0,1.06-.13,1.53-.47,1.53s-.46-.33-.53-.87a11.85,11.85,0,0,0-.86-3.33c-.41-.73-2.2-3.53-8.33-3.53-4.6,0-8.2,2.87-8.2,7.73,0,3.8,1.87,6.06,8.13,11.19l1.87,1.47c7.86,6.2,9.72,10.33,9.72,15.66a13.8,13.8,0,0,1-5.66,11.06,17.5,17.5,0,0,1-10.06,2.8A20.26,20.26,0,0,1,1151.15,50.44Z"/><path class="cls-2" d="M1325.34,0c15,0,26.19,9.46,26.19,25,0,14.92-10.53,27.25-26.59,27.25-18.26,0-25.85-14.2-25.85-26.19C1299.09,15.26,1307,0,1325.34,0Zm1.4,49.7c6,0,18.39-3.46,18.39-22.85,0-16-9.73-24.59-20.26-24.59-11.12,0-19.45,7.33-19.45,21.93C1305.42,39.71,1314.75,49.7,1326.74,49.7Z"/><path class="cls-2" d="M1499.6,0c15,0,26.19,9.46,26.19,25,0,14.92-10.53,27.25-26.59,27.25-18.25,0-25.85-14.2-25.85-26.19C1473.35,15.26,1481.21,0,1499.6,0Zm1.4,49.7c6,0,18.39-3.46,18.39-22.85,0-16-9.73-24.59-20.25-24.59-11.13,0-19.46,7.33-19.46,21.93C1479.68,39.71,1489,49.7,1501,49.7Z"/><path class="cls-2" d="M1656.68,42.24c.13,5.47.8,7.2,2.6,7.73a14.75,14.75,0,0,0,3.33.4c.33,0,.53.13.53.4s-.4.53-1.2.53c-3.79,0-6.46-.2-7.06-.2s-3.4.2-6.4.2c-.66,0-1.06-.06-1.06-.53,0-.27.2-.4.53-.4a9.68,9.68,0,0,0,2.73-.4c1.67-.46,2-2.4,2-8.46l.07-38.18c0-2.6.2-3.33.73-3.33s1.67,1.47,2.33,2.13c1,1.14,10.93,11.86,21.19,22.86,6.6,7.06,13.86,15.19,16,17.39l-.73-33.85c-.07-4.33-.53-5.8-2.6-6.33a17.38,17.38,0,0,0-3.26-.33c-.47,0-.54-.2-.54-.47s.54-.47,1.34-.47c3,0,6.19.2,6.93.2s2.93-.2,5.66-.2c.73,0,1.2.07,1.2.47s-.27.47-.73.47a5.85,5.85,0,0,0-1.6.2c-2.2.46-2.47,1.93-2.47,5.93l-.13,39c0,4.4-.14,4.73-.6,4.73s-1.33-.73-4.87-4.26c-.73-.67-10.32-10.46-17.39-18.06-7.72-8.33-15.25-16.72-17.39-19.12Z"/></g></g></g></svg>