<svg xmlns="http://www.w3.org/2000/svg" viewBox="0 0 892.08 85.36"><defs><style>.cls-1{fill:#fff;}</style></defs><g id="圖層_2" data-name="圖層 2"><g id="圖層_1-2" data-name="圖層 1"><path class="cls-1" d="M0,4.17H81.37V85.36h-9V81.28H8.6v4.08H0ZM8.6,73.48H72.4V12H8.6Zm3.53-14.33c7.07-.91,17.76-2.45,28.27-4.09l.29,5.54C31.42,62.32,22.06,64.14,16,65.13a1.57,1.57,0,0,1-1.24,1.36Zm37-30a145.23,145.23,0,0,0,2.77,18,64.08,64.08,0,0,0,5.92-14.51l8.6,2c-.19.64-1,1.09-2.1,1.09a69.17,69.17,0,0,1-9.74,20c1.81,4.17,4.39,7.26,6.68,7.26,1.15,0,2-3.9,2.48-9a45.12,45.12,0,0,0,5.74,4c-1.06,8.52-4,12.61-8.12,12.61a7.69,7.69,0,0,1-3-.64c-3.73-.91-6.69-3.81-9.08-8a51.13,51.13,0,0,1-12,9.34,37,37,0,0,0-4.59-5A47.07,47.07,0,0,0,46.42,55c-2.29-7.07-3.82-16-4.78-25.85H13.08V22.77h28l-.57-8.89,9.83.45c-.09.73-.76,1.36-2.19,1.45.09,2.36.28,4.72.38,7H62.27c-2-2.09-6.21-4.72-9.64-6.35l4.1-4a39.81,39.81,0,0,1,9.94,6.08l-4.21,4.26h5.83v6.35Zm-32.95,5H37.63V51.8H16.14ZM31.33,46.9V39H22.16V46.9Z"/><path class="cls-1" d="M131.89,4.08V38.55H105.34V85h-9V4.08Zm-8.5,7.17h-18v6.62h18Zm-18,20.23h18V24.22h-18Zm71.25-27.4V73.93c0,10-4.11,11.07-23.69,11.07a32.48,32.48,0,0,0-3.24-8.89c3.82.18,7.83.18,10.88.18,6.4,0,6.88,0,6.88-2.36V38.65H139.91V4.08Zm-9.17,7.17H148.6v6.62h18.82ZM148.6,31.66h18.82V24.22H148.6Z"/><path class="cls-1" d="M214.5,55.43c3.15,2,12.7,8.89,15,10.79l-5.15,6.26c-2-2.09-6.21-5.9-9.84-9.07V85h-8.79V64.14a66,66,0,0,1-13.56,14.6,34,34,0,0,0-6-6.08c6.59-4.17,13.66-11.7,18.15-19.14H188.33V46.17h17.38V38.1H187.18V30.93h10.6a50.32,50.32,0,0,0-3.72-12.15l6.3-1.73H189.09V9.89h16.62V.09l11,.64c-.1.72-.67,1.27-2.2,1.45V9.89h17v7.16h-11l7.83,2.09c-.19.64-1,.91-2.2,1a114.34,114.34,0,0,1-4.87,10.79H233.5V38.1H216.22a4.4,4.4,0,0,1-1.72.63v7.44h17.57v7.35H214.5Zm-.86-25a96.85,96.85,0,0,0,4.77-13.34H201.13a47.76,47.76,0,0,1,4.2,13.25l-2.1.63h12.13Zm62.75.36v8H266.17V85.09h-8.79V38.73H245.25c0,10.44-.28,32.3-15.28,46.54a21.05,21.05,0,0,0-6.49-6C235.32,68,236.56,52.61,236.56,40V8.62l5.25,1.45c9.46-2.63,19.2-6.35,25-9.8l8.69,6.26a2.69,2.69,0,0,1-2.39.45c-6.88,3.36-17.67,6.9-27.89,9.53V30.75Z"/><path class="cls-1" d="M335.79,5.26h28.46c1.62-.27,1.72-.36,1.81-.36A48.86,48.86,0,0,0,372,7.35a2.2,2.2,0,0,1-1,1.09c-3.15,7.8-7.45,17.5-12.13,27.21,9.17,9.25,12.8,16,12.8,22.23,0,15.69-11.18,15.69-16.81,15.69-1.34,0-2.77,0-4.11-.09a18.18,18.18,0,0,0-2.86-8.35c1.91.18,3.82.28,5.44.28,5.44,0,9.36,0,9.36-7.9,0-5.44-3.82-11.34-13.27-20.41,3.72-8.53,7.06-16.69,9.64-23.77H344.76V85h-9V8.71a3.32,3.32,0,0,1-1.91.36,115.37,115.37,0,0,1-10.8,18.78h9.46v7.62H317.07a97.58,97.58,0,0,1-8,8.26h19.39V83.91h-8.59V80.46h-19v4.81h-8.21V56.06c-2.1,1.27-4.3,2.45-6.5,3.54a45.91,45.91,0,0,0-4.87-6.71,82.49,82.49,0,0,0,11.37-6.44V43.73h3.82a91.49,91.49,0,0,0,9.64-8.26H283V27.85h18.24V17.6H287.08V10.07h14.13V.18l10.6.64c-.09.72-.76,1.27-2.19,1.45v7.8h10.89V17A90.9,90.9,0,0,0,326.62,4.9l9.17,2.9Zm-16,53.43v-8h-19v8Zm-19,14.7h19V65.31h-19Zm8.79-45.54H313a99.19,99.19,0,0,0,7.16-10.25h-10.5Z"/><path class="cls-1" d="M376.47,65.68c6.2-8,9.17-20.69,10.5-32.75l8.79,1.72c-1.43,12.43-4.3,26.85-10.89,35.74Zm27.12-39.74,11.65.64c-.09.72-.67,1.27-2.29,1.54V70.94c0,4.35.95,5.08,5.92,5.08h15.86c5.34,0,6.2-3.18,7-18.33a26.31,26.31,0,0,0,8.4,3.72c-1.14,17.33-3.72,22.5-14.71,22.5H417.92c-11.18,0-14.33-2.9-14.33-13Zm33.33-2.35c-7.45-5.45-21.2-12.43-32.76-16.51L410,.45a154.08,154.08,0,0,1,32.86,15.61Zm23,43.9c-2.1-9.43-9.07-23.68-17.09-33.92l8.21-3.91c8.5,10.35,15.57,24,18,33.66Z"/><path class="cls-1" d="M537.49,8.71v8.71H512.27l-2.39,16.23c1.44-.08,2.77-.27,4.78-.27,13.08,0,24.35,7.26,24.35,21.23,0,13.15-10.6,23.4-26.26,23.4-7.07,0-13.47-1.81-16.81-3.8l2.48-8a31.1,31.1,0,0,0,13.95,3.45c8.11,0,15.37-5.26,15.37-14.15s-6.3-14.34-19.1-14.34a57.2,57.2,0,0,0-8.69.55l4.49-33Z"/><path class="cls-1" d="M606.15,77H594.5l-6.59-20.41H565.56L559.25,77H547.89l22.35-69.4H583.8ZM586.09,48.53l-5.73-18.14c-1.33-4.54-2.58-9.43-3.63-13.7h-.19c-1,4.27-2.19,9.35-3.44,13.61l-5.82,18.23Z"/><path class="cls-1" d="M639.19,55.43c3.15,2,12.7,8.89,15,10.79L649,72.48c-2-2.09-6.21-5.9-9.84-9.07V85H630.4V64.14a65.72,65.72,0,0,1-13.56,14.6,33.92,33.92,0,0,0-6-6.08C617.42,68.49,624.48,61,629,53.52H613V46.17H630.4V38.1H611.88V30.93h10.6a50.8,50.8,0,0,0-3.73-12.15l6.31-1.73H613.79V9.89H630.4V.09l11,.64c-.1.72-.67,1.27-2.2,1.45V9.89h17v7.16h-11L653,19.14c-.19.64-.95.91-2.2,1A111.84,111.84,0,0,1,646,30.93H658.2V38.1H640.91a4.4,4.4,0,0,1-1.72.63v7.44h17.58v7.35H639.19Zm-.86-25a95.58,95.58,0,0,0,4.78-13.34H625.82A47.43,47.43,0,0,1,630,30.3l-2.1.63h12.13Zm62.75.36v8H690.86V85.09h-8.79V38.73H670c0,10.44-.29,32.3-15.29,46.54a20.94,20.94,0,0,0-6.49-6C660,68,661.25,52.61,661.25,40V8.62l5.26,1.45c9.45-2.63,19.19-6.35,25-9.8l8.69,6.26a2.68,2.68,0,0,1-2.38.45c-6.88,3.36-17.67,6.9-27.89,9.53V30.75Z"/><path class="cls-1" d="M756.66,73.84h38.68v8.35H708.81V73.84H747.3V52.71H719.6V44.36h27.7V25.94H725.53A77.87,77.87,0,0,1,715,41.82a60,60,0,0,0-7.74-5.26c7.55-7.89,14-21.77,17.77-35.29l11.27,3c-.29.73-1.05,1.09-2.39,1.09a117.89,117.89,0,0,1-4.49,12.25H747.3V0L759,.73c-.09.72-.76,1.27-2.29,1.54V17.6h34.19v8.34H756.66V44.36H787v8.35H756.66Z"/><path class="cls-1" d="M807.37,25.4c6,2.18,13.94,6,17.86,9L820,41.64c-3.72-3.18-11.36-7.26-17.57-9.8Zm-2.1,52.89a268,268,0,0,0,17.19-29.58l6.87,5.45a276.78,276.78,0,0,1-15.18,27.48,2.37,2.37,0,0,1,.57,1.45,2.11,2.11,0,0,1-.48,1.28ZM812.72.73c6,2.35,13.65,6.35,17.47,9.52l-5.25,7C821.41,14,813.86,9.62,807.75,7Zm79.36,34.65H864.86V48.81h20.73V84.55h-9.17V81.1H844.71V85H836V48.81h19.67V35.38H829.14V27.12h26.55V13.79c-7.06,1.09-14.42,2-21.39,2.63a25.83,25.83,0,0,0-2.77-7.26c17.48-1.81,37-5.08,48.14-9.07l8.12,7c-.48.36-1,.36-2.39.36a176.78,176.78,0,0,1-20.54,4.9V27.12h27.22ZM876.42,73.3V56.61H844.71V73.3Z"/></g></g></svg>