<svg xmlns="http://www.w3.org/2000/svg" viewBox="0 0 1215.37 177.68"><defs><style>.cls-1{fill:#fff;}</style></defs><g id="圖層_2" data-name="圖層 2"><g id="圖層_1-2" data-name="圖層 1"><path class="cls-1" d="M145.16,3.53l27.78,19.7a15.45,15.45,0,0,1-8.61,4.46V146.46c0,16.54-4.5,28.81-33.84,30.85,0-22.11-7.63-25.09-20.54-26.95v-2h23.67c1.76,0,2.35-.93,2.35-2.6V107.24H106.23v60c0,1.67-8.22,7.06-22.69,7.06H78.45v-67.1H49.5c-3.72,25.65-14.68,51.3-47.94,69.52L0,175.45C21.72,147,23.48,111,23.48,75.65V7.43L55.36,17.66h78.45ZM51.26,75.46a243,243,0,0,1-1.37,28.81H78.45V63H51.26ZM78.45,20.63H51.26V60H78.45Zm57.52,0H106.23V60H136Zm-29.74,83.64H136V63H106.23Z"/><path class="cls-1" d="M347.46,90.51a216.87,216.87,0,0,0,4.89-26L382.87,71c-.58,2.42-2.54,3.72-7.43,3.53-4.7,19.52-11.74,37.17-21.33,52.41,4.5,13.2,9.79,18.78,11.16,18.78,2.34,0,10.76-21.75,12.71-27.51l1.18.18L376,153c3.71,7.06,5.47,11.33,5.47,14.49,0,4.28-5.47,9.67-12.13,9.67-5.47,0-19.75-3.91-31.69-28.81a129.36,129.36,0,0,1-38.54,27.51L297,174c14.28-10.41,25.82-24.54,34.63-41.26-3.72-12.64-6.26-27.14-7.83-43.12a11.25,11.25,0,0,1-2.93.74c-.2,40.15-1,53-7.83,58.36-5.28,3.9-10.17,5.39-20.15,5.58,0-8.37-1.17-12.27-5.67-14.69-5.28,13.94-14.67,27.32-30.91,37.92l-2-1.3c15.46-25.47,16.24-57.81,16.24-87V40.33a37.86,37.86,0,0,1-5.28.37h-70l-.78-3h46.17L252.58,22.3l18,12.83v-.19L298,44.05h23.08c-.58-13.94-.78-28.44-1.17-43.12l33.26,3.34c-.2,2.42-1.57,3.72-7.63,4.65,0,12.08,0,23.79.19,35.13h2.74l11.15-13.38a9.07,9.07,0,0,1-1.95-1.86c.19-7.06-2.35-15.24-6.85-20.26l1.37-.93c21.91,1.86,29.34,8.74,29.34,15.05s-7.63,11.9-15.06,11.16l16.24,10.59c-1.37,2.23-4.11,2.6-9.2,2.6H345.7c.2,15.62.39,30.3,1.57,43.49Zm-79.81,26.58c-1,1.3-2.94,2.61-6.07,3.16v38.29c0,.19-6.06,6.32-23.67,6.32v-11H225.39v13.2c0,.37-3.72,8-23.48,8V103.15l24.06,9.3h10.18l8.41-10.23Zm-9.2-101.66c-1.37,2-4.3,2.6-9,2.6h-46l-1-3h26L238.89,1.67ZM244.36,49.81,263,63c-1.37,2-4.3,2.6-9,2.6H203.87l-1-3h31.5Zm-40.49,40.7-1-3h31.5l10-12.82L263,87.91c-1.37,2-4.3,2.6-9,2.6Zm21.52,60.41h12.52v-35.5H225.39Zm69.06-65.8c0,14.5,0,32-5.28,49.26,7,0,7.82,0,8.6-1.12,2.74-2.6,2.74-15.24,2.94-48.14ZM307.16,72.3l16,11.34c-1-11.53-1.57-24-2.16-36.62h-26.6V82.15h4.3Z"/><path class="cls-1" d="M422,74.9c8.21,15.8,11.54,28.81,11.54,39.59,0,15.8-8.22,32.53-25,32.53-9,0-15.26-5.39-15.26-12.83,0-4.83,2.93-9.48,7.24-12.82,10.17-6.69,20.34-24.91,19.56-46.28ZM441,8.74a184.08,184.08,0,0,1,19.37-1.12c35.61,0,47.93,13.57,47.93,25.09a16.26,16.26,0,0,1-16.43,16.36,20.22,20.22,0,0,1-8.22-1.86c-5.08-10.41-19.56-26.39-42.84-36.62Zm5.09,48.13,35.21,2.42c-.19,2.23-1.37,3.72-6.84,4.65v79.73c0,5.76.58,6.14,6.06,6.14h23.87c3.91,0,6.06,0,8.41-3.16,2.54-3.16,6.26-12.27,11.35-24.91h1.17V148c9.2,3.71,10.37,5.39,10.37,8.92,0,10.41-6.85,16-31.5,16H479.34c-27.39,0-33.26-5.57-33.26-29.74Zm78.64,13C564.05,86.24,577,107.8,577,124.16c0,13.94-9.39,24-19.37,24-4.89,0-10.17-2.41-14.48-8.18a80.78,80.78,0,0,0,.59-10.22c0-18.21-4.89-41.26-20.35-58.55Z"/><path class="cls-1" d="M697.88,87c-1.76,1.86-4.7,3.35-10.37,4.28v44.23c13.3,11.9,25.63,13.39,62,13.39,21.12,0,49.88,0,74.14-.75v2.05c-10.37,2.6-16.43,10.59-17.61,22.67H749.72c-37.36,0-51.65-5.95-64.36-34.75a338.88,338.88,0,0,1-29.93,34.38c0,2.6-1.57,3.9-3.52,4.83l-14.09-29c6.26-1.49,14.48-4.09,23.28-6.88V86.05H638.41l-.59-3.53H658l12.72-16Zm-54-80.66C675.77,9.66,686.34,21,686.34,30.67c0,8.36-7.63,15.42-16.24,15.42a17,17,0,0,1-11.93-5.39C657,29,651.51,15.43,642.71,7.25Zm99,62.45V35.87H728.79a95.75,95.75,0,0,1-28.37,28.81l-2.35-1.3C704.73,49.63,710,25.46,712.16,3l30.71,7.44V.37l35.81,3.35c-.4,2.41-2,3.9-7.44,4.64V32.9h7.63l13.3-16.73,24.26,17.1c-1.37,2-4.3,2.6-9.39,2.6h-35.8v32.9h14.48l13.5-17.1,24.84,17.47c-1.37,2-4.11,2.6-9.39,2.6H691.81l-.78-3Zm62,67.65c-.2,1.49-13.69,6.69-22.89,6.69h-4.89V131H737v4.46c0,.56-4.5,9.48-27.39,9.48V78.62L738.18,89h37l10.18-12.64,27.39,18c-1.18,1.48-3.72,3.16-7.83,4.09Zm-62-121a16.27,16.27,0,0,1-3.12.37,132.29,132.29,0,0,1-9,17.1h12.12ZM737,128.06h40.1V92H737Z"/><path class="cls-1" d="M1018.93,117.47l-4.3,33.08c3.32,8,5.08,14.31,5.08,18.59,0,2.78-.78,4.64-2.34,5.76a15.62,15.62,0,0,1-8.81,2.6c-20.73,0-32.28-27.88-35.21-34.94-14.28,14.12-31.3,24.34-52.43,32.15l-1.57-2.6a128.57,128.57,0,0,0,47.54-47.21,222.32,222.32,0,0,1-7.63-39.4,13.36,13.36,0,0,1-5.67,1.86c-1.17,52.41-2.15,63.75-27.78,63.75,0-9.85-2.74-14.31-11.93-17.1-7.63,16.35-21.52,32-46.17,43.67l-1.57-1.48c18.59-18.4,26.61-40,29.74-61.71A530.48,530.48,0,0,1,850.49,145a8.88,8.88,0,0,1-5.87,5.21l-13.1-31c4.1-.56,10.56-1.3,18.38-2.42V56.32H834.06l-1-3H849.9V3.72l34.24,3c-.39,2.6-2.35,4.09-7.82,4.83v39l8-14.31L898,50V31.41l29.54,9.66h28.95c-.39-13.19-.39-26.94-.39-41.07l33.06,3.16c-.19,2.6-1.76,3.72-7.43,4.65-.39,11.15-.59,22.3-.59,33.26h4.31l9.58-11.89c-1.37-6.88-4.89-14.5-9.58-19.33l1.17-.93c24.65-.18,32.67,6.88,32.67,13.57,0,5.2-4.69,10-10.56,11.52l11,7.44c-1.36,2.23-4.1,2.6-9.19,2.6H981.17c.2,15.05.59,29.55,2.16,42.93h.19c2.55-7.8,4.89-16,7.05-24.9l29.73,9.66c-1,2.42-2.93,3.53-8,3.35-6.26,17.65-13.11,32.52-21.13,45,5.48,14.87,11.94,21.93,12.72,21.93,2.15,0,11.15-19,13.89-24.91ZM876.32,56.32V113c6.65-1.11,13.3-2.23,20.14-3.16A246.88,246.88,0,0,0,898,80.48V55.76a24.24,24.24,0,0,1-5.67.56ZM923.66,82c0,15.24-1.37,32.52-8.41,49.25,3.91,0,8.21.18,10.37.18,1.36,0,2.15-.18,2.73-1.11,2.74-3.35,3.52-16.91,3.92-48.32Zm15.45-13.2,19.76,14.12c-1.17-12.45-2-25.27-2.35-38.84H923.66V79h6.65Z"/><path class="cls-1" d="M1060.43,74.9c8.21,15.8,11.54,28.81,11.54,39.59,0,15.8-8.22,32.53-25,32.53-9,0-15.26-5.39-15.26-12.83,0-4.83,2.93-9.48,7.24-12.82,10.17-6.69,20.34-24.91,19.56-46.28Zm19-66.16a183.93,183.93,0,0,1,19.37-1.12c35.6,0,47.93,13.57,47.93,25.09a16.26,16.26,0,0,1-16.44,16.36,20.14,20.14,0,0,1-8.21-1.86c-5.09-10.41-19.56-26.39-42.84-36.62Zm5.09,48.13,35.21,2.42c-.2,2.23-1.37,3.72-6.85,4.65v79.73c0,5.76.59,6.14,6.07,6.14h23.87c3.91,0,6.06,0,8.41-3.16,2.54-3.16,6.26-12.27,11.34-24.91h1.18V148c9.19,3.71,10.37,5.39,10.37,8.92,0,10.41-6.85,16-31.5,16h-24.85c-27.38,0-33.25-5.57-33.25-29.74Zm78.64,13c39.32,16.36,52.24,37.92,52.24,54.28,0,13.94-9.39,24-19.37,24-4.89,0-10.18-2.41-14.48-8.18a82.68,82.68,0,0,0,.59-10.22c0-18.21-4.89-41.26-20.35-58.55Z"/></g></g></svg>