<?xml version="1.0" encoding="utf-8"?>
<!-- Generator: Adobe Illustrator 24.1.1, SVG Export Plug-In . SVG Version: 6.00 Build 0)  -->
<svg version="1.1" id="圖層_1" xmlns="http://www.w3.org/2000/svg" xmlns:xlink="http://www.w3.org/1999/xlink" x="0px" y="0px"
	 viewBox="0 0 346.4 474" style="enable-background:new 0 0 346.4 474;" xml:space="preserve">
<style type="text/css">
	.st0{opacity:0.2;fill:#FFFFFF;enable-background:new    ;}
	.st1{fill:#112D81;}
	.st2{font-family:'GenShinGothic-Bold';}
	.st3{font-size:26.1px;}
	.st4{fill:none;stroke:#D33645;stroke-width:8;stroke-miterlimit:10;}
	.st5{fill:#D33645;stroke:#D33645;stroke-width:8;stroke-miterlimit:10;}
	.st6{fill:#112D81;stroke:#D33645;stroke-width:8;stroke-miterlimit:10;}
	.st7{fill:#FFFFFF;}
	.st8{font-family:'GenShinGothic-Regular';}
	.st9{font-size:23.73px;}
</style>
<g id="_x33_">
	<circle class="st0" cx="173.2" cy="173.2" r="173.2"/>
	<text transform="matrix(1 0 0 1 29.93 182.3701)" class="st1 st2 st3">大安區</text>
</g>
<line id="_x32_" class="st4" x1="173.2" y1="102.3" x2="173.2" y2="464.7"/>
<g id="_x31__1_">
	<circle class="st5" cx="173.2" cy="423.9" r="46.2"/>
	<circle class="st6" cx="173.2" cy="292.4" r="46.2"/>
	<circle class="st6" cx="173.2" cy="168.5" r="46.2"/>
	<circle class="st6" cx="173.2" cy="54.7" r="46.2"/>
</g>
<text transform="matrix(1 0 0 1 204.36 364.3501)" class="st7 st8 st9">10min</text>
<text transform="matrix(1 0 0 1 206.89 234.3398)" class="st7 st8 st9">5min</text>
<text transform="matrix(1 0 0 1 206.89 116.0698)" class="st7 st8 st9">2min</text>
<text transform="matrix(1 0 0 1 146.18 302.8599)" class="st7 st8 st3">古亭</text>
<text transform="matrix(1 0 0 1 133.13 434.3101)" class="st7 st8 st3">南勢角</text>
<text transform="matrix(1 0 0 1 146.18 178.9399)" class="st7 st8 st3">東門</text>
<text transform="matrix(1 0 0 1 146.18 49.1802)" class="st7 st8 st3">忠孝</text>
<text transform="matrix(1 0 0 1 146.18 80.0298)" class="st7 st8 st3">新生</text>
</svg>
