<?xml version="1.0" encoding="utf-8"?>
<!-- Generator: Adobe Illustrator 24.1.1, SVG Export Plug-In . SVG Version: 6.00 Build 0)  -->
<svg version="1.1" id="圖層_1" xmlns="http://www.w3.org/2000/svg" xmlns:xlink="http://www.w3.org/1999/xlink" x="0px" y="0px"
	 viewBox="0 0 544.9 474.8" style="enable-background:new 0 0 544.9 474.8;" xml:space="preserve">
<style type="text/css">
	.st0{fill:none;stroke:#D33645;stroke-width:10;stroke-miterlimit:10;}
	.st1{fill:#FFFFFF;}
	.st2{font-family:'Impact';}
	.st3{font-size:24.26px;}
	.st4{letter-spacing:2;}
	.st5{opacity:0.6;fill:#FFFFFF;enable-background:new    ;}
	.st6{font-family:'GenShinGothic-Bold';}
	.st7{font-size:28.45px;}
	.st8{letter-spacing:4;}
</style>
<path class="st0" d="M399.2,319.5c-41.5,0-75.2,33.6-75.2,75.1s33.6,75.2,75.1,75.2s75.2-33.6,75.2-75.1c0,0,0,0,0,0h70.6"/>
<path class="st0" d="M403.5,218.1c41.5,0.5,74.8,34.5,74.3,76c-0.5,40.8-33.5,73.8-74.3,74.3"/>
<path class="st0" d="M403.2,105.1c-0.6,0-1.2,0-1.7,0c-41.5,0.5-74.8,34.5-74.3,76s34.5,74.8,76,74.3"/>
<path class="st0" d="M0,80.2h327.5c0,0,0,0,0,0c0-41.5,33.7-75.2,75.2-75.2s75.2,33.7,75.2,75.2s-33.7,75.2-75.2,75.2"/>
<text transform="matrix(1 0 0 1 374.24 403.6802)" class="st1 st2 st3 st4">BEST</text>
<text transform="matrix(1 0 0 1 355.06 427.3301)" class="st1 st2 st3 st4">STATION</text>
<text transform="matrix(1 0 0 1 371.38 299.7002)" class="st5 st6 st7 st8">生活</text>
<text transform="matrix(1 0 0 1 371.38 194.73)" class="st5 st6 st7 st8">娛樂</text>
<text transform="matrix(1 0 0 1 371.38 79.6499)" class="st5 st6 st7 st8">休憩</text>
</svg>
