<svg data-aos="zoom-in" v-if="!isMobile" xmlns="http://www.w3.org/2000/svg" viewBox="0 0 1000 260" class="logo">
  <path class="st0" d="M930,68.7L958,89.6l-10.1,7.6l-4.2-3.1l5.9-4.5l-7.7-5.8L916.4,103l7.7,5.8l5.9-4.5l4.2,3.1l-10.1,7.6l-27.9-20.9l10.1-7.6l4.2,3.1l-5.9,4.5l7.7,5.8l25.6-19.2l-7.7-5.8l-5.9,4.5l-4.2-3.1L930,68.7z M934.2,80.4l-4.2-3.1l-5.9,4.5l-7.7-5.8l25.6-19.2l7.7,5.8l-5.9,4.5l4.2,3.1l10.1-7.6L930,41.7l-10.1,7.6l4.2,3.1l5.9-4.5l7.7,5.8l-25.6,19.2l-7.7-5.8l5.9-4.5l-4.2-3.1l-10.1,7.6L924.1,88L934.2,80.4z M947.4,117.3c-29.7,17.2-67.4-4.5-67.3-38.9C879,45,918.9,22,947.4,39.6C976.9,55.4,976.9,101.5,947.4,117.3z M964.5,67.4L953,76l7.7,5.8l5.3-4c0-0.8,0-1.6-0.1-2.3l-5.2,3.9l-4.2-3.1l8.5-6.4C964.9,69,964.7,68.2,964.5,67.4z M953.3,48.8L953,49l2,1.5C954.4,49.9,953.9,49.3,953.3,48.8z M943.4,41.8l5.5,4.1l0.5-0.4C947.5,44.1,945.5,42.8,943.4,41.8z M906.6,41.7l5.6,4.2l11.2-8.4c-1.8,0.1-3.5,0.2-5.2,0.5l-7,5.2l-3-2.2C907.7,41.2,907.2,41.4,906.6,41.7z M886.2,64.9l15-11.2l-5.4-4.1c-0.5,0.5-0.9,0.9-1.3,1.4l3.2,2.4l-9.6,7.2C887.3,62,886.7,63.5,886.2,64.9z M886.1,91.9l15-11.2l-7.7-5.8l-5.9,4.5l-3.6-2.7c0,0.8-0.1,1.6,0,2.4l3.6,2.7l5.9-4.5l4.2,3.1L887.4,88l-2.9-2.2C884.9,87.9,885.4,90,886.1,91.9z M898.4,109.8l2.8-2.1l-7.7-5.8L892,103c0.4,0.5,0.8,1,1.2,1.5l0.2-0.2l4.2,3.1l-1,0.7C897.2,108.7,897.8,109.3,898.4,109.8z M911.9,117.4l1.1-0.8l-7.7-5.8l-2.7,2.1c0.8,0.5,1.7,1.1,2.5,1.5l1.2-0.9l4.2,3.1l-0.2,0.2C910.8,117,911.4,117.2,911.9,117.4z M945.9,113.8l-3.9-3l-11,8.2c2.2-0.3,4.4-0.8,6.6-1.5l5.4-4l1.5,1.1C944.9,114.4,945.4,114.1,945.9,113.8z M961.9,96.3L953,103l3,2.3c0.4-0.5,0.8-1,1.2-1.5l-0.7-0.5l2.4-1.8C960,99.8,961,98.1,961.9,96.3z M965.6,84.4l-4.8,3.6l-27.9-20.9l10.1-7.6l4.2,3.1l-5.9,4.5l7.7,5.8l13.9-10.4c-0.3-0.7-0.6-1.5-1-2.2l-1,0.8l-27.9-20.9l2-1.5c-1.2-0.3-2.4-0.5-3.6-0.7L916.4,49l7.7,5.8l5.9-4.5l4.2,3.1L924.1,61l-22.1-16.6c-0.9,0.6-1.7,1.2-2.5,1.8l21.9,16.4l-10.1,7.6l-4.2-3.1l5.9-4.5l-7.7-5.8l-21,15.7c-0.2,1.1-0.3,2.1-0.3,3.2l9.5-7.1l27.9,20.9l-10.1,7.6l-4.2-3.1l5.9-4.5l-7.7-5.8l-17.1,12.9c0.4,0.7,0.7,1.4,1.1,2.1l4.1-3.1l27.9,20.9l-3.1,2.3c1.3,0.2,2.6,0.4,3.9,0.5l15.6-11.7l-7.7-5.8l-5.9,4.5l-4.2-3.1l10.1-7.6l20.2,15.1c0.8-0.6,1.6-1.3,2.3-1.9l-19.7-14.8l10.1-7.6l4.2,3.1l-5.9,4.5l7.7,5.8l16.1-12.1C965.2,86.7,965.4,85.5,965.6,84.4z"/>
  <path d="M447.1,254.7h26.4v-14.6h88.7v14.6h26.4v-89.9H447.1V254.7z M473.5,207.1h88.7v21h-88.7V207.1z M473.5,195.2v-18.5h88.7v18.5H473.5z M591.1,63.1h26.3V51.2h-26.3v-29h-60.3V-0.2h-26.4v22.4h-59.4v11.9h59.4v17h-83v11.9h83v18.1h-59.4v11.9h59.4v15.6h-66.3v11.9h66.3v18.5h-83v11.9h195.9v-11.9h-86.6v-18.5h67.3v-11.9h-67.3V93.1h60.3V63.1z M564.7,63.1v18.1h-33.9V63.1H564.7z M530.8,51.2v-17h33.9v17H530.8z M56.4,198.4h24.8V14.9H56.4v12.4h-25V14.9H6.5v195.8h24.8V186h25V198.4z M31.3,105.7h20.4V93.2H31.3V39.8h25v133.8h-25V105.7z M187.7,230.2c0.4,13.4-12.6,22.7-38.2,29.2c-0.4-4.1-2.4-5.4-6.8-4.4c-9.5,2.2-20.3,4.4-20.3,4.4l-1.7-6.2c25.1-6.8,45.9-11.5,42.2-26.8V31.5h-38.6v51.4H156v12.5h-31.7v51.4h29.5v12.4h-29.4c0.1,38.5-20,70.1-64.2,102H47.8c35.7-30.1,52-60.2,51.7-98.9l0-157.7h24.8v14.4h38.6V4.6h24.8V230.2z M293.6,52.2H212V37.7h81.6V5.9h24.8v31.8H400v14.5h-81.6v56.7h65.7v14.5H227.9v-14.5h65.7V52.2z M339.1,182.2c-6.4,6.4-12,13.7-16.7,21.6c-4.7,0-10-10.1-23.3-70.6l2.4-2.2C315.5,148.6,328.1,165.8,339.1,182.2z M406.9,192.1c-0.7,5.2-4.5,15.9-9.8,28.9c-11.6-9.3-23-33.7-38-76.3l2.4-2.2C361.6,142.5,394.7,177.5,406.9,192.1z M367.1,234.6c0.9,19.2-11.5,22.7-32.9,22.7l-55.5,0c-10.5-0.7-16.1-5.9-16.9-15.4l0-95.9h24.8v81.4c0,4.9,2.5,7.2,8,7.2h38.5c8.6,0,13.4-3.1,14.8-9.5c4.2-10.7,4.1-35,5.8-47.2h7.6v40.2h5.7V234.6z M223.3,154.2h24.8l0,58.9c0,12.1-15.6,22.8-38.4,25.8v-12.5c7.7-1,13.6-4.9,13.6-9.5V154.2z M819.4,213.7h-6.6l4.5-39.1h-6.6l-10.4,47.3c-0.7,4.9-5.2,7.3-13.7,7.3h-15.9l-0.1,0c-13.2,0-17.3-0.3-17-11.1l0-23.1l12.8-3.9c4.6-1.1,7.5-0.8,8,3.4c20-5.9,29.4-15.2,29.1-29.3V69.5h-24.7v14.4h-25.1V69.5h-24.8l0,158.6c-0.7,16.7,10,22.3,27.1,21.7h32.8C813.9,249.9,820.7,238.5,819.4,213.7z M778.8,170.7v0.2c0,8.7-10.8,11.6-25.1,15.7V96.4h25.1V170.7z M685.7,175.7C672.7,207,652,233.8,624.9,255h12.5c71.6-61.1,79.3-84.5,84.6-181.4h-24.8V86h-22.7l2.3-20.6h-27.2c-0.5,60.2,2.4,87.1-25.9,129.9h11.7c15.1-22.1,25.2-42.1,29.4-58.2L685.7,175.7z M667.7,127.9l5.4-29.4h24c-0.7,17.4-2.2,35-4.2,52.4C681.2,140.2,672.8,132.5,667.7,127.9z M821.7,24.2v12.5H765v26.8h-24.8V36.6h-29.6v26.8h-24.8V36.6h-56.7V24.2h56.7V-0.5h24.8v24.7h29.6V-0.5H765v24.7H821.7z"/>
  <path d="M879.6,165.5h-5V165h11.9v0.5h-3.1v8.2h-0.5c-2-2-4.5,0.9-6.9,1.2c-6.2,1.6-12.6-1.7-15.3-7.4c-4.4-8.5,2.9-19.3,12.3-19c3.1-0.4,6.6,2.8,8.4,0.6h0.6v7.2h-0.4c-0.4-2.6-1.9-5.3-4.5-6.5c-3.8-1.8-9.5-0.7-11.5,3.3c-2.2,4.6-4.4,21.8,7.4,21.7c4.5-0.2,6.7-2.8,6.7-6.5V165.5z M896.7,161.1v13h4.3v0.5h-12.5v-0.5h4.3v-24.6h-4.3V149c1.5,0,12.6,0,13.9,0c8.4,0,10.5,10.7,0,11.7c2.6,0.3,6.5,1.3,7.4,4.2c1,2.9-0.5,12.1,5.2,8.6l0.3,0.4c-2.6,2-9,1.9-9-4.6c0-6.9-2.2-8.2-5.3-8.2H896.7z M896.7,160.6c4.7,0.1,8.5,0.6,8.4-5.6c0.2-5.5-4.1-6-8.4-5.5V160.6z M916.5,174.1h4.3v-24.6h-4.3V149h22.2v6.2h-0.4c-2.3-7.5-7.5-5.5-13.6-5.7v11.1c5,0.1,6.9,0.2,8.2-5.3h0.4v11.2h-0.4c-1.2-5.5-3.1-5.5-8.2-5.4v13c2.4-0.2,8.9,0.6,10.9-0.8c2.4-1.3,3.8-4.1,4.2-6.5h0.4v7.9h-23.7V174.1z M942.7,174.1h3.4l10.5-25.8h0.9l10.6,25.8h3.5v0.5h-12v-0.5h4.3l-4.1-10h-9l-4.1,10h4.3v0.5h-8.4V174.1z M955.3,153.1l-4.3,10.5h8.5L955.3,153.1z M975.6,174.1h4.3v-24.6c-5.1-0.3-7.8,0.7-9.4,6.1H970V149h23.6v6.6h-0.4c-1.6-5.4-4.4-6.4-9.4-6.1v24.6h4.3v0.5h-12.5V174.1z M864.4,208.3h4.3v0.5h-9.2v-0.5h4.3v-24.6h-4.3v-0.5h8.7l7.2,19.5l7.2-19.5h8.6v0.5H887v24.6h4.3v0.5h-12.5v-0.5h4.3v-24.6l-9.4,25.1l-9.3-24.9V208.3z M893.6,208.3h4.3v-24.6h-4.3v-0.5h12.5v0.5h-4.3v24.6h4.3v0.5h-12.5V208.3z M908.2,208.3h4.3v-24.6h-4.3v-0.5h8.3l13.2,19.7v-19.2h-4.3v-0.5h9.2v0.5h-4.3v25.6h-0.8l-16.4-24.1h-0.1v23.1h4.3v0.5h-9.2V208.3z M936.6,208.3h4.3v-24.6h-4.3v-0.5c5.4,0,8.7,0,13.9,0c18.2,0,18.5,25.6,0,25.6c-5.6,0-8.3,0-13.9,0V208.3z M950.3,208.3c12.6,0,12.7-24.6,0-24.6h-5.5v24.6H950.3z M970,201.1h0.4c1.1,5.8,4.5,7.9,9.4,7.8c7.9-0.2,9.6-9.1,1.7-11.2c-2.7-0.7-7.5-1.9-9.2-3.6c-3.5-3.5-1.2-9.4,3.5-10.9c7-2.3,9.4,2.9,10.7,0.1h0.5v6.5h-0.5c-0.5-2.6-1.9-5-4.4-6.1c-3.3-1.4-9.4-0.2-9.3,4.4c0,5.5,10.3,5,14.4,8c4.9,3.5,2,10.9-3.2,12.7c-2.3,0.8-5.3,0.6-7.8,0.4c-1.5-0.1-4.8-2.2-5.6-0.3H970V201.1z"/>
</svg>