<svg class="logo" data-aos="zoom-in" data-aos-delay="0" xmlns="http://www.w3.org/2000/svg" viewBox="0 0 202 102">
  <g opacity="0">
<path id="wire" d="M0.4,0c0,0,0.2,0,0.2,0.1C0.6,0.1,0.5,0.2,0.4,0z M0.9,3.3L0.9,3.3c0.3-0.1,0-0.6,0.1-0.8h0.1
	L0.8,2.3C0.9,2.6,1,3.1,0.9,3.3z M0.3,4.1c0.1-0.1,0.1,0.2,0-0.2l0,0C0.4,4,0.4,4.1,0.3,4.1z M0.2,4.7c0,0.2,0.1,0.2,0.2,0.1
	L0.3,4.5C0.2,4.6,0.2,4.8,0.2,4.7z M0.6,5L0.6,5C0.6,4.8,0.5,4.9,0.6,5z M0.5,4.7C0.6,4.7,0.5,4.7,0.5,4.7L0.5,4.7L0.5,4.7
	C0.6,4.8,0.7,4.8,0.5,4.7z M0.7,4.4C0.7,4,0.5,4,0.5,4.5C0.6,4.3,0.6,4.2,0.7,4.4z M1.2,3.4L1.2,3.4l0.1-0.2L1.2,3.1
	C1.3,3.2,1.1,3.4,1.2,3.4z M0.4,5.8c0,0.1-0.1,0.2-0.2,0.3l0,0C0.3,6.1,0.4,6,0.5,6L0.4,5.8z M0.5,6l0.1,0.2C0.6,6,0.6,6,0.5,6z
	 M0.2,7L0.1,6.9l0.2,0.2L0.2,7z M0,7.6C0,7.8,0.1,8,0.2,8.1C0.1,8,0.2,7.8,0.3,7.6C0.1,7.5,0.1,7.8,0,7.6z M0.6,6.7L0.6,6.7
	c0,0-0.1,0-0.2,0.2L0.6,6.7C0.5,6.8,0.5,6.7,0.6,6.7z M1.1,5.8C1,5.7,0.9,5.8,0.8,5.6C0.8,5.8,0.9,6.1,1.1,5.8z M0.6,6.2l0.1,0.3
	V6.2C0.8,6.3,0.7,6.3,0.6,6.2z M0.8,6.6L0.8,6.6L0.8,6.6L0.8,6.6z M0.5,7.9C0.6,8,0.6,8.1,0.6,8.2c0,0.1,0,0.2-0.1,0.2l0,0l0,0
	c0,0,0,0,0.1,0c0,0.1,0,0-0.1,0l0,0L0.6,9c0-0.1,0-0.2,0-0.5l0,0C0.8,8.6,0.8,8.8,1,8.7c0-0.3-0.1-0.2-0.2-0.4
	c0,0.5-0.1-0.1-0.2,0.2c0-0.1,0-0.2,0-0.3s0-0.3,0-0.4C0.6,7.8,0.5,7.7,0.5,7.9z M0.7,7.8c0-0.1,0-0.2-0.1-0.2
	C0.6,7.6,0.6,7.7,0.7,7.8C0.6,7.8,0.7,7.8,0.7,7.8z M0.4,8.7c0-0.1,0.1-0.1,0.1-0.2C0.4,8.5,0.4,8.7,0.4,8.7z M0.5,7.3
	C0.5,7.4,0.5,7.4,0.5,7.3L0.5,7.3c0,0.1,0,0.1,0,0.2C0.6,7.5,0.6,7.4,0.5,7.3z M0.8,9.8C0.9,9.7,1,9.2,1.1,9.5s0,0.2-0.1,0.4
	c0.2-0.1,0.3,0.4,0.5,0.4V10c0,0,0.1,0.1,0.1,0c-0.1,0-0.3-0.3-0.1-0.6C1.4,9.2,0.9,9.3,0.6,9.5C0.7,9.5,0.7,9.5,0.8,9.8z M0.6,9.1
	V9c0,0.1-0.1,0.2-0.2,0.4c0.1,0.2,0.1,0.2,0.2,0.2V9.1L0.6,9.1z M1.4,6C1.4,6,1.4,6.1,1.4,6C1.4,6.1,1.4,6.1,1.4,6z M0.9,6.5
	c0.2-0.1,0.3-0.1,0.4-0.2c0,0-0.1-0.1-0.1-0.2s0.1,0,0.1,0c0-0.1-0.1-0.2-0.2,0l0,0C1.2,6.3,1,6.5,0.9,6.5z M1.2,7.6L1.2,7.6
	c0-0.2-0.1-0.2-0.2-0.2l0.1,0.4L1.2,7.6z M1,7.4L1,7.4L1,7.4L1,7.4z M0.5,10.1L0.5,10.1v0.1V10.1z M2.2,39.2L2.2,39.2
	C2.1,39.2,2.2,39.3,2.2,39.2z M1.4,32.1L1.4,32.1c0-0.1-0.1-0.1-0.1-0.2C1.3,32,1.3,32,1.4,32.1z M2.4,44.8L2.5,45
	C2.5,44.8,2.4,44.9,2.4,44.8z M0.5,15.6c-0.1,0.1-0.1,0.3-0.1,0.4C0.5,15.8,0.7,15.6,0.5,15.6z M0.4,16.4L0.4,16.4
	C0.4,16.4,0.4,16.3,0.4,16.4c0-0.2,0-0.3,0-0.4C0.4,16.1,0.3,16.2,0.4,16.4z M1.7,26.2l0.6,0.3c-0.2-0.2-0.2-0.3-0.1-0.4L1.7,26.2z
	 M2.1,61.3c0,0.1,0.1,0.5,0,0.8c0-0.1,0-0.1,0-0.2c-0.1,0-0.2,0.1-0.3,0.3l0.1,0.1l-0.1,0.1c0,0.3,0.2-0.1,0.2,0.2
	c-0.4,0.1,0,1.2-0.4,1.4c0.3,0.2,0-0.5,0.3-0.3c0,0.1-0.1,0.1-0.1,0.3L2,63.9c-0.1,0.9-0.3,1.2-0.2,2l0,0c-0.1,0.3,0,0.4,0.1,0.5
	c-0.1,0.1-0.1-0.1-0.2,0c0.5,0.5-0.4,1,0,1.3c-0.4,0-0.7,0.6-1,0.3v0.2c-0.2-0.1,0-0.6-0.3-0.7l0.3-0.6c-0.1,0-0.2-0.1-0.3,0
	c0-0.2,0-0.3-0.1-0.1c0.4-1.4,0.4-3.6,0.2-4.6c0.2-0.3-0.1-0.3-0.2-0.4l0.3-0.4c-0.1-0.2-0.2,0-0.3,0c-0.1-0.8,0.3-1.5,0.1-2.1
	c0.1-0.2,0.3,0,0.3-0.2c-0.4,0.3-0.2-0.8-0.4-0.5c0.4-0.2,0.1-0.9,0.6-0.8c0-0.3-0.2-0.3-0.3-0.2c0-0.4,0-0.6-0.1-0.9
	c0.1-0.2-0.1-1.6,0.3-2c-0.3,0.2-0.1,0-0.2-0.2l-0.2,0.2c0-0.1,0-0.6,0-0.6c0.3-0.1,0.1-0.5,0-0.7l0,0c-0.1-0.7,0.2,0.4,0.3-0.2
	c-0.1,0-0.4-0.3-0.2-0.5c0.1,0.5,0.3-0.1,0.2-0.2l-0.3,0.1c0-1.1,0.2-2.2,0.2-3.3c0.2,0,0-0.8,0.4-0.7l0,0c0,0.3,0.3-0.1,0.2-0.3
	c-0.1,0.2-0.4-0.4-0.4,0.2L0.6,48c-0.7-0.3,0.1-1.2-0.2-1.9c0,0.1,0.1,0.1,0.1,0.1c-0.2-0.6,0.2-1.4,0.1-1.5h0.2
	c-0.3-0.5-0.3-0.6-0.2-1.2c0,0,0.1,0.1,0.1,0c-0.1-0.1-0.3-0.3-0.2-0.7h0.1v-0.7c0.6,0-0.4-1.1,0.3-1.3c-0.2-0.1-0.2-0.6-0.3-0.8
	l0,0c0,0-0.1,0-0.1-0.1c0,0,0.1,0,0.1,0.1c0,0,0,0,0.1,0c-0.4-0.2,0.5-1.4-0.2-1c0.2-0.4-0.3-1-0.2-1.1c0-0.3,0.2-0.1,0.4-0.2
	C0.5,37.1,0,37.5,0.3,37c-0.1,0.4,0.8-0.6,0.7-0.6l-0.1,0.1c-0.1-0.4,0.6-1.1-0.1-0.9C1,35,0.7,35.3,0.9,34.7l0,0
	c0-0.3,0.2-0.4-0.1-0.6v0.1c0-0.4,0-0.6,0-1c-0.2,0-0.1-0.8-0.1-1c0,0.3,0.1,0.1,0.2,0.1c-0.2-0.2-0.2-0.3-0.1-0.5
	c-0.3,0-0.6-0.1-0.6-0.5c0.1,0.3,0.2,0.1,0.1-0.1c0.1,0,0.1,0.1,0.2,0.1c-0.3-0.3,0-0.5-0.1-1c0.1,0.1,0.2,0,0.3,0
	c-0.3,0,0.3-0.6-0.1-0.4c0.2-1.2,0.3-2.3,0.2-3h0.1c-0.3-0.4-0.1-0.3-0.4-0.8c0.2,0.2,0.3,0.1,0.4-0.1l-0.3-0.3l0.2-0.1
	c-0.1-0.1-0.1-0.3,0-0.5c0,0.1,0,0,0.1,0c-0.3-0.1-0.3-0.7-0.4-0.8c0.3-0.2-0.1-0.4,0.2-0.5c0-0.1-0.1-0.1-0.1-0.2
	c-0.2,0.1-0.3,0.1-0.2-0.1c-0.3,0.1-0.2,0,0-0.3c0,0.1,0,0.2,0,0.3l0.2-0.1c0-0.1-0.1-0.3-0.1-0.4c0,0,0,0.1-0.1,0.1
	c0-0.1,0.1-0.1,0.1-0.2l0,0c0-0.1,0.1-0.2,0-0.3c0.3-0.5-0.4-1.1,0-1.6c0,0.1-0.1,0.2,0,0.2c0-0.5,0.3-0.9,0.1-1.2H0.4
	c-0.1-0.3-0.1-0.6-0.1-0.9H0.1c0.1-0.4-0.2-1.2,0.2-1.5c-0.2-0.1,0-0.5,0-0.8l0.2-0.1c0.1-0.3,0-0.5,0-0.6c0.3-0.6,0-1.1,0-1.7l0,0
	l-0.1-0.5c0.1,0.1-0.1-0.1-0.1-0.3c-0.1-0.3,0.1-0.7,0.1-1c0.1,0.4,0.2,0,0.4,0l-0.1-0.2c0.1-0.1,0.1,0.1,0.2,0
	c-0.1-0.1-0.1-0.6-0.3-0.7l-0.1,0.1c0,0,0,0-0.1,0v0.4c-0.1-0.1-0.1-0.4,0-0.4l0,0c0-0.3,0-0.2-0.1-0.2c0.3-0.3,0.1-0.5,0.4-0.7
	c-0.4,0.3,0-0.7-0.3-0.5c0.3-0.2,0-0.1,0.2-0.3c-0.1,0.3,0.2,0.6,0.3,0.9l0.2,0c0.3,0.2-0.1,0.6,0.1,0.8c-0.2-0.1-0.1-0.4,0-0.4
	L1,11.5c-0.1,0.3,0.1,0.6,0.2,0.9c0.1-0.2,0.1,0.3,0.3,0.1v-0.2c0.1-0.1,0.2,0.1,0.2,0.2c-0.2,0.6,0,1.7-0.2,1.9
	c0.1-0.1,0-0.4-0.1-0.5l-0.1,0.3c0-0.2,0.2-0.4,0.1-0.7c-1.2-0.2-0.2,0.6-0.2,1.4C0.7,15,1.5,16.2,1.8,16c-0.1-0.2-0.3-0.6,0-0.7
	c0.1,0.2,0.2,0.6,0.3,0.6c-0.3,0.2-0.1-0.4-0.3-0.1c0,0.2,0.1,0.2,0.1,0.3c-0.1-0.1-0.2,0.1-0.3,0.2c0,0.5-0.1,0.8-0.2,1.3
	c0,0-0.1,0.1-0.2,0.1c0.1,0.3,0.5,0.6,0.6,0.5c0,0.3-0.1,0.3,0,0.6c0.3-0.4,0,0.1,0.2,0.1c0,0.3-0.1,0.1-0.2,0.2
	c0,0.1,0.1,0.4,0.3,0c0,0.5-0.9-0.4-1.3,0.7c0.2,0.1,1.1,0.1,1.4-0.1c0.1,0-0.2,0.2-0.2,0.4c-0.3,0.3,0.2,0.5,0.1,0.8L2,20.7
	c-0.1,0,0,0.5,0.1,0.5c-0.1,0-0.4-0.2-0.5-0.1c-0.1,0.5,0.4,1,0.7,0.9L2,21.2c0.2,0,0.2,0.6,0.5,0.5l-0.1,0.7c0-0.1-0.1-0.4-0.2-0.3
	c0,0.3,0,0.2-0.1,0.4c-0.3-0.4-1-1-1.3-1.2L1,21.7l-0.1,0.1c0.2,0.5,1,0.9,1.2,1C2,23.1,1.6,23,1.5,23c0,0.5,0.6,0.5,0.6,1.1
	l0.1-0.2c0,0.1,0,0.6,0,0.5c-0.1,0.1-0.4,0.2-0.5,0.1L2.1,25c0-0.1-0.4,0-0.5-0.1c0,0.2,0.4,0.3,0.5,0.2c-0.3,0.4-0.1,0.3-0.4,0.6
	c0,0.1,0.4,0,0.4-0.1c0.1,0.3,0,0.4,0,0.5C2,25.7,1.3,26,1,25.9l1.1,0.9c-0.1,0-0.4-0.1-0.5-0.1C2,26.8,2,27.8,2,28.3v-0.1
	c-0.1-0.1-0.2,0.3-0.1,0.5c-0.1,0-0.1-0.1-0.1-0.1C1.6,28.9,2.3,29,2,29.4C2.1,29.1,2,29,1.8,29c0.1,0.2,0,0.8,0.4,0.7
	C2.1,29.9,2.2,30,2,30l0.2,0.6c0,0-0.1-0.1-0.2,0.1c0.1-0.3-0.3-0.7,0-0.9c-0.2,0-0.4,0.1-0.6,0c0.1,0.7,0.5,1,0.8,1.5L2,31.9h0.1
	L1.8,32c0.1,0.1,0.1,0.2,0,0.1c0,0.1,0,0.1,0.1,0.1c-0.1,0-0.3-0.1-0.5-0.2c0.1,0,0.1-0.1,0.2-0.2c-0.1-0.1-0.3-0.2-0.4,0
	c0,0,0,0.1,0.1,0.1c-0.1-0.1-0.2-0.1-0.2-0.1l0.1,0.4c0,0,0.1-0.1,0.2-0.2c0.2,0.3,0.4,0.6,0.6,0.4l-0.2,0.3C2.1,33.1,2,33,2.2,33.5
	c-0.1,0-0.2-0.1-0.2,0c0.3,0.4-0.4,0.9-0.1,1c0.1,0.3,0.2,0.1,0.3,0.3H2.1L2.3,35c-0.1,0.1-0.1-0.2-0.2,0c0.1,0.4,0.2,0.7,0.1,1
	c0,0.5,0.4-0.2,0.3,0.2c-0.2,0.1-0.4,0.1-0.4,0.4c0.1,0.1,0.2,0.1,0.3,0.4H2.2c0,0.2,0,0.4-0.1,0.4c0.1,0.2,0.1,0.3,0,0.4
	c0.1,0.3,0.5-0.2,0.6-0.3c-0.2,0.3-0.1,0.6-0.4,0.7l-0.1-0.3c-0.3,0.6,0.3,0.6-0.2,0.9c0-0.2-0.1-0.5-0.2-0.3L2,38.9
	c-0.1,0,0-0.2-0.1,0C2,39,2.1,39.2,2.2,39.2l0,0v0.6c-0.1-0.3,0,0.3,0,0.3c-0.1-0.1-0.1,0-0.2,0.2c-0.1,0.5,0.5,0.4,0.3,0.7v-0.1
	l-0.1,0.2c0.5,0,0.1,1.1,0.6,1.1c-0.2,0.3-0.1,0-0.4-0.3l-0.1,0.3c-0.1-0.1,0-0.2,0-0.4c-0.2,0.4,0,0.7,0.2,0.9
	C2.3,42.9,2,42.6,2.1,43c0.1,0.6,0.4-0.1,0.4,0.2l-0.3,0.2c0.3,0.5-0.2,0.9,0.1,1.3c-0.1,0.4,0.3,0.8,0.2,1.1
	C2.4,45.7,2.3,46,2.3,46l0.2,0.5c-0.1-0.2-0.2-0.2-0.4-0.3c0,0.2,0.1,0.2,0.1,0.4c-0.1,0.1-0.2,0-0.2,0.1l0.3,0.6v-0.1
	c0,0.1,0.1,0.4,0,0.6c-0.1,0-0.1-0.1-0.2-0.1c0.2-0.2,0-0.3-0.1-0.4c0,0.4,0,0.1-0.1,0.3c0,0.3,0.2,0.4,0.3,0.3
	c-0.1,0.3-0.1,0.4,0.1,0.7H2l0.1,0.3l-0.3-0.2c-0.1,0.6,0.4,0.1,0.2,0.7H1.8c0.1,0.2,0.4,0.3,0.2,0.5c0.1,0.2,0.3-0.4,0.3,0.1
	c-0.1,0.1-0.2,0.3-0.2,0.5c0.1,0.2,0.2-0.1,0.2-0.2c0.1,0.8-0.6,0.5-0.4,1.2c0.1-0.2,0.4,0.2,0.4-0.4C2.4,51.4,2,51.7,2.2,52L2,51.8
	C2,51.9,2.1,52,2.1,52H1.9c0.3,0.4-0.2,0.7,0.3,0.9c-0.3-0.2,0,0.3-0.1,0.4c-0.2-0.3,0-0.9-0.3-0.9c-0.1,0.1-0.1,0.3,0,0.5
	c-0.1-0.1-0.2-0.3-0.2-0.3c-0.2,0.5,0.2,0.7,0.3,1l-0.1-0.5c0.3,0,0,0.2,0.3,0.4c-0.2,0.2,0.1,0.4,0,0.6V54c0,0.6-1,1.1-0.2,1.4
	C2,55.6,1.8,54.7,2.2,55c-0.5,0.3,0.2,0.6-0.2,1.3c-0.2-0.3-0.3,0.2-0.4-0.1c0,0.3,0.1,0.3,0.2,0.5l-0.1,0.1C2,57.2,2,56.9,2.1,57.5
	c-0.1-0.2-0.2,0.3-0.3,0.1c0,0.2,0,0.4,0.1,0.5l0,0c0.1,0.6-0.2,0.5,0,1.1L1.8,59C2,59.8,1.9,60.7,2,61.5L2.1,61.3z M2.2,38.2
	c0.1-0.1,0-0.2-0.1-0.3C2.1,38.1,2,38.1,2.2,38.2z M1.7,31.7c0.1-0.1,0.1-0.2,0-0.3C1.7,31.6,1.7,31.7,1.7,31.7z M0.5,54L0.5,54
	C0.5,54.1,0.6,54.1,0.5,54z M2.3,44.8L2.3,44.8L2.3,44.8L2.3,44.8z M1.5,9V8.9H1.4C1.4,9,1.5,9.2,1.5,9z M0.9,10.9L0.9,10.9
	c0.2,0,0.1-0.2,0.1-0.3l0,0C0.8,10.5,0.9,10.7,0.9,10.9z M0.5,12.6c0-0.1-0.2-0.1-0.1-0.1C0.2,12.5,0.6,13.1,0.5,12.6z M1.5,10.7
	l-0.2,0.1l0.2,0.1V10.7z M1.3,12.1l0.1-0.3c0,0,0,0-0.1-0.1C1.3,11.9,1.3,12.1,1.3,12.1z M1.3,15L1.3,15l0.1,0.3
	c0.1,0,0.1-0.1,0.1-0.2C1.4,15.1,1.3,15,1.3,15z M1.8,14.1c0,0.1-0.1,0.1-0.1,0.1h0.2L1.8,14.1z M2,15.1c-0.1,0-0.1-0.3-0.2-0.1
	C1.9,15,2,15.4,2,15.1z M1.5,19.5L1.5,19.5l-0.4-0.1L1.5,19.5z M2.1,23.2c0.1,0.2,0,0.3,0.3,0.2l0,0C2.5,23,2.2,23.3,2.3,23
	C2.2,23,2.2,23.3,2.1,23.2z M0.1,68.1L0.2,68l-0.1-0.1V68.1z M0.4,68.5c0,0,0-0.1,0-0.2l-0.2,0.1L0.4,68.5z M2.5,37.5l0.1-0.2H2.5
	C2.5,37.3,2.5,37.4,2.5,37.5z M2.7,42.6c0,0.2-0.3,0.4,0,0.3C2.7,42.9,2.7,42.7,2.7,42.6z"/>
</g>

<use href="#wire" style="x: 196.9;y: 11.9;transform: rotate(4.4deg)scale(-1,-1.49);transform-origin: 50%;"></use>
<use href="#wire" style="x: 184;y: 39;transform: rotate(-5.7deg)scale(-1.13,-0.8);transform-origin: 50%;"></use>
<use href="#wire" style="x: 190.5;y: 13.9;transform: rotate(3.5deg)scale(-1,-1.2);transform-origin: 50%;"></use>
<use href="#wire" style="x: 14.1;y: 13;transform: rotate(-5.5deg)scale(1,.87);transform-origin: 50%;"></use>
<use href="#wire" style="x: 33.9;y: -31;transform: rotate(-5.8deg)scale(1.2,.62);transform-origin: 50%;"></use>
<use href="#wire" style="x: 21.5;y: 20.5;transform: rotate(4.7deg)scale(1,1.19);transform-origin: 50%;"></use>
<use href="#wire" style="x: 196.9;y: 11.9;transform: rotate(4.4deg)scale(-1,-1.49);transform-origin: 50%;"></use>
<use href="#wire" style="x: 166.5;y: 30.5;transform: rotate(-5.6deg)scale(-1,-1.17);transform-origin: 50%;"></use>
<use href="#wire" style="x: 35.3;y: 11.9;transform: rotate(-3.3deg)scale(1,1.19);transform-origin: 50%;"></use>
<use href="#wire" style="x: 161.8;y: 20.8;transform: rotate(-2.3deg)scale(-1,-1.2);transform-origin: 50%;"></use>
<use href="#wire" style="x: 34.7;y: 15.2;transform: rotate(3.7deg)scale(1,1);transform-origin: 50%;"></use>
<use href="#wire" style="x: 41.8;y: 25.9;transform: rotate(-3.3deg)scale(1,1);transform-origin: 50%;"></use>
<use href="#wire" style="x: 151.5;y: 34.5;transform: rotate(-5.0deg)scale(-1,-0.91);transform-origin: 50%;"></use>
<use href="#wire" style="x: 50.5;y: 12.5;transform: rotate(-3.3deg)scale(1,1.19);transform-origin: 50%;"></use>
<use href="#wire" style="x: 144.1;y: 28.8;transform: rotate(1.4deg)scale(-1.1,-0.91);transform-origin: 50%;"></use>
<path d="M82.1,84.8c0.4-0.1,0.9-0.1,1.3,0l2.1,5.1l2.1-5.1c0.4-0.1,0.9-0.1,1.2,0l0.4,8.1c-0.4,0.1-0.8,0.1-1.1,0
	l-0.3-6.3l-2,4.6c-0.3,0-0.6,0-0.9,0L83,86.5l-0.3,6.3c-0.3,0.1-0.7,0.1-1.1,0L82.1,84.8L82.1,84.8z M94.2,93
	c-2.3,0.1-3.5-2.1-3.4-4.2c-0.1-2.1,1.1-4.3,3.4-4.2c2.3-0.1,3.5,2.1,3.4,4.2C97.7,90.9,96.6,93.1,94.2,93z M94.2,92
	c1.7,0.1,2.2-1.7,2.2-3.2s-0.5-3.2-2.2-3.2c-1.7-0.1-2.2,1.7-2.2,3.2S92.5,92.1,94.2,92z M99.3,84.8c0.6-0.1,1.1-0.1,1.7-0.1
	c1.5-0.1,3.2,0.7,3.2,2.5c0,1.1-0.8,1.9-1.7,2.3l2.4,3.4c-0.4,0-0.9,0-1.3,0l-2.6-3.8V89c0.9-0.2,2.1-0.8,2-1.9
	c0-1.1-0.7-1.6-1.8-1.6c-0.3,0-0.5,0-0.7,0v7.2c-0.4,0-0.8,0.1-1.2,0V84.8L99.3,84.8z M106.1,84.8c0.4-0.1,0.8-0.1,1.1,0v8.1
	c-0.1,0-0.2,0-0.3,0c-0.1,0-0.2,0-0.3,0c-0.1,0-0.2,0-0.3,0c-0.1,0-0.2,0-0.3,0L106.1,84.8L106.1,84.8z M115.9,91h-3.1l-0.5,1.9
	c-0.4,0.1-0.8,0.1-1.2,0l2.6-8.1c0.4-0.1,0.9-0.1,1.3,0l2.6,8.1c-0.4,0.1-0.8,0.1-1.2,0L115.9,91L115.9,91z M113.1,90h2.5l-1.2-4.2
	L113.1,90z M118.9,84.8c0.6-0.1,1.1-0.1,1.7-0.1c1.5-0.1,3.2,0.7,3.2,2.5c0,1.1-0.8,1.9-1.7,2.3l2.4,3.4c-0.4,0-0.9,0-1.3,0
	l-2.6-3.8V89c0.9-0.2,2.1-0.8,2-1.9c0-1.1-0.7-1.6-1.8-1.6c-0.3,0-0.5,0-0.7,0v7.2c-0.4,0-0.8,0.1-1.2,0V84.8L118.9,84.8z
	 M130.6,91.7c0.2,0.3,0.3,0.6,0.3,0.9c-2.5,1-5.8,0.3-5.8-3.8c0-4.1,3.2-4.8,5.7-3.9c0,0.4-0.1,0.6-0.3,0.9c-2.3-0.7-4.2-0.1-4.2,3
	C126.4,91.8,128.5,92.5,130.6,91.7L130.6,91.7z M132.4,84.8c0.4-0.1,0.8-0.1,1.1,0v3.3h3.5v-3.3c0.4-0.1,0.8-0.1,1.1,0v8.1
	c-0.4,0.1-0.8,0.1-1.1,0v-3.8h-3.5v3.8c-0.4,0.1-0.8,0.1-1.2,0L132.4,84.8L132.4,84.8z M140.2,84.8c0.4-0.1,0.8-0.1,1.1,0v8.1
	c-0.4,0.1-0.8,0.1-1.2,0L140.2,84.8L140.2,84.8z M144.7,85.8h-2.1c-0.1-0.3-0.1-0.7,0-1h5.4c0.1,0.3,0.1,0.7,0,1h-2.1v7.1
	c-0.3,0-0.8,0-1.2,0L144.7,85.8L144.7,85.8z M149.3,84.8h4.5c0,0.3,0.1,0.7,0,1h-3.3v2.3h2.6c0.1,0.3,0.1,0.7,0,1h-2.6v2.8h3.4
	c0,0.3,0.1,0.7,0,1h-4.6L149.3,84.8L149.3,84.8z M160.5,91.7c0.2,0.3,0.3,0.6,0.3,0.9c-2.5,1-5.8,0.3-5.8-3.8c0-4.1,3.2-4.8,5.7-3.9
	c0,0.4-0.1,0.6-0.3,0.9c-2.3-0.7-4.2-0.1-4.2,3C156.3,91.8,158.4,92.5,160.5,91.7L160.5,91.7z M163.7,85.8h-2.1
	c-0.1-0.3-0.1-0.7,0-1h5.4c0.1,0.3,0.1,0.7,0,1h-2.1v7.1c-0.3,0-0.8,0-1.2,0L163.7,85.8L163.7,85.8z M168.2,84.8c0.4,0,0.8,0,1.2,0
	v4.6c0,1.7,0.3,2.6,1.7,2.6s1.7-1.1,1.7-2.6v-4.6c0.4,0,0.8,0,1.2,0v4.8c0,2.4-1,3.4-2.9,3.4c-2,0-2.9-1-2.9-3.4V84.8z M175.9,84.8
	c0.6-0.1,1.1-0.1,1.7-0.1c1.5-0.1,3.2,0.7,3.2,2.5c0,1.1-0.8,1.9-1.7,2.3l2.4,3.4c-0.4,0-0.9,0-1.3,0l-2.6-3.8V89
	c0.9-0.2,2.1-0.8,2-1.9c0-1.1-0.7-1.6-1.8-1.6c-0.3,0-0.5,0-0.7,0v7.2c-0.4,0-0.8,0.1-1.1,0L175.9,84.8L175.9,84.8z M182.6,84.8h4.5
	c0,0.3,0.1,0.7,0,1h-3.3v2.3h2.6c0.1,0.3,0.1,0.7,0,1h-2.6v2.8h3.4c0,0.3,0.1,0.7,0,1h-4.6L182.6,84.8L182.6,84.8z"/>
<path d="M95.9,24.2l-5.5-4.7L84.9,26v-7.1H68.8V26h16L64.9,49.4l5.5,4.7l4.7-5.5v19H82V48h-6.4L95.9,24.2z M159.9,76.9
	v-0.4L175.1,57v20h7.6V57.3L196,75.7l5.8-4.1l0,0l-15.4-21.4H199V43h-16.2v-8.5h-7.6v10.8L160,64.8V57h-7l10.8-13.5v6.7h7.3V25.8
	l23.6,13.6l3.5-6.1L171,17.6V9.5h-7.3v6.8H140v7.1h14.2L137,33.3l3.5,6.1l23.1-13.3V43l-5.3-4.2l-9.1,11.3v-7.2h-14v-6.8H127V20h4.8
	v-6.8h-30.1V20H120v16.1h-9.9v-6.8H94.2v6.8h-6.7v35.7h7.1V36.6h15.7v6.3h-7v16.5c0,0-1.5,9.1-8.4,15l4.8,5.4
	c6.9-7.6,9.9-14.8,10.6-20.5v-16h9.9v34.4h7V43.4h8.2v6.9h13.9l-17,21.2l5.5,4.4l14.5-18.1v19.1H159.9z M194.8,16.3h-13.5v7.1h13.5
	V16.3z"/>
</svg>