<svg xmlns="http://www.w3.org/2000/svg" viewBox="0 0 1789.2 478.93"><defs><style>.cls-1{fill:#fff;opacity:0.65;}.cls-2{writing-mode:tb;text-orientation:upright;glyph-orientation-vertical:0deg;font-size:15px;fill:#333;font-family:NotoSansCJKtc-Regular-B5pc-H, Noto Sans CJK TC;letter-spacing:0.12em;}.cls-3{fill:none;stroke:#fff;stroke-miterlimit:10;}</style></defs><g id="圖層_2" data-name="圖層 2"><g id="圖層_3" data-name="圖層 3"><rect class="cls-1" width="26.87" height="201.39"/><rect class="cls-1" x="597.66" width="26.87" height="162.18"/><rect class="cls-1" x="1128.8" width="26.87" height="179.46"/><rect class="cls-1" x="1326.59" width="26.87" height="110.74"/><rect class="cls-1" x="1017.99" width="26.87" height="91.96"/><rect class="cls-1" x="1166.36" width="26.87" height="91.96"/><rect class="cls-1" x="1762.34" width="26.87" height="91.96"/><rect class="cls-1" x="1549.13" width="26.87" height="91.96"/><rect class="cls-1" x="1644.9" width="26.87" height="121.64"/><text class="cls-2" transform="translate(13.19 11.64)">海洋文化及流行音樂中心</text><line class="cls-3" x1="13.19" y1="201.39" x2="13.19" y2="320.56"/><text class="cls-2" transform="translate(611.09 11.64)">高雄港埠旅運中心</text><line class="cls-3" x1="611.09" y1="162.18" x2="611.09" y2="478.93"/><text class="cls-2" transform="translate(1031.43 11.64)">捷運輕軌</text><line class="cls-3" x1="1031.43" y1="91.96" x2="1031.43" y2="422.4"/><text class="cls-2" transform="translate(1340.02 11.64)">高雄展覽館</text><line class="cls-3" x1="1340.02" y1="110.74" x2="1340.02" y2="408.03"/><text class="cls-2" transform="translate(1179.79 11.64)">晶英酒店</text><line class="cls-3" x1="1179.79" y1="91.96" x2="1179.79" y2="283.73"/><text class="cls-2" transform="translate(1142.23 11.64)">高雄市立圖書館總館</text><line class="cls-3" x1="1142.23" y1="179.46" x2="1142.23" y2="327.95"/><text class="cls-2" transform="translate(1658.34 11.64)">高雄軟體園區</text><line class="cls-3" x1="1658.34" y1="121.64" x2="1658.34" y2="422.4"/><text class="cls-2" transform="translate(1775.77 11.64)">台鋁廣場</text><line class="cls-3" x1="1775.77" y1="91.96" x2="1775.77" y2="358.06"/><text class="cls-2" transform="translate(1562.56 11.64)">中鋼總部</text><line class="cls-3" x1="1562.56" y1="91.96" x2="1562.56" y2="317.31"/></g></g></svg>