<?xml version="1.0" encoding="utf-8"?>
<!-- Generator: Adobe Illustrator 24.0.1, SVG Export Plug-In . SVG Version: 6.00 Build 0)  -->
<svg version="1.1" id="圖層_1" xmlns="http://www.w3.org/2000/svg" xmlns:xlink="http://www.w3.org/1999/xlink" x="0px" y="0px"
	 viewBox="0 0 1920 1190" style="enable-background:new 0 0 1920 1190;" xml:space="preserve" preserveAspectRatio="xMaxYMid meet">
<style type="text/css">
	.st0{clip-path:url(#SVGID_2_);}
	.st1{clip-path:url(#o_1_);}
	.st2{fill:none;stroke:#FFF;stroke-miterlimit:10;}
	.st3{mix-blend-mode:screen;}
</style>
<g>
	<defs>
		<path id="SVGID_1_" d="M2019.2,409.4c-488.5,59.1-316.3,488.4-122.6,574.4c169.8,74.8,339.8,49.4,333.3,78.5
			c7.5,31.7,32.6,135,10.3,132.4c-203.6,55.6-470.8-30.8-603.1-152.1c-399.4-371-166.9-907.2,357-923L2019.2,409.4z"/>
	</defs>
	<clipPath id="SVGID_2_">
		<use xlink:href="#SVGID_1_"  style="overflow:visible;"/>
	</clipPath>
	<g class="st0">
		<defs>
			<circle id="o" cx="0" cy="0" r="552.5"><animateMotion dur="4s" begin="3s" path="M2484.5,1218c-1376,9-1250-325-551-577" fill="freeze"></animateMotion></circle>
		</defs>
		<clipPath id="o_1_">
			<use xlink:href="#o"  style="overflow:visible;"/>
		</clipPath>
		<g class="st1">
			<image style="overflow:visible;" width="795" height="1280" xlink:href="bg3.jpg"  transform="matrix(1 0 0 1 1125 0.5)">
			</image>
			
				<image style="overflow:visible;" width="795" height="1280" xlink:href="bg31.png"  transform="matrix(1 0 0 1 1125 0.5)">
			</image>
			
				<image class="st3" style="overflow:visible;" width="795" height="1280" xlink:href="bg32.png"  transform="matrix(1 0 0 1 1125 0.5)">
			</image>
			<path class="st2" d="M2249.1,1119.9c-107.2,18.3-265.3-4.1-370.1-45.8c-379.6-151.2-468.8-758.5,134.4-810.7"/>
		</g>
	</g>
</g>
</svg>
