<svg xmlns="http://www.w3.org/2000/svg" viewBox="0 0 284.59 311.99"><defs><style>.cls-1{fill:#db364a;}</style></defs><g id="圖層_2" data-name="圖層 2"><g id="圖層_1-2" data-name="圖層 1"><path class="cls-1" d="M33.63,196.82c-1.44-2.1-1.94-5.15-1.8-8.27.07-1.51,1-2.88,1.58-4.36l-.77-.56,1.54-3.24c.1,1,.28,2,.3,3s-.1,2.12-.16,3.18c.13.15.26.3.4.44.48-.61,1.32-1.11,1.37-1.83.3-3.94.39-7.93.56-11.9l-.54-.2c-.22,1.13-.38,2.3-.67,3.37-.37,1.4-.84,2.72-1.27,4.07-1.35-3-.29-6.1,0-9.12.16-1.83.56-3.58.9-5.62.59-.07,1.32-.45,2-.21,2.55.92,3,2.17,2.43,7-.36,3.34-.79,6.66-1.18,10-.08.64-.13,1.3-.22,2.17l1.4-.64c1.3-.57,2.06-1.81,2.14-4.67.17-5.64.52-11.27.82-17.65.75.27,1.8.11,2.44,1,.89,1.24,0,2.89-.17,4.48-.53,4.33-.78,8.79-1.14,13.21.13.29.25.59.37.88L51,175.84c-.15-1-.23-1.71-.37-2.41-.65-3.25-.65-3.2,1.12-3.61.68-.16,1.66.29,1.33-2.38-.19-1.45,1.22-2.49,2.31-1.11,1.66,2.06,2.81,0,4.15-1,.26-.18.55-.3.82-.45.36,2.69-1.12,2.09-1.65,3.18-.68,1.37-1.76,2-2.48,3.3a7.49,7.49,0,0,0-.47,3.24c0,.37.93.65,1.44.87a9.33,9.33,0,0,1,2.39.93,21.29,21.29,0,0,1,2.73,2.79,3.92,3.92,0,0,1,.89,1.37,14.6,14.6,0,0,1,.67,2.79,7.16,7.16,0,0,1,0,2.4,8.9,8.9,0,0,1-.93,2.27c-1.33-1.69-1.5,1.12-1.95,2-1,2-1.71,4.39-2.63,6.48-.42.93-1.07,2.12-1.6,2.1-1.67-.06-2.41,1.26-2.4,4.48h1.22c-.1.82-.16,1.39-.18,1.6a15.63,15.63,0,0,0,2.72-.82,2.23,2.23,0,0,0,.91-1.47c-.15-3,1.23-4,2-5.68s1.86-3.28,3.15-5.49c.66-9.1,1.4-19.35,2.18-30.2l-3.59,3c-.14-.56-.25-1-.41-1.59-.89,3.12-.89,3.12-1.55,2a54.73,54.73,0,0,1,4.26-5.41A7.05,7.05,0,0,0,67,153.81c.08-3.63.26-7.28.16-10.9-.09-3,1-2.47,1.86-2.81s1.53.18,1.68,2.18A19.41,19.41,0,0,1,70,150a21,21,0,0,0-.47,3.63c4.27-4.75,8.42-9.37,12.59-13.93.1-.1.41.52.7.91-1.34,2.07-2.61,4.16-4,6s-3,3.77-4.41,5.69a47.62,47.62,0,0,0-4.8,6.58,17.79,17.79,0,0,0-1.37,6.35c-.71,10.38-1.27,20.81-1.89,31.21-.11,1.84-.33,3.67-.38,5.51-.18,6.73-.27,13.48-.48,20.21-.13,3.87-.46,7.72-.6,11.6-.06,1.68.13,3.4.22,5.47,3-1.44,5.87-2.89,8.74-4.18,4.73-2.11,9.2-5.88,14-7.8,1-.4,1.41-1.23,1.38-3.24,0-3.57,0-7.17.14-10.72.28-5.88.78-11.72,1-17.6.19-4.44,0-8.93.17-13.39.11-3.67.49-7.32.58-11a13.88,13.88,0,0,0-.6-4.46,18.89,18.89,0,0,1-.85-4.66c-.28-2.9,1-3.57,1.38-5.26.54-2.72,1.36-2.27,2.42-2.4.49-.06,1.2-1.36,1.36-2.36.38-2.38.44-4.94.74-7.38.12-1,.45-2.39.8-2.53.51-.21,1.25.32,1.65,1A7.08,7.08,0,0,1,98,146c-.16,1.24-.45,2.43-.86,4.56l4.86-1.24s.09-.14.14-.15c3.92-1.21,3.28-7,3.41-12.07,0-1,.59-2.82.92-2.83a2.2,2.2,0,0,1,2,1.55,21.32,21.32,0,0,1,.06,5.37c-.15,2-.73,3.84-.77,5.79-.24,10.69-.47,21.39-.5,32.09,0,11.08.15,22.16.28,33.24,0,3.57.14,7.16.36,10.7a45.15,45.15,0,0,0,1,7.67c.2.83,1.57,1.18,2.31.9,4-1.56,8-3.63,12.09-5a95.83,95.83,0,0,1,12.71-3.38c1.45-.29,3.13-.27,4.14,2.68.53,1.57.71,3-.45,3.72-1.74,1.08-3.49,2-5.24,3l0,.08-.78-2.14,1.81-2.28a31,31,0,0,0-8.83,1.79c-3.74,1.3-7.46,2.86-11.19,4.33a14.48,14.48,0,0,0-2,1c-.94.55-1.85,1.55-2.8,1.71-1.76.28-1.28,2.63-1.43,4.53,0,.52-.32,1-.26.79.26,2.17.45,3.79.65,5.56a37.49,37.49,0,0,1,4.6-1.52c1.15-.24,1.62-1.2,1.53-3.29,0-1,0-2-.16-2.95-.24-2,.59-2.91,1.15-2.53.77.52,2.31-.89,2.25,2.21a28.53,28.53,0,0,1-.82,4.52c3.55-.89,4-.37,3.41-6.59a4.18,4.18,0,0,1,.42-2c.76-1.3,1.63-1.16,2.29.25a6.35,6.35,0,0,1-.15,5.41,19.27,19.27,0,0,0,5.29-1.61,9.27,9.27,0,0,0,.08-1.27c.13-1.45,1.35-3.07,2.13-2.87l0-.09-1.55,4a33,33,0,0,0,4.52-1c2.61-1,5.18-2.32,7.79-3.18,1.43-.47,3-1.71,4.37.48.17.27.74.05,1-.31a20,20,0,0,0,2.31-4.42c.36-1.13.11-2.94.16-4.44.23-6,.47-11.9.73-18.36l1.25,1.69c0-.55,0-1.08,0-1.62l.65-.53a14.45,14.45,0,0,1,.73,6.44c-.26,3.21-.3,6.49-.39,9.75-.07,2.48.41,3.81,1.88,3.1a22.26,22.26,0,0,1,2.77-1c0-32.91-1.11-65.52-3.22-98l-1,1.69-3.71-1.38c1.52-3.22,2.46-7.45,5.29-7.08V101.79l-2.25,1.95-.23-.7c.54-2.19,1.07-4.38,1.63-6.65l-.85-.22c1.45-2.21,1.47-4.83.72-7.48-.17-.61-.89-1.16-1.26-1-1.74.81-2,3.59-2.09,6.57-2.27-.85-2.68,3.11-3.87,5-.69,1.11-1.44,2.07-2.17,3.1-1.61,2.29-3.57,3.88-4.4,7.78a1.27,1.27,0,0,1-.51.64c-1.07.9-1.71,2.3-2,4.61-.16,1.39-.34,3.68-1.78,2.62-.27-.2-.76.73-1.26,1.24-.33-3.31-1.94-6.58.36-9.4L131.8,104c1.35-6.14,2.57-11.44,3.67-16.83a54.6,54.6,0,0,0,.74-6.16c.14-1.57-1.23-3.16-2.12-2.47-.58.44-1.32.81-1.63,1.68-1.7,4.74-4.73,5.55-7,8.74-3,4.18-6.39,7.12-9.58,10.7-1.53,1.71-3,3.67-4.47,5.52-.17.22-.31.63-.49.73-2,1-3.09,4.42-4.77,6.3-2.26,2.54-4.33,5.68-6.57,8.3-1.64,1.92-3.41,3.41-5.39,5.36.53-1.81.41-3.92,1.8-3.81.21,0,.45-.34.63-.64a40.35,40.35,0,0,1,2.27-3.81c2.65-3.4,5.33-6.74,8-9.93,2.06-2.42,4.26-4.43,6.31-6.91,1.9-2.29,3.63-5.1,5.52-7.43a62.11,62.11,0,0,1,4.37-4.49c.11-.11.16-.4.26-.55,1.48-2.23,2.91-4.57,4.45-6.62a65.39,65.39,0,0,0,4.24-5.54,16.47,16.47,0,0,0-2-.93,10,10,0,0,1-2.2-.6,3.19,3.19,0,0,1-.91-1.81c.24-.93.8-2.36,1.13-2.27a21.94,21.94,0,0,1,4.6,2.1c1.12.64,2.2,1.58,3.44,2.48.37-2.67.44-5.79,2.18-5.47A4.05,4.05,0,0,1,141,72.28c.58,1.67,2.22,3.86-.12,6.54a22.87,22.87,0,0,0,2.29,1.63c.57.3,1.19.24,1.75.59.74.46,1.19.29,1.56-1.14.51-2,1.5-1.76,2.32-1a16,16,0,0,1,1.86,2.7A11.81,11.81,0,0,1,153.27,80a1.58,1.58,0,0,1,1.85.89c.27.84-.12,2.45-.27,4.23.12.26.55,1.1.93,2,.5,1.17.69,3.3,1.93,1.9.12-.14.52.79.83,1a.54.54,0,0,0,.71-.14,2.27,2.27,0,0,0,.14-1c-1.07-1.26-.08-2.86-.15-4.26-.1-1.9.33-3.86.4-5.82s.68-2.87,1.62-2.6,2.15.72,2,3.29c-.27,3.49-.76,6.92-1.27,11.32,1.63-2.64,3.22-4.44,4.18-7.07.56-1.53.17-4.4.09-6.66-.24-7.25-.53-14.49-.82-21.73,0-1.24-.21-2.47-.34-4-2.39,2.32-4.61,4.45-6.82,6.61-2.53,2.49-5.09,4.91-7.57,7.58a32.38,32.38,0,0,0-2.87,4.22c-1.29,2-2.19.34-2.9-1.37a5.42,5.42,0,0,1,.58-2.89C152.4,62.77,157.81,54,164.1,48.73c.83-.69,1.17-1.73,1-3.56a34.41,34.41,0,0,1-.13-5c0-.74.4-2,.68-2a25.84,25.84,0,0,1,4.13-.47c-.63,2.2-1.11,3.83-1.58,5.46l.26.72c.59-.54,1.18-1.06,1.75-1.63,1.54-1.53,3.05-3.19,4.63-4.56.49-.42,1.16-.07,1.94-.07l-.66-1.85a62,62,0,0,0,5.26-4.56,9.35,9.35,0,0,0,1.49-3.78c.11-.5-.51-1.64-.82-2.46-.49-1.28-1-2.54-1.51-3.81l2-2.29.47.63c.18-3,.26-6,.58-9,.14-1.26.82-3.37,1.14-3.3a3.72,3.72,0,0,1,2.57,2.22,4.27,4.27,0,0,1-.91,4c-1.67,1.8-1.82,6-.29,7.69-1.06,1.72-2,3.52-1.57,6.2L194,18.84a2.17,2.17,0,0,1,.25-1c3.78-4.68,8-7.32,12.28-9.86,1.76-1,4.09-2.32,3.41-8,2.18.36,4.33-.22,5.48,3.93.17.61-.27,1.83-.49,3.2.2.45.58,1.39,1,2.23,1.51,2.94,1.81,2.93,3.33.07.88-1.66,1.95-1.14,2.3,1.11.1.63.22,1.25.33,1.9l-1.38,2c1.57,1.07,2.88,2,4.2,2.84s2.81,1.92,4.23,2.81a2.24,2.24,0,0,0,1.53.51c3.09-.77,3.64.1,3.52,5.83-1.46-.83-2.5.8-3.54,2.25-1.22,1.69-2.28,4.33-3.62,5a9.55,9.55,0,0,0-3,2.39l0,.09c.39-1.25.79-2.5,1.2-3.81L224,32l2-2.67c.24-3.73,3-3.59,3.34-7.68l-3.46-1.75c.08.35.16.69.25,1-.85,1.55-1.57,3.54-2.56,4.57-3,3.11-5.34,7.32-6.88,13.18-.18.7-1,.79-1.56,1.17l0,.06c.75-1.9,1.51-3.79,2.26-5.69l-.23-.53a13.65,13.65,0,0,0-1.75,3c-.76,2.39-1.75.85-2.63.89-.31,0-.64-.54-1.18-1-.15,1.62-.28,2.94-.41,4.25l-.21.09c-.19-1.92-.47-3.82-.56-5.75-.16-3.12-.27-6.25-.23-9.37,0-.64.79-1.23,1.33-2,.18,1.39.28,2.16.39,3,.14-.1.31-.13.38-.31.83-2.13,1.42-4.94,2.52-6.26s1.19-3.92,2.07-5.56c-.38-.58-.72-1.13-1.08-1.63-1.5-2.09-3.23-.83-3.54,2.65-.12,1.46,0,3-.22,4.43a9,9,0,0,1-1,2.33c-.06-.58-.15-1.16-.18-1.74-.22-3.42-.42-6.84-.64-10.51-1.82,1.41-4,1.51-5.75,4.27a2.88,2.88,0,0,1-2.35,1.5c-2.59-.22-4.53,2.79-6.66,4.63A121.19,121.19,0,0,0,186,30.28a7.73,7.73,0,0,0-1.89,3.91c-.25,2.1-.84,1-1.28,1.09s-1.19-.35-1.63.06c-3.93,3.68-7.89,7.3-11.7,11.39-1.31,1.41-2.39,3.85-2.23,7.39.31,6.53.52,13.08.77,19.62.09,2.21.15,4.43.22,6.57l4.41-3-1-.57c1.94-.63,3.35-1.83,4.09-4.94,1.48.9,1.92.46,1.79-2.55-.25-6.33-.61-12.64-1-19-.11-1.95.45-2.69,1.27-2.93,1.11-.32,2.27.14,2.32,2.62.06,2.85-.4,5.72-.43,8.59,0,2,.32,3.9.49,5.86.12,1.31.45,2.73-.53,3.51a17.11,17.11,0,0,0,.16,1.76c.19-.63.31-1,.48-1.56-.23,3.9-.45,7.5-.66,11.11l.55.09c0-1,.05-2.09.09-3.39.93,3.32.66,7.59-.43,8.06,1.08,1.62,1.2,2.59.53,5l-.18-1.87-.5.41.69,2.55.44-.37a53,53,0,0,1-.31,7.33c-.33,1.85-.62,3.15.2,4.67a4.87,4.87,0,0,1-.06,1.58c-.15,1.73-.31,3.45-.49,5.35h-.44c1,4.58,1,4.58,0,7.63l1.09.23c-.58,2.47-1.61,5,.33,8.08-.2,1.62-.52,4.13-.82,6.54l1.14,1.63c-.22.33-.45.65-1,1.47a5.7,5.7,0,0,1,.91,1.86,15.54,15.54,0,0,1,0,3c-.23,0,0,0,.22,0l-.69,4.38,1.26,2.11-.54.06c.35,6.77,1.76,13.34.48,20.43.13-.47.26-.93.64-2.23.21,7.47.4,14.14.59,20.81h-1c.24.53.42,1,.64,1.38s.53.52.52.63c-.43,3,.65,5.45.66,8.41,0,5.57.5,11.14.87,16.69a5.87,5.87,0,0,0,.93,2l.56-.41c.06-2.08.2-4.17.14-6.23q-.23-8.93-.59-17.82c-.4-10.14-.92-20.26-1.25-30.4-.16-5.14,0-10.32,0-15.9,1,.88,1.3,2.45,1.39,4.31.05,1,.21,2,.39,3.63,0,2-.18,4.91-.09,7.76.25,8,.79,15.92.81,23.89,0,2.61-.4,5.12.5,7.42a6.83,6.83,0,0,0,1,1.48c-1.29,2.49-1.39,5.27-.42,9.62a31.7,31.7,0,0,1,.16,4.64c.08,1.63.06,3.09,1.11,4.17.73.76,1.15,2.91,1.52,4.59.52,2.34-.46,3.22-1.36,3.64-.58.28-1.26-.16-1.84-.48-2.64,1-5.2,2.45-4.83,9.76,1.63-.94,3.32-2,5-2.86,3.19-1.56,6.41-3,9.61-4.44.76-.35,1.51-.73,2.27-1.11.41-.2.81-.61,1.22-.62,3.69-.11,7-3.82,10.67-4.08.35,0,.82-1.17,1-2a35.44,35.44,0,0,0,.44-4,2.54,2.54,0,0,0-.12-1.12c-1.92-2-1.06-5.6-1.13-8.35-.21-9.28-.19-18.58-.16-27.87,0-4.54.28-9.07.44-13.6a3.78,3.78,0,0,1,.29-1l.5-.12c.27,2,.66,4,.77,6.06.14,2.34-.28,4.58.58,7,.48,1.36-.08,4-.14,6.12,0,.73,0,1.48.06,2.22l0,1c-1.05,4.32-.47,8.68-.07,13,.23,2.44.81,4.84,0,8.05-.09-1.22-.12-1.69-.16-2.16l-.32.06c.12,1.39.24,2.79.38,4.35l1.12-.87c-.74,1.72-1.23,2.85-1.84,4.28.68,1.8,1.35,3.81,2.17,5.58a1.57,1.57,0,0,0,1.42,1,24.93,24.93,0,0,0,3.67-1.26c-.49-2-2-4.12.39-4.95.19-.07.38-1.11.41-1.72.14-3.18.2-6.37.36-9.55.06-1.06.21-2.81.51-3a1.58,1.58,0,0,1,2,.47,6.71,6.71,0,0,1,.41,3.24c-.34,3.91-.82,7.77-1.25,11.65l.37.24,1.26-4.09.29.3c-.21.81-.43,1.62-.64,2.44l.31.57c.25-1,.49-2,.73-3,.08.31.17.62.25.93l1.23,3.27c-.06.3-.27,1.31-.57,2.81l4.4.84c-1.52-5,.13-8.85,1.1-12.89,1.56-6.51,4.53-9.83,7.87-12.24.79-.57,1.21-1.12.86-3.07-.42-2.33.54-2.84,1.66-3,0,.77.08,1.52.11,2.27l-.3.12-.3-1.55h-.27v3c3.81.79,7.45,0,10.73,4.66a20.77,20.77,0,0,1,3.81,10.13c.33,2.7,1.23.74,1.84.7s1.05-1,1.55-.87c1.48.26,1.87,2.26,1,4.67a10.75,10.75,0,0,0-.25,1.68,25.13,25.13,0,0,1,3-1.15c2.3-.58,4.61-1.52,6.89-1.33,1.09.08,2.34,2.05,3.14,3.79s.57,4.23-.14,6.3c-.35,1-.64,2.09-.94,3-.15-3.11-.28-5.85-.42-8.63-4.23-2-8,.1-11.59,3.47-.1.1-1.07,4.38-1.15,4.64-.35,1.21-.73,2.37-1.24,4,.76.19,1.35.35,1.94.46s1.12.16,1.66.24v-4.48c1.46.2,2.35.66,2.74,3.6.26,2,1.28,3.58,2.13,5.79-1.65.34-2.7,1.83-2.92,4.49s0,5.22-.15,7.82c-.07,1.65-.37,3.26-.48,4.92-.4,5.79-.76,11.58-1.14,17.38,0,.55-.14,1.08-.3,2.28-.68-5.16,1-10.22-1.36-14.44-.36.86-.84,2-1.31,3.12-.05-1.44.12-3.41-.2-3.79-.52-.58-1.37-.15-2.08,0a3.76,3.76,0,0,0-1.21.56c-3.41,2.1-3.51,2.64-2.75,9.16.2,1.63-.24,3.5-.2,5.25s.31,3.28.47,4.81l-.55-.24a18.79,18.79,0,0,1,.62,3.4,28,28,0,0,1-.58,3.85c2.73.93,5.29,5.48,8.29,1.42.13-4,.27-8.28.41-12.59l.58.06c-.82,4,1.24,8.1-.34,11.59,2.23,4.58,4.84.17,7.19,2.54.11-2.31.2-3.95.28-5.59l.34,0V276l.39.14c.14-.64.29-1.27.6-2.63.22,5.41,1.81,4.5,3.41,3.48-.38,4-1.3,5.24-3.14,4.45a1.1,1.1,0,0,1-.48-.68c-.79-3.19-2.05-3-3.48-1.87a.64.64,0,0,1-.77.07c-.7-.56-.66-.44-1.28,0-.78.55-1.9.31-2.35,1.28a10.56,10.56,0,0,0-.21,4.5c.27,2,.88,3.9,1.32,5.86.19.82.33,1.68.46,2.37,2.35,0,4.69.32,7-.08,3.62-.63,7.2-1.89,10.82-2.56.92-.18,1.91.85,3.15,1.46-.27,1.07-.52,2.1-.77,3.12l-.41-.37c.11-.42.22-.83.42-1.56-2.15.46-4.12,1-6.11,1.29-3.31.54-6.62,1.05-9.93,1.38a2.25,2.25,0,0,0-2.3,1.44c-.67,1.25-1.9,1.4-3.09,2.16.15-3.9-1.11-3.94-2.44-4s-2.81-.37-4.21-.38c-1,0-2.11-.06-2.12,3.4-2.6-5-5.54-3.63-8.56-3.14.71,2.25,1.32,4.18,2.07,6.58-.62-.17-1.4,0-1.81-.6-1-1.52-1.69-3.53-2.6-5.18-.34-.62-.9-1.18-1.35-1.15-5.65.36-11.3.92-16.95,1.26-3.7.21-7.4.15-11.1.22-3.14.05-6.29.17-9.43.13-4.2-.05-8.4-.33-12.6-.28-2,0-3.91.68-5.87.88-3,.31-6,.43-9,.69-1.14.09-2.27.43-3.41.51-1.5.12-3,0-4.5.14s-2.83.32-4.25.42c-.28,0-.57-.27-.86-.42l.09-.74,16.27-1.71c4.67-.49,9.33-1.14,14-1.43,4.33-.27,8.67-.23,13-.2,4.12,0,8.25.36,12.37.29,3.31-.06,6.6-.56,9.9-.82,4-.3,8-.61,11.94-.8.9,0,1.43-.3,1.36-2.26-.12-3.46-.17-6.93-.35-10.38,0-.6-.56-1.1-.83-1.59.13-.15.42-.45.7-.75l0-.54H239c0-.26-.09-.51-.14-.77,1.48-.9,3.55-.13,4.07-5.07-.5.8-.68,1.1-1,1.57-.09-3-.5-6.06-.19-8.84a16.4,16.4,0,0,0-1.28-8.49c-.66-1.64-.27-1.89.36-2.57.85-.91,1.8-1.87.74-4.29-1.16,1.49-2.32,3-3.5,4.46-.12.16-.28.34-.42.35-3.79.24-7.57.44-11.36.7a9.13,9.13,0,0,0-1.87.54c.37,2.58.69,4.78,1.05,7.27l-2.08,1.94c-.51-2.72-1-5.19-1.44-7.67-.42-2.18-1.44-3.15-2.4-1.68a43.6,43.6,0,0,0-2.58,6h1.44l.08.37-1.21.87c.32,1.81.66,3.81,1,6-.45.38-.89,1-1.37,1.11-.77.22-2.07.67-2.25.07a19.66,19.66,0,0,1-.61-5.68c.08-2.73.5-5.43.86-9-2.79.75-5,1.37-7.26,1.95-1.91.49-3.83,1-5.75,1.35-3.13.59-6.27,1-9.4,1.59-2.93.53-5.87,1.11-8.79,1.86-.4.11-.92,1.23-1.05,2.08-.24,1.49-.13,3.05,1,3.33.52.13,1,.18,1.67.3l-.46,1.66a1.55,1.55,0,0,0,.47.18c1.07.11,2.14.16,3.21.33.58.1,1-.59,1.36-.9,1.2-.9,2.62-.77,4-1a7.12,7.12,0,0,1,1.1.16c1.38,0,2.76,0,4.15,0l0,1-2.93.83c.87.65,1.5,1.12,2.12,1.6l-.06.56H184.27c.33,4.94.34,4.91,2.73,5.2.79.09,1.57.47,2.35.48a9.58,9.58,0,0,0,2.29-.62c-.31,1.76-.65,3.64-1,5.82l2.6.44c-2.18,2.63-4.05-.13-5.9.63,0-.25,0-.49,0-.74a4.46,4.46,0,0,0,1.55-.53,6,6,0,0,0,1-1.48c-.32-.39-.71-1.23-.94-1.1-1.47.84-3.15-1.43-4.53,1.21-.18.35-1-.58-1.52-.74-.77-.24-1.73-1.49-2,.37l-6.18.52c0,.29,0,.57,0,.85l4.94,1.26-.08,1.06c-.94-.24-1.88-.52-2.82-.71-.68-.13-1.45-.5-2-.05-.35.28-.26,2.25-.64,2.85-.58.91-1.38,1.73-2.1,1.76s-1.44-1-2.16-1.51c.05-1.92.1-3.87.16-6.25-3.66,0-7.13,0-10.6-.05-.46,0-.91-.58-1.37-.89v.07c.48-.84,1-1.68,1.54-2.69-.06-1.26-.13-2.94-.21-4.66l-4-2.07v.19c.17-.82.34-1.64.48-2.33l3.21-.77-2.7-2.87c.27-2.47.87-3.07,1.8-2.54,1.49.85,1.48-.93,1.3-2.77-.28-3-1.58-4.39-3.06-3.64-.57.28-1.34-.07-1.72.54-1.49,2.37-3.88.82-5.07,4.94-.64,2.22-2.39,1.17-3.66.67a7,7,0,0,1-4.59-4.12c-.21-.47-.74-.42-1.14-.62a3.64,3.64,0,0,1,.18-.92c2.59-1.25,2.44-6.22,3.55-9.46a29.83,29.83,0,0,0,.88-3.5,4.83,4.83,0,0,0,.12-1.85,1.12,1.12,0,0,0-1.14-.46c-1.67.48-3.34,1-5,1.66-2.4.93-4.8,2-7.2,2.93-.74.3-1.21.71-1.06,2.57.08,1.07-.5,2.28-.51,3.44,0,3.6.1,7.21.15,10.48l-1.16,1.81c0,.11.09.21.13.32.25-.3.51-.59.76-.88,0,.94,0,1.89,0,2.83l.05,0L128.55,267c-.25-5.41-.48-10.16-.67-14.91-.07-1.7,0-3.41,0-5.11a11.36,11.36,0,0,0-2.59.67c-.63.3-1.61.83-1.72,1.62a34.67,34.67,0,0,0,.12,5.5c-.5.39-.94,1.22.08,2.66a3.13,3.13,0,0,1,.22,1.15,64,64,0,0,0,.83,7.07,41.66,41.66,0,0,0,2.26,5.86c-1.55,1.77-3.29.61-4.93,1.09-1.22.36-.85-2.46-.89-3.44-.19-4.44,0-8.94-.09-13.41,0-2.07-.16-4.13-.24-6.17-2.66-.28-2.8,0-2.86,4.7a17.73,17.73,0,0,1-.62,2.94c1.47,4.21.33,10.84,2.92,14.6l-1.82,2.89-3.22-2.14c-.5-2.9,1.21-6.63-.28-9.47.81-3.76.11-7.64.15-12.09-1.76.7-3.37,1.3-5,2a2.07,2.07,0,0,0-.56,1.36c-.05,3.25,0,6.51,0,10.19l2.26-.21-1.71,4,3.91.64,0,.74-3.85,1.26c.13.52.32,1.33.64,2.62-2.86-1-1.34,3.71-2.33,5.06l-2-1.08,1-1.22c-1.25-3.45-2.94-2.88-4.69-1.72.12-.8.23-1.61.36-2.47l-1.6-.59a10.73,10.73,0,0,1,4.14-1.48c1-.16,1.29-1,1.17-2.73s-.22-3.76-.3-5.64c-.1-2.47-.18-4.95-.28-7.58-3,1.27-5.9,1.4-8.68,4.39l3.33,2.7c-.64,1.06-1.1,1.76-1.52,2.54a4.56,4.56,0,0,0-.73,1.79c0,1.42.19,2.85.36,5a16.37,16.37,0,0,1-3-1.74c-.42-.36-.64-1.51-1-2.3-.14-2.23-.28-4.46-.46-7.41-1,3.42-1,6-.13,7.85-.43,3.54.19,5.07,2,4.82a31.12,31.12,0,0,1,3.71-.39c.25,0,.51.76.76,1.17l-1.43-.35.65,2.91-1.68-.3,0-.06.06.07-6,2c.14-1,.21-1.53.39-2.89l-3.58,3.93-1.11-2.45-.21.2c.14.61.29,1.22.49,2.06L83,279.81c-.19,1.12-.43,2.49-.74,4.29,1.29.21,2.55.81,3.76.55a34.78,34.78,0,0,1,14-.3c1.63.3,3.33-.93,5-1.23a52.62,52.62,0,0,1,5.74-.57c.18,0,.43.52.53.9a1.71,1.71,0,0,1-.22.95c-.44.5-.92,1.2-1.39,1.23-2.29.15-4.59,0-6.88.17s-4.87.87-7.31,1.07c-2,.16-4.11-.21-6.16,0A24.05,24.05,0,0,0,85.13,288c0,.42.09.85.14,1.27l1.89-1,2.66,1.63,0-.07-2.36,3c-.06-.22-.13-.45-.19-.68.16-.19.33-.37.76-.85l-1.46-1.49-.27.63.68.22-.15.58c-.87,0-1.73,0-2.59,0-.62,0-1.59-1.41-1.62,1.29-.26-.06-.55,0-.75-.2-1.41-1.56-3-.83-3.61,1.67-.62-2.22-2.14-2.56-3.06-.76-.26.5-.64,1-1,1.06-2.22.08-4.45,0-6.67,0-.24,0-.48.57-.62.74l-1.66-2-.23.73.68.33c0,.23,0,.47,0,.71L48,296.41c.15,2.08.26,3.72.42,6-.44-.23-1-.27-1.34-.76-.88-1.11-1.64-2.57-2.53-3.64-.44-.53-1.26-1-1.59-.62-1.73,2.15-3.67-.14-5.43,1.16-.65.48-1.43.35-2.24.51-.07,1-.14,2-.23,3.23-1.59-.74-3.15-1.92-4.74-2.06s-3.12.79-4.49,1.2c.23,2.25.41,4.07.62,6.1,3.52-.36,6.91-.75,10.3-1,1.63-.15,3.26,0,4.88-.18,3.32-.29,6.63-.86,9.95-1,3.66-.13,7.33.3,11,.15,4.82-.19,9.63-.65,14.44-1.11,3.89-.37,7.79-.77,11.67-1.42,4.77-.8,9.51-2,14.28-2.8,5.08-.86,10.18-1.72,15.28-2.09,4.47-.31,9,.13,13.42.11,6.63,0,13.25-.18,19.87-.3,3.61-.07,7.23-.2,10.84-.28.29,0,.58.16.95,1-.47.27-.94.77-1.41.77q-12.16.07-24.33,0c-5.41,0-10.82-.35-16.22,0-5.66.32-11.31,1.16-17,2-4.75.67-9.5,1.63-14.24,2.42s-9.19,1.66-13.79,2.17-9.45.62-14.18,1c-5.17.37-10.34.82-15.51,1.19-1.55.12-3.1,0-4.65.16-4.48.39-9,.77-13.43,1.32-.8.1-1.57,1.06-2.36,1.56-.42.27-1,.85-1.28.55-2.29-2.49-4.66-.48-7-.62-2.84-.17-5.68-.36-8.53-.37a8.4,8.4,0,0,0-2.57.9c-.45.16-1,.69-1.31.38-.74-.72-1.87-.91-1.68-3.45s1.46-2.2,2.05-2c5,1.86,10,1.39,14.94,1.53a18.9,18.9,0,0,0,2.4-.27c-.22-2.05-.4-3.74-.61-5.67l-6.75,1.2-.08-.55,1.29-.88.11-.83a4.25,4.25,0,0,0-1.62-.65,3.48,3.48,0,0,0-1.52.77c-1.81,1.19-2.49.26-2.47-3.34a16.75,16.75,0,0,0-.37-2.06h2.87c2.78,0,5.55,0,8.33-.09.19,0,.53-.44.54-.72.27-4.47.49-8.94.76-14.23-1.77,2.07-3,3.52-4.34,5.05l.72,1.54c-1.65,3.33-3.17,4.22-4.76,2.75-3.8-3.51-2.45-9.49-1.88-15.11-1.71,1.2-2.4,5.06-4.33,5.23l0-.27A9.12,9.12,0,0,1,9.77,278c1.08-1.7,2.45-2.94,3.27-5a29.63,29.63,0,0,1,6-9.56,7.63,7.63,0,0,1,4.7-2.44c2.43-.21,3-.88,3.35-5.4.27-3.59.79-7.12,1.06-10.71.13-1.7-.18-3.5-.09-5.23.06-1.28.44-2.5.49-3.62,0-2.08,0-4.16,0-6.23.11-4.54.27-9.08.41-13.41a16.16,16.16,0,0,1-3.42.26c-.32,0-.8-1.13-.85-1.83a3.61,3.61,0,0,1,.65-2,5.86,5.86,0,0,1,2-1.6c2.47-1.11,2.74-1.74,2.69-6.72,0-2,0-4.1,1.68-3.24.07-2.49-.24-5.51,1.89-4.48L32,199.25a28.16,28.16,0,0,1,2.29,3.32c1.27,2.42,1.53-1.48,2.71-.76-1.09-1.75-1.37-7.12-.79-10C34.26,190.61,33.47,192.13,33.63,196.82Zm201,29.29c.93-3.06,1.85-6.12,2.89-9.57-2.22-.61-4.22-1.26-6.23-1.67-1.65-.34-3.38-.75-4.42,2.72-.26-1-.48-1.72-.67-2.42-.5,2.31-.91,4.43-1.41,6.46-.25,1-.93,1.84-1,2.81-.08,2.46.11,4.94.19,7.39,1.67.54,2.84,0,3.74-2.81,1.11-3.5,2.6-6.25,5.08-4.38.62.46,1.23.93,1.84,1.4-1,.64-2.06,1.24-2.07,4a2.89,2.89,0,0,1-.83,1.7c-.83.73-1.34,1.47-1.09,3.53a4.44,4.44,0,0,1-.72,2.71,2.16,2.16,0,0,0-1.17,2.71c.34,1.3,1.19,2.64,1.93,2.9a3.69,3.69,0,0,0,3.23-.46c2.65-1.7,5.23-3.73,7.81-5.74a3.09,3.09,0,0,0,.75-1.79c.23-3.34.36-6.69.52-10.11-3.05.92-4.92,3.94-5.08,8.53a14.32,14.32,0,0,1-2-3,8.45,8.45,0,0,1-.48-3.77,15.56,15.56,0,0,1,1.49-3.64l-.24-.29Zm-177.2-11a6.57,6.57,0,0,0,0-1.48c-.92-2.91.13-4.38,1.15-5.9.21-.32.39-.7.6-1.07-1.34-1.73-1.88.14-2.52,1.55-.58,1.26-1.14,2.57-1.77,3.73-.92,1.68-1.18,6.54-.59,7.63l3.18-4.56a26.47,26.47,0,0,1-.49,3c-1,3.37-2,6.68-3,10a3.66,3.66,0,0,0,2.29-.9c2.78-1.86,5.15,1.87,4.7,7.38a13.39,13.39,0,0,0-.17,2.78,16.76,16.76,0,0,0,1,3,11.35,11.35,0,0,0,.91-2.54,48.84,48.84,0,0,0,.3-5.17c.14-7,.23-13.94.38-20.91.08-3.78.23-7.57.36-11.35l-.53-.5c-.74,1.55-1.58,3-2.21,4.69C59.83,208,58.66,211.6,57.45,215.15ZM32.93,244.89l1.1-2.68.24.15c-.26,1.35-.52,2.7-.83,4.27.21.35.55.87.92,1.45a4.4,4.4,0,0,0-.44,5,7.44,7.44,0,0,1,.11,7.24,12.4,12.4,0,0,0,1,1.36c.32.31.72.71,1,.58a2.82,2.82,0,0,0,.44-1.61c0-4,0-8-.12-12.05-.17-4.65-.49-9.28-.75-13.91l.37-.15c.16.54.31,1.08.47,1.61l.45-.37c-.24-1.14-.56-2.25-.69-3.43s-.11-2.68-.16-4c-.1-2.06-.38-4.17-.41-6.3,0-1.1-.61-3,.66-3.32a7.23,7.23,0,0,0-.21-1.4c-.15-.4-.63-.68-.61-.92.13-1.65.34-3.27.53-4.9.31,1.25.61,2.52.95,3.74.17.61.68,1.38.6,1.66-.36,1.32-.92,2.45-1.28,3.77a5.07,5.07,0,0,0,.36,1.82c.05.17.23.22.47.43-.34.35-.56.57-.64.64a16.47,16.47,0,0,1,.61,2.86c.17,4.28.2,8.59.4,12.86.08,1.65.54,3.22.72,4.87.23,2.07.34,4.18.49,6.27l.41,0c.13-3.83.26-7.67.4-11.55H41c.42,2.69.82,5.32,1.23,7.94l-.5.59c0-.57-.07-1.13-.11-1.69.11,3.2.36,5.91.63,8.61.13,1.26.14,3.39.48,3.6a3.32,3.32,0,0,0,3.18.53c1.28-.66,2.25-.32,2.73,2.05.24,1.19.54,2.34.82,3.51a4.52,4.52,0,0,0,.62-2.26c0-4.36,0-8.72.12-13.07.15-6.75.45-13.49.52-20.24,0-4.87,1.27-10.18-.89-13.64.54-2.87,1.47-5.38,1.32-7.64s-1.36-4.33-2.13-6.54c3.5-7.38,2.55-5,3.44-21.51a61.4,61.4,0,0,0-6.59,4.34,7.62,7.62,0,0,0-2.7,4.36c-.67,5.59-.85,11.4-1.21,17.12-.19,2.9-.35,5.8-.53,8.7-.45-.84-.4-2.07-.63-2.31-1.71-1.83-.76-4.61-.65-6.88a37.88,37.88,0,0,1,.95-5.49,5.35,5.35,0,0,1-.48-1.42c.1-3,.3-5.91.36-8.87a7.1,7.1,0,0,0-.63-2.05c-.76,1.07-2.06,2-2.19,3.27-.45,4.44-.52,9-.65,13.58a3.1,3.1,0,0,0,.66,1.9c1.39,1,.89,2.42.27,3.84a28.52,28.52,0,0,1-1.56,3.18c-.09.16-.58-.53-.88-.82-1.91-.84-3.24.94-3.28,4.61-.05,5.33,0,10.66,0,15.63l-1.67.69,1-2.57c-.38-1.91-.85-4.28-1.41-7.06-.2,3.4-.4,6.37-.54,9.35s-.2,6.06-.35,9.09c-.18,3.56-.47,7.11-.6,10.68-.21,5.26-.17,5.27,2.49,6,.09,0,.2-.09.09,0,.92-2.13-.74-5,.61-6.84a10,10,0,0,1-.21-2.19c.18-1.39.54-2.7.82-4ZM73.64,280.2c.71-1.25,1.41-2.51,2.26-4a5.22,5.22,0,0,1,.55-4.45,29.45,29.45,0,0,0,2.31-6.6,11.11,11.11,0,0,0-.25-3,13.43,13.43,0,0,0-3.66,1.51,54.5,54.5,0,0,0-4.67,4.5c-.09-.32-.17-.64-.26-1l3.46-3.2,0-.54-8.28,1.42c.35,3.68.66,7,1.07,11.25l-4.85-.44v-9.87l-5.15,1.65c-.89.29-1.53.91-1.65,2.93a4.29,4.29,0,0,1-.81,2.44c-2.33,1.25-3,5.18-4.35,9,1.86-.76,3.39-1,4.75-2s2.94-2,4.37-1.22l-1.79,1.79a9.31,9.31,0,0,0,4.3-.08,79.15,79.15,0,0,0,8.67-1.63c1.46-.42,2.73-.58,3.91,1.28-1,.75-1.88,1.92-2.87,2.18-2.36.63-4.76.78-7.14,1.19-2.06.36-4.12.91-6.19,1.19-1.64.23-3.34,0-4.34,2.74l26.67-3c-1.07-1.28-1.13-4-2.77-3.38C75.86,281.22,74.72,280.45,73.64,280.2Zm86.68-156.6c-.11-.33.12.08.15.53.23,3.63.55,7.27.58,10.91.09,9.69,0,19.39.09,29.08.16,11,.54,22,.76,33.07.12,6.22.08,12.46.19,18.68,0,1.72.33,3.42.5,5,2.86-1,5.52-2,8.19-2.81,3.4-1.06,6.81-2,10.2-3a2.22,2.22,0,0,0,.83-1.57c-.11-3.44-.3-6.86-.54-10.27-.12-1.64-.52-3.22-.58-4.85q-.67-17.88-1.26-35.76c-.26-7.22-.48-14.44-.79-21.65-.17-4.08-.66-8.13-.67-12.2,0-3.8.62-7.57-.11-11.38a22,22,0,0,1-.35-4.33c.06-6.35.25-12.7.3-19,.06-6.87,0-13.74,0-20.6l-.56-.3-9.18,14.66c.07.2.13.4.2.6l2-1.7-2.41,6-.6.27c1.27,1,1.58,8,.53,10.86,1,2.38,1,2.57-.78,4.43-.1-3.61-.26-7-.25-10.47,0-2.16.32-4.37-1.25-4.13l1-3.26-.43-.49c-.14,2.69-2.54,1.89-2.18,5.38,0,.08-.15.28-.24.32-1.62.68-2.46,4-2.74,5.76-.63,4.1-.31,8.74-.39,13.16C160.45,117.39,160.39,120.23,160.32,123.6Zm21.6,133c8.56.15,16.78-4.74,25.21-4a4,4,0,0,1,2.34-.75,7.94,7.94,0,0,1,2.23,1c-.25-1.11-.32-1.43-.46-2.07a19.29,19.29,0,0,0,2.06.72c.4.09,1.11.23,1.18-.06.7-3.27,2.11-1.4,3.13-1.42,1.53,0,3.37-2.54,3.33-5.44,0-2.07-.21-4.14-.35-6.68a20.6,20.6,0,0,0-2.88.63,5.43,5.43,0,0,0-1.83,1.22c-1.15,1.1-1.5-1.58-2.19-1.65a33,33,0,0,0-6,.44c-.13-1-.31-2.44-.53-4.13a34.56,34.56,0,0,0,4.44,0c1.58-.21,2.43-2,2.24-4.87-.26-3.74-.7-7.43-1.11-11.62-3.63,1.59-7.32,3.08-11,4.83-5.56,2.67-11.09,5.51-16.64,8.29-2.2,1.1-3.29,4-3.75,8.08,3.09,2.65,4.21,2.87,5.73.94l-2.33-.53c.26-.65.53-.82.8-.91a60.93,60.93,0,0,1,7-2.12c.92-.18,2,.48,2.84,1.17.24.19.17,1.86.23,2.78-.84.31-1.45.49-2,.75-1.33.59-2.54.29-3.7-1.26-.43-.57-1.06-.56-1.6-.82,1,2.81.43,3.58-.87,3.73-1.74.21-3.48.49-5.53.78Zm61.66-52c1.9-4.76,3.52-8.88,5.2-12.91.27-.65.93-1.39,1.24-1.18a4.92,4.92,0,0,1,1.44,2.32,7.24,7.24,0,0,1-.93,2.28c-.27.52-.71.75-.93,1.31-1.8,4.59-3.62,9.18-5.33,13.9-.38,1.06-1.72,2.32-.31,4.06l-.71,1.07c.78,0,1.29.3,1.57,0,1.5-1.86,2.74-.59,3.94,1,.68.9,1.12.73,1.59-.5a7.64,7.64,0,0,1,.89-1.48l.15.24-.81,2.62.27.33,1.45-3.51-1.07-1.07,3.62-5.16c-.81-2.63-1.92-4.24-.66-6.45a7.71,7.71,0,0,0,.11-3.11c-.31-3.16-1.12-5.62-2.74-7.12-3.13-2.87-6.2-5.57-9.53-1-.11.16-.28.3-.41.27-2.14-.46-3.61,2.24-5.13,4.27-2.68,3.58-3.19,9.41-3.69,15.05-.13,1.44,0,2.87,1.25,2.87a10.83,10.83,0,0,1,3.9,1c1.44.57,2.58-.37,3.11-2.72.36-1.62,1.28-3,.72-5.48-.36-1.61.26-3.43,1.49-4C243.35,202.22,243.42,202.92,243.58,204.6Zm-137.21,45c-.42-21.72-.84-43.15-1.27-64.78-.31.73-.52,1.29-.76,1.79-1.62,3.31-1.9,7.17-.92,11.5a10.49,10.49,0,0,1,.27,3.42c-.62,4.1-1.39,8.13-2.12,12.28a.59.59,0,0,1-.35,0c-1.85-1.05-2.12-.62-1.79,3,.26,2.85,1.09,6,.7,8.49-.76,4.78,1,8.69.63,13.35-.3,3.39.4,7.08.6,10.65a11.69,11.69,0,0,1-.29,2.08ZM88.7,232.38c-2.26,2.11-4.54,2.37-6.76,3.21a68.71,68.71,0,0,0-10.83,5.64,57.16,57.16,0,0,0-6.29,4.92,2.64,2.64,0,0,0-.29,1.31c0,1.75,0,3.52,0,6.1l14-8.47c-.33-3.05.4-4.38,1.93-3.52.71.4,1.39,1.16,2.1,1.3,1.76.33,2.58,2,2.52,5.13-1.09,2.51-4.39.62-3.5,6.69a59.4,59.4,0,0,0,5.83-2.42,3.85,3.85,0,0,0,1.14-2.52c.21-4.15.26-8.34.32-12.51C88.9,235.78,88.78,234.31,88.7,232.38Zm91.06-11.58c0-.43-.09-.87-.13-1.3a5.86,5.86,0,0,0-1.62,0c-1.45.41-2.89.93-4.33,1.41-2.39.81-4.79,1.57-7.17,2.48a2.31,2.31,0,0,0-1,1.45c.3,2.72-.95,2.17-1.57,3a5.48,5.48,0,0,0-1.3,2.68c-.13,3.23-.07,6.52.07,9.77.1,2.32.8,3.46,2.16,3.15a79.53,79.53,0,0,1,8.81-1.6c1-.11,2.08.86,3.13.94.65,0,1.71-.3,1.9-1.08a70.22,70.22,0,0,0,.93-7.23c-1.63.62-2.75,1-3.85,1.49-1.54.66-3.08,1.3-4.59,2.1-.41.21-.74,1-1.08,1.46l-.36-.84c-.13.8-.22,1.36-.26,1.59-.42-.34-.78-.91-1.11-.85-1.16.22-1.58-1.39-2-2.82-.33-1.2-.58-2.53.76-2.65a38.61,38.61,0,0,0,6.21-1.42c.1,0,.17-.44.26-.66-1.23-2.25-1.22-3.68-.17-4.67C175.59,225.21,177.66,223,179.76,220.8ZM156.31,141l.11.16c0,1.75.09,3.51.14,5.18.25,1.07.89,2.69.71,3.16-1.24,3.18.28,6.6-.36,9.79a7.86,7.86,0,0,0,.59,2.3,12.56,12.56,0,0,1,.29,1.41c.17,1.22.32,2.46.47,3.69,0,.16,0,.33.05.5L157.1,165c.05,1.05.1,2.11.16,3.55.93,0,1.53-.24,1.18,2.13a36.49,36.49,0,0,0,0,6.7c.09,2,.5,4,.53,6,0,4.38-.49,9,0,13.11.45,3.67-.87,7.24.26,10.62-1,2.4-.17,4.46.33,6.6a3.83,3.83,0,0,1,0,1.47c-.6,3.07-.6,3.49.49,6.39,0-9.2.09-17.87,0-26.53-.09-7.46-.54-14.91-.59-22.37-.08-10.6.17-21.2.06-31.8-.08-8.69-.5-17.36-.73-26.05-.06-2-.06-4,0-6,.19-4.22.84-8.56-1.18-12-.88,1.24-1.46,5.6-1.2,7.51a46.33,46.33,0,0,1,.36,6.16c0,3.89-.25,7.81-.13,11.68.09,3.15.47,6.19-.4,9.21a6.26,6.26,0,0,0-.08,2.93c.78,1.29.67,2.18.15,3.64A11.92,11.92,0,0,0,156.31,141Zm-4.16,93.73c-.19,2.34-.31,3.88-.48,5.95-.39-1.19-.58-1.84-.81-2.46-.69-1.93-.71-2-1.46,0a67.92,67.92,0,0,0-2.35,6.49c-.8,2.9-1.37,6-2.06,9.16,2.85,1.35,12.33-1.25,14.06-3.8-.7.21-1.14.38-1.6.49-.91.22-2.26-2.55-2-4.86a2.66,2.66,0,0,1,1.76-2c2-.15,2,0,1.92-4a12.19,12.19,0,0,1,.27-1.67c.3,1.76.49,2.83.68,3.9l.5-.41c-.26-1-.43-2.79-.8-3-1-.44-1-1.42-1-2.84a36.69,36.69,0,0,0-.3-4.72c-.09-.65-.68-1.63-.91-1.52a11.23,11.23,0,0,0-4.09,2.76c-.52.62-.4,3.19-.51,4.88a9.41,9.41,0,0,0,.18,1.73l-.51.24C152.5,237.89,152.37,236.77,152.15,234.72Zm18.73,22.49c.2.25.74,1.46,1.25,1.41,2.52-.23,5-.79,7.66-1.26-.19-4-.36-7.86-.57-12.54-1.75.47-3.42,1-5.1,1.36a45.6,45.6,0,0,0-6.24,1.4c-1.3.5-2.51,1.89-3.53,2.7.18,4.92-2.33,6.6-2.75,10.4,2.77,1.85,5.14-1.12,7.71-1.26.08-1.87.15-3.6.23-5.46l.86,1.27c.11-.82.17-1.35.23-1.88l.42.13C171,254.54,171,255.59,170.88,257.21Zm80.52,13.6a20.6,20.6,0,0,0,.23-2.06c0-2.51.46-6.26-.2-7.27-1.5-2.28-.53-4.72-.81-7-.15-1.2-.17-2.46-.25-3.79-3.08,1.62-5.7,3.75-6.44,10.28a13.39,13.39,0,0,1,.11,3.24c-.74,2.7-.46,5.43-.43,8.18,0,2.21.21,2.53,1.25,2.19.09,0,.23-.07.27,0,.82,2.14,1.82.82,2.77.52l2.55-.8c.12-1.6.24-3.22.38-5.16ZM52.86,236c.17,1.9.37,3.31.42,4.74s-.15,3-.09,4.51c.14,3.78.36,7.54.53,11.31.13,2.83,1.31,5.61,2.76,6.31.14.07.32-.23.08,0a24.84,24.84,0,0,1-.69-5.07c.07-.86,1.12-1.44,1.88-2.33.06-1.35.13-3.18.23-5.49l.72,2.21a104.86,104.86,0,0,0,.7-11.26,5.38,5.38,0,0,0-.69-1.69v-7.33Zm200,44.23c0,1.75-.05,2.64,0,3.5a50,50,0,0,1,.53,6.38c-.11,2.15.36,2.72,1.2,2.76,2.08.11,4.16,0,6.23,0-.34-3.65-.67-7.23-1-10.65l.85-.76c-.4-1.53-.7-2.68-1.17-4.46-1.58,0-3.39-.06-5.2.06-.31,0-.67.7-.89,1.24A16.67,16.67,0,0,0,252.87,280.19ZM260,223.55c.47,2.88.08,4.85-1.26,6.25a14.5,14.5,0,0,0-1.82,2.67c-.78,1.32-1.47,2.87-2.3,4.06-1.41,2-1.7,3.91-.91,7.37,2.44-.91,4.95-3.58,7.08,1.23.53-3.06,1-5.71,1.34-7.63-.08-4.1-.2-7.66-.21-11.23C261.9,223,261.83,222.84,260,223.55ZM94.34,226.89c-.4-4.09.35-8.18,0-12.37-.08-.88.68-2.54.53-2.83-1.51-2.8-.5-6.31-.86-9.39-.33-2.85,0-5.35.7-6.61-.25-2.66-.52-4.62-.58-6.6-.08-2.23.19-4.6-1.29-5.86-.18,1.77-.43,3.34-.48,4.94q-.6,17-1.12,34a4.14,4.14,0,0,0,.39,2A32.21,32.21,0,0,0,94.34,226.89Zm154,50.9c-1.16-.1-2.42-.79-3.44-.14s-1.28,5.1-.76,7.58a13,13,0,0,1,.06,3.94c-.22,1.9-.18,3.27,1,3.33,1.78.07,3.56,0,5.33,0a13.75,13.75,0,0,0,.41-2.55c-.07-2.62-.54-5.34-.29-7.82.46-4.59-.22-5.85-2.46-4.88C248.27,277.68,248.36,278.09,248.3,277.79ZM82.34,260v11.71L86.42,273,85,274.49l.08.48,5-1.53-.06-1.16H86.18l2-2.32-.39-.12c.29-4,.57-8,.9-12.5Zm138.45-27.21c0-3.69-.22-7.1,0-10.38.58-7.38-.14-5.68-3.05-5.78a1.23,1.23,0,0,0-.78.19,1.75,1.75,0,0,0-.71.91c-.34,1.21-.6,2.51-.88,3.77,1.22.61,1.62,2.53,1.24,6.13-.28,2.63.73,5.09,2.13,5.15C219.36,232.78,219.93,232.76,220.79,232.76ZM137.39,99.18l7.22-15.05L141,82.48c-1-.43-1.68-.23-2.16,1.81-1,4.36-2.2,8.62-3.27,12.76ZM91.6,240l-.19.18c-.14,1.86-.27,3.72-.4,5.58l.25.06.28-1.86c-.39,4.66,1.31,4.81,3,5V228.94c-1.21,1.25-2.33,2.43-3.39,3.52V241l.24,0Zm154.67-5.62c-.22.59-.39,1-.6,1.57a9.83,9.83,0,0,0,2.45-.45c.41-.18.74-1,1.14-1.38,1.76-1.85.86-5.65,1.66-8.24a18.08,18.08,0,0,0,.21-3.65C250,223.7,249,225,248,226.3l-.38-.86c.27-.63.55-1.24.8-1.9s.53-1.55,1.06-3.08c-1.17.08-2.15-.35-2.76.35s-.51,2.53-.74,3.87l.43.27-1,.7,1.45.92C245.35,229.92,245.2,232.51,246.27,234.38Zm-18.85,15.84c.25-1.5,2.09-1.77,4.39-.36l-1.06.56c2.74,2.67,3.91-.68,5.14-4.46a11.3,11.3,0,0,1-1.54,1.26,6,6,0,0,1-1.62.47,11,11,0,0,0-2.47.42c-1.32.55-1.33-1.37-1.78-2.79-.64-2-1.53-3.77-2.31-5.64l-.42-1c-2.87,1.29-1.11,6.54-2.36,9.2ZM172.8,271.06c-.17.92-.26,1.38-.34,1.85-.68,3.6-.58,4.19,1.5,4.5a30.54,30.54,0,0,0,6.34-.05c.27,0,.77-1,.74-1.42-.11-1.27-.35-3.48-.66-3.56A71.59,71.59,0,0,0,172.8,271.06ZM26.11,286.14c-.15,1.47-.35,3.62-.6,5.74-.31,2.71.41,3.7,1.67,3.57s2.29-.62,3.43-.72c1.49-.13,1.21-2.23,1.22-3.84,0-2.08-.31-3.91-1.66-4.12ZM162,271.52c-.21,1.87-.42,3.74-.73,6.41h8.75a25.12,25.12,0,0,1-.47-3.34c.06-2.25-.45-3.13-1.61-3.09C166,271.57,164,271.52,162,271.52ZM104.11,163.37a13.7,13.7,0,0,0,1-7.61c-.15-.83-.83-2-1.18-1.89-2.15.64-4,2.7-6,5.83Zm76.5,103.33c0-1.76.21-4.4-1.18-4.5-2.21-.15-4.43.54-6.64.82-1.07.14-1.47,1.13-1.25,3.68ZM214.37,29.3a27.47,27.47,0,0,0,8.2-11.2c-3.8-2-4-1.69-5.72,3.58C216.06,24.07,215.29,26.49,214.37,29.3ZM65.47,258.38c5.24,2.05,9.25-3,13.17-8.59ZM140.88,104c.52-1.19.89-2,1.22-2.82a20.51,20.51,0,0,1,1.25-3.27c1.07-1.63,2.49-2.6,3.33-4.52,1-2.19,1.45-5.13,2.16-7.81C146.59,86.13,140.46,99.87,140.88,104ZM97.79,228l-.23.06c-.2,1.89-.84,4.1-.53,5.61,1.09,5.23.65,10.63.83,15.94.09,2.43.57,2.58,1.69,2.07C99,243.68,98.37,235.84,97.79,228ZM36.45,286.62c-.47.68-1.08,1.43-1.6,2.35-.65,1.12-.43,4.38.31,4.45a22.28,22.28,0,0,0,4.47-.42C38.34,290.4,37.39,288.49,36.45,286.62ZM61.33,182.33c-2.86-1.22-5,2-5.65,9.16ZM17.43,281.9c.8-2.93,1.62-6,2.5-9.18-2-.82-2.55-.08-3.47,4.59C16.14,278.9,15.64,281,17.43,281.9Zm145.28-15.61c1.39.95,2.44,2.14,3.53,2.26.85.09,1.76-1.08,2.62-1.77a4.26,4.26,0,0,0,.63-1.07c-.27-.32-.52-.84-.81-.93a2.72,2.72,0,0,0-1.64-.1C165.7,265.09,164.37,265.66,162.71,266.29ZM247,242.37c-.93,1.4-1.87,2.13-2.1,3.35a22.3,22.3,0,0,0,.24,4.82l4.18-7.08-.48-1.06-2,2.38C246.93,244,247,243.58,247,242.37ZM27,278.32l-.46.61c.46,1,.93,2.95,1.4,2.95,1.26,0,2.88,1.61,3.74-1.38.4-1.37,1.07-3.17.25-5.16C29.58,281.51,29.58,281.51,27,278.32Zm34-32.85c-.13,3.86-.24,7.13-.37,11.06C62.46,254,62.63,247.81,61,245.47ZM46.26,282.1c1.08-1,2.17-1.38,2.47-2.5s-.07-3.19-.16-4.9C46.56,275.43,46.54,278.36,46.26,282.1Zm51.49-87.31.36.32c.45-1.2.92-2.35,1.33-3.59a17.56,17.56,0,0,0,.75-2.94,20,20,0,0,0,0-2.8,7.83,7.83,0,0,0-1.35,2.09,29.27,29.27,0,0,0-.3,3.16C98.36,192.32,98,193.54,97.75,194.79ZM135,106.66c1.71.42,3.92-4.44,4.28-9.16Zm104.61,117c1.48,2.64,2.3-.55,3.38-1.09a7.21,7.21,0,0,0,.31-1.8l-.91,1.11-.9-3.17C240.84,220.42,240.27,221.93,239.63,223.62ZM22.87,266.32V273c1-2.95,1.81-5.24,2.76-8Zm81.21-91.17c.12,1.9.22,3.39.31,4.88a8.4,8.4,0,0,0,.22,2.36c.21.4.79.09.88.09-.12-2.71-.24-5.25-.38-8.15Zm151.43,37.42a10.54,10.54,0,0,0-1.54,2.15,9,9,0,0,0-.36,2.67c0,.19.5.67.75.63C255.23,217.89,256,214.07,255.51,212.57Zm-75.57,12.06L176.4,229C179.82,228.77,179.82,228.77,179.94,224.63ZM54.37,290.45l.06.95,6.39-1.26c0-.27,0-.54,0-.81ZM29.73,267l.62.08c.21-1.36.49-2.71.57-4.09,0-.49-.43-1.09-.66-1.64-.25.49-.7,1-.72,1.48C29.5,264.18,29.65,265.58,29.73,267Zm14.52,25.46c-.17-2.4-.32-4.52-.52-7.45C42.39,289.38,42.6,292.12,44.25,292.43ZM19.33,280.62l2-2.19c-.13-1.68-.23-3.08-.39-5.09C20.43,275.75,20,277.79,19.33,280.62Zm81-78.13c-1.9,2.11-2,2.83-1.21,6.7C99.51,206.9,99.87,204.9,100.31,202.49Z"/><path class="cls-1" d="M238.26,81.93c.91.35,1.16-1.07,1.24-3.13.2-5.19.49-10.35.78-16l-2.57,3-2.45-3.43c1.3-1.62,2.62-3.18,3.88-4.87a4.69,4.69,0,0,0,1-2.26c.19-4.24.3-8.5.3-12.76a27.39,27.39,0,0,0-.68-3.67,6,6,0,0,1,.07-1.83,49.3,49.3,0,0,0,1.08-5.67c.15-2.37.87-3.19,1.85-3.07s2.16.22,1.88,3.28a16.45,16.45,0,0,0,.4,2,4.89,4.89,0,0,1-.13,2c-2.26,2.14-1.87,6.28-2.13,9.91-.05.67.1,1.41,0,2.08-.35,3.42-1,7,1.73,8.93-3.69,4.85-2.31,12.09-3.14,18.16l3.32,2.08c-.08,2.93-1,3.63-2,4.15-1.23.64-1.78,2.2-1.8,4.58-.08,6.55-.2,13.09-.26,19.64a10.17,10.17,0,0,0,.36,2.09,8.08,8.08,0,0,1,0,4.76c-.49,1.46-.28,3.8-.3,5.75,0,3.9,0,7.8,0,12.32-1.95-4.24-1.6-9.21-2-14.52l-2.31,2.75c.08-.7.14-1.19.21-1.75l-2,1.89c-.18-1.3-.34-2.5-.54-4,.54-.18.66-3.84,1.91-.95.3-.51.92-1.27.87-1.49-.48-2.09.54-2.47,1-3.57a11.6,11.6,0,0,0,.93-3.77q.24-9,.2-18.11A28.51,28.51,0,0,0,238.26,81.93Z"/><path class="cls-1" d="M9.19,279.88l0,.27c-1.28,3.25-3.62,4.67-4.27,9l-1,.93c-.52.46-1.23,1.54-1.51,1.23a14.94,14.94,0,0,1-2.31-3.85,5.53,5.53,0,0,1,.14-2.74c.85-2.52,1.87-4.83,2.73-7.35a8.32,8.32,0,0,0-.07-2.46c-.48-6.26-1-12.51-1.44-18.78a191.1,191.1,0,0,1-.54-24.19c.34-6.21.41-12.48.6-18.72a19,19,0,0,1,.16-3,9.66,9.66,0,0,1,.94-2.15c.16,1,.39,2,.45,3.06a5,5,0,0,1-.56,1.56l1.18,1.38-1.65,1.41c2.23,2.6,1.32,6.79,1.24,10.4-.21,10.65.27,21.22.9,31.76.25,4.18,1.1,8.24,1.66,12.36a7.74,7.74,0,0,1-.09,1.41c.93-1.66,1.9-3.22,2.77-5,1.19-2.38,2.31-.92,3.8.12-.48,1.08-.82,2-1.22,2.68-1.13,2-2.36,3.82-3.4,6a15.6,15.6,0,0,0-.51,3.62l.58-.6Z"/><path class="cls-1" d="M136.08,199.36c-.27-.34-.79-.67-.79-1-.11-9-.17-18-.23-27.05-.05-8.7-.07-17.4-.16-26.1,0-3.44.16-7.13-.41-10.28-.94-5.16.61-9.85-.09-14.79l.61-.18c.25,1.65.46,3.31.75,4.92a5.07,5.07,0,0,0,.68,2c.19.2.82-.43,1-1s-.28-1.32-.25-2a19.22,19.22,0,0,1,.48-2.68c.46,2,.81,3.43,1.21,5.17l1.36.41a34.91,34.91,0,0,0-2,5.25c-.76,3.54-2.42,6.52-1.94,10.92.22,2,.25,4,.3,6.07a21.74,21.74,0,0,1-.3,4c.08.82.2,1.63.23,2.45.08,1.69.1,3.39.16,5.08,0,.48.13,1,.12,1.41-.09,6-.29,12.08-.28,18.12,0,4.61.36,9.22.36,13.83,0,1.72-.95,3.37-.22,5.28l-.63.12Z"/><path class="cls-1" d="M136.47,254.38c-.47,2.65.64,1.82,1.17,1.9v10.66l2.1,1.21-1,.49,0,.52c1,.35,2,1.12,2.95.9.7-.16,1.32-1.6,2.07-2.59-.28,4-1.16,4.82-3.56,4.22a2.5,2.5,0,0,0-2.58,1.24,6.39,6.39,0,0,0-.17,5.15c.19.48.52,1,.81,1.06,2,.34,3.93.54,5.89.8a8.08,8.08,0,0,1,1,.29V281c-1,.18-2,.35-3,.56s-2.21-1-2.48,1.25h-2.56c.21.69.34,1.09.53,1.67-1.38.31-2.74,1.69-3.92-1-.16-.35-.62-.18-.9-.39A16.9,16.9,0,0,1,131.6,282l2-3c0-1.69,2.46-3.78.83-7.82.22-.46.56-1.16,1-2l-.65-.51c1.67-2.42.71-6.15,1.31-9.22l-1.73-.88c.67-.46,1.33-.56,1.67-1.24A12.63,12.63,0,0,0,136.47,254.38Z"/><path class="cls-1" d="M176.32,292c-.87,1.91-2.06,2.07-3.74,1-1-.63-2.15-.37-3.23-.31a16.38,16.38,0,0,0-2.7.56c-.05-1.32-.1-2.58-.17-4.47,3.28.3,6.48.66,9.69.83,1.27.07,2.55-.44,3.82-.38.5,0,1,.92,1.59,1.55.78-2.91,2.62-1.47,4-1.73a34.46,34.46,0,0,1,8.43,0c.42,0,.83,1.22,1.4,2.12-3.36,2.91-6.62,2-9.8,2.24-.46,0-1,.32-1.37,0-1.82-1.6-3.55.59-5.31.25C178.11,293.43,177.29,292.59,176.32,292Z"/><path class="cls-1" d="M210.5,277.45l-.56-.25a1.65,1.65,0,0,1,.12-.34,10,10,0,0,0,2.05.87,3.57,3.57,0,0,0,2.27-.47c.49.24,1,.69,1.46.67,1.31-.05,2.63-.31,3.94-.47.51-.06,1.36,1.29,1.27-1.14.38.16.75.35,1.13.48s1.37.58,1.42.36a12.92,12.92,0,0,0,.55-4.38c-.48-2.66,0-3.9,1.42-4.73.4,2.75.8,5.57,1.17,8.15l1.4-1,.12.52-.7,1.19,9.8-.9.06,1.08c-1,.22-1.94.51-2.92.64a31.63,31.63,0,0,1-3.23.19c-1.14,0-2.28,0-3.38,0,0,3.61-.09,6.7,0,9.76.09,2.19-.85,2.21-1.42,2.81-.36.38-.67-.8-.94-1.18-2.12-3-.06-7.27-1.27-10.46H206.67l0-.33,3.87-.66Z"/><path class="cls-1" d="M153.28,180.24c-.56-1.38-1-3.49-1.71-3.93-.94-.57-2.16-.15-3.16.42a50.88,50.88,0,0,0-5,3.59c0-.06.11.32.23.71-2.87.5-3.52-.1-4.05-3.88a6.24,6.24,0,0,1,0-2.28,28,28,0,0,1,1.83-4.88c.46-.84,1.38-1.3,1.86.2a7.89,7.89,0,0,1,.13,2.86c-.13,1.3-.43,2.55-.74,4.27a23.52,23.52,0,0,0,3.53-2.07c2.36-2,4.68-2.48,7-.11a17,17,0,0,1,1.37,1.88C154.12,178.25,153.73,179.18,153.28,180.24Z"/><path class="cls-1" d="M216.19,141.37c.82,1.71,1.9,1.39,2.65-.19.3-.63.81-.88,1.23-1.3.07.23.13.47.2.7l-3,5.41c.1.16.27.3.3.5a15.63,15.63,0,0,1-.42,7.37,13.65,13.65,0,0,0,.16,2.6l-2.92-1.57s-.08-.15-.13-.15c-2.66-.42-2.48-4-2.42-7.63,0-2.66-.16-5.34-.21-8A13.19,13.19,0,0,1,212,137c.61,2.16,1.17,3.46.82,6-.24,1.7.6,3.95,1.21,5.85C214.43,145.7,217.14,145.67,216.19,141.37Z"/><path class="cls-1" d="M212.15,79.11c-1.8-.86-3.05-2.6-4-5.19a4,4,0,0,1,.16-2,21.46,21.46,0,0,1,2.1-4.21,27.59,27.59,0,0,1,3-2.86c.91-.93,1.76-2.09,2.68-3,.43-.41,1-.33,1.44-.59s1.11-.76,1.83-1.27a5.57,5.57,0,0,1-.35,1.66c-1.24,1.92-2.55,3.67-3.8,5.57C213.68,69.63,212.08,75.58,212.15,79.11Z"/><path class="cls-1" d="M215.13,39.87c-.27,1.59-.53,3.18-.88,5.27l3.2.28L212.17,53l.85.53-1.94,4.62-3.41-6.39L211.81,47c-.22-.51-.43-1-.64-1.53l.48,1.36a3.8,3.8,0,0,0,.4-.76,14.5,14.5,0,0,0-.64-1.55c.19-.41.47-1,.78-1.71.1.86.16,1.47.23,2.09.33-.27.75-.38,1-.84.64-1.3,1.19-2.75,1.78-4.14Z"/><path class="cls-1" d="M257.12,26.32l-.59-2.09,1.14-.43c.14,1.58.25,2.64.34,3.71.16,2,.46,4.08.45,6.12a68,68,0,0,0,.41,11,16.6,16.6,0,0,1-.46,4.37,1.3,1.3,0,0,1-.91-.33c-1.36-1.5-1.45-4.22-1.48-6.7,0-4.72.06-9.46.2-14.18C256.24,27.21,256.84,26.74,257.12,26.32Z"/><path class="cls-1" d="M270.47,266.51l-1.2-1.59.87-.43-1.08-.79c.08-.85.15-1.72.24-2.59s.18-1.45.33-2.61c.35.84.52,1.26.77,1.85a28.24,28.24,0,0,0,.49-4.91c-.08-1.12.6-3.31-.77-3.61a8.08,8.08,0,0,1,0-1.63c.45-5.18.92-10.37,1.38-15.57,1.93.05,2.23,1.22,1.79,4.72-.84,6.77-1.5,13.64-2.16,20.49-.34,3.39-.52,6.84-.83,11-.22-1.71-.35-2.75-.48-3.79l-.27,0-.42,2.81-.37-.31C269.22,268.49,268,265.79,270.47,266.51Z"/><path class="cls-1" d="M214.31,178.73l0-1c.92-4.78,3-8.39,4.48-7.9.23-.87.45-1.68.67-2.49l.36.29c-.57,3.46-1.13,6.92-1.73,10.57l2,2.06c-.33.81-.68,1.5-.93,2.29-.61,1.94-1.86,2.48-2.84.82A45.54,45.54,0,0,1,214.31,178.73Z"/><path class="cls-1" d="M144.84,143.3a10.6,10.6,0,0,0-1.78,2.48c-.44,1.23-.55,2.86-.95,4.14s-1.1,3.25-1.45,3.1c-.8-.33-2,.43-2.28-2.78-.31-4.18.62-7.48,2.79-8.92a2.82,2.82,0,0,1,2.1-.32C143.66,141,144,142.07,144.84,143.3Z"/><path class="cls-1" d="M217.38,97.56l1.33-1.06a42.81,42.81,0,0,1-1.4,6.5,4.42,4.42,0,0,1-2.48,2.42c-.55.24-1.2-.85-1.75.64-.09.23-1-.59-1.42-.89.27-3.43.52-6.49.77-9.55l.31,0c.13,1.23.27,2.45.4,3.65l4.3-3.88C217.43,95.94,217.41,96.63,217.38,97.56Z"/><path class="cls-1" d="M258.41,93.43c.77-.37,1.56-1.1,2.33-1,.43.06,1.15,1.51,1.15,2.33,0,3.81-.46,7.67-.26,11.41.12,2.24-.76,1.65-1.05,2.52-.43-.76-1.14-1.42-1.23-2.3-.27-2.89-.29-5.87-.45-8.8C258.83,96.44,258.64,95.3,258.41,93.43Z"/><path class="cls-1" d="M234.93,34.89c-1.36,2.24-2.65,4.39-4.12,6.82-.33-1.29-.61-2.41-1-3.79a17.21,17.21,0,0,1,2-1.15c1-.38,1.23-2.1,1.22-3.26,0-2,.81-4.23,1.87-4,.54.11,1.14-.19,1.63.14a2.76,2.76,0,0,1,.67,3.16,17.1,17.1,0,0,1-1.5,3.16C235.69,36,235.25,35.32,234.93,34.89Z"/><path class="cls-1" d="M211.06,81.43c1.64,3.62,2.89-1.35,4.76-1.19L215,81.59l1.31.71c.68,3.81-1.29,4.46-2,6.58-.24.72-1.33.76-2,.59C211.38,89.22,210.81,85.12,211.06,81.43Z"/><path class="cls-1" d="M219.28,113.47c-.24.77-.49,1.53-.73,2.3a4.22,4.22,0,0,1,.33,4.77c-.57,1.24-.51,3.44-1.83,2.63-1.06-.65-2.16-1.39-2.09-4,0-2.2.42-3.91,1.86-4.25.79-.19,1.52-1.25,2.27-1.92Z"/><path class="cls-1" d="M235.83,166.24c-1.16-.25-2.59.25-3.09-.81-1.63-3.46-1.94.74-2.82,1.36a11.65,11.65,0,0,0-1.57,1.63c-.07-.26-.15-.52-.22-.77a17,17,0,0,0,1.55-2.16,15.39,15.39,0,0,0,.52-2.17c.17-.61.41-1.62.65-1.65a10.17,10.17,0,0,1,4.22,0C236.68,162.17,235.18,164.78,235.83,166.24Z"/><path class="cls-1" d="M212.18,129.43c-1.06-5.67,0-11.43-.06-17.33.46,1.19,1.4,2.56,1.29,3.52C212.92,120.19,214,125.25,212.18,129.43Z"/><path class="cls-1" d="M3.06,192.18l.68,1.14c-.94,2-.61,4.18,0,6.62.26,1.14-.14,2.83-.24,4.27l-.5.18,1.17.51-1.7,2.38a20,20,0,0,1-.62-3.39c0-3,0-6.09.18-9.12a8.92,8.92,0,0,1,.92-2.54Z"/><path class="cls-1" d="M89.82,289.9l4.2-1.33c0,.29,0,.59.07.89.58-1.11.8-2.76,2-.84.81,1.3,2.57.45,3.9.6s2.47-.07,3.34,1.9l-.1.94c-1-.31-2-.23-2.84-1-1.94-1.77-3.86-.25-5.77-.46-1.61-.18-3.21-.5-4.82-.77Z"/><path class="cls-1" d="M200.18,289.24a31.05,31.05,0,0,0,4.5-.58c1.1-.29.9,2.12,1.64,2.43a6,6,0,0,1-.53,1.59c-.81.93-4.37,0-5.06-1.22A14.76,14.76,0,0,1,200.18,289.24Z"/><path class="cls-1" d="M3.06,192.18l-.15,0A8.18,8.18,0,0,1,2.19,187c.44-3,.62-6.2,1-9.26a5.22,5.22,0,0,1,.89-1.7l.53.88-1.18,3.42c.08.17.45.62.43,1-.15,2.64-.44,5.25-.57,7.89a11.16,11.16,0,0,0,.51,2.51Z"/><path class="cls-1" d="M215.51,292.35c.76-3.9,1.5-4.26,5.33-3.35,1.34.31,1.58,1.76,1.59,3.35Z"/><path class="cls-1" d="M206.08,279.31c-3,0-5.66.39-8.34-.39C200.3,276,204.83,276.27,206.08,279.31Z"/><path class="cls-1" d="M128.9,271c-.14-.81-.28-1.62-.36-2.15.4-1.05.83-2.16,1.26-3.27l-.05,0c1.26,2.11,2.51,4.22,3.9,6.57Z"/><path class="cls-1" d="M241,130.61c.15,3.65.3,7.31.45,11l-1.67,1.8c.3-3-1.13-6,.83-8.59.31-.4-.07-2.71-.14-4.14Z"/><path class="cls-1" d="M185,92.56c0,1.42.1,2.83.12,3.54-.45.91-.88,1.39-.86,1.81.07,1.64-.42,3.91.91,4.26v6.16a8.57,8.57,0,0,1-1.13-2.45c-.19-2.55-.31-5.15-.26-7.73,0-1.93.38-3.83.58-5.75Z"/><path class="cls-1" d="M184.25,120.94c1.51.85,2,4.59,1.4,9.67l-1.4-1.16Z"/><path class="cls-1" d="M116.21,282.32c2-1.06,3.9-.75,5.74,1.05l0-.07a5.16,5.16,0,0,1-5.07.79c-.25-.06-.45-.73-.67-1.11Z"/><path class="cls-1" d="M208.2,290.82l4.93-2.49c.08.26.16.53.23.79l-.78,3-.12-.78c-1,.17-2,.38-3,.5a6.22,6.22,0,0,1-1.36-.09Z"/><path class="cls-1" d="M209.62,283c-1.18,3.07-2.69,3.09-6.41,0Z"/><path class="cls-1" d="M276.25,146.91a31.61,31.61,0,0,1-1.73,3.64,23.7,23.7,0,0,1-2.35,2.75c-.11-.29-.22-.58-.32-.87,1.18-2.07,2.35-4.17,3.59-6.14C275.56,146.09,276.06,146.76,276.25,146.91Z"/><path class="cls-1" d="M145.29,139.17c.15-1.19.11-2.68.45-3.14s1.22-.4,2.13-.62c.13-.21.51-.84.9-1.46.09.23.19.45.29.68C147.64,138.26,147.13,138.93,145.29,139.17Z"/><path class="cls-1" d="M116.21,282.32l0,.66c-1.39,3.06-3.51,3.22-4.37.2Z"/><path class="cls-1" d="M146.42,280.66c1.76-2.94,2.92-2.94,4.12,0Z"/><path class="cls-1" d="M155.24,270.19V270c-.48,3.82-1.69,1.19-2.62,1l2.34-3.28Z"/><path class="cls-1" d="M223.91,36l-2.5,3.9c-.32-1.21-.49-1.88-.83-3.14l3.37-.68Z"/><path class="cls-1" d="M240.27,165.57V159c3.08,2.05.16,4.47.45,6.61Z"/><path class="cls-1" d="M157.91,279.35l-1.66.44a8.28,8.28,0,0,1-2.94.45c1.48-1.23,2.93-3.34,4.59-.8C157.9,279.42,157.91,279.35,157.91,279.35Z"/><path class="cls-1" d="M215.07,283.38l-2.14,1.22-3-1.67h5.1Z"/><path class="cls-1" d="M122,283.37c.25-.32.48-.87.75-.92a9,9,0,0,1,3.61-.06L124,284.33l-2.12-1Z"/><path class="cls-1" d="M136.08,199.36H136c.17,2,.33,4,.5,6l-.76.13C135.56,203.47,134.86,201.41,136.08,199.36Z"/><path class="cls-1" d="M127.2,281.68h3.24c-1.44,2.52-1.54,2.55-3.26.81C127.19,282.22,127.2,282,127.2,281.68Z"/><path class="cls-1" d="M241.75,149.44c.09-2.34-2.48-1.94-1.44-5.64l.44,2.89.79-3.2C241.63,146,241.69,147.7,241.75,149.44Z"/><path class="cls-1" d="M184.31,119.18c-.47-6.57-.53-6.39.66-6.13Z"/><path class="cls-1" d="M145.79,118.18c-1.3-4,1.71-1.13,1.65-2.46Z"/><path class="cls-1" d="M198.14,284.43l2.36-2.14c-.05,1.31-.07,2-.1,2.67h-2.22Z"/><path class="cls-1" d="M134.34,232.62c-.74,1.75-1.42,3.7-2.86,3l0,.09c.75-1.72,1.35-3.94,2.86-3Z"/><path class="cls-1" d="M152.27,205.46c-.05,1-.1,2.07-.16,3.11-.31-.55-.61-1.1-1-1.82Z"/><path class="cls-1" d="M151.73,201.84l-.41-2c.17.15.38.24.51.48A7.67,7.67,0,0,1,151.73,201.84Z"/><path class="cls-1" d="M169.76,155.44V172.6c-.22-.66-.38-1.16-.63-1.9-.24.6-.42,1.06-.85,2.11v-17Z"/><path class="cls-1" d="M170.78,187.12l-1.75-.3c.41,2.13.94,4.18,1.16,6.34a7.11,7.11,0,0,1-.84,3.14c-1-6.39-.81-12.87-.81-19.5h2c-.75.76-1.16,1.19-1.74,1.79C171.66,180.08,169.58,184.2,170.78,187.12Z"/><path class="cls-1" d="M167.07,110.34l1.35,2.33c-.91,1-.9,1.92-.16,3.52,1,2.26.77,3.37-.86,4C167.3,117,167.19,113.86,167.07,110.34Z"/><path class="cls-1" d="M168.06,133.26c.42,2,.89,4,1.21,6.05a6.13,6.13,0,0,1-.56,2c-.29-.41-.82-.8-.84-1.26-.08-2.22,0-4.47,0-6.71Z"/><polygon class="cls-1" points="202.03 238.4 202.14 238.32 202.13 238.52 202.03 238.4"/><path class="cls-1" d="M41.1,220.84V238l-1.62-.21C39.36,232.19,39.24,226.6,41.1,220.84Z"/><path class="cls-1" d="M33,244.82l-1.16.52c-.11-2.35-.22-4.8-.34-7.61l.87.82c0-.59,0-1.12.07-2.16a19,19,0,0,1,1.46,3.16c.1.35-.47,1.34-.83,2.29,0,.63-.06,1.84-.11,3Z"/></g></g></svg>