<?xml version="1.0" encoding="utf-8"?>
<!-- Generator: Adobe Illustrator 26.0.2, SVG Export Plug-In . SVG Version: 6.00 Build 0)  -->
<svg version="1.1" id="圖層_1" xmlns="http://www.w3.org/2000/svg" xmlns:xlink="http://www.w3.org/1999/xlink" x="0px" y="0px"
	 viewBox="0 0 529 169" style="enable-background:new 0 0 529 169;" xml:space="preserve">
<style type="text/css">
	.st0{fill:#FFFFFF;}
</style>
<path class="st0" d="M124.7,104.3v22.1H84.2L64.2,92.3h-5.1l-19.9,34.1H0.3v-22.1l20.6-24.9H0.5V46.1h36.2v-9.3H2.4V4.4h120v32.4
	H85.2v9.3h38.9v33.3h-21.8L124.7,104.3z M260.3,6.2v36.5H231v-7.7h-4v11.3h29.6v22.1h-49.4l-7.9-7.9V35.1h-4v25.4l-7.9,7.9H138V46.4
	h30.4V35.1h-4v7.7h-29.8V6.2h39.9V0.3h45.1v5.9H260.3z M217.7,99.1h41.7v26.9h-124V99.1h39.7v-3.6h-37.6V72.1h118.9v23.4h-38.8V99.1
	z M394,88.9v36.5h-80.8l-11.8-11.6l-9.3,12.8h-21.9V67.8h35.5v14l29.6-31v-3.5h-62.3V11.8h32.7V2.1h50.1v9.7H391v38.5l-37,38.6H394z
	 M528.7,94.8V127H407.4V50.3h119.7v41.2h-79.3v6.9h38.4l4.3-3.5H528.7z M525.5,46.5H408.6V4.1h116.9V46.5z M443.4,69.4v4.7h11.2
	v-4.7H443.4z M483.4,24.4h-33.5v4.3h33.5V24.4z M491.8,69.4h-12.1v4.7h12.1V69.4z"/>
<path class="st0" d="M108.3,167.2c13-3.6-4.7-9.3-7.2-13.6c-3.7-9,12.5-11.4,14.3-3.1l-1.9,0.9c-0.5-5.8-12.3-6.2-9.5,0.4
	c3,3.6,8.9,4.1,11.4,8.3c3.6,9.2-13.2,11.8-15.2,3.3l2-0.8C103,165.3,105.5,167.3,108.3,167.2z M136.5,146h3.7v9.8l11.6-9.8h2.4
	l-11.1,9.3l14,12.8h-4.7l-12.3-11.2v11.2h-3.7V146z M177.4,146l7.7,11.2l7.6-11.2h2l-8.6,12.6v9.6h-3.7v-9.2l-8.8-12.9H177.4z
	 M252.3,147c-10.4-0.4-12.5,16.1-3.4,19.6c8.8,2.5,9-1.3,8.5-8.6h-4.2v-1.3h7.9v9.7c-5.6,3-13.8,3.3-18.8-1.2
	c-12.6-12,10.2-28.8,18.6-14.1l-1.6,1.1C257.6,149.1,255.7,147.1,252.3,147z M291.4,145.5l10.4,22.6H298l-3.4-7.4h-9.5l-3.5,7.4
	h-1.9l10.7-22.6H291.4z M285.8,159.3h8.1l-4-8.8L285.8,159.3z M320.9,146c2.4,0.1,9-0.3,11.2,0.4c6.6,1.4,5.4,10.2-0.9,11l8.1,10.7
	h-4.3l-7.7-10.4h-2.6v10.4h-3.7V146z M324.6,156.6c10.4,1.5,10.6-11,0-9.2V156.6z M358.3,146c8.4-0.5,21.3-0.4,21.1,10.9
	c0.3,11.3-12.7,11.9-21.1,11.3V146z M362,166.5c17.2,3.2,17.2-22,0-18.9V166.5z M415.6,146v1.4H404v7.9h7.8v1.4H404v9.9h11.7v1.4
	h-15.4V146H415.6z M436,146h2.1l14.5,16.2h0.1V146h1.6v22.7h-0.9l-15.7-18h-0.1v17.5H436V146z"/>
</svg>
