<?xml version="1.0" encoding="utf-8"?>
<!-- Generator: Adobe Illustrator 26.0.2, SVG Export Plug-In . SVG Version: 6.00 Build 0)  -->
<svg version="1.1" id="圖層_1" xmlns="http://www.w3.org/2000/svg" xmlns:xlink="http://www.w3.org/1999/xlink" x="0px" y="0px"
	 viewBox="0 0 192 65" style="enable-background:new 0 0 192 65;" xml:space="preserve">
<style type="text/css">
	.st0{fill:#FFF000;}
	.st1{fill:#036EB7;}
</style>
<g>
	<path class="st0" d="M154.6,39.5c0,13.8-11.2,24.9-24.9,24.9h-104c-13.8,0-24.9-11.2-24.9-24.9v-6.2c0-13.8,11.2-24.9,24.9-24.9
		h104c13.8,0,24.9,11.2,24.9,24.9V39.5z"/>
	<path class="st1" d="M51.9,25.2v2H25.2v-2h11.7v-2.3l3.7,0.2c0,0.2-0.2,0.4-0.7,0.5v1.6H51.9z M42.1,39.7c0.4,1.2,1,2.3,1.7,3.2
		c1.6-0.8,3.4-1.9,4.6-2.7l2.3,1.8c-0.1,0.1-0.2,0.2-0.4,0.2c-0.1,0-0.2,0-0.3,0c-1.2,0.7-3.2,1.8-4.8,2.5c1.7,1.8,4,3.1,6.9,3.8
		c-0.5,0.5-1.3,1.5-1.6,2.2c-5.5-1.6-8.9-5.3-10.7-10.8h-1.1c-0.4,0.2-0.9,0.5-1.4,0.7c3,2,4.4,4.5,4.4,6.6c0,2.4-1.9,3.9-4.6,3.9
		c-0.7,0-1.6,0-2.5,0c-0.1-0.7-0.3-1.7-0.7-2.3c1,0.1,2.1,0.1,2.8,0.1c0.6,0,2.5,0,2.5-1.9c0-0.4-0.1-0.9-0.3-1.4
		c-3.2,2.5-7.9,4.3-12.3,5.2c-0.3-0.5-0.9-1.3-1.3-1.8C30,48,35.1,46.3,38,43.9c-0.2-0.3-0.5-0.6-0.8-0.9c-2.7,1.7-6.6,3-10,3.7
		c-0.3-0.5-0.8-1.2-1.2-1.5c3.5-0.5,7.6-1.7,10-3.1c-0.3-0.2-0.7-0.5-1-0.7c-2.4,0.9-5.1,1.5-7.6,2c-0.2-0.4-0.7-1.2-1-1.6
		c2.7-0.4,5.8-1.1,8.4-2.1h-5.3v-1.8h18.1v1.8H42.1z M51.6,39.5H49v-2.9H28v3.1h-2.5v-5h26V39.5z M29.3,28.4H48v5H29.3V28.4z
		 M45,31.9v-1.8H32.1v1.8H45z M64.5,46.1c-0.1,0.2-0.4,0.3-0.7,0.2c-2,1.4-5,3-7.6,4c-0.4-0.5-1.3-1.4-1.9-1.9
		c2.5-0.8,5.5-2.2,7.2-3.6L64.5,46.1z M69.5,34.2h12.2v2.2H54.6v-2.2h12v-1.8h-8.2V24h19.4v8.4h-8.1v0h0.5c0,0.3-0.2,0.4-0.7,0.5
		V34.2z M77.5,44.4h-8v3.9c0,2.4-1.1,2.5-5.9,2.5c-0.1-0.7-0.5-1.6-0.8-2.2c1.4,0.1,3,0.1,3.4,0.1c0.4,0,0.5-0.1,0.5-0.5v-3.8h-7.8
		v-6.6h18.6V44.4z M61.1,25.8v1.5H75v-1.5H61.1z M61.1,29v1.5H75V29H61.1z M61.6,39.8v2.6h13.1v-2.6H61.6z M79.4,50.3
		c-1.7-1.2-5.1-2.9-7.7-4l1.8-1.5c2.6,1,6,2.6,7.9,3.8L79.4,50.3z M84.6,22.1c9.9-9.1,27.5,3.4,14.4,12.8
		c14.6,9.9-3.4,25.9-16.1,16.8l2.8-5c10.4,7,18.3-7.2,5.4-9.1l-1.9-5.2c12.8,1.1,7.6-13.6-2-5.1L84.6,22.1z M134.9,40H122
		c-0.1,0.7-0.2,1.4-0.4,2.1h8l0.6-0.1l1.6,0.3c0,0.2-0.1,0.5-0.1,0.8c-0.7,7.7-1.3,7.7-5.3,7.7c-0.7,0-1.4,0-2.2-0.1
		c-0.1-0.7-0.4-1.7-0.7-2.4c1.4,0.1,2.8,0.1,3.4,0.1c0.5,0,0.8-0.1,1-0.3c0.4-0.4,0.7-1.5,0.9-4H121c-1.1,2.8-3.3,5.1-8,6.5
		c-0.3-0.7-1-1.7-1.5-2.2c5.8-1.5,7.2-4.5,7.7-8.6h-5.9c-0.4,3.6-1.5,7.5-3.9,10.3c-0.5-0.5-1.7-1.3-2.4-1.6
		c3.3-3.8,3.7-9.3,3.7-13.4v-6.7h21.5v6.8h-7.7c-0.1,0.2-0.3,0.3-0.7,0.4v1.9h10.9V40z M134.7,24.4v2.5h-26.6v-2.5H134.7z
		 M121.1,35.5h-7.5c0,0.7,0,1.5-0.1,2.3h7.6V35.5z M129.5,30.8h-15.9v2.5h15.9V30.8z"/>
</g>
<path class="st0" d="M188,22.2c1.7,2.1,3.3,5,3.9,6.9l-3.7,2.1c-0.2-0.8-0.6-1.8-1.1-2.8c-0.6,3.4-3.1,2.9-5.6,3
	c-4.4,0.2-3.9-3.8-3.8-7.1c-0.4,2.7-1,5.2-2.7,7l-3.3-2.4c0.7-0.7,1.2-1.7,1.6-2.7l-2.9,1c-0.2-1.3-0.7-3.1-1.2-4.7v9.2h-4V21.6h0
	c-0.2,2.6-0.7,5.8-1.6,7.7c-0.8-0.5-2.2-1.2-3.2-1.5c0.7-1.8,1.1-4.9,1.2-7.6l3.6,0.8v-2.1l-3.2,0.2c-0.1,0.3-0.4,0.5-0.6,0.5
	l-0.8-4.6h2.3c0.4-0.6,0.8-1.1,1.2-1.7c-0.9-1.4-2.3-3.1-3.5-4.4c0.8-1.1,1.5-2.2,2.2-3.3l0.5,0.5c0.8-1.7,1.6-3.7,2.1-5.3l4.5,1.8
	c-0.1,0.3-0.5,0.4-1,0.4c-0.7,1.8-1.9,4.1-3,5.8c0.2,0.3,0.4,0.6,0.6,0.8c1-1.7,1.9-3.4,2.6-4.8l4.3,1.9c-0.1,0.3-0.5,0.4-1,0.4
	c-0.9,1.6-2.2,3.6-3.6,5.4l2.6-1.1c0.7,1.4,1.5,3,2.1,4.4v-12h6.1c0.4-1,0.7-2.2,0.8-3.1l5.6,1.3c-0.1,0.3-0.4,0.4-0.9,0.4l-0.7,1.4
	h6.5v16h-7.6c1.1,0.7,2.2,1.6,2.9,2.3l-3.1,2.7c-0.3-0.4-0.7-0.7-1.1-1.1c0.2,0.5-0.5,4.2,0.5,4c1.3-0.1,1.4,0.4,1.5-2.2
	c0.5,0.4,1.5,0.9,2.4,1.2c-0.5-0.9-1.1-1.9-1.7-2.6L188,22.2z M169,14.9c-0.3-0.6-0.5-1.2-0.8-1.8c-0.5,0.6-0.9,1.2-1.4,1.8
	L169,14.9z M177.7,22.2l2.4,0.1c-0.8-0.6-1.7-1.2-2.5-1.7l1.1-0.9h-5.4v-1l-2.8,1.2c-0.1-0.5-0.2-0.9-0.3-1.5l-1,0.1v2.5l2.9-0.9
	c0.6,1.5,1.2,3.3,1.6,4.8c0.2-0.7,0.3-1.6,0.4-2.4l3.6,0.9V22.2z M179.6,9.2c0.4-0.7,0.7-1.3,1-2H177v3l1.6-1.5L179.6,9.2z
	 M177,12.2c0.4-0.3,0.7-0.6,1-0.9c-0.4-0.2-0.7-0.4-1-0.5V12.2z M180.4,12.6c-0.5,0.6-1,1.1-1.6,1.6c-0.4-0.6-1.2-1.3-1.8-1.6v3.8
	h2.6c-0.4-0.5-0.8-1-1.2-1.3c1-0.5,2-1.1,2.8-1.9L180.4,12.6z M185,15.9c-0.4-0.4-0.9-0.8-1.5-1.2c-0.6,0.6-1.3,1.1-2,1.6h5.3v-2.4
	L185,15.9z M182.2,10.2l-0.2,0.3c0.3,0.2,0.7,0.4,1,0.6c0.2-0.3,0.4-0.6,0.5-0.9H182.2z M183.2,8c0.4,0,1.8,0,2.1-0.1l1.6,0.6V7.2
	h-3.2L183.2,8z M186.9,9.1c-0.4,1.3-0.9,2.4-1.6,3.5c0.6,0.4,1.1,0.8,1.6,1.1V9.1z M170.4,35.4c-0.7,2-1.3,4.1-2.2,6v23h-4.5v-15
	c-0.6,0.8-1.1,1.6-1.7,2.2c-0.4-1.2-1.4-3.9-1.9-5.1c2.3-2.9,4.7-8.1,6.1-13.1l4.2,1.4v-0.1h21v3.4h-6.6v1h5.5v6.9h-19.5v-6.9h5.2
	v-1h-5.7V35.4z M190.1,59.4h-3.8c2.2,0.8,4.6,1.7,6,2.4l-4.1,2.6c-1.5-0.9-4.3-2.2-6.9-3.1l2.2-1.9h-5.8l2.6,1.8
	c-2.4,1-5.5,2.5-8.9,3.1c-0.5-0.9-1.6-2.4-2.4-3.2c2.1-0.4,4.3-1,6.1-1.7h-3.9V47h18.8V59.4z M175,41.8v1.7h1.2v-1.7H175z
	 M175.7,49.5v0.8h9.8v-0.8H175.7z M175.7,52.8v0.8h9.8v-0.8H175.7z M175.7,56v0.9h9.8V56H175.7z M181.1,39.1v-1h-1.3v1H181.1z
	 M179.8,41.8v1.7h1.3v-1.7H179.8z M186.1,41.8h-1.3v1.7h1.3V41.8z"/>
</svg>
