<?xml version="1.0" encoding="utf-8"?>
<!-- Generator: Adobe Illustrator 26.0.2, SVG Export Plug-In . SVG Version: 6.00 Build 0)  -->
<svg version="1.1" id="圖層_1" xmlns="http://www.w3.org/2000/svg" xmlns:xlink="http://www.w3.org/1999/xlink" x="0px" y="0px"
	 viewBox="0 0 32 65" style="enable-background:new 0 0 32 65;" xml:space="preserve">
<style type="text/css">
	.st0{fill:#FFF000;}
</style>
<g>
	<path class="st0" d="M24.5,2.9h6.6v3.9h-6.6v1h-4.6v-1h-6.9v1H8.3v-1H1.9V2.9h6.4V1l5.6,0.3c0,0.4-0.3,0.6-0.9,0.7v0.9h6.9V1
		l5.6,0.3c0,0.4-0.3,0.6-1,0.7V2.9z M29.7,19.5v8.4c0,3.1-0.9,4.1-5.3,4.1c-0.1-0.8-0.4-1.7-0.7-2.6l-2.9,0.7c0-0.4-0.1-0.8-0.2-1.3
		c-3.9,0.3-7.7,0.7-10.4,0.8c-0.1,0.3-0.4,0.5-0.6,0.5l-1.4-4.5c1.6,0,3.7,0,5.9-0.1v-2.1H8V32H3.5V19.5h10.6v-0.8h-8V8.1h21.1v10.6
		h-8.6v0.8H29.7z M10.5,11.1V12h3.6v-0.9H10.5z M10.5,15.8h3.6v-0.9h-3.6V15.8z M22.5,12v-0.9h-3.9V12H22.5z M22.5,15.8v-0.9h-3.9
		v0.9H22.5z M18.6,25.4l1.1,0c-0.1-0.4-0.3-0.9-0.5-1.3l3-0.7h-3.7V25.4z M22.7,23.4c0.7,1.5,1.3,3.4,1.6,4.9c0.7,0,0.8,0,0.8-0.4
		v-4.5H22.7z"/>
	<path class="st0" d="M11.7,54.2v4.4c3.3,1.1,16.2,0.5,20.6,0.5c-0.7,1.1-1.5,3.3-1.8,4.7c-6.9-0.5-20.8,2-24.9-4.1
		c-0.3,2.1-0.8,3.9-1.4,5.3c-0.8-0.6-2.6-1.4-3.7-1.8c1.3-3.2,1.6-9,1.7-14.5l5,0.7c-0.1,0.3-0.3,0.5-0.8,0.6
		c-0.2,1.6-0.1,4.1,1,5.3v-8H1.2v-4.2h6v-2.4H2.2v-4.1h5.1v-3l5.4,0.3c0,0.4-0.3,0.6-0.9,0.7v2.1h4v4.1h-4v2.4h4.8v4.2h-4.8v2.9H16
		v4.1H11.7z M25.4,43.3v-4.4h-8.6v-4.2h13.2v13.7h-4.5v-1l-3.3,0c0,6.4,0.1,6.4,1.3,6.4c4.1,0,4.2,0.5,4.2-4c0,1.2,2.9,1.5,4.1,1.8
		c-0.3,7.4-2.5,6.5-9,6.5c-6.3,0-5.2-1.9-5.2-14.7H25.4z"/>
</g>
</svg>
