<?xml version="1.0" encoding="utf-8"?>
<!-- Generator: Adobe Illustrator 25.0.0, SVG Export Plug-In . SVG Version: 6.00 Build 0)  -->
<svg version="1.1" id="圖層_1" xmlns="http://www.w3.org/2000/svg" xmlns:xlink="http://www.w3.org/1999/xlink" x="0px" y="0px"
	 viewBox="0 0 900 470" style="enable-background:new 0 0 900 470;" xml:space="preserve">
<style type="text/css">
	.st0{fill:#011949;}
	.st1{display:none;}
	.st2{display:inline;}
	
		.st3{clip-path:url(#SVGID_2_);fill:none;stroke:#000000;stroke-width:69;stroke-linecap:round;stroke-linejoin:round;stroke-miterlimit:10;}
	.st4{clip-path:url(#SVGID_4_);}
	.st5{fill:none;stroke:#000000;stroke-width:90;stroke-linecap:round;stroke-linejoin:round;stroke-miterlimit:10;}
	.st6{fill:#FFFFFF;}
</style>
<path id="_x32_2" class="st0" d="M-133.2,505.1c-1.6,0.6-4.2-0.3-7.3-2.7c-0.4-0.4-0.6-0.6-0.5-1c0.1-0.4,0.6-0.5,1.6-0.6l14.8-1.4
	c0-9.1-0.6-15.6-1.7-19.2c-0.3-0.9-0.1-1.6,0.3-1.9c0.4-0.3,0.9-0.1,1.7,0.5l3,2.3c1.8,1.6,2.5,2.9,1.9,4c-0.6,1.6-1,6.1-1,13.6
	l10.6-1.4c0-15.4-0.4-24.6-1.3-27.6c-0.4-1-0.4-1.7,0.3-1.9c0.4-0.1,1,0.3,2.1,1.2c3.4,2.7,4.8,4.7,4.2,5.8c-0.6,1.4-0.9,3.1-1,5.3
	v16.7l9.2-1.4l3.8-0.4c0.9-14,0.9-23-0.1-26.7l-0.4-1.8c-0.1-1.3,0.5-1.4,1.8-0.4l4,3.8c1.4,1.6,1.9,2.7,1.4,3.4
	c-0.8,1.4-1.7,8.4-2.5,21l7.7-1.6c3.4-1.3,5.8-1.4,7-0.9c1.6,0.9,2.7,1.8,3.8,2.7c1.2,1,0.8,1.7-1,1.9l-17.8,2.2l-1.2,15.2l2.9,2.5
	c0.6,0.9,0.6,1.4-0.4,1.6c-5.4,0.6-11.4,1.7-17.6,2.9h-0.5l-0.4,3.2l-0.6,0.9c-0.4,0.1-0.6-0.1-0.9-0.6c-2.3-4.4-3.4-7.3-3-8
	c0.6-1.2,1-6.2,1-14.8l-10.8,1.6v28.9c0,1,0.5,1.6,1.4,1.7c18.5-1.7,30.2-3.2,34.8-4.4c1.2-0.4,2.2-0.4,3.2,0.1l3.9,2.9
	c0.6,0.4,0.8,0.6,0.6,1.2c-0.1,0.4-0.6,0.6-1.3,0.6c-7.5,0.1-17.2,1-29.4,2.5c-8.7,0.8-13.4,1.8-14.1,2.9c-0.8,0.9-1.6,1.2-2.5,0.4
	l-0.9-0.6c-2.3-1.7-2.7-3.2-1.3-4.5c1-2.2,1.4-12.5,1.4-30.7L-133.2,505.1z M-93,498.8l-12.6,1.9v15.4c6-0.9,10-1.7,11.8-2.3
	L-93,498.8z M40.2,511.7c-9.2,5.7-14.8,8.7-16.7,8.7c-0.4-0.1-0.6-0.3-0.6-0.8c0.1-0.4,0.4-0.8,0.8-1c14.4-8,24.8-16.3,31.1-24.5
	l-11.5,1.3v1.3c-0.3,1.9-0.9,2.2-1.8,0.8l-2.9-5.7c-0.4-0.9-0.4-1.8,0.1-2.7l0.4-0.9c0.1-0.9,0.4-6.2,0.4-15.6c-0.4-4.4-0.4-6.7,0-7
	c0.6-0.4,0.9-0.1,1.2,0.6l1.7,4.3l5.3-0.8l25.8-3.6c1.2-0.1,2.5-1.2,3.6-3c0.8-0.9,1.6-1,2.2-0.4c2.9,2.5,3.9,4.3,2.7,5.4l-1,1
	c-0.9,0.9-2.5,7-4.3,18.2l3,2.3c0.9,1.2,0.6,1.7-0.9,1.8c-3.6,0-9.5,0.6-17.8,1.8l-0.9,1c13.6,11.5,24.4,17.9,32.2,19.1
	c1.2,0.1,1.9,0.3,2.3,0.6c0.5,0.4,0.6,0.8,0.3,1.2c-0.3,0.4-0.9,0.6-1.7,0.8l-9.9,1.6c-1,0.1-1.8-0.1-2.5-0.6
	c-6.9-6.5-14.5-13.1-23-20C53.5,502,47.6,506.9,40.2,511.7z M47.7,508.1c0.3-0.4,0.6-0.4,1,0l3.8,3.8c0.6,0.8,0.6,1.4,0.1,2.2
	c-0.4,0.4-0.6,1.6-0.9,3.1c-0.5,3.6-1.9,7.5-4.3,11.3c-2.2,3.9-5.6,7.3-9.9,10.2c-1.4,0.9-2.7,1.7-4,2.2c-0.4,0.1-0.6,0.1-0.9-0.3
	c-0.3-0.4-0.1-0.8,0.3-1c4.4-3.2,7.8-7,10.4-11.3c2.2-3.8,3.6-7.8,4.3-11.9c0.4-3,0.4-5.6-0.1-7.5C47.4,508.6,47.4,508.2,47.7,508.1
	z M56.4,489.9v-6.2l-3.6,0.4c-2.7,0.4-5.2-0.1-6.7-1.8c-0.9-1-0.6-1.6,0.6-1.6l6-0.6l3.6-0.6c0.1-3.9,0.1-6.2,0-6.6l-13,1.4l0.1,1.8
	v15.4L56.4,489.9z M72.6,487.2l2.7-15.7c0.1-0.8-0.4-1-1.6-0.9l-13.2,1.7v6.5l3-0.5c2.7-0.8,4.4-0.9,5.1-0.3l2.2,1.9
	c1.2,0.9,0.9,1.6-0.9,1.9c-3.6,0.1-6.7,0.6-9.3,1.3v6.2l2.6-0.4l6.2-1.2L72.6,487.2z M66.9,538.7v1.4c-0.3,0.8-0.6,0.9-1.3,0.1
	l-0.1-0.1c-3-2.9-4-5.1-3.2-6.1c0.3-0.5,0.4-4.5,0.4-12.1c-0.1-7.3-0.6-12.2-1.2-14.5c-0.4-1.4,0.1-1.7,1.4-0.9l3.8,3
	c1.2,0.9,1.4,2.1,0.8,3.2C67,514.8,66.8,523.5,66.9,538.7z M188.9,533.6c-0.6,0.9-1.2,0.8-1.7-0.3c-1.6-3.6-1.8-6-1-6.5
	c1.2-1,2.7-3.6,4.2-7.5l0.8-2.5c0.4-0.6,0.8-0.6,1.2-0.1l-0.8,10C191.1,529.5,190.2,531.7,188.9,533.6z M201,509.2
	c-4.5,1.4-7.5,2.5-8.6,3.2c-0.8,0.4-1.4,0.4-1.9-0.1l-2.5-3.1c-0.5-0.6-0.3-1.2,0.6-1.7h0.3c2.2-0.9,6.5-6,12.8-15.3l-1.9,0.4
	c-3.9,1.2-6.5,2.1-7.5,2.9c-1,0.6-1.9,0.5-2.5-0.1l-2.2-2.1c-0.9-0.8-0.6-1.6,0.4-2.2c1.4-0.6,2.5-1.7,3.2-3
	c6.1-10.8,9.1-18.9,9.1-24.3c0.1-0.6,0.1-1,0.4-1.2c0.4-0.1,0.9,0.1,1.2,0.6c0.9,1.2,1.9,2.9,3.4,5.6c0.6,0.9,0.6,1.7-0.1,2.5
	c-0.9,0.9-1.9,2.7-3.6,5.6l-7.3,11.5c-0.5,1.7,0.1,2.1,1.9,1.4l8-1.6l0.4-0.6c1.9-3.2,3-6.1,3.5-8.3c0.1-0.8,0.4-1.2,0.6-1.3
	c0.4-0.1,0.6,0.1,0.9,0.6l2.5,5.1c0.4,0.6,0.3,1.4-0.4,1.9l-3.9,4.7c-2.3,3.2-6.5,8.3-12.6,15.4c-0.4,0.4-0.4,0.6-0.3,0.9
	c0.8,0.4,5.3-0.8,13.5-3.4c-1.2-3.2-1.7-5.2-1.7-6c0.1-0.9,0.6-1,1.3-0.1c1.6,1.2,3.5,3.5,6,6.5c0.6,1.7,0,4.4-1.9,8
	c-0.3,0.4-0.5,0.5-0.9,0.1c-0.4-0.3-0.9-2.2-1.7-5.4L201,509.2z M202.8,522.6c0.1,1.4-1.2,3.8-3.5,6.5c-0.3,0.4-0.6,0.4-0.9,0
	l-0.3-0.8l-0.1-6.7c-0.4-3.8-0.4-5.8-0.1-6.2c0.4-0.8,0.8-0.6,1.2,0.3C199.8,516.4,201,518.8,202.8,522.6z M222.7,504.3
	c-1,6.5-3.5,13.4-7,20.4c-4,6.5-8.3,11.2-12.6,13.7c-0.4,0.4-0.9,0.4-1.2,0c-0.3-0.3-0.1-0.6,0.1-0.9c6-5.7,10.5-12.6,13.4-20.2
	c2.9-8.3,4.9-22.3,5.8-41.6l-1.7,0.4c-1.4,0.4-2.5,0.4-3.4-0.3l-1.8-2.2c-0.8-0.8-0.4-1.3,0.8-1.4c4.2-0.4,10.2-1.4,18.5-2.9
	c1.6-0.1,2.7-1.2,3.6-2.7c0.4-0.4,0.9-0.6,1.7-0.4c1.3,0.4,2.7,1.2,4.2,2.3c0.6,0.6,0.8,1.2,0.1,1.8c-1.3,1.2-2.2,2.2-2.7,3.2
	l-4.8,14.9c-0.1,0.4,0,0.6,0.3,0.9h0.9l4.7-1.2c0.6-0.1,1.2-0.6,1.7-1.4c0.4-0.6,0.9-0.8,1.4-0.6c1.3,0.6,2.5,1.3,3.4,2.2
	c0.5,0.6,0.5,1.2,0,1.7c-0.9,0.9-1.7,2.7-2.6,5.3c-2.6,8.6-5.7,16-9.1,22.3c1.6,3,3.4,6,5.2,8.8c3.1,4.7,8.3,7.8,15.4,8.9
	c0.4,0.1,0.6,0.5,0.5,1.2c-0.1,0.6-0.4,0.9-1.2,1l-12.1,1c-1.3,0.1-2.3-0.6-3-2.1l-7.4-14.8c-3.5,5.8-9.6,11.5-18,17
	c-0.9,0.5-1.7,0.6-1.8,0.1c-0.3-0.4-0.1-0.8,0.4-1.2c7.5-6.1,13.5-12.8,17.5-20l-9.1-17.8L222.7,504.3z M211,517.3
	c0.4,1.4-0.1,3.9-1.7,7.3c-0.1,0.4-0.4,0.4-0.9,0.1l-0.6-1.4l-1.4-5.4c-1.2-3.2-1.8-5.3-1.7-6c0.1-0.9,0.6-0.9,1.3-0.1L211,517.3z
	 M234.6,513.6c3.2-6.2,5.7-13.2,7.1-20.5l-0.1-0.6c-0.1-0.1-1.4,0-3.5,0.5c-1.9,0.4-3.5,1.2-4.2,1.8c-0.3,0.3-0.6,0.3-1.2-0.1
	c-1.2-0.6-2.2-1.7-2.9-2.9c-0.4-0.6-0.1-1.2,0.6-1.7c1.2-1,1.9-1.9,2.1-2.5c2.7-8.4,3.8-13.4,3-14.1c-0.3-0.4-0.9-0.5-2.1-0.4
	l-7.8,1.6l-1.6,21.1l1.9,0.4c1,0.4,1.6,1.2,1.6,2.2l2.7,7L234.6,513.6z M371.3,490.8c1.3-0.4,2.5-1.2,3.2-2.6c0.5-1,1.3-1.4,2.2-0.9
	l3.2,2.9c0.6,0.8,0.6,1.6-0.1,2.3c-1.2,1.2-2.1,2.9-3,5.4c-1.7,4.7-4.5,10.4-8.6,16.6c-3.9,5.4-10.1,12.2-18.5,19.7
	c-0.6,0.4-1.2,0.5-1.4,0.1c-0.4-0.5-0.3-1.2,0.4-1.8c5.2-5.1,9.1-9.3,11.8-12.8l4.9-7c5.3-9.3,7.5-15.2,6.7-17.5
	c-0.3-0.5-0.6-0.6-1-0.6c-6,1.3-9.6,2.2-10.6,2.9c-1.6,0.5-2.7,0.6-3.5,0.3l-2.7-2.2c-0.4-0.4-0.6-0.6-0.5-0.9
	c0-0.3,0.4-0.5,1.3-0.6C360.8,492.9,366.3,491.8,371.3,490.8z M403.7,514c4.7,6.6,9.9,10.5,15.2,11.5c1.2,0.1,1.9,0.4,2.5,0.8
	c0.5,0.4,0.6,0.9,0.3,1.3c-0.4,0.4-0.9,0.6-1.8,0.6l-11,1.3c-1.4,0.3-2.6-0.4-3.4-1.7c-5.6-11-11.8-22.6-18.9-34.8v13.7
	c0,20.2-0.6,31.5-1.8,34.1c-0.3,0.5-0.6,0.6-1.2,0.4l-1.7-1.9c-2.5-2.7-6.1-6.2-11-10.2c-0.4-0.4-0.5-0.9-0.4-1.3
	c0.1-0.4,0.4-0.6,0.6-0.5l1.4,0.5c5.2,2.5,8.2,3.6,8.8,3.5c0.4-0.1,0.5-0.5,0.6-1l0.4-2.5c0.1-3.9,0.3-21,0-51.5
	c-0.1-3.4-0.5-6.2-1-8.8l-1.2-4.9c-0.1-0.5,0.1-0.9,0.4-1c0.4-0.1,0.9-0.1,1.3,0.3l1,0.9c3.5,3,5.2,5.3,4.8,6.5
	c-0.6,1.9-1.2,7.5-1.2,16.5l6.9,12.5l0.3-0.1c6.7-6,10.6-11.5,11.7-16.6c0.3-0.9,0.6-1.2,1.4-0.5c1.2,1.2,2.2,3.4,3,6.5
	c0.3,0.9,0.1,1.7-0.6,2.1c-1.3,0.6-2.9,1.6-4.8,3.2c-3.5,3.2-6.7,6-9.6,8C398.8,506.9,401.7,511.3,403.7,514z M530,494.2
	c16-1.7,27-3.2,33.1-4.2l1.8-0.4c3.2-0.9,5.4-1.2,6.5-0.5l3.2,2.7c1.2,1.3,0.8,1.9-0.8,1.9l-4.2,0.1c-24.4,2.1-37.7,3.6-39.8,4.2
	v1.4c0,6.7-0.9,13.4-2.3,19.7c-1.8,7.7-6.6,14.5-14,20.4c-0.4,0.4-0.6,0.4-1,0c-0.4-0.4-0.5-0.6-0.3-1l3.2-3.9
	c8.9-11.7,12.1-27.1,9.5-45.9v-1.2c0.3-0.6,0.6-0.6,1.4-0.4c0.4,0.3,1.4,2.7,3,7.1L530,494.2z M559.7,479l6.5-0.8l1.2-9.5v-2.3
	c0-0.8,0.4-0.9,0.9-0.8l4.2,3.8c0.6,0.6,0.6,1.3,0.3,1.9c-0.5,0.6-0.9,1.3-1,2.2l-3.1,12.1c-0.6,0.9-1.2,0.9-1.6-0.1l-1.4-3
	l-18.4,1.7c-8.4,0.6-13.2,1.7-14.3,3.1c-0.6,0.8-1.3,1-1.9,0.6c-1.2-0.6-2.2-1.4-3-2.3c-0.8-0.8-0.9-1.4-0.1-1.9
	c0.9-0.9,1.6-1.8,1.8-3c0.6-4.2,0.4-8-0.9-11.5c-0.3-0.5-0.3-0.9,0-1.3c0.4-0.3,0.9-0.1,1.7,0.4l3.1,2.5l0.3,0.3l-0.3,9.1
	c0.3,1.3,1,1.7,2.3,1.4l12.3-1.3c-0.3-9.5-0.8-15.3-1.3-17.4l-0.4-1.2c0-0.6,0.4-0.9,1-0.6l4.9,3.2c0.6,0.5,0.8,1.2,0.4,2.1
	c-0.3,0.8-0.6,5.4-0.9,13.6L559.7,479z M535.3,523h-0.9c-0.6,0-2.3-1-4.9-3c-0.4-0.4-0.5-0.6-0.3-0.9c0.4-0.4,1.9-0.5,4.9-0.4
	l14.7-1.7v-9.6l-5.8,0.6c-2.7,0.4-5.2-0.4-7.3-2.5c-1-1.2-0.8-1.7,0.9-1.7l8-0.6l15.7-2.1c2.5-0.9,4.2-0.9,5.1,0l2.2,2.2
	c1.3,1.2,0.9,1.9-1,2.1c-4.4,0.1-8.9,0.6-13.9,1.4v9.6l15.3-2.2l5.6-1.2c0.9,0.1,2.5,1.4,4,3.6c0.4,0.6,0.4,0.9,0.1,1.2l-1,0.4
	c-5.2,0.1-13.1,1.2-23.9,2.5v19.3c-0.5,1.2-1.2,1.2-2.1,0c-2.5-3.8-3.5-6.2-2.7-7.5c0.5-1.2,0.6-5.1,0.6-11.4
	C544.1,521.5,539.5,522.2,535.3,523z M694.7,540.3c-0.1,0.9-0.4,0.9-1,0.4l-0.4-0.4c-2.7-3.1-4.3-5.3-4.3-6.2
	c-0.3-1.3-0.1-2.2,0.6-2.5c0.9-2.7,1.4-13.7,1.4-33.2c-4.7,7.8-9.6,14.1-14.4,18.8c-0.4,0.4-0.6,0.4-1.2,0.1c-0.4-0.4-0.4-0.9,0-1.3
	c7.5-10.1,12.6-19.5,14.9-28.1c-1.7,0-3.2,0.3-4.4,0.6c-2.6,0.5-4.9-0.1-6.6-1.9c-0.9-1-0.6-1.6,0.6-1.6l6.2-0.6l4.8-0.8V483
	c0-10.6-0.6-17.5-1.8-20.1c-0.3-0.6-0.3-1,0.1-1.2c0.9-0.4,3,0.9,6.2,3.9c0.6,0.5,0.8,1.3,0.5,2.2c-0.6,1.3-1,6.5-1,15.4l2.6-0.4
	c2.3-0.8,3.9-0.9,4.7-0.3l2.2,1.9c1,0.9,0.6,1.7-1,1.9c-3.6,0.1-6.5,0.6-8.4,1v3.5c1.2,0.4,3.1,1.6,5.3,3.1c0.8,0.6,1.2,1.6,1,2.9
	l-0.4,3.8c-0.4,1.2-1,1.2-1.9,0.1c-1.7-3.1-3.1-5.2-4-6.1L694.7,540.3z M711.3,523.2c-0.6-0.4-0.9-0.9-0.6-1.3
	c0.3-0.5,0.6-0.6,1.2-0.1c4.2,2.3,6.5,3.5,7,3.5c0.4-0.1,0.6-0.4,0.6-0.8c0.4-0.8,0.8-2.2,0.9-4.3c0.5-4.7,1.2-14.4,1.7-28.8
	c0-0.9-0.4-1.3-0.9-1.2l-4.7,1.6c-0.8,1.2-1.4,1.4-1.9,0.9l-3-1.8c-0.6-0.5-0.6-1.2,0-1.9c1.2-1.2,2.6-5.4,3.8-12.7
	c-2.5,0.1-5.3,0.6-8.2,1.4c-1,0.1-2.7-0.8-5.2-2.6c-0.4-0.3-0.4-0.5-0.3-0.8c0.3-0.3,0.6-0.4,1.2-0.4c10.1-0.9,20.4-2.6,30.5-4.8
	l4.5-1.2c0.9,0.1,2.2,1.2,3.8,3.2c0.4,0.5,0.4,0.9,0.1,1.2l-0.9,0.4c-5.7,0.4-12.8,1.4-21.3,3.1l-2.2,10.8c-0.1,0.9,0.3,1.3,1.2,1
	c1.4-0.4,3-1.7,4.3-3.4c0.4-0.8,1.2-1,1.9-0.6c1.2,0.5,2.1,1.3,2.9,2.2c0.8,0.5,0.9,1.2,0.1,1.8c-1.2,1.3-1.7,3.1-1.8,5.2l8.3-1.8
	c1.7-0.4,2.9-1.7,3.8-3.6c0.4-0.9,1-1.2,1.9-0.8l3,2.3c0.6,0.6,0.6,1.4-0.3,2.2c-0.9,1-1.8,2.9-2.5,5.3c-0.5,1.8-1.9,5.4-4.2,10.5
	l4.8,4.9c1.2,1.2,1.4,3.9,0.9,7.8c-0.3,1.2-0.8,1.3-1.4,0.4l-1.4-2.5l-4.7-7.4c-1.7,2.9-4.2,6.5-7.4,10.6c-0.5,0.8-1,0.9-1.4,0.6
	c-0.5-0.4-0.5-0.9,0-1.4c2.2-3.2,4.7-7.4,7-12.5l-4.2-5.4l-1-1.4c-0.1-0.4-0.1-0.6,0.3-0.9c0.4-0.1,0.6-0.1,0.9,0.1l5.3,4.8
	c1.3-3.6,2.2-6.7,2.7-9.7l-0.1-0.6h-0.1c-2.3,0.3-4.3,0.6-5.7,1.2c-1.6,0.4-3.2,0.3-4.5-0.4l-0.9,13.9c-0.5,10.6-1.7,18.3-3.2,22.8
	l15.4-2.3c3-0.9,4.8-1.3,5.4-1.2c1,0.1,2.5,1.4,4,3.6c0.4,0.6,0.5,0.9,0.3,1.2l-1.2,0.4l-34.8,3.9c-4,0.4-6.5,0.8-7.3,1
	c-0.8,0-2.5-0.9-5.1-3c-0.4-0.4-0.5-0.6-0.3-0.9c0.3-0.3,0.6-0.4,1.2-0.4c2.2,0,7.3-0.4,14.7-1.3l3.9-0.4
	C715.7,527.9,713.1,525,711.3,523.2z M706.9,517.1c-0.3,1.7-0.8,1.9-1.6,0.6c-2.1-3.4-3-5.6-2.5-6.6c1-2.2,1-7,0-14.7
	c-0.1-0.8,0-1.4,0.4-1.7c0.4-0.4,0.9-0.1,1.2,0.4l1.2,3.4l4.9-1.3c1.9-0.5,3.2-1.4,4-2.6c0.4-0.6,1.2-0.6,2.1-0.1l2.2,1.9
	c0.6,0.6,0.9,1.3,0.4,1.8c-1.7,1.7-2.9,5.7-3.1,11.9l1.3,1c0.6,0.8,0.4,1.3-0.9,1.4l-9.3,2.2L706.9,517.1z M712.6,509.4l0.9-7.8
	c0.1-0.6,0-0.9-0.6-1.2l-6,1.3l0.1,9.3l2.7-0.6L712.6,509.4z M871.7,488.1l-10.6,1.4l-0.1,2.9c-0.3,0.6-0.6,0.8-1.2,0.3l-0.1-0.1
	c-2.5-3-3.4-4.9-2.5-5.6c0.9-4.4,0.9-11.8,0-21.9c-0.1-0.5,0.1-0.6,0.5-0.6c0.5,0.1,0.9,0.4,1,0.9l1.4,3.5l5.2-0.6
	c10.4-1.2,18-2.5,23-3.4c0.9-0.1,2.1-1.3,3.4-3.1c0.8-0.8,1.4-0.9,2.1-0.4l3.4,3.4c0.1,0.4-0.4,1.2-1.4,2.7
	c-0.9,0.9-1.9,5.8-3.5,14.8l2.2,1.8c0.9,1.2,0.6,1.7-0.6,1.7c-3.5,0-9.3,0.6-17.5,1.8l0.6,0.4c0.6,0.8,0.6,2.6-0.1,5.2l9.9-1.6
	l9.6-1.4l7.3-1.7c1.2,0.1,2.5,1.4,4.2,3.5c0.4,0.6,0.4,0.9,0.1,1.2l-1,0.4l-13.4,1.3l-44.5,6.1l-1.4,0.1c-0.5-0.1-2.1-1.2-4.7-3
	c-0.4-0.3-0.4-0.6-0.3-0.9c0.5-0.5,1.2-0.6,1.7-0.4l19.2-2.1l10.4-1.3L871.7,488.1z M863.7,518.9c0.4-0.4,0.9-0.4,1.2,0.3
	c0.6,1.2,1.2,2.9,1.6,4.8c0.1,0.9-0.1,1.4-0.8,1.7c-1.3,0.5-2.7,1.2-4.2,2.2c-5.2,3.9-10.9,7-17.2,9.2c-0.5,0.3-0.9,0.1-1.2-0.3
	c-0.1-0.5,0.5-1.2,2.1-1.9c10.6-6.6,16.6-11.5,17.8-14.9L863.7,518.9z M861,517.1v2.3c-0.1,1.7-0.6,1.9-1.6,0.6l-2.7-4.9
	c-0.3-0.5-0.3-1,0-1.4c0.3-0.6,0.4-1.8,0.4-3.6c-0.4-6.2-0.5-9.3-0.3-9.5c0.5-0.4,0.9-0.1,1.2,0.5l1.2,3l4.9-0.6l21.4-3.4
	c1.7-0.9,3-1.9,3.9-3.1c0.8-0.9,1.4-1,1.9-0.5l2.7,2.5c0.8,0.9,0.8,1.7,0,2.5c-1.2,1.2-1.9,2.6-2.2,4.2l-0.8,3.9l2.5,2.1
	c0.9,1,0.6,1.6-0.6,1.7c-2.6,0-8,0.6-16.6,1.9c1.6,2.2,2.2,3.8,1.9,4.5l-0.1,2.9c0.4,10.8,0.4,17-0.4,18.4l-0.8,0.5
	c-0.4,0-0.6-0.1-1.2-0.8c-2.7-2.9-6.5-5.8-11.2-8.8c-0.4-0.4-0.6-0.8-0.4-1.2s0.5-0.4,1.2-0.3c2.2,0.8,4.3,1.4,6.5,1.9
	c1.4,0.4,2.5,0.1,2.7-0.5v-0.3c0-7.3-0.4-12.6-1-16L861,517.1z M887.4,509.1l0.6-4.4c-0.1-0.8-0.6-0.9-1.7-0.6l-22.3,3.1l-3.5,0.5
	l0.3,5.8c10.2-1.3,18.2-2.6,23.5-3.6L887.4,509.1z M888.5,481.5l1.8-11.8c-0.1-0.8-0.6-0.9-1.7-0.6l-27.1,3.4v5.1l8.3-1l6.5-0.9
	l4-1.6c0.9-0.4,1.8-0.4,2.6,0.1l2.9,2.5c0.6,0.9,0.5,1.4-0.5,1.7c-13.2,1.4-21.3,2.6-23.9,3.4v4.2l23.7-3.4L888.5,481.5z
	 M891.5,523.4c5.2,1.9,7.8,3.5,8,4.7c0.9,3,1.2,5.2,1,6c-0.1,1-0.9,1.2-1.9,0.3c-3.6-3.8-8.6-7.5-14.8-11.4l-1-0.9
	c-0.1-0.4-0.1-0.8,0.1-1c0.1-0.3,0.6-0.3,1.2,0L891.5,523.4z"/>
<path id="_x31_1" class="st0" d="M-134,349.2c10.5-13,17-25.1,22.5-41.6c5.5-16.5,9.1-39.5,9.1-56.9c0-1.8,0-2.8-0.3-5.5
	c18.6,2.6,22.9,3.6,22.9,5.4c0,1.3-2,2.5-5.9,3.4c-3.4,29.4-6.3,41.4-13.6,56.5c-5.6,11.5-13.5,22.4-22.6,31.2
	c-3.3,3.1-5.6,5-11,8.9L-134,349.2z M-77.4,242.8c3.3,0.7,5.9,0.9,8.5,0.9h6.4c2.4-2.9,3.1-3.8,5.6-6.7c3.5,2.9,4.6,3.8,7.7,6.7
	c0.8,0.7,1,1,1,1.4c0,1.2-1.2,2-7.5,4.5c1.5,19.5,4.5,30.6,11.9,44.6c5.9,11.1,13.5,20.8,22.1,28.1c4.7,3.9,7.6,5.9,14.7,9.4
	l-0.3,1.2c-4.3,1.7-6.1,3-8.5,6.4c-1.7,2.4-3,4.7-4.4,8.1c-0.5,1.2-1,1.7-1.7,1.7c-0.8,0-1.8-0.8-3.7-2.6
	c-13.5-13.2-24.9-36.9-30-62.4c-2.1-11.3-3.2-20.5-3.8-37.7h-9.7c-2.2,0-5.8,0.3-7.7,0.7L-77.4,242.8z M79.2,316.4h22.4
	c4.4-5,5.9-6.4,10.2-11c6.5,5.1,8.5,6.7,14.8,11.9c0.4,0.4,0.7,0.8,0.7,1.2c0,0.4-0.5,0.7-1.3,0.7H79.3v24.5h30
	c4.7-5.4,6.1-7.1,11-12.3c6.5,5.5,8.5,7.1,14.7,12.7c0.7,0.5,0.9,1,0.9,1.6c0,0.5-0.7,0.8-1.7,0.8l-111.1,0.1c-3.3,0-6.3,0.3-9.2,1
	l-1.1-5c3.7,0.8,6.9,1.2,10.3,1.2h41.6v-24.5H33.9c-3.9,0-6.2,0.3-10.1,1.1l-0.9-5.1c3.9,0.9,7.5,1.3,11,1.3h30.8v-22h-23v5.8
	c0,2.9-1.3,3.3-9.4,3.3c-4.7,0-5.6-0.4-5.6-2.9c0.5-12.8,0.5-17.4,0.5-36c0-18.3-0.1-22.4-0.8-32.3c7.5,3.3,9.7,4.3,16.5,8.2h59.7
	c3.4-3.5,4.4-4.6,8-7.9c5,3.5,6.4,4.6,11,8.1c1,1,1.4,1.6,1.4,2.2c0,0.9-1.2,2-4.7,3.8v17.5c0,11.8,0,14.8,0.5,33.5
	c0,3.1-2,3.9-9.9,3.9c-4.7,0-5.5-0.4-5.5-2.7v-4.6H79.3L79.2,316.4z M64.6,243.2h-23v22.5h23V243.2z M64.6,268.5h-23v23.2h23V268.5z
	 M103.2,265.7v-22.5H79.1v22.5H103.2z M79.2,291.6h24.1v-23.2H79.2V291.6z"/>
<g class="st1">
	<g class="st2">
		<g>
			<defs>
				<path id="SVGID_1_" d="M519.5,341.9c-0.4-2.6-1.7-5.1-2.1-7.7c-1.7-8.9-6.9-16-11.6-23.2c-10-15.4-21.3-30.1-28-47.4
					c-1.6-4.1-2.8-8.6-3.2-13c-0.7-8.2-4-12.5-11.9-14.9c-2.3-0.7-4.6-2.3-6.4-4c-1.9-1.8-1.1-3.8,1.6-3.8c3.5,0,6.9,0.7,10.4,0.9
					c2.4,0.1,4.9,0.1,7.4-0.2c2.8-0.3,5.7-0.5,8.2-1.6c2.7-1.2,4.9-3.3,7.2-5.2c0.2-0.2,0-1.1-0.2-1.6c-3-7.9-7-14.9-14.8-19.1
					c-4.1-2.2-8.4-4-12.2-6.7c-9.6-6.7-18.8-5.5-27.9,0.7c-2.4,1.6-4.4,3.7-6.5,5.6c-0.4,0.4-0.9,0.7-1.2,1
					c-1.2,1.2-2.5,2.5-3.4,3.4c-2.4-0.2-5.1-0.5-7.7-0.8c0.1-1.3-0.2-3.1,0.5-3.7c2.9-2.6,5.9-5.7,9.4-6.9
					c6.7-2.1,12.8-5.3,18.1-9.6c6.3-5.1,13.2-8.6,20.8-11c3.7-1.2,7.4-2.1,11-3.5c8.3-3.1,10.4-7.9,7.1-16.3c-0.5-1.4-1.1-2.7-1.9-4
					c-5.7-8.8-12.9-16.2-21.9-21.9c-9-5.7-18.3-8.4-29-4.9c-3.3,1.1-6.9,0.9-10.7,1.3c0.6-4.9,1.1-8.9,1.6-12.9
					c0.4-2.7,1.5-3.9,4.6-3.2c3.8,0.9,7.8,1.6,11.7,1.9c8.8,0.6,17.9,1.5,25.7-3.8c6-4.2,11.5-9.1,17-14c1.5-1.3,2.6-3.5,3.2-5.4
					c1.2-4,1.7-7.9-1.5-11.7c-2.6-3-4.1-7-6.4-10.3c-2.3-3.4-5.1-6.5-7.6-9.9c-2.8-3.8-5-8.2-8.2-11.6c-4.7-5-9.7-9.9-15.2-14.2
					c-5.7-4.3-12.1-3.5-18.2-0.3c-0.6,0.3-0.9,1.2-1.2,1.9c-0.4,1-0.5,2.3-1.1,3.2c-0.7,1-1.8,1.8-2.8,2.7c-0.7-0.9-1.6-1.8-2.1-2.8
					c-2.4-5.3-4.5-10.9-7.2-16c-2.8-5.2-6.7-9.7-12.1-12.6c-6-3.3-11.9-2.1-15.9,3.5c-2.1,2.9-3.6,6.3-5.1,9.5
					c-5,11.2-6.8,23.1-7.9,35.2c-1.6,17.7-4.2,35.3-5.9,52.9c-1,10.3-0.5,20.6,4.8,30c0.3,0.6,0.4,1.3,0.7,2.7
					c-3.5-1.8-6.5-3.2-9.3-4.8c-6.3-3.7-12.9-6-20.3-4.7c-7,1.3-13.8,3.1-20.8,4.6c-2,0.4-4.1,0.5-6.2,0.7c3.5-2.7,6.9-5.5,10.7-6.9
					c5.5-2,9.5-5.5,13.1-9.8c3.8-4.5,3.4-7.8-1.4-11.4c-3.1-2.3-6.3-4.4-9.3-6.8c-4.6-3.6-8.9-4.5-13.7-1.4
					c-9.3,6.1-19.9,9.2-30.2,12.8c-4.5,1.6-9.2,3-13.8,4.4c0.7-1.1,1.6-1.7,2.6-2.1c11.8-4.4,22.8-10.4,33.5-17
					c7.3-4.5,15.1-7.5,24-7.4c4.9,0.1,9.3-1.9,12.8-5.4c3.4-3.4,4-6.8,2-11.1c-2.1-4.5-5.4-7.8-10.4-9c-4.2-1.1-7-3.3-7.3-8.1
					c-0.1-2.1-1.2-4.1-2.1-6c-8-17.3-22.2-27.6-39.6-33.8c-4.5-1.6-9.7-2.3-14.5-2c-8.5,0.5-15.9,3.9-21.6,10.6
					c-0.4,0.5-1,1-1.6,1.2c-4,1-3.8,4-2.6,6.6c2.3,4.9,4.7,9.8,7.8,14.1c4.3,6.1,4,16.2-1.7,20.7c-6.8,5.4-14.1,10.2-21.1,15.3
					c-5.5,4-11.2,7.6-16.5,11.9c-4.3,3.6-3.7,6.9,1.3,9.4c2,1,4,2.1,6,3.1c6.7,3.5,13.8,5,21.3,3.3c1.9-0.4,3.9-0.4,5.8-0.6
					c0.2,0.3,0.3,0.7,0.5,1c-1.5,1.7-2.9,3.6-4.6,5.2c-5.7,5.5-11.4,11-17.1,16.5c-2,2-3.2,4.4-1.8,7c1.7,3.4,3.7,6.6,5.7,9.8
					c1.2,2,2.7,3.9,4.2,6.2c-2.5,1-4.1,1.7-5.8,2.3c-14.5,5.7-29.1,11.1-43.5,17.1c-7.4,3.1-14.5,6.8-21.4,10.8
					c-5.3,3-5.7,5.5-2.9,11c1.1,2.2,2.4,5.4,4.1,5.8c6.3,1.6,12.9,4.5,19.3-0.5c2.4-1.8,5.4-2.8,8.1-4.2c8.9-4.6,18.1-8.8,26.7-14.1
					c12.4-7.6,25.7-12.8,39.5-16.7c2.9-0.8,6.1-0.8,9.5-1.2c-0.4,1.2-0.4,1.4-0.5,1.6c-0.5,0.6-1,1.2-1.6,1.8
					c-13.9,13.2-23.7,29-29.8,47.1c-4.2,12.4-8.2,24.9-12.1,37.4c-5.3,16.9-8.3,34.5-16.1,50.6c-0.8,1.5-0.6,4.2,0.2,5.8
					c2.6,5,5.3,10,8.7,14.5c2.7,3.5,6.3,6.4,9.9,9.2c2.4,1.9,3.5,1.1,4.5-1.9c0.5-1.6,1.6-3.6,2.9-4.1c3.5-1.4,4.5-3.8,4.3-7.2
					c-0.2-2.8,0-5.7-0.6-8.4c-2.1-9.8-3.5-19.6-2.9-29.6c0.1-1.2,0.4-2.5,0.6-3.9c5.7,3.8,8.9,8.1,10.3,13.4c0.2,0.7,1,1.3,1.7,1.7
					c2.4,1.4,5.1,2.3,7.1,4c8.9,8,17.2,16.8,26.6,24.2c12.6,10,26,18.9,39,28.3c7.4,5.4,10,5.1,15.7-2.1c0.4-0.4,0.7-0.9,1-1.4
					c3.7-6.5,7.5-12.9,11.1-19.4c0.6-1.1,0.8-2.6,0.7-3.9c-1.7-22.7-3.5-45.3-5-68c-1.2-17.4-1.9-34.8-2.8-52.2
					c-0.4-8.2-2-15.8-8.2-22c-13-12.8-32.9-14.8-46.1-4.2c-11.2,8.9-22.4,17.8-33.5,26.6c-0.3-0.1-0.7-0.2-1-0.2
					c0-1.5-0.5-3.3,0.1-4.6c2.7-6.2,4.7-13,8.7-18.2c9.6-12.6,22.2-20.5,38.7-21.7c14-1,27.8-3.6,41.8-4.8
					c9.5-0.8,19.2-1.4,28.3,3.2c1.6,0.8,3.7,0.8,5.6,1c2.1,0.3,3.5-0.5,3.8-2.8c0.3-1.8,0.7-3.6,1.3-6.3c1.5,1.4,2.5,2.3,3.3,3.2
					c5.6,6.6,13.8,8.7,22,5.9c2.7-0.9,5.5-1.2,8.3-1.7c0.2,0.4,0.3,0.7,0.5,1.1c-4.4,4.6-8.8,9.2-13.3,13.7
					c-2.2,2.3-4.7,3.6-7.6,0.8c-0.5-0.5-1.5-0.6-3.1-1.2c1.2,2.5,2.2,4.1,2.8,5.9c0.3,0.9,0.5,2.3,0,2.9
					c-6.2,7.4-13.7,12.8-23.4,14.4c-3.1,0.5-6.2,4.2-6.2,7.5c-0.1,4.6-0.1,9.3-0.2,13.9c-0.6,22.6-1.3,45.3-1.9,67.9
					c-0.3,10.6-0.6,21.3-0.6,31.9c0,1.9,1.1,4.2,2.5,5.6c5.6,5.8,12.2,10,19.7,13c7.2,2.9,14.3,6.1,21.4,9.3
					c15.3,7,31.1,12.6,48.3,12.1c13.9-0.4,27.9-0.8,41.7-2.2c7.1-0.7,13.9-3.5,20.8-5.5C518.5,346.5,519.8,344.3,519.5,341.9z
					 M284.1,311.2c-8.7-7-17.4-14-26-20.9c0.2-0.4,0.5-0.8,0.7-1.2c9.5-0.7,13.8,7.5,19.8,12.8l-13.4-9.1c-0.1,0.1-0.2,0.2-0.3,0.3
					l20.1,17C284.7,310.5,284.4,310.9,284.1,311.2z M303.6,282.8c-1.3,6.1-4.2,11.5-8.4,16c-2.9,3.2-6.7,0.7-9.4-0.4
					c-5.3-2.3-10.2-5.6-15-8.8c-1.3-0.8-2.5-3-2.3-4.4s2-2.9,3.5-3.6c3.4-1.7,7.1-2.9,10.6-4.3c0.1,0.3,0.3,0.6,0.4,1
					c6.1,0.5,12.2,0.9,18.2,1.4C303.1,279.7,304,280.9,303.6,282.8z M269.8,193.7c5.7-4.7,12-8.2,19.5-8.8c2.9-0.3,5.8-0.1,8.7,0.2
					c0.7,0.1,1.8,1.7,1.8,2.6c0.3,7.9,0.5,15.8,0.5,23.7c0,2.9-0.3,5.9-0.6,9.5c-5.6-4.8-10.3-10.1-16.2-13.5
					c-5.9-3.5-12.9-5.1-20.5-7.9C265.6,197.4,267.6,195.5,269.8,193.7z M268.8,228.7c0.7-0.6,2.2-0.7,3-0.4c8.5,2.9,17,5.9,25.5,9
					c0.6,0.2,1.5,0.9,1.6,1.4c1.2,7.6,2.2,15.1,3.4,23.3c-4.9-1.7-40-23.6-42-26.1C263.1,233.5,265.9,231,268.8,228.7z M252.5,240.5
					c-3.6,0-4.9,1.5-3.1,4.6c2.3,4,5.1,7.7,8.1,11.2c5.3,6.3,5.6,11.2,0.6,17.6c-0.3,0.4-0.8,0.7-1.2,1c-1.5-2-2.8-3.8-4.2-5.6
					c-0.2,0.1-0.4,0.2-0.6,0.3c0.7,1.6,1.3,3.2,2.2,4.7c2.2,3.8,1.4,5.9-3.3,8c-0.8-3.9-1.6-7.8-2.4-11.6c-0.4,0-0.8,0.1-1.2,0.1
					c-0.4,0.7-0.8,1.4-1.3,2.2c-3.4-2.4-4.9-5.5-4.8-9.3c0.2-12.1,0.7-24.1,5-35.7c1.5-4.1,2.7-8.4,3.8-12.7
					c0.8-2.9,1.1-5.9,1.8-9.5C262.5,217.5,257.4,229,252.5,240.5z M275.1,132.5c-3.4,2.9-7.1,5.6-10.6,8.5c-1.9,1.6-3.8,1.7-5.2-0.1
					c-1.5-1.8-2.6-4-3.8-6.1c-0.3-0.6-0.3-1.3-0.6-1.9c-2.1-6.2-2.2-6.3,4.5-7.6c4-0.8,7.7-1.8,12.1-0.9c3.2,0.7,7.1-1.6,10.7-2.6
					c1.5-0.4,2.9-0.9,4.4-1.3l0.6,1.1C283.2,125.2,279.2,128.9,275.1,132.5z M432,227.3c2.5,2.4,4.5,5.1,6.8,7.8
					c-0.3,0.5-0.7,1-1,1.4c-3.1-1.8-6.3-3.5-9.1-5.6c-0.8-0.6-0.5-2.8-0.6-4.3C429.3,226.7,431.2,226.5,432,227.3z M422.3,334.9
					c-11-3.6-21.7-7.7-31.5-14c-5.6-3.6-9.2-8.1-9.8-15c-1.7-21.1-1.6-42,4.4-62.6c1-3.4,2.5-6.8,4.1-10c2.9-5.5,4.4-11.3,4.8-17.5
					c0.3-5.9,0.6-5.9,6.2-7.6c2.9-0.9,5.8-2,8.4-3.6c3-1.8,5.6-2.1,8.4,0l0,0c3.3,2.3,3.4,6.2,4.8,9.4c0.2,0.4,0,1.2-0.3,1.6
					c-2.7,3.7-5.4,7.4-8.4,10.9s-6.2,6.9-9.3,10.3c-2.6,2.9-2.6,6-0.6,9c1.5,2.3,3.3,4.3,5.1,6.3c1.8,2,2.9,3.9,1.6,6.7
					c-0.5,1-0.1,2.5-0.1,4.9c4.2-5.8,8.7-3.6,13.4-2.9c7.6,1.2,15.2,1.6,22.9,2.2c1,0.1,2-0.3,3-0.6c5.4-1.6,6.3-1.4,9,3.4
					c2.2,3.8,4.1,7.8,6.1,11.7c-0.2,0.3-0.4,0.5-0.6,0.8c-2.1-0.9-4.3-1.6-6.2-2.6c-12-6.6-23.4-5.3-34.5,2.3
					c-4.4,3-9.2,5.5-14.7,8.7c-0.6-6.1-1.1-11-1.7-17.2c-2,1.5-3.9,2.1-4.6,3.4c-4.5,8.2-8.9,16.5-13.1,24.9
					c-0.7,1.4-0.3,3.6,0.3,5.2c3.8,10.3,17.4,18.5,28.2,17.1c1.7-0.2,3.3-1.2,4.9-2.1c3.7-2.1,7.4-4.3,11.7-6.8
					c0,2.2,0.3,3.6-0.1,4.7c-1.9,5.4-3.9,10.8-6,16.2C427.2,335,425.2,335.8,422.3,334.9z M473.5,332.2c-5.1,2.4-10.9,3.9-16.5,4.5
					c-7.9,0.8-16,0.4-24,0.2c-1.4,0-2.7-1.2-4.1-1.9c0.8-1.4,1.6-2.7,2.4-4.1c0.3,0.1,0.6,0.2,0.9,0.3c0.1,0.8,0.3,1.7,0.4,2.6
					c3.5-1.4,6.7-2.8,8.5-6.2c0.5-0.9,1.6-1.6,2.6-2.1c10.1-4.7,16.9-13,23.5-21.6c5.5-7.2,6.5-7.1,10.2,1.1
					c1.3,2.9,2.6,5.8,3.5,8.8C483.5,321.8,481.2,328.5,473.5,332.2z M490.6,316.2c-4.7-1.5-13.4-18.5-13.8-28.7
					c3,4.8,6.1,9.7,9.1,14.5c1.5,2.5,2.9,5.1,4.4,7.6C491.5,311.7,492.2,313.9,490.6,316.2z"/>
			</defs>
			<clipPath id="SVGID_2_">
				<use xlink:href="#SVGID_1_"  style="overflow:visible;"/>
			</clipPath>
			<path class="st3" d="M261.4,29.6c19,5,47,22.1,43,26s-74.5,36.5-74.5,36.5c17.5-9.5,73.5-28.5,98.5-26.6c-2,0-108,47.1-108,47.1"
				/>
			<path class="st3" d="M230.2,121.3c1.2,9.4,15.3,26.4,19.3,29.4c-2-8,4-45,79-41c-24,19-144,76.1-156,84.1
				c50.5-28.2,147.8-76.9,195-43.1"/>
			<path class="st3" d="M347,144.1c-110-4.9-108.4,52.7-114.7,99.6c-2.2,16.5-22.2,43.5-1.7,77"/>
			<path class="st3" d="M239,188.2c15-18,63.7-27.9,75-18c7.5,6.5,19.6,165.7,8.1,161c-13.5-5.5-63.5-0.5-91.5-53.4"/>
			<path class="st3" d="M261.7,205.9c9.8,4.7,37.9,22.7,37.9,22.7L265.1,218l-17.9,22.5c0,0,52.4,30.6,49.4,30.3
				c-3-0.3-32.8,0-32.8,0l42.9,30.7"/>
			<path class="st3" d="M397.4,24.6c-9,55-15.5,118.3,0.1,112.4c25-9.4,59,1.7,71.5,13.1"/>
			<path class="st3" d="M460.5,153.5c-11,5-35.5,15.5-78.4,45.3c-2.6,1.8-36.8,84.8-11.5,124.7c26,41,112.2,48.2,129,9.9
				c7.5-17-1.2-36.2-9.8-53.1c-8.7-17.1-14.3-26.9-14.3-26.9"/>
			<path class="st3" d="M408.4,63.6c24-13,21-22,34-15s39,36,13,41s-44-6-46,13c-1.1,10.8,10.5,94.9,63.6,109.3
				c-52-2.6-59.7,22-54.1,29.4s40.2,1.5,45.4,7.4c5.2,5.9-92.7,10.1-71.7,51.9c9,18,74-39,74-39s-16.5,62.6-28,74"/>
		</g>
	</g>
	<g class="st2">
		<g>
			<defs>
				<path id="SVGID_3_" d="M587,157.7c1.3,1.8,3.2,3.1,4.9,4.6c0.6-0.4,1.1-0.7,1.7-1.1c-0.9-2.6-1.2-5.6-2.7-7.6
					c-4.7-6.3-4.9-13.3-4.6-20.6c0.2-4.7,0.1-9.5,0-14.2c-0.1-17-0.4-33.9-0.4-50.9c0-6.4-2.2-10.3-9-13.4
					c-1.2,7.9-2.7,15.5-3.5,23.2c-1.9,18-0.1,35.9,2.8,53.7C577.8,141,581.3,149.8,587,157.7z M897.2,330.1
					c-5.1-5.8-10.4-11.6-16.3-16.7c-3.1-2.7-7.5-4.1-11.4-5.8c-0.9-0.4-2.2,0.3-3.7,0.6c-2.4-2.3-5.3-5.1-8.3-7.9
					c-0.3,0.2-0.7,0.5-1,0.7c0.4,1.7,0.7,3.4,1.1,5.1c0.9,4.3-0.1,5.7-4.6,5.5c-4.7-0.2-9.5-0.7-14.2-0.9c-8.5-0.2-17-0.2-25.4-0.3
					c-1.1,0-2.2-0.5-3.6-0.8c0.5-0.8,0.6-1.3,0.9-1.6c5.9-3.7,11.8-7.4,17.8-11c2.3-1.4,4.7-2.7,7-4.1c1.8-1.1,1.9-2.8,0.6-4.3
					c-1-1.3-2.2-2.7-3.6-3.6c-3.6-2.3-7.4-4.4-11-6.6c-1.6-1-3.2-2.2-4.7-3.2c4.9-2.8,9.3-5.2,13.6-7.9c3.1-2,3.5-4,1-6.7
					c-2.5-2.9-5.4-5.4-8.5-7.7c-3.2-2.4-6.8-4.2-10.4-6.4c6.3-9,14.8-15,24-20.5c2.8-1.7,5.9-4.4,6.7-7.3c1-3.5-2.2-6.4-5.4-8.2
					c-0.5-0.3-0.9-0.7-1.5-0.8c-4.3-1.5-8.6-3.4-13.1-4.4c-6.1-1.3-9.5-5.5-13.1-10.8c2.6-0.9,4.7-1.6,6.8-2.2
					c6.3-1.9,12.1-4.5,16.2-9.9c5.9-7.8,6.1-14,0.7-22c-7-10.4-16.6-18-27.1-25.3c0.9-1,2-2.3,3.2-3.4c4-3.4,5.9-2.9,9.3,1
					c2.5,3,5.8,5.4,8.6,8.1c2.1,2.1,4.3,4.2,6.1,6.7c5.1,7.2,9.9,14.6,14.9,21.8c1.9,2.8,4.6,3.6,8,2.5c4.2-1.3,7.4-4,9.9-7.3
					c3.5-4.7,6.7-9.6,10-14.5c0.2-0.3,0.2-0.9,0.3-1.3c1.2-9.7,2.2-19.5,2.3-29.2c0-11-1.6-22.1-2.4-33.1c-0.3-4.4-0.8-8.9-0.2-13.2
					c1.3-9.6,3.2-19.1,4.9-28.6c1-5.6,2-11.3-1.1-16.5c-6.5-10.7-15-19-26.9-23c-5.5-1.9-11.5-3.3-16.9-0.8
					c-11.5,5.4-22.2,12.2-30.8,21.8c-1.2,1.3-2,2.9-3,4.4c2.2,0,4.3,0.1,6.5,0c0.7,0,1.5-0.5,2.2-0.8c3.9-1.8,7.7-3.9,11.6-5.5
					c6.4-2.7,13.1-4.1,20.3-2.7c-0.8,12.1-1.6,24.1-2.4,36.6c-3.5-2.4-6.4-4.5-9.4-6.4c-8-5.2-16.2-6-24.5-0.7
					c-6.1,3.9-12.2,7.8-18.2,11.8c-1.2,0.8-2.1,2-2.6,2.5c4,2.3,7.4,5,11.2,6.5c3.5,1.4,2.7,3.4,1.8,5.6c-1.7,4.2-3.8,8.2-5.7,12.3
					c-0.5,1-0.9,2-1.3,3c1.3-0.5,1.9-1.3,2.6-2c6.3-5.8,12.4-12.1,21.6-13.1c8.2-0.9,16.4-1.6,25.1-2.4c0.8,9.3,1.1,19-0.4,28.6
					c-0.3,2.4-2,1.8-3.5,0.7c-4.1-3-8.1-6.2-12.4-8.8c-6.6-4-13.4-4.2-20.3-0.6c-2.2,1.1-4.5,2-6.9,2.8c-0.8,0.3-2.3,0.2-2.7-0.3
					c-2.1-2.8-3.8-1.2-5.2,0.4c-1.8,2.2-3.3,4.6-4.6,7.1c-2.9,5.3-1.6,8.9,4.3,10.6c4,1.1,8.2,1.5,12.3,2.5c1,0.2,2.5,1.7,2.4,2.2
					c-1,3.5-2,7-3.7,10.1c-0.8,1.5-3,2.6-4.8,3.3c-3.4,1.4-7.1,2.2-10.5,3.6c-2.7,1.1-5.1,2.9-7.7,4.3c2.7-6.2,3.7-12.2,0.6-18.4
					c-0.2-0.4-0.1-0.9-0.1-1.3c-1.4-11.7-0.7-23.3,0.9-34.8c1.7-11.7,4-23.3,5.9-35c0.4-2.8,0.9-5.7,0.4-8.4
					c-1.7-10.1-7.3-18.1-15.8-23.4c-3.3-2.1-7.8-3.1-11.8-3.3c-8.3-0.3-16.2,2.2-23,7c-9.7,6.8-19.2,14-28.7,21
					c-1.8,1.3-3.6,2.5-5.3,3.7c-0.6-0.4-0.9-0.4-1-0.6c-0.3-0.5-0.7-0.9-0.8-1.5c-1.8-5.9-6-9.7-10.7-13.2
					c-6.7-5-14.1-8.5-22.2-10.4c-3.2-0.7-6.8-1.2-9.9-0.6c-17.2,3.7-31,13.2-42.5,26.2c-0.3,0.4-0.5,0.9-0.8,1.7
					c4.4,1.4,8.6,3.6,12.9,3.9c4.3,0.4,8.7-1.1,12.6-1.7c0,5.7,0.1,11,0,16.3c-0.3,7.8-0.4,15.6-1.2,23.4c-1,10.1-3.4,19.9-9,28.5
					c-1.5,2.3-3.6,5.3-5.8,5.7c-3.7,0.7-6.5,2.6-9.6,4.4c-2.3,1.3-3.2,3-3.4,5.4c-0.2,1.8-0.5,3.5-0.8,5.3c-0.3,2-1,4.1-0.7,6.1
					c0.7,4.6,2.6,9,2.8,13.6c0.8,17.4,1,34.8,1.5,52.2c0.5,16.1-1.7,32.3,1,48.4c1.1,6.6-1.9,12.7-6.5,17.5
					c-1.2,1.2-3.4,1.8-5.1,1.7c-0.7,0-1.3-2.6-1.8-4.1c-0.2-0.6-0.2-1.4-0.1-2c1.4-9.2-2.5-17.3-6-25.3c-2.6-5.9-2.4-10.1,2.3-14.5
					c3.9-3.6,6.3-7.6,5.6-13c-0.1-0.6,0.2-1.3,0.3-2c1.1-10.9,0.2-21.6-5.2-31.3c-2.3-4.1-6-7.5-9.6-10.7c-2.5-2.1-4.5-1.2-5.1,2.1
					c-0.8,4.1-1.5,8.3-1.5,12.4c0.2,20.8,0.7,41.6,1,62.4c0.1,10.2,0.3,20.4,0,30.5c-0.2,7.3-4.5,12.1-11.4,13.8
					c-1.5,0.4-3.2,0.3-4.7,0.6c-4.1,0.8-4.8,3.3-2.2,6.5c0.8,1.1,1.1,2.6,1.6,3.9c0.4,1.2,0.5,2.7,1.2,3.7c3,4.9,5.8,9.9,9.3,14.4
					c4.5,5.9,10.7,9.7,17.9,11.7c3.9,1.1,5.8-0.1,7.8-3c3.7-5.5,7.2-11.3,11.6-16.2c5.7-6.3,12.2-11.8,18.3-17.6
					c0.8-0.8,1.9-1.5,2.3-2.4c1.8-4.5,5.7-6.8,9.5-9.3c1.8-1.2,3.2-3,4.7-4.6c1.7-2,3.2-4.2,5-6.1c2.2-2.3,4.6-4.3,7-6.3
					c3.2-2.8,6.4-5.6,9.7-8.4c3-2.5,7.2-4.2,6.6-9.3c-0.1-0.6,0.4-1.3,0.8-1.8c3.1-3.4,6.1-6.9,9.3-10.2c0.8-0.8,1.8-1.4,2.8-2.1
					c-0.1-0.2-0.2-0.4-0.3-0.6c-1,0.2-2,0.4-3.8,0.7c2.7-3.2,4.9-5.8,7.7-9.1c-2,0.9-3.3,1.4-4.4,2c-10,5.1-19.9,10.3-29.9,15.3
					c-6.3,3.2-7,2.6-6.6-4.6c0.3-5.7,2.5-8.7,7-10.1c3.1-1,6.1-2.3,9.1-3.5c2.6-1.1,5.1-2.9,7.8-3.3c5.6-0.9,9.1-4.4,12.6-8.3
					c0.9,0.3,1.8,1.1,2.7,1c6.3-0.3,9.5,3.5,12.4,8.3c1.2,2.1,3.1,3.8,4.7,5.7c0.3-0.2,0.6-0.3,0.8-0.5c0.1-1.4,0.1-2.9,0.2-4.3
					c0.3,0,0.6-0.1,0.8-0.1c0.3,1.5,0.9,2.9,0.9,4.4c-0.2,5-0.7,9.9-1.2,14.8c-0.1,1.3-0.4,2.7-0.9,3.9c-1,2.1-2.8,4.1-3.2,6.2
					c-1.6,10.9-2.8,22-4.3,32.9c-1.1,8.1-0.8,16.6-5.7,23.8c-0.4,0.7-0.6,1.9-0.3,2.6c2.5,6.9,3,14.6,7.9,20.5
					c3.3,3.9,6.5,7.8,9.9,11.6c5.7,6.3,7.9,6.5,14.9,1.5c1-0.7,2.2-1.4,2.8-2.4c3.2-5,8.3-6.7,13.6-8c8.3-2.1,16.5-4.4,24.8-6.6
					c1-0.3,2-0.4,3-0.6c-0.2,0.6-0.3,1.1-0.5,2c3.6-0.9,7-1.7,10.4-2.6c0.9-0.3,1.8-1,2.5-1.7s1.2-1.6,1.8-2.5
					c0.7,0.9,1.3,1.7,2.1,2.7c2.1-0.4,4.3-0.8,6.5-1.3c0-0.2,0-0.4-0.1-0.6c-0.9-0.2-1.8-0.4-2.7-0.6c1.6-0.8,4-1.8,4.8-1.1
					c2.4,2.2,5,1.2,7.6,1.2c9.7-0.2,19.4-0.8,29.2-0.7c9.7,0.1,19.6-0.3,29,1.6s19.2,2.2,28.3,5.8c2.6,1,7.9-0.5,8.2-2.4
					C898.7,334.3,898.4,331.4,897.2,330.1z M680.7,198.9c-0.5,0.4-1.1,0.8-1.2,0.9c-4.4-2-8.4-4.2-12.7-5.5c-3.2-1-6.8-1.3-10.3-1.2
					c-3,0-4.6-0.3-4.4-3.9c0.3-4.5-0.1-9.1,0.1-13.6c0.1-1.3,0.9-2.9,2-3.8c5-4.4,10.2-8.6,15.2-12.9c2.7-2.3,4.3-5.1,3.9-8.9
					c-0.1-1.1,0.6-2.8,1.5-3.5c2.8-2.3,6.1-4.2,8.9-6.6c1.9-1.6,3.7-3.7,4.9-5.9c4-7.2,5.8-15.2,6.3-23.4c0.7-12.1,1.3-24.2,2-36.2
					c0.1-1.8,0.5-3.6,0.5-5.4c0.2-4.6,1.3-7.9,6.5-10c12.7-5.2,25-11.4,37.6-17c3.2-1.5,6.7-2.4,10.6-3.7c0.2,1.6,0.3,2.4,0.3,3.1
					c-0.1,25.6-0.1,51.1-0.6,76.7c-0.1,3.5-2.1,7.1-3.8,10.4c-1,2.1-3.7,2-5.6,0c0.3-0.3,0.5-0.8,0.8-1c4.5-2.7,4.8-4.1,1.6-8.4
					c-4-5.2-9.2-8.6-15.5-10.3c-2.4-0.6-4.8-1.3-7.9-2.2c3.4-4.2,6.2-8.3,9.5-11.9c1.4-1.5,3.8-2.2,5.9-3c4.2-1.6,8.5-3.1,13.2-4.8
					c-1.2-2.9-1.9-6.3-3.8-8.7c-5-6.1-11.4-10.5-19.2-11.9c-3.9-0.7-8.2,0.2-12.2,1c-3.1,0.6-5.9,2.1-8.9,3.2
					c-3.5,1.3-5,4.4-2.6,7.2c2.4,2.8,5.5,5.5,8.8,7.1c2.8,1.3,2.3,2.7,1.4,4.4c-2.5,4.8-5.2,9.5-7.9,14.2c-1.7,3-3.7,6-5.3,9.1
					c-2,4-1.6,6.9,1.7,9.8c2.5,2.2,5.5,3.9,8.4,5.6c4,2.3,4.5,3.4,2.7,7.6c-1.7,3.9-3.6,7.7-5.1,11.9c5.6-5.2,13.3-5,19.6-8.3
					c2.6-1.3,4.9-3.2,7.2-4.9c1.2-0.9,2.4-2,3.7-0.1c3.8,6,7.6,12,11.5,18.3c-4,2.3-7.4,4.3-10.8,6.3
					C718.8,170.8,699.2,184.1,680.7,198.9z M776.5,208.7c-7,7.1-14.2,14-24.1,16.9c-3.4,1-6.8,2.5-10.1,4c-1.4,0.6-2.6,1.7-4,2.6
					c0.6,0.7,0.9,1.1,1.2,1.3c8.7,4,17.5,8,26.2,12c1.3,0.6,2.5,1.4,4.4,2.6c-3.8,3.9-7.1,7.5-10.6,11.1c-1.6,1.6-3.4,3-4.9,4.7
					c-6.4,7.1-6.6,14.5-0.8,22.1c0.7,0.9,2.1,1.4,3.3,1.7c1.3,0.3,2.6,0.2,4,0.3c0.1,0.3,0.3,0.6,0.4,0.8c-1.4,1.1-2.7,2.5-4.3,3.3
					c-2.2,1.2-4.6,1.9-6.8,3.1c-3.6,2-4.4,4.6-1.8,7.8c2.6,3.2,5.7,6.1,8.9,8.6c3.8,2.9,4.1,5.1-0.1,7.3c-4.7,2.4-9.8,4-14.7,5.9
					c-2.3,0.9-4.8,1.5-7,2.6c-2.6,1.4-3.9,0.4-4.3-2.1c-1.1-6.1-2.5-12.2-3.1-18.4c-1.9-19.2-0.4-38.4,1.8-57.5
					c0.2-1.6,0.8-3.3,1.4-4.8c2.3-5,1.8-9.7-1.8-13.9c-4.8-5.6-9.7-11.1-14.5-16.6c-0.6-0.7-1.3-1.5-2.6-3.1
					c5.8-1.1,10.8-2.1,15.9-2.9c2.6-0.4,5.1-0.8,7.7-1c1.9-0.1,3.9,0.3,5.8,0.3c1.1,0,2.2-0.2,3.2-0.4c1.1-0.3,2.2-0.9,3.3-1.3
					c0.2,0.3,0.3,0.7,0.5,1c-2.7,1.3-5.4,2.6-8.1,3.9c0,0.1,0.1,0.3,0.1,0.4c1.5-0.3,3.1-0.4,4.5-0.8c7.5-2.1,14.9-4.3,22.4-6.4
					c1-0.3,2.7,0.1,3.3,0.8c0.5,0.6,0,2.1-0.1,3.4c1.7-0.4,3.6-0.7,6.2-1.2C777,207.7,776.9,208.3,776.5,208.7z"/>
			</defs>
			<clipPath id="SVGID_4_">
				<use xlink:href="#SVGID_3_"  style="overflow:visible;"/>
			</clipPath>
			<g class="st4">
				<path class="st5" d="M582.4,61.4c-6.4,37-1,82,6.2,93.8"/>
				<path class="st5" d="M626.9,25.9c16.5-8.5,43.5,8.4,41.5,22.5c-6,42,7,84-30.4,97.5"/>
				<path class="st5" d="M627.5,141.4c6.5,20.5,5.5,20.5,2.9,122.8"/>
				<path class="st5" d="M634.4,215.8c7.1-1.8,31.4,2.7,28.1,1.6"/>
				<path class="st5" d="M588.5,185.4c5,17,2.2,106.5,2.2,106.5"/>
				<path class="st5" d="M577.1,314c23,23,57-52,101.5-64.6"/>
				<path class="st5" d="M697.4,51c25.5-18.1,52.9-28.7,66.5-19.2c10,7,3.5,31.5,3.3,62.3c-0.2,24.8-1.7,49.2-10.2,44.7"/>
				<path class="st5" d="M711.8,74c61.1,9.8,5.1,10.4-2.2,34.3c-2.5,8.2,2.1,6.5,8.8,8.2c13.5,3.4,32.7,5.1-1.2,20.6"/>
				<path class="st5" d="M817.9,20.8c9-6,17.8-17.3,30-6c10.9,10.1,12.8,15.5,13.8,20.5c1.5,7.5-1.9,13.8,0.2,33.5
					c1.1,10.5-1.6,30.2-1.7,48c-0.1,22.2,1.8,41.5-5.3,37c-6.5-10.5-13.5-24.5-23.4-33.8"/>
				<path class="st5" d="M797.9,62.8c29-18,47.4,2.2,31,5c-18,3-32.5,20.7-35,28c-5,15,3.1,13.6,9,10c14.7-8.8,49.4,2.2,3.2,16.2"/>
				<path class="st5" d="M819,155.8c-63,38-101,8.1-136,34.1"/>
				<path class="st5" d="M690.8,203.7c9.2,8.2,28,23.4,28.2,34.9c0.3,19.6-16.4,78.8-0.9,103.3"/>
				<path class="st5" d="M777.6,178.7c15.4,18.2,30.4,26.2,28.4,30.2s-51,20-56,25c17,7,59-22,79.4-16.6
					c-9.9,6.1-65.4,49.6-68.4,58.6c22-5,46-21,62-14c-28,10-53,37-64,39c42-6,60-10,68-9c-33,12-93.2,41.7-97.1,45.4
					C825,312.9,862,319.9,888,329.9c-5-12-31.6-28.8-31.6-28.8"/>
			</g>
		</g>
	</g>
</g>
<path id="_x33_3" class="st6" d="M-150,801.4c-1.3,0-2.6-1.1-2.6-2.6s1.8-3.1,3.3-4.4c36.8-32.7,64.2-58.1,64.2-93.5
	c0-26.3-16.9-34-29.2-34c-8.8,0-14.3,2-19.7,7c-4.4,4.2-6.4,10.7-6.4,17.8c0,1.7-0.7,2.8-1.7,2.8c-0.7,0-1.3-0.7-1.5-2.4
	c-0.2-1.7-1.1-16.9-1.1-22.6c0-1.1,0.2-1.7,1.8-2.8c6.8-3.1,17.5-6.4,32.4-6.4c27.8,0,41.6,17.7,41.6,37.2c0,38.1-41.2,72.1-64,91.6
	c-0.9,0.7-0.6,1.3,0.4,1.3h13.4c3.1,0,24.8-0.2,31.5-0.9c13.4-1.3,19.3-7.9,21.5-17.7c0.6-2,1.1-2.8,2.2-2.8c0.9,0,1.1,1.7,1.1,2.8
	c0,3.5-3.7,17.8-5.5,24.1c-1.5,5-4.2,5.5-12,5.5H-150z M-11.5,727.8c-14.3-8.5-25.8-18.2-25.8-34.6c0-14,12.3-32.9,39.2-32.9
	c19.1,0,33.7,10.1,33.7,28.1c0,19.3-16,30.4-26.3,35.5c12.1,6.3,32,17.5,32,40.1c0,21.3-17.5,40.5-43.8,40.5
	c-23,0-41.8-13.4-41.8-35.7C-44.3,748.2-28.2,734.4-11.5,727.8z M27.1,768.3c0-20.1-15.8-28.9-32.4-37.5
	c-13.6,6.6-24.8,17.8-24.8,36.2c0,16.4,12,30.5,29.1,30.5C15.9,797.5,27.1,784.6,27.1,768.3z M-24.2,689.7
	c0,15.5,12.1,23.2,27.2,31.3c7.2-4.2,19.7-11.6,19.7-30.4c0-14-8.8-24.1-23-24.1C-16.8,666.5-24.2,679.6-24.2,689.7z M63.9,791.2
	c0-4.2,2.9-10.1,10.1-10.1c5.7,0,10.1,3.7,10.1,9.6s-4,10.7-10.3,10.7C66.9,801.4,63.9,795.8,63.9,791.2z M192.2,703.3
	c23.4,3.5,57.4,17.7,57.4,50.4c0,23.7-18,50.8-55.2,50.8c-5.5,0-12.3-0.7-16.9-3.3c-3.1-1.7-3.5-3.3-3.5-5.2
	c0-6.3-0.2-17.3,0.7-23.2c0.4-1.8,0.9-3.3,1.7-3.3c1.1,0,1.5,0.9,1.5,3.1c0,19.7,11.8,23.7,25.2,23.7c15.5,0,32.4-10.3,32.4-35.7
	c0-29.6-32.6-44-46.7-44.7c-3.7-0.2-5-1.3-4.8-3.3l4.2-46.9c0.2-1.8,1.5-2.4,3.5-2.4h43.2c5.2,0,8.5-0.4,10.7-0.7
	c2.2-0.2,3.3-0.6,3.9-0.6c0.7,0,1.3,0.4,1.3,1.8c0,1.7-0.6,9.8-2.4,23.2c-0.2,0.9-0.7,2-1.5,2s-1.1-1.1-1.1-2.4
	c0-7-1.7-11.8-16.2-11.8h-34.8L192.2,703.3z M327.4,746c-0.2,18.4,0,34.2,0.9,42.3c0.7,5.7,1.5,8.5,7.4,9.8
	c2.8,0.6,10.5,1.1,12.1,1.1c0.7,0,1.7,0.7,1.7,1.5c0,0.9-0.9,1.3-3.1,1.3c-13.8,0-25.6-0.6-26.5-0.6s-16.4,0.6-28.1,0.6
	c-2,0-3.1-0.4-3.1-1.3c0-0.7,0.7-1.5,1.5-1.5c2.2,0,11.2-0.6,14.7-1.3c6.1-1.1,7.4-3.9,7.7-9.6c0.6-8.1,0.6-23.9,0.6-42.3v-32.2
	c0-9.9,0-17.8,0-28c0-3.7-0.4-5.7-3.3-5.7c-3.5,0-16.4,6.6-21,8.8c-0.9,0.6-1.5,0.7-2.2,0.7c-0.6,0-1.3-0.9-1.3-1.7
	c0-0.6,0.6-1.3,1.3-1.8l35.5-23.7c1.7-1.1,3.1-2.2,4.4-2.2c1.5,0,2,2,2,3.9c0,1.5-0.7,19.7-0.9,47.8L327.4,746z M382.8,791.2
	c0-4.2,2.9-10.1,10.1-10.1c5.7,0,10.1,3.7,10.1,9.6s-4,10.7-10.3,10.7C385.7,801.4,382.8,795.8,382.8,791.2z M533.9,726.9
	c-4.8,0-9.6,0.4-13.8,2.4c-0.6,0.2-1.8,0.7-2.4,0.7c-0.6,0-0.7-0.6-0.7-1.5c0-0.9,0.6-1.5,1.7-2.2c3.7-2.6,11-6.4,21.3-6.4
	c25.6,0,37,21,37,37.3c0,14.5-5.2,27-13.2,35c-8.6,8.3-18.2,12.3-31.8,12.3c-25.8,0-43.2-19.5-43.2-53c0-35.7,28-74.5,63.7-90
	c1.7-0.7,3.1-1.3,3.9-1.3s1.5,0.6,1.5,1.7c0,1.5-1.7,2.2-3.5,3.3c-23.5,13.1-49.5,42.7-49.5,86.3c0,21.5,9.6,46,30.7,46
	c14.7,0,26.3-11.8,26.3-32C561.7,739.9,545.2,726.9,533.9,726.9z M593.7,801.4c-1.3,0-2.6-1.1-2.6-2.6s1.8-3.1,3.3-4.4
	c36.8-32.7,64.2-58.1,64.2-93.5c0-26.3-16.9-34-29.3-34c-8.8,0-14.3,2-19.7,7c-4.4,4.2-6.4,10.7-6.4,17.8c0,1.7-0.7,2.8-1.7,2.8
	c-0.7,0-1.3-0.7-1.5-2.4c-0.2-1.7-1.1-16.9-1.1-22.6c0-1.1,0.2-1.7,1.8-2.8c6.8-3.1,17.5-6.4,32.4-6.4c27.8,0,41.6,17.7,41.6,37.2
	c0,38.1-41.2,72.1-64,91.6c-0.9,0.7-0.6,1.3,0.4,1.3h13.4c3.1,0,24.8-0.2,31.5-0.9c13.4-1.3,19.3-7.9,21.5-17.7
	c0.6-2,1.1-2.8,2.2-2.8c0.9,0,1.1,1.7,1.1,2.8c0,3.5-3.7,17.8-5.5,24.1c-1.5,5-4.2,5.5-12,5.5H593.7z M796.4,761.2
	c7.6-2.8,15.8-5.9,24.2-9l0.8,2.2c-11.2,6.5-27,16-47.6,27.1c-0.5,1.9-1.7,3.3-3.1,3.9l-6.5-13c4.7-1.2,12.6-4,22.3-7.4v-53.5h-19.4
	l-1.1-4.3h20.5v-40.1l15.7,1.7c-0.5,2-1.7,3.6-5.7,4.2v34.3h5.1l6.5-9.3c0,0,7.6,6.7,11.9,11.2c-0.5,1.7-1.9,2.5-3.9,2.5h-19.7
	V761.2z M896.7,730c0,0,8.7,6.5,13.6,11.5c-0.3,1.7-2,2.5-4,2.5h-43.6v56.1c0,0.8-3.4,3.4-8.5,3.4h-1.6V744H808l-1.2-4.7h45.9v-60.9
	h-39.4l-1.2-4.7h74.4l7.3-9.1c0,0,8.2,6.5,13.3,11.3c-0.5,1.7-1.9,2.5-4.2,2.5h-40.1v60.9h26.7L896.7,730z M822.9,688
	c27.6,26.7,18,50.8,7.9,40.9c-0.2-12.6-5.6-29.1-10.2-40.1L822.9,688z M871.1,731.3c4.5-11.2,10.1-28.5,14-43.6l16.3,5.6
	c-0.8,1.7-2.6,3.1-5.7,2.9c-6.4,12.6-14.4,26.5-22,36.3L871.1,731.3z"/>
</svg>
