<svg xmlns="http://www.w3.org/2000/svg" xmlns:xlink="http://www.w3.org/1999/xlink" viewBox="0 0 705.89 1058.76"><defs><style>.cls-1{fill:none;}.cls-2{fill:url(#未命名漸層_13);}.cls-3{fill:url(#未命名漸層_13-2);}.cls-4{clip-path:url(#clip-path);}</style><linearGradient id="未命名漸層_13" x1="290.12" y1="253.76" x2="518.57" y2="253.76" gradientUnits="userSpaceOnUse"><stop offset="0" stop-color="#e7380d"/><stop offset="1" stop-color="#e4006e"/></linearGradient><linearGradient id="未命名漸層_13-2" x1="424.15" y1="323.85" x2="555.72" y2="323.85" xlink:href="#未命名漸層_13"/><clipPath id="clip-path" transform="translate(190.95 15.21)"><rect class="cls-1" y="36.75" width="342.34" height="718.32"/></clipPath></defs><g id="圖層_2" data-name="圖層 2"><g id="圖層_1-2" data-name="圖層 1"><polygon class="cls-2" points="518.57 96.89 518.57 15.21 290.28 15.21 290.28 281.74 290.12 281.74 290.12 359.6 290.28 359.6 290.28 492.3 371.95 492.3 371.95 359.6 420.66 359.6 420.66 281.74 371.95 281.74 371.95 96.89 518.57 96.89"/><polygon class="cls-3" points="430.49 153.7 430.49 235.37 474.04 235.37 474.04 415.87 424.15 415.87 424.15 494 555.72 494 555.72 153.7 430.49 153.7"/><g class="cls-4"><image width="4899" height="7348" transform="scale(0.14)" xlink:href="../../../Users/xcatx/Downloads/20200311-%E5%A5%BD%E7%AB%99web-%E5%BB%A0%E5%95%86%E6%AA%94%E6%A1%88%E5%A4%BE(_F)/20200311-%E5%A5%BD%E7%AB%99web-%E5%BB%A0%E5%95%86%E6%AA%94%E6%A1%88%E5%A4%BE(_F)/Links/_D0A8954_OK.png"/></g></g></g></svg>