<?xml version="1.0" encoding="utf-8"?>
<!-- Generator: Adobe Illustrator 24.1.1, SVG Export Plug-In . SVG Version: 6.00 Build 0)  -->
<svg version="1.1" id="圖層_1" xmlns="http://www.w3.org/2000/svg" xmlns:xlink="http://www.w3.org/1999/xlink" x="0px" y="0px"
	 viewBox="0 0 300.1 271.6" style="enable-background:new 0 0 300.1 271.6;" xml:space="preserve">
<style type="text/css">
	.st0{clip-path:url(#SVGID_2_);fill:none;stroke:#FFFFFF;stroke-width:153;stroke-miterlimit:10;}
	.st1{clip-path:url(#SVGID_4_);fill:none;stroke:#FFFFFF;stroke-width:36;stroke-miterlimit:10;}
	.st2{fill:#DF007F;}
	.st3{fill:none;stroke:#E0007F;stroke-width:0.998;stroke-miterlimit:10;}
	.st4{fill:#DA007F;}
</style>
<g>
	<g>
		<defs>
			<path id="SVGID_1_" d="M271.3,26h25.5v-9.5h-28c0.3-5.5,0.4-11,0.1-16.5h-11c0,0,0.4,11.4-0.1,16.5H231V26h25.5
				c-1.3,6.7-4,13-8,18.6c-4.6,6.2-11.2,11.2-19.5,14.7l-0.4,0.2l0.3,0.2c2.5,2.1,4.7,4.5,6.4,7.3l0.1,0.2l0.2-0.1
				c6.7-3,12.6-7.3,17.6-12.6c3.1,3.1,8.4,8.6,10.7,12.3L264,67l8.2-5.9l-0.1-0.2c-2.9-4.3-10-10.7-12.9-13.2l-0.1-0.1l-1.2,0.8
				c2.8-4.4,5-9.2,6.5-14.3c6.1,16.1,15.1,26.9,27.4,33l0.2,0.1l0.1-0.2c1.7-3,3.9-5.7,6.5-8l0.3-0.3l-0.4-0.2
				C286,53.1,276.5,41.8,271.3,26z M269.4,110.2v-6.8c-0.1,0.1,16.7-20.7,16.7-20.7h-48.5v9.1h28.7c-0.2,0-7,8.3-7,8.3v10.1h-29v9.2
				h29v17.2c0,1-0.3,1.4-1.9,1.4c-0.5,0-1.5,0-2.8,0c-3.2,0-6.8-0.1-9.6-0.3h-0.4l0.2,0.4c1.7,2.8,2.9,5.8,3.7,8.9v0.2h0.2h2.1
				c4.8,0,10.2-0.2,13.8-1.6c3.6-1.4,4.7-3.8,4.7-8.9v-17.4h27.9v-9.2h-27.8V110.2z M188.5,125.3h7.2v22h-7.2V125.3z M201.6,125.3
				h6.7l8.7,12.2v-12.2h6.7v22H217l-8.7-12.1v12.1h-6.7V125.3z"/>
		</defs>
		<clipPath id="SVGID_2_">
			<use xlink:href="#SVGID_1_"  style="overflow:visible;"/>
		</clipPath>
		<line class="st0" x1="184.9" y1="77.2" x2="300.1" y2="77.2"/>
	</g>
</g>
<g>
	<g>
		<defs>
			<polygon id="SVGID_3_" points="194.1,3.5 159.1,81.2 156.8,81.2 122.3,3.5 108.6,3.5 74,81.2 71.6,81.2 36.6,3.5 0,3.5 
				64.4,146.6 80.9,146.6 115.4,70 149.8,146.6 166.3,146.6 230.8,3.5 			"/>
		</defs>
		<clipPath id="SVGID_4_">
			<use xlink:href="#SVGID_3_"  style="overflow:visible;"/>
		</clipPath>
		<polyline class="st1" points="12.5,-9 73,124.5 115.4,29.2 157.8,124.5 217,-5.9 		"/>
	</g>
</g>
<path class="st2" d="M61.8,209.1v3.9H38.3v-3.9h3v-11.8h3.9v11.8h3.8v-15.6h-9.8v-3.9h22v3.9h-8.3v5.3h6.8v3.9h-6.8v6.5H61.8z
	 M74,208.6c1.6-0.2,3.1-0.3,4.6-0.5l0.1,3.4c-4.4,0.5-9.1,1-12.6,1.4l-0.5-3.6c1.4-0.1,3.1-0.2,4.9-0.4v-1.4h-3.7v-3.2h3.7v-1.2
	h-4.1V200h2.4c-0.4-0.7-0.9-1.6-1.4-2.3l1.2-0.7h-2.8v-3.2H69v-1.3l-1.4,1c-0.3-0.8-1.2-2.1-1.9-3l2.2-1.6c0.4,0.4,0.8,0.9,1.1,1.4
	V188h2.9v5.8h0.7V188h2.9v2.5c0.4-0.5,0.7-1,0.9-1.4l2.9,1.7c-1.1,1.1-2.2,2.2-3,2.9l-0.8-0.5v0.6h3.1v3.2h-2.9l1.5,0.5
	c-0.4,0.8-0.8,1.7-1.2,2.4h1.9v3.2H74v1.2h3.7v3.2H74V208.6z M70.6,197c0.5,0.7,1,1.4,1.2,2l-1.5,0.9h2.4c0.4-0.9,0.8-2,1.2-3H70.6z
	 M89.2,198.4h-1.7v11.2c0,1.9-0.3,2.9-1.3,3.5c-1,0.6-2.4,0.8-4.4,0.8c-0.2-1-0.7-2.8-1.2-3.8c1.2,0.1,2.4,0.1,2.9,0.1
	c0.4,0,0.6-0.1,0.6-0.6v-11.2h-5.2v-3.7h5.2V188h3.6v6.7h1.7V198.4z M81.8,199.5c0.9,1.9,1.7,4.4,1.8,6l-3.3,1.2
	c-0.1-1.6-0.8-4.2-1.6-6.2L81.8,199.5z M103.7,189.9c-1.9,4.5-5,9.3-7.7,12.2c-0.7-0.9-2.4-2.7-3.3-3.4c2.6-2.4,5.3-6.4,6.9-10.2
	L103.7,189.9z M110.8,202.3c2.1,3.1,4.4,7,5.6,9.6l-3.8,2.2c-0.3-0.8-0.8-1.8-1.3-2.8c-11.8,1.1-13.8,1.3-15.2,1.9
	c-0.2-0.8-1-3.1-1.5-4.3c0.9-0.3,1.6-0.9,2.6-2.1c1.1-1.1,4.3-5.7,6.2-10.1l4.4,1.9c-1.8,3.4-4.2,6.8-6.5,9.5l8-0.6
	c-0.7-1.2-1.4-2.4-2.1-3.5L110.8,202.3z M111.2,188.6c1,3.6,3.3,7.3,6.5,9.3c-0.8,0.9-2.2,2.8-2.8,4.1c-2.9-2.4-5.1-5.9-6.5-9.3
	h-3.7v-4.1H111.2z M143.6,188.9V214H140v-0.9h-15.1v0.9h-3.5v-25.1H143.6z M140,209.5v-17h-15.1v17h3.3c-0.1-0.6-0.5-1.5-0.7-1.8
	c0.4-0.2,0.8-0.5,0.8-1.5v-0.4c-0.6,0.2-1.1,0.4-1.6,0.6c-0.4-0.5-1.2-1.6-1.7-2.1c1.4-0.3,2.9-0.8,4.2-1.3h-2.4v-3.9h11.7v3.9h-5.1
	c-0.7,0.6-1.5,1.2-2.4,1.7v1.7l2.8-0.6c-0.1,0.7-0.1,1.8,0,2.3c-3.5,0.9-4.6,1.2-5.2,1.5H140z M139.3,198.5h-13.8v-2.1h5.2v-0.7
	h-4.1v-2.1h4.1v-0.9h3.3v0.9h4.4v2.1h-4.4v0.7h5.2V198.5z M135.2,201.3v-0.7h-5.5v0.7H135.2z M139.8,204.6c-0.6,0.5-1.2,0.9-1.8,1.3
	c0.7,0.5,1.4,1.1,1.9,1.6l-2.3,1.5c-1.2-1.2-3.7-3.2-5.7-4.6l2.2-1.3c0.6,0.4,1.3,0.9,2,1.4c0.6-0.4,1.1-0.9,1.6-1.3L139.8,204.6z
	 M171.5,189.5v2.9h-22.9v-2.9h9.5c-0.1-0.4-0.3-0.7-0.4-1l3.7-0.9c0.3,0.6,0.6,1.3,0.8,1.9H171.5z M148.8,198.5h22.6v4.9H168v-2.4
	h-16.1v2.5h-3.2V198.5z M170.1,206.2c-0.9,0.4-2,0.8-3.1,1.2c0.9,1.6,2.3,2.8,4.5,3.3c-0.7,0.7-1.5,1.9-1.9,2.8
	c-2.6-0.9-4.3-2.8-5.3-5.3l-0.7,0.2c0.4,1.8,0,3.4-0.9,4.4c-0.9,0.8-1.7,1.1-2.8,1.1c-0.5,0-1.1,0-1.7,0c-0.1-0.7-0.3-1.8-0.6-2.6
	c-2.1,1.1-4.6,2-7.1,2.5c-0.4-0.7-1-1.8-1.6-2.3c4.3-0.7,8.6-2.2,10.9-4.5c-0.1-0.1-0.2-0.2-0.3-0.4c-2.3,1.7-5.8,3-8.9,3.7
	c-0.3-0.6-0.9-1.4-1.4-1.9c3.2-0.5,6.9-1.6,9-3l-0.3-0.2c-2.2,0.9-4.6,1.6-6.8,2.1c-0.2-0.5-0.8-1.7-1.2-2.2c1.7-0.2,3.5-0.6,5.1-1
	h-2.4v-2.3h14.6v2.3h-6.4c0.7,0.6,1.3,1.2,1.7,1.9c1.9-0.6,4-1.4,5.4-2.1L170.1,206.2z M168.2,193.1v4.9h-16.3v-4.9H168.2z
	 M164.3,195.1h-8.7v0.8h8.7V195.1z M160.6,209.1c-0.7,0.6-1.4,1.1-2.3,1.6c0.3,0,0.6,0,0.9,0c0.5,0,0.8-0.1,1.1-0.4
	C160.6,210.1,160.7,209.7,160.6,209.1z M189.5,208.2v2.5c0,1.6-0.4,2.4-1.5,2.8c-1.1,0.4-2.6,0.4-4.4,0.4c-0.2-0.8-0.5-1.9-0.9-2.7
	c-1.5,1-3.2,1.9-4.7,2.5c-0.6-0.8-1.9-2.1-2.7-2.8c2.2-0.6,4.7-1.6,6-2.7l3.4,1.5c-0.5,0.4-1,0.8-1.6,1.3c0.8,0,1.8,0,2.1,0
	c0.4,0,0.5-0.1,0.5-0.4v-2.4h-6.5v-6.2H196v6.2H189.5z M198.7,201.2h-22.6v-3.1h9.4c-0.1-0.2-0.2-0.3-0.3-0.4l1-0.3h-7.6v-8.6h17.7
	v8.6H189c0.2,0.2,0.3,0.5,0.4,0.8h9.3V201.2z M182.2,191.9h10.4v-0.8h-10.4V191.9z M182.2,195h10.4v-0.8h-10.4V195z M182.8,205.5
	h9.5v-0.9h-9.5V205.5z M192.4,208.2c2.1,0.7,5,2.1,6.6,3l-2.6,2.4c-1.4-1-4.3-2.4-6.4-3.3L192.4,208.2z M265,205.4h-6.1v8.5h-3.7
	v-8.5h-6.1l0.3,2.1c-2.5,1.1-5.2,2.2-7.5,3.1l-1.3-4.1c0.8-0.2,1.8-0.5,2.8-0.8v-7.7h-2.3v-3.7h2.3v-5.8h3.4v5.8h2v3.7h-2v6.6l2-0.7
	l0.2,1.1v-3.4h6.1v-8.7h-5.5v-3.8h14.7v3.8h-5.5v8.7h6.1V205.4z M252.8,193.8c0.6,1.9,1.1,4.4,1.2,6.1l-3.1,0.8
	c-0.1-1.7-0.6-4.2-1.1-6.2L252.8,193.8z M259.7,199.9c0.5-1.7,1-4.3,1.2-6.3l3.4,0.7c-0.6,2.3-1.3,4.7-1.8,6.3L259.7,199.9z
	 M218.9,212.9h-15.5v-2.8l2.7-2.8c4.7-4.6,7.4-7.7,7.4-10.8c0-2.1-1.1-3.8-3.9-3.8c-1.8,0-3.5,0.9-4.6,1.7l-1.3-3.3
	c1.5-1.1,4.1-2.1,6.9-2.1c5.3,0,7.7,3.2,7.7,7.1c0,4.2-3,7.6-6.6,11.1l-2.1,1.9v0.1h9.1V212.9z M222.3,189.2h15.8v2.9l-9.6,20.8
	h-5.1l9.6-19.8V193h-10.7V189.2z"/>
<polyline id="XMLID_228_" class="st3" points="29.9,192 2.4,192 2.4,210 29.9,210 "/>
<polyline id="XMLID_227_" class="st3" points="270.7,210 298.9,210 298.9,192 270.7,192 "/>
<path class="st4" d="M159.1,245.1h-15.6v-2.8l2.8-2.7c4.7-4.5,7.5-7.4,7.5-10.5c0-2-1.2-3.7-3.9-3.7c-1.8,0-3.5,0.9-4.6,1.7
	l-1.3-3.2c1.5-1.1,4.1-2.1,7-2.1c5.3,0,7.8,3.1,7.8,6.9c0,4.1-3,7.4-6.6,10.8l-2.1,1.9v0.1h9.2V245.1z M131.4,245.1h-15.6v-2.8
	l2.8-2.7c4.7-4.5,7.5-7.4,7.5-10.5c0-2-1.2-3.7-3.9-3.7c-1.8,0-3.5,0.9-4.6,1.7l-1.3-3.2c1.5-1.1,4.1-2.1,7-2.1
	c5.3,0,7.8,3.1,7.8,6.9c0,4.1-3,7.4-6.6,10.8l-2.1,1.9v0.1h9.2V245.1z M173.7,235.1c-1.1,1.1-2.6,1.8-4.7,1.8c-3.9,0-6.9-2.7-6.9-7
	c0-4.3,3.2-8.1,8.3-8.1c5.4,0,8.2,4.2,8.2,9.7c0,7.9-4.5,14.3-14.5,13.9v-3.5c0.8,0.1,1.3,0,2.4-0.1
	C170.7,241.4,173,238.6,173.7,235.1L173.7,235.1z M166.9,229.5c0,2.7,1.4,4.3,3.4,4.3c1.5,0,2.6-0.8,3.1-1.7
	c0.2-0.3,0.3-0.8,0.3-1.7c0-3.1-1.1-5.5-3.5-5.5C168.3,225,166.9,226.9,166.9,229.5z M188,245.1v-18.9h-0.1l-4.3,2.1l-1.1-3.2
	l6.1-2.8h4.1v22.9H188z M214.8,222.1v3.7h-8.5l-0.7,4.5c0.5-0.1,0.9-0.1,1.4-0.1c4.3,0,8.4,2.2,8.4,7.2c0,4.4-3.7,8-9.5,8
	c-2.5,0-4.7-0.6-5.9-1.2l1-3.4c1,0.5,2.8,1.1,4.7,1.1c2.5,0,4.9-1.5,4.9-4.1c0-2.8-2.2-4.3-6.4-4.3c-1.1,0-2,0.1-2.8,0.2l1.5-11.5
	H214.8z M218.6,234.3h9v3.1h-9V234.3z M133.8,234.3h9v3.1h-9V234.3z M234.8,232c1.1-1.2,2.8-2,4.9-2c3.9,0,6.8,2.7,6.8,7.3
	c0,4.3-3.1,8.2-8.1,8.2c-5.6,0-8.7-4.2-8.7-9.8c0-5.2,2.6-13.8,14.4-13.8v3.5c-0.6,0-1.3,0.1-2.1,0.2C237.5,226,235.3,229,234.8,232
	L234.8,232z M241.7,237.5c0-2.4-1.3-4.4-3.5-4.4c-1.5,0-3.6,1.2-3.6,3.7c0.1,3,1.4,5.3,3.8,5.3C240.6,242.2,241.7,240,241.7,237.5z
	 M255.7,245.1v-18.9h-0.1l-4.3,2.1l-1.1-3.2l6.1-2.8h4.1v22.9H255.7z M274.5,245.1v-18.9h-0.1l-4.3,2.1l-1.1-3.2l6.1-2.8h4.1v22.9
	H274.5z M293.4,245.1v-18.9h-0.1l-4.3,2.1L288,225l6.1-2.8h4.1v22.9H293.4z M97.1,234.5c0-6.9,2.7-11.8,8.2-11.8c5.7,0,8,5.3,8,11.6
	c0,7.5-3,11.9-8.1,11.9C99.5,246.2,97.1,240.9,97.1,234.5z M105.3,242.7c2.2,0,3.3-2.9,3.3-8.2c0-5.2-1-8.2-3.3-8.2
	c-2.1,0-3.4,2.8-3.4,8.2C101.9,239.8,103.1,242.7,105.3,242.7L105.3,242.7z M12.1,241.4h7.5v2.9h-18v-2.9h7.2v-2.2H3.7v-2.8h5.2
	v-2.1H4.7v-2c-0.9,0.6-1.7,1.1-2.6,1.6c-0.4-0.8-1.2-2-1.9-2.7c2.2-0.9,4.5-2.4,6.4-4.1H4.4v-3h7.7c1.7,2.7,5,5.5,8.7,6.8
	c-0.6,0.7-1.6,2.1-2,3c-0.9-0.5-1.8-1-2.6-1.5v1.9h-4.1v2.1h5.2v2.8h-5.2V241.4z M10.5,227.1c-1.3,1.5-2.9,3-4.6,4.3h9
	C13.2,230.1,11.7,228.6,10.5,227.1L10.5,227.1z M27.2,238.4c-0.5,1.6-1.4,3.5-2.1,4.7c-0.4-0.4-1.4-1.1-2-1.5c0.7-1,1.4-2.6,1.8-4
	L27.2,238.4z M30.3,237.2v7.4h-3v-7.4h-3.8v-2.7h3.8v-1.4h-3.9v-2.7h1.8c-0.1-0.6-0.3-1.3-0.5-1.9l1.6-0.4h-2.6v-2.6h3.3
	c-0.1-0.6-0.3-1.2-0.5-1.7l3.1-0.8c0.3,0.7,0.6,1.7,0.8,2.4h2.8v2.6H31l1.6,0.3c-0.3,0.7-0.6,1.4-0.8,2h1.9v2.7h-3.4v1.4h2.9v2.7
	H30.3z M27.3,228.1c0.2,0.6,0.4,1.4,0.5,1.9l-1.5,0.5H29c0.3-0.7,0.6-1.6,0.7-2.3H27.3z M43.2,233.7h-1.8v11h-3v-11h-1.4
	c0,3.4-0.3,8.2-2,11c-0.5-0.6-1.7-1.6-2.4-1.9c0.4-0.6,0.6-1.3,0.8-2l-1.4,1c-0.3-0.9-1-2.2-1.6-3.2l2-1.2c0.5,0.7,1,1.6,1.3,2.4
	c0.4-2,0.4-4.2,0.4-6v-8.3c2.3-0.5,4.8-1.2,6.3-2.1l2.3,2.4c-1.7,0.7-3.8,1.3-5.8,1.7v3.1h6.2V233.7z M62.4,241.5
	c0.6,0,0.7-0.4,0.8-2.6c0.6,0.5,1.9,1,2.7,1.2c-0.3,3.4-1.1,4.3-3.2,4.3h-2.3c-2.7,0-3.4-1-3.4-3.8v-3.6h-2.4
	c-0.2,4.2-1.1,6.6-7,7.7c-0.2-0.8-1-2.1-1.6-2.8c4.7-0.7,5.2-2,5.4-4.9h-4.9V234h19v3.1h-5.4v3.6c0,0.8,0.1,0.8,0.7,0.8H62.4z
	 M49.9,231.5h-3.1v-6h7.5c-0.2-0.5-0.4-1-0.5-1.5l3.2-1c0.4,0.7,0.8,1.7,1,2.4h7.2v6h-3.2v-2.9h-12V231.5z M50.6,232.9v-3h10.6v3
	H50.6z M88.5,240v3.3H69.1V240h7.8v-11h-6.6v-3.4h17v3.4h-6.8v11H88.5z"/>
</svg>
