<svg xmlns="http://www.w3.org/2000/svg" viewBox="0 0 300.11 271.61"><defs><style>.cls-1{fill:#fff;}.cls-2,.cls-8{fill:#db007f;}.cls-3{font-size:27.02px;letter-spacing:0.08em;}.cls-3,.cls-6{fill:#e0007f;}.cls-3,.cls-8{font-family:NotoSansCJKtc-Black-B5pc-H, Noto Sans CJK TC;}.cls-4{letter-spacing:0.02em;}.cls-5{letter-spacing:0.08em;}.cls-7{fill:none;stroke:#e0007f;stroke-miterlimit:10;stroke-width:1.09px;}.cls-8{font-size:24.72px;letter-spacing:0.08em;}</style></defs><g id="圖層_2" data-name="圖層 2"><g id="圖層_1-2" data-name="圖層 1"><path class="cls-1" d="M271.27,26h25.48V16.48h-28A160.31,160.31,0,0,0,268.87,0h-11s.36,11.38-.1,16.48H230.94V26h25.51a46,46,0,0,1-8,18.57c-4.64,6.19-11.2,11.16-19.52,14.74l-.37.16.32.24A30.11,30.11,0,0,1,235.29,67l.12.18.19-.09a55,55,0,0,0,17.63-12.62c3.07,3.09,8.37,8.61,10.7,12.31l.14.22,8.15-5.92-.13-.19c-2.94-4.3-10-10.69-12.85-13.24l-.14-.11-1.18.8a57.09,57.09,0,0,0,6.53-14.27c6.12,16.12,15.1,26.93,27.4,33l.21.1.11-.2a33.14,33.14,0,0,1,6.46-8.05l.3-.25-.36-.15C286,53.06,276.52,41.81,271.27,26Z"/><path class="cls-1" d="M269.38,110.22v-6.75c-.11.11,16.71-20.7,16.71-20.7H237.57v9.1h28.74c-.18,0-7,8.27-7,8.27v10.08h-29v9.19h29v17.2c0,1-.29,1.37-1.9,1.44-.54,0-1.54,0-2.75,0-3.16,0-6.75-.1-9.61-.26l-.44,0,.23.38a34.12,34.12,0,0,1,3.7,8.93l0,.19h.2l2.11,0c4.8,0,10.23-.19,13.78-1.58s4.7-3.8,4.7-8.93V119.41h27.9v-9.19Z"/><polygon class="cls-1" points="194.14 3.48 159.15 81.24 156.78 81.24 122.28 3.48 108.57 3.48 74.03 81.24 71.66 81.24 36.65 3.48 0 3.48 64.45 146.55 80.96 146.55 115.4 69.99 149.85 146.55 166.35 146.55 230.79 3.48 194.14 3.48"/><path class="cls-1" d="M188.47,125.31h7.16v22h-7.16Z"/><path class="cls-1" d="M201.61,125.31h6.67l8.7,12.18V125.31h6.73v22H217l-8.66-12.09v12.09h-6.71Z"/><path class="cls-2" d="M136.92,246.8H118.64v-3.23l3.25-3.18c5.53-5.25,8.78-8.69,8.78-12.3,0-2.34-1.36-4.29-4.57-4.29a10.11,10.11,0,0,0-5.45,1.95L119.07,222a14.79,14.79,0,0,1,8.19-2.41c6.27,0,9.13,3.65,9.13,8,0,4.75-3.52,8.65-7.77,12.58l-2.44,2.2v.07h10.74Z"/><path class="cls-2" d="M154,235.14a7.34,7.34,0,0,1-5.49,2.09,7.78,7.78,0,0,1-8.08-8.15,9.42,9.42,0,0,1,9.74-9.5c6.38,0,9.67,4.89,9.67,11.31,0,9.28-5.26,16.76-17,16.26V243a16,16,0,0,0,2.82-.1,9.22,9.22,0,0,0,8.47-7.76Zm-7.88-6.52c0,3.15,1.62,5.07,3.94,5.07a4.32,4.32,0,0,0,3.67-2,3.86,3.86,0,0,0,.31-1.95c0-3.58-1.32-6.42-4.06-6.42C147.67,223.3,146.13,225.57,146.13,228.62Z"/><path class="cls-2" d="M170.78,246.8V224.68h-.07l-5,2.41-1.24-3.75,7.12-3.33h4.79V246.8Z"/><path class="cls-2" d="M202.25,220v4.32h-9.94l-.77,5.25a11.68,11.68,0,0,1,1.62-.11c5.11,0,9.9,2.63,9.9,8.4,0,5.14-4.29,9.36-11.17,9.36a17,17,0,0,1-7-1.38l1.12-4a13.42,13.42,0,0,0,5.53,1.24c3,0,5.72-1.74,5.72-4.82s-2.59-5-7.54-5a30.4,30.4,0,0,0-3.29.18L188.25,220Z"/><path class="cls-2" d="M206.73,234.18h10.59v3.62H206.73Z"/><path class="cls-2" d="M225.79,231.52a7.65,7.65,0,0,1,5.79-2.37c4.52,0,8,3.15,8,8.51a9.23,9.23,0,0,1-9.5,9.53c-6.61,0-10.17-4.86-10.17-11.41,0-6.13,3-16.17,16.93-16.17v4a24.75,24.75,0,0,0-2.51.17c-5.38.68-7.93,4.15-8.66,7.69Zm8.11,6.38c0-2.8-1.47-5.1-4.13-5.1a4.25,4.25,0,0,0-4.18,4.36c.08,3.47,1.63,6.24,4.45,6.24C232.55,243.4,233.9,240.92,233.9,237.9Z"/><path class="cls-2" d="M250.33,246.8V224.68h-.08l-5,2.41L244,223.34,251.1,220h4.8V246.8Z"/><path class="cls-2" d="M272.44,246.8V224.68h-.08l-5,2.41-1.23-3.75,7.11-3.33H278V246.8Z"/><path class="cls-2" d="M294.55,246.8V224.68h-.08l-5,2.41-1.23-3.75,7.11-3.33h4.79V246.8Z"/><text class="cls-3" transform="translate(31.44 208.55) scale(1 1.07)"><tspan xml:space="preserve">正對公園豪景    </tspan><tspan class="cls-4" x="208.5" y="0"> </tspan><tspan class="cls-5" x="215.23" y="0">坪 </tspan></text><path class="cls-6" d="M224.15,210.19h-16.4v-3l2.92-3c5-4.88,7.86-8.09,7.86-11.46a3.71,3.71,0,0,0-4.09-4,8.81,8.81,0,0,0-4.88,1.82l-1.42-3.51a13,13,0,0,1,7.34-2.24c5.62,0,8.18,3.4,8.18,7.46,0,4.43-3.15,8.06-7,11.72l-2.19,2.05v.07h9.64Z"/><path class="cls-6" d="M227.76,185.14h16.78v3.05l-10.19,22h-5.42l10.23-20.95v-.06h-11.4Z"/><polyline class="cls-7" points="26.18 188.12 5.53 188.12 5.53 207.14 26.18 207.14"/><polyline class="cls-7" points="278.87 207.14 299.52 207.14 299.52 188.12 278.87 188.12"/><text class="cls-8" transform="translate(4.67 243.97) scale(1 1.07)">全新完工</text></g></g></svg>