<svg xmlns="http://www.w3.org/2000/svg" xmlns:xlink="http://www.w3.org/1999/xlink" viewBox="0 0 736.59 1104.8"><defs><style>.cls-1{fill:none;}.cls-2{fill:url(#未命名漸層_2);}.cls-3{fill:url(#未命名漸層_2-2);}.cls-4{clip-path:url(#clip-path);}</style><linearGradient id="未命名漸層_2" x1="25.45" y1="547.03" x2="783.19" y2="547.03" gradientUnits="userSpaceOnUse"><stop offset="0" stop-color="#d82617"/><stop offset="1" stop-color="#e63462"/></linearGradient><linearGradient id="未命名漸層_2-2" x1="25.45" y1="616.07" x2="783.19" y2="616.07" xlink:href="#未命名漸層_2"/><clipPath id="clip-path" transform="translate(75.73 96.78)"><rect class="cls-1" width="473.67" height="800.07"/></clipPath></defs><g id="圖層_2" data-name="圖層 2"><g id="圖層_1-2" data-name="圖層 1"><polygon class="cls-2" points="458.38 392.52 458.38 312.07 233.53 312.07 233.53 574.59 233.37 574.59 233.37 651.28 233.53 651.28 233.53 781.98 313.97 781.98 313.97 651.28 361.95 651.28 361.95 574.59 313.97 574.59 313.97 392.52 458.38 392.52"/><polygon class="cls-3" points="371.62 448.48 371.62 528.92 414.53 528.92 414.53 706.7 365.39 706.7 365.39 783.39 414.53 783.39 414.53 783.65 494.97 783.65 494.97 448.48 371.62 448.48"/><g class="cls-4"><image width="4899" height="7348" transform="scale(0.15)" xlink:href="../../../Users/xcatx/Downloads/20200311-%E5%A5%BD%E7%AB%99web-%E5%BB%A0%E5%95%86%E6%AA%94%E6%A1%88%E5%A4%BE(_F)/20200311-%E5%A5%BD%E7%AB%99web-%E5%BB%A0%E5%95%86%E6%AA%94%E6%A1%88%E5%A4%BE(_F)/Links/_D0A9087_OK.png"/></g></g></g></svg>