<?xml version="1.0" encoding="UTF-8"?><svg id="_圖層_2" xmlns="http://www.w3.org/2000/svg" xmlns:xlink="http://www.w3.org/1999/xlink" viewBox="0 0 468.38 101.97"><defs><style>.cls-1{fill:url(#_新增漸層色票_2-31);}.cls-2{fill:#fff;}.cls-3{fill:url(#_新增漸層色票_2-27);}.cls-4{fill:url(#_新增漸層色票_2-26);}.cls-5{fill:url(#_新增漸層色票_2-9);}.cls-6{fill:url(#_新增漸層色票_2-12);}.cls-7{fill:url(#_新增漸層色票_2);}.cls-8{fill:url(#_新增漸層色票_2-23);}.cls-9{fill:url(#_新增漸層色票_2-11);}.cls-10{fill:url(#_新增漸層色票_2-20);}.cls-11{filter:url(#drop-shadow-1);}.cls-12{fill:url(#_新增漸層色票_2-29);}.cls-13{fill:url(#_新增漸層色票_2-14);}.cls-14{fill:url(#_新增漸層色票_2-25);}.cls-15{fill:url(#_新增漸層色票_2-4);}.cls-16{fill:url(#_新增漸層色票_2-3);}.cls-17{fill:url(#_新增漸層色票_2-30);}.cls-18{fill:url(#_新增漸層色票_2-16);}.cls-19{filter:url(#drop-shadow-2);}.cls-20{fill:url(#_新增漸層色票_2-7);}.cls-21{fill:url(#_新增漸層色票_2-21);}.cls-22{fill:url(#_新增漸層色票_2-15);}.cls-23{fill:url(#_新增漸層色票_2-8);}.cls-24{fill:url(#_新增漸層色票_2-17);}.cls-25{fill:url(#_新增漸層色票_2-32);}.cls-26{fill:url(#_新增漸層色票_2-10);}.cls-27{fill:url(#_新增漸層色票_2-28);}.cls-28{fill:url(#_新增漸層色票_2-22);}.cls-29{fill:url(#_新增漸層色票_2-5);}.cls-30{fill:url(#_新增漸層色票_2-2);}.cls-31{fill:url(#_新增漸層色票_2-19);}.cls-32{fill:url(#_新增漸層色票_2-6);}.cls-33{fill:url(#_新增漸層色票_2-18);}.cls-34{fill:url(#_新增漸層色票_2-24);}.cls-35{fill:url(#_新增漸層色票_2-13);}</style><filter id="drop-shadow-1" filterUnits="userSpaceOnUse"><feOffset dx="2.83" dy="2.83"/><feGaussianBlur result="blur" stdDeviation="2.83"/><feFlood flood-color="#155752" flood-opacity=".75"/><feComposite in2="blur" operator="in"/><feComposite in="SourceGraphic"/></filter><filter id="drop-shadow-2" filterUnits="userSpaceOnUse"><feOffset dx=".85" dy=".85"/><feGaussianBlur result="blur-2" stdDeviation=".57"/><feFlood flood-color="#155752" flood-opacity=".5"/><feComposite in2="blur-2" operator="in"/><feComposite in="SourceGraphic"/></filter><linearGradient id="_新增漸層色票_2" x1="82.15" y1="34.32" x2="82.72" y2="34.32" gradientUnits="userSpaceOnUse"><stop offset=".03" stop-color="#a2814f"/><stop offset=".29" stop-color="#fce0ba"/><stop offset=".57" stop-color="#c9a063"/><stop offset=".78" stop-color="#f4dec1"/><stop offset="1" stop-color="#ae8e5e"/></linearGradient><linearGradient id="_新增漸層色票_2-2" x1="61.59" y1="34.33" x2="62.4" y2="34.33" xlink:href="#_新增漸層色票_2"/><linearGradient id="_新增漸層色票_2-3" x1="72.16" y1="41.65" x2="72.34" y2="41.65" xlink:href="#_新增漸層色票_2"/><linearGradient id="_新增漸層色票_2-4" x1="65.56" y1="22.14" x2="66.19" y2="22.14" xlink:href="#_新增漸層色票_2"/><linearGradient id="_新增漸層色票_2-5" x1="78.4" y1="22.24" x2="78.95" y2="22.24" xlink:href="#_新增漸層色票_2"/><linearGradient id="_新增漸層色票_2-6" x1="96.5" y1="39.64" x2="100.21" y2="39.64" xlink:href="#_新增漸層色票_2"/><linearGradient id="_新增漸層色票_2-7" x1="67.24" y1="58.82" x2="76.87" y2="58.82" xlink:href="#_新增漸層色票_2"/><linearGradient id="_新增漸層色票_2-8" x1="51.99" y1="8.4" x2="60.16" y2="8.4" xlink:href="#_新增漸層色票_2"/><linearGradient id="_新增漸層色票_2-9" x1="84.69" y1="8.65" x2="92.62" y2="8.65" xlink:href="#_新增漸層色票_2"/><linearGradient id="_新增漸層色票_2-10" x1="43.98" y1="39.29" x2="47.88" y2="39.29" xlink:href="#_新增漸層色票_2"/><linearGradient id="_新增漸層色票_2-11" x1="68.1" y1="21.9" x2="71.66" y2="21.9" xlink:href="#_新增漸層色票_2"/><linearGradient id="_新增漸層色票_2-12" x1="66.84" y1="13.42" x2="69.56" y2="13.42" xlink:href="#_新增漸層色票_2"/><linearGradient id="_新增漸層色票_2-13" x1="72.69" y1="21.94" x2="76.53" y2="21.94" xlink:href="#_新增漸層色票_2"/><linearGradient id="_新增漸層色票_2-14" x1="75.07" y1="13.49" x2="77.79" y2="13.49" xlink:href="#_新增漸層色票_2"/><linearGradient id="_新增漸層色票_2-15" x1="54.12" y1="30.37" x2="71.34" y2="30.37" xlink:href="#_新增漸層色票_2"/><linearGradient id="_新增漸層色票_2-16" x1="52.78" y1="29.35" x2="55.51" y2="29.35" xlink:href="#_新增漸層色票_2"/><linearGradient id="_新增漸層色票_2-17" x1="56.79" y1="25.88" x2="71.67" y2="25.88" xlink:href="#_新增漸層色票_2"/><linearGradient id="_新增漸層色票_2-18" x1="55.39" y1="21.54" x2="58.12" y2="21.54" xlink:href="#_新增漸層色票_2"/><linearGradient id="_新增漸層色票_2-19" x1="65.03" y1="39.79" x2="72.12" y2="39.79" xlink:href="#_新增漸層色票_2"/><linearGradient id="_新增漸層色票_2-20" x1="63.59" y1="47.64" x2="66.32" y2="47.64" xlink:href="#_新增漸層色票_2"/><linearGradient id="_新增漸層色票_2-21" x1="58.26" y1="36.98" x2="71.29" y2="36.98" xlink:href="#_新增漸層色票_2"/><linearGradient id="_新增漸層色票_2-22" x1="56.97" y1="42.74" x2="59.69" y2="42.74" xlink:href="#_新增漸層色票_2"/><linearGradient id="_新增漸層色票_2-23" x1="72.93" y1="37.14" x2="85.76" y2="37.14" xlink:href="#_新增漸層色票_2"/><linearGradient id="_新增漸層色票_2-24" x1="84.32" y1="43.01" x2="87.05" y2="43.01" xlink:href="#_新增漸層色票_2"/><linearGradient id="_新增漸層色票_2-25" x1="72.08" y1="39.89" x2="78.91" y2="39.89" xlink:href="#_新增漸層色票_2"/><linearGradient id="_新增漸層色票_2-26" x1="77.62" y1="47.79" x2="80.35" y2="47.79" xlink:href="#_新增漸層色票_2"/><linearGradient id="_新增漸層色票_2-27" x1="72.64" y1="26.08" x2="87.66" y2="26.08" xlink:href="#_新增漸層色票_2"/><linearGradient id="_新增漸層色票_2-28" x1="86.33" y1="21.86" x2="89.05" y2="21.86" xlink:href="#_新增漸層色票_2"/><linearGradient id="_新增漸層色票_2-29" x1="72.95" y1="30.59" x2="90.2" y2="30.59" xlink:href="#_新增漸層色票_2"/><linearGradient id="_新增漸層色票_2-30" x1="88.81" y1="29.71" x2="91.53" y2="29.71" xlink:href="#_新增漸層色票_2"/><linearGradient id="_新增漸層色票_2-31" x1="42.04" y1="30.86" x2="102.48" y2="30.86" xlink:href="#_新增漸層色票_2"/><linearGradient id="_新增漸層色票_2-32" x1="66.76" y1="30.96" x2="77.66" y2="30.96" xlink:href="#_新增漸層色票_2"/></defs><g id="_圖層_1-2"><g><g class="cls-11"><path class="cls-2" d="M126.18,18.81V10.56c6.6,.66,15.29,.99,26.82,1.1,.42-5.06,.5-9.24,.17-11,2.42,1.1,7.94,1.54,9.53,1.32,1.17-.22,1.59,.77-.08,2.97-.59,.77-1.59,3.52-2.51,6.71,12.2,0,21.31-.44,28.24-1.1v8.25c-7.1-.77-16.63-1.1-29.41-1.1-.5,2.97-1.09,5.83-1.75,8.58h6.1c8.36,0,15.54-.22,21.81-1.1v8.47c-6.18-.77-13.54-1.1-21.89-1.1h-7.69c-1,3.08-2.09,6.05-3.34,9.02h16.04c9.03,0,15.71-.22,23.23-.99v8.36c-6.35-.66-11.87-.99-18.8-1.1,4.01,7.26,12.7,12.65,22.56,13.31-1.84,4.18-2.93,7.59-3.84,11.33-4.93-2.42-9.19-5.06-12.7-7.81v21.23c0,5.06,.25,9.79,.75,14.3h-7.6v-4.51h-28.16v6.27h-7.44c.5-4.51,.67-7.7,.67-12.87v-24.09c-3.68,4.07-7.94,8.03-12.7,11.99-1.17-2.86-3.51-6.05-5.68-7.92,9.53-5.94,17.38-12.87,23.06-21.23-7.02,.11-12.7,.44-19.14,1.1v-8.36c7.69,.77,13.87,.99,22.9,.99,1.5-2.86,2.76-5.83,3.76-9.02-7.77,0-14.46,.33-20.22,1.1v-8.47c6.27,.77,13.37,1.21,21.89,1.1,.59-2.64,1.09-5.61,1.5-8.58-11.2,.11-19.64,.44-26.07,1.1Zm16.21,39.49c3.76,.22,9.11,.22,15.29,.22,5.6,0,10.45-.11,14.29-.22-2.76-3.3-4.68-6.71-6.02-10.45h-16.88c-1.92,3.63-4.18,7.04-6.69,10.45Zm29.42,15.18v-8.58h-28.16v8.58h28.16Zm-28.16,6.38v9.13h28.16v-9.13h-28.16Z"/><path class="cls-2" d="M228.72,82.28c0,6.6,.08,12.87,.42,19.58h-6.94c.33-6.71,.42-12.98,.42-19.58v-24.2c-2.42,4.62-5.18,9.68-8.36,15.29-.67-3.52-2.17-7.92-3.84-10.78,4.6-3.74,10.11-12.21,17.72-31.13h-8.44c-2.92,0-5.93,.44-7.52,1.21v-9.35c3.26,.44,6.02,.55,12.28,.55,7.1,0,9.86-.11,12.7-.55-.59,3.08-1.42,5.72-3.68,11.55-1.34,3.52-2.92,7.15-4.76,11v36.41Zm-4.35-61.38c-1.34-4.95-2.92-8.91-5.51-13.09l7.35-4.4c2.34,4.73,3.43,7.15,5.43,11.99l-7.27,5.5Zm10.2,45.98c-1.5-5.28-3.01-8.58-5.43-12.98l4.1-4.73c3.01,5.17,4.6,8.8,6.35,13.64l-5.01,4.07Zm26.91-50.82c-8.61,0-16.96,.33-21.73,.99V7.7c4.76,.77,13.12,1.1,21.73,1.1s16.8-.33,21.56-1.1v9.35c-4.76-.66-12.87-.99-21.56-.99Zm-14.88,78.98v6.49h-6.27c.25-3.52,.33-6.82,.33-12.65v-25.96c0-2.97-.17-7.48-.42-10.56,3.93,.33,12.45,.55,21.14,.55s17.21-.22,21.14-.55c-.33,3.3-.42,7.59-.42,10.56v24.86c0,5.83,0,8.69,.42,12.65h-6.35v-5.39h-29.58Zm14.29-49.28c-7.02,0-13.37,.22-17.05,.55,.17-4.29,.25-8.14,.25-11.88s-.08-7.59-.25-11.77c3.76,.44,10.03,.66,17.05,.66s13.45-.22,17.21-.66c-.17,4.18-.25,8.14-.25,11.77s.08,7.59,.25,11.88c-3.68-.33-10.2-.55-17.21-.55Zm-2.84,24.09v-10.67h-11.45v10.67h11.45Zm-11.45,6.16v12.87h11.45v-12.87h-11.45Zm25.91-46.2h-23.06v9.68h23.06v-9.68Zm3.68,40.04v-10.67h-12.37v10.67h12.37Zm-12.37,6.16v12.87h12.37v-12.87h-12.37Z"/><path class="cls-2" d="M304.76,56.54v-8.91c4.51,.88,10.78,1.1,22.56,1.1,2.51-6.82,4.6-13.86,5.68-20.24,1.67,1.21,5.51,3.52,7.35,4.29,1.34,.55,1.25,1.65,.42,2.75-1.17,1.54-3.68,6.71-6.6,13.2h18.63c12.53,0,18.97-.11,23.65-1.1v8.91c-3.68-.77-8.44-1.1-16.63-1.1-2.34,9.46-5.51,17.05-9.03,22.44,9.03,4.73,15.38,8.8,23.48,14.63-2.09,1.76-4.09,4.84-5.85,9.02-7.44-7.48-12.45-11.22-22.98-17.27-8.77,8.47-19.05,13.31-35.35,17.27-1-3.19-2.34-6.6-4.18-10.12,13.29-.99,23.73-4.29,32.51-11-10.28-5.61-14.46-7.48-21.39-9.57,2.51-3.96,5.18-9.35,7.69-15.4-10.03,.22-15.79,.55-19.97,1.1ZM334.59,2.64c3.43-.88,5.01-1.43,7.44-2.64,1.34,4.95,2.51,10.78,3.26,16.61,14.62,0,19.55-.22,27.83-1.1v20.13h-7.1v-11.88h-50.64v11.66h-6.94V15.51c7.19,.88,12.95,1.1,30.17,1.1-.84-4.73-2.42-10.34-4.01-13.97Zm-3.34,52.8c-1.59,3.85-3.18,7.81-4.51,11.22,5.35,1.98,10.03,4.18,17.55,7.92,3.84-5.06,6.43-11.77,8.1-19.14h-21.14Z"/><path class="cls-2" d="M396.68,56.54v-8.91c4.51,.88,10.78,1.1,22.56,1.1,2.51-6.82,4.6-13.86,5.68-20.24,1.67,1.21,5.51,3.52,7.35,4.29,1.34,.55,1.25,1.65,.42,2.75-1.17,1.54-3.68,6.71-6.6,13.2h18.63c12.53,0,18.97-.11,23.65-1.1v8.91c-3.68-.77-8.44-1.1-16.63-1.1-2.34,9.46-5.52,17.05-9.03,22.44,9.03,4.73,15.38,8.8,23.48,14.63-2.09,1.76-4.09,4.84-5.85,9.02-7.44-7.48-12.45-11.22-22.98-17.27-8.77,8.47-19.05,13.31-35.35,17.27-1-3.19-2.34-6.6-4.18-10.12,13.29-.99,23.73-4.29,32.51-11-10.28-5.61-14.46-7.48-21.39-9.57,2.51-3.96,5.18-9.35,7.69-15.4-10.03,.22-15.79,.55-19.97,1.1ZM426.51,2.64c3.43-.88,5.01-1.43,7.44-2.64,1.34,4.95,2.51,10.78,3.26,16.61,14.62,0,19.55-.22,27.83-1.1v20.13h-7.1v-11.88h-50.64v11.66h-6.94V15.51c7.19,.88,12.95,1.1,30.17,1.1-.84-4.73-2.42-10.34-4.01-13.97Zm-3.34,52.8c-1.59,3.85-3.18,7.81-4.51,11.22,5.35,1.98,10.03,4.18,17.55,7.92,3.84-5.06,6.43-11.77,8.11-19.14h-21.14Z"/></g><g><g><path class="cls-2" d="M1.48,73.99v6.84h3.78v1.24H0v-8.07H1.48Z"/><path class="cls-2" d="M10.23,82.07v-8.07h1.48v8.07h-1.48Z"/><path class="cls-2" d="M20.22,80.09c.15-.44,.26-.75,.32-.94,.07-.19,.21-.57,.42-1.15l1.5-4.01h1.56l-3.16,8.07h-1.33l-3.16-8.07h1.57l1.5,4.01c.21,.58,.35,.96,.42,1.15,.07,.19,.17,.5,.32,.94h.02Z"/><path class="cls-2" d="M30.16,80.83h3.97v1.24h-5.45v-8.07h5.23v1.24h-3.75v2.09h3.22v1.24h-3.22v2.28Z"/><path class="cls-2" d="M47.88,82.07h-1.48v-6.84h-2.61v-1.24h6.69v1.24h-2.6v6.84Z"/><path class="cls-2" d="M62.41,78.03c0,.61-.09,1.18-.26,1.69-.17,.51-.43,.95-.77,1.33-.34,.37-.75,.66-1.24,.86-.49,.21-1.05,.31-1.67,.31s-1.18-.1-1.67-.31c-.49-.21-.9-.49-1.24-.86-.34-.37-.59-.81-.77-1.33-.18-.51-.26-1.08-.26-1.69s.09-1.18,.26-1.69c.17-.51,.43-.95,.77-1.32,.34-.37,.75-.66,1.24-.86,.49-.2,1.05-.31,1.67-.31s1.18,.1,1.67,.31c.49,.21,.9,.49,1.24,.86,.34,.37,.59,.81,.77,1.32,.18,.51,.26,1.08,.26,1.69Zm-1.53,0c0-.49-.06-.92-.18-1.29-.12-.37-.29-.68-.5-.92-.21-.24-.47-.43-.76-.55-.29-.12-.62-.18-.97-.18s-.67,.06-.97,.18c-.29,.12-.55,.3-.76,.55-.21,.25-.38,.55-.5,.92-.12,.37-.18,.8-.18,1.29s.06,.92,.18,1.29c.12,.37,.29,.67,.5,.92,.21,.24,.47,.43,.76,.55,.29,.12,.62,.18,.97,.18s.67-.06,.97-.18c.29-.12,.55-.31,.76-.55,.21-.24,.38-.55,.5-.92,.12-.37,.18-.8,.18-1.29Z"/><path class="cls-2" d="M76.15,82.07h-1.48v-6.84h-2.61v-1.24h6.69v1.24h-2.6v6.84Z"/><path class="cls-2" d="M84.96,77.32h3.74v-3.32h1.48v8.07h-1.48v-3.51h-3.74v3.51h-1.48v-8.07h1.48v3.32Z"/><path class="cls-2" d="M97.18,80.83h3.97v1.24h-5.45v-8.07h5.23v1.24h-3.75v2.09h3.22v1.24h-3.22v2.28Z"/></g><g><path class="cls-2" d="M10.31,96.54h3.74v-3.32h1.48v8.07h-1.48v-3.51h-3.74v3.51h-1.48v-8.07h1.48v3.32Z"/><path class="cls-2" d="M25.67,99.24h-3.04l-.79,2.06h-1.58l3.2-8.07h1.35l3.2,8.07h-1.56l-.79-2.06Zm-1.53-4.07c-.28,.84-.53,1.55-.76,2.12l-.28,.72h2.09l-.28-.72c-.22-.57-.47-1.28-.76-2.12h-.02Z"/><path class="cls-2" d="M34.99,98.17c-.13,0-.26,0-.39,0-.13,0-.25-.01-.36-.02v3.16h-1.48v-8.07h2.33c.39,0,.73,.02,1.02,.05s.55,.09,.78,.15c.55,.17,.98,.44,1.27,.81,.3,.37,.45,.84,.45,1.41,0,.39-.08,.74-.24,1.05-.16,.31-.4,.58-.71,.79-.31,.22-.69,.38-1.13,.5-.45,.12-.96,.18-1.54,.18Zm-.75-1.27c.09,.01,.19,.02,.32,.03,.13,0,.27,0,.41,0,.4,0,.73-.03,1-.1,.27-.06,.49-.15,.65-.27,.16-.11,.28-.25,.36-.42,.07-.16,.11-.34,.11-.53,0-.24-.05-.44-.16-.62-.11-.17-.3-.31-.57-.4-.14-.05-.31-.08-.52-.11-.21-.02-.46-.03-.76-.03h-.83v2.44Z"/><path class="cls-2" d="M45.99,98.17c-.13,0-.26,0-.39,0-.13,0-.25-.01-.36-.02v3.16h-1.48v-8.07h2.33c.39,0,.73,.02,1.02,.05,.29,.03,.55,.09,.78,.15,.55,.17,.98,.44,1.27,.81,.3,.37,.45,.84,.45,1.41,0,.39-.08,.74-.24,1.05-.16,.31-.4,.58-.71,.79-.31,.22-.69,.38-1.13,.5-.45,.12-.96,.18-1.54,.18Zm-.75-1.27c.09,.01,.19,.02,.32,.03,.13,0,.27,0,.41,0,.4,0,.73-.03,1-.1,.27-.06,.49-.15,.65-.27,.16-.11,.28-.25,.36-.42,.07-.16,.11-.34,.11-.53,0-.24-.05-.44-.16-.62-.11-.17-.3-.31-.57-.4-.14-.05-.31-.08-.52-.11-.21-.02-.46-.03-.76-.03h-.83v2.44Z"/><path class="cls-2" d="M54.77,101.29v-8.07h1.48v8.07h-1.48Z"/><path class="cls-2" d="M65.97,96.97c.58,.83,1.05,1.56,1.41,2.2h.04c-.05-1.05-.07-1.81-.07-2.29v-3.66h1.48v8.07h-1.55l-2.63-3.72c-.46-.64-.94-1.39-1.44-2.24h-.04c.05,.99,.07,1.76,.07,2.3v3.66h-1.48v-8.07h1.55l2.66,3.75Z"/><path class="cls-2" d="M75.81,100.06h3.97v1.24h-5.45v-8.07h5.23v1.24h-3.75v2.09h3.22v1.24h-3.22v2.28Z"/><path class="cls-2" d="M88.91,98.98c0-.21-.05-.37-.15-.5-.1-.13-.24-.23-.41-.31-.17-.08-.37-.15-.58-.2-.22-.05-.44-.1-.68-.15-.31-.07-.61-.15-.9-.24-.29-.09-.54-.22-.75-.39-.22-.17-.39-.38-.52-.64-.13-.26-.19-.58-.19-.97,0-.43,.07-.8,.22-1.11,.15-.32,.35-.58,.61-.78,.26-.21,.56-.36,.9-.47,.34-.1,.73-.15,1.16-.15s.86,.04,1.3,.13c.43,.08,.81,.19,1.12,.33v1.27c-.42-.16-.82-.28-1.2-.36-.38-.07-.75-.11-1.08-.11-.49,0-.86,.09-1.13,.27-.26,.18-.4,.44-.4,.8,0,.21,.04,.37,.13,.51,.09,.13,.2,.24,.35,.33,.15,.09,.32,.16,.51,.21,.19,.05,.4,.1,.62,.14,.34,.07,.67,.16,.98,.25,.31,.09,.59,.23,.83,.4,.24,.17,.43,.39,.57,.66,.14,.27,.21,.62,.21,1.04s-.08,.81-.24,1.13c-.16,.32-.39,.58-.69,.79-.3,.21-.65,.36-1.08,.46-.42,.1-.89,.15-1.39,.15-.44,0-.87-.04-1.29-.13-.42-.09-.78-.21-1.06-.36v-1.25c.4,.17,.79,.3,1.16,.38,.38,.08,.77,.12,1.17,.12,.23,0,.46-.02,.69-.06,.23-.04,.43-.1,.61-.2,.18-.09,.32-.22,.43-.38,.11-.16,.16-.35,.16-.59Z"/><path class="cls-2" d="M99.63,98.98c0-.21-.05-.37-.15-.5-.1-.13-.24-.23-.41-.31-.17-.08-.37-.15-.58-.2-.22-.05-.44-.1-.68-.15-.31-.07-.61-.15-.9-.24-.29-.09-.54-.22-.75-.39-.22-.17-.39-.38-.52-.64-.13-.26-.19-.58-.19-.97,0-.43,.07-.8,.22-1.11,.15-.32,.35-.58,.61-.78,.26-.21,.56-.36,.9-.47,.34-.1,.73-.15,1.16-.15s.86,.04,1.3,.13c.43,.08,.81,.19,1.12,.33v1.27c-.42-.16-.82-.28-1.2-.36-.38-.07-.75-.11-1.08-.11-.49,0-.86,.09-1.13,.27-.26,.18-.4,.44-.4,.8,0,.21,.04,.37,.13,.51,.09,.13,.2,.24,.35,.33,.15,.09,.32,.16,.51,.21,.19,.05,.4,.1,.62,.14,.34,.07,.67,.16,.98,.25,.31,.09,.59,.23,.83,.4,.24,.17,.43,.39,.57,.66,.14,.27,.21,.62,.21,1.04s-.08,.81-.24,1.13c-.16,.32-.39,.58-.69,.79-.3,.21-.65,.36-1.08,.46-.42,.1-.89,.15-1.39,.15-.44,0-.87-.04-1.29-.13-.42-.09-.78-.21-1.06-.36v-1.25c.4,.17,.79,.3,1.16,.38,.38,.08,.77,.12,1.17,.12,.23,0,.46-.02,.69-.06,.23-.04,.43-.1,.61-.2,.18-.09,.32-.22,.43-.38,.11-.16,.16-.35,.16-.59Z"/></g><g class="cls-19"><g><path class="cls-7" d="M82.72,34.29c-.19-.03-.38-.06-.57-.1,.17,.09,.35,.18,.51,.26,.02-.06,.03-.11,.05-.17Z"/><path class="cls-30" d="M61.59,34.27c.02,.08,.05,.16,.07,.24,.25-.12,.5-.25,.74-.36-.26,.04-.54,.08-.81,.12Z"/><path class="cls-16" d="M72.25,41.35c-.03,.2-.07,.4-.1,.6,.06,0,.12,.01,.19,.02-.03-.2-.06-.41-.09-.61Z"/><path class="cls-15" d="M66.19,22.54c-.13-.26-.27-.54-.41-.81-.07,.05-.15,.11-.22,.16,.21,.22,.43,.44,.63,.65Z"/><path class="cls-29" d="M78.4,22.57c.18-.18,.36-.36,.54-.54-.06-.04-.13-.09-.19-.14-.12,.22-.24,.45-.35,.67Z"/><path class="cls-32" d="M98.93,35.7c.43,2.65-.44,5.42-2.43,7.36,.22,.38,.38,.76,.5,1.14,2.61-2.32,3.69-5.83,3-9.12-.32,.24-.68,.45-1.08,.62Z"/><path class="cls-20" d="M75.97,57.72c-.85,.46-1.77,.78-2.76,.93-1.75,.26-3.49-.03-5.03-.82-.3,.32-.61,.58-.94,.8,1.44,.83,3.05,1.28,4.71,1.28,.48,0,.96-.04,1.44-.11,1.25-.19,2.43-.61,3.49-1.24-.32-.23-.62-.51-.9-.84Z"/><path class="cls-23" d="M53.24,11.4c.42-.9,.99-1.73,1.72-2.45,1.34-1.31,3.04-2.12,4.87-2.34,.07-.43,.18-.83,.34-1.2-2.27,.16-4.38,1.1-6.02,2.71-.94,.93-1.67,2.02-2.15,3.21,.4-.02,.82,0,1.25,.07Z"/><path class="cls-5" d="M85,6.87c.91,.14,1.81,.41,2.65,.85,1.67,.87,2.93,2.25,3.71,3.92,.44-.09,.85-.12,1.26-.1-1.37-3.35-4.48-5.55-7.93-5.89,.15,.37,.25,.78,.31,1.22Z"/><path class="cls-26" d="M47.88,42.87c-2.07-1.89-3.09-4.75-2.61-7.6-.4-.2-.75-.44-1.06-.71-.8,3.55,.51,7.18,3.19,9.43,.11-.38,.27-.75,.48-1.13Z"/></g><g><path class="cls-9" d="M71.66,30.37c-1.07-2.72-1.69-5.54-2.35-8.36-.53-2.84-1.09-5.67-1.2-8.6,1.07,2.73,1.69,5.55,2.34,8.36,.52,2.84,1.09,5.67,1.21,8.6Z"/><path class="cls-6" d="M69.56,13.43c-.01,.75-.62,1.35-1.37,1.35-.75,0-1.36-.62-1.35-1.37,0-.75,.62-1.36,1.37-1.35,.75,0,1.36,.62,1.35,1.37Z"/><path class="cls-35" d="M72.69,30.38c.17-2.92,.78-5.74,1.35-8.57,.7-2.8,1.37-5.61,2.49-8.32-.17,2.93-.78,5.74-1.35,8.57-.71,2.8-1.38,5.61-2.49,8.32Z"/><path class="cls-13" d="M75.07,13.48c0,.75,.6,1.37,1.35,1.37,.75,0,1.36-.6,1.37-1.35,0-.75-.6-1.37-1.35-1.37-.75,0-1.37,.6-1.37,1.35Z"/></g><g><path class="cls-22" d="M71.34,31.3c-2.92,.17-5.8-.11-8.67-.35-2.86-.38-5.73-.72-8.55-1.51,2.92-.17,5.79,.11,8.67,.35,2.86,.38,5.73,.72,8.55,1.51Z"/><path class="cls-18" d="M54.58,28.06c.72,.24,1.1,1.01,.86,1.72-.24,.71-1.01,1.1-1.72,.86-.71-.24-1.1-1.01-.86-1.72,.24-.71,1.01-1.1,1.72-.86Z"/><path class="cls-24" d="M71.67,30.32c-2.73-1.06-5.22-2.51-7.74-3.94-2.44-1.54-4.91-3.04-7.14-4.93,2.73,1.06,5.22,2.51,7.74,3.93,2.44,1.54,4.91,3.04,7.14,4.94Z"/><path class="cls-33" d="M56.32,22.83c.71,.24,1.49-.14,1.72-.86,.24-.71-.15-1.48-.86-1.72-.72-.24-1.49,.15-1.73,.86-.24,.71,.15,1.48,.86,1.72Z"/></g><g><path class="cls-31" d="M72.12,31.89c-.74,2.83-1.89,5.48-3.01,8.14-1.24,2.6-2.45,5.23-4.08,7.66,.74-2.83,1.9-5.48,3.01-8.14,1.25-2.61,2.46-5.23,4.08-7.67Z"/><path class="cls-10" d="M63.86,46.83c.45-.6,1.3-.73,1.9-.29,.61,.45,.73,1.3,.29,1.91-.45,.61-1.3,.73-1.9,.29-.61-.45-.73-1.3-.29-1.9Z"/><path class="cls-21" d="M71.29,31.28c-1.86,2.26-4.01,4.19-6.14,6.14-2.22,1.85-4.41,3.73-6.9,5.27,1.85-2.27,4-4.19,6.13-6.14,2.22-1.85,4.41-3.73,6.9-5.27Z"/><path class="cls-28" d="M59.43,43.55c.44-.6,.32-1.46-.29-1.9-.61-.45-1.46-.32-1.9,.29-.45,.61-.32,1.46,.29,1.9,.6,.45,1.46,.32,1.9-.28Z"/></g><g><path class="cls-8" d="M72.93,31.33c2.46,1.58,4.62,3.49,6.81,5.38,2.1,1.99,4.22,3.95,6.03,6.24-2.47-1.58-4.63-3.49-6.81-5.38-2.09-1.99-4.21-3.95-6.03-6.24Z"/><path class="cls-34" d="M84.58,43.8c-.44-.61-.29-1.46,.31-1.9,.61-.44,1.47-.3,1.9,.32,.44,.61,.3,1.46-.32,1.9-.61,.44-1.46,.29-1.9-.32Z"/><path class="cls-14" d="M72.08,31.93c1.58,2.46,2.75,5.11,3.95,7.73,1.07,2.68,2.18,5.35,2.88,8.19-1.58-2.46-2.75-5.1-3.95-7.73-1.07-2.68-2.18-5.35-2.88-8.19Z"/><path class="cls-4" d="M80.09,47c-.44-.61-1.29-.75-1.9-.32-.61,.44-.75,1.29-.31,1.9,.43,.61,1.29,.75,1.9,.32,.61-.44,.76-1.29,.32-1.9Z"/></g><g><path class="cls-3" d="M72.64,30.39c2.26-1.86,4.75-3.32,7.22-4.82,2.54-1.38,5.06-2.79,7.8-3.8-2.26,1.86-4.75,3.32-7.22,4.81-2.54,1.38-5.06,2.79-7.8,3.81Z"/><path class="cls-27" d="M88.1,23.16c-.72,.23-1.48-.17-1.71-.89-.22-.72,.17-1.48,.89-1.71,.72-.22,1.48,.17,1.71,.89,.23,.71-.17,1.48-.89,1.71Z"/><path class="cls-12" d="M72.95,31.38c2.83-.74,5.7-1.03,8.57-1.36,2.88-.19,5.76-.43,8.68-.2-2.83,.75-5.7,1.04-8.57,1.37-2.88,.19-5.76,.42-8.68,.2Z"/><path class="cls-17" d="M89.76,28.42c-.72,.22-1.11,.99-.89,1.71,.23,.72,.99,1.11,1.71,.89,.72-.23,1.11-.99,.89-1.71-.23-.72-.99-1.12-1.71-.89Z"/></g><path class="cls-1" d="M95.92,36.66c2.3,0,3.74-.76,4.58-1.47,1.19-1,1.91-2.5,1.97-4.11,.1-2.58-1.58-5.48-4.27-7.42-.51-.37-.77-1.16-.56-1.76,1.1-3.12,.79-6.47-.76-8.52-.98-1.28-2.43-2.09-3.98-2.23-1.32-.13-3.43,.21-5.85,2.45-1.73,1.6-4.51,4.33-7.15,6.93,1.7-3.26,3.47-6.69,4.49-8.79,1.43-2.96,1.14-5.07,.63-6.31-.58-1.45-1.79-2.6-3.3-3.15-2.41-.88-5.7-.19-8.37,1.77-.51,.38-1.34,.37-1.84-.01-2.64-2-5.91-2.75-8.34-1.9-1.52,.53-2.74,1.65-3.35,3.09-.52,1.24-.86,3.34,.52,6.32,.99,2.14,2.71,5.63,4.37,8.93-2.57-2.62-5.28-5.37-6.97-6.98-2.38-2.28-4.47-2.66-5.81-2.55-1.56,.11-3.02,.9-4.01,2.16-1.59,2.02-1.95,5.36-.91,8.51,.2,.6-.07,1.39-.58,1.75-2.72,1.88-4.44,4.76-4.39,7.34,.03,1.61,.73,3.12,1.91,4.14,.85,.74,2.33,1.54,4.73,1.54,.45,0,.93-.03,1.44-.09,2.34-.28,6.19-.84,9.85-1.4-3.29,1.63-6.73,3.37-8.79,4.47-2.9,1.56-3.89,3.43-4.22,4.74-.38,1.51-.08,3.15,.82,4.49,1.43,2.13,4.46,3.49,7.75,3.49,.02,0,.05,0,.07,0,.64,0,1.29,.48,1.47,1.1,.95,3.17,3.16,5.7,5.63,6.44,.55,.17,1.11,.25,1.67,.25,1.01,0,2-.27,2.86-.79,1.15-.69,2.65-2.19,3.29-5.42,.46-2.31,1.11-6.15,1.71-9.8,.54,3.63,1.12,7.45,1.53,9.74,.59,3.24,2.07,4.77,3.21,5.48,.88,.55,1.89,.83,2.94,.83,.52,0,1.06-.08,1.58-.22,2.48-.7,4.73-3.2,5.74-6.35,.19-.6,.85-1.07,1.48-1.07,.08,0,.19,0,.29,0,3.21,0,6.17-1.3,7.6-3.36,.92-1.32,1.25-2.95,.89-4.47-.3-1.31-1.27-3.2-4.14-4.81-2.06-1.15-5.51-2.96-8.79-4.66,3.62,.61,7.43,1.24,9.74,1.55,.58,.08,1.12,.12,1.62,.12Zm-8.33-22.49c1.75-1.62,3.57-2.38,5.26-2.25,1.33,.12,2.58,.82,3.43,1.93,1.41,1.85,1.66,4.91,.65,7.8-.32,.93,.03,2.07,.83,2.65,2.48,1.78,4.03,4.43,3.94,6.76-.05,1.39-.67,2.68-1.7,3.54-1.3,1.09-3.24,1.5-5.6,1.18-5.03-.69-17.17-2.83-19-3.16l-1.06-3.34h.94s.11-.2,.11-.2c.03-.06,1.51-2.84,3.32-6.27,3.06-3.03,6.76-6.67,8.87-8.63Zm-26.54-2.96c-1-2.16-1.18-4.13-.51-5.7,.52-1.23,1.58-2.2,2.89-2.66,2.21-.76,5.19-.06,7.62,1.79,.79,.6,1.98,.6,2.77,.02,2.46-1.81,5.47-2.46,7.64-1.66,1.31,.48,2.34,1.47,2.84,2.71,.64,1.58,.43,3.54-.61,5.68-2.21,4.57-8,15.46-8.88,17.1l-3.5-.03,.3-.89-.16-.17s-2.23-2.32-4.94-5.09c-1.94-3.85-4.26-8.49-5.47-11.1Zm-11.02,24.32c-2.36,.28-4.29-.16-5.57-1.27-1.01-.88-1.61-2.18-1.64-3.57-.05-2.33,1.54-4.95,4.05-6.69,.81-.56,1.19-1.69,.88-2.63-.96-2.9-.65-5.96,.78-7.78,.86-1.1,2.12-1.78,3.46-1.87,.11,0,.22-.01,.33-.01,1.6,0,3.28,.81,4.89,2.35,3.66,3.51,12.23,12.39,13.52,13.73l-1.64,4.92c-1.84,.29-14.02,2.24-19.06,2.84Zm19.73,18c-.46,2.33-1.47,4.03-2.93,4.91-1.15,.69-2.58,.86-3.91,.46-2.22-.67-4.23-3-5.11-5.92-.28-.94-1.23-1.65-2.21-1.65-.02,0-.05,0-.08,0-3.03,0-5.81-1.23-7.09-3.15-.78-1.16-1.04-2.56-.71-3.87,.41-1.65,1.74-3.11,3.83-4.24,2.52-1.35,7.12-3.65,10.97-5.55,3.8-.59,6.86-1.08,6.93-1.09l.23-.04,.34-1.03,2.93,2.17c-.29,1.84-2.2,14.02-3.19,19Zm23.21-13.2c2.07,1.16,3.37,2.65,3.76,4.3,.3,1.31,.02,2.71-.77,3.86-1.29,1.86-4,3.03-6.96,3.03-.1,0-.19,0-.3,0-.97,0-1.92,.69-2.22,1.61-.92,2.91-2.97,5.2-5.21,5.84-1.34,.37-2.76,.19-3.89-.52-1.44-.9-2.43-2.62-2.85-4.96-.5-2.81-1.27-7.89-1.88-12.14,.61-3.79,1.09-6.86,1.11-6.93l.04-.23-3.51-2.6,.78-2.34,2.47,.02,1.27,4.03,.23,.04c.07,.01,3.17,.56,6.99,1.22,3.83,1.97,8.44,4.37,10.95,5.77Z"/><path class="cls-25" d="M77.66,31c-.03,3.01-2.49,5.43-5.49,5.4-3.01-.02-5.42-2.49-5.4-5.49,.02-3.01,2.48-5.42,5.49-5.4,3.01,.02,5.43,2.48,5.4,5.49Z"/></g></g></g></g></svg>