<?xml version="1.0" encoding="utf-8"?>
<!-- Generator: Adobe Illustrator 23.0.3, SVG Export Plug-In . SVG Version: 6.00 Build 0)  -->
<svg version="1.1" id="圖層_1" xmlns="http://www.w3.org/2000/svg" xmlns:xlink="http://www.w3.org/1999/xlink" x="0px" y="0px"
	 viewBox="0 0 69 34" style="enable-background:new 0 0 69 34;" xml:space="preserve">
<style type="text/css">
	.st0{fill:#231815;}
	.st1{fill:#B4B5B6;}
</style>
<g>
	<g>
		<path class="st0" d="M1.5,25.6c-0.4,0.4-0.6,0.9-0.8,1.3c-0.3,0.7-0.4,1.3-0.4,1.9c0,0.6,0.1,1.2,0.4,1.9C1,31.1,1.2,31.6,1.6,32
			H0v-6.3H1.5z"/>
		<path class="st0" d="M4.7,31.9H4.3v-2.6c-0.2,0.4-0.4,0.9-0.7,1.3l-0.4-0.1c0.4-0.6,0.7-1.2,0.9-1.9H3.4v-0.4h1v-2.5h0.4v2.5h1
			v0.4H4.9c0.3,0.5,0.6,1,0.9,1.5l-0.4,0.2c-0.2-0.4-0.4-0.8-0.6-1.2V31.9z M3.7,26.1c0.2,0.7,0.3,1.3,0.4,1.6l-0.4,0.1
			c-0.1-0.5-0.2-1.1-0.4-1.6L3.7,26.1z M5.7,26.2c-0.1,0.6-0.3,1.2-0.4,1.6l-0.4-0.1c0.2-0.5,0.3-1,0.4-1.6L5.7,26.2z M9.6,27.7v0.4
			H5.8v-0.4h1.7v-0.4H6.1v-0.4h1.4v-0.5H6V26h1.6v-0.3h0.4V26h1.6v0.4H7.9v0.5h1.5v0.4H7.9v0.4H9.6z M6.5,32H6.1v-3.3
			c0-0.1,0-0.1,0.1-0.1h3.1c0.1,0,0.1,0,0.1,0.1v2.9c0,0.2-0.1,0.3-0.2,0.4C9,32.1,8.6,32,8,31.8l0-0.4c0.5,0.2,0.8,0.2,0.9,0.2
			C9,31.5,9,31.4,9,31.4v-0.6H6.5V32z M9,29.5V29l0,0H6.5c0,0,0,0,0,0v0.5H9z M9,30.4v-0.5H6.5v0.5H9z"/>
		<path class="st0" d="M13.5,26.5h-2.7v-0.4h5.8v0.4H14v4.7h3v0.4h-6.3v-0.4h2.9V26.5z"/>
		<path class="st0" d="M20.5,26.8v0.4h-2.6v-0.4H20.5z M18.5,31.9h-0.4v-2.4c0-0.1,0-0.1,0.1-0.1h1.9c0.1,0,0.1,0,0.1,0.1v1.7
			c0,0.1,0,0.1-0.1,0.1h-1.6V31.9z M20.1,27.6v0.4h-2v-0.4H20.1z M20.1,28.5v0.4h-2v-0.4H20.1z M20.2,25.9v0.4h-2v-0.4H20.2z
			 M19.8,31C19.8,31,19.9,30.9,19.8,31l0.1-1.1c0,0,0-0.1-0.1-0.1h-1.2c0,0-0.1,0-0.1,0.1V31H19.8z M20.6,31.9l-0.3-0.3
			c0.5-0.2,1.1-0.4,1.5-0.8c-0.4-0.5-0.8-0.9-1.1-1.5l0.4-0.2c0.3,0.6,0.7,1.1,1,1.4c0.5-0.5,0.9-1.1,1.1-1.7h-2.5v-0.4h2.8l0.2,0.2
			c-0.2,0.9-0.6,1.6-1.2,2.2c0.4,0.3,1,0.6,1.7,0.8L24,31.9c-0.8-0.2-1.5-0.5-1.8-0.9C21.5,31.5,21,31.8,20.6,31.9z M21.5,26.3v0.3
			c0,0.7-0.3,1.2-0.8,1.5l-0.3-0.3l0.1-0.1c0.4-0.3,0.6-0.7,0.6-1.3v-0.6l0-0.1l0.1,0h1.9l0.1,0l0,0.1v1.5l0,0.1c0,0,0.1,0,0.2,0.1
			h0.2l0.1,0c0,0,0-0.1,0-0.2l0-0.3l0.4,0.1c0,0.4-0.1,0.7-0.1,0.8C24,28,23.9,28,23.8,28h-0.5c-0.1,0-0.2,0-0.3-0.1
			c-0.1-0.1-0.1-0.2-0.1-0.3v-1.3c0,0,0-0.1-0.1-0.1L21.5,26.3C21.5,26.2,21.5,26.2,21.5,26.3z"/>
		<path class="st0" d="M25.4,28.8l-0.4-0.2c0.6-0.9,1-2,1.1-3l0.4,0.1c-0.1,0.6-0.2,1.2-0.4,1.6v4.6h-0.4v-3.7L25.4,28.8z M28,26.5
			h-1.1v-0.4H28v-0.4h0.4v0.4h1.4v-0.5h0.4v0.5h1.2v0.4h-1.2v0.7h1.3v0.4h-4.3c0,0,0,0,0,0v2.1c0,0.8-0.2,1.5-0.5,2.1l-0.4-0.2
			c0.2-0.3,0.3-0.7,0.4-1c0.1-0.3,0.1-0.6,0.1-1.1v-2.3c0-0.1,0-0.1,0.1-0.1H28V26.5z M28.1,30.7v1.2h-0.4v-3.7c0-0.1,0-0.1,0.1-0.1
			h3.4c0.1,0,0.1,0,0.1,0.1v3.3c0,0.2-0.1,0.3-0.2,0.4c-0.2,0.1-0.5,0.1-1.1,0v-0.4c0.4,0.1,0.6,0.2,0.7,0.1c0.1,0,0.1-0.1,0.1-0.2
			v-0.6h-1.2v1.2h-0.4v-1.2H28.1z M29.3,28.5h-1.2c0,0,0,0,0,0v0.7h1.2V28.5z M29.3,29.6h-1.2v0.7h1.2V29.6z M29.8,27.2v-0.7h-1.4
			v0.7H29.8z M29.7,29.2h1.2v-0.7l0,0h-1.2V29.2z M29.7,30.3h1.2v-0.7h-1.2V30.3z"/>
		<path class="st0" d="M34.8,25.6V32h-1.6c0.4-0.5,0.7-1,0.8-1.4c0.2-0.6,0.4-1.2,0.4-1.8c0-0.6-0.1-1.3-0.4-1.9
			c-0.2-0.5-0.5-0.9-0.8-1.2H34.8z"/>
	</g>
	<g>
		<path class="st1" d="M46.4,21.4h-3.3c-0.6,0-1.1,0.5-1.1,1.1v9.4c0,0.6,0.5,1.1,1.1,1.1h3.3c0.6,0,1.1-0.5,1.1-1.1v-9.4
			C47.5,21.9,47,21.4,46.4,21.4z M46,23v8.5h-2.5V23H46z"/>
		<path class="st1" d="M53.2,18h-3.3c-0.6,0-1.1,0.5-1.1,1.1v12.8c0,0.6,0.5,1.1,1.1,1.1h3.3c0.6,0,1.1-0.5,1.1-1.1V19.2
			C54.3,18.5,53.8,18,53.2,18z M52.7,19.6v11.9h-2.5V19.6H52.7z"/>
		<path class="st1" d="M60,14.6h-3.3c-0.6,0-1.1,0.5-1.1,1.1v16.1c0,0.6,0.5,1.1,1.1,1.1H60c0.6,0,1.1-0.5,1.1-1.1V15.8
			C61.1,15.2,60.6,14.6,60,14.6z M59.5,16.2v15.3h-2.5V16.2H59.5z"/>
		<path class="st1" d="M66.7,11.3h-3.3c-0.6,0-1.1,0.5-1.1,1.1v19.5c0,0.6,0.5,1.1,1.1,1.1h3.3c0.6,0,1.1-0.5,1.1-1.1V12.4
			C67.9,11.8,67.4,11.3,66.7,11.3z M66.3,12.8v18.6h-2.5V12.8H66.3z"/>
		<path class="st1" d="M42.7,12.8L42.7,12.8c1.2,0,10.9-0.3,23.1-10l-0.5,2.1c0,0.2,0,0.4,0.1,0.6c0.1,0.2,0.3,0.3,0.5,0.3
			c0.1,0,0.1,0,0.2,0c0.4,0,0.7-0.3,0.8-0.6l1-4.3c0,0,0,0,0,0c0-0.1,0-0.1,0-0.2c0,0,0-0.1,0-0.1c0,0,0-0.1,0-0.1
			c0,0,0-0.1-0.1-0.1c0,0,0-0.1,0-0.1c0-0.1-0.1-0.1-0.2-0.2c0,0,0,0,0,0c-0.1-0.1-0.2-0.1-0.3-0.1c0,0,0,0,0,0c0,0,0,0-0.1,0
			c0,0-0.1,0-0.1,0h-4c-0.4,0-0.8,0.4-0.8,0.8c0,0.4,0.4,0.8,0.8,0.8h1.8C58.8,6.5,53.3,8.8,49.7,10c-4.2,1.3-6.9,1.3-7,1.3
			c-0.2,0-0.4,0.1-0.6,0.2c-0.2,0.1-0.3,0.4-0.3,0.6c0,0.2,0.1,0.4,0.2,0.6C42.3,12.8,42.5,12.8,42.7,12.8z M42.8,12.6L42.8,12.6
			L42.8,12.6L42.8,12.6z"/>
	</g>
</g>
</svg>
