<?xml version="1.0" encoding="utf-8"?>
<!-- Generator: Adobe Illustrator 23.0.3, SVG Export Plug-In . SVG Version: 6.00 Build 0)  -->
<svg version="1.1" id="圖層_1" xmlns="http://www.w3.org/2000/svg" xmlns:xlink="http://www.w3.org/1999/xlink" x="0px" y="0px"
	 viewBox="0 0 142 23" style="enable-background:new 0 0 142 23;" xml:space="preserve">
<style type="text/css">
	.st0{fill:#231815;}
</style>
<g>
	<path class="st0" d="M0.8,4.1L0.2,4.2c-0.1,0-0.1,0-0.1,0L0,3.8c0,0,0-0.1,0.1,0l0.7,0.1H4V0.3V0.2c0,0,0,0,0.1,0
		c0.3,0,0.6,0.1,1,0.1c0.2,0,0.3,0.1,0.3,0.2c0,0.1-0.1,0.2-0.2,0.2c0,0-0.1,0.1-0.1,0.1v3h2.4c0.1,0,0.1,0,0.2-0.1L8,3.1
		c0,0,0.1,0,0.2,0C8.5,3.3,8.8,3.6,9,3.9c0,0,0.1,0.1,0,0.1c0,0-0.1,0.1-0.2,0.1H4.9v5c0,0.2-0.1,0.3-0.2,0.3
		c-0.2,0.1-0.4,0.1-0.6,0C4,9.4,4,9.3,4,9.2V4.1H0.8z"/>
	<path class="st0" d="M15,1.2c-0.9,1.7-2.4,2.9-4.6,3.4c0,0-0.1,0-0.1,0c0-0.1,0.1-0.1,0.3-0.2c2-1.1,3.2-2.3,3.6-3.6h-1.8l-0.5,0.1
		c-0.1,0-0.1,0-0.1,0l-0.1-0.4c0,0,0,0,0.1,0l0.7,0.1h1.7l0.1-0.1c0.1-0.1,0.2-0.2,0.3-0.2c0,0,0.1,0,0.1,0c0.2,0.1,0.4,0.3,0.6,0.5
		c0.1,0.1,0.1,0.2,0.1,0.2L15.2,1c0.2,0.3,0.4,0.6,0.7,0.9c1,1,2.1,1.5,3.3,1.6c0.1,0,0.1,0,0.1,0c0,0,0,0.1-0.1,0.1
		c-0.2,0.1-0.4,0.2-0.5,0.4c-0.1,0.2-0.2,0.4-0.2,0.5c0,0.1-0.1,0.1-0.2,0l-0.1,0C16.8,4.1,15.7,2.9,15,1.2L15,1.2z M14.1,6.6h-1.7
		l-0.6,0.1c-0.1,0-0.1,0-0.1,0l-0.1-0.3c0-0.1,0-0.1,0.1,0l0.7,0.1h1.7V4.4h-1.2l-0.6,0.1c-0.1,0-0.1,0-0.1,0l-0.1-0.3
		c0,0,0-0.1,0.1,0l0.7,0.1h2.4c0.1,0,0.1,0,0.2-0.1l0.5-0.6c0-0.1,0.1-0.1,0.2,0c0.3,0.2,0.6,0.5,0.8,0.8c0,0,0.1,0.1,0,0.1
		c0,0-0.1,0.1-0.2,0.1h-1.8v1.9h0.8c0.1,0,0.1,0,0.2-0.1l0.5-0.6c0.1-0.1,0.1-0.1,0.2,0c0.3,0.2,0.6,0.5,0.9,0.8c0,0,0.1,0.1,0,0.1
		c0,0-0.1,0.1-0.2,0.1h-2.4v2.2H17c0.1,0,0.1,0,0.2-0.1l0.5-0.6c0-0.1,0.1-0.1,0.2,0c0.4,0.2,0.7,0.5,0.9,0.8c0,0,0.1,0.1,0,0.1
		c0,0.1-0.1,0.1-0.2,0.1h-7.1l-0.6,0.1c-0.1,0-0.1,0-0.1,0l-0.1-0.3c0,0,0-0.1,0.1,0l0.7,0.1h2.6V6.6z"/>
	<path class="st0" d="M21.2,4.1l-0.6,0.1c-0.1,0-0.1,0-0.1,0l-0.1-0.3c0,0,0-0.1,0.1,0l0.7,0.1h3.2V0.3V0.2c0,0,0,0,0.1,0
		c0.3,0,0.6,0.1,1,0.1c0.2,0,0.3,0.1,0.3,0.2c0,0.1-0.1,0.2-0.2,0.2c0,0-0.1,0.1-0.1,0.1v3h2.4c0.1,0,0.1,0,0.2-0.1l0.5-0.6
		c0,0,0.1,0,0.2,0c0.3,0.2,0.6,0.5,0.8,0.8c0,0,0.1,0.1,0,0.1c0,0-0.1,0.1-0.2,0.1h-3.9v5c0,0.2-0.1,0.3-0.2,0.3
		c-0.2,0.1-0.4,0.1-0.6,0c-0.1-0.1-0.2-0.1-0.2-0.3V4.1H21.2z"/>
	<path class="st0" d="M34.3,8.2c-0.8,0.7-1.9,1.1-3.4,1.3c-0.1,0-0.1,0-0.1-0.1c0,0,0-0.1,0.1-0.1c1.3-0.3,2.3-0.9,2.9-1.8
		c0.2-0.3,0.4-0.7,0.6-1.4h-3.1l-0.6,0.1c-0.1,0-0.1,0-0.1,0L30.5,6c0,0,0-0.1,0.1,0L31.3,6h3.1c0-0.2,0.1-0.5,0.1-0.9
		c0,0,0-0.1,0.1,0l1,0.2c0.1,0,0.2,0.1,0.2,0.2c0,0.1-0.1,0.1-0.2,0.2c0,0-0.1,0.2-0.2,0.5H38c0.1,0,0.1,0,0.2-0.1l0.5-0.6
		c0-0.1,0.1-0.1,0.2,0c0.3,0.2,0.6,0.5,0.9,0.8c0,0,0,0.1,0,0.1c0,0.1-0.1,0.1-0.2,0.1h-4.1l0.2,0.4c0.9,1.1,2.2,1.6,3.9,1.6
		c0.1,0,0.1,0,0.1,0c0,0,0,0.1-0.1,0.1c-0.3,0.2-0.5,0.5-0.6,0.9c0,0.1-0.1,0.1-0.1,0.1c-0.4,0-0.8-0.1-1.3-0.3
		c-1.2-0.5-2-1.4-2.4-2.6C35.1,7.2,34.7,7.8,34.3,8.2z M34.6,3.4h-2.1l-0.6,0.1c-0.1,0-0.1,0-0.1,0l-0.1-0.3c0-0.1,0-0.1,0.1,0
		l0.7,0.1h2.1V2.1h-2.7l-0.6,0.1c-0.1,0-0.1,0-0.1,0L31,1.8c0,0,0-0.1,0.1,0l0.7,0.1h4c0.3-0.6,0.4-1.2,0.5-1.7c0-0.1,0-0.1,0.1-0.1
		l0.9,0.2c0.2,0,0.3,0.1,0.3,0.2c0,0.1-0.1,0.1-0.2,0.2c-0.1,0-0.2,0-0.2,0.1c-0.3,0.4-0.6,0.8-1,1.1h1.2c0.1,0,0.1,0,0.2-0.1
		l0.5-0.6c0,0,0.1-0.1,0.2,0c0.3,0.2,0.6,0.5,0.8,0.8c0,0,0.1,0.1,0,0.1c0,0-0.1,0.1-0.2,0.1h-3.4v1.1h1.1c0.1,0,0.1,0,0.2-0.1
		l0.5-0.6c0-0.1,0.1-0.1,0.2,0c0.3,0.2,0.6,0.5,0.8,0.8c0,0.1,0.1,0.1,0,0.1c0,0-0.1,0.1-0.2,0.1h-2.7v1.1h2.3c0.1,0,0.1,0,0.2-0.1
		l0.5-0.6c0-0.1,0.1-0.1,0.2,0c0.3,0.2,0.6,0.5,0.9,0.8c0,0,0.1,0.1,0,0.1c0,0-0.1,0.1-0.2,0.1h-8l-0.6,0.1c-0.1,0-0.1,0-0.1,0
		l-0.1-0.4c0,0,0-0.1,0.1,0l0.7,0.1h3.1V3.4z M32.6,0.1C32.6,0.1,32.7,0,32.6,0.1l0.4,0c0.5,0.1,1,0.3,1.2,0.7
		c0.1,0.2,0.1,0.3,0.1,0.5c0,0.2-0.1,0.3-0.3,0.4c-0.3,0.1-0.6,0-0.7-0.5C33.2,0.7,33,0.4,32.6,0.1C32.6,0.2,32.6,0.1,32.6,0.1z"/>
	<path class="st0" d="M45.9,5.7c-0.3,0.3-0.7,0.5-1.2,0.6L44.5,6c0.4-0.1,0.7-0.2,0.8-0.3c0.1-0.1,0.2-0.1,0.2-0.2
		c0-0.1,0-0.1-0.1-0.1c-0.2,0-0.4-0.1-0.6-0.2c-0.2-0.1-0.2-0.4-0.2-0.6c0-0.2,0.1-0.4,0.2-0.6c0.1-0.1,0.3-0.2,0.6-0.2
		c0.2,0,0.4,0.1,0.5,0.2c0.2,0.2,0.3,0.3,0.3,0.6C46.3,5.1,46.2,5.5,45.9,5.7z"/>
	<path class="st0" d="M52,6.5c0,0.1-0.1,0.2-0.2,0.3c-0.2,0.1-0.4,0-0.6,0c-0.1-0.1-0.1-0.2-0.1-0.3c0.3-1,0.5-2.2,0.8-3.6h-0.3
		l-0.5,0.1c-0.1,0-0.1,0-0.1,0l-0.1-0.3c0,0,0-0.1,0.1,0l0.7,0.1h0.3C52,1.8,52.1,1,52.2,0.3c0-0.1,0-0.1,0.1-0.1l0.8,0.2
		c0.2,0,0.3,0.1,0.2,0.2c0,0.1-0.1,0.1-0.2,0.2c0,0-0.1,0-0.1,0.1c0,0.5-0.1,1.1-0.3,1.8h0.9c0.1,0,0.1,0,0.2,0l0.4-0.2
		c0,0,0.1,0,0.1,0C54.6,2.6,54.8,2.8,55,3C55,3,55.1,3.1,55,3.2c0,0.1-0.1,0.1-0.2,0.1c-0.1,0-0.1,0.1-0.1,0.2
		c-0.1,1.2-0.4,2.2-0.8,3l0,0c0.7,0.5,1.1,1,1.1,1.4c0,0.2-0.1,0.3-0.2,0.4c-0.2,0.1-0.3,0.1-0.5,0c-0.1-0.1-0.2-0.2-0.3-0.4
		c-0.1-0.3-0.3-0.5-0.5-0.7c-0.6,0.9-1.4,1.6-2.4,2.1c-0.1,0-0.1,0-0.1,0c0,0,0-0.1,0-0.1c0.8-0.6,1.4-1.5,1.9-2.6
		c-0.3-0.2-0.6-0.4-0.9-0.5L52,6.5z M53.2,6.1c0.3-0.9,0.6-2,0.8-3.3h-1.1l-0.6,3l0.3,0C52.7,6,52.9,6,53.2,6.1z M57.7,8.6
		c0,0.2-0.1,0.5-0.3,0.6c-0.2,0.2-0.5,0.3-0.9,0.3c-0.1,0-0.1,0-0.1-0.1c0-0.4-0.3-0.7-0.8-0.8c-0.1,0-0.1,0-0.1-0.1
		c0,0,0-0.1,0.1-0.1c0.7,0,1.1,0,1.2,0c0,0,0.1-0.1,0.1-0.2V4.8h-1.1l-0.6,0.1c-0.1,0-0.1,0-0.1,0l-0.1-0.3c0,0,0-0.1,0.1,0l0.7,0.1
		h1.1V2.3c0,0,0-0.1,0.1-0.1l0.7,0.1c0.3-0.4,0.6-0.8,0.9-1.3h-2.9L55,1.1c-0.1,0-0.1,0-0.1,0l-0.1-0.4c0,0,0,0,0.1,0l0.7,0.1h2.9
		c0.1,0,0.1,0,0.1-0.1c0.1-0.1,0.2-0.2,0.3-0.3h0.1c0.2,0.2,0.5,0.3,0.7,0.6c0.1,0.1,0.1,0.2,0.1,0.2c0,0.1-0.1,0.1-0.2,0.1
		l-0.4,0.2c-0.4,0.4-0.8,0.7-1.3,0.9C58,2.4,58,2.5,58,2.5l-0.3,0.3v1.8h0.7c0.1,0,0.1,0,0.2-0.1l0.5-0.6c0-0.1,0.1-0.1,0.2,0
		c0.3,0.2,0.6,0.5,0.8,0.8c0,0.1,0.1,0.1,0,0.1c0,0-0.1,0.1-0.2,0.1h-2.2V8.6z"/>
	<path class="st0" d="M65.4,6h-2l-0.6,0.1c-0.1,0-0.1,0-0.1,0l-0.1-0.4c0,0,0,0,0.1,0l0.7,0.1h2V3h-2.1c-0.5,1.1-1.1,1.9-1.7,2.3
		c-0.1,0-0.1,0-0.1,0c0,0,0-0.1,0-0.1c0.9-1.1,1.4-2.6,1.5-4.6c0-0.1,0-0.1,0.1-0.1c0.3,0,0.7,0.1,1.1,0.3c0.1,0,0.1,0.1,0.1,0.2
		c0,0.1-0.1,0.1-0.2,0.2c-0.1,0-0.1,0.1-0.1,0.2l-0.5,1.3h2V0.3c0,0,0,0,0.1,0c0.4,0,0.7,0.1,1,0.1c0.1,0,0.2,0.1,0.2,0.2
		c0,0.1-0.1,0.1-0.2,0.2c-0.1,0-0.1,0.1-0.1,0.1v1.9h1.4c0.1,0,0.1,0,0.2-0.1L68.4,2c0-0.1,0.1-0.1,0.2,0c0.3,0.2,0.6,0.5,0.9,0.8
		c0,0,0.1,0.1,0,0.1c0,0-0.1,0.1-0.2,0.1h-3v2.7h1.1c0.1,0,0.1,0,0.2-0.1L68.1,5c0-0.1,0.1-0.1,0.2,0c0.4,0.2,0.7,0.5,0.9,0.8
		c0,0,0.1,0.1,0,0.1c0,0-0.1,0.1-0.2,0.1h-2.7v2.8h2.1c0.1,0,0.1,0,0.2-0.1L69.1,8c0-0.1,0.1-0.1,0.2,0c0.4,0.2,0.7,0.5,0.9,0.8
		c0,0.1,0.1,0.1,0,0.1c0,0-0.1,0.1-0.2,0.1H62l-0.6,0.1c-0.1,0-0.1,0-0.1,0l-0.1-0.3c0,0,0-0.1,0.1,0L62,8.8h3.4V6z"/>
	<path class="st0" d="M74.2,2.2c0,0,0.1,0.1,0,0.1l-1.3,4.1c-0.1,0.4,0,0.8,0.2,1.3c0.2,0.5,0.2,0.9,0.1,1.2
		c-0.1,0.2-0.2,0.4-0.4,0.4c-0.2,0-0.3,0-0.5-0.1C72.1,9,72,8.6,72.1,8.2c0.1-0.4,0.1-0.8,0-1.2c-0.1-0.2-0.4-0.4-0.8-0.4
		c-0.1,0-0.1,0-0.1-0.1c0,0,0.1-0.1,0.1-0.1c0.2,0,0.4,0,0.6,0c0.1,0,0.2,0,0.2-0.1l1.9-4C74.1,2.2,74.1,2.2,74.2,2.2z M71.4,2.4
		C71.5,2.4,71.5,2.4,71.4,2.4l0.4,0.1c0.5,0.2,0.9,0.6,1,1c0,0.2,0,0.4,0,0.5c-0.1,0.2-0.2,0.3-0.4,0.3c-0.4,0-0.6-0.2-0.6-0.6
		c0-0.5-0.1-0.9-0.4-1.2C71.4,2.5,71.4,2.4,71.4,2.4z M72,0.2C72.1,0.2,72.1,0.2,72,0.2c0.9,0.1,1.4,0.5,1.6,1
		c0.1,0.2,0.1,0.4,0,0.6c0,0.2-0.2,0.3-0.3,0.3h0c-0.3,0-0.5-0.2-0.6-0.6c-0.1-0.5-0.3-0.9-0.7-1.2C72,0.3,72,0.3,72,0.2z M75.5,9
		c0,0.2,0,0.3-0.2,0.3c-0.1,0.1-0.3,0.1-0.4,0.1c-0.1,0-0.2,0-0.3-0.1c0,0-0.1-0.1-0.1-0.2V5.2c0,0,0-0.1,0-0.1
		c0.3,0,0.6,0.2,0.9,0.3h1.2V3.6h-1.8l-0.6,0.1c-0.1,0-0.1,0-0.1,0l-0.1-0.3c0,0,0-0.1,0.1,0l0.7,0.1h1.8V1.7
		c-0.9,0.1-1.7,0.2-2.2,0.2c-0.1,0-0.1,0-0.1-0.1c0,0,0-0.1,0.1-0.1c2-0.4,3.5-0.9,4.5-1.5l0.1,0c0.3,0.2,0.6,0.3,0.8,0.5
		C79.9,0.9,80,0.9,79.9,1c0,0-0.1,0.1-0.2,0.1c-0.1,0-0.2,0-0.3,0l-1.9,0.4v1.9h1.1c0.1,0,0.1,0,0.2-0.1l0.5-0.6c0,0,0.1-0.1,0.2,0
		c0.3,0.2,0.6,0.5,0.8,0.8c0,0,0.1,0.1,0,0.1c0,0-0.1,0.1-0.2,0.1h-2.7v1.9h0.8c0.1,0,0.1,0,0.2,0l0.3-0.3C79,5.1,79,5.1,79.1,5.1
		c0.4,0.1,0.6,0.3,0.8,0.4c0.2,0.2,0.2,0.3-0.1,0.4c0,0-0.1,0.1-0.1,0.1v3c0,0.1-0.1,0.2-0.2,0.3c-0.1,0.1-0.3,0.1-0.4,0.1
		c-0.1,0-0.2,0-0.3-0.1c0,0-0.1-0.1-0.1-0.2V8.7h-3.4V9z M78.8,8.4V5.8c0,0-0.1-0.1-0.1,0h-3.3v2.6H78.8z"/>
	<path class="st0" d="M86.8,2.8c-0.7,1.1-1.2,1.7-1.6,1.8v3.9c0,0.1-0.1,0.2-0.2,0.3c-0.1,0.1-0.3,0.1-0.4,0.1c-0.1,0-0.2,0-0.3-0.1
		c0,0-0.1-0.1-0.1-0.2V8.1h-1.5v0.4c0,0.2,0,0.3-0.1,0.4C82.6,9,82.4,9,82.2,9C82.1,9,82,9,81.9,9c0-0.1-0.1-0.1-0.1-0.2V2.1l0-0.1
		h0.1c0.3,0.1,0.6,0.2,0.9,0.3H83c0.2-0.5,0.3-1.2,0.3-1.9l0-0.3c0,0,0,0,0.1,0c0.3,0,0.6,0.1,1,0.2c0.1,0,0.2,0.1,0.2,0.2
		c0,0.1-0.1,0.1-0.2,0.1c0,0-0.1,0-0.1,0.1c-0.3,0.7-0.7,1.2-1,1.6h0.7c0.1,0,0.2,0,0.2,0L84.4,2c0.1-0.1,0.1-0.1,0.2-0.1
		c0.4,0.1,0.7,0.3,0.8,0.4c0.2,0.2,0.2,0.3-0.1,0.4c0,0-0.1,0.1-0.1,0.1v1.5l0,0c0.7-1,1.2-2.4,1.4-4.1c0-0.1,0-0.1,0.1-0.1
		c0.4,0,0.8,0.2,1.1,0.3C88,0.5,88,0.6,88,0.7c0,0.1-0.1,0.1-0.3,0.1c-0.1,0-0.1,0.1-0.1,0.2L87,2.4h2c0.1,0,0.2,0,0.2,0L89.6,2
		c0.1-0.1,0.1-0.1,0.3,0c0.6,0.4,0.9,0.6,0.9,0.7c0,0.1-0.1,0.2-0.2,0.2c-0.1,0-0.1,0.1-0.1,0.2c0,3.5-0.3,5.5-0.9,6
		c-0.3,0.2-0.7,0.4-1.1,0.4c-0.1,0-0.1,0-0.1-0.1c0-0.4-0.3-0.8-0.9-1c-0.1,0-0.1-0.1-0.1-0.1c0-0.1,0.1-0.1,0.2-0.1
		c0.7,0.1,1.2,0.1,1.4,0c0.1,0,0.2-0.2,0.2-0.4c0.1-0.6,0.3-1.6,0.3-2.9c0-1.4,0-2.1,0-2.2c0,0,0,0-0.1,0h-2L86.8,2.8L86.8,2.8z
		 M84.3,5V2.7c0,0-0.1-0.1-0.1,0h-1.4V5H84.3z M84.3,7.8V5.3h-1.5v2.5H84.3z M86.3,4.2C86.3,4.2,86.3,4.1,86.3,4.2l0.6,0.1
		c0.4,0.1,0.7,0.4,1,0.6c0.2,0.3,0.4,0.5,0.5,0.7c0.1,0.2,0.1,0.4,0,0.6c0,0.2-0.2,0.3-0.3,0.3c-0.4,0.1-0.6-0.1-0.7-0.6
		c-0.1-0.8-0.4-1.4-1-1.7C86.3,4.3,86.2,4.2,86.3,4.2z"/>
	<path class="st0" d="M92.8,3.3c-0.1,0.1-0.3,0.2-0.5,0.2c-0.2,0-0.3-0.1-0.4-0.2c-0.1-0.1-0.1-0.3-0.1-0.4c0-0.2,0.2-0.3,0.3-0.4
		c0.4-0.2,0.6-0.6,0.8-1.2c0,0,0-0.1,0-0.1c0,0,0.1,0,0.1,0.1l0.1,0.4l0.6,0h2.2V0.2c0,0,0,0,0.1,0c0.3,0,0.7,0.1,1,0.1
		c0.1,0,0.2,0.1,0.2,0.2c0,0.1-0.1,0.1-0.2,0.2c-0.1,0-0.1,0.1-0.1,0.1v0.9h2.3c0,0,0.1,0,0.2-0.1l0.3-0.3c0,0,0.1,0,0.1,0
		c0.3,0.1,0.7,0.3,0.9,0.5c0.1,0.1,0.1,0.1,0.1,0.2c0,0.1-0.1,0.1-0.2,0.1l-0.1,0c-0.4,0.4-0.8,0.7-1.2,1c-0.1,0-0.1,0-0.1,0l0-0.1
		c0.2-0.4,0.3-0.8,0.3-1.1h-5.7l-0.5,0C93.1,2.6,93,3.1,92.8,3.3z M95.6,5.3c-0.1,1.3-0.5,2.2-1.1,2.9c-0.7,0.7-1.5,1.2-2.5,1.3
		c0,0-0.1,0-0.1,0c0,0,0-0.1,0.1-0.1c0.3-0.1,0.6-0.3,1-0.6c0.4-0.3,0.7-0.6,0.9-0.9c0.4-0.5,0.7-1.4,0.8-2.5h-1.8l-0.6,0.1
		c-0.1,0-0.1,0-0.1,0L92.1,5c0,0,0-0.1,0.1,0L92.9,5h6C98.9,5,99,5,99,5l0.5-0.6c0.1-0.1,0.1-0.1,0.2,0c0.4,0.2,0.6,0.5,0.9,0.8
		c0,0.1,0.1,0.1,0,0.1c0,0.1-0.1,0.1-0.2,0.1h-2.8v2.8c0,0.1,0,0.1,0.1,0.2c0.1,0.1,0.4,0.1,0.8,0.1c0.7,0,1-0.1,1.1-0.1
		c0.1-0.1,0.2-0.5,0.4-1c0-0.1,0-0.1,0.1-0.1c0.1,0,0.1,0,0.1,0.1v0.6c0,0.2,0.1,0.3,0.2,0.3c0.2,0.1,0.3,0.2,0.3,0.5
		c0,0.2-0.1,0.3-0.4,0.4c-0.3,0.1-0.9,0.2-1.7,0.2c-0.9,0-1.4-0.1-1.6-0.3c-0.2-0.2-0.3-0.4-0.3-0.6V5.3H95.6z M94.2,3.3h2.9
		c0.1,0,0.1,0,0.2-0.1l0.5-0.6c0-0.1,0.1-0.1,0.2,0c0.3,0.2,0.6,0.5,0.9,0.8c0.1,0,0.1,0.1,0,0.1c0,0-0.1,0.1-0.2,0.1h-4.5l-0.6,0.1
		c-0.1,0-0.1,0-0.1,0l-0.1-0.3c0,0,0-0.1,0.1,0L94.2,3.3z"/>
	<path class="st0" d="M105.7,8.2c-0.8,0.7-1.9,1.1-3.4,1.3c-0.1,0-0.1,0-0.1-0.1c0,0,0-0.1,0.1-0.1c1.3-0.3,2.3-0.9,2.9-1.8
		c0.2-0.3,0.4-0.7,0.6-1.4h-3.1l-0.6,0.1c-0.1,0-0.1,0-0.1,0L101.9,6c0,0,0-0.1,0.1,0l0.7,0.1h3.1c0-0.2,0.1-0.5,0.1-0.9
		c0,0,0-0.1,0.1,0l1,0.2c0.1,0,0.2,0.1,0.2,0.2c0,0.1-0.1,0.1-0.2,0.2c0,0-0.1,0.2-0.2,0.5h2.5c0.1,0,0.1,0,0.2-0.1l0.5-0.6
		c0-0.1,0.1-0.1,0.2,0c0.3,0.2,0.6,0.5,0.9,0.8c0,0,0,0.1,0,0.1c0,0.1-0.1,0.1-0.2,0.1h-4.1l0.2,0.4c0.9,1.1,2.2,1.6,3.9,1.6
		c0.1,0,0.1,0,0.1,0c0,0,0,0.1-0.1,0.1c-0.3,0.2-0.5,0.5-0.6,0.9c0,0.1-0.1,0.1-0.1,0.1c-0.4,0-0.8-0.1-1.2-0.3
		c-1.2-0.5-2-1.4-2.4-2.6C106.5,7.2,106.1,7.8,105.7,8.2z M106,3.4h-2.1l-0.6,0.1c-0.1,0-0.1,0-0.1,0l-0.1-0.3c0-0.1,0-0.1,0.1,0
		l0.7,0.1h2.1V2.1h-2.7l-0.6,0.1c-0.1,0-0.1,0-0.1,0l-0.1-0.4c0,0,0-0.1,0.1,0l0.7,0.1h4c0.3-0.6,0.4-1.2,0.5-1.7
		c0-0.1,0-0.1,0.1-0.1l0.9,0.2c0.2,0,0.3,0.1,0.3,0.2c0,0.1-0.1,0.1-0.2,0.2c-0.1,0-0.1,0-0.2,0.1c-0.3,0.4-0.6,0.8-1,1.1h1.2
		c0.1,0,0.1,0,0.2-0.1l0.5-0.6c0,0,0.1-0.1,0.2,0c0.3,0.2,0.6,0.5,0.8,0.8c0,0,0.1,0.1,0,0.1c0,0-0.1,0.1-0.2,0.1H107v1.1h1.1
		c0.1,0,0.1,0,0.2-0.1l0.5-0.6c0-0.1,0.1-0.1,0.2,0c0.3,0.2,0.6,0.5,0.8,0.8c0,0.1,0.1,0.1,0,0.1c0,0-0.1,0.1-0.2,0.1H107v1.1h2.3
		c0.1,0,0.1,0,0.2-0.1l0.5-0.6c0-0.1,0.1-0.1,0.2,0c0.4,0.2,0.7,0.5,0.9,0.8c0,0,0.1,0.1,0,0.1c0,0-0.1,0.1-0.2,0.1h-8l-0.6,0.1
		c-0.1,0-0.1,0-0.1,0l-0.1-0.4c0,0,0-0.1,0.1,0l0.7,0.1h3.1V3.4z M104,0.1C104,0.1,104.1,0,104,0.1l0.4,0c0.5,0.1,0.9,0.3,1.2,0.7
		c0.1,0.2,0.1,0.3,0.1,0.5c0,0.2-0.1,0.3-0.3,0.4c-0.3,0.1-0.6,0-0.7-0.5C104.6,0.7,104.4,0.4,104,0.1C104,0.2,104,0.1,104,0.1z"/>
	<path class="st0" d="M114.2,6.7c-0.4,1.4-1.1,2.3-2.1,2.6c-0.1,0-0.1,0-0.1,0c0,0,0-0.1,0-0.1c0.5-0.5,0.9-1.1,1.1-1.9
		c0.1-0.6,0.3-1.4,0.3-2.5h-0.7l-0.6,0.1c0,0-0.1,0-0.1,0l-0.1-0.3c0,0,0,0,0.1,0l0.7,0.1h0.7V2.5h-0.5l-0.6,0.1c0,0-0.1,0-0.1,0
		l-0.1-0.3c0,0,0,0,0.1,0l0.7,0.1h0.5V0.2c0,0,0-0.1,0.1-0.1c0.3,0,0.6,0,0.9,0.1c0.2,0,0.3,0.1,0.3,0.2c0,0.1-0.1,0.2-0.2,0.2
		c0,0-0.1,0-0.1,0.1v1.3v0.3h0.4c0.1,0,0.1,0,0.1-0.1l0.4-0.5c0-0.1,0.1-0.1,0.2,0c0.2,0.2,0.3,0.3,0.5,0.6c0.1,0.1,0.1,0.1,0,0.2
		c0,0.1-0.1,0.1-0.1,0.1h-1.4l0,1.9h0.5c0.1,0,0.1,0,0.1,0l0.4-0.5c0.1-0.1,0.1-0.1,0.2,0c0.2,0.1,0.3,0.3,0.5,0.6
		c0.1,0.1,0.1,0.1,0,0.2c0,0-0.1,0.1-0.1,0.1h-1.6l-0.1,1.1c0.3,0.1,0.7,0.3,1.2,0.8c0.4,0.5,0.6,1,0.5,1.3c0,0.2-0.1,0.3-0.3,0.3
		c-0.3,0.1-0.5-0.1-0.6-0.5c-0.1-0.6-0.4-1.2-0.8-1.6L114.2,6.7z M118.1,5.7c-0.1,1.2-0.5,2.2-1.1,2.8c-0.6,0.5-1.3,0.8-2.3,0.9
		c0,0-0.1,0-0.1,0c0,0,0-0.1,0-0.1c0.3-0.1,0.7-0.3,0.9-0.4c0.9-0.6,1.5-1.6,1.6-2.9C117.1,6,117,6,116.8,6c-0.1,0-0.2,0-0.3-0.1
		c0,0-0.1-0.1-0.1-0.2V0.4l0-0.1h0.1c0.3,0.1,0.6,0.2,0.9,0.3h1.7c0.1,0,0.1,0,0.2,0l0.3-0.3c0-0.1,0.1-0.1,0.2-0.1
		c0.4,0.1,0.7,0.3,0.8,0.4c0.2,0.2,0.2,0.3-0.1,0.4c0,0-0.1,0.1-0.1,0.1v4.6c0,0.1,0,0.2-0.2,0.3c-0.1,0.1-0.3,0.1-0.4,0.1
		c-0.1,0-0.2,0-0.3-0.1v2l0,0.2c0,0.1,0.1,0.1,0.3,0.1l0.4,0c0.1,0,0.1,0,0.1-0.1c0.1-0.1,0.3-0.5,0.4-0.9c0,0,0-0.1,0.1-0.1
		c0,0,0.1,0,0.1,0.1c-0.1,0.5,0,0.8,0.1,0.9c0.2,0.1,0.3,0.2,0.3,0.4c0,0.2-0.1,0.3-0.3,0.4c-0.2,0.1-0.6,0.2-1.2,0.2
		c-0.6,0-0.9-0.1-1.1-0.3c-0.1-0.2-0.2-0.4-0.2-0.6V5.7H118.1z M119.6,2.2V0.9c0,0-0.1-0.1-0.1,0h-2.1v1.3H119.6z M119.6,3.9V2.5
		h-2.2v1.4H119.6z M119.6,5.4V4.1h-2.2v1.3H119.6z"/>
	<path class="st0" d="M124.6,9.2c0,0.2-0.1,0.3-0.2,0.3c-0.2,0.1-0.4,0.1-0.6,0c-0.1-0.1-0.1-0.1-0.1-0.3V5.3
		c-0.2,0.9-0.6,1.6-1.3,2c-0.1,0-0.1,0-0.1,0c0,0,0-0.1,0-0.1c0.6-1.2,1.1-2.7,1.3-4.5h-0.5l-0.6,0.1c0,0-0.1,0-0.1,0l-0.1-0.3
		c0,0,0,0,0.1,0l0.7,0.1h0.6V0.2V0.1c0,0,0,0,0-0.1c0.3,0,0.6,0.1,1,0.1c0.2,0,0.3,0.1,0.3,0.2c0,0.1-0.1,0.2-0.2,0.2
		c-0.1,0-0.1,0-0.1,0.1v1.7h0.2c0.1,0,0.1,0,0.1-0.1l0.4-0.5c0.1-0.1,0.1-0.1,0.2,0c0.2,0.2,0.4,0.4,0.5,0.6c0,0.1,0.1,0.1,0,0.2
		c0,0-0.1,0.1-0.1,0.1h-1.4v0.6h0c0.6,0.2,1.1,0.5,1.3,1c0.1,0.2,0.1,0.3,0.1,0.5c0,0.2-0.1,0.3-0.3,0.3c-0.2,0.1-0.3,0-0.4-0.1
		c-0.1-0.1-0.2-0.2-0.2-0.4c-0.1-0.4-0.2-0.7-0.4-0.9V9.2z M125.7,3.7L125.7,3.7C125.7,3.7,125.7,3.7,125.7,3.7
		c0.8-1,1.3-2.1,1.4-3.4V0.2c0,0,0-0.1,0.1-0.1c0.3,0,0.6,0.1,1,0.2c0.1,0,0.2,0.1,0.2,0.2c0,0.1-0.1,0.1-0.2,0.1l-0.5,0.9h1.7
		l0.3-0.3l0.1,0c0.3,0.1,0.5,0.3,0.7,0.5c0.1,0.1,0.1,0.2,0.1,0.2c0,0.1-0.1,0.1-0.2,0.1c0,0-0.1,0.1-0.2,0.2
		c-0.3,0.8-0.7,1.4-1.2,1.9c0.8,0.4,1.6,0.7,2.5,0.7c0.1,0,0.1,0,0.1,0.1c0,0,0,0.1-0.1,0.1c-0.2,0-0.4,0.1-0.5,0.3
		c-0.2,0.1-0.3,0.3-0.3,0.5c0,0.1-0.1,0.1-0.2,0.1c-0.9-0.3-1.5-0.8-2-1.2c-0.8,0.6-1.9,1-3.1,1.3c-0.1,0-0.1,0-0.1-0.1
		c0,0,0-0.1,0.1-0.1c1.1-0.5,2-1,2.7-1.7c-0.4-0.5-0.6-1.1-0.8-1.7C126.8,3,126.3,3.4,125.7,3.7z M127.4,9.1c0,0.2,0,0.3-0.2,0.3
		c-0.1,0.1-0.3,0.1-0.4,0.1c-0.1,0-0.2,0-0.3-0.1c0,0-0.1-0.1-0.1-0.2V5.8c0-0.1,0-0.1,0-0.1c0.4,0.1,0.7,0.2,1,0.4h1.9
		c0,0,0.1,0,0.1-0.1l0.2-0.2l0.1,0c0.3,0.1,0.6,0.3,0.8,0.5c0.2,0.1,0.2,0.3-0.1,0.3c-0.1,0-0.1,0.1-0.1,0.2v2.3
		c0,0.1-0.1,0.2-0.1,0.3c-0.1,0-0.3,0.1-0.5,0.1c-0.1,0-0.2,0-0.3-0.1c0-0.1-0.1-0.2-0.1-0.3V8.8h-2.1V9.1z M129.5,8.5V6.4
		c0,0,0-0.1-0.1,0h-2v2.1H129.5z M128.5,3.6c0.5-0.6,0.8-1.2,0.9-1.8h-1.5l-0.3,0l-0.2,0.2c0.2,0.4,0.4,0.8,0.6,1.1L128.5,3.6z"/>
	<path class="st0" d="M0.8,20.5c-0.1,0-0.2,0-0.3-0.1c0,0-0.1-0.1-0.1-0.2v-6.7v-0.1h0.1c0.3,0.1,0.6,0.2,1,0.4h1c0.1,0,0.1,0,0.2,0
		l0.3-0.3c0-0.1,0.1-0.1,0.2-0.1c0.4,0.1,0.6,0.3,0.8,0.4c0.2,0.1,0.2,0.3-0.1,0.4c0,0-0.1,0.1-0.1,0.1v5.6c0,0.1-0.1,0.2-0.2,0.3
		c-0.1,0.1-0.2,0.1-0.4,0.1c-0.1,0-0.2,0-0.3-0.1c0,0-0.1-0.1-0.1-0.2v-0.2H1.3V20c0,0.1,0,0.2-0.1,0.3c0.3,0.1,0.5,0.2,0.8,0.3
		c0.1,0.1,0.2,0.1,0.1,0.2c0,0.1-0.1,0.1-0.2,0.1l-0.1,0c-0.6,0.7-1.2,1.3-1.8,1.6H0c0,0,0,0,0-0.1c0.5-0.5,0.9-1.2,1.1-2
		C1,20.5,0.9,20.5,0.8,20.5z M2.8,15.7v-1.7c0,0-0.1,0-0.1,0H1.3v1.7H2.8z M2.8,17.7V16H1.3v1.7H2.8z M2.8,19.5V18H1.3v1.6H2.8z
		 M2.2,20.2C2.2,20.2,2.3,20.2,2.2,20.2c0.3,0,0.4,0.1,0.6,0.2C3.4,20.7,3.8,21,4,21.5C4,21.7,4,21.9,4,22.1
		c-0.1,0.2-0.2,0.3-0.3,0.3C3.2,22.4,3,22.3,3,21.8c-0.1-0.6-0.3-1.1-0.7-1.5C2.2,20.3,2.2,20.3,2.2,20.2z M5.4,22.1
		c0,0.2,0,0.3-0.2,0.3c-0.1,0.1-0.3,0.1-0.5,0.1c-0.1,0-0.2,0-0.3-0.1c0,0-0.1-0.1-0.1-0.2v-3.9c0-0.1,0-0.1,0-0.1
		c0.3,0.1,0.6,0.2,0.8,0.3h0.6v-5.3c0,0,0,0,0.1,0c0.3,0,0.7,0.1,1,0.1c0.1,0,0.2,0.1,0.2,0.2c0,0.1-0.1,0.1-0.2,0.2
		c-0.1,0-0.1,0.1-0.1,0.1v2.1h0.8c0.1,0,0.1,0,0.2-0.1l0.5-0.6c0-0.1,0.1-0.1,0.2,0c0.3,0.2,0.5,0.4,0.8,0.7c0,0,0,0.1,0,0.1
		c0,0-0.1,0.1-0.2,0.1H6.8v2.4h0.7c0,0,0.1,0,0.1-0.1l0.2-0.3l0.1,0c0.3,0.1,0.6,0.2,0.8,0.4C9,18.8,9,18.9,8.8,19
		c-0.1,0-0.1,0.1-0.1,0.2v3c0,0.1-0.1,0.2-0.2,0.3c-0.1,0.1-0.3,0.1-0.5,0.1c-0.1,0-0.2,0-0.3-0.1c0,0-0.1-0.1-0.1-0.3v-0.4H5.4
		V22.1z M7.7,21.5v-2.7c0,0-0.1-0.1-0.1,0H5.4v2.7H7.7z"/>
	<path class="st0" d="M11.5,16.9C11.5,16.9,11.6,16.9,11.5,16.9c0.2,0.6,0.2,1.2,0.1,1.9c-0.1,0.6-0.3,1-0.6,1.4
		c-0.1,0.2-0.3,0.2-0.4,0.3c-0.2,0-0.3,0-0.4-0.1c-0.1-0.1-0.1-0.3-0.1-0.4c0-0.2,0.1-0.3,0.3-0.4c0.3-0.3,0.6-0.6,0.8-0.9
		C11.3,18.1,11.4,17.6,11.5,16.9C11.5,16.9,11.5,16.9,11.5,16.9z M12.7,15.9v-0.3c0,0,0-0.1,0.1-0.1c0.3,0,0.6,0.1,0.9,0.1
		c0.2,0,0.3,0.1,0.3,0.2l-0.3,0.3V21c0,0.1,0,0.1,0.1,0.2c0.1,0.1,0.2,0.1,0.3,0.1l0.1,0c1.6,0.1,2.6,0,3.1-0.1
		c0.1-0.1,0.3-0.4,0.4-0.9c0-0.1,0.1-0.1,0.1-0.1c0,0,0.1,0,0.1,0.1c0,0.5,0.1,0.8,0.2,0.8c0.2,0.1,0.3,0.2,0.3,0.4
		c0,0.2-0.1,0.3-0.4,0.4c-0.4,0.2-1.3,0.3-2.6,0.3c-0.9,0-1.6-0.1-1.9-0.2c-0.3-0.1-0.5-0.2-0.6-0.4c-0.1-0.2-0.1-0.3-0.1-0.5
		L12.7,15.9L12.7,15.9z M14,13.2C14,13.2,14,13.2,14,13.2c0.4,0,0.6,0.1,0.8,0.2c0.7,0.3,1.1,0.7,1.4,1.2c0.1,0.2,0.1,0.4,0.1,0.6
		c0,0.2-0.1,0.3-0.3,0.4l-0.2,0c-0.3,0-0.5-0.2-0.5-0.6C14.9,14.2,14.5,13.6,14,13.2C14,13.3,14,13.3,14,13.2z M17.4,16.8
		c0,0,0.1,0,0.1,0c0.2,0.1,0.4,0.2,0.6,0.4c0.8,0.6,1.2,1.3,1.3,2c0,0.2,0,0.4-0.1,0.6c-0.1,0.2-0.2,0.3-0.4,0.3
		c-0.4,0-0.6-0.2-0.5-0.7c0-1-0.3-1.8-1-2.4C17.4,16.9,17.4,16.8,17.4,16.8z"/>
	<path class="st0" d="M21.4,16.3c-0.1,0.1-0.3,0.2-0.5,0.2c-0.2,0-0.3-0.1-0.4-0.2c-0.1-0.1-0.1-0.3-0.1-0.4c0-0.2,0.2-0.3,0.3-0.4
		c0.4-0.2,0.6-0.6,0.7-1.2c0,0,0-0.1,0-0.1c0,0,0.1,0,0.1,0.1l0.1,0.4l0.6,0h2.2v-1.5c0,0,0,0,0.1,0c0.4,0,0.7,0.1,1,0.1
		c0.1,0,0.2,0.1,0.2,0.2c0,0.1-0.1,0.1-0.2,0.2c-0.1,0-0.1,0.1-0.1,0.1v0.9h2.3c0,0,0.1,0,0.1-0.1l0.3-0.3c0,0,0.1,0,0.1,0
		c0.3,0.1,0.6,0.3,0.9,0.5c0.1,0.1,0.1,0.1,0.1,0.2c0,0.1-0.1,0.1-0.2,0.1l-0.1,0c-0.4,0.4-0.8,0.7-1.2,1c-0.1,0-0.1,0-0.2,0l0-0.1
		c0.1-0.4,0.3-0.8,0.3-1.1h-5.7l-0.5,0C21.7,15.6,21.6,16.1,21.4,16.3z M24.2,18.3c-0.1,1.3-0.5,2.2-1.1,2.9
		c-0.7,0.7-1.5,1.2-2.5,1.3c0,0-0.1,0-0.1,0c0,0,0-0.1,0.1-0.1c0.3-0.1,0.6-0.3,1-0.6c0.3-0.3,0.6-0.6,0.9-0.9
		c0.4-0.5,0.6-1.4,0.8-2.5h-1.8l-0.6,0.1c-0.1,0-0.1,0-0.1,0L20.7,18c0,0,0-0.1,0.1,0l0.7,0.1h6c0.1,0,0.1,0,0.2-0.1l0.5-0.6
		c0-0.1,0.1-0.1,0.2,0c0.4,0.2,0.6,0.5,0.9,0.8c0,0.1,0.1,0.1,0,0.1c0,0.1-0.1,0.1-0.2,0.1h-2.8v2.8c0,0.1,0,0.1,0.1,0.2
		c0.1,0.1,0.4,0.1,0.8,0.1c0.7,0,1-0.1,1.1-0.1c0.1-0.1,0.2-0.5,0.4-1c0-0.1,0.1-0.1,0.1-0.1c0.1,0,0.1,0,0.1,0.1v0.6
		c0,0.2,0.1,0.3,0.2,0.3c0.2,0.1,0.3,0.2,0.3,0.5c0,0.2-0.1,0.3-0.4,0.4c-0.3,0.1-0.9,0.2-1.7,0.2c-0.9,0-1.4-0.1-1.6-0.3
		c-0.2-0.2-0.3-0.4-0.3-0.6v-3.1H24.2z M22.8,16.3h2.9c0.1,0,0.1,0,0.2-0.1l0.5-0.6c0-0.1,0.1-0.1,0.2,0c0.3,0.2,0.6,0.5,0.9,0.8
		c0,0,0.1,0.1,0,0.1c0,0-0.1,0.1-0.2,0.1h-4.5l-0.6,0.1c-0.1,0-0.1,0-0.1,0L22,16.3c0,0,0-0.1,0.1,0L22.8,16.3z"/>
	<path class="st0" d="M34.3,21.2c-0.8,0.7-1.9,1.1-3.4,1.3c-0.1,0-0.1,0-0.1-0.1c0,0,0-0.1,0.1-0.1c1.3-0.3,2.3-0.9,2.9-1.8
		c0.2-0.3,0.4-0.7,0.6-1.4h-3.1l-0.6,0.1c-0.1,0-0.1,0-0.1,0L30.5,19c0,0,0-0.1,0.1,0l0.7,0.1h3.1c0-0.2,0.1-0.5,0.1-0.9
		c0,0,0-0.1,0.1,0l1,0.2c0.1,0,0.2,0.1,0.2,0.2c0,0.1-0.1,0.1-0.2,0.2c0,0-0.1,0.2-0.2,0.5H38c0.1,0,0.1,0,0.2-0.1l0.5-0.6
		c0-0.1,0.1-0.1,0.2,0c0.3,0.2,0.6,0.5,0.9,0.8c0,0,0,0.1,0,0.1c0,0.1-0.1,0.1-0.2,0.1h-4.1l0.2,0.4c0.9,1.1,2.2,1.6,3.9,1.6
		c0.1,0,0.1,0,0.1,0c0,0,0,0.1-0.1,0.1c-0.3,0.2-0.5,0.5-0.6,0.9c0,0.1-0.1,0.1-0.1,0.1c-0.4,0-0.8-0.1-1.3-0.3
		c-1.2-0.5-2-1.4-2.4-2.6C35.1,20.2,34.7,20.8,34.3,21.2z M34.6,16.4h-2.1l-0.6,0.1c-0.1,0-0.1,0-0.1,0l-0.1-0.3c0-0.1,0-0.1,0.1,0
		l0.7,0.1h2.1v-1.1h-2.7l-0.6,0.1c-0.1,0-0.1,0-0.1,0L31,14.8c0,0,0-0.1,0.1,0l0.7,0.1h4c0.3-0.6,0.4-1.2,0.5-1.7
		c0-0.1,0-0.1,0.1-0.1l0.9,0.2c0.2,0,0.3,0.1,0.3,0.2c0,0.1-0.1,0.1-0.2,0.2c-0.1,0-0.2,0-0.2,0.1c-0.3,0.4-0.6,0.8-1,1.1h1.2
		c0.1,0,0.1,0,0.2-0.1l0.5-0.6c0,0,0.1-0.1,0.2,0c0.3,0.2,0.6,0.5,0.8,0.8c0,0,0.1,0.1,0,0.1c0,0-0.1,0.1-0.2,0.1h-3.4v1.1h1.1
		c0.1,0,0.1,0,0.2-0.1l0.5-0.6c0-0.1,0.1-0.1,0.2,0c0.3,0.2,0.6,0.5,0.8,0.8c0,0.1,0.1,0.1,0,0.1c0,0-0.1,0.1-0.2,0.1h-2.7v1.1h2.3
		c0.1,0,0.1,0,0.2-0.1l0.5-0.6c0-0.1,0.1-0.1,0.2,0c0.3,0.2,0.6,0.5,0.9,0.8c0,0,0.1,0.1,0,0.1c0,0-0.1,0.1-0.2,0.1h-8l-0.6,0.1
		c-0.1,0-0.1,0-0.1,0l-0.1-0.4c0,0,0-0.1,0.1,0l0.7,0.1h3.1V16.4z M32.6,13.1C32.6,13.1,32.7,13,32.6,13.1l0.4,0
		c0.5,0.1,1,0.3,1.2,0.7c0.1,0.2,0.1,0.3,0.1,0.5c0,0.2-0.1,0.3-0.3,0.4c-0.3,0.1-0.6,0-0.7-0.5C33.2,13.7,33,13.4,32.6,13.1
		C32.6,13.2,32.6,13.1,32.6,13.1z"/>
	<path class="st0" d="M41.3,15.2h1.5c0.1,0,0.1,0,0.2-0.1l0.5-0.6c0,0,0.1-0.1,0.2,0c0.3,0.2,0.6,0.5,0.8,0.8c0,0,0.1,0.1,0,0.1
		c0,0-0.1,0.1-0.2,0.1h-3.1l-0.6,0.1c-0.1,0-0.1,0-0.1,0l-0.1-0.3c0-0.1,0-0.1,0.1,0L41.3,15.2z M41.9,22.1c0,0.2,0,0.3-0.2,0.3
		c-0.1,0.1-0.3,0.1-0.4,0.1c-0.1,0-0.2,0-0.3-0.1c-0.1,0-0.1-0.1-0.1-0.2V19c0-0.1,0-0.1,0-0.1c0.4,0.1,0.7,0.2,1,0.4h0.9
		c0,0,0.1,0,0.1-0.1l0.2-0.2h0.1c0.3,0.1,0.5,0.2,0.8,0.4c0.2,0.1,0.1,0.2-0.1,0.3c-0.1,0-0.1,0.1-0.1,0.2v2.2
		c0,0.1-0.1,0.2-0.1,0.3c-0.1,0.1-0.2,0.1-0.4,0.1c-0.1,0-0.2,0-0.3-0.1C43,22.4,43,22.3,43,22.2v-0.4h-1.1V22.1z M41.8,16.5h0.4
		c0.1,0,0.1,0,0.2-0.1l0.5-0.6c0,0,0.1-0.1,0.2,0c0.3,0.2,0.6,0.5,0.8,0.8c0,0,0.1,0.1,0,0.1c0,0-0.1,0.1-0.2,0.1h-2l-0.6,0.1
		c-0.1,0-0.1,0-0.1,0L41,16.5c0,0,0-0.1,0.1,0L41.8,16.5z M41.8,17.9h0.4c0.1,0,0.1,0,0.2-0.1l0.5-0.6c0,0,0.1-0.1,0.2,0
		c0.3,0.2,0.6,0.5,0.8,0.8c0,0,0.1,0.1,0,0.1c0,0-0.1,0.1-0.2,0.1h-2l-0.6,0.1c-0.1,0-0.1,0-0.1,0L41,17.9c0,0,0-0.1,0.1,0
		L41.8,17.9z M41.8,13.9h0.5c0.1,0,0.1,0,0.2-0.1l0.5-0.6c0,0,0.1,0,0.2,0c0.3,0.2,0.6,0.5,0.8,0.8c0,0.1,0.1,0.1,0,0.1
		c0,0.1-0.1,0.1-0.2,0.1h-2.1l-0.6,0.1c0,0-0.1,0-0.1,0L41,13.9c0,0,0-0.1,0.1,0L41.8,13.9z M43,21.5v-1.9c0,0-0.1-0.1-0.1,0H42
		l-0.1,0v1.9H43z M45.2,18.1l-0.5,0.1c-0.1,0-0.1,0-0.1,0l-0.1-0.3c0,0,0,0,0.1,0l0.7,0H48c0.1,0,0.1,0,0.2-0.1l0.2-0.3
		c0,0,0.1,0,0.2,0c0.3,0.2,0.5,0.4,0.6,0.5c0.1,0.1,0.1,0.1,0.1,0.2c0,0.1-0.1,0.1-0.2,0.2c-0.1,0-0.1,0.1-0.2,0.2
		c-0.3,0.7-0.6,1.4-1,1.9l-0.1,0.1c0.8,0.4,1.5,0.7,2.2,0.7c0,0,0.1,0,0.1,0.1c0,0,0,0.1-0.1,0.1c-0.4,0.1-0.8,0.4-0.9,0.9
		c0,0.1-0.1,0.1-0.2,0c-0.7-0.3-1.4-0.7-1.8-1.1c-0.7,0.6-1.7,1-2.8,1.1c-0.1,0-0.1,0-0.1-0.1c0,0,0-0.1,0.1-0.1
		c0.9-0.3,1.7-0.7,2.4-1.4c-0.6-0.7-1-1.6-1.3-2.8H45.2z M46.1,15.7c-0.2,0.8-0.8,1.4-1.9,1.7c-0.1,0-0.1,0-0.1,0c0,0,0-0.1,0.1-0.1
		c0.3-0.2,0.5-0.5,0.8-0.8c0.2-0.4,0.3-1.4,0.3-3c0-0.1,0-0.1,0.1-0.1c0.3,0.1,0.6,0.2,1,0.4h0.7c0.1,0,0.1,0,0.2-0.1l0.3-0.3
		c0,0,0.1,0,0.1,0l0,0c0.7,0.3,0.9,0.6,0.6,0.7c0,0-0.1,0-0.1,0.1v1.7c0,0.1,0,0.2,0.1,0.2c0.1,0,0.1,0.1,0.2,0.1c0.3,0,0.4,0,0.5,0
		c0.1,0,0.3-0.4,0.4-0.9c0-0.1,0-0.1,0.1-0.1c0,0,0.1,0,0.1,0.1c0,0.5,0,0.9,0.2,1c0.2,0.1,0.2,0.2,0.2,0.4c0,0.1-0.1,0.3-0.2,0.4
		c-0.1,0.1-0.3,0.1-0.5,0.2c-0.9,0.1-1.5,0.1-1.8-0.2c-0.2-0.2-0.2-0.4-0.2-0.7V14h-0.9l-0.2,0C46.3,14.7,46.2,15.3,46.1,15.7z
		 M47.1,20.2l0.1-0.1c0.4-0.6,0.6-1.2,0.8-1.9v-0.1c0,0,0,0-0.1,0h-2.4c0.2,0.4,0.4,0.8,0.7,1.2C46.4,19.6,46.7,19.9,47.1,20.2z"/>
	<path class="st0" d="M50.9,18.5c-0.1,0-0.1,0-0.1,0c0,0,0-0.1,0-0.1c1-1.3,1.6-3.1,1.7-5.2c0-0.1,0-0.1,0.1-0.1
		c0.4,0,0.7,0.1,1.1,0.3c0.1,0,0.1,0.1,0.1,0.2c0,0.1-0.1,0.1-0.3,0.1c-0.1,0-0.1,0.1-0.1,0.2c-0.2,0.7-0.4,1.4-0.6,1.9l0.2,0.1
		c0.1,0,0.1,0.1,0.1,0.2L53,16.2v6c0,0.2-0.1,0.3-0.2,0.3c-0.2,0.1-0.4,0.1-0.6,0c-0.1-0.1-0.2-0.2-0.2-0.3v-4.9
		C51.6,17.8,51.3,18.2,50.9,18.5z M53.6,16.2c-0.1,0-0.1,0-0.1,0l-0.1-0.3c0,0,0-0.1,0.1,0l0.7,0.1h1.2v-1.3h-0.8L54,14.7
		c-0.1,0-0.1,0-0.1,0l-0.1-0.4c0,0,0-0.1,0.1,0l0.7,0.1h0.8V13c0,0,0,0,0,0c0.3,0,0.7,0.1,1,0.1c0.1,0,0.2,0.1,0.2,0.1
		c0,0.1,0,0.1-0.1,0.2c-0.1,0-0.1,0.1-0.1,0.1v0.7h0.9v-1.2c0,0,0,0,0,0c0.3,0,0.7,0.1,0.9,0.1c0.1,0,0.2,0.1,0.2,0.1
		c0,0.1,0,0.1-0.2,0.2c-0.1,0-0.1,0.1-0.1,0.1v0.7h0.4c0.1,0,0.1,0,0.2-0.1l0.5-0.6c0.1,0,0.1,0,0.2,0c0.3,0.2,0.5,0.4,0.8,0.7
		c0,0,0.1,0.1,0,0.1c0,0-0.1,0.1-0.2,0.1h-1.8v1.3h0.4c0.1,0,0.1,0,0.2-0.1l0.5-0.6c0.1,0,0.1-0.1,0.2,0c0.3,0.2,0.5,0.4,0.8,0.7
		c0,0,0.1,0.1,0,0.1c0,0.1-0.1,0.1-0.2,0.1h-5.1c0,0.7,0,1.4-0.1,2.1c-0.2,2.1-0.7,3.5-1.5,4.2c0,0-0.1,0-0.1,0c0,0,0-0.1,0-0.1
		c0.5-1.2,0.8-3.2,0.8-6.1L53.6,16.2z M56.1,20.1v1.9c0,0.2,0,0.3-0.1,0.4c-0.1,0.1-0.3,0.1-0.5,0.1c-0.1,0-0.2,0-0.3-0.1
		c0-0.1-0.1-0.1-0.1-0.2v-5.6v-0.1h0.1c0.3,0.1,0.6,0.2,0.9,0.3h2.3c0.1,0,0.1,0,0.2-0.1l0.2-0.3c0,0,0.1-0.1,0.2,0
		c0.3,0.2,0.6,0.3,0.8,0.5c0.1,0.2,0.1,0.3-0.1,0.4c-0.1,0-0.1,0.1-0.1,0.2v4.1c0,0.4-0.1,0.6-0.3,0.8c-0.2,0.1-0.4,0.2-0.6,0.2
		c0,0,0,0,0-0.1c0-0.2,0-0.3-0.1-0.4c-0.1-0.1-0.2-0.2-0.4-0.2c-0.1,0-0.1-0.1-0.1-0.1c0,0,0.1-0.1,0.1-0.1l0.4-0.1
		c0.1,0,0.1-0.1,0.1-0.2v-1.2h-0.8v2c0,0.2-0.1,0.3-0.2,0.3c-0.2,0.1-0.4,0.1-0.6,0c-0.1,0-0.2-0.1-0.2-0.3v-2H56.1z M56.9,17.2
		h-0.8v1.2h0.8V17.2z M56.9,18.7h-0.8v1.2h0.8V18.7z M57.1,15.8v-1.3h-0.9v1.3H57.1z M57.8,18.4h0.8v-1c0-0.1,0-0.2-0.1-0.1h-0.7
		V18.4z M57.8,19.9h0.8v-1.2h-0.8V19.9z"/>
	<path class="st0" d="M66.3,18.7c-0.3,0.3-0.7,0.5-1.2,0.6L64.9,19c0.4-0.1,0.7-0.2,0.8-0.3c0.1-0.1,0.2-0.1,0.2-0.2
		c0-0.1,0-0.1-0.1-0.1c-0.2,0-0.4-0.1-0.6-0.2C65.1,18,65,17.8,65,17.6c0-0.2,0.1-0.4,0.2-0.6c0.1-0.1,0.3-0.2,0.6-0.2
		c0.2,0,0.4,0.1,0.5,0.2c0.2,0.2,0.3,0.3,0.3,0.6C66.7,18.1,66.6,18.5,66.3,18.7z"/>
	<path class="st0" d="M72.2,20.5c-0.1,0-0.2,0-0.3-0.1c0,0-0.1-0.1-0.1-0.2v-6.7v-0.1h0.1c0.3,0.1,0.6,0.2,1,0.4h1
		c0.1,0,0.1,0,0.2,0l0.3-0.3c0.1-0.1,0.1-0.1,0.2-0.1c0.4,0.1,0.6,0.3,0.8,0.4c0.2,0.1,0.2,0.3-0.1,0.4c0,0-0.1,0.1-0.1,0.1v5.6
		c0,0.1-0.1,0.2-0.2,0.3c-0.1,0.1-0.2,0.1-0.4,0.1c-0.1,0-0.2,0-0.3-0.1c0,0-0.1-0.1-0.1-0.2v-0.2h-1.5V20c0,0.1,0,0.2-0.1,0.3
		c0.3,0.1,0.5,0.2,0.8,0.3c0.1,0.1,0.1,0.1,0.1,0.2c0,0.1-0.1,0.1-0.2,0.1l-0.1,0c-0.6,0.7-1.2,1.3-1.8,1.6h-0.1c0,0,0,0,0-0.1
		c0.5-0.5,0.9-1.2,1.1-2C72.4,20.5,72.3,20.5,72.2,20.5z M74.2,15.7v-1.7c0,0-0.1,0-0.1,0h-1.4v1.7H74.2z M74.2,17.7V16h-1.5v1.7
		H74.2z M74.2,19.5V18h-1.5v1.6H74.2z M73.6,20.2c0,0,0.1,0,0.1,0c0.2,0,0.3,0.1,0.5,0.2c0.6,0.3,0.9,0.6,1.1,1.1
		c0.1,0.2,0.1,0.4,0,0.6c-0.1,0.2-0.2,0.3-0.3,0.3c-0.4,0.1-0.6-0.1-0.6-0.6c-0.1-0.6-0.3-1.1-0.7-1.5
		C73.6,20.3,73.6,20.3,73.6,20.2z M76.8,22.1c0,0.2,0,0.3-0.2,0.3c-0.1,0.1-0.3,0.1-0.4,0.1c-0.1,0-0.2,0-0.3-0.1
		c0,0-0.1-0.1-0.1-0.2v-3.9c0-0.1,0-0.1,0-0.1c0.3,0.1,0.6,0.2,0.8,0.3h0.6v-5.3c0,0,0,0,0.1,0c0.4,0,0.7,0.1,1,0.1
		c0.1,0,0.2,0.1,0.2,0.2c0,0.1-0.1,0.1-0.2,0.2c-0.1,0-0.1,0.1-0.1,0.1v2.1H79c0.1,0,0.1,0,0.2-0.1l0.5-0.6c0-0.1,0.1-0.1,0.2,0
		c0.3,0.2,0.5,0.4,0.8,0.7c0,0,0,0.1,0,0.1c0,0-0.1,0.1-0.2,0.1h-2.2v2.4h0.7c0,0,0.1,0,0.1-0.1l0.2-0.3l0.1,0
		c0.3,0.1,0.6,0.2,0.8,0.4c0.2,0.1,0.2,0.3-0.1,0.4c-0.1,0-0.1,0.1-0.1,0.2v3c0,0.1-0.1,0.2-0.1,0.3c-0.1,0.1-0.3,0.1-0.5,0.1
		c-0.1,0-0.2,0-0.3-0.1c0,0-0.1-0.1-0.1-0.3v-0.4h-2.3V22.1z M79.1,21.5v-2.7c0,0-0.1-0.1-0.1,0h-2.2v2.7H79.1z"/>
	<path class="st0" d="M82.9,18.2h-0.7l-0.5,0.1c-0.1,0-0.1,0-0.1,0l-0.1-0.3c0,0,0-0.1,0.1,0l0.7,0.1h0.6l0.1-0.1
		c0.1-0.1,0.2-0.2,0.3-0.3c0,0,0.1,0,0.1,0c0.3,0.1,0.5,0.3,0.7,0.5l0.1,0c0,0,0,0.2-0.2,0.4v1.9c0,0.2,0.1,0.3,0.3,0.5
		c0.4,0.4,1.1,0.6,2.1,0.6c2,0.1,3.5,0,4.7-0.2c0,0,0.1,0,0.1,0c0,0,0,0.1,0,0.1c-0.4,0.2-0.5,0.6-0.5,1c0,0,0,0.1,0,0.1l-0.5,0
		c-2.4,0-3.8-0.1-4.3-0.2c-0.8-0.3-1.4-0.8-1.9-1.6l-0.1-0.1c0,0-0.1,0.1-0.2,0.2c-0.9,1-1.3,1.6-1.3,1.7c0,0.1,0,0.1-0.1,0.1
		c0,0-0.1,0-0.1-0.1c-0.1-0.2-0.3-0.5-0.4-0.8c0,0,0-0.1,0-0.1c0.4-0.2,0.7-0.4,1-0.6c0.3-0.2,0.4-0.5,0.4-0.6V18.2z M81.8,15.2
		C81.8,15.2,81.8,15.2,81.8,15.2l0.4,0c0.6,0.2,1,0.5,1.2,0.9c0.1,0.2,0.1,0.4,0,0.6c0,0.2-0.2,0.3-0.3,0.3
		c-0.3,0.1-0.6-0.1-0.6-0.5C82.4,16,82.1,15.6,81.8,15.2C81.8,15.3,81.8,15.3,81.8,15.2z M82.3,13.2C82.3,13.2,82.3,13.2,82.3,13.2
		l0.2,0c0.8,0.1,1.3,0.4,1.6,0.8c0.1,0.2,0.1,0.3,0.1,0.5c0,0.2-0.1,0.3-0.3,0.4c-0.3,0.1-0.6,0-0.7-0.5c-0.1-0.5-0.4-0.9-0.8-1.1
		C82.3,13.3,82.3,13.3,82.3,13.2z M86.3,16.5l0,0.4c-0.1,1.8-0.7,3.1-1.6,3.8c-0.1,0-0.1,0-0.1,0l0.2-0.4c0.5-0.9,0.7-2.5,0.7-4.7
		v-1.7c0-0.1,0-0.1,0.1-0.1c0.3,0.1,0.6,0.2,0.9,0.4c1.3-0.3,2.3-0.7,3-1c0,0,0.1,0,0.1,0c0.3,0.2,0.6,0.3,0.8,0.6
		c0.1,0.1,0.1,0.2,0.1,0.2c0,0-0.1,0.1-0.2,0.1h-0.3c-1.1,0.2-2.3,0.4-3.6,0.5v1.1l0,0.6H89c0.1,0,0.1,0,0.2-0.1l0.5-0.6
		c0.1,0,0.1-0.1,0.2,0c0.3,0.2,0.6,0.5,0.8,0.8c0.1,0,0.1,0.1,0,0.1c0,0-0.1,0.1-0.2,0.1h-1.6v4.1c0,0.2-0.1,0.3-0.2,0.3
		c-0.2,0.1-0.4,0.1-0.6,0C88,20.9,88,20.7,88,20.6v-4.1H86.3z"/>
	<path class="st0" d="M96,19h-2l-0.6,0.1c-0.1,0-0.1,0-0.1,0l-0.1-0.4c0,0,0,0,0.1,0l0.7,0.1h2V16h-2.1c-0.5,1.1-1.1,1.9-1.7,2.3
		c-0.1,0-0.1,0-0.1,0c0,0,0-0.1,0-0.1c0.9-1.1,1.4-2.6,1.5-4.6c0-0.1,0-0.1,0.1-0.1c0.3,0,0.7,0.1,1.1,0.3c0.1,0,0.1,0.1,0.1,0.2
		c0,0.1-0.1,0.1-0.2,0.2c-0.1,0-0.1,0.1-0.1,0.2L94,15.7h2v-2.4c0,0,0,0,0.1,0c0.4,0,0.7,0.1,1,0.1c0.1,0,0.2,0.1,0.2,0.2
		c0,0.1-0.1,0.1-0.2,0.2c-0.1,0-0.1,0.1-0.1,0.1v1.9h1.4c0.1,0,0.1,0,0.2-0.1L99,15c0-0.1,0.1-0.1,0.2,0c0.3,0.2,0.6,0.5,0.9,0.8
		c0,0,0.1,0.1,0,0.1c0,0-0.1,0.1-0.2,0.1h-3v2.7h1.1c0.1,0,0.1,0,0.2-0.1l0.5-0.7c0-0.1,0.1-0.1,0.2,0c0.4,0.2,0.7,0.5,0.9,0.8
		c0,0,0.1,0.1,0,0.1c0,0-0.1,0.1-0.2,0.1h-2.7v2.8H99c0.1,0,0.1,0,0.2-0.1l0.5-0.6c0-0.1,0.1-0.1,0.2,0c0.4,0.2,0.7,0.5,0.9,0.8
		c0,0.1,0.1,0.1,0,0.1c0,0-0.1,0.1-0.2,0.1h-8.1L92,22.1c-0.1,0-0.1,0-0.1,0l-0.1-0.3c0,0,0-0.1,0.1,0l0.7,0.1H96V19z"/>
	<path class="st0" d="M104.8,15.2c0,0,0.1,0.1,0,0.1l-1.3,4.1c-0.1,0.4,0,0.8,0.2,1.3c0.2,0.5,0.3,0.9,0.1,1.2
		c-0.1,0.2-0.2,0.4-0.4,0.4c-0.2,0-0.3,0-0.4-0.1c-0.2-0.2-0.3-0.6-0.2-1.1c0.1-0.4,0.1-0.8,0-1.2c-0.1-0.2-0.4-0.4-0.8-0.4
		c-0.1,0-0.1,0-0.1-0.1c0,0,0.1-0.1,0.1-0.1c0.2,0,0.4,0,0.6,0c0.1,0,0.2,0,0.2-0.1l1.9-4C104.7,15.2,104.7,15.2,104.8,15.2z
		 M102,15.4c0,0,0,0,0.1,0l0.3,0.1c0.5,0.2,0.9,0.6,1,1c0,0.2,0,0.4,0,0.5c-0.1,0.2-0.2,0.3-0.4,0.3c-0.4,0-0.6-0.2-0.6-0.6
		c0-0.5-0.1-0.9-0.4-1.2C102,15.5,102,15.4,102,15.4z M102.6,13.2C102.7,13.2,102.7,13.2,102.6,13.2c0.9,0.1,1.4,0.5,1.6,1
		c0.1,0.2,0.1,0.4,0,0.6c-0.1,0.2-0.2,0.3-0.3,0.3h0c-0.3,0-0.5-0.2-0.6-0.6c-0.1-0.5-0.3-0.9-0.7-1.2
		C102.6,13.3,102.6,13.3,102.6,13.2z M106.1,22c0,0.2-0.1,0.3-0.2,0.3c-0.1,0.1-0.3,0.1-0.5,0.1c-0.1,0-0.2,0-0.3-0.1
		c0,0-0.1-0.1-0.1-0.2v-3.9c0,0,0-0.1,0-0.1c0.3,0,0.6,0.2,0.9,0.3h1.2v-1.9h-1.8l-0.6,0.1c-0.1,0-0.1,0-0.1,0l-0.1-0.3
		c0,0,0-0.1,0.1,0l0.7,0.1h1.8v-1.7c-0.9,0.1-1.7,0.2-2.2,0.2c-0.1,0-0.1,0-0.1-0.1c0,0,0-0.1,0.1-0.1c2-0.4,3.5-0.9,4.5-1.5l0.1,0
		c0.3,0.2,0.6,0.3,0.8,0.5c0.1,0.1,0.1,0.2,0.1,0.2c0,0-0.1,0.1-0.2,0.1c-0.1,0-0.2,0-0.3,0l-1.9,0.4v1.9h1.1c0.1,0,0.1,0,0.2-0.1
		l0.5-0.6c0,0,0.1-0.1,0.2,0c0.3,0.2,0.6,0.5,0.8,0.8c0,0,0.1,0.1,0,0.1c0,0-0.1,0.1-0.2,0.1h-2.7v1.9h0.8c0.1,0,0.1,0,0.2,0
		l0.3-0.3c0.1-0.1,0.1-0.1,0.2-0.1c0.4,0.1,0.7,0.3,0.8,0.4c0.2,0.2,0.2,0.3-0.1,0.4c0,0-0.1,0.1-0.1,0.1v3c0,0.1,0,0.2-0.2,0.3
		c-0.1,0.1-0.3,0.1-0.4,0.1c-0.1,0-0.2,0-0.3-0.1c0,0-0.1-0.1-0.1-0.2v-0.5h-3.4V22z M109.4,21.4v-2.6c0,0-0.1-0.1-0.1,0h-3.3v2.6
		H109.4z"/>
	<path class="st0" d="M113.3,20c-0.2,1-0.6,1.8-1.1,2.4h-0.1c0,0,0,0,0-0.1c0.3-0.9,0.5-2.3,0.5-4.3c0-0.1,0-0.1,0.1-0.1l0.9,0.1
		c0.1,0,0.2,0.1,0.2,0.1c0,0.1,0,0.1-0.1,0.1c0,0-0.1,0-0.1,0.1l-0.1,1.1c0.1,0.3,0.3,0.5,0.5,0.7V17h-1l-0.6,0.1c0,0-0.1,0-0.1,0
		l-0.1-0.3c0,0,0,0,0.1,0l0.7,0.1h1v-1.5h-0.8l-0.6,0.1c0,0-0.1,0-0.1,0l-0.1-0.3c0,0,0,0,0.1,0l0.7,0.1h0.8v-1.8l0,0
		c0.3,0,0.6,0,1,0.1c0.2,0,0.2,0.1,0.2,0.2c0,0.1-0.1,0.2-0.2,0.2c-0.1,0-0.1,0.1-0.1,0.2V15h0.4c0.1,0,0.1,0,0.1-0.1l0.4-0.5
		c0-0.1,0.1-0.1,0.2,0c0.2,0.1,0.4,0.3,0.5,0.6c0.1,0.1,0.1,0.1,0,0.2c0,0-0.1,0.1-0.1,0.1h-1.5v1.5h0.5c0.1,0,0.1,0,0.1-0.1
		l0.4-0.5c0-0.1,0.1-0.1,0.2,0c0.2,0.2,0.4,0.4,0.5,0.6c0.1,0.1,0.1,0.1,0,0.2c0,0-0.1,0.1-0.1,0.1h-1.6v1.6h0.4
		c0.1,0,0.1,0,0.1-0.1l0.4-0.5c0-0.1,0.1-0.1,0.2,0c0.2,0.1,0.4,0.3,0.5,0.6c0.1,0.1,0.1,0.1,0,0.2c0,0-0.1,0.1-0.1,0.1h-1.5V21
		c0.9,0.5,3.1,0.5,6.5,0.2c0.1,0,0.1,0,0.1,0c0,0,0,0.1,0,0.1c-0.4,0.2-0.6,0.5-0.6,0.9c0,0,0,0.1,0,0.1l-2.2,0
		c-1.5,0-2.5-0.1-3-0.2l-0.3-0.1c-0.9-0.3-1.6-1-2.1-2.1L113.3,20z M117.3,14.2l-0.5,0.1c-0.1,0-0.1,0-0.1,0l-0.1-0.4c0,0,0,0,0.1,0
		l0.7,0.1h2.7l0.1,0l0.3-0.3c0,0,0.1,0,0.1,0l0.6,0.4c0.1,0,0.1,0.1,0.1,0.2c0,0.1,0,0.1-0.1,0.1l-0.1,0.1c0,1-0.2,1.7-0.4,2.2
		c-0.3,0.5-0.8,0.8-1.3,0.8c0-0.3-0.2-0.6-0.6-0.8c-0.1,0-0.1-0.1-0.1-0.1c0-0.1,0.1-0.1,0.1-0.1c0.3,0.1,0.5,0.1,0.6,0.1
		c0.2,0,0.4-0.2,0.5-0.4c0.2-0.4,0.3-1,0.3-1.9h-1.4c-0.1,1-0.3,1.8-0.8,2.4c-0.5,0.6-1.1,1-1.8,1.1c-0.1,0-0.1,0-0.1,0
		c0,0,0-0.1,0-0.1c0.4-0.2,0.7-0.5,1-1c0.4-0.6,0.6-1.4,0.7-2.3H117.3z M117.8,20.6c0,0.1,0,0.3-0.1,0.3c-0.1,0.1-0.3,0.1-0.4,0.1
		c-0.1,0-0.2,0-0.3-0.1c-0.1,0-0.1-0.1-0.1-0.2v-3.1c0,0,0-0.1,0-0.1c0.3,0.1,0.6,0.2,0.9,0.3h1.8l0.1,0l0.2-0.2h0.1
		c0.3,0.1,0.5,0.2,0.8,0.4l0.1,0.1c0,0-0.1,0.1-0.2,0.4v2.2c0,0.1,0,0.2-0.1,0.2c-0.1,0.1-0.3,0.1-0.4,0.1c-0.1,0-0.2,0-0.3-0.1
		c0-0.1-0.1-0.2-0.1-0.3v-0.2h-2V20.6z M119.8,20.2v-2c0,0-0.1-0.1-0.1,0H118l-0.2,0v2H119.8z"/>
	<path class="st0" d="M125.6,22.1c0,0.2-0.1,0.3-0.2,0.3c-0.2,0.1-0.4,0.1-0.6,0c-0.1-0.1-0.1-0.2-0.1-0.3v-4.9
		c-0.6,0.7-1.3,1.3-2,1.7c0,0-0.1,0-0.1,0c0,0,0-0.1,0-0.1c1.1-1.1,2-2.4,2.6-4h-1.9l-0.6,0.1c-0.1,0-0.1,0-0.1,0l-0.1-0.3
		c0,0,0-0.1,0.1,0l0.7,0.1h2c0.2-0.5,0.3-1,0.4-1.4c0,0,0-0.1,0.1-0.1c0.3,0,0.6,0.1,1,0.2c0.1,0,0.2,0.1,0.2,0.2
		c0,0.1-0.1,0.1-0.2,0.1l-0.4,0.9h3.4c0.1,0,0.1,0,0.2-0.1l0.5-0.6c0-0.1,0.1-0.1,0.2,0c0.3,0.2,0.6,0.5,0.9,0.8c0,0,0.1,0.1,0,0.1
		c0,0-0.1,0.1-0.2,0.1h-5.1l-0.5,1v0.5h3.1c0.1,0,0.2,0,0.2-0.1l0.3-0.4c0-0.1,0.1-0.1,0.2,0c0.4,0.2,0.7,0.4,0.9,0.5
		c0.2,0.2,0.1,0.3-0.2,0.5c-0.1,0-0.1,0.1-0.1,0.2v4.4c0,0.4-0.1,0.6-0.4,0.8c-0.2,0.1-0.5,0.2-0.8,0.2c0,0-0.1,0-0.1-0.1
		c-0.1-0.5-0.4-0.7-0.8-0.8c-0.1,0-0.1-0.1-0.1-0.1c0-0.1,0.1-0.1,0.1-0.1c0.6,0,0.9,0,1-0.1c0.1-0.1,0.1-0.1,0.1-0.2v-1.2h-3.4
		V22.1z M129,18v-1.3c0-0.1,0-0.1-0.1-0.1h-3.3V18H129z M129,19.6v-1.4h-3.4v1.4H129z"/>
	<path class="st0" d="M138.9,18.4c-0.4,0.3-1,0.7-1.8,0.9h0c0.6,0.1,1,0.3,1.3,0.7c0.1,0.2,0.1,0.3,0.1,0.5c0,0.2-0.1,0.3-0.3,0.4
		c-0.2,0.1-0.3,0-0.4,0c-0.1-0.1-0.2-0.2-0.3-0.4c-0.1-0.5-0.4-0.8-0.8-1.1l-0.6,0.1c-0.1,0-0.1,0-0.1,0c0,0,0-0.1,0.1-0.1
		c0.9-0.3,1.7-0.8,2.4-1.6c-0.3-0.7-0.5-1.7-0.6-2.8h-3.5v0.7h2c0,0,0.2-0.2,0.5-0.5c0.1-0.1,0.1-0.1,0.2,0c0.2,0.2,0.3,0.3,0.5,0.5
		c0.1,0.1,0.1,0.1,0,0.2c0,0.1-0.1,0.1-0.1,0.1h-3c0,0.7-0.1,1.3-0.2,1.8c-0.2,0.9-0.8,1.7-1.7,2.1c-0.1,0-0.1,0-0.1,0l0.4-0.5
		c0.5-0.8,0.7-1.9,0.7-3.5v-1.4c0-0.1,0-0.1,0.1-0.1c0.2,0.1,0.5,0.2,0.9,0.4h3.5l0-0.8l0-0.7c0-0.1,0-0.1,0-0.1
		c0.4,0,0.7,0.1,1,0.2c0.1,0,0.2,0.1,0.2,0.2c0,0.1-0.1,0.2-0.2,0.3c-0.1,0-0.1,0.3-0.1,0.8v0.2h1.3c0.1,0,0.1,0,0.1-0.1l0.4-0.5
		c0.1-0.1,0.1-0.1,0.2,0c0.2,0.1,0.4,0.4,0.5,0.6c0.1,0.1,0.1,0.1,0,0.2c0,0.1-0.1,0.1-0.1,0.1H139c0,0.8,0.1,1.5,0.2,1.9
		c0.2-0.3,0.4-0.8,0.6-1.4c0,0,0-0.1,0.1-0.1c0.3,0.1,0.6,0.2,0.8,0.3c0.1,0.1,0.2,0.1,0.1,0.2c0,0-0.1,0.1-0.2,0.1
		c-0.1,0-0.1,0-0.1,0.1c-0.3,0.6-0.6,1.1-1,1.6c0.1,0.2,0.3,0.4,0.4,0.6c0.2,0.2,0.3,0.3,0.5,0.3c0.2-0.1,0.4-0.5,0.7-1.2
		c0-0.1,0-0.2,0.1-0.2c0.1,0,0.1,0.1,0.1,0.2c-0.2,0.5-0.4,0.9-0.4,1.2c-0.1,0.2,0.1,0.4,0.4,0.6c0.2,0.2,0.2,0.4,0.1,0.6
		c-0.1,0.1-0.2,0.2-0.4,0.2l-0.3,0c0.4,0.3,0.7,0.5,0.8,0.8c0.1,0.2,0.1,0.4,0.1,0.6c0,0.2-0.1,0.3-0.3,0.3c-0.2,0.1-0.3,0-0.4-0.1
		c-0.1-0.1-0.2-0.2-0.2-0.4c-0.1-0.7-0.5-1.2-1-1.5c0,0,0,0,0-0.1c0,0,0-0.1,0.1-0.1l0.4,0.1C139.6,19.3,139.2,18.9,138.9,18.4z
		 M134.2,19.5L134.2,19.5c0,0.5,0,0.9-0.2,1.3c-0.1,0.4-0.4,0.7-0.6,0.9c-0.1,0.1-0.3,0.1-0.5,0.1c-0.2,0-0.3-0.1-0.4-0.2l0-0.2
		c0-0.3,0.1-0.5,0.4-0.6C133.5,20.6,133.9,20.2,134.2,19.5C134.2,19.5,134.2,19.5,134.2,19.5z M135.7,18.6c0,0.1-0.1,0.2-0.1,0.3
		c-0.1,0.1-0.2,0.1-0.4,0.1c-0.1,0-0.2,0-0.3-0.1c0,0-0.1-0.1,0-0.2v-2.3c0,0,0-0.1,0-0.1c0.3,0.1,0.6,0.2,0.8,0.3h0.8l0.1,0
		l0.2-0.2h0.1c0.3,0.1,0.5,0.2,0.7,0.4l0.1,0.1c0,0-0.1,0.2-0.2,0.4v1.1c0,0.1,0,0.2-0.1,0.2c-0.1,0-0.2,0.1-0.4,0.1
		c-0.1,0-0.2,0-0.2-0.1c0,0-0.1-0.1-0.1-0.3v-0.1h-1V18.6z M134.9,19.7v-0.3c0,0,0-0.1,0.1-0.1c0.3,0,0.5,0,0.8,0.1
		c0.2,0,0.2,0.1,0.2,0.2l-0.3,0.3v1.1c0,0.1,0,0.1,0.1,0.2c0,0.1,0.1,0.1,0.2,0.1l0.1,0c1.4,0.1,2.3,0,2.7-0.1
		c0.2-0.1,0.3-0.5,0.4-1c0-0.1,0.1-0.1,0.1-0.1c0,0,0.1,0,0.1,0.1c0,0.6,0,0.9,0.2,1c0.2,0.1,0.3,0.2,0.3,0.4c0,0.2-0.1,0.3-0.4,0.4
		c-0.3,0.1-0.6,0.2-0.9,0.2l-1.5,0c-0.9,0-1.4-0.1-1.8-0.2c-0.2-0.1-0.4-0.2-0.5-0.4c-0.1-0.2-0.1-0.3-0.1-0.5L134.9,19.7
		L134.9,19.7z M136.6,18v-1c0,0-0.1,0-0.1,0h-0.9v1H136.6z M139.4,13.1C139.4,13.1,139.4,13.1,139.4,13.1c0.3,0,0.5,0,0.7,0.1
		c0.2,0.1,0.3,0.2,0.4,0.4c0,0.1,0,0.3,0,0.4c0,0.1-0.1,0.2-0.3,0.2c-0.3,0-0.5-0.1-0.5-0.4C139.7,13.6,139.6,13.4,139.4,13.1
		L139.4,13.1z"/>
</g>
</svg>
