<?xml version="1.0" encoding="utf-8"?>
<!-- Generator: Adobe Illustrator 23.0.3, SVG Export Plug-In . SVG Version: 6.00 Build 0)  -->
<svg version="1.1" id="圖層_1" xmlns="http://www.w3.org/2000/svg" xmlns:xlink="http://www.w3.org/1999/xlink" x="0px" y="0px"
	 viewBox="0 0 60 70" style="enable-background:new 0 0 60 70;" xml:space="preserve">
<style type="text/css">
	.st0{fill:#595757;}
	.st1{fill:#231815;}
</style>
<g>
	<g>
		<path class="st0" d="M29.9,0c-7.1,0-12.8,5.8-12.8,12.8c0,2.3,0.6,4.6,1.8,6.6c0.2,0.3,0.4,0.6,0.6,1l0.1,0.1
			c0.3,0.4,2.6,3.7,3.7,8c-0.2,0.1-0.3,0.2-0.5,0.4C22.3,29.4,22,30.2,22,31c0,0.7,0.3,1.4,0.8,2c-0.5,0.5-0.8,1.2-0.8,2
			c0,0.8,0.3,1.5,0.8,2.1c0.5,0.5,1.2,0.8,1.9,0.9c0.9,2.1,2.9,3.5,5.2,3.5c2.3,0,4.3-1.4,5.2-3.4c1.6,0,2.9-1.3,2.9-2.9
			c0-0.7-0.3-1.5-0.8-2c0.5-0.5,0.8-1.2,0.8-2c0-1.1-0.6-2.1-1.5-2.6c1.1-4.3,3.4-7.6,3.7-8l0.1-0.1c0.2-0.3,0.4-0.6,0.6-1
			c1.2-2,1.8-4.3,1.8-6.6C42.8,5.8,37,0,29.9,0z M32.9,38c-0.7,0.9-1.8,1.4-2.9,1.4c-1.2,0-2.3-0.6-3-1.5L32.9,38z M24.2,34.3
			c0.2-0.2,0.4-0.3,0.7-0.3l10.3,0.1c0.5,0,1,0.5,1,1c0,0.3-0.1,0.5-0.3,0.7C35.7,36,35.4,36,35.1,36L24.9,36
			c-0.3,0-0.5-0.1-0.7-0.3c-0.2-0.2-0.3-0.4-0.3-0.7C23.9,34.7,24,34.4,24.2,34.3z M35.2,32.1v0.3l0,0V32.1L24.9,32
			c-0.3,0-0.5-0.1-0.7-0.3c-0.2-0.2-0.3-0.4-0.3-0.7c0-0.3,0.1-0.5,0.3-0.7c0.1-0.1,0.2-0.2,0.4-0.2h6.2l4.4,0c0.5,0,1,0.5,1,1
			C36.2,31.6,35.7,32.1,35.2,32.1z M26.1,18.3c0.4,0,0.8,0.4,0.8,0.8v0.8h-0.8c-0.4,0-0.8-0.4-0.8-0.8
			C25.3,18.7,25.7,18.3,26.1,18.3z M31.2,21.9v6.2l-2.4,0v-6.2H31.2z M34.7,19.1c0,0.4-0.4,0.8-0.8,0.8h-0.8v-0.8
			c0-0.4,0.4-0.8,0.8-0.8C34.4,18.3,34.7,18.7,34.7,19.1z M38.7,19.3c-0.5,0.7-2.9,4.2-4,8.8h-1.5v-6.2H34c1.5,0,2.7-1.2,2.7-2.7
			c0-1.5-1.2-2.7-2.7-2.7c-1.5,0-2.7,1.2-2.7,2.7v0.8h-2.4v-0.8c0-1.5-1.2-2.7-2.7-2.7s-2.7,1.2-2.7,2.7c0,1.5,1.2,2.7,2.7,2.7h0.8
			v6.2l-1.7,0c-1.2-4.6-3.5-8.1-4-8.7l-0.1-0.1c-0.2-0.3-0.4-0.5-0.5-0.8c-1-1.7-1.5-3.6-1.5-5.6c0-6,4.9-10.9,10.9-10.9
			c6,0,10.9,4.9,10.9,10.9c0,2-0.5,3.9-1.5,5.6l0,0C39.1,18.7,39,19,38.7,19.3z"/>
		<path class="st0" d="M48.2,14.3h-3.3c-0.5,0-1,0.4-1,1c0,0.5,0.4,1,1,1h3.3c0.5,0,1-0.4,1-1C49.2,14.7,48.8,14.3,48.2,14.3z"/>
		<path class="st0" d="M45.1,12c0.1,0,0.3,0,0.4-0.1l3-1.5c0.2-0.1,0.4-0.3,0.5-0.6C49,9.6,49,9.3,48.9,9.1
			c-0.1-0.2-0.3-0.4-0.6-0.5c-0.2-0.1-0.5-0.1-0.7,0.1l-3,1.5c-0.2,0.1-0.4,0.3-0.5,0.6c-0.1,0.2-0.1,0.5,0.1,0.7
			C44.4,11.8,44.7,12,45.1,12z"/>
		<path class="st0" d="M47.3,19.8l-3-1.5c-0.5-0.2-1.1,0-1.3,0.4c-0.1,0.2-0.1,0.5-0.1,0.7c0.1,0.2,0.3,0.4,0.5,0.6l3,1.5
			c0.1,0.1,0.3,0.1,0.4,0.1c0.4,0,0.7-0.2,0.9-0.5C48,20.6,47.8,20,47.3,19.8z"/>
		<path class="st0" d="M15.1,15.2c0-0.5-0.4-1-1-1h-3.3c-0.5,0-1,0.4-1,1c0,0.5,0.4,1,1,1h3.3C14.7,16.2,15.1,15.8,15.1,15.2z"/>
		<path class="st0" d="M10.6,10.4l3,1.5C13.7,12,13.9,12,14,12c0.4,0,0.7-0.2,0.9-0.5C15,11.2,15,11,15,10.7
			c-0.1-0.2-0.3-0.5-0.5-0.6l-3-1.5c-0.5-0.2-1.1-0.1-1.3,0.4c-0.1,0.2-0.1,0.5-0.1,0.7C10.2,10.1,10.4,10.3,10.6,10.4z"/>
		<path class="st0" d="M14.7,18.3l-3,1.5c-0.2,0.1-0.4,0.3-0.5,0.6c-0.1,0.2-0.1,0.5,0.1,0.7c0.2,0.3,0.5,0.5,0.9,0.5
			c0.2,0,0.3,0,0.4-0.1l3-1.5c0.2-0.1,0.4-0.3,0.5-0.6c0.1-0.2,0.1-0.5-0.1-0.7C15.8,18.2,15.2,18,14.7,18.3z"/>
	</g>
	<g>
		<path class="st1" d="M15.1,55.3h-0.8v-3h-3v-0.8h3v-3.1h0.8v3.1h3.1v0.8h-3.1V55.3z"/>
		<path class="st1" d="M23.8,51.6c0,1.2-0.2,2.2-0.5,3c-0.5,1-1.3,1.7-2.5,2c-0.1,0-0.1,0-0.1,0c0,0,0-0.1,0.1-0.1
			c0.9-0.5,1.5-1.3,1.8-2.1l0.1-0.2c0.1-0.5,0.2-1.4,0.3-2.5h-1.7l-0.6,0.1c-0.1,0-0.1,0-0.1,0l-0.1-0.4c0,0,0-0.1,0.1,0l0.7,0.1
			h1.7l0-2.2v-0.2h0c-0.8,0.3-1.4,0.4-2,0.5c-0.1,0-0.1,0-0.1,0c0,0,0-0.1,0.1-0.1c0.6-0.2,1.2-0.5,1.8-0.8c0.6-0.4,1.1-0.8,1.5-1.2
			c0,0,0,0,0.1,0c0.3,0.1,0.5,0.3,0.8,0.5c0.1,0.1,0.1,0.2,0.1,0.2c0,0.1-0.1,0.1-0.2,0.1l-1,0.5v0.6l0,2.2h2.1v-3.8v-0.1
			c0,0,0,0,0.1-0.1c0.3,0,0.6,0.1,1,0.1c0.2,0,0.3,0.1,0.3,0.2c0,0.1-0.1,0.2-0.2,0.2c-0.1,0-0.1,0.1-0.1,0.1v3.3h0.8
			c0.1,0,0.1,0,0.2-0.1l0.5-0.6c0-0.1,0.1-0.1,0.2,0c0.3,0.2,0.6,0.5,0.9,0.8c0.1,0,0.1,0.1,0,0.1c0,0-0.1,0.1-0.2,0.1h-2.4v4.7
			c0,0.2-0.1,0.3-0.2,0.3c-0.2,0.1-0.4,0.1-0.6,0c-0.1-0.1-0.1-0.1-0.1-0.3v-4.8H23.8z"/>
		<path class="st1" d="M32.9,56.3c0,0.2-0.1,0.3-0.2,0.3c-0.2,0.1-0.4,0.1-0.6,0c-0.1-0.1-0.2-0.2-0.2-0.3v-2.7l0,0
			c-0.1,0-0.1,0-0.1,0.1c-0.3,1-0.7,1.9-1.2,2.5l-0.1,0l0-0.1c0.2-0.9,0.4-1.9,0.5-2.8v-0.2c0,0,0,0,0.1,0c0.5,0,0.8,0.1,1,0.2v-0.9
			c-0.6,0.1-0.9,0.2-0.9,0.3c0,0.1-0.1,0.1-0.1,0.1c-0.1,0-0.1,0-0.2-0.1c-0.2-0.5-0.3-0.8-0.3-0.9c0-0.1,0-0.1,0.1-0.1l1.2,0l0-0.1
			c0.6-1,1-2,1.2-2.9c0,0,0-0.1,0.1,0c0.3,0.1,0.6,0.2,0.8,0.3c0.1,0,0.2,0.1,0.2,0.2c0,0.1-0.1,0.1-0.2,0.2c-0.1,0-0.1,0-0.1,0.1
			c-0.4,0.9-1,1.7-1.6,2.2l1.4-0.1c0-0.2-0.1-0.4-0.3-0.6c0,0,0-0.1,0-0.1c0,0,0,0,0.1,0h0c0.6,0.3,1,0.6,1.2,1.1
			c0,0.2,0,0.3-0.1,0.5c-0.1,0.2-0.2,0.3-0.4,0.3c-0.2,0-0.3,0-0.4-0.2c-0.1-0.1-0.1-0.3-0.1-0.5v-0.3l-0.5,0.2L32.9,52v0.8
			c0.6,0.2,1.1,0.6,1.3,1.1c0.1,0.2,0.1,0.3,0,0.5c-0.1,0.2-0.2,0.3-0.3,0.3c-0.2,0-0.3,0-0.4-0.1c-0.1-0.1-0.1-0.3-0.1-0.4
			c0-0.4-0.1-0.8-0.3-1V56.3z M31.8,47.5l0-0.2c0-0.1,0-0.1,0.1-0.1c0.3,0,0.5,0.1,0.8,0.2c0.1,0,0.2,0.1,0.2,0.2
			c0,0.1-0.1,0.1-0.2,0.2c-0.1,0-0.1,0-0.1,0.1c-0.3,0.6-0.6,1.1-1,1.4c0.2,0.1,0.4,0.3,0.5,0.6c0.1,0.2,0.1,0.4,0,0.6
			c-0.1,0.2-0.2,0.3-0.3,0.3c-0.2,0-0.3,0-0.4-0.1c-0.1-0.1-0.2-0.3-0.2-0.5c0-0.5-0.2-0.9-0.5-1.1c0,0,0,0,0-0.1c0,0,0,0,0.1,0
			c0.2,0,0.5,0.1,0.7,0.3C31.6,48.7,31.7,48.1,31.8,47.5z M35.8,51c-0.2,2.8-1,4.6-2.2,5.5c-0.1,0-0.1,0-0.1,0c0,0,0,0,0-0.1
			c0.2-0.4,0.5-0.9,0.8-1.7c0.5-1.4,0.7-3.7,0.7-6.9h-0.2L34.2,48c-0.1,0-0.1,0-0.1,0L34,47.6c0,0,0-0.1,0.1,0l0.7,0.1h2.4
			c0.1,0,0.1,0,0.1-0.1c0.1-0.1,0.2-0.2,0.3-0.3c0,0,0.1,0,0.1,0c0.3,0.1,0.5,0.3,0.7,0.5c0.2,0.2,0.1,0.3-0.1,0.3
			c0,0-0.1,0-0.1,0.1L38,50.7h0.4c0.1,0,0.2-0.1,0.3-0.3c0,0,0.1,0,0.2,0l0.7,0.4c0.1,0.1,0.1,0.1,0.1,0.2c0,0.1-0.1,0.1-0.2,0.2
			c-0.1,0-0.1,0.1-0.1,0.2c-0.3,1.2-0.7,2.3-1.4,3.1c0.6,0.5,1.2,0.9,1.9,1c0,0,0.1,0,0.1,0c0,0,0,0.1-0.1,0.1
			c-0.3,0.1-0.6,0.3-0.7,0.7c0,0-0.1,0.1-0.1,0c-0.7-0.3-1.3-0.8-1.7-1.3l-0.1,0.1c-0.7,0.5-1.6,0.9-2.5,1.1c-0.1,0-0.1,0-0.1,0
			c0-0.1,0-0.1,0.1-0.1c0.9-0.4,1.7-0.9,2.2-1.6v0c-0.5-0.9-0.8-2.2-0.9-3.7H35.8z M35.8,50.7h1.3l0.3-2.8h-1.4
			C35.9,48.8,35.9,49.8,35.8,50.7z M37.4,54.1c0.3-0.5,0.5-1,0.7-1.7c0.2-0.7,0.3-1.2,0.3-1.3c0,0,0-0.1-0.1,0h-2.2
			c0.1,1.1,0.5,2.1,1.1,2.9L37.4,54.1z"/>
		<path class="st1" d="M45.7,55.3h-0.8v-3h-3v-0.8h3v-3.1h0.8v3.1h3.1v0.8h-3.1V55.3z"/>
		<path class="st1" d="M4.7,61.3c-0.9,1.7-2.4,2.9-4.6,3.4c0,0-0.1,0-0.1,0c0-0.1,0.1-0.1,0.3-0.2c2-1.1,3.2-2.3,3.6-3.6H2.1L1.5,61
			c-0.1,0-0.1,0-0.1,0l-0.1-0.4c0,0,0-0.1,0.1,0l0.7,0.1h1.7l0.1-0.1c0.1-0.1,0.2-0.2,0.3-0.2c0,0,0.1,0,0.1,0
			c0.2,0.1,0.4,0.3,0.6,0.5C5,61,5.1,61,5.1,61.1L5,61.2c0.2,0.3,0.4,0.6,0.7,0.9c1,1,2.1,1.5,3.3,1.6c0.1,0,0.1,0,0.1,0
			c0,0,0,0.1-0.1,0.1c-0.2,0.1-0.4,0.2-0.5,0.4c-0.1,0.2-0.2,0.4-0.2,0.5c0,0.1-0.1,0.1-0.1,0l-0.1,0C6.6,64.2,5.5,63.1,4.7,61.3
			L4.7,61.3z M3.9,66.7H2.2l-0.6,0.1c-0.1,0-0.1,0-0.1,0l-0.1-0.3c0,0,0-0.1,0.1,0l0.7,0.1h1.7v-1.9H2.6L2,64.6c-0.1,0-0.1,0-0.1,0
			l-0.1-0.4c0,0,0-0.1,0.1,0l0.7,0.1H5c0.1,0,0.1,0,0.2-0.1l0.5-0.6c0,0,0.1-0.1,0.2,0c0.3,0.2,0.6,0.5,0.8,0.8c0,0,0.1,0.1,0,0.1
			c0,0-0.1,0.1-0.2,0.1H4.8v1.9h0.8c0.1,0,0.1,0,0.2-0.1l0.5-0.6c0.1-0.1,0.1-0.1,0.2,0c0.4,0.2,0.6,0.5,0.9,0.8c0,0,0.1,0.1,0,0.1
			c0,0-0.1,0.1-0.2,0.1H4.8v2.2h1.9c0.1,0,0.1,0,0.2-0.1l0.5-0.6c0-0.1,0.1-0.1,0.2,0c0.4,0.2,0.6,0.5,0.9,0.8c0,0,0.1,0.1,0,0.1
			c0,0-0.1,0.1-0.2,0.1H1.2l-0.6,0.1c-0.1,0-0.1,0-0.1,0l-0.1-0.4c0,0,0-0.1,0.1,0l0.7,0.1h2.6V66.7z"/>
		<path class="st1" d="M12.1,65.9c-0.2,1.8-0.9,3-1.9,3.7c0,0-0.1,0-0.1,0v0l0.4-0.7c0.5-1.1,0.8-3,0.8-5.6v-2.1
			c0-0.1,0-0.1,0.1-0.1c0.3,0.1,0.6,0.3,1,0.5c2.1-0.3,3.7-0.7,4.7-1.2c0.1,0,0.1,0,0.1,0c0.3,0.2,0.5,0.4,0.8,0.6
			c0.1,0.1,0.1,0.2,0.1,0.2c0,0-0.1,0.1-0.2,0h-0.3c-1.8,0.4-3.6,0.6-5.4,0.6v1.1H17c0.1,0,0.1,0,0.2,0l0.3-0.3
			c0.1-0.1,0.1-0.1,0.2-0.1c0.4,0.1,0.7,0.3,0.8,0.4c0.2,0.2,0.2,0.3-0.1,0.4c0,0-0.1,0.1-0.1,0.1v2.3c0,0.1-0.1,0.2-0.2,0.3
			C18.1,66,17.9,66,17.8,66c-0.1,0-0.2,0-0.3-0.1c0,0-0.1-0.1-0.1-0.2v-0.4h-5.3L12.1,65.9z M17.4,65.1v-2c0,0-0.1-0.1-0.1,0h-4.8
			l-0.3,0v0.1c0,0.6,0,1.3-0.1,1.8H17.4z"/>
		<path class="st1" d="M20.2,65.8C20.2,65.8,20.1,65.8,20.2,65.8c-0.1-0.1-0.1-0.1,0-0.1c0.3-0.1,0.6-0.3,0.9-0.5
			c0.6-0.5,1-1.1,1.2-1.8h-1.1l-0.6,0.1c-0.1,0-0.1,0-0.1,0L20.4,63c0,0,0-0.1,0.1,0l0.7,0.1h1.2c0-0.3,0-0.8,0-1.4h-0.6
			c-0.3,0.5-0.7,0.9-1,1.1h-0.1c0,0,0,0,0-0.1c0.5-0.9,0.8-1.7,0.8-2.5c0,0,0-0.1,0-0.1c0.3,0,0.6,0.1,1,0.1c0.1,0,0.2,0.1,0.2,0.2
			c0,0.1-0.1,0.1-0.2,0.1c0,0-0.2,0.3-0.5,0.8h1.4c0.1,0,0.1,0,0.2-0.1l0.5-0.6c0.1-0.1,0.1-0.1,0.2,0c0.3,0.2,0.6,0.5,0.9,0.8
			c0,0,0.1,0.1,0,0.1c0,0-0.1,0.1-0.2,0.1h-1.6c0,0.6,0,1-0.1,1.4h0.5c0.1,0,0.1,0,0.2-0.1l0.5-0.6c0,0,0.1-0.1,0.2,0
			c0.3,0.2,0.6,0.5,0.8,0.8c0.1,0,0.1,0.1,0,0.1c0,0-0.1,0.1-0.2,0.1h-2.1l0,0.1l-0.1,0.3c0.7,0,1.2,0.2,1.5,0.6
			c0.1,0.1,0.2,0.3,0.1,0.5c0,0.2-0.1,0.3-0.2,0.4c-0.3,0.2-0.6,0-0.7-0.4c-0.2-0.5-0.5-0.8-0.8-1C22.5,65,21.6,65.6,20.2,65.8z
			 M23.3,69.2c0,0.2,0,0.3-0.1,0.3c-0.1,0.1-0.3,0.1-0.4,0.1c-0.1,0-0.2,0-0.3-0.1c0,0-0.1-0.1-0.1-0.2v-4c0,0,0-0.1,0-0.1
			c0.4,0.1,0.8,0.2,1,0.4h3.1c0.1,0,0.1,0,0.2,0l0.3-0.3c0.1-0.1,0.1-0.1,0.2-0.1c0.4,0.1,0.7,0.3,0.8,0.4c0.2,0.1,0.2,0.3-0.1,0.4
			c0,0-0.1,0-0.1,0.1v3c0,0.1-0.1,0.2-0.2,0.3c-0.1,0.1-0.2,0.1-0.4,0.1c-0.1,0-0.2,0-0.3-0.1c0,0-0.1-0.1-0.1-0.2v-0.2h-3.6V69.2z
			 M26.9,67.3V66c0,0-0.1-0.1-0.1,0h-3.5v1.3H26.9z M26.9,68.9v-1.3h-3.6v1.3H26.9z M26.7,64.7c0,0.2,0,0.3-0.1,0.3
			c-0.1,0.1-0.3,0.1-0.4,0.1c-0.1,0-0.2,0-0.3-0.1c0,0-0.1-0.1-0.1-0.2v-3.7c0-0.1,0-0.1,0-0.1c0.4,0.1,0.7,0.2,1,0.4h0.9
			c0.1,0,0.2,0,0.3-0.1l0.2-0.3c0,0,0.1-0.1,0.1,0c0.3,0.1,0.6,0.3,0.8,0.4c0.1,0.1,0.1,0.1,0.1,0.2c0,0.1-0.1,0.1-0.2,0.2
			c-0.1,0-0.1,0.1-0.1,0.1v2.5c0,0.1-0.1,0.2-0.2,0.3c-0.1,0.1-0.3,0.1-0.4,0.1c-0.1,0-0.2,0-0.3-0.1c-0.1,0-0.1-0.1-0.1-0.3v-0.1
			h-1.3V64.7z M28,64.1v-2.4c0-0.1-0.1-0.1-0.1,0h-1.2v2.4H28z"/>
		<path class="st1" d="M31.2,63.3c-0.2,0-0.3,0-0.3,0.1c0,0.1-0.1,0.1-0.1,0.1c-0.1,0-0.1,0-0.1-0.1c-0.1-0.2-0.2-0.5-0.2-0.9
			c0-0.1,0-0.1,0.1-0.1l0.9,0.1c0.3-0.8,0.5-1.5,0.5-2.2c0,0,0-0.1,0.1-0.1c0.3,0,0.7,0.1,1,0.3c0.1,0,0.2,0.1,0.2,0.2
			c0,0.1-0.1,0.1-0.1,0.1c-0.1,0-0.1,0-0.1,0.1c-0.3,0.6-0.6,1.2-1.1,1.7H34c-0.1-0.4-0.3-0.6-0.6-0.8c0,0,0-0.1,0-0.1
			c0,0,0,0,0.1,0c0.8,0.2,1.4,0.5,1.6,1.1c0.1,0.2,0.1,0.4,0,0.6c0,0.2-0.2,0.3-0.3,0.3c-0.2,0-0.3,0-0.4-0.1
			c-0.1-0.1-0.2-0.3-0.3-0.7L31.2,63.3z M31.9,69.1c0,0.2,0,0.3-0.1,0.4c-0.1,0.1-0.3,0.1-0.5,0.1c-0.1,0-0.2,0-0.3-0.1
			c0,0-0.1-0.1-0.1-0.2v-5.6l0-0.1h0.1c0.3,0.1,0.5,0.2,0.8,0.3h1.3c0.1,0,0.2,0,0.2-0.1l0.3-0.4c0.1,0,0.1-0.1,0.2,0
			c0.4,0.2,0.7,0.4,0.9,0.5c0.2,0.2,0.2,0.3-0.2,0.5c-0.1,0-0.1,0.1-0.1,0.2v3.9c0,0.4-0.1,0.6-0.4,0.8c-0.3,0.1-0.5,0.2-0.8,0.2
			c0,0-0.1,0-0.1-0.1c0-0.4-0.3-0.7-0.6-0.8c-0.1,0-0.1-0.1-0.1-0.1c0-0.1,0.1-0.1,0.1-0.1c0.4,0,0.7,0,0.7-0.1
			c0-0.1,0.1-0.1,0.1-0.2V67h-1.6V69.1z M33.5,65.4v-1.1c0-0.1,0-0.1-0.1-0.1h-1.3l-0.2,0v1.1H33.5z M33.5,66.8v-1.1h-1.6v1.1H33.5z
			 M36.4,63.2l0,0.2c0,0.1,0.1,0.1,0.2,0.1l0.1,0c0.9,0.1,1.6,0,1.9-0.1c0.1-0.1,0.3-0.4,0.4-0.9c0-0.1,0.1-0.1,0.1-0.1
			c0,0,0.1,0,0.1,0.1c0,0.5,0.1,0.8,0.2,0.9c0.2,0.1,0.3,0.2,0.3,0.4c0,0.2-0.1,0.3-0.3,0.4c-0.2,0.1-0.5,0.2-0.7,0.2l-1.2,0
			c-0.7,0-1.1-0.1-1.4-0.2c-0.2-0.1-0.4-0.2-0.4-0.4c-0.1-0.2-0.1-0.3-0.1-0.5v-2.8v-0.3c0-0.1,0-0.1,0.1-0.1c0.3,0,0.6,0.1,0.9,0.1
			c0.2,0,0.3,0.1,0.3,0.2l-0.3,0.3v1.2c0.9-0.4,1.5-0.9,1.8-1.3h0.1c0.2,0.2,0.4,0.4,0.6,0.6c0.1,0.1,0.1,0.2,0,0.3c0,0-0.1,0-0.2,0
			c0,0-0.1,0-0.1,0c-0.8,0.4-1.5,0.6-2.2,0.6V63.2z M36.5,68.2l0,0.2c0,0.1,0.1,0.1,0.2,0.1l0.1,0c1,0.1,1.6,0,1.9-0.1
			c0.1-0.1,0.3-0.4,0.4-0.9c0-0.1,0.1-0.1,0.1-0.1c0,0,0.1,0,0.1,0.1c0,0.5,0.1,0.8,0.2,0.9c0.2,0.1,0.3,0.2,0.3,0.4
			c0,0.2-0.1,0.3-0.3,0.4c-0.2,0.1-0.5,0.2-0.8,0.2l-1.2,0c-0.7,0-1.2-0.1-1.4-0.2c-0.2-0.1-0.4-0.2-0.4-0.4c0-0.2-0.1-0.3-0.1-0.5
			v-3.3v-0.3c0,0,0-0.1,0.1-0.1c0.3,0,0.6,0.1,0.9,0.1c0.2,0,0.3,0.1,0.3,0.2l-0.3,0.3v1.5c0.6-0.3,1.2-0.8,1.8-1.4c0,0,0,0,0.1,0
			c0.2,0.2,0.5,0.4,0.6,0.6c0.1,0.1,0.1,0.2,0.1,0.3c0,0.1-0.1,0.1-0.2,0c0,0-0.1,0-0.1,0c-0.8,0.4-1.5,0.6-2.3,0.7V68.2z"/>
		<path class="st1" d="M44.2,69.2c0,0.2,0,0.3-0.1,0.3c-0.1,0.1-0.3,0.1-0.4,0.1c-0.1,0-0.2,0-0.3-0.1c0,0-0.1-0.1,0-0.2V66
			c0,0,0-0.1,0-0.1c0.4,0.1,0.7,0.2,1,0.4h1.1v-1.8h-1.7l-0.6,0.1c-0.1,0-0.1,0-0.1,0l-0.1-0.4c0,0,0-0.1,0.1,0l0.7,0.1h1.7v-1.6
			h-2.6c0,1.2-0.1,2.3-0.2,3.3c-0.3,1.7-0.8,2.9-1.7,3.6c0,0-0.1,0-0.1,0c0,0,0.1-0.2,0.3-0.6c0.6-1.3,0.8-3.4,0.8-6.3v-2.3
			c0-0.1,0-0.1,0.1-0.1c0.2,0.1,0.5,0.2,0.8,0.4h5.1c0,0,0.1,0,0.1-0.1l0.2-0.3l0.1,0c0.3,0.1,0.6,0.2,0.8,0.4
			c0.2,0.1,0.1,0.3-0.1,0.4c-0.1,0-0.1,0.1-0.1,0.2v1.5c0,0.1-0.1,0.2-0.1,0.3c-0.1,0.1-0.3,0.1-0.5,0.1c-0.1,0-0.2,0-0.3-0.1
			c-0.1-0.1-0.1-0.2-0.1-0.3v-0.2h-1.6v1.6h1.6c0.1,0,0.1,0,0.2-0.1l0.5-0.6c0.1,0,0.1-0.1,0.2,0c0.3,0.2,0.6,0.4,0.8,0.7
			c0,0,0,0.1,0,0.1c0,0-0.1,0.1-0.2,0.1h-3.1v1.8h1c0.1,0,0.1,0,0.2,0l0.3-0.3c0.1-0.1,0.1-0.1,0.2-0.1c0.4,0.1,0.6,0.3,0.8,0.4
			c0.2,0.1,0.2,0.3-0.1,0.4c0,0-0.1,0.1-0.1,0.1v2.5c0,0.1-0.1,0.2-0.2,0.3c-0.1,0.1-0.2,0.1-0.4,0.1c-0.1,0-0.2,0-0.3-0.1
			c0,0-0.1-0.1-0.1-0.2V69h-3.5V69.2z M47.9,62.4V61c0,0-0.1-0.1-0.1,0h-4.9l-0.2,0v1.4H47.9z M47.6,68.7v-2.1c0,0-0.1,0-0.1,0h-3.4
			v2.1H47.6z"/>
		<path class="st1" d="M60.1,67.9C60.2,67.9,60.2,67.9,60.1,67.9c0.1,0.1,0,0.1,0,0.2c-0.4,0-0.6,0.3-0.8,0.7c0,0.1-0.1,0.1-0.1,0.1
			c-1-0.6-1.7-1.6-2.2-2.7c-0.4-0.9-0.6-1.8-0.7-2.8h-0.6c-0.2,0.3-0.5,0.6-0.7,0.8c0.7,0.4,1.2,1,1.5,1.6c0.1,0.3,0.2,0.5,0.2,0.8
			c0.1,1,0,1.8-0.3,2.4c-0.3,0.5-0.8,0.7-1.4,0.7c-0.1,0-0.1,0-0.1-0.1c0-0.3-0.1-0.5-0.3-0.6c-0.2-0.1-0.3-0.2-0.5-0.3
			c-0.1,0-0.1-0.1-0.1-0.1c0,0,0.1-0.1,0.1-0.1c0.7,0.1,1.2,0,1.4-0.2c0.1-0.2,0.2-0.6,0.2-1.1c-1.3,1-2.8,1.6-4.5,1.9
			c-0.1,0-0.1,0-0.1-0.1c0,0,0-0.1,0.1-0.1c1.9-0.7,3.4-1.7,4.5-3l-0.1-0.5c-1.1,1-2.5,1.7-4.2,2.1c-0.1,0-0.1,0-0.1,0
			c0,0,0-0.1,0.1-0.1c1.6-0.7,2.9-1.6,3.8-2.7l-0.3-0.3c-1,0.8-2.2,1.3-3.6,1.5c-0.1,0-0.1,0-0.1,0c0,0,0-0.1,0.1-0.1
			c0.7-0.2,1.4-0.5,2.1-1c0.7-0.4,1.2-0.9,1.5-1.4h-1.3l-0.6,0.1c0,0-0.1,0-0.1,0L52.5,63c0,0,0-0.1,0.1,0l0.7,0.1h3.2
			c0.1,0,0.1,0,0.2-0.1l0.5-0.6c0.1,0,0.1-0.1,0.2,0c0.3,0.2,0.6,0.4,0.8,0.7l0.6-1.2h-6l-0.5,0c0,0.6-0.1,1.1-0.3,1.4
			c-0.1,0.1-0.3,0.2-0.4,0.2c-0.2,0-0.3,0-0.4-0.2c-0.1-0.1-0.1-0.3-0.1-0.4c0-0.2,0.1-0.3,0.3-0.4c0.4-0.3,0.6-0.8,0.7-1.4l0-0.1
			c0,0,0.1,0,0.1,0.1l0.1,0.4l0.5,0H55v-1.4c0,0,0,0,0.1,0c0.4,0,0.7,0.1,1,0.1c0.1,0,0.2,0.1,0.2,0.2c0,0.1-0.1,0.1-0.2,0.2
			c-0.1,0-0.1,0.1-0.1,0.1v0.9h2.5l0.1-0.1l0.3-0.3c0,0,0.1,0,0.1,0c0.3,0.2,0.6,0.4,0.9,0.6c0.1,0.1,0.1,0.1,0.1,0.2
			c0,0.1-0.1,0.1-0.2,0.1l-0.1,0c-0.6,0.5-1.1,0.9-1.6,1.2H58l0-0.1h-1.5c0.2,0.7,0.4,1.4,0.8,2c0.3-0.3,0.7-0.8,1.1-1.4
			c0,0,0,0,0.1,0c0.3,0.2,0.5,0.4,0.7,0.6c0.1,0.1,0.1,0.2,0.1,0.2c0,0.1-0.1,0.1-0.2,0h-0.1c-0.4,0.3-0.9,0.6-1.5,0.8
			C58.1,66.8,59,67.6,60.1,67.9z"/>
	</g>
</g>
</svg>
