<?xml version="1.0" encoding="utf-8"?>
<!-- Generator: Adobe Illustrator 23.0.3, SVG Export Plug-In . SVG Version: 6.00 Build 0)  -->
<svg version="1.1" id="圖層_1" xmlns="http://www.w3.org/2000/svg" xmlns:xlink="http://www.w3.org/1999/xlink" x="0px" y="0px"
	 viewBox="0 0 91 15" style="enable-background:new 0 0 91 15;" xml:space="preserve">
<g>
	<path d="M3.7,4.8c0,0.1,0,0.2-0.1,0.2C3.6,5.1,3.4,5.1,3.3,5.1L3.2,5c0-0.1-0.1-0.1-0.3-0.2l0-0.1l0.4,0.1c0,0,0.1,0,0.1-0.1V2.9
		L3.1,3.1c0,0,0,0,0,0.1c0,0.1,0,0.1,0,0.2c-0.1,0-0.1,0-0.2,0L2.7,2.9c0.3-0.1,0.5-0.2,0.8-0.3V1.5H2.8l0-0.1h0.7V0.1l0.4,0.1
		c0.1,0,0.1,0.1,0.1,0.1c0,0.1,0,0.1-0.1,0.1c0,0,0,0,0,0.1v0.9h0.1L4.1,1l0.3,0.3l0,0.1H3.7v1C3.9,2.3,4,2.3,4.1,2.2l0.1,0.1
		C4.1,2.4,3.9,2.6,3.7,2.7V4.8z M5,3.1v1.6c0,0,0,0.1-0.1,0.1l-0.2,0c0,0-0.1,0-0.1,0v-2L5,2.9h0.8V2.3H4.6c0,0.3-0.1,0.5-0.2,0.6
		C4.4,2.9,4.3,3,4.2,3c0,0-0.1,0-0.1-0.1c-0.1-0.1,0-0.2,0.1-0.3c0.2-0.2,0.3-0.4,0.3-0.7l0.1,0l0,0.2h2.6l0.2-0.2l0.3,0.3
		c0.1,0,0.1,0.1,0,0.2c0,0.1-0.1,0.1-0.2,0.1c-0.1,0-0.1,0-0.1,0L7.2,2.7L7.1,2.7c0.1-0.1,0.2-0.3,0.2-0.4H6.1v0.7h0.8l0.1-0.1
		L7.3,3c0,0,0.1,0.1,0,0.1c0,0,0,0.1-0.1,0.1c0,0-0.1,0,0,0.1v1.2c0,0.1,0,0.2-0.1,0.2C7.1,4.7,7,4.8,6.8,4.8c0,0,0-0.1,0-0.1
		c0,0-0.1-0.1-0.3-0.1l0-0.1c0.2,0,0.3,0.1,0.3,0c0,0,0,0,0-0.1V3.1H6.1v2c0,0,0,0,0,0l-0.2,0c0,0,0,0,0,0V3.1H5z M6.8,1H4.5l0-0.1
		h2.4V0.4H4.9l0-0.1h1.8l0.2-0.2l0.3,0.2c0,0,0.1,0.1,0,0.1c0,0,0,0.1-0.1,0.1c0,0-0.1,0-0.1,0.1v0.3h0.1l0.2-0.3l0.3,0.3l0,0.1H7.1
		v0.9c0,0,0,0,0,0l-0.2,0c0,0,0,0,0,0V1.6H5l0-0.1h1.9V1z"/>
	<path d="M9,1.8H8.3l0-0.1H9V0.2l0.4,0.1c0.1,0,0.1,0,0.1,0.1L9.3,0.6v1.1h0.3l0.2-0.3l0.3,0.3l0,0.1H9.3v1.9
		c0.3-0.1,0.5-0.3,0.8-0.5l0.1,0.1C9.8,3.7,9.3,4,8.7,4.3c0,0,0,0,0,0.1c0,0.1,0,0.1,0,0.2c-0.1,0-0.1,0-0.2-0.1L8.3,4.1
		C8.5,4,8.7,4,9,3.9V1.8z M9.9,2.4L9.7,2.3l0.7-0.2V0.6l0.4,0.1c0.1,0,0.1,0.1,0.1,0.1c0,0,0,0.1-0.1,0.1c0,0,0,0,0,0.1v1l0.8-0.3V0
		l0.4,0.1c0.1,0,0.1,0,0.1,0.1c0,0.1,0,0.1-0.1,0.1c-0.1,0-0.1,0.1-0.1,0.1v1.2l0.8-0.3l0.1-0.2l0.3,0.2c0,0,0.1,0.1,0.1,0.1
		c0,0,0,0.1-0.1,0.1c0,0-0.1,0.1-0.1,0.1c0,1-0.1,1.7-0.2,1.9c-0.1,0.1-0.2,0.2-0.5,0.3c0-0.1,0-0.1,0-0.2c0-0.1-0.1-0.1-0.3-0.2
		l0-0.1c0.2,0.1,0.3,0.1,0.4,0.1c0.1-0.1,0.2-0.8,0.2-2l-0.9,0.3v2.2c0,0,0,0.1-0.1,0.1l-0.2,0c0,0,0,0,0-0.1V1.8l-0.8,0.3v2.4
		c0,0.1,0,0.1,0,0.2c0,0,0.1,0.1,0.2,0.1c0.2,0,0.4,0,0.8,0l0.9,0c0.1,0,0.1,0,0.2-0.1c0.1,0,0.2-0.3,0.2-0.7l0.1,0
		c0,0.4,0,0.6,0.1,0.6c0.1,0,0.1,0.1,0.1,0.2c0,0.1-0.1,0.2-0.3,0.2c-0.2,0.1-0.6,0.1-1.3,0.1c-0.4,0-0.7,0-1,0
		c-0.1,0-0.2-0.1-0.3-0.2c-0.1-0.1-0.1-0.2-0.1-0.3V2.2L9.9,2.4z"/>
	<path d="M14.9,5.1C14.9,5.1,14.9,5.1,14.9,5.1l-0.3,0.1c0,0,0,0,0,0V2.2c-0.1,0.6-0.3,1-0.6,1.4l-0.1-0.1c0.3-0.5,0.5-1.2,0.6-2.1
		H14l0-0.1h0.6V0L15,0.1c0.1,0,0.1,0,0.1,0.1c0,0.1,0,0.1-0.1,0.1c-0.1,0-0.1,0.1-0.1,0.1v0.8h0.1L15.3,1l0.3,0.3l0,0.1h-0.6v0.4
		c0.3,0.2,0.4,0.4,0.5,0.7c0,0.1,0,0.1,0,0.2c0,0,0,0.1-0.1,0.1c-0.1,0-0.2,0-0.2-0.1c0-0.3-0.1-0.5-0.2-0.6V5.1z M17.2,3.1h-1
		l0,0.4c0.1,0,0.2,0.1,0.4,0.2c0.2,0.2,0.4,0.4,0.4,0.5c0,0.1,0,0.1-0.1,0.1c-0.1,0-0.2,0-0.2-0.1c-0.1-0.3-0.3-0.5-0.4-0.6
		c-0.1,0.7-0.4,1.1-0.9,1.4l-0.1-0.1c0.1-0.1,0.2-0.2,0.3-0.3c0.3-0.3,0.4-0.8,0.4-1.5h-0.5l0-0.1h1.8C17,2.4,17,1.4,17,0l0.4,0.1
		c0.1,0,0.1,0,0.1,0.1c0,0.1,0,0.1-0.1,0.1c0,0-0.1,0-0.1,0c0,1.1,0,2,0.2,2.6h0.9l0.3-0.3l0.4,0.3L19,3.1h-1.5
		c0.1,0.4,0.2,0.6,0.3,0.8c0.1-0.1,0.3-0.4,0.4-0.6l0.3,0.2c0.1,0,0.1,0.1,0,0.1c0,0-0.1,0.1-0.1,0c0,0,0,0-0.1,0
		C18.3,3.8,18.1,4,18,4.1c0.1,0.2,0.3,0.3,0.4,0.4c0.1,0.1,0.2,0.1,0.2,0.1c0,0,0.1-0.2,0.3-0.5l0.1,0c-0.1,0.4-0.1,0.6,0,0.7
		C19,5,19,5,19,5.1c0,0-0.1,0.1-0.2,0c-0.1,0-0.2-0.1-0.4-0.2c-0.2-0.2-0.5-0.4-0.6-0.6l0,0C17.3,4.8,16.7,5,16,5.1L16,5
		c0.5-0.1,1.1-0.4,1.6-0.9C17.4,3.8,17.3,3.5,17.2,3.1z M16.1,0.1l0.4,0.1c0,0,0.1,0,0.1,0.1c0,0,0,0.1-0.1,0.1c0,0,0,0,0,0
		c-0.1,0.2-0.3,0.4-0.4,0.6c0.1,0.1,0.2,0.2,0.2,0.2c0,0.1,0,0.1,0,0.2c0,0,0,0.1-0.1,0.1c-0.1,0-0.2,0-0.2-0.1
		c-0.1-0.3-0.2-0.5-0.4-0.6l0.1-0.1c0.1,0,0.2,0.1,0.2,0.1C15.9,0.7,16,0.4,16.1,0.1z M16.3,2.3c-0.2,0-0.4,0.1-0.3,0.2
		c0,0.1,0,0.1-0.1,0.1c0,0-0.1,0-0.1-0.1l-0.1-0.4h0.3c0.2-0.3,0.4-0.7,0.6-1.3L16.8,1c0,0,0.1,0,0.1,0.1c0,0-0.1,0.1-0.1,0.1
		c0,0,0,0,0,0c-0.2,0.4-0.4,0.7-0.7,0.9l0.1,0L16.6,2c0-0.1-0.1-0.2-0.1-0.2l0.1-0.1c0.1,0.1,0.2,0.2,0.2,0.3
		c0.1,0.1,0.1,0.2,0.1,0.3c0,0.1,0,0.1,0,0.1c0,0-0.1,0.1-0.1,0.1c0,0-0.1,0-0.1,0c0,0,0-0.1-0.1-0.3L16.3,2.3z M18,2.2
		c-0.1,0-0.2,0.1-0.2,0.1c0,0.1,0,0.1-0.1,0.1c-0.1,0-0.1,0-0.1-0.1L17.4,2h0.3c0.3-0.4,0.6-0.8,0.7-1.1l0.1-0.2l0.4,0.2
		c0,0,0.1,0.1,0,0.1c0,0-0.1,0.1-0.1,0c0,0,0,0-0.1,0c-0.2,0.4-0.5,0.7-0.7,0.9L18,2l0.5-0.1c0-0.1-0.1-0.2-0.1-0.2l0.1-0.1
		c0.1,0.1,0.2,0.2,0.3,0.3c0.1,0.1,0.2,0.2,0.2,0.3c0,0.1,0,0.1,0,0.2c0,0-0.1,0.1-0.1,0.1c0,0-0.1,0-0.1,0c0,0-0.1-0.1-0.1-0.1
		l0-0.3L18,2.2z M18.1,0.1l0.4,0.1c0,0,0.1,0,0.1,0.1c0,0-0.1,0.1-0.1,0.1c0,0,0,0,0,0C18.2,0.6,18,0.8,17.8,1
		C17.9,1.1,18,1.1,18,1.2c0,0,0,0.1,0,0.1c0,0,0,0.1-0.1,0.1c-0.1,0-0.2,0-0.2-0.1c-0.1-0.2-0.1-0.4-0.3-0.5l0.1-0.1
		c0.1,0,0.1,0.1,0.2,0.2C17.9,0.7,18,0.4,18.1,0.1z M17.9,2.4c0.2,0,0.3,0.1,0.4,0.2c0,0,0,0.1,0,0.1c0,0.1,0,0.1-0.1,0.1
		c-0.1,0-0.2,0-0.2-0.1C18,2.6,17.9,2.5,17.9,2.4L17.9,2.4z"/>
	<path d="M22.7,5.1C22.7,5.1,22.6,5.1,22.7,5.1l-0.2,0.1c0,0-0.1,0-0.1,0V3.3l0.3,0.2h0.9l0.1,0c-0.4-0.2-0.7-0.5-1-0.9h-1
		c-0.3,0.3-0.7,0.6-1.3,0.9l0.1,0.1h0.9l0.2-0.2L22,3.5c0,0,0.1,0.1,0,0.1c0,0,0,0.1-0.1,0.1c0,0-0.1,0-0.1,0.1V5c0,0,0,0-0.1,0
		l-0.2,0c0,0,0,0,0,0V4.8h-1V5c0,0,0,0.1-0.1,0.1l-0.2,0c0,0-0.1,0-0.1,0V3.5l-0.6,0.2l0-0.1l0.6-0.3v0l0,0c0.5-0.3,0.8-0.6,1-0.8
		h-1.5l0-0.1h1.7c0.2-0.2,0.3-0.4,0.4-0.6l0.4,0.1c0,0,0.1,0,0.1,0.1C22.2,2,22.1,2,22.1,2c0,0-0.1,0.1-0.3,0.3h1.9L24,2l0.4,0.3
		l-0.1,0.1h-1.6c0.4,0.4,1,0.7,1.8,0.8l0,0.1c-0.1,0.1-0.2,0.2-0.2,0.3c0,0,0,0,0,0l-0.2-0.1L24,3.7c0,0-0.1,0-0.1,0.1V5
		c0,0,0,0-0.1,0l-0.2,0c0,0,0,0,0,0V4.8h-1V5.1z M20.4,1.7C20.4,1.7,20.4,1.8,20.4,1.7l-0.2,0.1c0,0-0.1,0-0.1,0V0.2l0.3,0.2h1
		l0.2-0.1l0.3,0.2c0,0,0,0,0,0.1c0,0,0,0.1-0.1,0.1c0,0-0.1,0-0.1,0.1v1.1c0,0,0,0-0.1,0l-0.2,0c0,0-0.1,0-0.1,0V1.5h-1V1.7z
		 M21.4,1.4V0.5h-1v0.9H21.4z M21.5,4.7V3.6h-1v1.1H21.5z M22.7,1.7C22.7,1.7,22.7,1.7,22.7,1.7l-0.2,0.1c0,0-0.1,0-0.1,0V0.2
		l0.3,0.2h1l0.2-0.1l0.3,0.2c0,0,0,0,0,0.1c0,0,0,0.1-0.1,0.1c0,0-0.1,0-0.1,0.1v1.1c0,0,0,0-0.1,0l-0.2,0c0,0-0.1,0-0.1,0V1.5h-1
		V1.7z M23.6,4.7V3.6h-1v1.1H23.6z M23.7,1.4V0.5h-1v0.9H23.7z M22.9,1.8c0.1,0,0.2,0,0.3,0.1c0.1,0,0.2,0.1,0.3,0.2
		c0,0,0.1,0.1,0.1,0.1c0,0,0,0.1,0,0.1c-0.1,0.1-0.1,0-0.2,0C23.2,2,23,1.9,22.9,1.9L22.9,1.8z"/>
	<path d="M28.1,2.4c0.4,1.2,1.1,1.9,2.1,2.3v0.1c-0.2,0-0.3,0.1-0.4,0.2c0,0,0,0-0.1,0l-0.1,0c-1.1-0.7-1.7-1.9-2-3.6
		c-0.1,0.9-0.3,1.5-0.6,2c-0.4,0.7-1,1.3-1.9,1.7l-0.1-0.1c0.3-0.2,0.7-0.4,1-0.7c0.6-0.6,1-1.3,1.1-2.2c0.2-0.7,0.2-1.4,0.2-2
		l0.4,0.1C28,0.2,28,0.2,28,0.3c0,0-0.1,0.1-0.1,0.1c0,0,0,0,0,0.1l0,0.4C27.9,1.5,28,2,28.1,2.4z"/>
	<path d="M33.8,2.5C33.9,2.6,34,2.8,34,2.9C34,3,34,3.1,34,3.1c0,0-0.1,0.1-0.1,0.1c-0.1,0-0.2-0.1-0.4-0.4
		c-0.2-0.3-0.5-0.5-0.8-0.7l0-0.2C33.2,2.1,33.6,2.3,33.8,2.5z"/>
	<path d="M39.4,4c0.6,0.2,1,0.5,1.3,0.7c0.1,0.1,0.1,0.1,0.1,0.2c0,0,0,0.1,0,0.1c0,0-0.1,0.1-0.1,0.1c0,0-0.1,0-0.1,0
		c-0.4-0.4-0.9-0.7-1.4-0.9c-0.5,0.5-1.4,0.9-2.6,1l0-0.1C37.1,5,37.5,4.8,38,4.7c0.3-0.1,0.6-0.3,1-0.6c-0.4-0.2-0.8-0.3-1.2-0.4
		l-0.1,0.2l-0.1,0.1c0,0-0.1,0-0.2,0c-0.1,0-0.1,0-0.1-0.1c0,0,0-0.1,0-0.1c0.3-0.4,0.5-0.9,0.7-1.3h-1.6l0-0.1h1.7
		c0.2-0.5,0.4-0.9,0.5-1.1l0.3,0.1C39,1.4,39,1.4,39,1.5c0,0.1-0.1,0.1-0.1,0.1c0,0-0.1,0-0.1,0.1l-0.3,0.7h2.2L41,2l0.4,0.3
		l-0.1,0.1h-1.3C40,3.1,39.8,3.6,39.4,4z M36.8,1.6c-0.1,0-0.1,0.1-0.2,0.1c0,0-0.1,0-0.1,0c-0.1-0.1,0-0.2,0.1-0.3
		C36.9,1.2,37,0.9,37,0.6l0.1,0v0.3h1.6V0.1l0.4,0.1c0.1,0,0.1,0,0.1,0.1l-0.2,0.2v0.4h1.7L41,0.6l0.3,0.3c0.1,0,0.1,0.1,0.1,0.2
		c0,0.1-0.1,0.1-0.2,0.1c-0.1,0-0.1,0-0.1,0c-0.2,0.2-0.3,0.4-0.5,0.6l-0.1-0.1c0.1-0.2,0.3-0.4,0.3-0.7h-3.7
		C37.1,1.3,37,1.5,36.8,1.6z M38.4,2.5l-0.5,1c0.4,0.1,0.9,0.2,1.3,0.4c0.3-0.4,0.5-0.8,0.6-1.4H38.4z"/>
	<path d="M44.6,0.6c-0.6,0.9-1.4,1.5-2.4,1.9l0-0.1c1.1-0.5,1.8-1.2,2.2-2h-1.5l0-0.1h1.5l0.2-0.1l0.3,0.2c0,0,0,0.1,0,0.1l-0.1,0.1
		l0.1,0.1C45.3,1.3,46,1.8,46.9,2V2c-0.1,0-0.2,0.1-0.3,0.3c0,0,0,0,0,0l0,0C45.7,2,45.1,1.4,44.6,0.6L44.6,0.6z M44.4,3.6h-1.5
		l0-0.1h1.5V2.3h-1.2l0-0.1h2l0.3-0.3l0.4,0.3l-0.1,0.2h-1.2v1.1h0.8l0.3-0.3l0.4,0.3l-0.1,0.1h-1.5v1.1H46l0.3-0.3l0.4,0.3
		l-0.1,0.2h-4.4l0-0.1h2V3.6z"/>
	<path d="M48.4,3.2l0.3,0.2h2.8l0.2-0.2L52,3.4c0.1,0.1,0.1,0.1-0.1,0.2c0,0-0.1,0-0.1,0.1v1.1H52l0.3-0.3l0.4,0.3l-0.1,0.1h-4.8
		l0-0.1h0.7V3.2z M48.2,3.2C48.2,3.2,48.2,3.2,48.2,3.2L48,3.3c0,0-0.1,0-0.1-0.1V0.1l0.3,0.2h1.2L49.8,0l0.4,0.3l0,0.2h-0.9v0.6
		h0.4L49.8,1L50,1.2c0,0,0,0,0,0.1c0,0,0,0.1-0.1,0.1c0,0-0.1,0-0.1,0.1v0.7c0,0,0,0-0.1,0l-0.2,0c0,0-0.1,0-0.1,0V2h-0.5v0.7h0.4
		l0.3-0.3l0.4,0.3l0,0.2h-1.9V3.2z M48.9,1.1V0.5h-0.6v0.6H48.9z M49.6,1.9V1.3h-1.4v0.6H49.6z M48.8,2.7V2h-0.6v0.7H48.8z
		 M49.5,4.8V3.5h-0.7v1.3H49.5z M50.5,4.8V3.5h-0.7v1.3H50.5z M50.2,2L50.2,2c0.3-0.6,0.6-1.2,0.6-1.9l0.4,0c0.1,0,0.1,0,0.1,0.1
		c0,0,0,0.1-0.1,0.1c0,0,0,0,0,0C51.1,0.6,51,0.8,50.9,1h0.9l0.3-0.3L52.6,1l0,0.2h-1.7C50.6,1.5,50.4,1.8,50.2,2z M51.8,2.4L52.1,2
		l0.4,0.3l-0.1,0.1h-1.9l0-0.1H51.8z M51.5,4.8V3.5h-0.7v1.3H51.5z"/>
	<path d="M56.5,0.8V0l0.4,0.1c0.1,0,0.1,0,0.1,0.1l-0.2,0.2v0.4h1L58,0.6l0.3,0.2c0.1,0,0.1,0.1,0.1,0.1C58.3,1,58.3,1,58.2,1
		c-0.1,0-0.1,0-0.1,0c-0.1,0.2-0.3,0.4-0.4,0.6l-0.1-0.1c0.1-0.2,0.2-0.4,0.3-0.7h-2.4c0,0.3-0.1,0.6-0.2,0.7
		c-0.1,0-0.1,0.1-0.2,0.1c0,0-0.1,0-0.1,0c0,0,0-0.1,0-0.1c0,0,0-0.1,0-0.1h-0.6v1.2c0.2-0.1,0.3-0.2,0.5-0.3l0.1,0.1
		c-0.2,0.2-0.3,0.3-0.6,0.5v2c0,0.1,0,0.2-0.1,0.2c-0.1,0.1-0.2,0.1-0.4,0.1c0-0.1-0.1-0.3-0.4-0.3l0-0.1L54,4.8c0,0,0.1,0,0.1-0.1
		V3.1l-0.4,0.2c0,0,0,0,0,0.1c0,0.1,0,0.1,0,0.2c-0.1,0-0.1,0-0.2-0.1l-0.2-0.4c0.2,0,0.5-0.2,0.8-0.3V1.4h-0.7l0-0.1H54V0.1
		l0.4,0.1c0.1,0,0.1,0.1,0.1,0.1c0,0.1,0,0.1-0.1,0.1c0,0,0,0,0,0.1v0.8h0.1L54.7,1L55,1.3l0,0.1c0.2-0.2,0.3-0.5,0.3-0.8l0.1,0
		l0,0.2H56.5z M56.4,3.4h-1.2l0-0.1h2l0.3-0.3L58,3.2l-0.1,0.1h-1.2v1.4h0.9l0.3-0.3l0.4,0.3l-0.1,0.1h-3.5l0-0.1h1.6V3.4z
		 M55.8,1.2l0.4,0.1c0.1,0,0.1,0.1,0.1,0.1c0,0-0.1,0.1-0.1,0.1c0,0,0,0,0,0.1c0,0.2-0.1,0.4-0.1,0.6c-0.1,0.4-0.5,0.7-1.1,0.9
		l0-0.1c0.1-0.1,0.3-0.1,0.4-0.2c0.3-0.3,0.5-0.7,0.6-1.2V1.2z M57.2,1.3C57.2,1.3,57.2,1.3,57.2,1.3l0,0.3v0.6c0,0.1,0,0.1,0.1,0.2
		c0,0,0.2,0.1,0.3,0.1c0.2,0,0.2,0,0.3,0c0.1,0,0.2-0.2,0.3-0.5l0.1,0c0,0.3,0,0.4,0,0.5c0,0,0.1,0.1,0.1,0.1c0,0.1,0,0.1-0.1,0.2
		c-0.1,0-0.3,0.1-0.6,0.1c-0.3,0-0.6,0-0.7-0.1c-0.1-0.1-0.1-0.2-0.1-0.3v-1L57.2,1.3z"/>
	<path d="M61.9,2.5c0.2,0.1,0.3,0.3,0.3,0.4c0,0.1,0,0.2-0.1,0.2c0,0-0.1,0.1-0.1,0.1c-0.1,0-0.2-0.1-0.4-0.4
		c-0.2-0.3-0.5-0.5-0.8-0.7l0-0.2C61.3,2.1,61.6,2.3,61.9,2.5z"/>
	<path d="M66.8,3.4h-1.5l0-0.1h2.8l0.3-0.3l0.4,0.3l-0.1,0.1h-1.6v1.5h1.5L69,4.6l0.4,0.3L69.3,5h-4.8l0-0.1h2.3V3.4z M64.9,1.8
		c-0.1,0.1-0.1,0.1-0.2,0.1c0,0-0.1,0-0.1,0c-0.1-0.1,0-0.2,0.1-0.3c0.3-0.3,0.4-0.6,0.4-1l0.1,0v0.3h1.6V0.1l0.4,0.1
		c0,0,0.1,0,0.1,0.1l-0.2,0.2v0.4h1.7l0.2-0.2L69.4,1c0.1,0,0.1,0.1,0,0.2c0,0.1-0.1,0.1-0.2,0.1c-0.1,0-0.1,0-0.1,0
		c-0.2,0.2-0.4,0.4-0.5,0.5l-0.1-0.1c0.2-0.2,0.3-0.4,0.4-0.6h-3.7C65.2,1.4,65.1,1.6,64.9,1.8z M66.3,1.2l0.3,0.1
		c0.1,0,0.1,0.1,0.1,0.1c0,0-0.1,0.1-0.1,0.1c0,0,0,0-0.1,0c-0.3,0.8-0.9,1.3-1.7,1.5l0-0.1c0.7-0.3,1.2-0.8,1.5-1.6L66.3,1.2z
		 M67.7,1.3C67.7,1.3,67.7,1.3,67.7,1.3l0,0.3v0.6c0,0.1,0,0.1,0.1,0.2c0.1,0,0.3,0.1,0.6,0.1c0.4,0,0.6,0,0.7-0.1
		c0,0,0.1-0.2,0.2-0.5l0.1,0c0,0.3,0,0.5,0,0.5c0,0,0.1,0.1,0.1,0.1c0,0.1-0.1,0.1-0.2,0.2c-0.2,0-0.5,0.1-0.9,0.1
		c-0.5,0-0.8,0-0.9-0.1c-0.1-0.1-0.1-0.2-0.1-0.3v-1L67.7,1.3z"/>
	<path d="M70.2,2L70.2,2c0.2-0.3,0.5-0.7,0.8-1.1c0.1-0.2,0.2-0.5,0.4-0.8l0.4,0.1c0.1,0,0.1,0.1,0.1,0.1c0,0-0.1,0.1-0.1,0.1
		c0,0,0,0,0,0l-0.1,0.2h2.5l0.3-0.3l0.4,0.3l0,0.2h-3.3C71,1.3,70.6,1.7,70.2,2z M70.3,3.5l0-0.1h1.6v-1l0.4,0.1
		c0.1,0,0.1,0,0.1,0.1c0,0.1,0,0.1-0.1,0.1c-0.1,0-0.1,0.1-0.1,0.1v0.7h0.4c0.1-0.3,0.3-0.6,0.4-1l0.4,0.1c0,0,0.1,0,0.1,0.1
		c0,0,0,0.1-0.1,0.1c0,0,0,0-0.1,0c-0.1,0.2-0.3,0.5-0.5,0.7h0.5l0.2-0.3l0.3,0.3l0,0.1h-1.5v0.2c0.7,0.2,1.1,0.5,1.3,0.8
		c0.1,0.1,0.1,0.2,0.1,0.2c0,0,0,0.1,0,0.1c-0.1,0.1-0.2,0-0.2,0c-0.3-0.4-0.7-0.7-1.1-0.9v1.3c0,0,0,0,0,0.1l-0.2,0c0,0,0,0,0-0.1
		V3.6c-0.1,0.3-0.4,0.5-0.6,0.8c-0.3,0.3-0.7,0.4-1,0.6l-0.1-0.1c0.7-0.3,1.2-0.7,1.4-1.3H70.3z M74,2l0.2-0.2L74.5,2
		c0.1,0.1,0.1,0.1-0.1,0.2c0,0-0.1,0,0,0.1c0,1,0.1,1.7,0.4,2.2c0,0,0.1,0.1,0.1,0.1c0,0,0,0,0,0L75,3.9l0.1,0L75,4.6
		c0,0.1,0,0.2,0,0.2C75.1,4.9,75.1,5,75.1,5c0,0.1-0.1,0.1-0.1,0.1c-0.1,0-0.2,0-0.3-0.1C74.2,4.7,74,3.7,74,2.1h-3.4l0-0.1H74z
		 M71,2.4c0.1,0.1,0.2,0.2,0.3,0.3c0.1,0.1,0.2,0.2,0.2,0.3c0,0.1,0,0.1,0,0.2c0,0-0.1,0.1-0.1,0.1c-0.1,0-0.2,0-0.2-0.1
		C71.1,2.8,71,2.6,71,2.4L71,2.4z M73.4,1.3L73.7,1l0.4,0.3L74,1.4h-2.6l0-0.1H73.4z"/>
	<path d="M77.2,1.3l-0.7,1.9c-0.1,0.4-0.2,0.7-0.1,0.9c0.2,0.5,0.2,0.8,0.2,0.9c0,0-0.1,0.1-0.1,0.1l-0.1,0c-0.1,0-0.1-0.3-0.1-0.8
		c0-0.2,0-0.4-0.1-0.5c-0.1-0.1-0.2-0.1-0.4,0l0-0.1c0.2-0.1,0.4-0.1,0.5-0.2c0.1-0.1,0.4-0.9,0.9-2.3L77.2,1.3z M75.8,1.6
		c0.1,0,0.3,0.1,0.4,0.2c0.1,0.1,0.2,0.2,0.2,0.3c0.1,0.1,0,0.2-0.1,0.3c-0.1,0-0.2,0-0.2-0.2C76,2,75.9,1.8,75.8,1.6L75.8,1.6z
		 M76.2,0.2c0.4,0.2,0.6,0.3,0.6,0.5c0,0.1,0,0.2-0.1,0.3c-0.1,0-0.2,0-0.2-0.2C76.5,0.6,76.3,0.4,76.2,0.2L76.2,0.2z M77.6,2l0-0.1
		h2.3L80,1.6l0.3,0.2c0,0,0.1,0.1,0,0.1c0,0,0,0.1-0.1,0.1c0,0-0.1,0-0.1,0.1v0.5h0l0.2-0.3l0.3,0.3l0,0.1h-0.5v1.1c0,0,0,0-0.1,0
		l-0.2,0c0,0,0,0,0,0V3.7H79v1c0,0.1,0,0.2-0.1,0.3c-0.1,0.1-0.2,0.1-0.4,0.2c0,0,0-0.1-0.1-0.2c0-0.1-0.2-0.1-0.5-0.2l0-0.1
		c0.4,0.1,0.6,0.1,0.7,0.1c0,0,0,0,0-0.1v-1h-1.2l0-0.1h1.3V2.8h-1.6l0-0.1h1.6V2H77.6z M79.9,0.1l0.3,0.2c0.1,0,0.1,0.1,0,0.1
		c0,0-0.1,0.1-0.2,0H80c-0.5,0.2-1.2,0.3-2,0.3c-0.1,0.2-0.1,0.4-0.2,0.6c-0.1,0.2-0.3,0.5-0.5,0.7l-0.1-0.1l0.2-0.3
		c0.1-0.3,0.3-0.7,0.4-1.2L78,0.6C78.9,0.5,79.5,0.3,79.9,0.1z M78.7,0.9C78.8,0.9,78.9,1,79,1.2c0.1,0.1,0.1,0.2,0.1,0.3
		c0,0.1,0,0.1,0,0.1c0,0-0.1,0.1-0.1,0.1c-0.1,0-0.2-0.1-0.2-0.1C78.8,1.3,78.7,1.1,78.7,0.9L78.7,0.9z M79,2.7h0.9V2H79V2.7z
		 M79,3.5h0.9V2.8H79V3.5z M79.9,0.7c0.1,0.1,0.3,0.2,0.5,0.3c0.2,0.2,0.3,0.3,0.3,0.4c0,0.1,0,0.1,0,0.2c0,0,0,0.1-0.1,0.1
		c-0.1,0-0.2,0-0.2-0.1C80.2,1.2,80,1,79.9,0.7L79.9,0.7z"/>
	<path d="M81.5,2.8L81.5,2.8l0.1-0.2c0.7-0.8,1.1-1.7,1.3-2.5l0.4,0.1c0,0,0.1,0,0.1,0.1c0,0,0,0-0.1,0c0,0,0,0,0,0
		c-0.1,0.4-0.3,0.7-0.5,1l0.1,0c0,0,0.1,0,0.1,0.1c0,0,0,0.1-0.1,0.1c0,0,0,0,0,0.1v3.4c0,0,0,0.1,0,0.1l-0.2,0c0,0-0.1,0-0.1-0.1
		V1.8C82,2.2,81.8,2.6,81.5,2.8z M85.9,1c0.2,0.2,0.4,0.3,0.4,0.3c0,0,0,0.1-0.1,0.1c0,0-0.1,0-0.1,0c0,0,0,0-0.1,0
		c-0.4,0.5-1,0.9-1.8,1.2v1.9c0,0.1,0,0.1,0,0.2c0,0,0.1,0.1,0.2,0.1c0.1,0,0.3,0,0.6,0l0.7,0c0,0,0.1,0,0.1-0.1
		c0.1,0,0.2-0.3,0.3-0.7l0.1,0c0,0.4,0,0.6,0,0.6c0.1,0,0.1,0.1,0.1,0.2c0,0.1-0.1,0.2-0.3,0.2c-0.2,0.1-0.5,0.1-1.1,0.1
		c-0.3,0-0.6,0-0.8,0C84.2,5,84.1,5,84,4.9c0-0.1-0.1-0.2-0.1-0.3V0.1l0.4,0.1c0.1,0,0.1,0.1,0.1,0.1c0,0,0,0.1-0.1,0.1
		c0,0,0,0,0,0.1v2.1C85,2.1,85.6,1.6,85.9,1z"/>
	<path d="M0,11.1l0-0.1c0.2-0.1,0.5-0.2,0.7-0.4c0.2-0.2,0.4-0.5,0.5-0.9H0.1l0-0.1h1.2l0-0.7H0.8C0.6,9,0.4,9.2,0.2,9.3L0.1,9.2
		C0.5,8.9,0.7,8.5,0.8,8l0.3,0.1c0,0,0.1,0,0.1,0.1c0,0.1,0,0.1-0.1,0.1c0,0,0,0-0.1,0L0.9,8.6h0.9l0.3-0.3l0.4,0.3l0,0.2H1.6
		c0,0.3,0,0.5-0.1,0.7h0.4l0.3-0.3l0.4,0.3L2.6,9.6H1.5l0,0.2c0.1,0,0.3,0.1,0.5,0.2c0.2,0.1,0.4,0.2,0.4,0.4c0,0,0,0.1,0,0.2
		c0,0.1,0,0.1,0,0.1c-0.1,0-0.2,0-0.2,0c-0.2-0.3-0.5-0.5-0.7-0.7C1.2,10.5,0.7,10.9,0,11.1z M1.4,13C1.4,13.1,1.4,13.1,1.4,13
		l-0.2,0.1c0,0-0.1,0-0.1,0v-2.3L1.4,11h2.2l0.2-0.3L4.1,11c0.2,0.1,0.1,0.2-0.1,0.3c0,0,0,0,0,0v1.8l0,0c-0.1,0-0.2,0-0.2,0
		c0,0,0,0,0,0v-0.3H1.4V13z M3.6,11.8v-0.7H1.4v0.7H3.6z M3.6,12.7V12H1.4v0.7H3.6z M3.2,10.6C3.2,10.6,3.2,10.6,3.2,10.6L3,10.7
		c0,0-0.1,0-0.1,0V8.4l0.3,0.2h1.1l0.2-0.2l0.3,0.2c0,0,0.1,0.1,0,0.1c0,0,0,0.1-0.1,0.1c0,0-0.1,0-0.1,0.1v1.7c0,0,0,0-0.1,0
		l-0.2,0c0,0,0,0,0,0v-0.3H3.2V10.6z M4.4,10.2V8.7H3.2v1.5H4.4z"/>
	<path d="M6,10.1C6,10.1,6,10.2,6,10.1c0,0.1-0.1,0.2-0.1,0.2c-0.1,0-0.1,0-0.1-0.1L5.6,9.8c0.4,0,0.7,0,1.1-0.1V9.3H5.9l0-0.1h0.8
		V8.7H5.7l0-0.1h1V8l0.3,0c0.1,0,0.1,0,0.1,0.1c0,0.1,0,0.1-0.1,0.1c0,0,0,0,0,0v0.2h0.2l0.3-0.3l0.4,0.3L7.8,8.7H7v0.5h0.1l0.3-0.3
		l0.4,0.3L7.8,9.3H7v0.4c0.3-0.1,0.5-0.1,0.8-0.2l0.1,0.1C7.6,9.8,7.3,9.9,7,9.9v0.3c0,0,0,0,0,0l-0.2,0c0,0,0,0,0,0V10L6,10.1z
		 M6.3,12c0,0.4-0.2,0.7-0.4,0.9c-0.1,0-0.1,0-0.2,0c0,0-0.1,0-0.1-0.1c0-0.1,0-0.2,0.1-0.3C6,12.5,6.2,12.3,6.3,12L6.3,12z
		 M9.3,11.1H5.7l0-0.1h3.6v-0.4h-3l0-0.1h3l0.2-0.2l0.3,0.2c0,0,0.1,0.1,0,0.1c0,0,0,0.1-0.1,0.1c0,0-0.1,0-0.1,0.1V11h0.2l0.3-0.3
		l0.4,0.3l-0.1,0.1H9.6v0.7c0,0,0,0-0.1,0l-0.2,0c0,0,0,0,0,0v-0.2H6.2l0-0.1h3.1V11.1z M7.3,11.9c0.1,0,0.1,0.1,0.1,0.1
		c0,0,0,0.1-0.1,0.1c0,0,0,0,0,0.1v0.4c0,0.1,0,0.1,0,0.2c0,0,0.1,0.1,0.2,0.1l0.2,0c0.7,0,1.2,0,1.3-0.1c0.1,0,0.1-0.2,0.2-0.5
		l0.1,0c0,0.3,0,0.4,0.1,0.4c0.1,0,0.1,0.1,0.1,0.2c0,0.1-0.1,0.2-0.3,0.2c-0.2,0.1-0.6,0.1-1.1,0.1c-0.4,0-0.6,0-0.8,0
		C7.2,13,7.1,13,7,12.9c-0.1-0.1-0.1-0.2-0.1-0.3v-0.8L7.3,11.9z M7.7,11.8c0.1,0,0.3,0.1,0.4,0.2c0.2,0.1,0.4,0.3,0.4,0.4
		c0,0.1,0,0.1-0.1,0.1c-0.1,0-0.2,0-0.2-0.1c-0.2-0.3-0.3-0.5-0.5-0.5L7.7,11.8z M7.9,9.9l0-0.1H9V9.3H8.2l0-0.1H9V8.7H8.1l0-0.1H9
		V8.1l0.3,0c0.1,0,0.1,0,0.1,0.1c0,0.1,0,0.1-0.1,0.1c0,0,0,0,0,0v0.2h0.4l0.3-0.3l0.4,0.3l-0.1,0.2h-1v0.5h0.2l0.3-0.3l0.4,0.3
		l-0.1,0.1H9.3v0.4h0.5l0.3-0.3l0.4,0.3l-0.1,0.2H9.3v0.3c0,0,0,0,0,0l-0.2,0c0,0,0,0,0,0V9.9H7.9z M9.6,12c0.1,0.1,0.3,0.2,0.5,0.3
		c0.2,0.1,0.3,0.3,0.3,0.4c0,0,0,0.1,0,0.2c0,0.1,0,0.1-0.1,0.1c-0.1,0-0.2,0-0.2-0.1C10,12.4,9.8,12.2,9.6,12L9.6,12z"/>
	<path d="M11.4,10.9C11.4,10.9,11.4,10.9,11.4,10.9c0,0.1-0.1,0.2-0.1,0.2c-0.1,0-0.1,0-0.1-0.1l-0.1-0.4h0.5
		c0.5-0.7,0.8-1.3,0.9-1.8l0.4,0.2C13,9,13,9,13,9c0,0-0.1,0.1-0.1,0.1c0,0,0,0-0.1,0c-0.3,0.6-0.6,1-1,1.5l0.1,0l0.7-0.1
		c-0.1-0.1-0.1-0.2-0.2-0.3l0.1-0.1c0.1,0.1,0.2,0.2,0.3,0.3c0.1,0.2,0.2,0.3,0.2,0.4c0,0.1,0,0.1,0,0.2c0,0-0.1,0.1-0.1,0.1
		c0,0-0.1,0-0.1,0c0,0-0.1-0.1-0.1-0.1l0-0.2l-0.4,0.1v2.3c0,0,0,0,0,0l-0.2,0c0,0,0,0,0,0v-2.3L11.4,10.9z M11.4,11.5v-0.2l0.4,0.1
		c0.1,0,0.1,0,0.1,0.1c0,0-0.1,0.1-0.1,0.1c0,0,0,0,0,0c-0.1,0.5-0.2,0.9-0.4,1.2l-0.1,0C11.2,12.5,11.3,12.1,11.4,11.5L11.4,11.5z
		 M11.9,8.1l0.3,0.1c0,0,0.1,0.1,0.1,0.1c0,0,0,0.1-0.1,0.1c0,0-0.1,0-0.1,0C12,8.7,11.8,9,11.6,9.3l0,0c0.1,0.2,0.2,0.3,0.3,0.4
		c0,0.1,0,0.1,0,0.2c0,0.1-0.1,0.1-0.1,0.1c-0.1,0-0.2,0-0.2-0.1c-0.1-0.4-0.2-0.6-0.4-0.8L11.3,9l0.2,0.2
		C11.7,8.8,11.9,8.4,11.9,8.1z M12.5,11.3c0.1,0.1,0.2,0.3,0.3,0.5c0.1,0.3,0.2,0.6,0.1,0.7c0,0-0.1,0.1-0.1,0.1
		c-0.1,0-0.1-0.1-0.1-0.2C12.6,11.9,12.6,11.6,12.5,11.3L12.5,11.3z M13.5,13.1C13.5,13.1,13.5,13.1,13.5,13.1l-0.3,0.1
		c0,0-0.1,0-0.1-0.1V8l0.3,0.2h2.2l0.2-0.2l0.3,0.2c0.1,0.1,0.1,0.2-0.1,0.2c0,0,0,0,0,0v4.3c0,0.1,0,0.2-0.1,0.2
		c-0.1,0.1-0.2,0.1-0.4,0.1l0-0.1c0-0.1-0.2-0.1-0.4-0.2l0-0.1c0.3,0,0.4,0,0.5,0c0.1,0,0.1,0,0.1-0.1V8.4h-2.2V13.1z M13.6,10.7
		l0-0.1h0.8V9.9h-0.6l0-0.1h1c0.2-0.3,0.3-0.7,0.3-1l0.3,0.1c0,0,0.1,0,0.1,0.1c0,0.1,0,0.1-0.1,0.1c0,0-0.1,0-0.1,0
		c-0.1,0.3-0.2,0.5-0.4,0.7H15l0.2-0.3l0.3,0.3l0,0.1h-0.8v0.7H15l0.2-0.3l0.3,0.3l0,0.1h-1.2v0.8c0,0.1,0,0.1,0,0.1
		c0.1,0,0.2,0.1,0.4,0.1l0.4,0c0,0,0.1,0,0.1,0.1c0,0,0,0.1,0,0.1c0,0.1,0,0.1-0.1,0.1c-0.1,0-0.3,0.1-0.5,0.1c-0.4,0-0.6,0-0.7-0.1
		c-0.1-0.1-0.1-0.2-0.1-0.2v-0.9H13.6z M13.9,8.7C14,8.8,14.1,8.9,14.2,9c0.1,0.1,0.2,0.3,0.2,0.4c0,0.1,0,0.1,0,0.1
		c0,0-0.1,0.1-0.1,0.1c-0.1,0-0.2,0-0.2-0.1C14,9.2,13.9,8.9,13.9,8.7L13.9,8.7z"/>
	<path d="M17,10.5l0.4,0.1c0.1,0,0.1,0,0.1,0.1l-0.2,0.2v1.7l0.4-0.1V10h-0.4v0.2c0,0,0,0.1-0.1,0.1l-0.2,0c0,0-0.1,0-0.1,0v-2
		l0.3,0.2h0.9l0.2-0.2l0.3,0.2c0,0,0.1,0.1,0,0.1c0,0,0,0.1-0.1,0.1c0,0-0.1,0-0.1,0.1v1.4c0,0,0,0-0.1,0l-0.2,0c0,0,0,0,0,0V10H18
		v0.8h0.2l0.2-0.3l0.3,0.3L18.7,11H18v1.4c0.3-0.1,0.5-0.2,0.7-0.3l0.1,0.1c-0.4,0.3-0.9,0.5-1.5,0.7c-0.2,0.1-0.3,0.1-0.3,0.1
		c0,0.1,0,0.1-0.1,0.2c-0.1,0-0.1,0-0.1-0.1l-0.2-0.4l0.3,0V10.5z M18.2,9.8V8.6h-1v1.3H18.2z M18.9,10.1L18.9,10.1l0-0.2
		c0.5-0.6,0.8-1.2,0.8-1.8l0.4,0.1c0.1,0,0.1,0.1,0.1,0.1c0,0-0.1,0.1-0.1,0.1c0,0-0.1,0-0.1,0.1l-0.1,0.4h1.1l0.2-0.1l0.3,0.2
		c0,0,0.1,0.1,0,0.1l-0.2,0.1c-0.2,0.4-0.4,0.7-0.6,1.1l0,0c0.4,0.3,0.8,0.5,1.3,0.6l0,0.1c-0.2,0-0.3,0.1-0.3,0.3c0,0,0,0-0.1,0
		c-0.4-0.2-0.8-0.4-1.2-0.8c-0.5,0.5-1.1,0.8-1.8,1l0-0.1c0.6-0.2,1.2-0.6,1.7-1.1c-0.2-0.3-0.4-0.6-0.5-1
		C19.5,9.6,19.2,9.9,18.9,10.1z M19.6,13.1C19.6,13.1,19.6,13.1,19.6,13.1l-0.2,0.1c0,0-0.1,0-0.1,0v-1.9l0.3,0.2h1.3l0.2-0.2
		l0.3,0.2c0,0,0.1,0.1,0,0.1c0,0,0,0.1-0.1,0.1c0,0-0.1,0-0.1,0.1v1.4c0,0,0,0-0.1,0l-0.2,0c0,0,0,0,0,0v-0.3h-1.3V13.1z M20.9,12.7
		v-1.2h-1.3v1.2H20.9z M20.3,10L20.3,10c0.3-0.4,0.5-0.7,0.6-1.1h-1.1l0,0.1c0.1,0.3,0.2,0.5,0.3,0.7L20.3,10z"/>
	<path d="M25.3,10.5c0.2,0.1,0.3,0.3,0.3,0.4c0,0.1,0,0.2-0.1,0.2c0,0-0.1,0.1-0.1,0.1c-0.1,0-0.2-0.1-0.4-0.4
		c-0.2-0.3-0.5-0.5-0.8-0.7l0-0.2C24.8,10.1,25.1,10.3,25.3,10.5z"/>
	<path d="M28.2,9.9L28.2,9.9l0.2-0.2c0.7-0.4,1.3-1,1.6-1.6l0.4,0.1c0,0,0.1,0,0.1,0.1c0,0.1-0.1,0.1-0.1,0.1c0,0-0.1,0.1-0.3,0.4
		h1.3l0.2-0.1l0.3,0.2c0,0,0,0.1,0,0.1c0,0-0.1,0.1-0.2,0.1c0,0-0.1,0-0.1,0.1c-0.9,1.1-2,1.8-3.5,2.1l0-0.1
		c1.5-0.5,2.6-1.2,3.3-2.2h-1.5c-0.2,0.2-0.3,0.3-0.5,0.4c0.1,0,0.2,0.1,0.3,0.2c0.2,0.1,0.3,0.2,0.3,0.3c0,0.1,0,0.1,0,0.2
		c0,0.1,0,0.1-0.1,0.1c-0.1,0-0.2,0-0.2-0.1c-0.2-0.3-0.4-0.5-0.6-0.6C28.9,9.6,28.5,9.8,28.2,9.9z M28.7,11.9L28.7,11.9
		c1.1-0.6,1.8-1.3,2.2-2.1l0.4,0.1c0,0,0.1,0,0.1,0.1c0,0.1-0.1,0.1-0.1,0.1c0,0-0.2,0.1-0.3,0.4h1.3l0.2-0.1l0.3,0.2
		c0,0,0,0.1,0,0.1c0,0-0.1,0.1-0.2,0.1c0,0,0,0,0,0.1c-0.2,0.4-0.4,0.7-0.7,1c-0.8,0.8-1.9,1.2-3.3,1.4l0-0.1c0.3-0.1,0.7-0.1,1-0.2
		c1.3-0.4,2.3-1.2,2.8-2.2h-1.4c-0.1,0.1-0.3,0.3-0.5,0.5c0.1,0,0.2,0.1,0.4,0.2c0.2,0.1,0.3,0.3,0.4,0.4c0,0.1,0,0.1,0,0.2
		c0,0.1,0,0.1-0.1,0.1c-0.1,0-0.2,0-0.2-0.1c-0.2-0.3-0.4-0.6-0.6-0.7C29.7,11.5,29.2,11.7,28.7,11.9z"/>
	<path d="M34,11.2l-0.1,0.3c0,0.1,0,0.1-0.1,0.1l-0.2,0c0,0-0.1,0,0-0.1c0.2-0.7,0.4-1.3,0.5-1.9l0-0.2h-0.5l0-0.1h0.6
		c0.1-0.6,0.2-1,0.2-1.2l0.4,0.1c0.1,0,0.1,0,0.1,0.1c0,0,0,0.1-0.1,0.1c0,0-0.1,0-0.1,0.1l-0.1,0.9h0.5l0.2-0.2l0.3,0.2
		c0,0,0,0.1,0,0.1c0,0-0.1,0.1-0.1,0.1c0,0-0.1,0-0.1,0.1c-0.1,0.9-0.2,1.5-0.4,2.1c0.3,0.2,0.4,0.4,0.4,0.6c0,0.1,0,0.1-0.1,0.1
		c0,0-0.1,0-0.1,0s-0.1,0-0.1-0.1l-0.3-0.4c-0.2,0.4-0.6,0.8-1,1.1l-0.1-0.1c0.4-0.3,0.7-0.8,0.9-1.2C34.4,11.5,34.2,11.3,34,11.2z
		 M34.4,9.4c-0.1,0.7-0.3,1.2-0.4,1.7c0.2,0.1,0.4,0.2,0.6,0.3c0.1-0.4,0.2-0.8,0.3-1.3c0-0.4,0.1-0.7,0-0.7H34.4z M37,13.1
		C37,13.1,37,13.1,37,13.1l-0.3,0.1c0,0,0,0,0,0v-1.7c-0.4,0.7-1,1.1-1.7,1.4l0-0.1c0.7-0.3,1.2-0.8,1.5-1.5h-1.1l0-0.1h1.4v-0.7
		h-0.5v0.4c0,0,0,0,0,0l-0.2,0c0,0,0,0,0,0v-2h-0.6l0-0.1h0.7V8l0.3,0c0.1,0,0.2,0,0.1,0.1c0,0.1-0.1,0.1-0.1,0.1c0,0,0,0,0,0v0.3
		h1.2V8l0.3,0c0.1,0,0.2,0,0.1,0.1c0,0.1-0.1,0.1-0.1,0.1c0,0,0,0,0,0v0.3h0.2l0.3-0.3l0.4,0.3l-0.1,0.1h-0.8v1.9c0,0,0,0,0,0
		l-0.2,0c0,0,0,0,0,0v-0.4H37v0.7h0.9l0.3-0.3l0.4,0.3l-0.1,0.2h-1.5c0.4,0.6,1,1,1.6,1.2v0.1c-0.1,0-0.2,0.1-0.3,0.2c0,0,0,0-0.1,0
		c-0.5-0.3-1-0.7-1.3-1.4V13.1z M37.4,9.5V8.8h-1.2v0.6H37.4z M37.4,10.3V9.6h-1.2v0.7H37.4z"/>
	<path d="M39.5,9.8L39.5,9.8c0,0.2,0,0.3-0.1,0.4c0,0-0.1,0.1-0.1,0.1c0,0-0.1,0-0.1,0c-0.1-0.1-0.1-0.1,0-0.2
		c0.2-0.2,0.3-0.5,0.2-0.6h0.1l0,0.2h0.2V8.1l0.3,0.2h0.8l0.2-0.2l0.3,0.2c0.1,0.1,0.1,0.1-0.1,0.2c0,0-0.1,0-0.1,0.1v1.1h0l0.2-0.2
		l0.3,0.2l0,0V8.4l0.2,0.1h0.5V8l0.4,0.1c0.1,0,0.1,0,0.1,0.1l-0.2,0.2v0.1H43V8l0.4,0.1c0.1,0,0.1,0,0.1,0.1l-0.2,0.2v0.1h0.3
		l0.2-0.2l0.3,0.2c0,0,0.1,0.1,0,0.1c0,0,0,0.1-0.1,0.1c0,0-0.1,0-0.1,0.1v1.3l0,0l0.2,0.2l0,0.1h-2.7l0-0.1h2.3l0.1-0.2l-0.1,0
		c0,0,0,0,0,0V10h-1.8v0.1c0,0,0,0.1-0.1,0.1l-0.2,0c0,0-0.1,0-0.1,0V9.9l-0.1,0c0,0-0.1,0-0.1,0l-0.2,0.3l-0.1-0.1
		c0-0.1,0.1-0.3,0.1-0.4H39.5L39.5,9.8z M40,13.1C40,13.1,40,13.1,40,13.1l-0.2,0.1c0,0-0.1,0-0.1,0v-2.9l0.3,0.2h0.8l0.1-0.1
		l0.3,0.2c0,0,0.1,0.1,0,0.1c0,0,0,0.1-0.1,0.1c0,0,0,0,0,0.1v2.1c0,0.1,0,0.2-0.1,0.2c-0.1,0.1-0.2,0.1-0.3,0.1c0,0,0-0.1,0-0.1
		c0,0-0.1-0.1-0.2-0.1l0-0.1c0.2,0,0.3,0.1,0.3,0c0,0,0,0,0-0.1v-0.8H40V13.1z M40.2,9.7v-1l0.2,0.1h0.3V8.4H40v1.3H40.2z M40.7,11
		v-0.6H40V11H40.7z M40.7,11.8v-0.6H40v0.6H40.7z M40.8,9.7V9h-0.2v0.7H40.8z M43.2,12.1l0.4,0.1c0.1,0,0.1,0,0.1,0.1
		c0,0.1-0.1,0.1-0.1,0.1l-0.1,0c-0.1,0.1-0.2,0.3-0.3,0.5h0.5l0.2-0.3l0.3,0.3l0,0.1h-2.9l0-0.1H43C43.1,12.6,43.2,12.3,43.2,12.1z
		 M42,12C42,12.1,42,12.1,42,12l-0.2,0.1c0,0-0.1,0-0.1,0v-1.2L42,11h1.6l0.2-0.1L44,11c0,0,0,0,0,0.1c0,0,0,0.1-0.1,0.1
		c0,0-0.1,0-0.1,0.1V12c0,0,0,0-0.1,0l-0.2,0c0,0-0.1,0-0.1,0v-0.2H42V12z M42.3,8.7h-0.4v0.5h0.4V8.7z M42.3,9.9V9.4h-0.4v0.5H42.3
		z M43.6,11.7v-0.6H42v0.6H43.6z M42.1,12.1c0.2,0.1,0.3,0.3,0.3,0.4c0,0.1,0,0.1,0,0.2c0,0-0.1,0.1-0.1,0.1c-0.1,0-0.2,0-0.2-0.1
		C42.2,12.5,42.1,12.3,42.1,12.1L42.1,12.1z M43,8.7h-0.4v0.5H43V8.7z M43,9.9V9.4h-0.4v0.5H43z M43.3,9.2h0.4V8.7h-0.4V9.2z
		 M43.7,9.9V9.4h-0.4v0.5H43.7z"/>
	<path d="M48.1,9l0.4,0.1c0,0,0.1,0,0.1,0.1c0,0,0,0.1-0.1,0.1c0,0,0,0-0.1,0c-0.1,0.2-0.3,0.5-0.5,0.8h1.2l0.3-0.3l0.4,0.3
		l-0.1,0.1h-4.8l0-0.1h2.9C47.9,9.7,48.1,9.4,48.1,9z M47.1,8.1l0.4,0.1c0.1,0,0.1,0,0.1,0.1l-0.2,0.2v0.3h1.3l0.3-0.3l0.4,0.3
		l-0.1,0.1h-4.3l0-0.1h2V8.1z M46.2,13C46.2,13.1,46.1,13.1,46.2,13l-0.2,0.1c0,0-0.1,0-0.1,0v-2.4l0.2,0.1h2.2l0.2-0.2l0.3,0.2
		c0,0,0.1,0.1,0,0.1c0,0,0,0.1-0.1,0.1c0,0-0.1,0-0.1,0.1v2c0,0,0,0-0.1,0l-0.2,0c0,0,0,0,0,0v-0.3h-2.2V13z M46.2,9.1
		c0.1,0.1,0.2,0.2,0.3,0.3c0.1,0.1,0.2,0.3,0.2,0.3c0,0.1,0,0.1,0,0.2c0,0-0.1,0.1-0.1,0.1c-0.1,0-0.2,0-0.2-0.1
		C46.3,9.5,46.2,9.3,46.2,9.1L46.2,9.1z M48.4,11.7v-0.8h-2.2v0.8H48.4z M48.4,12.7v-0.8h-2.2v0.8H48.4z"/>
	<path d="M51.4,8.7c-0.3,0.4-0.6,0.6-0.9,0.8l-0.1-0.1c0.4-0.4,0.8-0.8,1-1.4l0.4,0.1c0.1,0,0.1,0.1,0.1,0.1c0,0-0.1,0.1-0.1,0.1
		c0,0,0,0,0,0l-0.1,0.2h0.8l0.3-0.3L53,8.6l0,0.2h-1c0.2,0.2,0.3,0.3,0.3,0.5c0,0.1,0,0.1,0,0.2c0,0-0.1,0.1-0.1,0.1
		c-0.1,0-0.2,0-0.2-0.1c0-0.3-0.1-0.5-0.2-0.6H51.4z M51.9,13C51.9,13.1,51.9,13.1,51.9,13l-0.3,0.1c0,0,0,0,0-0.1v-2
		c-0.3,0.7-0.6,1.2-1.1,1.5l-0.1-0.1c0.4-0.5,0.8-1.1,1-1.9h-0.8l0-0.1h1V9.5l0.4,0.1c0.1,0,0.1,0,0.1,0.1c0,0.1,0,0.1-0.1,0.1
		c-0.1,0-0.1,0.1-0.1,0.1v0.5h0.2l0.3-0.3l0.4,0.3l-0.1,0.1h-0.9v0.2c0.1,0.1,0.3,0.2,0.4,0.3c0.2,0.2,0.3,0.3,0.3,0.4
		c0,0.1,0,0.1,0,0.2c0,0.1,0,0.1-0.1,0.1c-0.1,0-0.2,0-0.2-0.1c-0.1-0.3-0.3-0.6-0.5-0.7V13z M53.6,8.7c-0.3,0.4-0.6,0.7-0.8,0.8
		l-0.1-0.1c0.4-0.4,0.7-0.9,0.8-1.4l0.4,0.1c0.1,0,0.1,0,0.1,0.1c0,0-0.1,0.1-0.1,0.1c0,0,0,0,0,0l-0.1,0.2h1.1l0.3-0.3l0.4,0.3
		l0,0.2h-1.1c0.2,0.2,0.3,0.4,0.4,0.6c0,0.1,0,0.1,0,0.2c0,0-0.1,0.1-0.1,0.1c-0.1,0-0.2,0-0.2-0.1c0-0.3-0.1-0.5-0.2-0.7H53.6z
		 M53.4,13C53.4,13.1,53.4,13.1,53.4,13l-0.3,0.1c0,0-0.1,0-0.1-0.1V9.7l0.3,0.2h1.4l0.2-0.2l0.3,0.3c0.1,0.1,0,0.2-0.1,0.2
		c0,0,0,0,0,0V13c0,0,0,0.1-0.1,0.1c0,0-0.1,0-0.1,0c0,0-0.1,0-0.1,0c0,0,0-0.1,0-0.1v-0.3h-1.5V13z M54.9,10.9v-0.7h-1.5v0.7H54.9z
		 M54.9,11.7V11h-1.5v0.7H54.9z M54.9,12.6v-0.7h-1.5v0.7H54.9z"/>
	<path d="M57,10.4c0.1,0.1,0.1,0.2,0.1,0.2c0,0.1,0,0.2-0.1,0.2C57,10.9,56.9,11,56.8,11c-0.1,0-0.2,0-0.2-0.1
		c-0.1-0.1-0.1-0.1-0.1-0.2c0-0.1,0-0.2,0.1-0.2c0.1-0.1,0.1-0.1,0.2-0.1C56.9,10.3,57,10.3,57,10.4z M58.9,10.4
		c0.1,0.1,0.1,0.2,0.1,0.2c0,0.1,0,0.2-0.1,0.2c-0.1,0.1-0.1,0.1-0.2,0.1c-0.1,0-0.2,0-0.2-0.1c-0.1-0.1-0.1-0.1-0.1-0.2
		c0-0.1,0-0.2,0.1-0.2c0.1-0.1,0.2-0.1,0.2-0.1C58.7,10.3,58.8,10.3,58.9,10.4z M60.7,10.4c0.1,0.1,0.1,0.2,0.1,0.2
		c0,0.1,0,0.2-0.1,0.2c-0.1,0.1-0.1,0.1-0.2,0.1c-0.1,0-0.2,0-0.2-0.1c-0.1-0.1-0.1-0.1-0.1-0.2c0-0.1,0-0.2,0.1-0.2
		c0.1-0.1,0.2-0.1,0.2-0.1C60.6,10.3,60.7,10.3,60.7,10.4z"/>
	<path d="M61.7,9.4l0-0.1h1c0-0.6,0-1,0-1.1l0.4,0.1c0.1,0,0.1,0,0.1,0.1L63,8.4l0,0.8h0.9l0.2-0.2l0.3,0.2c0,0,0,0.1,0,0.1
		c0,0-0.1,0.1-0.1,0.1c0,0,0,0.1,0,0.2c0,1.9-0.2,2.9-0.6,3.2C63.6,13,63.4,13,63.3,13c0-0.1,0-0.1-0.1-0.2c-0.1,0-0.2-0.1-0.3-0.1
		l0-0.1c0.3,0,0.5,0.1,0.6,0l0.1,0c0.3-0.3,0.4-1.3,0.4-3.2h-1c0,0.5-0.1,1-0.1,1.5c-0.2,0.9-0.5,1.7-1.1,2.2L61.7,13
		c0.6-0.7,0.9-1.9,1-3.6H61.7z M65.1,13C65.1,13,65.1,13,65.1,13l-0.3,0.1c0,0-0.1,0-0.1-0.1V8.7L65.2,9h1l0.2-0.3L66.7,9
		c0.1,0.1,0.1,0.2-0.1,0.3c0,0,0,0,0,0V13l0,0c-0.1,0-0.2,0-0.2,0c0,0,0,0,0-0.1v-0.3h-1.1V13z M66.2,12.5V9.1h-1.1v3.4H66.2z"/>
	<path d="M67.9,12.9C67.9,12.9,67.9,13,67.9,12.9L67.7,13c0,0,0,0,0,0v-2.1l-0.3,0.3l-0.1-0.1c0.4-0.6,0.6-1.4,0.7-2.4h-0.5l0-0.1
		h1.1l0.3-0.3l0.4,0.3l-0.1,0.2h-0.8c0,0.5-0.1,1-0.3,1.4h0.5l0.2-0.2l0.3,0.2c0,0,0.1,0.1,0,0.1c0,0,0,0.1-0.1,0.1
		c0,0-0.1,0-0.1,0.1v2.1c0,0,0,0-0.1,0l-0.2,0c0,0,0,0,0,0v-0.4h-0.6V12.9z M68.5,12.1v-1.8h-0.6v1.8H68.5z M69.6,11.7
		c0,0.2,0,0.3,0,0.6c0,0.2-0.1,0.4-0.2,0.5c0,0-0.1,0.1-0.1,0.1c-0.1,0-0.1,0-0.1,0c-0.1-0.1-0.1-0.1,0-0.2c0.2-0.3,0.4-0.6,0.4-0.9
		L69.6,11.7z M69.8,11.3C69.8,11.4,69.7,11.4,69.8,11.3l-0.3,0.1c0,0-0.1,0-0.1-0.1V8.1l0.3,0.2h1.7L71.8,8l0.4,0.3l0,0.2H71v0.7
		h0.3l0.3-0.3L72,9.2l0,0.2h-1v0.7h0.3l0.3-0.3l0.4,0.3l0,0.2h-1v0.7h0.9l0.2-0.2l0.3,0.1c0.1,0,0.1,0.1,0.1,0.1c0,0,0,0.1-0.1,0.1
		c0,0-0.1,0-0.1,0.1c0,0.7-0.1,1.2-0.2,1.4c-0.1,0.2-0.3,0.4-0.6,0.5c0-0.1,0-0.2-0.1-0.3c-0.1-0.1-0.2-0.1-0.3-0.2l0-0.1
		c0.2,0.1,0.4,0.1,0.5,0.1c0.1,0,0.2-0.1,0.2-0.2c0.1-0.1,0.1-0.3,0.2-0.5c0.1-0.4,0.1-0.7,0.1-0.9h-2.2V11.3z M70.6,8.5h-0.9v0.7
		h0.9V8.5z M70.6,9.4h-0.9v0.7h0.9V9.4z M70.6,10.9v-0.7h-0.9v0.7H70.6z M70.1,11.5c0.1,0.1,0.1,0.2,0.2,0.4c0,0.2,0.1,0.3,0,0.4
		c0,0.1,0,0.1-0.1,0.1c0,0-0.1,0-0.1,0c-0.1,0-0.1-0.1-0.1-0.2C70.1,12,70.1,11.8,70.1,11.5L70.1,11.5z M70.7,11.5
		c0.1,0.1,0.2,0.2,0.2,0.3C71,11.9,71,12,71,12.1c0,0.1,0,0.1,0,0.1c0,0-0.1,0.1-0.1,0.1c-0.1,0-0.1-0.1-0.1-0.1
		C70.7,11.9,70.7,11.6,70.7,11.5L70.7,11.5z M71.2,11.4c0.1,0.1,0.2,0.1,0.3,0.2c0.1,0.2,0.2,0.3,0.2,0.4c0,0-0.1,0.1-0.1,0.1
		c-0.1,0-0.2,0-0.2-0.1C71.3,11.7,71.2,11.5,71.2,11.4L71.2,11.4z"/>
	<path d="M76.8,9.3l0.2-0.2l0.3,0.2c0.1,0.1,0.1,0.2,0,0.2c0,0,0,0,0,0v1.8h0.2l0.2-0.3l0.3,0.3l0,0.1h-0.7v1.3c0,0.1,0,0.2-0.1,0.2
		c-0.1,0.1-0.2,0.1-0.4,0.1L76.7,13c0-0.1-0.2-0.1-0.4-0.2l0-0.1c0.3,0.1,0.5,0.1,0.6,0.1c0.1,0,0.1,0,0.1-0.1v-1.2H74V13
		c0,0,0,0.1-0.1,0.1l-0.2,0c0,0-0.1,0-0.1-0.1v-1.6h-0.7l0-0.1h0.8V9l0.4,0.3h1.3V8.5h-2.2l0-0.1h4.1L77.5,8l0.4,0.3l-0.1,0.2h-2.2
		v0.8H76.8z M75.3,9.4H74v0.9h1.3V9.4z M75.3,10.4H74v0.9h1.3V10.4z M75.6,10.3h1.3V9.4h-1.3V10.3z M75.6,11.3h1.3v-0.9h-1.3V11.3z"
		/>
	<path d="M80.3,10.4c0,0.4,0,0.7-0.1,0.9l-0.1,0.4c-0.2,0.6-0.6,1.1-1.2,1.4L78.8,13c0.3-0.2,0.6-0.4,0.8-0.7c0.2-0.4,0.3-1,0.4-1.8
		h-1.3l0-0.1H80l0-0.7V8.9c-0.4,0.1-0.7,0.3-1.1,0.4l0-0.1l0.7-0.2c0.8-0.3,1.2-0.6,1.3-0.8l0.3,0.2c0.1,0,0.1,0.1,0.1,0.1
		c0,0-0.1,0.1-0.1,0l-0.7,0.3v0.8l0,0.7h1.6V8.1l0.4,0.1c0.1,0,0.1,0,0.1,0.1c0,0.1,0,0.1-0.1,0.1c-0.1,0-0.1,0.1-0.1,0.1v1.8h0.5
		l0.3-0.3l0.4,0.3l-0.1,0.1h-1.2V13c0,0,0,0.1-0.1,0.1l-0.2,0c0,0,0,0,0-0.1v-2.7H80.3z"/>
	<path d="M84.5,10.8C84.5,10.9,84.5,10.9,84.5,10.8c0,0.1-0.1,0.2-0.1,0.2c-0.1,0-0.1,0-0.1-0.1l-0.1-0.4l0.5,0
		c0.4-0.5,0.7-1.1,0.9-1.8l0.4,0.2C86,9,86,9,86,9c0,0-0.1,0.1-0.1,0.1c0,0,0,0-0.1,0c-0.3,0.5-0.6,1-0.9,1.4l0.1,0
		c0.3-0.1,0.6-0.1,0.8-0.2c-0.1-0.1-0.1-0.2-0.2-0.3l0.1-0.1c0.1,0.1,0.3,0.2,0.4,0.4c0.1,0.2,0.2,0.3,0.2,0.4c0,0.1,0,0.1,0,0.2
		c0,0-0.1,0.1-0.1,0.1c0,0-0.1,0-0.1,0c0,0-0.1-0.1-0.1-0.1c0-0.1,0-0.3-0.1-0.4l-0.5,0.2v2.5c0,0,0,0,0,0l-0.2,0c0,0,0,0,0,0v-2.4
		L84.5,10.8z M84.4,11.5v-0.2l0.4,0.1c0.1,0,0.1,0.1,0.1,0.1c0,0,0,0.1-0.1,0.1c0,0,0,0,0,0c-0.1,0.5-0.2,0.9-0.5,1.3l-0.1,0
		C84.3,12.5,84.4,12,84.4,11.5L84.4,11.5z M84.9,8.1l0.4,0.1c0,0,0.1,0,0.1,0.1c0,0,0,0.1-0.1,0.1c0,0,0,0-0.1,0
		c-0.1,0.3-0.3,0.6-0.6,0.8h0c0.2,0.1,0.2,0.2,0.3,0.3c0,0.1,0,0.1,0,0.2c0,0.1,0,0.1-0.1,0.1c-0.1,0-0.2,0-0.2-0.1
		c-0.1-0.3-0.3-0.5-0.5-0.7L84.3,9c0.1,0,0.2,0.1,0.3,0.2C84.7,8.9,84.8,8.5,84.9,8.1z M85.6,11.1c0.1,0.1,0.2,0.2,0.3,0.4
		c0.1,0.2,0.1,0.3,0.1,0.4c0,0.1,0,0.1,0,0.1c0,0-0.1,0.1-0.1,0.1c-0.1,0-0.2-0.1-0.2-0.2C85.8,11.6,85.7,11.4,85.6,11.1L85.6,11.1z
		 M86.9,10.1L86.9,10.1c-0.1,1.4-0.5,2.4-1.1,3.1L85.7,13c0.2-0.2,0.3-0.4,0.4-0.7c0.4-0.8,0.6-2,0.6-3.8h-0.6l0-0.1h1.9l0.2-0.2
		l0.2,0.2l0,0.1c0,0-0.1,0.1-0.2,0.2L88,9.9h0.5l0.1-0.1l0.3,0.2C89,10,89,10,89,10.1c0,0-0.1,0.1-0.2,0.1c0,0,0,0,0,0.1
		c-0.2,0.7-0.4,1.2-0.8,1.7c0.3,0.4,0.7,0.6,1.2,0.8v0.1c-0.1,0-0.2,0.1-0.3,0.3c0,0,0,0-0.1,0c-0.4-0.2-0.7-0.5-1-0.9
		c-0.4,0.4-0.9,0.7-1.5,1L86.3,13c0.5-0.3,1-0.6,1.4-1.1C87.4,11.4,87.1,10.8,86.9,10.1L86.9,10.1z M86.9,9.9h0.8L88,8.5h-1
		C87,9,87,9.4,86.9,9.9z M87.8,11.7c0.2-0.3,0.4-0.6,0.5-1c0.1-0.4,0.2-0.6,0.2-0.7h-1.3c0.1,0.4,0.2,0.8,0.4,1.2
		C87.6,11.4,87.7,11.6,87.8,11.7z"/>
</g>
</svg>
