<?xml version="1.0" encoding="utf-8"?>
<!-- Generator: Adobe Illustrator 23.1.0, SVG Export Plug-In . SVG Version: 6.00 Build 0)  -->
<svg version="1.1" id="圖層_1" xmlns="http://www.w3.org/2000/svg" xmlns:xlink="http://www.w3.org/1999/xlink" x="0px" y="0px"
	 viewBox="0 0 500 210" style="enable-background:new 0 0 500 210;" xml:space="preserve">

  <g>
    <g>
      <polygon class="st0 s560" points="60.05,37.61 67.06,25.46 158.9,25.46 204.83,105 158.9,184.54 67.06,184.54 21.14,105 60.05,37.61"/>
      <line class="st0 s132" x1="53.98" y1="50" x2="171.98" y2="50"/>
      <line class="st0" x1="112.98" y1="122" x2="112.98" y2="50"/>
      <path class="st0" d="M88.17,53.72c-16.63,8.61-30.13,12.91-46.76,16.43"/>
      <path class="st0" d="M137.67,53.72c12.72,2.93,40.7,13.11,47.74,17.41"/>
      <path class="st0" d="M103.83,71.33c-8.8,8.41-23.87,17.8-46.57,22.89"/>
      <path class="st0" d="M61.76,74.46c8.02,2.74,28.76,10.57,42.07,19.37"/>
      <polyline class="st0 s240" points="51.06,122.98 51.06,68 174.91,68 174.91,122.98"/>
      <path class="st0" d="M165.85,71.11c-8.8,8.41-23.87,17.8-46.57,22.89"/>
      <path class="st0" d="M123.78,74.24c8.02,2.74,28.76,10.57,42.07,19.37"/>
      <path class="st0" d="M103.83,96.17c-8.8,8.41-23.87,17.8-46.57,22.89"/>
      <path class="st0" d="M61.76,99.3c8.02,2.74,28.76,10.57,42.07,19.37"/>
      <path class="st0" d="M165.85,95.96c-8.8,8.41-23.87,17.8-46.57,22.89"/>
      <path class="st0" d="M123.78,99.09c8.02,2.74,28.76,10.57,42.07,19.37"/>
      <line class="st0 s132" x1="48.61" y1="128.85" x2="177.35" y2="128.85"/>
      <line class="st0 s132" x1="57.91" y1="144.89" x2="168.06" y2="144.89"/>
      <line class="st0 s132" x1="55.27" y1="162.7" x2="170.7" y2="162.7"/>
      <line class="st0" x1="112.98" y1="128.85" x2="112.98" y2="162.3"/>
      <path class="st0" d="M137.87,149.39c13.3,6.85,21.91,11.93,23.09,12.91"/>
    </g>
    <g>
      <line class="st1" x1="270.39" y1="46.43" x2="348.39" y2="46.43"/>
      <path class="st1" d="M292.04,49.74c-6.78,4.43-14.35,10.17-24,13.57"/>
      <line class="st1" x1="308.87" y1="46.35" x2="308.87" y2="93.96"/>
      <path class="st1" d="M324.39,49.61c6.26,2.48,18.91,8.22,25.3,13.3"/>
      <path class="st0 s132" d="M279.52,93.7V60.96c0-1.08,0.88-1.96,1.96-1.96h54.85c1.12,0,2.02,0.91,2.02,2.02v27.96 c0,1.5-1.22,2.72-2.72,2.72h-5.24"/>
      <path class="st1" d="M287.22,65.13c4.7,2.09,11.61,6.39,14.09,8.48"/>
      <path class="st1" d="M300.52,63.57c-4.17,3.78-9,8.22-15.65,11.09"/>
      <path class="st1" d="M288,79.22c5.03,2.41,11.82,7.74,14.48,10.14"/>
      <path class="st1" d="M301.64,77.78c-4.47,4.36-9.64,9.47-16.77,12.78"/>
      <path class="st1" d="M317.22,78.7c5.03,2.41,11.17,6.59,13.83,9"/>
      <path class="st1" d="M330.86,77.26c-4.47,4.36-9.64,9.47-16.77,12.78"/>
      <path class="st1" d="M317.09,65.13c4.7,2.09,11.61,6.39,14.09,8.48"/>
      <path class="st1" d="M330.39,63.57c-4.17,3.78-9,8.22-15.65,11.09"/>
      <line class="st1" x1="272.87" y1="99.04" x2="345.39" y2="99.04"/>
      <line class="st1" x1="278.09" y1="109.74" x2="340.3" y2="109.74"/>
      <line class="st1" x1="266.87" y1="121.74" x2="350.87" y2="121.74"/>
      <line class="st1" x1="308.74" y1="99.17" x2="308.74" y2="121.61"/>
      <path class="st1" d="M322.57,113.26c4.57,1.96,8.48,3.65,10.96,5.22"/>
      <polyline class="st0 s240" points="364.83,125.78 364.83,47.52 436.7,47.52 436.7,125.78"/>
      <line class="st0" x1="436.57" y1="119.3" x2="365.09" y2="119.3"/>
      <line class="st0" x1="378.65" y1="60.17" x2="422.61" y2="60.17"/>
      <line class="st0" x1="400.3" y1="52.48" x2="400.3" y2="70.35"/>
      <line class="st0" x1="372.65" y1="70.22" x2="428.22" y2="70.22"/>
      <rect x="382.7" y="79.18" class="st0 s132" width="35.22" height="11.3"/>
      <path class="st0" d="M398.61,94.48c-6.71,4.94-17.43,11.03-25.04,13.43"/>
      <path class="st0" d="M400.17,91.74c2.35,2.48,7.7,11.48,28.04,18.65"/>
      <path class="st0" d="M424.96,92.39c-4.3,3.39-13.3,9.78-13.3,9.78"/>
      <line class="st0" x1="399.09" y1="113.52" x2="399.09" y2="91.22"/>
    </g>
    <g>
      <line class="st2" x1="228.95" y1="151.35" x2="244.79" y2="151.35"/>
      <line class="st2" x1="236.87" y1="170.33" x2="236.87" y2="151.45"/>
      <line class="st2" x1="248.51" y1="150.47" x2="248.51" y2="170.42"/>
      <line class="st2" x1="260.51" y1="150.47" x2="260.51" y2="170.42"/>
      <line class="st2" x1="248.51" y1="160.45" x2="260.45" y2="160.45"/>
      <polyline class="st3" points="276.78,151.64 266.8,151.64 266.8,169.35 277.37,169.35"/>
      <line class="st2" x1="266.8" y1="160.05" x2="275.71" y2="160.05"/>
      <polyline class="st3" points="351.23,151.64 341.25,151.64 341.25,169.35 351.82,169.35"/>
      <line class="st2" x1="341.25" y1="160.05" x2="350.15" y2="160.05"/>
      <path class="st2" d="M297.33,150.37c0,3.13,0,13.25,0,15.79c0,5.24-7.92,4.46-7.92,0.84"/>
      <polyline class="st2" points="301.92,170.42 310.34,150.37 317.77,170.42"/>
      <line class="st2" x1="304.57" y1="163.97" x2="315.23" y2="163.97"/>
      <polyline class="st2" points="384.29,170.42 392.71,150.37 400.14,170.42"/>
      <line class="st2" x1="386.93" y1="163.97" x2="397.6" y2="163.97"/>
      <path class="st3" d="M324.04,169.25l-1.28,0l0,0v-17.8h4.56c2.22,0,3.85,0.32,4.88,0.97s1.83,1.64,2.41,2.98 c0.58,1.34,0.87,2.96,0.87,4.88c0,1.8-0.26,3.36-0.78,4.68c-0.52,1.32-1.31,2.37-2.37,3.14c-1.06,0.78-2.63,1.16-4.7,1.16 L324.04,169.25"/>
      <polyline class="st2" points="364.97,170.47 364.97,150.61 372.55,167.39 379.83,150.47 379.83,170.33"/>
      <polyline class="st2" points="404.84,170.33 404.84,150.37 417.36,170.42 417.36,150.47"/>
      <polyline class="st2" points="465.59,170.33 465.59,150.37 478.11,170.42 478.11,150.47"/>
      <path class="st2" d="M433.6,153.79c0-2.15-2.64-3.13-4.79-3.13s-4.7,1.47-4.7,4.11c0,6.46,9.88,4.3,9.88,10.66 c0,3.72-3.33,4.4-5.38,4.4s-5.18-0.49-5.18-3.91"/>
      <line class="st2" x1="439.76" y1="150.37" x2="439.76" y2="170.42"/>
      <ellipse class="st2" cx="452.53" cy="160.45" rx="7.09" ry="9.68"/>
    </g>
  </g>
</svg>
