<?xml version="1.0" encoding="utf-8"?>
<!-- Generator: Adobe Illustrator 23.0.3, SVG Export Plug-In . SVG Version: 6.00 Build 0)  -->
<svg version="1.1" id="圖層_1" xmlns="http://www.w3.org/2000/svg" xmlns:xlink="http://www.w3.org/1999/xlink" x="0px" y="0px"
	 viewBox="0 0 20 20" style="enable-background:new 0 0 20 20;" xml:space="preserve">
<style type="text/css">
	.st0{fill:#002E3F;}
	.st1{fill:#1C5572;}
	.st2{fill:#FFFFFF;}
	.st3{fill:#EAEAEB;}
	.st4{fill:#3A918F;}
	.st5{fill:#51AEAF;}
</style>
<g>
	<g>
		<path class="st0" d="M5.6,14.2C4.2,12,4.9,9.1,7.2,7.7L6.5,6.7c-2.8,1.7-3.7,5.4-2,8.2c1.7,2.8,5.4,3.7,8.2,2l-0.7-1.1
			C9.9,17.2,6.9,16.5,5.6,14.2z"/>
		<path class="st1" d="M6.5,6.7l0.7,1.1c2.2-1.4,5.1-0.7,6.5,1.6c1.4,2.2,0.7,5.1-1.6,6.5l0.7,1.1c2.8-1.7,3.7-5.4,2-8.2
			C13,5.8,9.3,4.9,6.5,6.7z"/>
		<path class="st2" d="M12.4,10.1c0.9,1.5,0.5,3.6-1.1,4.5l0.8,1.2c2.2-1.4,2.9-4.3,1.6-6.5c-1.4-2.2-4.3-2.9-6.5-1.6L7.9,9
			C9.5,8,11.5,8.5,12.4,10.1z"/>
		<path class="st3" d="M5.6,14.2c1.4,2.2,4.3,2.9,6.5,1.6l-0.8-1.2c-1.5,0.9-3.6,0.5-4.5-1.1C5.9,11.9,6.4,9.9,7.9,9L7.2,7.7
			C4.9,9.1,4.2,12,5.6,14.2z"/>
		<path class="st0" d="M8.1,12.7c-0.5-0.9-0.3-2,0.6-2.5L7.9,9c-1.5,0.9-2,3-1.1,4.5c0.9,1.5,3,2,4.5,1.1l-0.7-1.2
			C9.7,13.9,8.6,13.6,8.1,12.7z"/>
		<path class="st1" d="M12.4,10.1c-0.9-1.5-3-2-4.5-1.1l0.7,1.2c0.9-0.5,2-0.3,2.5,0.6c0.5,0.9,0.3,2-0.6,2.5l0.7,1.2
			C12.9,13.6,13.4,11.6,12.4,10.1z"/>
		<path class="st2" d="M11.2,10.8c-0.5-0.9-1.7-1.1-2.5-0.6l1.9,3.1C11.4,12.8,11.7,11.7,11.2,10.8z"/>
		<path class="st3" d="M8.1,12.7c0.5,0.9,1.7,1.1,2.5,0.6l-1.9-3.1C7.8,10.7,7.5,11.9,8.1,12.7z"/>
	</g>
	<g>
		<polygon class="st4" points="16.4,3.7 15.3,3.4 14.3,5 15.3,5.3 		"/>
		<polygon class="st5" points="13.8,4.6 14.7,3.1 14,2.2 13,3.8 		"/>
		<polygon class="st5" points="9.2,12.4 15,3.2 14.8,3.1 9.8,10.9 9.6,10.3 		"/>
		<polygon class="st4" points="10.8,11.1 10.3,11.2 15.3,3.4 15,3.2 9.2,12.4 		"/>
	</g>
</g>
</svg>
