<?xml version="1.0" encoding="utf-8"?>
<!-- Generator: Adobe Illustrator 23.0.3, SVG Export Plug-In . SVG Version: 6.00 Build 0)  -->
<svg version="1.1" id="圖層_1" xmlns="http://www.w3.org/2000/svg" xmlns:xlink="http://www.w3.org/1999/xlink" x="0px" y="0px"
	 viewBox="0 0 20 20" style="enable-background:new 0 0 20 20;" xml:space="preserve">
<style type="text/css">
	.st0{fill:#DBA61B;}
	.st1{fill:#FFD400;}
	.st2{fill:#228BC6;}
</style>
<g>
	<g>
		<path class="st0" d="M10,3.2v10.7h1.9c0.2,0,0.4-0.2,0.4-0.4c0-0.2-0.2-0.4-0.4-0.4h-0.7c0,0,0-0.1,0-0.1c0-0.1-0.1-0.2-0.2-0.2
			h-0.5V9.9c0.8-0.2,1.4-0.6,2-1.3c4.5,0,3.1-4.5,3.1-4.6c0-0.1,0-0.1-0.1-0.2c0-0.1-0.1-0.1-0.2-0.1h-1.7c0-0.3,0-0.5,0-0.6H10z
			 M13,8c0.4-0.8,0.8-2,0.8-3c0,0,0-0.4,0-0.7h1.4C15.2,4.7,16.2,7.8,13,8z"/>
	</g>
	<g>
		<g>
			<g>
				<path class="st1" d="M6.2,3.2c0,0,0,0.3,0,0.6H4.6c-0.1,0-0.1,0-0.2,0.1c0,0.1-0.1,0.1-0.1,0.2c0,0-1.4,4.6,3.1,4.6
					c0.5,0.7,1.2,1.2,2,1.3v2.8H9c-0.1,0-0.2,0.1-0.2,0.2c0,0,0,0.1,0,0.1H8.1c-0.2,0-0.4,0.2-0.4,0.4c0,0.2,0.2,0.4,0.4,0.4H10V3.2
					H6.2z M4.9,4.2h1.4c0,0.4,0,0.7,0,0.7c0,1,0.4,2.3,0.8,3C3.8,7.8,4.8,4.7,4.9,4.2z"/>
			</g>
			<rect x="6.9" y="13.6" class="st2" width="6.1" height="2.3"/>
			<rect x="6.7" y="16" class="st2" width="6.7" height="0.9"/>
			<path class="st1" d="M11.8,14.8c0,0.4-0.3,0.7-0.7,0.7H8.9c-0.4,0-0.7-0.3-0.7-0.7l0,0c0-0.4,0.3-0.7,0.7-0.7h2.3
				C11.5,14.1,11.8,14.4,11.8,14.8L11.8,14.8z"/>
		</g>
	</g>
</g>
</svg>
