<?xml version="1.0" encoding="utf-8"?>
<!-- Generator: Adobe Illustrator 23.0.3, SVG Export Plug-In . SVG Version: 6.00 Build 0)  -->
<svg version="1.1" id="圖層_1" xmlns="http://www.w3.org/2000/svg" xmlns:xlink="http://www.w3.org/1999/xlink" x="0px" y="0px"
	 viewBox="0 0 20 20" style="enable-background:new 0 0 20 20;" xml:space="preserve">
<style type="text/css">
	.st0{fill:#D1CEBD;}
	.st1{fill:#E8E6D9;}
	.st2{fill:#C6C2AF;}
	.st3{fill:#AFAA94;}
	.st4{fill:#EFDA48;}
	.st5{fill:#DBC43B;}
	.st6{fill:none;stroke:#444444;stroke-width:0.7698;stroke-miterlimit:10;}
</style>
<g>
	<path class="st0" d="M7.2,5.7C6,5.7,5,6.7,5,7.9v5.5c0,1.2,1,2.2,2.2,2.2h4.3L8.2,5.7H7.2z"/>
	<path class="st1" d="M14,13.3V7.9c0-1.2-1-2.2-2.2-2.2H8.2l3.3,9.8h0.4C13.1,15.5,14,14.5,14,13.3z"/>
</g>
<g>
	<polygon class="st2" points="12.7,7.4 8.8,7.4 9.2,8.5 12.7,8.5 	"/>
	<polygon class="st3" points="6.4,7.4 6.4,8.5 9.2,8.5 8.8,7.4 	"/>
	<polygon class="st3" points="6.4,10.1 6.4,11.1 10.1,11.1 9.7,10.1 	"/>
	<polygon class="st2" points="12.7,10.1 9.7,10.1 10.1,11.1 12.7,11.1 	"/>
	<polygon class="st2" points="12.7,13.8 12.7,12.7 10.6,12.7 10.9,13.8 	"/>
	<polygon class="st3" points="10.6,12.7 6.4,12.7 6.4,13.8 10.9,13.8 	"/>
</g>
<g>
	<path class="st4" d="M16.1,6.8c0-1.5-1.2-2.8-2.8-2.8c-0.2,0-0.5,0-0.7,0.1l1.8,5.3C15.4,8.9,16.1,7.9,16.1,6.8z"/>
	<path class="st5" d="M12.6,4.1c-1.2,0.3-2.1,1.4-2.1,2.7c0,1.5,1.2,2.8,2.8,2.8c0.4,0,0.7-0.1,1-0.2L12.6,4.1z"/>
</g>
<polyline class="st6" points="16.6,4.4 13.1,7.9 11.3,6.2 "/>
</svg>
