<?xml version="1.0" encoding="utf-8"?>
<!-- Generator: Adobe Illustrator 23.0.3, SVG Export Plug-In . SVG Version: 6.00 Build 0)  -->
<svg version="1.1" id="圖層_1" xmlns="http://www.w3.org/2000/svg" xmlns:xlink="http://www.w3.org/1999/xlink" x="0px" y="0px"
	 viewBox="0 0 20 20" style="enable-background:new 0 0 20 20;" xml:space="preserve">
<style type="text/css">
	.st0{fill:#E26C62;}
	.st1{fill:#DA4830;}
	.st2{fill:#DADADB;}
	.st3{fill:#FFFFFF;}
</style>
<g>
	<path class="st0" d="M6.1,13.6c0,0,0,0,0,0.1c0,0,0,0.1,0,0.1c0,0,0,0,0,0.1c0,0,0,0,0,0c-0.1,0.1-0.3,0.3-0.4,0.5
		c-0.1,0.2-0.3,0.3-0.4,0.5c0,0,0,0,0,0c0,0,0,0-0.1,0c0,0-0.1,0-0.1,0c-0.1,0-0.1,0-0.1,0s0,0,0-0.1c0,0,0-0.1,0-0.1c0,0,0,0,0-0.1
		c0,0,0,0,0,0c0.1-0.1,0.3-0.3,0.4-0.5c0.1-0.2,0.3-0.3,0.4-0.5c0,0,0,0,0,0c0,0,0,0,0.1,0c0,0,0.1,0,0.1,0
		C6,13.6,6.1,13.6,6.1,13.6z"/>
	<path class="st0" d="M13.6,16.4c0,0.2-0.2,0.3-0.4,0.3l0,0c-0.2,0-0.3-0.2-0.3-0.4l0.1-0.9c0-0.2,0.2-0.3,0.4-0.3l0,0
		c0.2,0,0.3,0.2,0.3,0.4L13.6,16.4z"/>
	<g>
		<line class="st1" x1="13.3" y1="15.9" x2="12.5" y2="15.8"/>
		
			<rect x="12.5" y="15.4" transform="matrix(0.1156 -0.9933 0.9933 0.1156 -4.3636 26.8065)" class="st0" width="0.7" height="0.8"/>
	</g>
	<g>
		<line class="st1" x1="12" y1="16.3" x2="11.7" y2="18.1"/>
		<path class="st0" d="M12,16.3C12,16.3,12,16.4,12,16.3c0.1,0.1,0.1,0.2,0.1,0.2c0,0,0,0,0,0.1c0,0,0,0,0,0.1
			c0,0.2-0.1,0.4-0.1,0.6c0,0.2-0.1,0.5-0.1,0.6c0,0,0,0,0,0.1c0,0,0,0-0.1,0c0,0-0.1,0.1-0.1,0.1c-0.1,0-0.1,0.1-0.1,0.1
			s0,0-0.1-0.1c0,0,0-0.1-0.1-0.1c0,0,0,0,0-0.1c0,0,0,0,0-0.1c0-0.2,0.1-0.4,0.1-0.6c0-0.2,0.1-0.5,0.1-0.6c0,0,0,0,0-0.1
			c0,0,0,0,0.1,0C11.8,16.4,11.8,16.4,12,16.3C11.9,16.3,12,16.3,12,16.3z"/>
	</g>
	<path class="st0" d="M14.8,11.7c0-0.1-0.1-0.3-0.3-0.2c-0.1,0-0.2,0-0.3,0l0-0.4c0-0.2-0.1-0.3-0.3-0.4c-0.2,0-0.3,0.1-0.4,0.3
		l0,0.4c-2.5-0.1-4.3-1.4-5.2-2.3l0.3-0.3c0.1-0.1,0.1-0.4,0-0.5c-0.1-0.1-0.3-0.1-0.5,0L7.9,8.7C7.7,8.6,7.7,8.5,7.7,8.5
		c-0.1-0.1-0.3-0.1-0.4,0c-0.1,0.1-0.1,0.3,0,0.4c0,0,0.1,0.1,0.2,0.2L7.2,9.4c-0.1,0.1-0.1,0.4,0,0.5c0.1,0.1,0.3,0.1,0.5,0L8,9.6
		c0.6,0.5,1.5,1.3,2.7,1.8c0.8,0.4,1.8,0.6,2.9,0.7l0,0.4c0,0.2,0.1,0.3,0.3,0.4c0.2,0,0.3-0.1,0.4-0.3l0-0.4c0.1,0,0.2,0,0.3,0
		C14.7,11.9,14.8,11.8,14.8,11.7z"/>
	<g>
		<g>
			<path class="st2" d="M6.3,14.3c-0.2,0.3-0.6,0.3-0.8,0.1l0,0c-0.3-0.2-0.3-0.6-0.1-0.8L13.4,3c0.2-0.3,0.6-0.3,0.8-0.1l0,0
				c0.3,0.2,0.3,0.6,0.1,0.8L6.3,14.3z"/>
		</g>
		<g>
			<path class="st2" d="M11.3,16.5c-0.1,0.3,0.2,0.6,0.5,0.7l0,0c0.3,0,0.6-0.2,0.7-0.5l2.1-13.2c0-0.3-0.2-0.6-0.5-0.7l0,0
				c-0.3,0-0.6,0.2-0.7,0.5L11.3,16.5z"/>
		</g>
	</g>
	<path class="st0" d="M14.5,3.4c-0.1,0.3-0.5,0.5-0.8,0.3l0,0c-0.3-0.1-0.4-0.5-0.3-0.8l0.3-0.7c0.1-0.3,0.5-0.5,0.8-0.3l0,0
		c0.3,0.1,0.4,0.5,0.3,0.8L14.5,3.4z"/>
	<path class="st0" d="M15,5.3c-0.4,0.9-1.4,1.3-2.3,0.9c-0.9-0.4-1.3-1.4-0.9-2.3C12.1,3,13.2,2.6,14,3C14.9,3.3,15.4,4.4,15,5.3z"
		/>
	<path class="st3" d="M14.2,4.9C14,5.4,13.5,5.6,13,5.4c-0.5-0.2-0.7-0.8-0.5-1.2c0.2-0.5,0.8-0.7,1.2-0.5
		C14.2,3.9,14.4,4.5,14.2,4.9z"/>
</g>
</svg>
