<?xml version="1.0" encoding="utf-8"?>
<!-- Generator: Adobe Illustrator 23.0.3, SVG Export Plug-In . SVG Version: 6.00 Build 0)  -->
<svg version="1.1" id="圖層_1" xmlns="http://www.w3.org/2000/svg" xmlns:xlink="http://www.w3.org/1999/xlink" x="0px" y="0px"
	 viewBox="0 0 20 20" style="enable-background:new 0 0 20 20;" xml:space="preserve">
<style type="text/css">
	.st0{fill:#F1EEE8;}
	.st1{fill:#DEAA00;}
	.st2{fill:#E9B600;}
	.st3{fill:#009080;}
	.st4{fill:#00A699;}
</style>
<g>
	<path class="st0" d="M7.1,16.9l-0.2,0.4l0,0L7.3,17C7.2,17,7.2,17,7.1,16.9C7.1,16.9,7.1,16.9,7.1,16.9z"/>
	<path class="st0" d="M6.9,16.8l0,0.5l0.2-0.4C7,16.9,7,16.9,6.9,16.8z"/>
	<path class="st1" d="M7.1,16.8l0.6-1.7l-1.1-0.4l0-0.1c0,0,0,0,0,0c-0.3,0.7-0.2,1.8,0.3,2.1l0-0.1L7.1,16.8z"/>
	<path class="st2" d="M7.8,15.1l-0.6,1.7l0.2,0.1L7.3,17c0.6,0,1.3-0.7,1.6-1.4c0,0,0,0,0,0l0,0.1L7.8,15.1z"/>
	<path class="st2" d="M7.1,16.8L7.1,16.8c0,0.1,0,0.1,0,0.1c0.1,0,0.1,0,0.2,0l0.1-0.1L7.1,16.8z"/>
	<path class="st2" d="M7.1,16.8l-0.2-0.1l0,0.1C7,16.9,7,16.9,7.1,16.8L7.1,16.8z"/>
	<path class="st1" d="M11.9,3.8l0.4-1.1c-0.6-0.2-1.3,0-1.5,0.6c0,0,0,0.1,0,0.1l0,0L11.9,3.8z"/>
	<path class="st2" d="M13.1,4.2L13.1,4.2C13.1,4.2,13.1,4.2,13.1,4.2c0.2-0.6-0.1-1.3-0.8-1.5c0,0,0,0,0,0l-0.4,1.1L13.1,4.2z"/>
	<polygon class="st3" points="7.2,13.9 7,13.8 7,13.8 7,13.8 7,13.8 7.2,13.9 8.1,14.2 8.1,14.2 	"/>
	<polygon class="st4" points="9.3,14.6 9,14.5 8.1,14.2 8.1,14.2 9,14.6 9.2,14.7 9.2,14.7 9.3,14.6 	"/>
	<polygon class="st3" points="7,14 6.9,14 6.9,14 6.6,14.7 6.6,14.7 7.8,15.1 8,14.4 	"/>
	<polygon class="st4" points="9.2,14.8 9,14.8 8,14.4 7.8,15.1 8.9,15.6 8.9,15.5 9.2,14.8 	"/>
	<path class="st4" d="M12.7,5l-0.6-0.2l-0.6-0.2l0,0.1l-3.3,9L8.2,14l0.8,0.3l0.4,0.1c0,0,0,0,0,0L12.7,5C12.8,5,12.7,5,12.7,5z"/>
	<path class="st3" d="M10.8,3.4L10.8,3.4l-0.2,0.5c0,0,0,0,0,0l0.1,0l1,0.3l0.2-0.5L10.8,3.4z"/>
	<path class="st4" d="M11.9,3.8l-0.2,0.5l1,0.4l0.1,0c0,0,0,0,0,0l0.2-0.4l0,0L11.9,3.8z"/>
	<path class="st3" d="M11.1,4.4l-0.6-0.2c0,0,0,0,0,0L7,13.6c0,0,0,0,0,0l0.4,0.1L8.2,14l0.1-0.4l3.3-9l0-0.1L11.1,4.4z"/>
	<path class="st1" d="M10.8,3.9l-0.1,0c0,0,0,0,0,0c-0.1,0-0.2,0-0.2,0.1c0,0.1,0,0.2,0.1,0.2c0,0,0,0,0,0l0.6,0.2l0.5,0.2l0.1-0.3
		L10.8,3.9z"/>
	<path class="st2" d="M13,4.7C12.9,4.7,12.9,4.7,13,4.7C12.9,4.7,12.9,4.6,13,4.7l-0.2-0.1l-1-0.4l-0.1,0.3l0.6,0.2L12.7,5
		c0,0,0,0,0,0c0,0,0.1,0,0.1,0l0.3,0.1L12,8.2c-0.2-0.1-0.5,0.1-0.6,0.3c-0.1,0.2,0,0.5,0.2,0.6l0,0l0.2,0.1l1.6-4.3L13,4.7z"/>
	<path class="st2" d="M9.3,14.4C9.3,14.4,9.3,14.4,9.3,14.4l-0.4-0.1L8.2,14l-0.1,0.2L9,14.5l0.3,0.1c0,0,0,0,0,0c0,0,0.1,0,0.1-0.1
		C9.4,14.5,9.4,14.5,9.3,14.4z"/>
	<path class="st1" d="M7.4,13.8L7,13.6c0,0,0,0,0,0c0,0-0.1,0-0.1,0.1c0,0,0,0.1,0,0.1c0,0,0,0,0,0l0.3,0.1l0.9,0.3L8.2,14L7.4,13.8
		z"/>
	<path class="st2" d="M9.2,14.7C9.2,14.7,9.2,14.7,9.2,14.7L9,14.6l-0.9-0.3L8,14.4l1,0.4l0.1,0.1c0,0,0,0,0,0c0,0,0.1,0,0.1-0.1
		C9.3,14.7,9.3,14.7,9.2,14.7z"/>
	<path class="st1" d="M7.2,13.9L7,13.8c0,0,0,0,0,0c0,0-0.1,0-0.1,0.1c0,0,0,0.1,0,0.1c0,0,0,0,0,0L7,14l1,0.4l0.1-0.2L7.2,13.9z"/>
</g>
</svg>
