<?xml version="1.0" encoding="utf-8"?>
<!-- Generator: Adobe Illustrator 23.0.3, SVG Export Plug-In . SVG Version: 6.00 Build 0)  -->
<svg version="1.1" id="圖層_1" xmlns="http://www.w3.org/2000/svg" xmlns:xlink="http://www.w3.org/1999/xlink" x="0px" y="0px"
	 viewBox="0 0 143 48" style="enable-background:new 0 0 143 48;" xml:space="preserve">
<style type="text/css">
	.st0{fill:#717071;}
</style>
<g>
	<path class="st0" d="M11.14,21.2c-0.74,0.79-1.62,1.48-2.73,2.04c-1.48,0.92-2.77,1.57-3.98,1.94c-0.56,0.19-1.02,0.28-1.29,0.28
		c-0.46,0-0.83-0.18-1.11-0.6c-0.28-0.37-0.37-0.88-0.37-1.57c0-0.56,0.46-1.02,1.29-1.34c0.83-0.32,1.53-0.55,1.99-0.74
		c1.02-0.37,2.31-0.92,3.88-1.71c0.56-0.28,1.02-0.46,1.34-0.56c0.28-0.05,0.51-0.09,0.74-0.09c0.46,0,0.74,0.14,0.88,0.42
		c0.05,0.19,0.09,0.42,0.09,0.65C11.88,20.18,11.6,20.6,11.14,21.2z M12.3,28.32c-1.29,3.24-2.77,6.01-4.53,8.23
		c-1.11,1.43-2.04,2.4-2.77,2.87c-0.46,0.09-0.88,0.14-1.2,0.14c-0.88,0-1.39-0.56-1.57-1.57c0-0.42,0.05-0.74,0.23-1.02
		c0.19-0.55,0.6-1.16,1.34-1.8c0.83-0.74,1.53-1.43,2.08-2.04c1.29-1.53,2.87-3.75,4.72-6.71c0.65-0.6,1.16-0.97,1.48-1.06
		c0.56,0.09,0.88,0.42,0.97,0.97C13.04,26.89,12.76,27.53,12.3,28.32z M4.57,10.1c0.05-0.92,0.56-1.48,1.57-1.66l6.47,1.62
		c0.74,0.19,1.15,0.51,1.15,0.97c-0.14,1.11-1.34,1.62-3.56,1.62c-1.11,0-2.63-0.19-4.62-0.65C4.9,11.77,4.57,11.12,4.57,10.1z
		 M28.71,4.97c0.37,1.11,0.56,2.96,0.6,5.6c0,0.28,0,0.56,0,0.79c1.39-0.42,2.91-0.83,4.58-1.3c2.41-0.74,4.12-1.11,5.18-1.11
		c0.28,0,0.51,0.05,0.79,0.09c0.6,0.37,0.92,0.88,0.92,1.57c0,2.54-2.17,5.97-6.52,10.27c-0.56,0.51-1.06,0.97-1.57,1.39
		c-0.56,0.42-1.02,0.6-1.34,0.6c-0.37,0-0.69-0.18-0.97-0.6c-0.23-0.23-0.33-0.51-0.33-0.78c0-0.37,0.23-0.79,0.79-1.16
		c2.22-2.59,4.21-5.23,5.87-7.95c-1.25,0.23-3.79,1.02-7.58,2.36c-0.18,1.71-0.46,3.24-0.74,4.63c-0.56,2.5-1.16,4.76-1.85,6.8
		c-1.39,4.16-3.1,8.05-5.13,11.56c-1.57,2.59-2.87,4.39-3.79,5.5c-0.42,0.37-0.83,0.6-1.25,0.6c-0.46,0-0.83-0.14-1.06-0.42
		c-0.28-0.28-0.37-0.56-0.37-0.92c0-0.37,0.23-0.88,0.74-1.53c3.15-4.67,5.69-9.76,7.72-15.26c0.79-2.13,1.43-4.39,1.99-6.84
		c0.18-0.92,0.32-1.9,0.46-2.91c-0.83,0.32-1.71,0.65-2.64,0.97c-0.55,0.19-1.02,0.28-1.39,0.28c-0.46,0-0.83-0.09-1.11-0.37
		c-0.37-0.37-0.56-0.83-0.6-1.48c0-0.37,0.18-0.65,0.65-0.92c0.37-0.28,0.88-0.56,1.43-0.79c1.06-0.37,2.31-0.78,3.79-1.25
		c-0.05-2.17-0.23-3.98-0.51-5.46c-0.09-0.19-0.14-0.56-0.14-1.11c0-0.79,0.42-1.3,1.15-1.53c0.28-0.09,0.65-0.14,1.11-0.14
		C28.02,4.23,28.39,4.5,28.71,4.97z M19.37,22.86c-0.18,1.11-0.37,2.08-0.6,3.01c-0.14,0.65-0.28,1.11-0.42,1.39
		C18.03,27.72,17.52,28,16.87,28c-0.74-0.09-1.11-0.46-1.11-1.11c0-0.37,0.05-0.93,0.19-1.57c0.14-1.02,0.28-2.17,0.42-3.38
		c0.05-0.88,0.09-1.76,0.09-2.59c0-1.85-0.28-3.33-0.83-4.44c-0.37-0.56-0.51-1.02-0.51-1.3c0-0.65,0.19-1.16,0.56-1.53
		c0.19-0.19,0.55-0.32,1.06-0.37c0.42,0,0.74,0.14,1.02,0.37c0.28,0.32,0.56,0.69,0.83,1.16c0.74,1.39,1.11,3.19,1.11,5.36
		C19.69,19.86,19.56,21.29,19.37,22.86z M41.75,43.86c-1.57,0.88-3.61,1.34-6.2,1.43c-0.83,0-1.62-0.09-2.31-0.18
		c-3.01-0.46-5.04-2.03-6.06-4.81c-0.46-1.34-0.65-2.87-0.65-4.53c0-1.34,0-2.68,0.09-4.02c0.14-2.22,0.28-3.74,0.42-4.62
		c0.23-0.56,0.7-0.88,1.34-0.88c0.83,0,1.29,0.46,1.29,1.29c-0.09,2.5-0.18,4.35-0.23,5.55v3.01c0,2.31,0.65,3.93,1.94,4.99
		c1.11,0.69,2.5,1.06,4.16,1.06c2.4-0.09,4.16-0.56,5.27-1.48c0.46-0.65,0.74-1.43,0.74-2.36c0-0.88-0.09-2.04-0.18-3.42
		c-0.09-0.37-0.09-0.74-0.09-1.11c0.14-0.74,0.65-1.11,1.48-1.11c0.28,0.05,0.51,0.18,0.74,0.46c0.19,0.37,0.32,0.83,0.51,1.43
		c0.32,1.25,0.51,2.54,0.51,3.84C44.53,40.85,43.6,42.66,41.75,43.86z"/>
	<path class="st0" d="M62.18,31.47c-1.8,2.59-3.93,4.81-6.33,6.61c-1.57,1.11-2.87,1.85-3.93,2.22c-0.46,0.09-0.88,0.19-1.2,0.19
		c-0.88,0-1.39-0.56-1.57-1.57c0-0.46,0.05-0.79,0.23-1.06c0.23-0.37,0.83-0.83,1.85-1.39c1.11-0.55,2.08-1.06,2.82-1.57
		c1.76-1.2,3.89-2.96,6.38-5.32c0.65-0.56,1.16-0.88,1.53-0.97c0.56,0.05,0.83,0.32,0.92,0.88C62.87,30.03,62.64,30.68,62.18,31.47z
		 M61.07,21.76c-0.92,0.74-2.13,1.39-3.51,1.94c-1.85,0.88-3.56,1.48-5.09,1.8c-0.6,0.19-1.02,0.28-1.29,0.28
		c-0.46,0-0.83-0.18-1.11-0.6c-0.28-0.37-0.37-0.88-0.37-1.53c0-0.6,0.46-1.06,1.29-1.39c1.11-0.28,1.94-0.51,2.5-0.69
		c1.34-0.37,2.96-0.88,4.85-1.57c0.79-0.28,1.39-0.46,1.8-0.55c0.23-0.05,0.46-0.09,0.69-0.09c0.42,0,0.74,0.14,0.93,0.42
		c0.05,0.23,0.09,0.46,0.09,0.69C61.86,20.74,61.58,21.15,61.07,21.76z M51.91,11.53c0.05-0.78,0.51-1.25,1.34-1.39l9.2,2.4
		c0.74,0.14,1.11,0.42,1.11,0.88c-0.14,0.97-1.2,1.43-3.24,1.43c-1.8,0-4.35-0.55-7.58-1.71C52.19,12.97,51.91,12.41,51.91,11.53z
		 M65.6,31.6c-0.23,0-0.46-0.09-0.7-0.32c-0.42-0.42-0.6-0.88-0.6-1.39c0-0.28,0.14-0.69,0.42-1.25c0.6-1.16,0.92-2.36,0.92-3.61
		c0-0.55,0-1.3,0.05-2.22c0-0.28,0.14-0.56,0.37-0.74c0.32-0.32,0.92-0.51,1.8-0.51c0.19,0,0.37,0.09,0.51,0.19
		c3.19-1.11,6.57-2.17,10.17-3.1c5.23-1.43,8.74-2.17,10.54-2.17h0.65c0.69,0,1.34,0.14,1.9,0.42c0.65,0.42,0.97,1.02,0.97,1.76
		c0,0.92-0.56,2.13-1.62,3.61c-0.78,1.11-1.71,2.27-2.82,3.38c-0.46,0.46-0.92,0.69-1.3,0.69h-0.46c-0.69,0-1.02-0.28-1.02-0.74
		c0-0.23,0.09-0.42,0.28-0.6c1.53-2.4,2.68-4.35,3.47-5.74c-2.4,0-8.69,1.71-18.96,5.09c-0.56,0.19-1.02,0.28-1.29,0.28
		c-0.09,1.2-0.32,2.31-0.65,3.38c-0.42,1.11-0.88,2.08-1.43,2.91C66.43,31.37,66.02,31.6,65.6,31.6z M80.82,12.55
		c0.42-0.83,0.79-1.71,1.16-2.68c0-0.09,0.05-0.19,0.09-0.28c-3.47,0.55-7.54,1.29-12.16,2.22c-0.37,0-0.74-0.28-1.06-0.83
		c-0.18-0.28-0.32-0.56-0.32-0.92c0-0.46,0.28-0.78,0.88-0.97c2.17-0.51,5.83-1.16,10.91-1.89c0.83-0.09,1.62-0.14,2.36-0.23
		c0.05-0.42,0.09-0.79,0.09-1.16c0-0.83-0.88-1.25-2.59-1.3c-1.85,0-4.39,0.09-7.63,0.19c-0.97,0-1.43-0.46-1.43-1.48
		c0-0.83,0.37-1.34,1.16-1.62c2.04-0.19,4.44-0.32,7.26-0.32c2.77,0,4.72,0.69,5.83,1.99c0.42,0.56,0.65,1.3,0.65,2.13
		c0,0.46-0.05,0.88-0.09,1.25c1.3-0.09,2.27-0.14,2.91-0.14c0.28,0,0.6,0.09,0.88,0.28c0.28,0.28,0.42,0.56,0.42,0.92
		c0,0.46-0.18,0.79-0.46,0.97c-1.25,0.09-2.68,0.23-4.26,0.42c-0.18,0.6-0.32,1.16-0.51,1.67c-0.19,0.55-0.42,1.06-0.6,1.53
		c0.09,0.18,0.23,0.32,0.32,0.42c0.09,0.19,0.14,0.37,0.23,0.55c0,0.51-0.19,0.92-0.56,1.2c-1.67,1.06-4.39,2.17-8.28,3.37
		c-1.43,0.37-2.73,0.56-3.93,0.65c-0.55,0-1.02-0.19-1.43-0.6c-0.37-0.37-0.56-0.83-0.56-1.3c0-0.78,0.28-1.25,0.92-1.39
		c1.29-0.09,2.68-0.28,4.21-0.55c1.85-0.37,3.51-0.83,4.99-1.34C80.35,13.01,80.54,12.78,80.82,12.55z M82.67,31.79
		c-0.83,1.76-1.8,3.56-2.96,5.36c-0.23,0.37-0.46,0.65-0.65,0.92c0.37,0.28,0.74,0.56,1.11,0.83c3.24,2.26,6.38,3.93,9.43,5.04
		c0.55,0.18,1.16,0.42,1.71,0.65c0.83,0.37,1.3,0.79,1.3,1.34c-0.09,0.46-0.46,0.79-1.11,0.93c-0.37,0.05-0.92,0.09-1.62,0.09
		c-0.74-0.09-1.62-0.23-2.54-0.51c-1.76-0.46-3.51-1.2-5.36-2.27c-1.67-0.92-3.38-1.99-5.04-3.23c-0.74,0.92-1.48,1.8-2.22,2.54
		c-1.02,1.11-1.99,1.99-2.91,2.68c-0.65,0.42-1.15,0.65-1.62,0.65c-0.37,0-0.65-0.14-0.83-0.37c-0.23-0.18-0.32-0.46-0.32-0.78
		c0-0.33,0.23-0.7,0.69-1.16c0.97-0.83,1.94-1.76,2.96-2.82c0.6-0.74,1.25-1.57,1.99-2.5c-1.48-1.11-2.96-2.36-4.49-3.75
		c-0.37-0.37-0.56-0.74-0.65-1.02c0-0.56,0.18-1.02,0.6-1.43c0.23-0.37,0.6-0.56,1.11-0.56c0.46,0,0.78,0.09,1.02,0.28
		c0.28,0.18,0.65,0.42,1.11,0.74c0.97,0.79,2.04,1.62,3.14,2.54c0.05,0.09,0.09,0.18,0.19,0.18c0.09-0.18,0.23-0.32,0.32-0.46
		c1.9-3.24,3.15-6.06,3.7-8.46c-2.22,0.74-4.62,1.53-7.17,2.4c-0.42,0.28-0.74,0.37-0.97,0.37c-0.37,0-0.65-0.14-0.92-0.51
		c-0.28-0.28-0.37-0.65-0.37-1.11c0-0.46,0.18-0.88,0.56-1.25c0.55-0.37,1.99-0.92,4.3-1.67c2.64-0.83,4.26-1.29,4.9-1.29h0.65
		c0.6,0,1.16,0.28,1.67,0.83c0.46,0.46,0.69,1.11,0.69,1.99C84.05,28.18,83.59,29.75,82.67,31.79z"/>
	<path class="st0" d="M106.28,28.18c-0.56,1.34-1.25,2.91-1.99,4.76c-0.56,1.02-1.02,1.94-1.39,2.73c-0.42,0.92-0.79,1.53-1.16,1.8
		c-0.32,0.23-0.74,0.32-1.2,0.32c-0.65-0.05-1.02-0.46-1.11-1.25c0-0.51,0.09-0.92,0.37-1.3c0.23-0.51,0.51-1.06,0.79-1.66
		c0.55-1.2,1.16-2.54,1.8-4.07c0.42-1.2,0.88-2.54,1.34-4.02c0.56-1.76,0.97-3.42,1.2-4.99c0.19-1.11,0.28-2.17,0.33-3.1
		c-1.02,0.42-1.99,0.79-2.91,1.06c-0.65,0.23-1.11,0.37-1.39,0.42c-0.69,0.09-1.29,0.09-1.8,0.09c-0.88,0-1.39-0.6-1.53-1.9
		c0-0.51,0.42-1.02,1.29-1.48c0.56-0.19,1.2-0.42,2.04-0.65c2.5-0.7,4.95-1.48,7.26-2.36c3.38-1.25,6.01-2.36,7.91-3.28
		c0.46,0,0.79,0.18,0.97,0.56c0.09,0.14,0.14,0.28,0.14,0.46c0,0.46-0.23,0.92-0.65,1.43c-1.02,1.2-3.61,2.64-7.77,4.35
		c-0.09,0.05-0.14,0.05-0.14,0.05c0.05,0.28,0.09,0.51,0.09,0.78c0,0.74-0.05,1.53-0.14,2.27c0.56,0.05,1.16,0.23,1.71,0.51
		c1.02,0.6,1.89,1.29,2.59,2.13c0.6,0.6,1.11,1.39,1.57,2.4c0.46,1.11,0.69,2.31,0.69,3.51c0,3.51-0.74,6.98-2.17,10.31
		c-1.39,2.96-2.96,5.41-4.72,7.4c-0.65,0.51-1.2,0.79-1.67,0.79c-0.6,0-1.16-0.19-1.62-0.46c-0.32-0.37-0.46-0.83-0.46-1.34
		c0-0.28,0.19-0.65,0.6-1.06c2.03-1.9,3.65-4.12,4.95-6.66c1.16-2.59,1.76-5.6,1.76-9.06c0-1.2-0.51-2.31-1.48-3.42
		c-0.65-0.69-1.43-1.29-2.36-1.8C107.53,24.57,106.93,26.52,106.28,28.18z M103.28,6.4c-0.88-0.28-1.3-0.97-1.3-2.08
		c0-0.65,0.7-1.11,2.08-1.34c1.25,0.56,2.87,0.79,4.86,0.79c1.02,0,1.94-0.09,2.77-0.28c0.7,0.65,1.06,1.06,1.06,1.29
		c0,1.3-1.43,2.08-4.3,2.27C106.05,7.05,104.34,6.86,103.28,6.4z M136.34,18.84l-4.62-3.65c-1.43-1.2-2.96-2.59-4.58-4.07
		c-0.18-0.14-0.32-0.28-0.42-0.37c-0.42,0.69-0.88,1.39-1.34,2.03c-1.3,1.99-2.73,4.07-4.26,6.24c-0.83,1.29-1.8,2.82-2.82,4.49
		c-0.51,0.65-0.97,0.92-1.43,0.92c-0.88,0-1.34-0.42-1.43-1.3c0-0.46,0.14-0.88,0.51-1.34c0.51-0.83,1.16-1.9,1.94-3.28
		c0.92-1.67,2.17-3.79,3.75-6.38c1.2-2.13,2.5-4.35,3.88-6.66c0.42-0.79,0.83-1.62,1.2-2.5c0.23-0.37,0.46-0.88,0.69-1.43
		c0.46-0.14,1.11-0.23,1.9-0.23c0.83,0.23,1.25,0.74,1.25,1.48c0,0.6-0.19,1.25-0.56,1.94c-0.28,0.83-0.69,1.76-1.29,2.68
		c-0.09,0.14-0.14,0.23-0.19,0.32c0.28,0.28,0.51,0.51,0.79,0.7c1.39,1.2,3.61,3.05,6.61,5.5c1.57,1.3,2.82,2.31,3.79,3.15
		c0.28,0.28,0.56,0.56,0.83,0.79c0.37,0.46,0.6,0.88,0.65,1.34c0,1.16-0.56,1.71-1.62,1.71c-0.23,0-0.42-0.05-0.6-0.14
		C138.42,20.51,137.54,19.86,136.34,18.84z M127.6,42.56c-1.57-1.11-3.24-2.31-4.9-3.61c-0.14-0.32-0.18-0.74-0.18-1.2
		c0-0.42,0.14-0.83,0.51-1.3c0.18-0.28,0.51-0.46,0.92-0.55c0.28,0,0.51,0.09,0.74,0.18c0.19,0.09,1.76,1.25,4.67,3.51
		c1.71,1.29,3.19,2.5,4.39,3.61c0.37,0.28,0.6,0.65,0.78,1.11c0,0.09,0.05,0.23,0.05,0.42c0,0.32-0.19,0.7-0.51,1.11
		c-0.28,0.19-0.56,0.28-0.79,0.28c-0.28,0-0.6-0.14-1.02-0.37L127.6,42.56z M126.95,28.32c-1.11-0.65-2.27-1.29-3.47-2.04
		c-0.18-0.32-0.23-0.69-0.23-1.16c0-0.46,0.14-0.88,0.51-1.34c0.19-0.28,0.51-0.46,0.92-0.55c0.28,0,0.51,0.05,0.7,0.14
		c0.18,0.05,1.25,0.74,3.28,2.08c1.25,0.74,2.31,1.43,3.14,2.08c0.32,0.32,0.6,0.7,0.79,1.16c0,0.14,0.05,0.28,0.05,0.42
		c0,0.32-0.19,0.69-0.56,1.06c-0.28,0.23-0.51,0.32-0.74,0.32c-0.28,0-0.6-0.14-1.02-0.42L126.95,28.32z"/>
</g>
</svg>
