<?xml version="1.0" encoding="utf-8"?>
<!-- Generator: Adobe Illustrator 23.0.3, SVG Export Plug-In . SVG Version: 6.00 Build 0)  -->
<svg version="1.1" id="圖層_1" xmlns="http://www.w3.org/2000/svg" xmlns:xlink="http://www.w3.org/1999/xlink" x="0px" y="0px"
	 viewBox="0 0 486 48" style="enable-background:new 0 0 486 48;" xml:space="preserve">
<style type="text/css">
	.st0{fill:#717071;}
</style>
<path class="st0" d="M5.85,31.47v8.09c0,1.76-0.05,3.19-0.05,4.3c-0.09,2.03-0.56,3.05-1.39,3.05c-0.83,0-1.34-1.02-1.43-3.01
	c-0.14-1.3-0.19-2.59-0.19-3.98c-0.09-2.87-0.19-6.52-0.37-10.96C2.33,25.92,2.24,22.26,2.1,18.1c-0.05-0.78-0.09-2.36-0.09-4.76
	c0-0.51,0.23-0.97,0.79-1.43c0.32-0.23,0.69-0.37,1.11-0.37c1.02,0,1.57,0.6,1.66,1.71c0,1.02,0.05,2.31,0.09,3.88
	c0,1.67,0.05,3.24,0.09,4.67c0.92,0.69,1.99,1.02,3.1,1.02c0.79,0,1.43-0.42,1.9-1.29c0.46-0.65,0.74-1.39,0.78-2.31
	c0-0.56-1.11-1.39-3.28-2.4c-0.56-0.19-0.97-0.6-1.2-1.2c-0.18-0.37-0.28-0.79-0.28-1.34c0-0.23,0.23-0.74,0.7-1.57
	c0.74-1.25,1.62-2.73,2.64-4.49c0.51-0.88,0.78-1.43,0.78-1.71C10.52,6.31,9.41,6.12,7.6,5.85c-0.83-0.19-1.2-0.79-1.2-1.9
	c0.14-1.11,0.69-1.67,1.67-1.71c1.48,0.05,3.1,0.46,4.85,1.2c0.83,0.6,1.29,1.29,1.29,2.08c-0.09,2.04-1.43,4.95-4.11,8.74
	c0.46,0.14,0.92,0.28,1.48,0.46c1.94,0.83,2.96,2.04,2.96,3.56c0,0.74-0.05,1.39-0.14,1.94c-0.28,1.57-0.79,2.77-1.57,3.7
	c-1.06,1.25-2.4,1.85-3.98,1.85c-1.2,0-2.22-0.37-3.1-1.11C5.75,26.7,5.8,28.97,5.85,31.47z M31,43.35l1.39,0.37
	c0.51,0,1.43-1.67,2.77-4.95c0.79-2.17,1.39-3.98,1.8-5.46c0.65-2.59,0.97-4.35,0.97-5.27c0-1.34-0.56-2.04-1.57-2.13
	c-0.42,0-1.06,0.05-1.89,0.09c-0.05,1.39-0.28,2.87-0.65,4.49c-0.83,2.68-1.8,5.04-2.96,7.17c-0.83,1.39-1.8,3.05-2.91,4.99
	c-0.74,1.11-1.43,2.08-1.99,3.01c-0.65,0.88-1.25,1.48-1.71,1.85c-0.23,0.18-0.55,0.28-0.92,0.28c-0.6-0.09-0.92-0.42-0.97-0.97
	c0-0.46,0.09-0.78,0.37-1.06c0.37-0.56,0.74-1.2,1.2-1.85c0.88-1.3,1.8-2.78,2.73-4.35c0.74-1.3,1.43-2.77,2.13-4.39
	c0.83-1.94,1.43-3.79,1.9-5.55c0.28-1.2,0.46-2.36,0.56-3.37c-0.88,0.09-1.8,0.14-2.77,0.23c-0.05,0.83-0.19,1.66-0.46,2.54
	c-0.55,1.71-1.2,3.28-2.03,4.67c-0.56,0.97-1.25,2.08-2.04,3.28c-0.51,0.74-0.97,1.39-1.43,1.94c-0.46,0.56-0.83,0.92-1.15,1.2
	c-0.23,0.18-0.56,0.32-0.97,0.32c-0.56-0.09-0.83-0.42-0.88-0.97c0-0.46,0.09-0.79,0.32-1.11c0.19-0.37,0.46-0.74,0.79-1.16
	c0.6-0.83,1.2-1.76,1.8-2.77c0.46-0.83,0.97-1.76,1.48-2.82c0.55-1.2,0.97-2.36,1.25-3.47c0.09-0.46,0.19-0.92,0.23-1.39
	c-0.55,0.09-1.06,0.14-1.57,0.14c-0.32,0.05-0.6,0.05-0.83,0.05c-0.19,0.28-0.32,0.51-0.51,0.7c-0.6,0.83-1.34,1.85-2.26,2.96
	c-0.56,0.6-1.06,1.15-1.53,1.66c-0.46,0.56-0.93,0.92-1.34,1.11c-0.28,0.23-0.6,0.32-1.02,0.32c-0.6-0.05-0.93-0.42-0.97-1.06
	c0-0.46,0.09-0.83,0.32-1.15c0.23-0.28,0.56-0.6,0.92-0.97c0.65-0.74,1.3-1.53,1.99-2.45c0.51-0.74,1.02-1.57,1.57-2.5
	c0.65-1.06,1.11-2.08,1.43-3.05c0.05-0.23,0.09-0.42,0.14-0.6c-0.37,0.09-0.74,0.19-1.06,0.23c-0.88,0.23-1.48,0.37-1.85,0.42
	c-0.69,0.09-1.29,0.14-1.8,0.14c-0.88,0-1.39-0.65-1.53-1.9c0-0.55,0.42-1.06,1.34-1.53c0.51-0.18,1.16-0.37,1.99-0.6
	c3.47-0.74,6.89-1.53,10.27-2.4c4.76-1.2,8.46-2.27,11.1-3.24c0.42,0,0.74,0.19,0.92,0.46c0.05,0.14,0.09,0.28,0.09,0.46
	c0,0.46-0.23,0.88-0.65,1.3c-1.39,1.25-4.95,2.73-10.77,4.44c-1.53,0.46-3.01,0.88-4.39,1.25c-0.05,0.79-0.23,1.62-0.55,2.54
	c1.11-0.09,2.5-0.18,4.21-0.28c3.93-0.19,6.52-0.33,7.72-0.33c1.25,0,2.22,0.23,2.91,0.65c0.88,0.6,1.39,1.43,1.57,2.45
	c0,1.39-0.09,2.5-0.19,3.42c-0.32,2.64-0.79,5.09-1.43,7.31c-0.51,1.9-1.06,3.51-1.62,4.9c-0.7,1.71-1.43,3.1-2.27,4.16
	c-0.83,1.02-1.94,1.57-3.42,1.57c-1.16-0.19-1.99-0.56-2.45-1.11c-0.46-0.32-0.74-0.74-0.74-1.25C29.11,43.91,29.71,43.35,31,43.35z
	 M28,13.76c-2.08,0.69-4.07,1.2-5.97,1.57c-0.23,0.19-0.42,0.23-0.51,0.23c-0.28,0-0.56-0.14-0.83-0.51
	c-0.18-0.28-0.28-0.69-0.28-1.25c0-0.37,0.23-0.65,0.7-0.83c0.14-0.05,0.28-0.09,0.37-0.14c-0.05-0.05-0.05-0.09-0.05-0.19
	c-0.09-1.16-0.37-2.54-0.83-4.21C19.86,5.98,19.21,4,18.66,2.42c0.05-0.32,0.23-0.65,0.51-1.02c0.32-0.37,0.7-0.6,1.06-0.6
	c0.37,0,0.69,0.05,0.97,0.09c0.28,0.19,0.51,0.37,0.69,0.56c0.83-0.28,1.81-0.56,2.87-0.79c1.48-0.28,3.05-0.42,4.67-0.42
	c1.34,0,2.54,0.28,3.56,0.79c0.83,0.37,1.48,1.02,1.85,1.85c0.28,0.65,0.46,1.39,0.46,2.17c-0.09,1.11-0.37,2.22-0.83,3.28
	c-0.46,0.97-1.02,1.9-1.71,2.78c-0.09,0.28-0.18,0.51-0.37,0.74c-0.23,0.09-0.42,0.19-0.6,0.28c-0.37,0.32-0.69,0.51-0.97,0.51
	C29.94,13.01,29.01,13.38,28,13.76z M31.84,4.69c0-0.97-0.69-1.48-1.99-1.48c-2.13,0-4.39,0.46-6.89,1.29
	c0.09,0.6,0.23,1.25,0.42,1.99c0.05,0.28,0.09,0.51,0.14,0.65c1.53-0.42,3.79-0.92,6.84-1.48c0.56-0.09,1.06-0.14,1.43-0.18
	C31.79,5.2,31.84,4.92,31.84,4.69z M24.21,12.23h0.09c1.99-0.46,3.84-0.97,5.5-1.53c0.14-0.05,0.28-0.09,0.42-0.14
	c0.55-1.11,0.97-2.13,1.2-3.15c-1.57,0.42-3.56,0.92-5.92,1.48c-0.65,0.19-1.2,0.32-1.62,0.42c0.19,1.2,0.32,2.08,0.32,2.59V12.23z"
	/>
<path class="st0" d="M75.11,18.47c-0.28,0.28-0.51,0.56-0.78,0.78c4.62-1.2,8.32-2.26,11.14-3.28c0.46,0,0.74,0.19,0.92,0.56
	c0.09,0.19,0.14,0.32,0.14,0.46c0,0.46-0.23,0.97-0.65,1.43c-2.03,1.57-7.12,3.42-15.35,5.55c0,0.28-0.05,0.6-0.09,0.88h0.09
	c0.51,0.05,1.02,0.37,1.57,1.02c0.65,1.02,1.02,2.59,1.02,4.67v3.42c0,3.79,1.02,6.47,3.1,8.23c1.48,1.2,3.19,1.85,5.09,1.85
	c2.04-0.09,3.75-0.74,5.09-2.04c0.74-0.88,1.16-1.94,1.16-3.14c0-0.65-0.09-1.53-0.18-2.64c0-0.28,0-0.51,0.05-0.7
	c0.18-0.51,0.51-0.78,0.97-0.88c0.92,0,1.57,0.56,1.85,1.67c0.14,0.97,0.23,2.13,0.23,3.51c-0.05,1.39-0.42,2.59-1.06,3.61
	c-0.92,1.39-2.54,2.5-4.76,3.24c-1.29,0.42-2.82,0.65-4.58,0.65c-1.94,0-3.56-0.37-4.9-1.11c-1.76-1.02-3.14-2.68-4.16-4.95
	c-0.65-1.76-1.11-3.84-1.29-6.34c-0.09-1.25-0.14-2.73-0.14-4.39c-0.09-0.83-0.14-1.66-0.14-2.54c-0.05,0.09-0.09,0.18-0.09,0.28
	c-0.74,2.13-2.13,4.85-4.07,8.28c-1.16,2.04-2.22,3.84-3.19,5.5c-0.69,1.11-1.39,2.27-2.04,3.38c-0.78,1.02-1.39,1.8-1.85,2.31
	c-0.46,0.32-0.92,0.51-1.39,0.51c-0.37-0.18-0.51-0.42-0.51-0.74c0-0.28,0.09-0.7,0.28-1.16c0.09-0.55,0.37-1.2,0.83-1.94
	c0.56-1.16,1.3-2.54,2.27-4.21c1.39-2.31,2.77-4.85,4.16-7.54c0.83-1.67,1.57-3.38,2.27-5.13c0.37-0.92,0.65-1.85,0.88-2.68
	c-3.33,0.79-6.52,1.53-9.53,2.22c-1.25,0.28-2.13,0.42-2.68,0.46c-0.65,0.09-1.25,0.14-1.8,0.14c-0.88,0-1.39-0.65-1.53-1.9
	c0-0.51,0.42-1.02,1.34-1.48c0.51-0.18,1.16-0.42,1.99-0.65c4.44-0.83,8.79-1.76,12.95-2.77c0.88-0.51,1.71-1.11,2.54-1.8
	c2.04-1.67,3.65-3.61,4.76-5.92c0.65-1.48,1.02-2.73,1.02-3.65c0-0.65-0.09-1.2-0.28-1.66c-0.09-0.6-0.09-1.06-0.09-1.34
	c0-1.16,0.46-1.85,1.43-2.04h0.42c0.32,0.05,0.6,0.19,0.88,0.42c0.6,0.46,0.92,1.29,0.97,2.5v1.06
	C79.36,12.18,77.93,15.51,75.11,18.47z M64.89,19.21c-1.02-0.09-2.22-0.88-3.56-2.36c-0.56-0.69-1.2-1.53-1.94-2.54
	c-0.46-0.65-0.88-1.34-1.2-2.04c-0.09-0.19-0.14-0.51-0.14-0.97c0-0.46,0.14-0.83,0.46-1.15c0.32-0.37,0.79-0.6,1.39-0.6
	c0.28,0,0.55,0.05,0.78,0.09c0.28,0.18,0.7,0.65,1.3,1.34c0.42,0.65,0.88,1.34,1.34,2.17c0.42,0.83,0.83,1.57,1.25,2.17
	c0.28,0.6,0.65,1.02,1.06,1.29c0.19,0.19,0.42,0.32,0.65,0.42c0.19,0.14,0.32,0.46,0.32,0.92c-0.05,0.74-0.46,1.16-1.2,1.25H64.89z
	 M69.74,1.96c0.28,1.43,0.46,3.19,0.6,5.32c0.09,1.8,0.14,3.19,0.14,4.12c0,1.29-0.09,2.54-0.19,3.65
	c-0.09,1.25-0.28,2.17-0.46,2.77c-0.28,1.06-0.78,1.57-1.53,1.57c-0.88,0-1.29-0.42-1.29-1.25c0.05-0.46,0.19-1.06,0.37-1.9
	c0.05-1.34,0.09-2.45,0.09-3.38c0-1.57-0.18-3.65-0.55-6.34c-0.19-0.97-0.33-1.9-0.42-2.77c-0.28-0.74-0.37-1.2-0.37-1.48
	c0-0.56,0.23-1.02,0.79-1.43c0.37-0.19,0.78-0.32,1.29-0.32C68.91,0.53,69.42,1.04,69.74,1.96z"/>
<path class="st0" d="M136.27,38.63c-0.18,0.92-0.46,1.85-0.74,2.73c3.05-0.37,5.83-0.51,8.32-0.51c3.61,0,6.33,0.19,8.23,0.6
	c1.06,0.23,1.62,0.74,1.62,1.53c0,0.93-0.51,1.48-1.48,1.67c-0.65-0.09-1.76-0.23-3.28-0.42c-1.34-0.14-3.15-0.19-5.46-0.19
	c-3.84,0-8,0.42-12.53,1.25c-3.93,0.74-7.44,1.67-10.5,2.78c-0.56,0-0.92,0.05-1.16,0.05c-0.42,0-0.79-0.19-1.11-0.56
	c-0.32-0.37-0.51-0.79-0.56-1.2c0-0.88,0.56-1.48,1.71-1.8c2.22-0.83,4.81-1.48,7.72-2.04c1.85-0.42,3.61-0.69,5.27-0.83
	c0-0.19,0.05-0.37,0.14-0.56c0.28-1.11,0.51-2.22,0.69-3.42c0.14-0.92,0.23-1.76,0.23-2.59c0-1.25-0.14-2.27-0.37-3.05
	c-0.09-0.09-0.09-0.19-0.09-0.28c-1.39,0.46-2.64,0.92-3.84,1.29c-0.65,0.19-1.06,0.28-1.29,0.32c-0.74,0.14-1.34,0.19-1.85,0.19
	c-0.88-0.05-1.39-0.7-1.53-1.99c0-0.51,0.46-1.02,1.39-1.48c0.46-0.19,1.16-0.37,1.99-0.65c2.4-0.65,4.81-1.34,7.12-2.13
	c3.33-1.11,5.87-2.13,7.72-2.96c0.51,0,0.88,0.23,1.11,0.65c0.05,0.14,0.09,0.32,0.09,0.51c0,0.51-0.28,1.02-0.74,1.57
	c-0.92,1.02-3.19,2.22-6.84,3.51c0.05,0.09,0.09,0.18,0.19,0.23c0.19,0.92,0.32,2.08,0.32,3.47
	C136.78,35.58,136.59,37.01,136.27,38.63z M129.33,17.22c-0.05,0.74-0.37,1.67-0.97,2.87c-1.11,2.64-2.96,5.97-5.46,9.99
	c-0.69,1.2-1.34,2.04-1.99,2.59c-0.28,0.14-0.55,0.18-0.92,0.18c-0.74-0.05-1.11-0.46-1.11-1.25c0-0.19,0.09-0.51,0.37-0.88
	c0.65-1.57,1.89-3.84,3.65-6.8c1.48-2.87,2.73-5.32,3.65-7.31c0.46-0.46,0.88-0.74,1.29-0.74
	C128.78,15.88,129.24,16.34,129.33,17.22z M125.03,10.1c3.1-1.25,7.68-2.77,13.69-4.53c2.87-0.92,4.85-1.43,6.06-1.43
	c0.37,0,0.65,0.05,0.92,0.14c0.7,0.28,1.06,0.78,1.06,1.53c0,2.13-1.9,4.99-5.64,8.65c-0.46,0.46-0.88,0.83-1.34,1.2
	c-0.56,0.42-0.97,0.6-1.34,0.6c-0.42,0-0.74-0.18-0.92-0.6c-0.23-0.28-0.33-0.51-0.33-0.79c0-0.37,0.23-0.78,0.7-1.15
	c1.57-1.94,2.96-3.98,4.16-6.06c-2.08,0.46-7.4,2.45-15.95,5.87c-0.51,0.28-0.92,0.42-1.29,0.42c-0.05,0.83-0.14,1.76-0.33,2.78
	c-0.18,0.78-0.37,1.57-0.65,2.31c-0.18,0.46-0.37,0.83-0.56,1.11c-0.32,0.46-0.83,0.7-1.48,0.7c-0.74-0.05-1.06-0.42-1.06-1.16
	c0-0.28,0.05-0.6,0.18-1.06c0.19-0.83,0.33-1.67,0.46-2.59c0.05-0.65,0.09-1.29,0.09-1.94c0-1.25-0.18-2.27-0.51-3.05
	c-0.23-0.32-0.32-0.6-0.32-0.83c0-0.7,0.18-1.2,0.6-1.57c0.23-0.18,0.6-0.32,1.06-0.37c0.46,0,0.83,0.14,1.11,0.37
	c0.32,0.28,0.6,0.7,0.83,1.25c0.05,0.18,0.09,0.32,0.18,0.46C124.62,10.29,124.8,10.19,125.03,10.1z M131.14,1.13
	c0.79,0.23,1.62,0.51,2.5,0.83c1.02,0.37,1.67,0.65,2.04,0.88c0.19,0.46,0.32,0.97,0.32,1.57c-0.09,0.6-0.32,1.02-0.69,1.2h-0.28
	c-0.19,0-0.51-0.05-0.92-0.14c-1.48-0.37-2.68-0.65-3.65-0.88c-1.02-0.14-1.94-0.32-2.82-0.56c-0.65-0.23-0.97-0.88-0.97-1.94
	c0.18-0.92,0.83-1.39,1.9-1.48C129.1,0.62,129.98,0.81,131.14,1.13z M143.62,19.58c1.62,1.11,3.56,2.27,5.83,3.47
	c0.79,0.37,1.66,0.74,2.59,1.02c0.28,0.23,0.46,0.55,0.46,0.92c-0.09,0.65-0.42,1.06-1.02,1.29c-0.19,0.09-0.42,0.09-0.65,0.09
	c-0.46,0-0.88-0.05-1.3-0.14c-1.2-0.28-2.77-0.88-4.72-1.8c-0.69-0.32-2.31-1.25-4.85-2.73c-1.71-0.88-3.28-1.76-4.67-2.64
	c-0.32-0.28-0.46-0.7-0.46-1.2c0-0.56,0.23-1.02,0.7-1.34c0.28-0.19,0.65-0.28,1.16-0.28c0.28,0.05,0.6,0.09,0.97,0.19
	C138.67,16.76,140.66,17.82,143.62,19.58z"/>
<path class="st0" d="M187.63,30.17c-0.97,1.11-3.28,2.4-6.98,3.84v1.34c0,1.99-0.09,3.84-0.23,5.6c-0.09,1.94-0.32,3.42-0.65,4.35
	c-0.23,1.02-0.74,1.57-1.53,1.57c-0.88,0-1.29-0.42-1.29-1.25c0.14-0.78,0.32-1.85,0.56-3.19c0.09-2.08,0.18-3.7,0.18-4.99
	c-0.18,0.23-0.42,0.46-0.6,0.69c-1.76,2.17-3.93,4.44-6.61,6.75c-0.69,0.56-1.34,1.06-1.9,1.48c-0.46,0.37-0.88,0.6-1.29,0.6
	c-0.65-0.05-1.02-0.42-1.06-1.06c0-0.55,0.19-1.02,0.6-1.43c2.68-2.03,5.5-4.85,8.46-8.46c-0.79,0.32-1.57,0.6-2.31,0.83
	c-0.65,0.18-1.06,0.28-1.34,0.32c-0.65,0.14-1.16,0.18-1.62,0.18c-0.83-0.05-1.34-0.6-1.43-1.71c0-0.51,0.42-0.97,1.25-1.39
	c0.42-0.19,1.02-0.37,1.8-0.6c2.04-0.55,4.02-1.2,5.97-1.85c-0.05-1.11-0.09-2.27-0.09-3.47c-0.09-1.34-0.14-2.64-0.19-3.84
	c-0.19-0.65-0.28-1.11-0.28-1.34c0-0.51,0.23-0.97,0.74-1.34c0.32-0.23,0.69-0.37,1.15-0.37c0.7,0,1.2,0.46,1.48,1.34
	c0.09,1.9,0.14,4.21,0.19,6.89c1.2-1.39,2.08-2.82,2.54-4.35c0.18-0.6,0.32-1.16,0.32-1.67v-0.79c0.23-0.6,0.65-0.92,1.29-1.02
	c1.11,0,1.76,0.69,1.85,1.99v0.51c-0.18,1.76-1.43,3.61-3.79,5.55c1.76-0.69,3.24-1.34,4.44-1.9c0.37,0,0.69,0.18,0.92,0.46
	c0.05,0.14,0.09,0.28,0.09,0.46C188.28,29.29,188.05,29.71,187.63,30.17z M168.35,19.67c0.56-0.14,1.2-0.28,1.85-0.42
	c3.61-0.83,7.03-1.71,10.31-2.73c4.49-1.39,8.46-3.01,11.93-4.76c1.29,0,1.99,0.37,2.08,1.06c-0.88,1.48-1.67,3.98-2.4,7.44
	c-0.19,1.53-0.28,3.19-0.28,4.95c0.19,8.33,3.01,14.06,8.46,17.34c0.23-0.46,0.51-1.71,0.88-3.7c0.05-0.93,0.55-1.43,1.48-1.43
	c0.69,0.09,1.16,0.46,1.39,1.2c0,1.29-0.23,2.77-0.6,4.44c-0.56,2.68-1.34,4.07-2.36,4.07c-1.39-0.05-3.1-1.02-5.13-2.87
	c-2.4-2.36-4.3-5.36-5.69-9.11c-1.11-2.96-1.67-6.33-1.67-10.13c0-1.34,0.09-2.64,0.32-3.88c0.23-2.03,0.6-3.79,1.06-5.23
	c-5.04,2.4-11.24,4.53-18.64,6.43c-1.02,0.28-1.9,0.46-2.64,0.51c-0.69-0.09-1.11-0.55-1.29-1.48
	C167.42,20.6,167.7,20.04,168.35,19.67z M175.01,31.37c-0.18,0.19-0.42,0.23-0.69,0.23c-0.32,0-0.6-0.05-0.79-0.14
	c-0.23-0.09-0.46-0.33-0.74-0.6c-1.39-1.34-2.27-2.5-2.73-3.51c-0.05-0.09-0.05-0.19-0.05-0.28c0-0.28,0.14-0.6,0.32-0.88
	c0.09-0.23,0.37-0.46,0.79-0.65c0.19-0.05,0.46-0.09,0.74-0.09c0.46,0.05,0.88,0.37,1.25,0.92c0.37,0.7,0.78,1.39,1.25,2.13
	c0.46,0.92,0.79,1.53,0.97,1.85v0.32C175.33,30.96,175.19,31.19,175.01,31.37z M187.58,10.47c-0.83,0.74-2.96,1.66-6.29,2.73
	c-1.94,0.56-3.7,1.06-5.27,1.53c-0.56,0.14-0.93,0.23-1.11,0.23c-0.6,0.09-1.16,0.09-1.67,0.09c-0.83,0-1.34-0.6-1.43-1.76
	c0-0.46,0.42-0.92,1.25-1.39c0.51-0.18,1.11-0.37,1.85-0.6c2.04-0.37,3.98-0.83,5.92-1.29c2.68-0.69,4.81-1.29,6.38-1.8
	c0.42,0,0.74,0.19,0.97,0.46c0.05,0.09,0.09,0.23,0.09,0.42C188.28,9.55,188.05,10.01,187.58,10.47z M184.3,6.03
	c-3.1,1.02-5.6,1.62-7.49,1.8h-0.6c-0.69,0-1.2-0.09-1.48-0.37c-0.6-0.37-0.88-0.97-0.88-1.76c0-0.55,0.05-1.2,0.23-1.99
	c0.19-0.6,0.42-1.16,0.69-1.71c0.23-0.83,0.74-1.25,1.48-1.34h0.28c1.02,0.19,1.53,0.74,1.53,1.71c-0.55,1.06-0.78,1.76-0.78,2.08
	c0.69,0,2.36-0.32,4.99-0.97c1.39-0.32,2.82-0.74,4.3-1.29c0.83-0.28,1.43-0.42,1.71-0.42c0.6,0.14,0.92,0.51,1.02,1.06
	c0,0.46-0.14,0.88-0.42,1.16C187.81,4.74,186.29,5.38,184.3,6.03z M183.42,34.98c0.23,0.09,0.46,0.19,0.65,0.28
	c1.29,0.7,3.28,2.5,5.96,5.46c0.65,0.74,1.02,1.43,1.11,1.99c0,0.88-0.37,1.34-1.11,1.34c-0.37,0-0.79-0.23-1.25-0.69
	c-0.56-0.46-1.3-1.11-2.22-1.9c-1.48-1.43-3.1-2.73-4.85-3.93c-0.19-0.23-0.23-0.46-0.23-0.74v-0.42c0.05-0.37,0.23-0.74,0.6-1.06
	c0.19-0.18,0.46-0.28,0.79-0.37C183.05,34.93,183.24,34.98,183.42,34.98z"/>
<path class="st0" d="M239.17,27.26c2.36-2.36,4.76-4.62,7.26-6.75c0.09-0.09,0.14-0.14,0.23-0.23c-0.09-2.08-0.23-4.12-0.37-6.06
	c-0.18-1.94-0.42-3.84-0.78-5.73c-0.23-0.69-0.32-1.25-0.32-1.67c0.18-1.06,0.88-1.62,1.99-1.62c0.79,0.09,1.39,0.6,1.76,1.62
	c0.19,0.74,0.42,1.57,0.6,2.5c0.19,2.26,0.28,4.99,0.37,8.23c2.82-2.31,5.78-4.39,8.83-6.33c0.33-0.19,0.51-0.28,0.6-0.28h0.05
	c0.1,0,0.19-0.05,0.28-0.09c0.46,0,0.88,0.37,1.34,1.06c0.28,0.46,0.46,1.06,0.46,1.76c-0.18,1.43-0.28,2.91-0.28,4.49
	c0,2.87,0.37,4.99,1.16,6.38c0.56,0.88,1.25,1.85,2.13,2.96c0.74,0.92,1.39,1.76,1.94,2.4c0.56,0.74,0.83,1.57,0.83,2.5
	c0,0.65-0.23,1.39-0.65,2.13c-1.16,1.94-2.41,3.56-3.75,4.95c-0.6,0.65-1.06,1.11-1.34,1.29c-0.46,0.28-0.83,0.42-1.11,0.42
	c-0.6-0.09-0.88-0.51-0.88-1.25c0-0.18,0.23-0.51,0.65-0.92c1.66-2.13,2.77-3.65,3.33-4.58c0.28-0.6,0.46-1.16,0.46-1.67
	c0-0.6-0.42-1.34-1.2-2.27c-0.74-0.74-1.48-1.53-2.13-2.4c-0.92-1.11-1.62-2.54-2.03-4.3c-0.42-1.57-0.6-3.42-0.6-5.55
	c0-0.92,0-1.9,0.05-2.96c-1.99,1.39-4.16,3.05-6.47,4.9c-0.56,0.46-1.11,0.88-1.62,1.34c0,0.37,0,0.69,0,1.02
	c0,10.36-0.05,17.06-0.09,20.12c-0.09,1.34-0.6,2.04-1.53,2.04c-1.85,0-3.42-0.92-4.72-2.73c-0.18-0.28-0.32-0.56-0.42-0.83
	c0-0.97,0.37-1.48,1.16-1.53c0.83,0.23,1.76,0.65,2.73,1.2c0-2.04-0.05-4.16-0.09-6.43c0-3.51-0.09-6.89-0.19-10.13
	c-3.56,3.19-7.35,6.98-11.33,11.38c-0.28,0.23-0.6,0.37-0.97,0.37c-0.56-0.19-1.02-0.46-1.39-0.92c-0.23-0.19-0.32-0.46-0.32-0.74
	c0-0.37,0.14-0.97,0.46-1.8c0.83-2.5,1.34-4.21,1.48-5.04c0-1.71-0.46-2.59-1.34-2.59c-0.19,0-0.51,0.14-1.02,0.37
	c-0.42,0.37-0.74,0.51-1.02,0.51c-0.28,0-0.56-0.09-0.79-0.32c-0.23-0.23-0.37-0.56-0.37-0.97c0-0.51,0.19-0.97,0.6-1.39
	c0.65-0.46,1.25-0.88,1.9-1.2c0.83-0.37,1.48-0.6,1.94-0.6c1.25,0,2.17,0.74,2.82,2.22c0.28,1.02,0.46,1.99,0.51,3.01
	c0,0.83-0.05,1.57-0.14,2.26C238.25,28.32,238.71,27.81,239.17,27.26z"/>
<path class="st0" d="M302.88,14.68c1.57,0,2.77,0.32,3.7,0.88c1.39,0.92,2.17,2.77,2.36,5.55l0.6,16.65l0.23,2.82
	c0,0.88-0.83,1.34-2.4,1.43c-1.29,0-2.78-0.42-4.44-1.16c-0.93,0.28-2.08,0.6-3.47,0.97c-0.69,0.09-1.34,0.14-1.95,0.18
	c-0.05,0.23-0.14,0.42-0.23,0.6c-0.37,0.32-0.74,0.51-1.11,0.51c-0.37,0-0.69-0.14-0.92-0.37c-0.23-0.28-0.37-0.74-0.46-1.34
	c-0.09-1.57-0.09-3.75-0.09-6.52c0-3.01,0-5.73,0.09-8.14c0.05-2.5,0.14-5.18,0.23-8.05c0-1.39,0.05-2.96,0.05-4.62
	c-0.05-0.28-0.09-0.56-0.14-0.92c-0.05-0.09-0.05-0.23-0.05-0.42c-0.18,0.09-0.32,0.09-0.42,0.09c-0.97,0-1.43-0.6-1.43-1.85
	c0-0.88,0.46-1.39,1.39-1.53c1.02,0,4.02-0.92,9.11-2.82c0.88,0,1.39,0.23,1.48,0.65c0,0.28-0.05,0.51-0.05,0.74
	c-0.18,0.42-0.42,0.7-0.78,0.88c-0.79,0.74-1.85,1.39-3.15,1.94c-1.06,0.46-2.08,0.88-3.05,1.16c0.28,0.55,0.42,1.2,0.42,1.99
	c0,0.46-0.05,0.97-0.05,1.53C300.15,15,301.68,14.73,302.88,14.68z M306.34,38.91c0-3.79-0.05-7.26-0.09-10.4
	c-0.46,0.18-0.88,0.37-1.34,0.46c-2.4,0.79-4.85,1.48-7.35,2.13c0,1.11-0.05,2.4-0.05,3.88c0,1.39,0.05,2.73,0.05,4.02
	c0.37,0,0.78-0.05,1.16-0.14c1.85-0.28,3.46-0.7,4.85-1.16c0.18,0,0.32-0.05,0.51-0.05c0.46,0,0.83,0.23,1.01,0.6
	c0.09,0.23,0.14,0.46,0.23,0.65c0,0.09-0.05,0.18-0.05,0.28C305.65,39.05,306.02,39,306.34,38.91z M305.93,20.97
	c-0.28-2.13-1.53-3.24-3.75-3.24c-0.46,0-1.29,0.19-2.45,0.55c-0.56,0.28-1.06,0.46-1.57,0.65c-0.05,0.46-0.1,0.88-0.1,1.3
	c-0.28,3.14-0.41,5.55-0.46,7.21v0.6c2.96-0.65,5.55-1.34,7.68-2.08c0.32-0.09,0.6-0.14,0.88-0.23
	C306.07,24.02,306.02,22.45,305.93,20.97z M329.52,23.65c0.09-3.42,0.23-7.68,0.51-12.76c0-1.43-0.14-2.17-0.37-2.17
	c-0.28,0-1.76,0.51-4.35,1.43c-1.85,0.6-3.7,1.15-5.59,1.62c-1.8,0.46-3.33,0.65-4.53,0.65h-0.6c-1.06-0.09-1.8-0.46-2.17-1.11
	c-0.37-0.42-0.51-1.06-0.51-1.9c1.2-2.36,2.17-5.13,3.01-8.37c0.37-0.46,0.88-0.7,1.62-0.7c0.23,0,0.5,0.14,0.78,0.32
	c0.37,0.28,0.6,0.7,0.6,1.34c0,0.42-0.18,1.06-0.46,1.99c-1.02,2.77-1.57,4.39-1.67,4.76c2.04,0,4.86-0.51,8.47-1.57
	c1.85-0.51,3.7-1.16,5.64-1.9c0.51-0.14,0.88-0.23,1.16-0.23c0.56,0,1.06,0.7,1.57,1.99c0.37,0.97,0.6,2.27,0.6,3.93
	c0,1.34-0.14,3.42-0.33,6.24c-0.23,4.95-0.32,9.2-0.32,12.72c0,4.99,0.05,10.31,0.18,16.14c0,0.56-0.37,1.11-1.06,1.62
	c-0.46,0.19-0.88,0.32-1.25,0.37c-1.43-0.05-2.91-0.65-4.48-1.85c-1.25-1.02-2.55-2.45-3.84-4.3c-0.28-0.42-0.42-0.83-0.42-1.25
	c0-0.65,0.28-0.97,0.93-0.97c0.42,0,0.88,0.19,1.39,0.65c3.33,2.68,5.32,4.11,5.92,4.3c-0.32-3.88-0.51-9.02-0.51-15.58
	C329.42,27.63,329.42,25.82,329.52,23.65z M323.32,29.66c-0.23,0-0.6-0.09-1.06-0.32c-0.6-0.23-1.25-0.51-1.94-0.88
	c-1.8-0.78-3.47-1.71-4.99-2.82c-0.37-0.28-0.56-0.42-0.65-0.51c-0.18-0.28-0.23-0.51-0.23-0.79c0-0.28,0.14-0.65,0.42-1.06
	c0.23-0.28,0.51-0.46,0.88-0.56c0.19-0.05,0.46-0.09,0.74-0.09c0.32,0.05,0.65,0.18,0.97,0.42c0.28,0.09,0.56,0.28,0.93,0.46
	c1.11,0.74,2.22,1.43,3.37,2.04c0.74,0.42,1.39,0.83,1.95,1.2c0.46,0.51,0.74,1.06,0.74,1.62c0,0.74-0.28,1.16-0.74,1.29H323.32z"/>
<path class="st0" d="M350.03,34.75c-0.05,0.09-0.05,0.18-0.05,0.18l5.74,2.27c3.1,1.2,6.1,2.17,9.06,3.05
	c0.09-2.13,0.14-4.39,0.23-6.84c-1.62,0.6-3.15,1.16-4.58,1.62c-0.83,0.23-1.39,0.37-1.71,0.46c-0.65,0.09-1.2,0.09-1.67,0.09
	c-0.88,0-1.39-0.6-1.48-1.8c0-0.46,0.41-0.92,1.29-1.39c0.46-0.19,1.06-0.37,1.85-0.6c2.17-0.56,4.3-1.2,6.38-1.9v-0.05l0.05-3.01
	c-1.53,0.56-3.05,1.11-4.53,1.62c-0.55,0.23-1.16,0.37-1.71,0.46h-0.28c-0.74-0.37-1.06-0.88-1.06-1.57c0-0.28,0.23-0.6,0.65-0.88
	c0.37-0.19,0.88-0.32,1.48-0.51c1.99-0.6,3.79-1.2,5.46-1.85l0.05-2.78V20.6c-0.74,0.28-1.53,0.55-2.27,0.83
	c-2.54,0.97-3.98,1.43-4.3,1.43h-0.23c-0.18,0-0.32-0.14-0.51-0.32c-0.1-0.18-0.14-0.42-0.14-0.6c0-0.32,0.14-0.6,0.46-0.83
	c1.43-0.93,3.74-2.04,6.98-3.33v-3.74c-1.89,0.69-3.74,1.39-5.55,2.08c-2.08,0.78-3.42,1.16-4.02,1.16c-0.56,0-0.83-0.42-0.83-1.25
	c0-0.65,0.23-1.16,0.74-1.43c2.08-0.83,5.31-1.99,9.66-3.37c0-1.53,0-3.1,0.09-4.67c-1.48,0.19-2.96,0.37-4.35,0.65
	c-1.06,0-1.57-0.6-1.57-1.85c0-0.65,0.37-1.11,1.2-1.48c1.43-0.28,3.05-0.46,4.81-0.51c0-0.42,0-0.83,0.05-1.25
	c0-1.2,0.6-1.8,1.8-1.8c0.97,0.05,1.48,0.7,1.48,1.99c-0.05,0.42-0.09,0.79-0.09,1.06c1.71,0.09,3.23,0.32,4.62,0.69
	c2.31,0.69,3.66,1.85,3.98,3.47c1.39-0.37,2.27-0.6,2.54-0.6c0.28,0,0.65,0.18,1.06,0.55c0.37,0.46,0.6,0.74,0.6,0.93
	c0,0.32-0.23,0.6-0.69,0.83c-1.25,0.32-2.5,0.65-3.74,1.02c-0.46,1.71-1.25,3.33-2.4,4.9c0.09,0.09,0.23,0.23,0.32,0.32
	c0.19,0.28,0.33,0.51,0.33,0.7c0,0.28-0.28,0.56-0.74,0.78c-1.62,0.7-3.7,1.53-6.2,2.45V20c0,1.11-0.05,2.08-0.05,3.01
	c1.57-0.65,2.96-1.25,4.25-1.85c1.16-0.55,1.94-0.88,2.4-0.88c0.23,0,0.42,0.09,0.6,0.18c0.19,0.19,0.33,0.32,0.37,0.51
	c0,0.32-0.14,0.65-0.42,0.92c-0.92,0.79-2.31,1.57-4.16,2.4c-1.02,0.46-2.08,0.88-3.1,1.3c0,1.02-0.05,1.94-0.05,2.73v0.56
	c4.39-1.43,7.81-2.73,10.22-3.93c0.37,0,0.6,0.14,0.78,0.37c0.05,0.14,0.1,0.28,0.1,0.42c0,0.37-0.19,0.79-0.56,1.2
	c-1.3,1.48-4.58,3.19-9.94,5.13c-0.28,0.09-0.55,0.23-0.74,0.32c-0.19,3.47-0.37,6.2-0.65,8.14c-0.05,0.19-0.1,0.32-0.14,0.42
	c1.85,0.55,3.65,1.06,5.46,1.53c2.82,0.65,6.43,1.39,10.78,2.13c0.37,0.19,0.55,0.6,0.55,1.16c-0.1,0.65-0.51,1.02-1.3,1.2h-0.74
	c-3.28-0.09-7.68-0.83-13.13-2.22c-4.44-1.11-9.3-2.64-14.57-4.49l-5.92-2.13c-0.18,0.23-0.37,0.46-0.5,0.65
	c-1.11,1.48-2.13,2.59-3.15,3.33c-0.46,0.46-1.01,0.7-1.57,0.7c-0.88,0-1.34-0.37-1.44-1.02c0-0.37,0.14-0.74,0.42-1.02
	c0.37-0.51,0.88-1.02,1.52-1.57c0.56-0.7,1.11-1.43,1.67-2.22c-1.43-0.55-2.5-1.02-3.19-1.43c-0.28-0.42-0.42-0.78-0.42-1.11
	c0-0.51,0.14-0.93,0.46-1.2c0.32-0.37,0.78-0.6,1.34-0.6c0.37,0,0.74,0.14,1.11,0.37c0.65,0.18,1.48,0.42,2.5,0.78
	c0.19-0.51,0.37-1.25,0.46-2.22c0-0.56-0.28-0.97-0.78-1.3c-0.65-0.23-1.06-0.46-1.34-0.74c-0.55-0.42-0.78-1.06-0.78-1.9
	c0-0.74,0.28-1.57,0.83-2.5c0.37-0.74,0.83-1.53,1.39-2.31c0.56-0.69,0.83-1.25,0.83-1.62c0-0.28-0.41-0.51-1.2-0.7
	c-0.92-0.18-1.48-0.37-1.67-0.51c-0.51-0.23-0.78-0.65-0.83-1.25c0-0.28,0.18-0.7,0.56-1.16c0.37-0.42,0.93-0.65,1.57-0.7
	c1.71,0,3.05,0.32,4.02,0.97c0.7,0.55,1.06,1.25,1.06,2.08c-0.09,1.9-1.11,4.3-3.05,7.21c1.71,1.2,2.59,2.64,2.59,4.25
	C350.77,32.57,350.5,33.69,350.03,34.75z M371.03,15.7c0.41-0.09,0.83-0.23,1.25-0.37c0.09-0.19,0.23-0.37,0.37-0.56
	c0.42-1.34,0.74-2.5,1.02-3.51c-1.76,0.56-3.56,1.11-5.32,1.71l-0.05,3.65C369.13,16.34,370.06,16.07,371.03,15.7z M373.85,8.48
	c0.1,0,0.19-0.05,0.33-0.09V8.02c-0.88-0.92-2.78-1.48-5.69-1.57c-0.09,1.25-0.09,2.27-0.09,3.1v0.65
	C370.19,9.64,372,9.04,373.85,8.48z"/>
<path class="st0" d="M425.9,30.96c-1.62,1.25-5.46,2.68-11.51,4.3v0.05c0.09,1.25,0.14,2.5,0.18,3.7c0.05,0.83,0.09,1.62,0.09,2.36
	c0,1.53-0.09,2.59-0.23,3.19c-0.37,1.06-0.97,1.89-1.8,2.45c-0.65,0.37-1.43,0.56-2.36,0.56c-1.94,0-3.98-0.97-6.01-2.87
	c-0.42-0.32-0.74-0.65-1.02-0.97c-0.46,0.92-0.92,1.71-1.43,2.27c-0.33,0.74-0.84,1.11-1.57,1.11c-0.83-0.09-1.29-0.56-1.34-1.39
	c0-0.37,0.09-0.7,0.28-0.97c0.6-0.6,1.02-1.48,1.25-2.59c0-0.51,0.05-1.02,0.05-1.53c0-0.55-0.09-1.11-0.18-1.66
	c0-0.09,0-0.19,0.05-0.28c-0.51,0.09-0.97,0.19-1.39,0.28c-1.16,0.23-1.99,0.37-2.54,0.46c-0.65,0.09-1.25,0.14-1.81,0.14
	c-0.88-0.05-1.39-0.65-1.52-1.9c0-0.55,0.42-1.06,1.34-1.53c0.56-0.18,1.2-0.42,1.99-0.6c4.81-0.83,9.48-1.8,13.96-2.91
	c0.05,0,0.09,0,0.14-0.05c-0.05-0.28-0.09-0.51-0.14-0.74c-0.09-0.37-0.18-0.74-0.23-1.11c0-0.32,0.09-0.69,0.37-1.06
	c0.42-0.28,0.79-0.46,1.11-0.46c0.93,0,1.53,0.46,1.8,1.34c0.14,0.28,0.28,0.74,0.42,1.3c4.9-1.11,8.79-2.17,11.75-3.1
	c0.37,0,0.69,0.19,0.88,0.51c0.05,0.09,0.09,0.23,0.09,0.37C426.55,30.08,426.32,30.49,425.9,30.96z M408.66,25.27
	c-1.39,0.74-3.19,1.48-5.36,2.13c-2.54,0.83-4.95,1.48-7.26,1.9c-0.33,0.14-0.56,0.19-0.69,0.19c-0.42,0-0.74-0.19-1.02-0.6
	c-0.23-0.37-0.33-0.92-0.33-1.62c0-0.46,0.28-0.83,0.79-1.06c1.52-0.28,2.82-0.55,3.93-0.83c0.33-0.05,0.65-0.14,0.97-0.23
	c0.09-0.65,0.18-1.34,0.28-2.08c0.05-0.65,0.09-1.2,0.09-1.76c0-1.02-0.19-1.76-0.56-2.26c-0.46,0.14-0.97,0.23-1.44,0.28
	c-0.6,0.09-1.2,0.14-1.76,0.14h-0.46c-0.93-0.09-1.34-0.6-1.34-1.48v-0.83c0.14-0.55,0.65-1.02,1.48-1.48
	c0.28,0.05,0.65,0.05,1.11,0.05c1.01,0,2.08-0.14,3.28-0.46c1.25-0.23,2.59-0.65,4.07-1.2c0.23-0.09,0.42-0.14,0.6-0.23
	c0.42,0,0.88,0.14,1.44,0.42c0.6,0.32,0.92,0.65,0.92,0.97c0,0.37-0.14,0.74-0.42,1.15c-0.37,0.42-0.78,0.74-1.34,1.02
	c-0.92,0.32-1.89,0.6-2.96,0.88c0.37,0.74,0.56,1.48,0.56,2.31c0,0.88-0.14,1.85-0.32,2.91c-0.1,0.37-0.14,0.7-0.23,0.97
	c0.93-0.28,1.85-0.51,2.73-0.74c1.11-0.37,1.8-0.56,2.08-0.65c0.28-0.09,0.46-0.19,0.65-0.19c0.42,0.09,0.74,0.23,0.97,0.51
	c0.05,0.23,0.09,0.46,0.09,0.65C409.17,24.48,408.98,24.9,408.66,25.27z M409.9,5.38c-1.57,0.97-3.23,1.85-4.99,2.64
	c0.32,0.56,0.74,1.25,1.2,2.04c0.28,0.42,0.46,0.79,0.51,1.16c0,0.97-0.42,1.43-1.16,1.43c-0.37,0-0.83-0.23-1.29-0.74
	c-0.19-0.23-0.46-0.55-0.79-0.97c-0.55-0.56-1.06-1.06-1.57-1.62c-0.23,0.09-0.46,0.18-0.65,0.23c-2.08,0.74-3.61,1.16-4.62,1.16
	c-0.84,0-1.39-0.42-1.67-1.25c0-0.37,0.18-0.79,0.56-1.25c1.62-2.31,2.78-4.53,3.51-6.75c0.23-0.51,0.78-0.79,1.62-0.79
	c0.92,0.09,1.43,0.65,1.43,1.76c-0.56,1.53-1.39,3.01-2.4,4.39c2.68-0.65,5.59-1.8,8.79-3.42c0.37-0.37,0.78-0.55,1.25-0.55
	c0.56,0.09,0.88,0.51,0.88,1.25C410.51,4.46,410.28,4.92,409.9,5.38z M403.8,38.96c0.09,0.42,0.18,0.92,0.18,1.48
	c0.97,1.11,2.04,2.03,3.15,2.77c1.06,0.56,2.03,0.88,2.87,0.88c0.88,0,1.34-0.56,1.34-1.66v-1.76c-0.09-1.94-0.19-3.47-0.28-4.53
	c-2.68,0.65-5.27,1.3-7.68,1.85C403.57,38.26,403.71,38.59,403.8,38.96z M425.86,27.4c-0.78-0.09-1.48-0.28-2.08-0.56
	c-0.79-0.32-1.44-0.69-1.89-1.16c-0.79-0.74-1.16-1.62-1.16-2.64c0-2.96,0.23-5.78,0.69-8.51c-1.2,0.14-2.36,0.28-3.47,0.46v0.09
	c0,0.79-0.09,1.48-0.18,2.03c-0.37,1.34-0.79,2.64-1.25,3.84c0.09,0.09,0.23,0.19,0.32,0.19c1.06,0.65,1.8,1.16,2.22,1.62
	c0.18,0.37,0.32,0.79,0.32,1.3c-0.09,0.55-0.28,0.88-0.65,1.02h-0.23c-0.18,0-0.46-0.09-0.88-0.37c-0.92-0.37-1.71-0.7-2.36-0.97
	c-1.2,2.13-2.5,3.75-3.88,4.95c-0.46,0.19-0.74,0.23-0.88,0.23c-0.56,0-0.92-0.28-1.2-0.79c-0.14-0.18-0.18-0.42-0.18-0.69
	c0-0.28,0.18-0.55,0.6-0.83c1.06-1.39,1.94-2.68,2.68-3.98c-0.65-0.28-1.3-0.51-1.9-0.74c-0.51-0.23-0.74-0.78-0.74-1.71
	c0.14-0.78,0.69-1.2,1.62-1.25c0.56,0,1.39,0.23,2.54,0.7c0.56-1.48,0.88-2.87,1.06-4.12c-1.16,0.23-2.27,0.46-3.29,0.69
	c-0.41,0.14-0.74,0.19-1.01,0.19c-0.51,0-0.83-0.23-0.97-0.79c-0.05-0.19-0.05-0.42-0.05-0.6c0-0.51,0.14-0.92,0.51-1.25
	c1.76-0.65,4.72-1.25,8.92-1.9c2.31-0.32,3.88-0.51,4.72-0.51c0.69,0,1.06,0.42,1.11,1.15c0,0.83-0.19,1.85-0.55,3.15
	c-0.33,1.29-0.56,2.4-0.74,3.33c-0.19,1.11-0.28,2.45-0.28,4.07c0.05,0.28,0.23,0.56,0.56,0.74c0.74,0.6,2.27,1.06,4.67,1.43
	c0.32,0.23,0.51,0.51,0.6,0.79v0.51c-0.14,0.65-0.6,0.97-1.34,1.02C427.16,27.53,426.5,27.49,425.86,27.4z M416.29,4.69
	c2.5-0.74,5.04-1.76,7.63-3.05c0.65-0.28,1.16-0.42,1.62-0.42c0.65,0.09,0.97,0.65,0.97,1.76c0,0.37-0.28,0.79-0.83,1.3
	c-1.71,0.88-3.47,1.62-5.27,2.26c0.28,0.28,0.51,0.56,0.78,0.74c0.28,0.28,0.51,0.51,0.7,0.78c0.5,0.56,0.78,1.11,0.78,1.71
	c0,0.74-0.28,1.16-0.78,1.34h-0.28c-0.28,0-0.65-0.14-1.2-0.42c-0.28-0.09-0.56-0.32-0.83-0.6c-0.88-0.56-1.67-1.25-2.31-2.04
	c-0.19-0.18-0.33-0.32-0.33-0.42c-1.39,0.46-2.63,0.74-3.79,0.83c-1.11-0.19-1.67-0.65-1.67-1.48c1.29-2.04,2.17-3.98,2.54-5.78
	c0.46-0.6,0.97-0.92,1.62-0.97c0.65,0.09,1.11,0.51,1.39,1.29C417.03,2.66,416.75,3.67,416.29,4.69z M419.02,35.67
	c0.28,0.09,0.51,0.18,0.74,0.32c1.25,0.74,3.19,2.54,5.78,5.5c0.6,0.7,0.97,1.34,1.06,1.94c0,0.92-0.37,1.43-1.11,1.43
	c-0.42,0-0.83-0.28-1.3-0.79c-0.55-0.42-1.34-1.02-2.26-1.85c-1.48-1.34-3.05-2.59-4.81-3.75c-0.19-0.23-0.28-0.51-0.28-0.78v-0.46
	c0.05-0.46,0.28-0.83,0.69-1.16c0.23-0.23,0.51-0.37,0.88-0.46C418.6,35.63,418.83,35.67,419.02,35.67z"/>
</svg>
