<?xml version="1.0" encoding="utf-8"?>
<!-- Generator: Adobe Illustrator 23.0.3, SVG Export Plug-In . SVG Version: 6.00 Build 0)  -->
<svg version="1.1" id="圖層_1" xmlns="http://www.w3.org/2000/svg" xmlns:xlink="http://www.w3.org/1999/xlink" x="0px" y="0px"
	 viewBox="0 0 275 53" style="enable-background:new 0 0 275 53;" xml:space="preserve">
<style type="text/css">
	.st0{fill:#3E3A39;}
</style>
<g>
	<path class="st0" d="M15.49,50.37c0,0.87-0.43,1.46-1.19,1.84c-1.14,0.43-2.17,0.38-3.25-0.16c-0.54-0.32-0.76-0.76-0.76-1.46
		V29.47c-1.19,4.66-3.47,8.29-6.71,10.61c-0.27,0.22-0.54,0.22-0.7,0.05c-0.16-0.16-0.16-0.38,0.05-0.65
		c3.25-6.5,5.63-14.46,6.99-23.77H7.26L3.8,16.15c-0.22,0.11-0.33,0.05-0.38-0.16l-0.43-1.84c-0.05-0.22,0.11-0.27,0.49-0.22
		l3.79,0.38h3.03V1.91V1.42c0-0.16,0.05-0.27,0.27-0.33c1.68,0.16,3.41,0.38,5.25,0.7c0.92,0.22,1.35,0.6,1.35,1.14
		c0,0.49-0.33,0.87-1.14,1.08c-0.33,0.05-0.49,0.33-0.54,0.81v9.48h1.19c0.33,0,0.54-0.11,0.7-0.38l2-2.76
		c0.27-0.49,0.65-0.54,1.08-0.16c1.08,0.81,1.95,1.9,2.76,3.25c0.32,0.38,0.43,0.76,0.27,1.03c-0.11,0.27-0.38,0.43-0.81,0.43h-7.2
		v3.95l0.92,0.33c1.52,0.7,2.87,1.73,4.01,2.98c1.03,1.19,1.68,2.22,1.95,3.14c0.32,0.92,0.27,1.9-0.16,2.87
		c-0.38,0.92-0.92,1.41-1.84,1.57c-0.92,0.16-1.62-0.11-2.22-0.76c-0.49-0.6-0.76-1.35-0.81-2.38c-0.11-2.44-0.7-4.39-1.84-5.79
		V50.37z M18.04,51.29c-0.27,0.05-0.38,0-0.43-0.22c0-0.16,0.11-0.33,0.38-0.38c2.76-0.81,6.28-2.6,10.4-5.25l4.98-4.82
		c-2.49-4.22-4.17-9.26-4.98-15.05c-0.05-0.43,0-0.7,0.33-0.81c0.32-0.05,0.54,0.16,0.65,0.65c1.03,4.5,3.14,8.45,6.28,11.75
		c2-3.84,3.47-8.12,4.17-12.67c0.05-0.33,0.27-0.43,0.54-0.38c2.06,0.49,3.9,1.24,5.63,2.17c0.65,0.38,0.92,0.81,0.87,1.19
		c-0.11,0.38-0.38,0.54-0.92,0.54c-0.33,0-0.54,0.11-0.7,0.38c-2.33,5.2-4.44,9.2-6.12,11.7c4.87,3.73,9.47,5.96,13.59,6.66
		c0.32,0.05,0.49,0.11,0.54,0.33c0,0.22-0.11,0.38-0.43,0.43c-2.44,0.6-4.22,2.11-5.31,4.44c-0.16,0.33-0.43,0.38-0.81,0.11
		c-4.71-2.49-8.34-5.25-10.83-8.12C31.36,48.37,25.4,50.91,18.04,51.29z M34.17,1.58c-0.05-0.11,0.05-0.16,0.33-0.16
		c1.89,0.05,3.68,0.27,5.36,0.65c0.7,0.22,1.03,0.49,1.03,0.87c0,0.49-0.32,0.81-0.92,0.92c-0.32,0.11-0.54,0.32-0.49,0.65v6.39
		h3.63c0.38,0,0.7-0.16,0.92-0.38l2.65-3.41c0.27-0.27,0.6-0.32,0.98-0.11c1.79,1.14,3.36,2.55,4.55,4.22
		c0.27,0.27,0.32,0.54,0.22,0.76c-0.16,0.27-0.43,0.38-0.92,0.38H26.48l-3.19,0.27c-0.27,0.11-0.43,0.05-0.49-0.16l-0.43-1.57
		c-0.05-0.22,0.11-0.27,0.49-0.16l3.63,0.16h7.69V1.58z M28.22,14.42c0.05-0.22,0.16-0.27,0.27-0.22c1.73,0.49,3.36,1.03,4.87,1.84
		c0.59,0.27,0.87,0.65,0.81,1.08c-0.16,0.32-0.54,0.49-1.19,0.54c-0.16-0.05-0.32,0.05-0.49,0.27c-2.65,3.63-5.79,6.28-9.26,7.91
		h-0.38c-0.11-0.16-0.11-0.27,0-0.43c2.43-2.98,4.17-6.39,5.2-10.23L28.22,14.42z M41.16,14.96c0-0.22,0.16-0.32,0.43-0.32l3.57,0.7
		c3.09,1.08,5.2,2.6,6.34,4.55c0.54,0.92,0.7,1.95,0.54,3.03c-0.16,1.03-0.65,1.62-1.52,2c-1.79,0.76-3.14-0.11-3.85-2.49
		c-0.92-3.25-2.76-5.63-5.3-6.98C41.21,15.34,41.1,15.17,41.16,14.96z"/>
	<path class="st0" d="M66.36,49.18c0,1.03-0.27,1.79-0.76,2.11c-0.54,0.49-1.41,0.76-2.49,0.76c-0.7,0-1.19-0.16-1.57-0.54
		c-0.27-0.22-0.43-0.65-0.43-1.25V2.61l0.11-0.38h0.43c1.62,0.43,3.41,1.14,5.36,2.11h31.03c0.49,0.05,0.81,0,1.08-0.27l1.41-1.52
		c0.32-0.43,0.7-0.6,1.14-0.43c2,0.76,3.52,1.57,4.6,2.33c1.08,0.87,0.92,1.68-0.54,2.22c-0.27,0.11-0.43,0.32-0.43,0.6v42.67
		c0,0.7-0.33,1.3-0.97,1.62c-0.54,0.38-1.35,0.6-2.38,0.6c-0.65,0-1.19-0.16-1.57-0.54c-0.22-0.27-0.32-0.54-0.32-1.03V48.1H66.36
		V49.18z M100.04,46.69V6.02c-0.16-0.27-0.33-0.33-0.54-0.11H66.36v40.77H100.04z M92.67,31.64H93c1.25,0.59,2.33,1.35,3.41,2.22
		c0.49,0.49,0.7,0.87,0.54,1.19c-0.16,0.27-0.54,0.32-1.03,0.16l-0.65,0.22l-3.36,1.52l-0.87,0.33c2.33,0.7,4.12,1.79,5.2,2.92
		c0.43,0.54,0.65,1.25,0.65,2.06c-0.05,0.76-0.27,1.41-0.7,1.9c-0.6,0.43-1.24,0.65-1.89,0.54c-0.65-0.11-1.3-0.6-1.95-1.52
		c-1.52-2.17-4.44-4.44-8.72-6.77v7.53c0,0.7-0.27,1.25-0.97,1.52c-1.03,0.49-2,0.49-3.09,0c-0.43-0.33-0.7-0.87-0.65-1.52V37.1
		c-3.41,2.65-6.99,4.39-10.67,5.14c-0.27,0-0.43,0-0.43-0.11c-0.05-0.16,0-0.32,0.16-0.43c5.85-3.09,9.85-7.25,11.91-12.45h-2.76
		v0.6c0,0.81-0.27,1.35-0.76,1.68c-0.65,0.38-1.41,0.6-2.22,0.65c-0.6,0-1.14-0.16-1.52-0.43c-0.27-0.22-0.32-0.65-0.27-1.19V20.26
		c-0.05-0.27,0-0.43,0.16-0.38c1.57,0.27,3.03,0.81,4.33,1.62h11.32l0.49-0.27l1.3-1.3h0.49c1.52,0.54,2.87,1.3,4.22,2.22l0.43,0.54
		c0.11,0.11-0.27,0.81-1.25,2v4.71c-0.05,0.6-0.27,1.08-0.76,1.35c-0.49,0.27-1.3,0.49-2.33,0.54c-0.65,0-1.14-0.16-1.41-0.49
		c-0.27-0.32-0.38-0.81-0.32-1.41v-0.16h-3.68l-1.73,2.65v3.36c1.84,0.22,3.57,0.7,5.2,1.3C90.89,34.67,92.24,33.04,92.67,31.64z
		 M80.44,12.96h-5.85l-3.14,0.49c-0.32,0.16-0.54,0.11-0.6-0.16l-0.54-1.89c-0.05-0.27,0.11-0.33,0.6-0.22l3.68,0.38h5.85V7.05
		c-0.05-0.11,0.05-0.16,0.27-0.16c1.84,0.05,3.57,0.33,5.2,0.7c0.65,0.16,0.98,0.43,0.98,0.76c0,0.43-0.27,0.76-0.87,0.92
		c-0.32,0.11-0.54,0.33-0.49,0.65v1.62h3.47c0.27,0,0.54-0.11,0.7-0.32l2.27-2.55c0.16-0.22,0.43-0.22,0.7-0.05
		c1.25,0.92,2.28,2,3.14,3.25c0.27,0.27,0.32,0.54,0.22,0.76c-0.16,0.27-0.43,0.33-0.92,0.33h-9.58v4.12h5.58
		c0.27,0,0.54-0.11,0.7-0.33l2.27-2.54c0.16-0.22,0.43-0.22,0.7-0.05c1.25,0.92,2.33,1.95,3.14,3.25c0.27,0.22,0.33,0.49,0.22,0.7
		c-0.16,0.27-0.43,0.38-0.92,0.38h-24.8l-3.09,0.49c-0.33,0.16-0.54,0.11-0.6-0.16l-0.54-1.9c-0.05-0.27,0.11-0.32,0.6-0.22
		l3.63,0.38h8.01V12.96z M89.05,27.85v-4.77c-0.16-0.27-0.33-0.32-0.6-0.16H78.16l-1.03,0.16v4.77H89.05z"/>
	<path class="st0" d="M123.93,9.16c-2.87,5.04-6.12,8.66-9.74,10.72h-0.38c-0.11-0.16-0.06-0.33,0.11-0.49
		c4.22-5.2,6.66-11.15,7.2-17.76V0.99c0-0.27,0.16-0.43,0.43-0.49c1.73,0.05,3.57,0.33,5.3,0.81c0.76,0.22,1.14,0.49,1.14,0.92
		c0,0.38-0.32,0.65-0.97,0.81c-0.21,0-1.03,1.62-2.33,4.71h7.42c0.38,0,0.7-0.11,0.87-0.38l2.54-3.14c0.27-0.27,0.54-0.32,0.92-0.05
		c1.63,1.03,2.93,2.33,4.06,3.9c0.27,0.27,0.33,0.49,0.22,0.7c-0.16,0.27-0.43,0.38-0.92,0.38h-10.4c1.95,0.87,3.3,2.11,4.01,3.74
		c0.27,1.03,0.16,2.06-0.38,3.03c-0.43,0.92-1.08,1.46-2,1.46c-1.95,0.11-2.98-1.03-2.98-3.41c0.22-1.95-0.22-3.57-1.19-4.82H123.93
		z M123.93,34.61l-0.43,2.11c-0.16,0.7-0.6,1.14-1.41,1.35c-1.3,0.27-2.49,0.16-3.41-0.38c-0.43-0.32-0.54-0.81-0.38-1.52
		c0.92-3.52,1.73-7.74,2.38-12.56c0.06-0.49,0.22-0.65,0.49-0.54c1.52,0.49,3.2,1.25,5.09,2.44h9.96v-5.36h-13.59l-2.93,0.43
		c-0.43,0.16-0.7,0.11-0.76-0.05l-0.43-1.73c-0.05-0.33,0.06-0.43,0.49-0.38l3.63,0.33h28.81l0.81-0.6
		c-1.51-0.11-2.33-1.19-2.38-3.2c-0.11-2.54-0.98-4.49-2.44-5.79h-1.3c-2.54,3.9-5.41,6.77-8.66,8.39h-0.43
		c-0.11-0.16-0.05-0.33,0.11-0.49c1.14-1.41,2.71-4.01,4.6-7.8c0.32-1.03,1.03-3.73,1.84-7.96c0.05-0.27,0.16-0.43,0.43-0.43
		c1.73,0.16,3.57,0.49,5.31,0.92c0.76,0.27,1.08,0.6,1.08,1.03c0,0.38-0.27,0.65-0.97,0.76L147,7.76h7.96c0.38,0,0.7-0.11,0.87-0.38
		l2.55-3.14c0.27-0.27,0.54-0.32,0.87-0.05c1.68,1.03,2.98,2.33,4.11,3.9c0.27,0.27,0.33,0.49,0.22,0.7
		c-0.16,0.27-0.43,0.38-0.92,0.38h-12.45c2.38,0.98,4.06,2.38,4.82,4.22c0.43,1.19,0.21,2.49-0.49,3.9c1.4,0.49,2.7,1.25,3.95,2.17
		c0.97,0.7,0.81,1.35-0.43,1.89c-0.33,0.16-0.49,0.43-0.49,0.87v5.41c-0.06,0.65-0.33,1.08-0.76,1.41c-0.6,0.32-1.46,0.54-2.55,0.6
		c-0.76,0-1.3-0.22-1.57-0.6c-0.22-0.32-0.33-0.76-0.33-1.46v-0.65h-10.88v6.23h12.89l0.6-0.33l1.73-1.68c0.16-0.16,0.32-0.16,0.6,0
		c1.35,0.81,2.54,1.73,3.73,2.71c0.43,0.32,0.6,0.7,0.54,1.08c-0.05,0.38-0.32,0.54-0.81,0.7l-0.38,0.43
		c-0.76,4.12-1.79,7.26-3.14,9.2c-1.79,2.33-4.28,3.41-7.26,3.09c0-1.79-0.92-3.2-2.54-4.12c-0.54-0.05-0.76-0.33-0.7-0.76
		c0.11-0.38,0.38-0.54,0.76-0.49c2.87,0.16,4.76-0.22,5.41-1.14c0.87-1.3,1.68-3.74,2.17-7.31h-13.59v15.87
		c-0.05,0.87-0.43,1.41-1.24,1.79c-1.08,0.43-2.11,0.38-3.2-0.16c-0.54-0.32-0.81-0.87-0.81-1.68V39.05
		c-2.06,2.54-4.71,4.87-7.9,6.99c-4.82,2.92-9.47,4.82-13.97,5.74c-0.32,0.11-0.49,0.05-0.54-0.16c-0.06-0.22,0.05-0.38,0.27-0.54
		c3.68-1.52,7.42-3.79,11.26-6.77c3.79-3.09,6.5-6.34,8.01-9.69H123.93z M136.22,26.93h-10.88l-1.03,6.23h11.91V26.93z
		 M141.48,25.52h10.88v-5.14c-0.16-0.27-0.32-0.38-0.6-0.22h-10.29V25.52z"/>
	<path class="st0" d="M173.23,24.06h35.68c0.38,0,0.7-0.16,0.92-0.49l2.76-3.52c0.27-0.33,0.65-0.38,1.03-0.11
		c1.9,1.19,3.47,2.65,4.77,4.39c0.27,0.27,0.32,0.54,0.21,0.76c-0.16,0.27-0.43,0.38-0.92,0.38h-44.45l-3.14,0.49
		c-0.32,0.16-0.54,0.11-0.6-0.16l-0.49-1.9c-0.05-0.27,0.11-0.32,0.54-0.22L173.23,24.06z"/>
	<path class="st0" d="M236.39,37.54c0.05-0.16,0.22-0.22,0.43-0.11c1.47,0.54,2.98,1.24,4.44,2.17c0.7,0.43,0.97,0.81,0.87,1.25
		c-0.22,0.38-0.6,0.54-1.19,0.49c-0.38-0.05-0.76,0.16-1.25,0.65c-4,3.47-9.1,6.12-15.16,7.69c-0.22,0.05-0.33,0-0.38-0.22
		c-0.05-0.16,0-0.27,0.27-0.38c5.14-2.71,9.15-6.44,11.7-10.99L236.39,37.54z M247.38,15.12h-7.85v0.11c0,0.92-0.27,1.52-0.87,1.9
		c-0.65,0.38-1.52,0.6-2.44,0.65c-0.65,0-1.19-0.16-1.62-0.43c-0.27-0.22-0.38-0.65-0.33-1.3V1.48c-0.05-0.33,0.06-0.49,0.22-0.43
		c2,0.43,3.63,1.08,4.93,1.84h19.55c0.22,0,0.43-0.11,0.6-0.32l1.24-1.3l0.6-0.11c1.63,0.54,3.2,1.35,4.6,2.44
		c1.03,0.7,0.87,1.35-0.43,1.9c-0.33,0.16-0.43,0.43-0.43,0.87v8.99c-0.05,0.65-0.32,1.14-0.81,1.46c-0.6,0.33-1.41,0.54-2.55,0.6
		c-0.76,0-1.24-0.22-1.51-0.6c-0.27-0.32-0.38-0.81-0.38-1.52v-0.16h-7.25v5.09h12.34c0.33,0,0.65-0.16,0.87-0.43l2.71-3.36
		c0.27-0.27,0.6-0.33,0.97-0.11c1.79,1.08,3.3,2.55,4.55,4.22c0.22,0.27,0.27,0.54,0.16,0.76c-0.11,0.27-0.38,0.38-0.87,0.38H228.7
		l-3.14,0.43c-0.33,0.16-0.54,0.11-0.6-0.16l-0.49-1.89c-0.05-0.27,0.06-0.33,0.54-0.22l3.68,0.38h18.68V15.12z M239.26,33.91
		c0,0.87-0.27,1.46-0.81,1.79c-0.65,0.43-1.52,0.65-2.43,0.7c-0.65,0-1.19-0.16-1.63-0.49c-0.27-0.22-0.38-0.6-0.33-1.25V23.68
		c-0.05-0.32,0.06-0.49,0.22-0.43c2,0.43,3.68,1.08,4.93,1.84h19.98c0.21,0,0.43-0.11,0.6-0.33l1.24-1.3l0.6-0.11
		c1.63,0.6,3.2,1.35,4.6,2.44c1.03,0.7,0.87,1.35-0.43,1.89c-0.33,0.16-0.49,0.43-0.49,0.92v6.23c-0.06,0.65-0.27,1.08-0.76,1.41
		c-0.6,0.32-1.46,0.54-2.54,0.6c-0.76,0-1.3-0.22-1.52-0.6c-0.27-0.33-0.38-0.76-0.38-1.46v-0.87h-7.69v11.97
		c0,1.62-0.27,2.87-0.76,3.73c-1.08,1.79-3.2,2.71-6.34,2.71c-0.33-0.05-0.43-0.27-0.43-0.54c0.43-1.9-0.27-3.57-2.27-4.98
		c-0.22-0.11-0.38-0.32-0.33-0.6c0.06-0.27,0.22-0.38,0.43-0.32l3.09,0.16c0.92,0.05,1.35-0.38,1.35-1.3V33.91H239.26z M260.1,32.5
		v-5.79c-0.16-0.27-0.32-0.32-0.6-0.11h-20.2v5.9H260.1z M259.88,8.19V4.51c-0.16-0.27-0.32-0.38-0.6-0.22h-19.76v3.9H259.88z
		 M259.88,13.66V9.6h-20.36v4.06H259.88z M256.48,39.49c0-0.22,0.11-0.38,0.38-0.43l2.98,0.16c2.38,0.22,4.6,0.87,6.71,2
		c3.3,1.79,5.09,3.79,5.2,6.01c0.05,1.03-0.38,1.79-1.19,2.27c-1.73,1.03-3.14,0.43-4.17-1.73c-2.49-4.33-5.69-7.04-9.53-7.85
		C256.58,39.87,256.48,39.7,256.48,39.49z"/>
</g>
</svg>
