<?xml version="1.0" encoding="utf-8"?>
<!-- Generator: Adobe Illustrator 23.0.3, SVG Export Plug-In . SVG Version: 6.00 Build 0)  -->
<svg version="1.1" id="圖層_1" xmlns="http://www.w3.org/2000/svg" xmlns:xlink="http://www.w3.org/1999/xlink" x="0px" y="0px"
	 viewBox="0 0 275 53" style="enable-background:new 0 0 275 53;" xml:space="preserve">
<style type="text/css">
	.st0{fill:#3E3A39;}
</style>
<g>
	<path class="st0" d="M2.78,15.01c0.05-0.22,0.27-0.27,0.49-0.16h0.27c3.9,1.24,6.39,3.3,7.58,6.06c0.38,1.03,0.33,2.06-0.16,3.2
		c-0.38,0.92-1.08,1.46-2.06,1.62c-2.06,0.32-3.19-0.87-3.3-3.41c0-2.87-0.92-5.14-2.71-6.77C2.72,15.39,2.67,15.17,2.78,15.01z
		 M19.18,12.52c0.33,0.16,0.43,0.38,0.27,0.81l-7.91,22.26c-0.43,1.68,0,3.9,1.24,6.6c1.25,2.33,1.68,4.39,1.35,6.12
		c-0.27,1.35-1.03,2.22-2.11,2.6c-1.03,0.27-1.95,0.11-2.6-0.54c-1.14-1.14-1.68-2.92-1.62-5.42c0.16-2.22-0.05-4.22-0.6-6.01
		c-0.54-1.25-1.84-2.27-3.9-3.03c-0.27-0.16-0.38-0.43-0.27-0.65c0.05-0.16,0.27-0.22,0.7-0.16l2.71,0.16
		c0.54,0,0.92-0.16,1.14-0.49l10.94-21.71C18.8,12.63,18.97,12.47,19.18,12.52z M6.24,2.02C6.3,1.8,6.46,1.69,6.73,1.69
		c4.12,0,7.25,1.41,9.37,4.06c0.6,0.87,0.76,1.95,0.6,3.09c-0.05,1.03-0.6,1.79-1.52,2.17c-1.95,0.81-3.3-0.05-4.01-2.49
		C10.3,5.75,8.73,3.75,6.51,2.56C6.3,2.45,6.19,2.29,6.24,2.02z M22.92,7.49l-3.14,0.49c-0.32,0.16-0.54,0.11-0.6-0.16l-0.49-1.9
		c-0.05-0.27,0.11-0.32,0.54-0.22l3.68,0.38h20.85c0.32,0,0.65-0.16,0.87-0.43l2.71-3.41c0.27-0.27,0.6-0.32,0.97-0.11
		c1.79,1.14,3.3,2.54,4.49,4.22c0.27,0.27,0.33,0.54,0.22,0.76c-0.16,0.27-0.38,0.38-0.87,0.38h-5.09v38.5
		c0.05,1.41-0.27,2.6-0.92,3.47c-1.25,1.62-3.63,2.54-6.88,2.65c-0.43-0.05-0.65-0.22-0.65-0.54c0.05-2.44-1.3-4.17-3.9-5.2
		c-0.32-0.11-0.49-0.32-0.43-0.6c0.05-0.27,0.22-0.38,0.49-0.32l5.74,0.16c0.92,0,1.3-0.32,1.3-1.03V7.49H22.92z M25.63,34.83
		c0,0.81-0.27,1.41-0.81,1.73c-0.7,0.43-1.46,0.65-2.33,0.7c-0.7,0-1.25-0.16-1.57-0.43c-0.27-0.22-0.38-0.65-0.32-1.3V15.5
		c-0.05-0.27,0.05-0.38,0.22-0.32c1.89,0.27,3.57,0.92,5.04,1.9h3.52c0.49,0.05,0.81,0,0.97-0.22l1.46-1.57
		c0.33-0.33,0.7-0.49,1.03-0.33c1.95,0.65,3.47,1.46,4.44,2.27c1.03,0.7,0.87,1.46-0.43,2.06c-0.27,0.16-0.43,0.32-0.43,0.54v14.35
		c0,0.7-0.32,1.19-0.92,1.52c-0.6,0.38-1.3,0.54-2.33,0.54c-0.65,0-1.14-0.16-1.46-0.49c-0.22-0.22-0.33-0.49-0.33-0.97v-2.33h-5.74
		V34.83z M31.37,30.99V18.69c-0.16-0.27-0.32-0.33-0.54-0.11h-5.2v12.4H31.37z"/>
	<path class="st0" d="M94.52,49.77c0,0.81-0.33,1.46-1.14,1.79c-1.03,0.38-2.06,0.32-3.09-0.16c-0.49-0.27-0.76-0.76-0.76-1.41
		v-14.4H78.33v5.09c0,0.6-0.27,1.08-0.87,1.46c-0.54,0.27-1.19,0.43-2.11,0.43c-0.6,0-1.08-0.16-1.35-0.38
		c-0.16-0.22-0.27-0.54-0.27-0.97v-1.57H63.5v2.87c0,0.92-0.22,1.57-0.6,1.89c-0.54,0.38-1.3,0.6-2.27,0.6
		c-0.6,0-1.03-0.16-1.35-0.43c-0.27-0.22-0.38-0.6-0.33-1.14V5.43V5.1h0.43c1.35,0.33,2.87,0.92,4.5,1.79h7.85
		c0.38,0.05,0.7,0,0.97-0.16l1.46-1.35c0.22-0.38,0.54-0.49,0.92-0.32c1.73,0.65,3.14,1.3,4.06,2c0.87,0.76,0.7,1.41-0.43,1.95
		c-0.27,0.11-0.38,0.27-0.38,0.54v24.64h11.21V22.27h-5.47l-3.09,0.49c-0.32,0.16-0.54,0.11-0.6-0.16l-0.54-1.9
		c-0.05-0.27,0.11-0.32,0.6-0.22l3.63,0.38h5.47V1.91V1.42c0-0.16,0.11-0.27,0.33-0.27l4.98,0.65c0.92,0.22,1.35,0.6,1.35,1.08
		l-1.68,1.79v16.19h3.79c0.38,0,0.7-0.16,0.81-0.43l2.65-3.2c0.27-0.27,0.54-0.32,0.92-0.05c1.73,1.03,3.14,2.38,4.33,4.01
		c0.27,0.27,0.32,0.54,0.22,0.76c-0.16,0.22-0.43,0.33-0.92,0.33h-11.8v11.91h4.6c0.38,0,0.7-0.16,0.87-0.43l2.65-3.2
		c0.27-0.27,0.54-0.32,0.92-0.05c1.73,1.03,3.14,2.38,4.33,4.01c0.22,0.27,0.27,0.54,0.16,0.76c-0.11,0.22-0.38,0.33-0.87,0.33
		H94.52V49.77z M66.42,8.41H63.5v14.13h2.92V8.41z M66.42,24H63.5v14.19h2.92V24z M70.81,22.54h2.92V8.41
		c-0.16-0.16-0.38-0.22-0.54-0.05h-2.38V22.54z M70.81,38.19h2.92V24h-2.92V38.19z M80.34,4.35c0.11-0.16,0.27-0.22,0.54-0.05
		l0.27,0.22c4.17,3.47,6.28,7.04,6.28,10.67c0.05,0.97-0.33,1.95-1.03,2.82c-0.6,0.81-1.35,1.14-2.33,1.03h-0.16
		c-1.9-0.32-2.55-1.68-1.95-3.95c0.81-3.95,0.22-7.36-1.68-10.12C80.12,4.72,80.17,4.51,80.34,4.35z M99.77,4.78
		c0.05-0.22,0.16-0.32,0.38-0.32c1.68,0.27,3.41,0.76,5.09,1.46c0.6,0.22,0.87,0.49,0.81,0.87c0,0.27-0.22,0.49-0.76,0.6
		c-0.27,0.05-0.43,0.16-0.54,0.38c-2.17,4.66-4.87,8.29-7.96,10.83c-0.11,0.16-0.27,0.16-0.38,0.05c-0.16-0.16-0.16-0.27-0.05-0.43
		c1.9-4.01,3.03-8.18,3.3-12.4L99.77,4.78z"/>
	<path class="st0" d="M123.51,9.16c-2.87,5.04-6.12,8.66-9.75,10.72h-0.38c-0.11-0.16-0.05-0.33,0.11-0.49
		c4.22-5.2,6.66-11.15,7.2-17.76V0.99c0-0.27,0.16-0.43,0.43-0.49c1.73,0.05,3.57,0.33,5.31,0.81c0.76,0.22,1.14,0.49,1.14,0.92
		c0,0.38-0.32,0.65-0.97,0.81c-0.22,0-1.03,1.62-2.33,4.71h7.42c0.38,0,0.7-0.11,0.87-0.38l2.55-3.14c0.27-0.27,0.54-0.32,0.92-0.05
		c1.63,1.03,2.92,2.33,4.06,3.9c0.27,0.27,0.33,0.49,0.22,0.7c-0.16,0.27-0.43,0.38-0.92,0.38h-10.4c1.95,0.87,3.3,2.11,4.01,3.74
		c0.27,1.03,0.16,2.06-0.38,3.03c-0.43,0.92-1.08,1.46-2,1.46c-1.95,0.11-2.98-1.03-2.98-3.41c0.22-1.95-0.22-3.57-1.19-4.82H123.51
		z M123.51,34.61l-0.43,2.11c-0.16,0.7-0.6,1.14-1.41,1.35c-1.3,0.27-2.49,0.16-3.41-0.38c-0.43-0.32-0.54-0.81-0.38-1.52
		c0.92-3.52,1.73-7.74,2.38-12.56c0.05-0.49,0.22-0.65,0.49-0.54c1.52,0.49,3.19,1.25,5.09,2.44h9.96v-5.36h-13.59l-2.92,0.43
		c-0.43,0.16-0.7,0.11-0.76-0.05l-0.43-1.73c-0.05-0.33,0.05-0.43,0.49-0.38l3.63,0.33h28.81l0.81-0.6
		c-1.52-0.11-2.33-1.19-2.38-3.2c-0.11-2.54-0.97-4.49-2.44-5.79h-1.3c-2.55,3.9-5.42,6.77-8.66,8.39h-0.43
		c-0.11-0.16-0.05-0.33,0.11-0.49c1.14-1.41,2.71-4.01,4.6-7.8c0.33-1.03,1.03-3.73,1.84-7.96c0.05-0.27,0.16-0.43,0.43-0.43
		c1.73,0.16,3.57,0.49,5.31,0.92c0.76,0.27,1.08,0.6,1.08,1.03c0,0.38-0.27,0.65-0.97,0.76l-2.44,4.17h7.96
		c0.38,0,0.7-0.11,0.87-0.38l2.54-3.14c0.27-0.27,0.54-0.32,0.87-0.05c1.68,1.03,2.98,2.33,4.12,3.9c0.27,0.27,0.32,0.49,0.22,0.7
		c-0.16,0.27-0.43,0.38-0.92,0.38h-12.45c2.38,0.98,4.06,2.38,4.82,4.22c0.43,1.19,0.22,2.49-0.49,3.9
		c1.41,0.49,2.71,1.25,3.95,2.17c0.98,0.7,0.81,1.35-0.43,1.89c-0.33,0.16-0.49,0.43-0.49,0.87v5.41c-0.05,0.65-0.33,1.08-0.76,1.41
		c-0.6,0.32-1.46,0.54-2.55,0.6c-0.76,0-1.3-0.22-1.57-0.6c-0.22-0.32-0.32-0.76-0.32-1.46v-0.65h-10.88v6.23h12.89l0.6-0.33
		l1.73-1.68c0.16-0.16,0.33-0.16,0.6,0c1.35,0.81,2.55,1.73,3.74,2.71c0.43,0.32,0.6,0.7,0.54,1.08c-0.05,0.38-0.33,0.54-0.81,0.7
		l-0.38,0.43c-0.76,4.12-1.79,7.26-3.14,9.2c-1.79,2.33-4.28,3.41-7.25,3.09c0-1.79-0.92-3.2-2.55-4.12
		c-0.54-0.05-0.76-0.33-0.7-0.76c0.11-0.38,0.38-0.54,0.76-0.49c2.87,0.16,4.77-0.22,5.42-1.14c0.87-1.3,1.68-3.74,2.17-7.31h-13.59
		v15.87c-0.05,0.87-0.43,1.41-1.25,1.79c-1.08,0.43-2.11,0.38-3.2-0.16c-0.54-0.32-0.81-0.87-0.81-1.68V39.05
		c-2.06,2.54-4.71,4.87-7.91,6.99c-4.82,2.92-9.47,4.82-13.97,5.74c-0.33,0.11-0.49,0.05-0.54-0.16c-0.05-0.22,0.05-0.38,0.27-0.54
		c3.68-1.52,7.42-3.79,11.26-6.77c3.79-3.09,6.5-6.34,8.01-9.69H123.51z M135.81,26.93h-10.88l-1.03,6.23h11.91V26.93z
		 M141.06,25.52h10.88v-5.14c-0.16-0.27-0.33-0.38-0.6-0.22h-10.29V25.52z"/>
	<path class="st0" d="M172.81,24.06h35.68c0.38,0,0.7-0.16,0.92-0.49l2.76-3.52c0.27-0.33,0.65-0.38,1.03-0.11
		c1.9,1.19,3.47,2.65,4.77,4.39c0.27,0.27,0.33,0.54,0.22,0.76c-0.16,0.27-0.43,0.38-0.92,0.38h-44.45l-3.14,0.49
		c-0.33,0.16-0.54,0.11-0.6-0.16l-0.49-1.9c-0.05-0.27,0.11-0.32,0.54-0.22L172.81,24.06z"/>
	<path class="st0" d="M228.66,17.39h-1.89l-3.41,0.43c-0.22,0.11-0.38,0.05-0.43-0.16l-0.43-1.84c-0.05-0.22,0.11-0.27,0.49-0.22
		l3.79,0.38h1.89V1.37c-0.05-0.11,0-0.16,0.22-0.16c1.9,0.05,3.63,0.33,5.2,0.65c0.7,0.16,1.03,0.43,1.03,0.81
		c0,0.43-0.27,0.76-0.87,0.92c-0.38,0.11-0.6,0.27-0.54,0.6v11.81h0.81c0.33,0,0.6-0.11,0.76-0.38l2-2.71
		c0.27-0.49,0.6-0.54,1.03-0.16c1.08,0.76,1.95,1.9,2.76,3.2c0.32,0.38,0.43,0.76,0.27,1.08c-0.11,0.27-0.38,0.38-0.81,0.38h-6.82
		v17.44c2.06-0.65,4.17-1.46,6.44-2.38c0.38-0.16,0.6-0.16,0.7,0c0.16,0.22,0.11,0.49-0.16,0.76c-1.79,1.52-4.06,2.98-6.82,4.55
		c-4.66,2.27-7.04,3.73-7.04,4.06c-0.11,0.54-0.32,0.87-0.65,0.97c-0.38,0.05-0.7-0.27-1.08-0.97l-1.95-4.39
		c-0.11-0.38,0.05-0.54,0.43-0.6l5.09-0.81V17.39z M255.13,35.8c-0.7,5.04-2.6,8.77-5.69,11.21c-3.68,3.03-8.18,4.82-13.43,5.25
		c-0.27,0-0.38-0.11-0.38-0.27c0-0.22,0.11-0.38,0.38-0.43c1.68-0.43,3.41-1.25,5.36-2.27c5.14-3.03,8.07-7.58,8.83-13.48h-1.9v0.49
		c0,0.87-0.27,1.46-0.81,1.73c-0.7,0.43-1.46,0.65-2.33,0.7c-0.7,0-1.19-0.16-1.57-0.43c-0.27-0.22-0.38-0.6-0.32-1.25V21.67
		c-0.05-0.27,0.05-0.43,0.22-0.38c1.57,0.27,3.14,0.81,4.6,1.68h14.4c0.16,0,0.38-0.11,0.54-0.33l1.3-1.3h0.49
		c1.57,0.54,3.03,1.3,4.44,2.33c0.92,0.65,0.81,1.3-0.38,1.84c-0.33,0.11-0.49,0.38-0.49,0.87v10.83c-0.05,0.54-0.32,1.03-0.81,1.35
		c-0.54,0.32-1.3,0.54-2.44,0.59c-0.65,0-1.19-0.16-1.46-0.54c-0.27-0.38-0.38-0.87-0.33-1.41V35.8h-1.73v9.15
		c0,0.49,0.11,0.98,0.38,1.35c0.27,0.33,1.24,0.49,2.87,0.49c2.6-0.11,4.11-0.32,4.39-0.54c0.6-0.81,1.25-2.33,1.68-4.49
		c0.11-0.27,0.32-0.43,0.6-0.38c0.22,0,0.32,0.16,0.38,0.49c-0.16,2.44,0.11,3.95,0.87,4.39c0.92,0.43,1.3,1.14,1.3,2.17
		c0,0.87-0.54,1.52-1.73,2c-1.3,0.6-3.79,0.87-7.58,0.92c-3.85,0-6.23-0.49-7.04-1.62c-0.81-0.92-1.19-1.95-1.19-3.03V35.8H255.13z
		 M259.9,10.63c0-0.38,0.16-0.54,0.38-0.49c1.68,0.16,3.19,0.43,4.71,0.76c0.92,0.16,1.35,0.54,1.41,1.03
		c0,0.49-0.32,0.76-0.97,0.87c-0.33,0.05-0.65,0.27-0.98,0.76c-1.3,1.84-2.76,3.47-4.44,4.77h4.12c0.38,0,0.65-0.16,0.87-0.43
		l2.71-3.36c0.27-0.27,0.6-0.32,0.97-0.11c1.79,1.08,3.3,2.55,4.55,4.22c0.27,0.27,0.33,0.54,0.22,0.76
		c-0.16,0.27-0.43,0.32-0.92,0.32h-28.59l-3.14,0.49c-0.32,0.16-0.54,0.11-0.6-0.16l-0.49-1.9c-0.05-0.27,0.11-0.33,0.54-0.22
		l3.68,0.38h14.4C259.19,15.55,259.74,12.96,259.9,10.63z M252.54,0.93c-0.05-0.11,0.05-0.16,0.27-0.16c1.84,0.05,3.57,0.32,5.2,0.7
		c0.65,0.11,0.98,0.38,0.98,0.76c0,0.43-0.27,0.76-0.87,0.92c-0.32,0.11-0.54,0.32-0.49,0.65v3.95h4.82c0.32,0,0.65-0.16,0.87-0.43
		l2.71-3.41c0.27-0.22,0.6-0.27,0.97-0.05c1.79,1.08,3.3,2.49,4.55,4.22c0.22,0.27,0.27,0.49,0.16,0.7
		c-0.11,0.27-0.38,0.38-0.87,0.38h-26.1l-3.08,0.49c-0.33,0.16-0.54,0.11-0.6-0.16l-0.54-1.9c-0.05-0.27,0.11-0.32,0.6-0.22
		l3.63,0.38h7.8V0.93z M245.12,10.09c0.05-0.16,0.22-0.27,0.49-0.22l1.41,0.33c2.22,0.49,3.85,1.62,4.77,3.3
		c0.38,0.92,0.38,1.79,0,2.82c-0.32,0.87-0.87,1.35-1.73,1.52c-1.79,0.33-2.82-0.6-3.03-2.82c0-1.84-0.54-3.3-1.73-4.44
		L245.12,10.09z M263.36,28.87v-4.33c-0.16-0.27-0.32-0.33-0.6-0.16h-13.59l-0.87,0.16v4.33H263.36z M263.36,34.4v-4.06h-15.05v4.06
		H263.36z"/>
</g>
</svg>
