<?xml version="1.0" encoding="utf-8"?>
<!-- Generator: Adobe Illustrator 23.0.3, SVG Export Plug-In . SVG Version: 6.00 Build 0)  -->
<svg version="1.1" id="圖層_1" xmlns="http://www.w3.org/2000/svg" xmlns:xlink="http://www.w3.org/1999/xlink" x="0px" y="0px"
	 viewBox="0 0 105 32" style="enable-background:new 0 0 105 32;" xml:space="preserve">
<g>
	<g>
		<path d="M3.8,7.3v3c0.2,1.2,2,1.9,5.4,1.9l4.5,0c0.3,0,0.5,0.3,0.5,0.8c0,0.5-0.2,0.7-0.5,0.8l-3.7,0c-3.5,0-5.7-0.5-6.7-1.5
			c-1.2,1.2-1.9,1.8-2.2,1.8c-0.2,0-0.3-0.1-0.4-0.1c-0.2-0.1-0.4-0.4-0.5-0.8c0-0.2,0.1-0.4,0.2-0.6c0.7-0.6,1.2-1.1,1.8-1.5V8.4
			c0-0.2-0.1-0.3-0.3-0.3H0.9C0.5,8,0.3,7.8,0.3,7.3c0-0.5,0.1-0.8,0.5-0.8h2.3C3.5,6.5,3.8,6.8,3.8,7.3z M1.9,3.2
			c0.5,0.2,1,0.5,1.5,0.8c0.3,0.3,0.5,0.5,0.5,0.7c0,0.6-0.3,0.9-0.8,0.9c-0.3,0-0.5-0.1-0.7-0.3C2,5.1,1.6,4.8,1.2,4.6
			C0.9,4.4,0.7,4.2,0.7,3.9c0-0.4,0.2-0.7,0.6-0.9C1.5,3.1,1.7,3.1,1.9,3.2z M2.1,0.5C2.6,0.7,3.1,1,3.6,1.3C3.9,1.6,4.1,1.8,4.1,2
			c0,0.6-0.3,0.9-0.8,0.9c-0.3,0-0.5-0.1-0.7-0.3C2.3,2.4,1.8,2.1,1.3,1.9C1,1.7,0.9,1.5,0.9,1.2c0-0.4,0.2-0.7,0.6-0.9
			C1.7,0.3,1.9,0.4,2.1,0.5z M7.2,6.4c-0.1,2.4-0.5,4-1.3,4.7c-0.2,0.2-0.3,0.3-0.5,0.3c-0.5,0-0.8-0.3-0.9-0.8c0-0.2,0-0.4,0.1-0.5
			c0.7-1,1-2.4,1.1-4.1V2c0-0.7,0.3-1.1,1-1.2c2.6-0.1,4.5-0.3,5.5-0.7c0.6,0,0.9,0.3,0.9,0.7c0,0.5-0.1,0.8-0.4,0.8
			c-0.5,0.3-2.2,0.5-5.2,0.7c-0.1,0-0.2,0.1-0.2,0.3v1.4h6.6c0.3,0,0.4,0.3,0.4,0.7c0,0.6-0.2,0.9-0.5,0.9h-2.4v5.9
			c0,0.4-0.3,0.6-0.8,0.6c-0.6,0-0.8-0.2-0.8-0.5V5.5H7.2V6.4z"/>
		<path d="M16.1,2.7v-2c0-0.3,0.3-0.5,0.8-0.5s0.7,0.2,0.7,0.5v1.9h0.7c0.3,0.1,0.5,0.4,0.5,0.8c0,0.5-0.2,0.8-0.5,0.8h-0.6v2.4
			c0.2-0.1,0.4-0.2,0.7-0.4c0.2,0,0.4,0.1,0.5,0.2C18.9,6.7,19,6.9,19,7.2c0,0.3-0.1,0.4-0.2,0.5c-0.1,0.2-0.5,0.5-1.2,0.8v4.1
			c0,0.6-0.2,0.9-0.7,1c-0.2,0-0.5,0.1-1,0.1c-0.8,0-1.2-0.3-1.2-0.8c0-0.3,0-0.5,0.2-0.7c0.1-0.1,0.3-0.2,0.6-0.2
			c0.1,0.1,0.2,0.1,0.3,0.1c0.3,0,0.4-0.1,0.4-0.4V9.1c-0.3,0.1-0.7,0.2-1,0.2c-0.3,0-0.5-0.1-0.6-0.4c-0.1-0.2-0.1-0.4-0.1-0.7
			c0-0.2,0.1-0.4,0.3-0.4c0.5-0.1,1-0.3,1.4-0.5V4.3h-1c-0.4,0-0.5-0.3-0.5-0.8c0-0.4,0.1-0.6,0.5-0.7H16.1z M21.2,3.2
			c0,0.1,0,0.2-0.1,0.3c-0.4,1-0.8,1.6-1,1.9c0.1,0.2,0.3,0.4,0.5,0.7c0.3-0.7,0.6-1.4,0.9-2.2c0.1-0.1,0.3-0.2,0.5-0.2
			c0.3,0.1,0.5,0.1,0.5,0.3c0.1,0.1,0.2,0.2,0.2,0.4c-0.8,2-1.6,3.6-2.3,4.7C20.8,9,21.2,9,21.6,8.9c0-0.3,0.1-0.5,0.1-0.8
			c0.1-0.2,0.4-0.4,0.7-0.4c0.3,0.1,0.4,0.1,0.5,0.2c0.1,0.1,0.1,0.3,0.1,0.4c-0.1,1.5-0.4,2.7-1.1,3.5c-0.9,1-1.9,1.6-3.2,1.8
			c-0.2,0-0.3-0.1-0.5-0.2C18,13.3,18,13.1,18,12.8c0-0.2,0.1-0.4,0.4-0.5c1.2-0.3,2-0.8,2.5-1.4c0.1-0.1,0.2-0.3,0.3-0.5
			c-0.2,0-0.3,0.1-0.5,0.1c-0.7,0.2-1.3,0.3-2,0.4c-0.4,0-0.5-0.2-0.6-0.7c0-0.3,0.1-0.6,0.3-0.8c0.2,0,0.3,0,0.5-0.1
			c0.4-0.6,0.8-1.2,1.2-1.9c-0.1,0-0.2-0.1-0.2-0.2c-0.3-0.4-0.7-0.9-1.2-1.5c-0.3-0.2-0.4-0.4-0.4-0.5c0-0.1,0-0.2,0.1-0.3
			c0.1-0.3,0.4-0.5,0.7-0.5c0.1,0,0.2,0.1,0.3,0.1c0-0.1,0.1-0.2,0.1-0.3c0.5-0.9,0.7-1.4,0.8-1.4c0.1-0.1,0.2-0.1,0.4-0.1
			C20.9,2.8,21.1,2.9,21.2,3.2z M22.5,1.1V0.7c0-0.3,0.3-0.5,0.8-0.6c0.6,0,0.9,0.2,0.9,0.6v0.4h3.7c0.3,0.1,0.4,0.3,0.4,0.7
			c0,0.5-0.2,0.7-0.5,0.7h-8.8c-0.3,0-0.5-0.3-0.5-0.8c0-0.4,0.1-0.6,0.4-0.7H22.5z M22.9,7.2c-0.5,0-0.8-0.2-0.8-0.7
			c0-0.1,0-0.2,0.1-0.4c0.6-0.8,1.1-1.8,1.4-3c0.1-0.3,0.3-0.4,0.6-0.4c0.2,0,0.4,0.1,0.5,0.1C24.9,2.9,25,3.1,25,3.2
			c-0.1,0.4-0.1,0.7-0.2,1h0.8L26.2,3c0.1-0.1,0.2-0.2,0.4-0.2c0.2,0,0.4,0,0.5,0.1c0.1,0.1,0.1,0.2,0.2,0.3c0,0.1,0.1,0.2,0.1,0.4
			l-0.3,0.7h0.8c0.3,0,0.4,0.3,0.4,0.7c0,0.5-0.1,0.8-0.4,0.8h-0.9v1.1h0.9c0.2,0,0.4,0.2,0.4,0.6c0,0.5-0.1,0.7-0.4,0.7h-0.9v1.4
			h0.9c0.2,0,0.4,0.2,0.4,0.6c0,0.5-0.1,0.7-0.4,0.7h-0.9v1.4h1c0.3,0,0.4,0.2,0.4,0.7c0,0.4-0.1,0.6-0.4,0.6h-3.8
			c-0.6,0-0.9-0.3-0.9-0.8V7.1C23.1,7.2,23,7.2,22.9,7.2z M25.5,5.6h-1v1.1h1V5.6z M25.5,8.1h-1v1.4h1V8.1z M25.5,10.8h-1v1.1
			c0.1,0.2,0.2,0.3,0.4,0.3h0.6V10.8z"/>
		<path d="M81,2.9c0,0.4-0.6,1.5-1.9,3.3c-0.7,1.1-1.1,1.6-1.5,1.6c-0.5,0-0.8-0.2-1-0.7c0-0.2,0.1-0.4,0.2-0.6c1.1-1.6,2-3,2.7-4.3
			C79.8,2.1,79.9,2,80.1,2C80.7,2.1,81,2.4,81,2.9z M86.1,9.7c-0.5-0.7-0.8-1.2-0.9-1.4c-0.1-0.1-0.1-0.3-0.1-0.5
			c0-0.4,0.3-0.7,0.9-0.8c0.2,0,0.4,0.2,0.7,0.4c1.2,1.8,2.3,3.5,3.1,5.1c0.1,0.2,0.2,0.4,0.2,0.6c0,0.5-0.3,0.7-0.9,0.8
			c-0.3,0-0.5-0.1-0.7-0.4c-0.2-0.4-0.4-0.8-0.7-1.2C85,12.7,82,13,78.9,13.2c-0.6,0-1,0-1.2,0c-0.4,0-0.6-0.3-0.6-0.8
			c0-0.3,0.1-0.6,0.3-0.8c0.5,0,1,0,1.5,0c0,0,0-0.1,0-0.1c1-1.8,2-3.9,3.1-6.3c0.1-0.1,0.3-0.2,0.6-0.2c0.6,0.1,0.9,0.4,0.9,0.9
			c0,0.4-0.4,1.5-1.3,3.2c-0.5,1.1-0.9,1.9-1.2,2.4c2-0.1,4-0.3,6-0.6C86.6,10.5,86.4,10.1,86.1,9.7z M85.7,0.5c0.6,0,1,0.3,1.3,0.8
			c0.8,1.6,1.9,3.2,3.3,4.9c0.1,0.3,0.2,0.5,0.2,0.6c0,0.6-0.3,0.9-0.9,0.9c-0.2,0-0.4-0.1-0.6-0.3c-1-1.3-2-2.9-3.1-4.9
			c-0.2-0.3-0.4-0.5-0.6-0.5h-3.9c-0.4,0-0.6-0.3-0.6-0.8c0-0.4,0.2-0.7,0.5-0.8H85.7z"/>
		<path d="M93,0.5v3.9c0.8-0.5,1.4-1,1.8-1.5c0.2-0.2,0.4-0.3,0.5-0.3C95.8,2.8,96,3,96.1,3.4c0,0.2-0.1,0.4-0.2,0.5
			c-0.4,0.6-1.2,1.2-2.3,1.9c-0.3,0.2-0.5,0.3-0.7,0.4v4.4c0,0.4,0.1,0.5,0.3,0.5h0.5c0.4,0,0.6-0.1,0.6-0.4c0-0.6,0.1-1.3,0.1-1.9
			c0.1-0.3,0.3-0.4,0.7-0.4c0.4,0,0.7,0.2,0.7,0.5c0,1.9-0.1,2.8-0.2,2.8c-0.2,0.6-0.7,0.9-1.6,0.9h-1.8c-0.5,0-0.8-0.4-0.9-1.2V0.5
			c0.1-0.2,0.3-0.4,0.8-0.4C92.7,0.1,93,0.2,93,0.5z M99,2.8L99.3,2h-3c-0.3,0-0.5-0.3-0.5-0.8c0-0.4,0.1-0.6,0.4-0.7h7.9
			c0.3,0.1,0.4,0.3,0.4,0.8c0,0.5-0.1,0.8-0.4,0.8h-3.1l-0.3,0.8h2.6c0.6,0,0.9,0.3,1,0.9v6.5c0,0.7-0.3,1-1,1h-1.3
			c1,0.4,1.7,0.8,2.3,1.1c0.3,0.2,0.4,0.4,0.4,0.6c0,0.5-0.2,0.9-0.6,0.9c-0.2,0-0.3,0-0.4-0.1c-0.8-0.4-1.6-0.9-2.4-1.3
			c-0.2-0.1-0.4-0.2-0.4-0.4c0-0.3,0.1-0.6,0.3-0.8h-1.7c0,0,0,0,0,0c0.2,0.2,0.3,0.4,0.3,0.7c0,0.3-0.1,0.4-0.2,0.5
			c-0.1,0.2-0.6,0.5-1.6,0.8c-0.6,0.3-1.2,0.4-1.7,0.5c-0.3,0-0.5-0.1-0.6-0.4c-0.1-0.2-0.1-0.4-0.1-0.7c0-0.2,0.1-0.4,0.2-0.4
			c1.2-0.3,2.1-0.6,2.9-1h-1.4c-0.6,0-1-0.3-1-1V3.7c0-0.6,0.3-0.9,1-0.9H99z M102.7,5.1V4.6c0-0.2-0.1-0.3-0.3-0.3h-4.3
			c-0.2,0-0.3,0.1-0.3,0.2v0.5H102.7z M102.7,7.4V6.5h-4.9v0.8H102.7z M102.7,8.8h-4.9v0.7c0,0.2,0.1,0.3,0.3,0.3h4.3
			c0.2,0,0.3-0.1,0.3-0.4V8.8z"/>
	</g>
	<g>
		<path d="M6.4,21.1v-2.8c0.1-0.3,0.4-0.5,0.8-0.5c0.6,0,0.9,0.2,0.9,0.6v2.7h5.4c0.3,0.1,0.4,0.3,0.4,0.9c0,0.6-0.2,0.9-0.5,0.9
			H8.4c0.4,1.4,1.1,2.7,2.1,3.9c0.9,1.1,2.1,2.2,3.5,3.4c0.1,0.1,0.2,0.2,0.2,0.4c0,0.6-0.3,1-0.8,1.2c-0.1,0-0.3,0-0.4-0.1
			c-0.5-0.1-1.6-1.2-3.2-3c-1-1.2-1.8-2.4-2.4-3.6c-0.6,1.5-1.4,2.7-2.3,3.6c-2,2-3.3,3.1-3.9,3.1c-0.2,0-0.4,0-0.4-0.1
			c-0.3-0.2-0.4-0.5-0.4-0.9c0-0.2,0.1-0.4,0.2-0.5c2.1-1.4,3.6-2.9,4.5-4.4c0.6-0.9,1-1.8,1.2-2.9H1c-0.4,0-0.6-0.3-0.6-0.9
			c0-0.4,0.1-0.7,0.4-0.8H6.4z"/>
		<path d="M20.2,18.4c0.1,0.1,0.2,0.3,0.2,0.5c-0.8,1.4-1.6,2.5-2.3,3.3c2.3-0.1,4.5-0.3,6.8-0.5c-0.4-0.4-0.8-0.9-1.2-1.4
			c-0.3-0.3-0.4-0.5-0.4-0.6c0.1-0.4,0.4-0.7,0.9-0.9c0.1,0,0.3,0.1,0.4,0.1c1.1,1,2.3,2.3,3.6,3.9c0.1,0.1,0.2,0.3,0.2,0.4
			c0,0.6-0.3,1-0.9,1c-0.2,0-0.4-0.1-0.5-0.3c-0.2-0.3-0.5-0.5-0.7-0.8c-3,0.4-6.2,0.6-9.7,0.8c-0.7,0-1,0-1.2,0
			c-0.4,0-0.6-0.3-0.6-0.8c0-0.3,0.1-0.6,0.3-0.8c0.4,0,0.7,0,1.1,0c1-1.1,1.9-2.4,2.8-4c0.1-0.2,0.3-0.3,0.6-0.3
			C19.9,18.2,20.1,18.3,20.2,18.4z M26.1,24.9c0.6,0,1,0.3,1.1,1v4.5c0,0.7-0.3,1.1-1,1.1h-9.2c-0.7,0-1-0.4-1-1.1v-4.6
			c0-0.7,0.4-1,1-1H26.1z M25.5,26.9c0-0.2-0.1-0.4-0.3-0.4h-7.4c-0.2,0-0.3,0.1-0.4,0.3v2.8c0,0.2,0.2,0.3,0.4,0.3h7.4
			c0.2,0,0.3-0.1,0.3-0.4V26.9z"/>
		<path d="M34.6,18.4v12.9c0,0.4-0.3,0.6-0.8,0.6c-0.6,0-0.8-0.2-0.8-0.6v-3c-0.3,0.2-0.5,0.5-0.8,0.7c-1.4,1.2-2.3,1.7-2.5,1.7
			c-0.3,0-0.5-0.1-0.6-0.3c-0.1-0.2-0.1-0.4-0.2-0.6c0-0.2,0.1-0.4,0.3-0.7c0.7-0.5,1.6-1.1,2.5-1.8c0.6-0.5,1.1-0.9,1.4-1.2v-3.5
			h-3.7c-0.4,0-0.5-0.3-0.5-0.9c0-0.5,0.1-0.7,0.5-0.8h3.7v-2.7c0-0.4,0.3-0.5,0.8-0.5C34.3,17.9,34.6,18,34.6,18.4z M37.8,18.3v4.1
			c0.7-0.5,1.8-1.5,3.2-2.8c0.1-0.1,0.2-0.1,0.4-0.1c0.4,0.1,0.7,0.4,0.8,0.9c0,0.2,0,0.3-0.1,0.3c-1.2,1.3-2.6,2.6-4.3,3.7v4.8
			c0,0.4,0.2,0.6,0.5,0.6H40c0.4,0,0.7-0.1,0.7-0.4c0-0.8,0.1-1.5,0.1-2.3c0.1-0.3,0.4-0.4,0.8-0.4c0.5,0,0.8,0.2,0.8,0.6
			c0,2.1-0.1,3.1-0.2,3.1c-0.2,0.7-0.8,1.1-1.7,1.1h-3c-0.7,0-1.2-0.4-1.3-1.2v-12c0.1-0.2,0.3-0.4,0.8-0.4
			C37.6,17.9,37.8,18.1,37.8,18.3z"/>
		<path d="M55.6,18.3c0.7,0,1,0.3,1.1,0.9c0,0.6-0.5,2.2-1.4,4.8c0,0.1,0,0.3,0.1,0.3c1,1.5,1.4,2.8,1.4,3.9c0,1.7-0.8,2.6-2.4,2.6
			c-0.6,0-1-0.1-1.2-0.3v0.7c0,0.4-0.3,0.5-0.7,0.5c-0.5,0-0.7-0.2-0.7-0.5v-4.4c-0.1,0-0.1,0-0.2,0c-0.2,0-0.4-0.1-0.5-0.3
			c-0.1-0.1-0.2-0.3-0.3-0.4v4.9c0,0.5-0.2,0.7-0.7,0.7h-4.8c-0.5,0-0.7-0.2-0.8-0.7v-4.2C44.3,26.9,44.1,27,44,27
			c-0.4,0-0.7-0.3-0.9-0.9c0-0.2,0.1-0.3,0.2-0.4c1.3-0.6,2.5-1.2,3.4-2h-3c-0.3,0-0.5-0.3-0.5-0.8c0-0.4,0.1-0.6,0.4-0.7h2.7v-1.2
			H44c-0.3,0-0.5-0.3-0.5-0.8c0-0.4,0.1-0.7,0.4-0.7h2.4v-0.8c0-0.3,0.3-0.5,0.8-0.5c0.5,0,0.8,0.2,0.8,0.5v0.7H50
			c0.1-0.3,0.2-0.6,0.3-0.9c0.1-0.1,0.3-0.2,0.4-0.2c0.5,0.1,0.8,0.2,0.8,0.5c0,0.2,0,0.4-0.1,0.5c-0.3,1-0.7,2-1.3,2.9h1.1
			c0.3,0,0.4,0.3,0.4,0.7c0,0.5-0.1,0.8-0.4,0.8h-0.9c0.3,0.2,0.8,0.7,1.4,1.4v-5.9c0-0.5,0.3-0.8,0.9-0.9H55.6z M45.9,26.8v0.7h3.4
			v-0.7c0-0.1-0.1-0.3-0.2-0.3h-2.9C46,26.6,45.9,26.7,45.9,26.8z M45.9,28.9v1c0,0.2,0.1,0.3,0.3,0.3H49c0.2,0,0.3-0.1,0.3-0.3v-1
			H45.9z M47.3,25.1h2.6c-0.1-0.1-0.1-0.2-0.2-0.3c-0.3-0.3-0.4-0.4-0.4-0.6c0-0.1,0-0.2,0-0.3c0.1-0.1,0.2-0.3,0.3-0.4H49
			C48.5,24.1,47.9,24.6,47.3,25.1z M49.2,20.9h-1.4v1.2h0.5C48.6,21.7,48.9,21.3,49.2,20.9z M53.7,29.2c0.3,0.1,0.6,0.1,1,0.2
			c0.4,0,0.7-0.4,0.7-1.3c-0.1-1.1-0.6-2.2-1.4-3.3c-0.1-0.1-0.2-0.3-0.2-0.5c0-0.2,0-0.4,0.2-0.7c0.4-1.2,0.8-2.3,1.1-3.5
			c0-0.2-0.1-0.3-0.3-0.3h-1.2c-0.2,0-0.3,0.1-0.3,0.3v9.3C53.3,29.2,53.5,29.2,53.7,29.2z"/>
		<path d="M58,22.3c-0.5,0-0.7-0.4-0.7-1.1c0.1-0.1,0.2-0.3,0.4-0.5c2.2-0.6,4.1-1.4,5.6-2.4c0.4-0.3,0.7-0.4,1-0.5
			c0.3,0,0.6,0.1,1,0.4c2.6,1.4,4.4,2.2,5.6,2.4c0.3,0.1,0.5,0.3,0.5,0.6c0,0.7-0.3,1-0.8,1c-0.7,0-1.8-0.4-3.5-1.2
			c0,0.4-0.2,0.6-0.5,0.6H62c-0.3,0-0.4-0.2-0.5-0.6C60,21.8,58.8,22.2,58,22.3z M59.3,26.2c-0.6-0.1-0.9-0.4-0.9-1v-2.3
			c0.1-0.5,0.4-0.7,0.9-0.8H69c0.7,0.1,1,0.4,1,1v2.1c0,0.7-0.4,1-1,1.1H59.3z M60.1,31.7c-0.6-0.1-0.9-0.4-0.9-1v-3.3
			c0.1-0.5,0.4-0.7,0.8-0.8h8.2c0.7,0.1,1,0.4,1,1v3.1c0,0.7-0.3,1-1,1.1H60.1z M59.9,23.5v1.2c0,0.1,0.1,0.2,0.2,0.2h1.4
			c-0.2-0.2-0.3-0.5-0.5-0.8c-0.1-0.1-0.2-0.2-0.2-0.3c0-0.1,0-0.2,0-0.3c0-0.1,0.1-0.1,0.1-0.2h-0.8C60,23.4,59.9,23.4,59.9,23.5z
			 M60.7,28v0.4h7.2v-0.4c0-0.1-0.1-0.2-0.3-0.2h-6.7C60.8,27.9,60.7,28,60.7,28z M60.7,29.7v0.5c0,0.1,0.1,0.2,0.2,0.2h6.7
			c0.2,0,0.3-0.1,0.3-0.2v-0.5H60.7z M62.5,24.2c0.1,0.2,0.2,0.3,0.2,0.4c0,0.1,0,0.2,0,0.3h0.9v-1.5H62
			C62.1,23.6,62.3,23.9,62.5,24.2z M64.5,19.7c-0.2-0.1-0.3-0.1-0.5-0.1c-0.4,0.2-0.8,0.4-1.1,0.6h2.6
			C65.2,20.1,64.9,19.9,64.5,19.7z M64.9,24.9h0.4c0-0.1-0.1-0.1-0.1-0.2c0-0.1,0-0.2,0.1-0.3c0.4-0.3,0.8-0.7,1.1-1.1h-1.5V24.9z
			 M67.6,23.5c0,0.1,0,0.3,0,0.4c-0.1,0.2-0.3,0.4-0.5,0.6c-0.1,0.1-0.3,0.3-0.4,0.3h1.6c0.2,0,0.3-0.1,0.3-0.2v-1.2
			c0-0.1-0.1-0.2-0.3-0.2h-0.8C67.6,23.4,67.6,23.5,67.6,23.5z"/>
		<path d="M75.9,20.8c0,0.4-0.6,1.5-1.9,3.3c-0.7,1.1-1.1,1.6-1.5,1.6c-0.5,0-0.8-0.2-1-0.7c0-0.2,0.1-0.4,0.2-0.6
			c1.1-1.6,2-3,2.7-4.3c0.1-0.1,0.3-0.2,0.5-0.2C75.6,20,75.9,20.3,75.9,20.8z M81,27.6c-0.5-0.7-0.8-1.2-0.9-1.4
			C80,26.1,80,25.9,80,25.7c0-0.4,0.3-0.7,0.9-0.8c0.2,0,0.4,0.2,0.7,0.4c1.2,1.8,2.3,3.5,3.1,5.1c0.1,0.2,0.2,0.4,0.2,0.6
			c0,0.5-0.3,0.7-0.9,0.8c-0.3,0-0.5-0.1-0.7-0.4c-0.2-0.4-0.4-0.8-0.7-1.2c-2.7,0.4-5.7,0.6-8.8,0.8c-0.6,0-1,0-1.2,0
			c-0.4,0-0.6-0.3-0.6-0.8c0-0.3,0.1-0.6,0.3-0.8c0.5,0,1,0,1.5,0c0,0,0-0.1,0-0.1c1-1.8,2-3.9,3.1-6.3c0.1-0.1,0.3-0.2,0.6-0.2
			c0.6,0.1,0.9,0.4,0.9,0.9c0,0.4-0.4,1.5-1.3,3.2c-0.5,1.1-0.9,1.9-1.2,2.4c2-0.1,4-0.3,6-0.6C81.5,28.4,81.3,28,81,27.6z
			 M80.6,18.4c0.6,0,1,0.3,1.3,0.8c0.8,1.6,1.9,3.2,3.3,4.9c0.1,0.3,0.2,0.5,0.2,0.6c0,0.6-0.3,0.9-0.9,0.9c-0.2,0-0.4-0.1-0.6-0.3
			c-1-1.3-2-2.9-3.1-4.9c-0.2-0.3-0.4-0.5-0.6-0.5h-3.9c-0.4,0-0.6-0.3-0.6-0.8c0-0.4,0.2-0.7,0.5-0.8H80.6z"/>
		<path d="M98.2,18.2c0.6,0,1,0.3,1,0.9v11.4c0,0.7-0.3,1.1-1,1.1h-11c-0.7,0-1-0.4-1-1V19.2c0-0.6,0.3-0.9,1-0.9H98.2z M97.7,20.1
			c0-0.2-0.1-0.3-0.3-0.4h-3.9c0,0.1,0.1,0.2,0.1,0.2v0.2h3.1c0.2,0,0.3,0.3,0.3,0.7c0,0.4-0.1,0.7-0.4,0.7h-3.1v0.3h3.6
			c0.2,0,0.3,0.3,0.3,0.6c0,0.4-0.1,0.6-0.4,0.6h-8.7c-0.3,0-0.4-0.2-0.4-0.7c0-0.3,0.1-0.5,0.3-0.6h3.9v-0.3h-3.3
			c-0.3,0-0.4-0.2-0.4-0.7c0-0.3,0.1-0.5,0.3-0.6h3.4V20c0-0.1,0-0.2,0-0.2h-4.1c-0.2,0-0.3,0.1-0.3,0.3v9.8c0,0.2,0.1,0.3,0.3,0.3
			h9.3c0.2,0,0.3-0.1,0.3-0.4V20.1z M94,26.5c0.2,0.4,0.5,0.7,0.8,1c0,0,0,0,0-0.1c0.2-0.1,0.6-0.3,1.2-0.7c0.3-0.2,0.5-0.4,0.6-0.4
			c0.2,0,0.4,0.1,0.5,0.2c0.2,0.2,0.3,0.4,0.3,0.6c0,0.1-0.1,0.3-0.2,0.4c-0.3,0.3-0.7,0.5-1.1,0.8c0.3,0.1,0.5,0.2,0.8,0.3
			c0.3,0.1,0.5,0.2,0.5,0.4c0,0.6-0.2,1-0.7,1c-0.3,0-0.6-0.1-0.8-0.2c-1.6-0.7-2.8-1.7-3.4-3.2h-0.3v3c0,0.3-0.2,0.5-0.6,0.5
			c-0.5,0-0.7-0.1-0.7-0.5v-1.6c-0.5,0.4-1.1,0.9-1.8,1.2c-0.3,0.1-0.5,0.2-0.7,0.2c-0.4,0-0.5-0.3-0.5-0.9c0-0.2,0.1-0.3,0.2-0.5
			c1-0.4,1.8-0.9,2.3-1.4h-0.9c-0.6-0.1-0.9-0.4-0.9-0.9v-1.4c0.1-0.4,0.4-0.6,0.8-0.7h6.2c0.7,0.1,1,0.4,1,0.9v1.1
			c0,0.6-0.3,0.9-1,0.9H94z M90.1,24.9v0.3c0,0.1,0.1,0.2,0.2,0.2H95c0.2,0,0.3,0,0.3-0.2v-0.3c0-0.1-0.1-0.1-0.3-0.1h-4.8
			C90.2,24.7,90.1,24.8,90.1,24.9z"/>
	</g>
</g>
</svg>
