<?xml version="1.0" encoding="utf-8"?>
<!-- Generator: Adobe Illustrator 23.0.3, SVG Export Plug-In . SVG Version: 6.00 Build 0)  -->
<svg version="1.1" id="圖層_1" xmlns="http://www.w3.org/2000/svg" xmlns:xlink="http://www.w3.org/1999/xlink" x="0px" y="0px"
	 viewBox="0 0 105 32" style="enable-background:new 0 0 105 32;" xml:space="preserve">
<g>
	<g>
		<path d="M14.4,0.8c0.3,0.1,0.4,0.3,0.4,0.8c0,0.5-0.2,0.8-0.5,0.8h-5v3.4h4.8c0.3,0,0.5,0.3,0.5,0.8c0,0.6-0.2,0.9-0.5,0.9H9.3
			v4.4h5.2c0.3,0.1,0.4,0.3,0.4,0.8c0,0.6-0.2,0.8-0.5,0.8H1.6c-0.4,0-0.6-0.3-0.6-0.9c0-0.4,0.1-0.7,0.4-0.8h1.6l0-7.5
			c0-0.4,0.3-0.5,0.8-0.5c0.5,0,0.8,0.2,0.8,0.6v7.5h3V2.4H1.9c-0.4,0-0.5-0.3-0.5-0.9c0-0.4,0.1-0.7,0.4-0.8H14.4z"/>
		<path d="M18.4,9.1V8.2H16c-0.3,0-0.5-0.3-0.5-0.8c0-0.4,0.1-0.6,0.4-0.7H17C17,6.4,16.8,6.2,16.7,6c-0.1-0.2-0.2-0.4-0.2-0.5
			c-0.1-0.1-0.1-0.2-0.1-0.3h-0.5c-0.3,0-0.5-0.3-0.5-0.8c0-0.4,0.1-0.6,0.4-0.7h1.6V3.2c-0.1,0.1-0.3,0.2-0.5,0.2
			c-0.2,0-0.4-0.1-0.6-0.3c-0.1-0.3-0.3-0.6-0.5-1c-0.1-0.2-0.2-0.3-0.2-0.4c-0.1-0.1-0.1-0.2-0.1-0.4c0-0.4,0.2-0.6,0.7-0.7
			c0.2,0,0.4,0.1,0.6,0.4c0.2,0.4,0.4,0.8,0.6,1.2V0.6c0-0.3,0.2-0.4,0.7-0.5c0.5,0,0.7,0.2,0.7,0.5v3.1h1.1v-3
			c0-0.3,0.2-0.4,0.6-0.5c0.5,0,0.7,0.2,0.7,0.5v1.5c0.3-0.4,0.7-0.8,1-1.3c0.1-0.1,0.2-0.2,0.3-0.2c0,0,0.1,0,0.2,0
			c0.4,0.1,0.6,0.3,0.6,0.6c0,0.3-0.2,0.7-0.7,1.3c-0.4,0.5-0.7,0.8-0.8,0.8c-0.3,0-0.5-0.1-0.7-0.3v0.7h1.5C23,3.8,23.2,4,23.2,4.5
			c0,0.5-0.1,0.8-0.4,0.8h-0.8c0,0.1,0,0.3-0.1,0.3c-0.2,0.5-0.4,0.8-0.5,1.1h1.4c0.3,0,0.4,0.3,0.4,0.7c0,0.5-0.1,0.8-0.4,0.8h-2.7
			v0.9h2.5c0.2,0,0.4,0.3,0.4,0.7c0,0.5-0.1,0.7-0.4,0.7h-2.4v1.3c0.9-0.1,1.6-0.3,2.2-0.5c0.2-0.1,0.4-0.1,0.5-0.2
			c0.2,0,0.4,0.1,0.5,0.2c0.1,0.2,0.2,0.4,0.2,0.7c0,0.1-0.1,0.2-0.1,0.3c-0.1,0.1-0.2,0.2-0.4,0.3c-1.2,0.5-3.4,0.9-6.6,1.2
			c-0.2,0-0.4,0-0.4-0.1c-0.3-0.1-0.4-0.4-0.4-0.9c0-0.2,0.1-0.4,0.3-0.5c1-0.1,2-0.2,2.8-0.3v-1.6h-2.3c-0.3,0-0.5-0.3-0.5-0.8
			c0-0.4,0.1-0.6,0.4-0.7H18.4z M19.9,6.1c0.2-0.4,0.4-0.7,0.5-0.9H18c0.2,0.4,0.4,0.8,0.5,1.3c0,0.1,0.1,0.1,0.1,0.2h1
			C19.7,6.5,19.8,6.3,19.9,6.1z M26.4,3.2V0.7c0-0.3,0.3-0.4,0.8-0.4c0.4,0,0.7,0.1,0.7,0.4v2.5h0.8c0.3,0.1,0.5,0.4,0.5,0.8
			c0,0.5-0.2,0.8-0.5,0.8h-0.8v6.5c0,1.4-0.2,2.2-0.7,2.4c-0.2,0.2-0.6,0.3-1.1,0.3c-1.5,0-2.3-0.4-2.4-1.1c0-0.2,0-0.4,0.1-0.7
			c0.1-0.1,0.3-0.2,0.5-0.3c0.6,0.2,1.2,0.4,1.7,0.4c0.3,0,0.4-0.4,0.4-1.2V4.7h-2.5c-0.4,0-0.5-0.3-0.5-0.8c0-0.4,0.1-0.6,0.5-0.7
			H26.4z M24.8,6.1c0.2,0.4,0.6,1.4,1.1,3c0.1,0.2,0.1,0.5,0.2,1c0,0.5-0.3,0.7-0.9,0.7c-0.4,0-0.6-0.2-0.7-0.6
			c-0.3-1.5-0.7-2.6-1-3.3c-0.1-0.1-0.1-0.2-0.1-0.3c0-0.5,0.3-0.8,0.8-0.9C24.4,5.7,24.7,5.9,24.8,6.1z"/>
		<path d="M92.4,4.2V0.6c0-0.3,0.2-0.5,0.7-0.5c0.5,0,0.7,0.2,0.7,0.5v3.6h1c0.3,0.1,0.4,0.3,0.4,0.8c0,0.5-0.2,0.8-0.5,0.8h-0.9
			l0,4.5c0.6-0.4,0.9-0.5,1-0.5c0.3,0,0.4,0.1,0.5,0.1c0.2,0.1,0.3,0.4,0.3,0.7c0,0.2-0.1,0.4-0.2,0.4c-0.3,0.3-0.8,0.7-1.8,1.3
			c-1.3,0.8-2.1,1.2-2.4,1.2c-0.3,0-0.5-0.1-0.6-0.3c-0.1-0.2-0.1-0.4-0.2-0.6c0-0.2,0.1-0.4,0.3-0.7c0.5-0.2,1.1-0.5,1.7-0.9l0-5.3
			h-1.2c-0.3,0-0.5-0.3-0.5-0.8c0-0.4,0.1-0.6,0.5-0.7H92.4z M103.6,0.6c0.3,0,0.4,0.3,0.4,0.7c0,0.5-0.1,0.7-0.4,0.7h-3.4v5.8h3.9
			c0.3,0.1,0.4,0.3,0.4,0.8c0,0.5-0.1,0.7-0.4,0.7h-3.8v4.3c0,0.4-0.2,0.5-0.7,0.5c-0.5,0-0.8-0.2-0.8-0.5V9.3h-3.3
			c-0.3,0-0.5-0.3-0.5-0.8c0-0.4,0.1-0.6,0.4-0.7h3.4V2h-3.1C95.2,2,95,1.8,95,1.2c0-0.4,0.1-0.6,0.4-0.7H103.6z M97.8,2.8
			C97.9,2.9,98,3.1,98,3.3c-0.2,1.4-0.7,2.7-1.6,3.7c-0.1,0.3-0.3,0.4-0.6,0.4c-0.6,0-0.9-0.3-0.9-0.8c0-0.1,0-0.3,0.1-0.5
			c0.7-0.8,1.2-1.8,1.5-3c0.1-0.3,0.3-0.4,0.6-0.4C97.5,2.7,97.7,2.7,97.8,2.8z M102.3,3c0.6,1.1,1.1,2.1,1.5,3.1
			c0.1,0.2,0.2,0.4,0.2,0.5c0,0.5-0.3,0.7-0.8,0.8c-0.3,0-0.5-0.1-0.7-0.4c-0.3-0.8-0.7-1.6-1.1-2.4c-0.2-0.4-0.4-0.7-0.4-0.9
			c-0.1-0.1-0.1-0.3-0.1-0.4c0-0.4,0.3-0.7,0.8-0.7C101.8,2.6,102,2.7,102.3,3z"/>
	</g>
	<g>
		<path d="M9.1,22.1c0,0.4-0.2,0.9-0.6,1.7c0,0,0,0.1,0,0.1c0.4,1.3,0.9,2.4,1.5,3.3c0.8-0.9,1.4-2,1.8-3.2
			c-0.1-0.1-0.2-0.3-0.2-0.4c-0.3-0.5-0.5-0.8-0.6-1c-0.1-0.1-0.1-0.3-0.1-0.4c0-0.4,0.3-0.7,0.8-0.7c0.2,0,0.4,0.2,0.7,0.4
			c0.8,1.2,1.4,2.3,1.9,3.5c0.1,0.2,0.2,0.4,0.2,0.5c0,0.5-0.3,0.7-0.8,0.8c-0.3,0-0.5-0.1-0.7-0.4c-0.1-0.2-0.2-0.4-0.3-0.7
			c-0.4,1-0.9,1.9-1.6,2.7c0.7,0.7,1.5,1.1,2.3,1.5c0.6,0.3,1,0.6,1,1c0,0.5-0.2,0.8-0.7,0.8c-0.3,0-0.7-0.1-1.2-0.3
			c-1-0.5-1.8-1.1-2.5-1.8c-0.9,0.8-1.9,1.5-3.1,2.1c-0.2,0.2-0.4,0.3-0.6,0.3c-0.4,0-0.7-0.3-0.9-0.9c0-0.2,0.1-0.3,0.2-0.5
			C7,29.8,8.1,29.1,9,28.3c-0.6-0.8-1.1-1.6-1.4-2.6c-0.2,0.4-0.4,0.6-0.5,0.7c-0.1,0.1-0.3,0.2-0.5,0.2c-0.2-0.1-0.4-0.1-0.5-0.3
			c-0.2-0.1-0.2-0.3-0.2-0.6c0,0,0-0.1,0.1-0.2c-0.1,0.1-0.3,0.1-0.5,0.1c-0.2,0-0.4-0.1-0.5-0.4c-0.1-0.4-0.3-0.8-0.4-1.2v7.2
			c0,0.4-0.3,0.6-0.7,0.6c-0.5,0-0.8-0.2-0.8-0.5V25c-0.4,1-0.8,1.7-1.1,2.2c-0.1,0.1-0.2,0.1-0.4,0.1c-0.4,0-0.7-0.3-0.8-0.8
			c0-0.2,0-0.4,0.2-0.5c0.9-1.3,1.6-2.6,2-4H1.3c-0.4,0-0.5-0.3-0.5-0.8c0-0.4,0.1-0.6,0.5-0.7h1.8v-1.8c0-0.3,0.3-0.5,0.8-0.5
			c0.5,0,0.7,0.2,0.7,0.5v1.8h1.3c0.3,0.1,0.5,0.4,0.5,0.8c0,0.5-0.2,0.8-0.5,0.8H4.6c0.7,1.1,1.2,2,1.5,2.7c0,0.1,0.1,0.1,0.1,0.2
			C6.4,24.4,6.7,24,7,23.3c0.5-1.2,0.7-1.8,0.8-1.9c0.1-0.1,0.3-0.2,0.6-0.2C8.9,21.4,9.1,21.7,9.1,22.1z M9.7,19.5v-0.9
			c0-0.3,0.2-0.5,0.7-0.6c0.5,0,0.8,0.2,0.8,0.6v0.9h2.9c0.3,0.1,0.5,0.4,0.5,0.8c0,0.5-0.2,0.8-0.5,0.8H6.9c-0.4,0-0.5-0.3-0.5-0.8
			c0-0.4,0.1-0.6,0.5-0.7H9.7z"/>
		<path d="M27.3,18.3c0.6,0,1,0.3,1,0.9v11.4c0,0.7-0.3,1.1-1,1.1h-11c-0.7,0-1-0.4-1-1V19.3c0-0.6,0.3-0.9,1-0.9H27.3z M26.7,20.2
			c0-0.2-0.1-0.3-0.3-0.4h-3.9c0,0.1,0.1,0.2,0.1,0.2v0.2h3.1c0.2,0,0.3,0.3,0.3,0.7c0,0.4-0.1,0.7-0.4,0.7h-3.1V22h3.6
			c0.2,0,0.3,0.3,0.3,0.6c0,0.4-0.1,0.6-0.4,0.6h-8.7c-0.3,0-0.4-0.2-0.4-0.7c0-0.3,0.1-0.5,0.3-0.6h3.9v-0.3H18
			c-0.3,0-0.4-0.2-0.4-0.7c0-0.3,0.1-0.5,0.3-0.6h3.4v-0.2c0-0.1,0-0.2,0-0.2h-4.1c-0.2,0-0.3,0.1-0.3,0.3v9.8
			c0,0.2,0.1,0.3,0.3,0.3h9.3c0.2,0,0.3-0.1,0.3-0.4V20.2z M23,26.6c0.2,0.4,0.5,0.7,0.8,1c0,0,0,0,0-0.1c0.2-0.1,0.6-0.3,1.2-0.7
			c0.3-0.2,0.5-0.4,0.6-0.4c0.2,0,0.4,0.1,0.5,0.2c0.2,0.2,0.3,0.4,0.3,0.6c0,0.1-0.1,0.3-0.2,0.4c-0.3,0.3-0.7,0.5-1.1,0.8
			c0.3,0.1,0.5,0.2,0.8,0.3c0.3,0.1,0.5,0.2,0.5,0.4c0,0.6-0.2,1-0.7,1c-0.3,0-0.6-0.1-0.8-0.2c-1.6-0.7-2.8-1.7-3.4-3.2h-0.3v3
			c0,0.3-0.2,0.5-0.6,0.5c-0.5,0-0.7-0.1-0.7-0.5v-1.6c-0.5,0.4-1.1,0.9-1.8,1.2c-0.3,0.1-0.5,0.2-0.7,0.2c-0.4,0-0.5-0.3-0.5-0.9
			c0-0.2,0.1-0.3,0.2-0.5c1-0.4,1.8-0.9,2.3-1.4h-0.9c-0.6-0.1-0.9-0.4-0.9-0.9v-1.4c0.1-0.4,0.4-0.6,0.8-0.7h6.2
			c0.7,0.1,1,0.4,1,0.9v1.1c0,0.6-0.3,0.9-1,0.9H23z M19.1,24.9v0.3c0,0.1,0.1,0.2,0.2,0.2h4.8c0.2,0,0.3,0,0.3-0.2V25
			c0-0.1-0.1-0.1-0.3-0.1h-4.8C19.3,24.8,19.2,24.9,19.1,24.9z"/>
		<path d="M31.5,23.3c-0.4-0.4-0.8-0.9-1.2-1.5c-0.3-0.3-0.4-0.4-0.4-0.6c0.1-0.4,0.4-0.7,0.8-0.8c0.1,0,0.3,0,0.4,0.1
			c0.3,0.3,0.6,0.6,1,0.9c0.2-0.2,0.4-0.4,0.6-0.7c0.3-0.4,0.5-0.8,0.5-1c0-0.1,0-0.1-0.1-0.1h-3c-0.4,0-0.5-0.3-0.5-0.8
			c0-0.4,0.2-0.7,0.5-0.7h4.4c0.4,0.1,0.6,0.3,0.7,0.8c0,0.8-0.4,1.6-1.2,2.5c-0.3,0.4-0.6,0.7-0.9,0.9c0,0,0.1,0.1,0.1,0.1
			c0.1,0.1,0.2,0.3,0.2,0.3c0,0.1,0,0.2,0,0.3h1.2c0.8,0,1.1,0.4,1.1,1.2c-0.1,0.9-0.4,1.9-1,3.1c-0.1,0.2-0.2,0.3-0.5,0.3
			c-0.5,0-0.8-0.3-0.8-0.8c0,0,0-0.1,0.1-0.2c0.3-0.9,0.5-1.5,0.6-1.8c0-0.2-0.1-0.3-0.2-0.3h-0.7v5.7c0,0.8-0.5,1.2-1.6,1.2
			c-0.4,0-0.9-0.1-1.3-0.2c-0.4-0.2-0.7-0.5-0.7-0.8c0.1-0.5,0.3-0.7,0.6-0.7c0.3,0,0.6,0.1,1,0.2c0.3,0,0.5-0.1,0.5-0.4v-5.1h-1.6
			c-0.3,0-0.5-0.3-0.5-0.7c0-0.4,0.1-0.7,0.4-0.7H31.5z M37.8,20.7l0.3-0.8h-2.5c-0.3,0-0.5-0.3-0.5-0.8c0-0.4,0.1-0.6,0.4-0.7h6.8
			c0.2,0,0.4,0.3,0.4,0.7c0,0.5-0.1,0.7-0.4,0.7h-2.8l-0.3,0.8h2.1c0.5,0,0.8,0.3,0.9,0.9V28c0,0.7-0.3,1-0.9,1h-1
			c0,0,0.1,0.1,0.1,0.1c0.7,0.4,1.3,0.9,1.9,1.4c0.2,0.1,0.3,0.3,0.3,0.5c0,0.6-0.3,0.9-0.7,0.9c-0.2,0-0.3-0.1-0.5-0.2
			c-0.6-0.5-1.1-1-1.7-1.3c-0.3-0.2-0.5-0.4-0.5-0.7c0.1-0.3,0.2-0.6,0.4-0.7h-1.6c0.1,0.2,0.2,0.4,0.2,0.6c0,0.2-0.1,0.3-0.3,0.4
			c-0.7,0.6-1.4,1.2-2.4,1.7c-0.1,0-0.3,0.1-0.4,0.1c-0.4,0-0.7-0.3-0.8-0.8c0-0.2,0.1-0.4,0.2-0.5c0.2-0.1,0.9-0.5,1.8-1.1
			c0.2-0.1,0.3-0.2,0.4-0.3h-0.5c-0.6,0-0.9-0.3-0.9-1v-6.5c0-0.6,0.3-0.9,0.9-0.9H37.8z M40.9,22.9v-0.5c0-0.2-0.1-0.3-0.3-0.4
			h-3.4c-0.2,0-0.3,0.1-0.3,0.3v0.6H40.9z M40.9,25.2v-0.9h-4v0.9H40.9z M40.9,26.6h-4v0.7c0,0.2,0.1,0.3,0.3,0.3h3.4
			c0.2,0,0.3-0.1,0.3-0.4V26.6z"/>
		<path d="M54.3,22.1c0.3,0.1,0.4,0.3,0.4,0.8c0,0.5-0.2,0.8-0.5,0.8h-2.9v2h4.8c0.3,0,0.4,0.3,0.4,0.7c0,0.5-0.2,0.8-0.5,0.8h-4.7
			V30c0.4,0.1,0.9,0.2,1.5,0.2c1,0,2.3-0.1,3.9-0.2c0.2,0,0.3,0.2,0.4,0.4c0,0.1,0.1,0.4,0.1,0.7c0,0.4-0.3,0.7-0.9,0.7
			c-0.9,0-1.9,0-3,0c-3.2,0-5.4-0.9-6.7-2.6c-0.5,0.9-1.1,1.7-1.8,2.4c-0.2,0.1-0.3,0.2-0.5,0.2c-0.5,0-0.8-0.3-1-0.8
			c0-0.2,0.1-0.3,0.2-0.5c1.4-1.4,2.3-3.3,2.8-5.8c0.1-0.2,0.3-0.3,0.5-0.4c0.2,0,0.4,0,0.6,0.1c0.2,0.1,0.3,0.3,0.3,0.6
			c-0.1,0.9-0.3,1.8-0.5,2.5c0.7,0.9,1.5,1.5,2.5,1.9v-5.7h-3.4c-0.4,0-0.5-0.3-0.5-0.8c0-0.4,0.1-0.6,0.4-0.7H54.3z M51.2,18.6v0.8
			H56c0.7,0.1,1.1,0.5,1.1,1.3c-0.2,1.5-0.4,2.3-0.6,2.4c-0.1,0.1-0.2,0.2-0.4,0.2c-0.7-0.1-1-0.4-1-0.8c0-0.1,0.1-0.5,0.4-1.2
			c0-0.2-0.1-0.3-0.3-0.3h-9.4c-0.2,0-0.3,0.1-0.4,0.2v1.4c0,0.4-0.3,0.6-0.8,0.6c-0.4,0-0.7-0.1-0.8-0.4v-2.7
			c0.1-0.4,0.4-0.7,0.8-0.7h4.9v-0.9c0-0.3,0.3-0.5,0.8-0.6C50.9,18,51.2,18.2,51.2,18.6z"/>
		<path d="M59.3,21.3v-2.7c0-0.4,0.3-0.5,0.8-0.5c0.5,0,0.8,0.2,0.8,0.5v2.7h1c0.3,0.1,0.4,0.4,0.4,0.8c0,0.5-0.2,0.8-0.5,0.8h-1
			l0,5.4c0.5-0.3,0.8-0.4,0.9-0.4c0.3,0,0.5,0.1,0.5,0.2c0.2,0.1,0.3,0.4,0.3,0.7c0,0.2-0.1,0.4-0.2,0.5c-0.2,0.3-0.8,0.6-1.7,1.1
			c-1.2,0.7-2,1-2.2,1c-0.3,0-0.5-0.1-0.6-0.3c-0.1-0.2-0.1-0.4-0.2-0.6c0-0.2,0.1-0.4,0.3-0.7c0.4-0.2,0.9-0.4,1.4-0.6l0-6.2h-1
			c-0.3,0-0.5-0.3-0.5-0.8c0-0.4,0.1-0.6,0.4-0.7H59.3z M67.5,18.5v2.4l2.6-1.2c0.4,0,0.6,0.2,0.7,0.6c0,0.5,0.1,1.8,0.1,3.9
			c0,0.9-0.1,1.6-0.1,1.9c-0.1,0.5-0.2,0.8-0.5,1c-0.3,0.3-0.8,0.4-1.7,0.5c-0.3,0-0.5-0.1-0.6-0.3c-0.1-0.2-0.1-0.4-0.1-0.6
			c0-0.4,0.1-0.6,0.3-0.7c0.7-0.1,1.1-0.2,1.1-0.5c0.1-0.1,0.1-1.3,0.1-3.5c0-0.2-0.1-0.3-0.3-0.3l-1.6,0.7v5.6
			c0,0.4-0.2,0.5-0.7,0.6c-0.5,0-0.8-0.2-0.8-0.5v-4.9l-1.5,0.7v4.8c0,0.7,0.3,1.1,0.9,1.2c0.7,0.1,1.2,0.2,1.6,0.2
			c0.6,0,1.1,0,1.6-0.1c0.8,0,1.2-0.4,1.2-1v-1c0.1-0.3,0.3-0.4,0.8-0.4c0.5,0,0.8,0.2,0.8,0.4v1.4c0,1.3-0.6,2-1.9,2.2
			c-0.7,0.1-1.4,0.1-2.3,0.1c-1.5,0-2.6-0.2-3.1-0.4c-0.7-0.2-1-0.9-1-2.1l0-4.5l-0.5,0.3c-0.4,0-0.7-0.3-0.7-0.9
			c0-0.2,0.1-0.4,0.2-0.5l1-0.5v-3.5c0-0.2,0.3-0.3,0.7-0.4c0.5,0,0.7,0.1,0.8,0.4v2.8l1.5-0.7v-3.1c0-0.3,0.3-0.5,0.8-0.5
			C67.3,18,67.5,18.2,67.5,18.5z"/>
	</g>
</g>
</svg>
