<?xml version="1.0" encoding="utf-8"?>
<!-- Generator: Adobe Illustrator 23.0.3, SVG Export Plug-In . SVG Version: 6.00 Build 0)  -->
<svg version="1.1" id="圖層_1" xmlns="http://www.w3.org/2000/svg" xmlns:xlink="http://www.w3.org/1999/xlink" x="0px" y="0px"
	 viewBox="0 0 1200 628" style="enable-background:new 0 0 1200 628;" xml:space="preserve">
<style type="text/css">
	.st0{fill:#FFFFFF;}
</style>
<g>
	<path class="st0" d="M584.35,160.45h-95.09c-0.41,0-0.75-0.34-0.75-0.75s0.34-0.75,0.75-0.75h95.09c0.41,0,0.75,0.34,0.75,0.75
		S584.76,160.45,584.35,160.45z"/>
</g>
<g>
	<path class="st0" d="M583.94,201.33h-95.09c-0.41,0-0.75-0.34-0.75-0.75s0.34-0.75,0.75-0.75h95.09c0.41,0,0.75,0.34,0.75,0.75
		S584.35,201.33,583.94,201.33z"/>
</g>
<g>
	<ellipse class="st0" cx="489.26" cy="159.7" rx="5.94" ry="5.8"/>
</g>
<g>
	<ellipse class="st0" cx="488.26" cy="200.58" rx="5.94" ry="5.8"/>
</g>
<g>
	<ellipse class="st0" cx="515.41" cy="251.27" rx="5.94" ry="5.8"/>
</g>
<g>
	<path class="st0" d="M486.22,287.57H166.68c-0.41,0-0.75-0.34-0.75-0.75s0.34-0.75,0.75-0.75h319.19l29.78-35.13
		c0.14-0.17,0.35-0.27,0.57-0.27h0.59c0.41,0,0.75,0.34,0.75,0.75s-0.34,0.75-0.75,0.75h-0.25l-29.78,35.13
		C486.65,287.47,486.44,287.57,486.22,287.57z"/>
</g>
<g>
	<ellipse class="st0" cx="166.27" cy="286.66" rx="5.94" ry="5.8"/>
</g>
<g>
	<path class="st0" d="M107.87,560.84c-0.41,0-0.75-0.34-0.75-0.75V354.33c0-0.41,0.34-0.75,0.75-0.75s0.75,0.34,0.75,0.75v205.76
		C108.62,560.5,108.28,560.84,107.87,560.84z"/>
</g>
<g>
	<path class="st0" d="M107.87,307.59c-0.41,0-0.75-0.34-0.75-0.75V101.09c0-0.41,0.34-0.75,0.75-0.75s0.75,0.34,0.75,0.75v205.76
		C108.62,307.26,108.28,307.59,107.87,307.59z"/>
</g>
<g>
	<g>
		<path class="st0" d="M95.32,323.96l-2.64,1.1v-1.52l4.22-1.74v13.18h2.43v1.52h-6.46v-1.52h2.45V323.96z"/>
	</g>
	<g>
		<path class="st0" d="M107.7,333.81c0.38-0.71,0.65-1.67,0.82-2.85c-0.74,0.77-1.54,1.16-2.41,1.16c-1.06,0-1.94-0.43-2.59-1.29
			c-0.72-0.98-1.08-2.17-1.08-3.56c0-1.52,0.33-2.8,0.95-3.86c0.76-1.2,1.76-1.8,3-1.8c1.33,0,2.32,0.59,2.96,1.76
			c0.61,1.06,0.91,2.69,0.91,4.91c-0.02,0.04-0.02,0.07-0.02,0.13c-0.02,2.48-0.46,4.46-1.26,5.97c-0.85,1.54-2.09,2.3-3.74,2.32
			c-0.8,0-1.44-0.19-2-0.52l0.36-1.28c0.57,0.3,1.14,0.45,1.63,0.45C106.25,335.33,107.07,334.81,107.7,333.81z M108.72,327.97
			c0-1.65-0.21-2.91-0.65-3.82c-0.4-0.83-0.95-1.24-1.69-1.24c-0.76,0-1.35,0.39-1.75,1.19c-0.44,0.82-0.65,1.87-0.65,3.17
			c0,1.09,0.23,1.96,0.66,2.61c0.42,0.56,0.91,0.83,1.44,0.83c0.74,0,1.37-0.37,1.9-1.07c0.39-0.52,0.65-1,0.7-1.43
			C108.71,328.12,108.71,328.04,108.72,327.97z"/>
	</g>
	<g>
		<path class="st0" d="M122.17,337.76h-1.69v-6.82c-2.2,2.47-4.5,4.28-6.88,5.43l-1.14-1.37c3-1.52,5.51-3.47,7.51-5.86h-6.92v-1.58
			h7.43v-6.84h1.69v6.84h7.53v1.58h-7c1.81,2.39,4.28,4.41,7.43,6.04l-1.31,1.22c-2.6-1.58-4.83-3.41-6.65-5.49V337.76z
			 M115.48,321.56c0.99,1.06,2,2.45,3.02,4.21l-1.37,0.87c-1.1-1.82-2.09-3.19-2.97-4.15L115.48,321.56z M128.44,322.32
			c-0.67,1.32-1.62,2.8-2.91,4.43l-1.35-0.89c1.31-1.73,2.26-3.19,2.83-4.36L128.44,322.32z"/>
	</g>
</g>
<g>
	<polygon class="st0" points="108.18,311.94 114.61,301.08 101.75,301.08 	"/>
</g>
<g>
	<polygon class="st0" points="108.18,348.07 101.75,358.94 114.61,358.94 	"/>
</g>
<g>
	<path class="st0" d="M118.09,101.84H97.88c-0.41,0-0.75-0.34-0.75-0.75s0.34-0.75,0.75-0.75h20.21c0.41,0,0.75,0.34,0.75,0.75
		S118.5,101.84,118.09,101.84z"/>
</g>
<g>
	<g>
		<path class="st0" d="M593.61,161.04c0.5-0.22,1.02-0.43,1.54-0.66l0.21,0.92c-1.47,0.69-3.04,1.39-4.26,1.93l-0.41-1.04
			c0.53-0.18,1.21-0.46,1.93-0.77v-4.31h-1.67v-0.99h1.67v-3.18h0.98v3.18h1.5v0.99h-1.5V161.04z M601.65,164.31
			c0.81,0,0.95-0.38,1.05-1.99c0.25,0.18,0.64,0.35,0.94,0.39c-0.17,1.92-0.49,2.54-1.95,2.54h-3.45c-1.58,0-2.06-0.38-2.06-1.89
			v-4.4l-1.11,0.46l-0.41-0.91l1.51-0.63v-3.81h0.99v3.38l1.88-0.78v-3.89h0.99v3.47l2.13-0.9l0.8,0.27l-0.06,0.17
			c-0.14,1.98-0.38,4.55-0.73,6.14l-0.85-0.25c0.24-1.27,0.42-3.35,0.53-5.11l-1.82,0.77v5.14h-0.99v-4.72l-1.88,0.8v4.83
			c0,0.76,0.18,0.94,1.09,0.94H601.65z"/>
	</g>
	<g>
		<path class="st0" d="M611.46,154.84v2.49l0.18-0.21c1.67,0.8,3.87,2.06,4.97,2.9l-0.73,0.94c-0.95-0.78-2.83-1.93-4.43-2.79v7.37
			h-1.11v-10.7H605v-1.04h12.37v1.04H611.46z"/>
	</g>
	<g>
		<path class="st0" d="M630.57,156.25h-2.2l0.76,0.24c-0.18,0.24-0.36,0.48-0.55,0.7h1.97v3.64h-8.7v-3.64h2.03
			c-0.14-0.25-0.32-0.49-0.5-0.7l0.64-0.24h-2.87v1.23c0,2.34-0.2,5.74-1.57,8.01c-0.2-0.18-0.64-0.43-0.91-0.53
			c1.33-2.19,1.44-5.25,1.44-7.48v-4.06h10.45V156.25z M629.53,154.26h-8.38v1.15h8.38V154.26z M622.5,161.46h7.52v4.08h-1.04v-0.42
			h-5.48v0.45h-1.01V161.46z M622.82,160.17h2.83v-2.33h-2.83V160.17z M624.06,158.08c0.41,0.43,0.83,1.05,1.01,1.46l-0.66,0.38
			c-0.2-0.41-0.6-1.05-0.99-1.51L624.06,158.08z M623.51,162.16v0.8h5.48v-0.8H623.51z M628.99,164.41v-0.81h-5.48v0.81H628.99z
			 M627.57,157.18c0.22-0.31,0.48-0.66,0.63-0.94h-3.96c0.24,0.28,0.5,0.64,0.66,0.94H627.57z M629.55,157.84h-2.91v2.33h2.91
			V157.84z M627.24,159.59c0.31-0.41,0.73-1.09,0.95-1.53l0.67,0.35c-0.32,0.56-0.71,1.12-1.04,1.5L627.24,159.59z"/>
	</g>
</g>
<g>
	<g>
		<path class="st0" d="M594.99,196.39c-0.29,0.57-0.67,1.18-1.08,1.77v6.89h-1.02v-5.58c-0.49,0.57-1.04,1.09-1.58,1.54
			c-0.13-0.22-0.39-0.63-0.57-0.84c1.3-1.05,2.61-2.73,3.25-4.15L594.99,196.39z M593.07,194.08c-0.46,0.78-0.99,1.48-1.51,2.02
			c-0.15-0.18-0.52-0.53-0.73-0.69c0.88-0.8,1.67-2.02,2.14-3.25l0.91,0.24c-0.11,0.28-0.22,0.56-0.36,0.84h3.56v0.84h-2.63
			c0.46,0.41,1.04,0.95,1.32,1.32l-0.7,0.57c-0.28-0.39-0.88-1.02-1.39-1.48l0.55-0.41H593.07z M602.7,199.82
			c-0.7,1.05-1.64,1.95-2.72,2.7c0.62,0.92,1.32,1.46,2.05,1.46c0.41-0.01,0.56-0.52,0.63-1.92c0.24,0.21,0.6,0.41,0.88,0.49
			c-0.18,1.95-0.57,2.45-1.58,2.45c-1.11,0-2.07-0.71-2.86-1.91c-1.16,0.71-2.47,1.3-3.78,1.74c-0.13-0.22-0.43-0.66-0.64-0.88
			c1.42-0.39,2.77-0.97,3.95-1.67c-0.41-0.83-0.74-1.82-0.99-2.9l-2.94,0.27l-0.1-0.97l2.87-0.25c-0.14-0.73-0.21-1.51-0.25-2.31
			h1.05c0.03,0.78,0.11,1.53,0.22,2.24l4.69-0.41l0.1,0.92l-4.61,0.41c0.22,0.91,0.52,1.72,0.84,2.41c0.91-0.64,1.67-1.39,2.23-2.24
			L602.7,199.82z M598.91,194.08c-0.41,0.7-0.87,1.34-1.34,1.82c-0.17-0.17-0.58-0.48-0.79-0.62c0.83-0.76,1.53-1.92,1.89-3.12
			l0.97,0.22c-0.1,0.29-0.21,0.57-0.34,0.87h4.2v0.83h-3.04c0.52,0.38,1.11,0.9,1.41,1.25l-0.69,0.62
			c-0.31-0.38-0.92-0.97-1.46-1.37l0.6-0.49H598.91z M599.96,196.04c0.79,0.35,1.84,0.9,2.41,1.22l-0.57,0.73
			c-0.59-0.36-1.63-0.94-2.41-1.3L599.96,196.04z"/>
	</g>
	<g>
		<path class="st0" d="M613.29,195.86c0.34,4.72,1.44,8.12,2.83,8.12c0.38,0,0.55-0.77,0.63-2.63c0.24,0.24,0.63,0.46,0.92,0.57
			c-0.18,2.42-0.57,3.14-1.64,3.14c-2.28,0-3.45-4.02-3.81-9.2H605v-1.01h7.16c-0.04-0.83-0.06-1.68-0.07-2.54h1.09
			c0,0.87,0.01,1.71,0.06,2.54h4.15v1.01H613.29z M609.01,202.79c0.98-0.21,1.99-0.41,3-0.63l0.08,0.91
			c-2.37,0.57-4.93,1.16-6.71,1.55l-0.32-1.02c0.78-0.15,1.81-0.36,2.93-0.59v-4.06h-2.49v-1.01h6.14v1.01h-2.62V202.79z
			 M616.08,194.68c-0.41-0.49-1.27-1.25-1.99-1.75l0.7-0.57c0.71,0.48,1.6,1.19,2.02,1.67L616.08,194.68z"/>
	</g>
	<g>
		<path class="st0" d="M628.53,199.82c0.78,0.92,1.97,1.74,3.15,2.16c-0.24,0.2-0.53,0.56-0.69,0.8c-1.36-0.56-2.72-1.72-3.56-2.96
			h-4.38c-0.88,1.3-2.3,2.51-3.66,3.14c-0.15-0.25-0.43-0.6-0.67-0.8c1.16-0.46,2.37-1.34,3.17-2.34h-3.03v-0.88h2.77v-4.47h-2.13
			v-0.87h2.13v-1.34h1.02v1.34h5.08v-1.34h1.05v1.34h2.1v0.87h-2.1v4.47h2.7v0.88H628.53z M625.67,203.77h4.83v0.88h-10.56v-0.88
			h4.69v-1.47h-2.86v-0.85h2.86v-1.18h1.04v1.18h2.93v0.85h-2.93V203.77z M622.66,194.47v0.94h5.08v-0.94H622.66z M622.66,197.16
			h5.08v-0.97h-5.08V197.16z M622.66,198.94h5.08v-0.99h-5.08V198.94z"/>
	</g>
	<g>
		<path class="st0" d="M634.58,203.28v1.12h-0.8v-5.2c-0.24,0.45-0.49,0.85-0.79,1.22c-0.06-0.24-0.28-0.78-0.45-1.05
			c0.98-1.32,1.63-3.29,2-5.42h-1.64v-0.97h4.17v0.97h-1.6c-0.22,1.16-0.52,2.3-0.88,3.33h2.28v6H634.58z M636.14,198.21h-1.55v4.13
			h1.55V198.21z M641.84,203.8c0.28,0.03,0.6,0.04,0.92,0.04c0.34,0,2.44,0,2.91-0.01c-0.14,0.22-0.27,0.64-0.31,0.9h-2.66
			c-1.93,0-3.19-0.39-4.01-2c-0.29,0.92-0.76,1.74-1.5,2.33l-0.73-0.66c1.22-0.87,1.62-2.49,1.79-4.29l0.87,0.15
			c-0.04,0.39-0.08,0.78-0.15,1.16c0.39,1.25,1.02,1.88,1.89,2.17v-4.16h-3.54v-0.88h7.26l0.17-0.04l0.66,0.22
			c-0.24,0.7-0.55,1.47-0.81,1.99l-0.78-0.31c0.13-0.27,0.27-0.62,0.39-0.98h-2.37v1.65h3.19v0.85h-3.19V203.8z M638.95,195.59
			c-0.41,0.77-0.94,1.5-1.44,2c-0.11-0.21-0.34-0.55-0.5-0.7c0.6-0.53,1.26-1.47,1.67-2.38h-1.37v-0.83h1.65v-1.41h0.85v1.41h1.34
			v0.83h-1.34v0.17c0.29,0.31,1.16,1.26,1.37,1.51l-0.57,0.64c-0.14-0.28-0.49-0.76-0.8-1.19v2.44h-0.85V195.59z M642.89,195.8
			c-0.41,0.76-0.91,1.47-1.46,1.93c-0.08-0.2-0.31-0.52-0.49-0.69c0.7-0.52,1.39-1.54,1.76-2.55h-1.25v-0.83h1.43v-1.4h0.87v1.4
			h1.75v0.83H644c0.49,0.59,1.47,1.86,1.7,2.23l-0.62,0.7c-0.24-0.48-0.85-1.46-1.32-2.17v2.83h-0.87V195.8z"/>
	</g>
</g>
<g>
	<g>
		<path class="st0" d="M449.51,299.83c-0.18,1.15-0.45,2.17-0.8,3.03c0.9,1.57,2.68,1.79,5.32,1.79c1.47,0,3.5-0.06,4.92-0.18
			c-0.15,0.22-0.29,0.69-0.34,0.97c-1.32,0.08-3.07,0.11-4.59,0.11c-2.84,0-4.61-0.28-5.7-1.86c-0.48,0.91-1.08,1.61-1.76,2.12
			c-0.13-0.21-0.48-0.57-0.69-0.71c1.26-0.87,2.17-2.41,2.61-4.57h-1.36c-0.35,0-0.71,0.08-0.81,0.2v-0.01
			c-0.07-0.24-0.28-0.73-0.39-0.94c0.21-0.06,0.43-0.15,0.66-0.41c0.31-0.32,1.09-1.43,1.67-2.28h-2.14v-0.85h2.73l0.21-0.08
			l0.69,0.32c-0.55,0.8-1.57,2.27-2.33,3.21h1.47l0.18-0.03L449.51,299.83z M448.23,295.69c-0.34-0.59-1.06-1.57-1.64-2.27l0.8-0.43
			c0.6,0.69,1.3,1.58,1.65,2.16L448.23,295.69z M453.42,295.11h-3.77v-0.88h3.77v-1.23h1.01v1.23h3.98v0.88h-3.98v1.04h3.25v4.51
			h-3.25v1.02h4.17v0.88h-4.17v1.65h-1.01v-1.65h-3.77v-0.88h3.77v-1.02h-3.1v-4.51h3.1V295.11z M451.27,298.02h2.14v-1.09h-2.14
			V298.02z M453.42,299.87v-1.11h-2.14v1.11H453.42z M454.43,296.93v1.09h2.24v-1.09H454.43z M456.67,298.76h-2.24v1.11h2.24V298.76
			z"/>
	</g>
	<g>
		<path class="st0" d="M461.45,302.07c-0.17,1.29-0.42,2.7-0.73,3.6c-0.18-0.08-0.59-0.21-0.81-0.28c0.35-0.91,0.57-2.26,0.7-3.46
			L461.45,302.07z M463.89,301.49c-0.03-0.22-0.07-0.52-0.14-0.81c-2.72,0.42-3.15,0.5-3.39,0.64c-0.04-0.21-0.2-0.66-0.31-0.91
			c0.28-0.06,0.57-0.41,0.97-0.94c0.21-0.24,0.63-0.84,1.12-1.61c-1.39,0.17-1.68,0.21-1.86,0.31c-0.06-0.18-0.21-0.63-0.31-0.87
			c0.22-0.06,0.45-0.36,0.71-0.78c0.28-0.41,1.19-2.03,1.69-3.56l0.9,0.38c-0.56,1.32-1.26,2.69-1.99,3.74l1.37-0.11
			c0.36-0.6,0.69-1.25,0.98-1.89l0.83,0.49c-0.83,1.63-1.86,3.26-2.93,4.57l2.02-0.25c-0.13-0.48-0.25-0.97-0.41-1.39l0.74-0.18
			c0.35,0.97,0.69,2.21,0.79,2.96L463.89,301.49z M462.68,301.87c0.17,1.02,0.34,2.34,0.38,3.22l-0.8,0.14
			c-0.01-0.88-0.17-2.21-0.34-3.24L462.68,301.87z M463.86,301.54c0.31,0.83,0.63,1.9,0.77,2.59l-0.73,0.24
			c-0.13-0.71-0.45-1.79-0.71-2.62L463.86,301.54z M469.88,303.79c1.04,0.38,2.13,0.87,2.84,1.19l-0.43,0.76
			c-0.74-0.36-1.91-0.91-2.94-1.33l0.35-0.62h-2.4l0.74,0.63c-1.06,0.49-2.39,1.04-3.35,1.42c-0.1-0.22-0.28-0.53-0.43-0.74
			c0.91-0.34,2.24-0.9,3-1.3h-2.17v-4.1H472v4.1H469.88z M468.12,294.48h-3.57v-0.73h3.57v-0.76h1.02v0.76h3.42v0.73h-3.42v0.76H472
			v0.7h-6.86v-0.7h2.98V294.48z M464.64,296.51h7.8v2.56h-7.8V296.51z M465.53,298.36h1.58v-1.15h-1.58V298.36z M466.03,300.91h4.99
			v-0.59h-4.99V300.91z M466.03,302.01h4.99v-0.6h-4.99V302.01z M466.03,303.16h4.99v-0.64h-4.99V303.16z M469.38,298.36v-1.15
			h-1.46v1.15H469.38z M471.52,297.21h-1.33v1.15h1.33V297.21z"/>
	</g>
	<g>
		<path class="st0" d="M475.48,298.62c-0.18,0.77-0.46,1.54-0.92,2.17c-0.13-0.21-0.49-0.62-0.67-0.73c0.85-1.22,0.95-2.9,0.95-4.16
			v-2.42h4.9v3.04h-3.99c-0.01,0.31-0.03,0.63-0.07,0.97h4.2v3.07h-4.4V298.62z M486.71,304.46v0.92h-12.62v-0.92h5.79v-1.61h-4.34
			v-0.91h4.34v-1.11h1.04v1.11h4.48v0.91h-4.48v1.61H486.71z M475.76,294.29v1.43h3.03v-1.43H475.76z M476.33,299.76h2.63v-1.47
			h-2.63V299.76z M482.85,297.29h-2.76v-0.84h1.64c-0.07-0.41-0.27-0.95-0.46-1.39l0.76-0.2h-1.58v-0.84h2.51
			c-0.08-0.29-0.21-0.6-0.31-0.87l0.92-0.21c0.18,0.32,0.35,0.73,0.43,1.08h2.35v0.84h-4.26c0.22,0.48,0.45,1.09,0.52,1.5
			l-0.29,0.08h1.74c0.18-0.48,0.42-1.12,0.55-1.55l0.94,0.15c-0.21,0.49-0.42,0.99-0.62,1.4h1.78v0.84h-2.87v1.13h2.56v0.84h-2.56
			v1.58h-0.98v-1.58h-2.52v-0.84h2.52V297.29z"/>
	</g>
</g>
</svg>
