<?xml version="1.0" encoding="utf-8"?>
<!-- Generator: Adobe Illustrator 23.0.3, SVG Export Plug-In . SVG Version: 6.00 Build 0)  -->
<svg version="1.1" id="圖層_1" xmlns="http://www.w3.org/2000/svg" xmlns:xlink="http://www.w3.org/1999/xlink" x="0px" y="0px"
	 viewBox="0 0 113 23" style="enable-background:new 0 0 113 23;" xml:space="preserve">
<style type="text/css">
	.st0{fill:#231815;}
</style>
<g>
	<path class="st0" d="M2.3,3.6H1.4V3.2h0.9V1.6h0.4v1.5h0.9v0.4H2.7v1.7l0.6-0.5l0.2,0.3C3.4,5.2,3.2,5.4,2.8,5.6L2.7,5.7v2.9
		c0,0.1,0,0.2-0.1,0.3C2.6,9,2.5,9,2.5,9C2.2,9.1,1.9,9.1,1.4,8.9V8.5c0.5,0.1,0.8,0.1,0.8,0.1c0.1,0,0.1-0.1,0.1-0.1V5.9L1.6,6.3
		L1.4,6l0.9-0.5V3.6z M3.1,6.8L2.9,6.5c0.8-0.5,1.5-1.2,2-2H4c0,0-0.1,0-0.1-0.1V1.9c0,0,0-0.1,0.1-0.1h4.3c0,0,0.1,0,0.1,0.1v2.6
		c0,0,0,0.1-0.1,0.1h-3L4.7,5.3h3.9h0.1l0.1,0.1v0c0,1.8-0.1,2.8-0.2,3.2C8.4,8.8,8.3,8.9,8.1,9C7.7,9.2,7.1,9.2,6.4,9V8.6
		c0.7,0.1,1.3,0.2,1.5,0c0.1,0,0.2-0.1,0.3-0.3c0.1-0.2,0.2-0.6,0.2-1.1c0-1.1,0-1.6,0-1.6h0H6.5L6.2,6.2c0.5,0.3,0.9,0.6,1.4,1
		L7.4,7.6C7,7.2,6.6,6.9,6.1,6.5C5.7,7,5.3,7.4,5,7.6L4.7,7.3c0.3-0.2,0.6-0.5,0.9-0.8C5.8,6.3,5.9,6,6.1,5.6H4.4L4.2,5.8v2
		c0,0.1,0,0.1,0.1,0.1h3.4v0.4H4c-0.1,0-0.2-0.1-0.2-0.2V6.2C3.6,6.4,3.4,6.6,3.1,6.8z M8,3V2.2l0,0H4.3l0,0V3H8z M4.3,3.4v0.7l0,0
		H8l0,0V3.4H4.3z"/>
	<path class="st0" d="M13.5,1.9v2.2c0,0.1,0,0.1-0.1,0.1h-2.4v4.9h-0.4V1.9c0-0.1,0-0.1,0.1-0.1h2.7C13.4,1.8,13.5,1.9,13.5,1.9z
		 M13.1,2.9V2.3c0-0.1,0-0.1-0.1-0.1h-2c-0.1,0-0.1,0-0.1,0.1v0.6H13.1z M10.9,3.3v0.7H13c0.1,0,0.1,0,0.1-0.1V3.3H10.9z M13.2,7
		v0.1c0,0.8-0.4,1.5-1.2,2l-0.3-0.3c0.2-0.1,0.3-0.2,0.5-0.3c0.4-0.3,0.6-0.8,0.6-1.4V7h-1.4V6.6h1.4V5.4h-1.1V5h4.7v0.4h-1.3v1.2
		h1.4V7h-1.4v2.1h-0.4V7H13.2z M14.8,5.4h-1.5v1.2h1.5V5.4z M14.6,4.4c-0.1,0-0.1,0-0.1-0.1V2c0-0.1,0-0.1,0.1-0.1h2.7
		c0.1,0,0.1,0,0.1,0.1v6.7c0,0.1,0,0.2-0.1,0.2C17.3,9,17.3,9,17.2,9c-0.3,0.1-0.7,0.1-1.3-0.1L16,8.5c0.5,0.1,0.8,0.2,0.9,0.2
		L17,8.6l0-0.1V4.4H14.6z M17,2.9V2.3c0-0.1,0-0.1-0.1-0.1h-2c-0.1,0-0.1,0-0.1,0.1v0.6H17z M14.9,3.3v0.5c0,0.1,0,0.1,0.1,0.1H17
		V3.3H14.9z"/>
	<path class="st0" d="M19.3,5.2l-0.3-0.3c0.6-0.9,1-2,1.2-3.3l0.4,0.1c-0.1,0.8-0.3,1.5-0.6,2v5.4h-0.4V4.6L19.3,5.2z M20.6,6.7
		l-0.3-0.3c1.1-0.9,1.9-2,2.4-3.3h-1.9V2.8h1.4c-0.4-0.4-0.7-0.7-0.9-0.9l0.3-0.3c0.3,0.2,0.6,0.5,0.9,0.9l-0.3,0.3h0.6
		c0.1-0.3,0.3-0.7,0.4-1.2l0.4,0.1l-0.4,1.1h2.5l0.1,0.1c0,0.1,0,0.1,0,0.1l-0.4,1.2h0.6l0.1,0.1c0,0.1,0.1,0.1,0,0.1l-0.4,1.2h0.5
		l0.1,0l0.1,0.1v0c0,1.7-0.1,2.6-0.2,2.9C26.1,8.8,26,8.9,25.8,9c-0.3,0.2-0.8,0.1-1.5,0l0-0.4c0.6,0.2,1,0.2,1.3,0.1
		c0.1-0.1,0.2-0.2,0.3-0.3C26,8.2,26,8,26,7.8c0.1-1.1,0.1-1.7,0-1.8l0,0h-4.6L20.6,6.7z M21.2,6.9c0.2,0.8,0.3,1.5,0.3,2.1l-0.4,0
		c0-0.6-0.2-1.3-0.3-2L21.2,6.9z M25.4,5.5l0.3-1h-3.3c-0.2,0.3-0.5,0.7-0.7,1H25.4z M22.4,6.7c0.2,0.9,0.4,1.5,0.4,1.9l-0.4,0.1
		C22.4,8,22.2,7.4,22,6.8L22.4,6.7z M25.1,4.2l0.3-1h-2.3l-0.1,0.2l-0.4,0.8H25.1z M23.7,6.5c0.3,0.8,0.5,1.4,0.5,1.8l-0.4,0.1
		c-0.1-0.6-0.3-1.2-0.5-1.8L23.7,6.5z M25,6.2c0.3,0.6,0.4,1.1,0.6,1.6l-0.4,0.1c-0.1-0.5-0.3-1-0.5-1.5L25,6.2z"/>
	<path class="st0" d="M30.2,9.2h-0.4V6.4c0-0.1,0-0.1,0.1-0.1h2.2V5.2h-3V4.8h3V3.7H29v1.8c0,0.7-0.1,1.4-0.2,2.1
		c-0.1,0.5-0.2,0.9-0.3,1.3L28,8.7c0.4-0.9,0.6-2.1,0.6-3.3V2c0-0.1,0-0.1,0.1-0.1H35c0.1,0,0.2,0,0.2,0.1v1.6
		c0,0.1-0.1,0.2-0.2,0.2h-2.5v1.1h3v0.4h-3v1.1h2.4c0.1,0,0.1,0,0.1,0.1v2.8h-0.4V8.6h-4.4V9.2z M29,3.3h5.7c0,0,0.1,0,0.1-0.1v-1
		c0,0,0-0.1-0.1-0.1H29c0,0-0.1,0-0.1,0.1V3.3z M34.6,8.3V6.7c0,0,0-0.1-0.1-0.1h-4.3c0,0-0.1,0-0.1,0.1v1.6H34.6z"/>
	<path class="st0" d="M37,5.3l-0.3-0.4c0.7-0.9,1.2-2,1.5-3.4l0.4,0.1c-0.2,0.7-0.4,1.3-0.6,1.8v5.6h-0.4V4.3
		C37.5,4.7,37.3,5,37,5.3z M41.2,5.7H39V5.3h2.2V3h-2.6V2.6h5.6V3h-2.6v2.2H44v0.4h-2.3v2.8h2.7v0.4h-5.8V8.5h2.7V5.7z M41.1,1.5
		c0.2,0.2,0.4,0.5,0.6,0.8l-0.4,0.2c-0.2-0.4-0.4-0.6-0.6-0.8L41.1,1.5z"/>
	<path class="st0" d="M47,3.7h0.4v4.7h2.2v-6H46V2h7v0.4h-3.2V5H53v0.4h-3.1v3h3.4v0.4h-7.6V8.4H47V3.7z"/>
	<path class="st0" d="M59.2,6.7h-2.3v0.8c0.5-0.1,0.9-0.2,1.2-0.3l0.1,0.4c-0.3,0.1-0.7,0.2-1.3,0.3v0.8c0,0.2-0.1,0.3-0.2,0.4
		c-0.2,0.2-0.7,0.2-1.4,0V8.7c0.6,0.1,1,0.2,1.1,0.1c0.1,0,0.1-0.1,0.1-0.2V8c-0.7,0.1-1.3,0.2-1.7,0.2l-0.1-0.4l1.8-0.2V6.7h-1.8
		V6.4h1.8V5.7l-1.4,0.1l-0.1-0.4c1.2,0,2.2-0.1,2.9-0.3L58,5.5c-0.2,0.1-0.6,0.1-1.1,0.2v0.7h2.2c-0.1-0.4-0.2-1-0.3-1.6h-4.1V4.4
		h3.6V3.8h-2.8V3.4h2.8V2.7h-3.3V2.3h2.2c-0.2-0.3-0.4-0.5-0.5-0.6l0.3-0.3c0.2,0.2,0.4,0.4,0.6,0.7l-0.2,0.1h2.1
		c0.3-0.3,0.5-0.6,0.7-0.8l0.3,0.2c-0.1,0.2-0.3,0.4-0.5,0.6h2v0.4h-3.3v0.7h2.8v0.4h-2.8v0.7h3.6v0.4h-3c0.1,0.6,0.2,1.1,0.4,1.6
		h2.5v0.4h-2.4c0.1,0.4,0.3,0.8,0.6,1.1l0.1-0.1c0.3-0.2,0.6-0.4,0.9-0.7l0.2,0.3c-0.5,0.4-0.8,0.6-1,0.7c0.2,0.3,0.4,0.4,0.7,0.6
		c0.2,0.1,0.4,0.2,0.5,0.2c0.1,0,0.1-0.1,0.2-0.2c0.1-0.2,0.1-0.4,0.1-0.8l0.3,0.1c0,0.5-0.1,0.8-0.2,1c-0.1,0.1-0.2,0.2-0.3,0.3
		c-0.2,0.1-0.5,0-0.8-0.2c-0.3-0.2-0.6-0.5-0.9-0.8c-0.8,0.4-1.5,0.6-2.3,0.7l-0.1-0.4c0.6-0.1,1.2-0.2,1.8-0.5l0.4-0.1
		C59.5,7.6,59.3,7.2,59.2,6.7z M60.4,5.2c0.5,0.2,0.8,0.4,1,0.5L61.2,6c-0.4-0.3-0.8-0.4-1-0.5L60.4,5.2z"/>
	<path class="st0" d="M64.2,9.2h-0.4V2.9c0-0.1,0-0.1,0.1-0.1h0.8l0.4-1.1l0.4,0.1l-0.3,1h1.3c0.1,0,0.1,0,0.1,0.1v6.3h-0.4V8.6
		h-2.1V9.2z M66.3,5.5V3.2c0,0,0-0.1-0.1-0.1h-2c0,0-0.1,0-0.1,0.1v2.3H66.3z M64.2,5.9v2.3h2.1V5.9H64.2z M67.3,4.3L67,4.1
		c0.3-0.4,0.5-0.9,0.7-1.6v0c0.1-0.3,0.1-0.6,0.2-0.9l0.4,0.1l-0.2,0.8h2.6l0.1,0l0.1,0.1l0,0.2c0,1.8,0,3.2-0.1,4.2
		c-0.1,1.1-0.4,1.8-0.8,2c-0.4,0.3-1.2,0.3-2.2-0.1V8.4c1,0.3,1.7,0.3,2,0.1c0.4-0.2,0.6-1.1,0.6-2.6c0.1-1.9,0.1-3,0-3l0,0H68
		C67.8,3.4,67.6,3.9,67.3,4.3z M68.5,4.2c0.4,1,0.7,1.9,0.9,2.7L69.1,7c-0.2-0.9-0.6-1.8-0.9-2.7L68.5,4.2z"/>
	<path class="st0" d="M73.6,7.4c-0.3,0.8-0.6,1.4-0.9,1.7l-0.3-0.2c0.4-0.5,0.7-1,0.9-1.6L73.6,7.4z M73.3,2.3c0-0.1,0-0.1,0.1-0.1
		h2c0.2-0.3,0.3-0.5,0.3-0.7l0.4,0.2l-0.2,0.5h3.1c0.1,0,0.1,0,0.1,0.1v2.3c0,0.1,0,0.1-0.1,0.1h-5.3v0.6h6.3v0.4h-6.3v0.7h6
		c0,0,0.1,0,0.1,0.1c0,0.9,0,1.5-0.1,1.8c0,0.3-0.1,0.5-0.3,0.7c-0.2,0.2-0.8,0.3-1.8,0.1V8.6c0.6,0.1,0.9,0.1,1.1,0.1
		c0.1,0,0.3-0.1,0.3-0.1c0.1-0.1,0.2-0.2,0.2-0.4c0-0.2,0.1-0.7,0.1-1.4l-0.1,0h-6c0,0-0.1,0-0.1-0.1V5.9V2.3z M78.7,3.2V2.6
		c0-0.1,0-0.1-0.1-0.1h-4.8c-0.1,0-0.1,0-0.1,0.1v0.6H78.7z M73.6,3.6v0.8h4.9c0.1,0,0.1,0,0.1-0.1V3.6H73.6z M74.9,7.3
		C75,8.1,75,8.7,75,9h-0.4c0-0.6,0-1.1-0.1-1.6H74.9z M76.4,7.2c0.2,0.4,0.3,0.9,0.5,1.5l-0.4,0.1c-0.1-0.6-0.3-1.1-0.4-1.4
		L76.4,7.2z M77.9,7.1c0.2,0.3,0.4,0.6,0.5,1l-0.3,0.2c-0.2-0.4-0.4-0.7-0.5-0.9L77.9,7.1z"/>
	<path class="st0" d="M82.1,4.1L82,3.7h-0.5V3.4h1.5V2.9h0.4v0.5h1.4v0.4h-0.6L84,4.5h1v0.4h-3.6V4.5h0.9L82.1,4.1z M82.3,2.3
		c-0.2,0.3-0.4,0.5-0.5,0.6l-0.3-0.3c0.4-0.3,0.7-0.7,0.8-1.1l0.4,0.2l-0.1,0.2h2.4v0.4h-1.2l0.4,0.5L83.8,3
		c-0.2-0.3-0.4-0.6-0.5-0.7H82.3z M82.2,9.2h-0.4V5.5c0-0.1,0-0.1,0.1-0.1h2.6c0.1,0,0.1,0,0.1,0.1v3.2c0,0.2-0.1,0.3-0.2,0.4
		c-0.2,0.1-0.5,0.1-1,0.1l0-0.4c0.4,0.1,0.6,0.1,0.7,0c0.1,0,0.1-0.1,0.1-0.2V7.9h-2V9.2z M84.2,6.5V5.8l0,0h-1.9l0,0v0.7H84.2z
		 M84.2,7.5V6.8h-2v0.7H84.2z M83.6,4.5L83.7,4l0.1-0.3h-1.4l0.2,0.8H83.6z M85.8,2.3l-0.4,0.5l-0.3-0.2c0.3-0.3,0.5-0.7,0.6-1
		L86,1.7l-0.1,0.2h2.7v0.4h-1.4l0.3,0.5L87.2,3c-0.2-0.3-0.4-0.5-0.5-0.7H85.8z M85.7,8.5c0,0.1,0.1,0.1,0.2,0.2
		c0.1,0,0.6,0.1,1.4,0.1c0.6,0,1,0,1.1-0.1c0.1,0,0.1-0.2,0.2-0.4l0.4,0.1c0,0.3-0.1,0.6-0.3,0.6c-0.2,0.1-0.6,0.2-1.3,0.2
		c-0.9,0-1.5-0.1-1.7-0.2c-0.2-0.1-0.3-0.2-0.3-0.4V5.3c0-0.1,0-0.1,0.1-0.1h2.5c0,0,0.1,0,0.1-0.1V4.7l0,0h-2.5
		c-0.1,0-0.2-0.1-0.2-0.2V3h0.4v0.4h2.9v0.4h-2.9v0.5c0,0,0,0.1,0.1,0.1h2.5c0.1,0,0.1,0,0.1,0.1v1c0,0.1-0.1,0.2-0.2,0.2h-2.5l0,0
		v0.5h2.6v0.3h-2.6v0.5h2.6v0.3h-2.6v0.6h2.6v0.3h-2.6V8.5z"/>
	<path class="st0" d="M2.4,15.4c0-0.1,0-0.1,0.1-0.1h2.3v-0.7H1.4v-0.4h3.5v-0.5h0.4v0.5h3.5v0.4H5.3v0.7h2.4c0.1,0,0.1,0,0.1,0.1
		v4.1h1.1v0.4H1.3v-0.4h1.2V15.4z M4,20.6c-0.7,0.3-1.5,0.5-2.5,0.7l-0.1-0.4c1.1-0.2,2-0.4,2.5-0.7L4,20.6z M7.4,16.4v-0.6
		c0,0,0-0.1-0.1-0.1H2.9c0,0-0.1,0-0.1,0.1v0.6H7.4z M7.4,17.4v-0.6H2.8v0.6H7.4z M2.8,17.8v0.6h4.6v-0.6H2.8z M7.4,19.5v-0.7H2.8
		v0.7H7.4z M6.4,20.3c0.8,0.2,1.6,0.4,2.4,0.7l-0.1,0.4c-0.7-0.3-1.5-0.5-2.4-0.7L6.4,20.3z"/>
	<path class="st0" d="M11.4,15.9h0.4v4.7H14v-6h-3.5v-0.4h7v0.4h-3.2v2.6h3.1v0.4h-3.1v3h3.4V21h-7.6v-0.4h1.2V15.9z"/>
	<path class="st0" d="M19.3,15.6l-0.2-0.3c0.3-0.1,0.5-0.3,0.7-0.5c0.1-0.2,0.3-0.4,0.5-0.8l0.3,0.1l-0.1,0.3h2
		c0.1,0,0.1,0.1,0.1,0.2c-0.1,0.5-0.2,0.9-0.4,1.2L22.1,16c-0.5,0.7-1.4,1.2-2.7,1.6l-0.2-0.4c0.7-0.2,1.3-0.4,1.8-0.7
		c-0.3-0.4-0.8-0.8-1.2-1.2L19.3,15.6z M19.3,19.2l-0.2-0.3c0.3-0.2,0.6-0.3,0.8-0.5c0.2-0.2,0.4-0.5,0.6-0.9l0.3,0.1l-0.1,0.3h2
		c0.1,0,0.1,0.1,0.1,0.2c-0.1,0.5-0.2,0.9-0.4,1.3l-0.2,0.3c-0.5,0.8-1.5,1.4-2.9,1.8l-0.2-0.4c0.9-0.2,1.6-0.5,2-0.8
		c-0.3-0.3-0.7-0.7-1.2-1.2C19.7,19,19.5,19.1,19.3,19.2z M21.3,16.3c0.5-0.4,0.8-1,1-1.6h-1.9L20,15.1l0.5,0.5L21.3,16.3z
		 M21.4,19.9c0.2-0.2,0.4-0.5,0.6-0.7c0.1-0.3,0.3-0.6,0.4-1h-1.9l-0.3,0.4l0.6,0.6L21.4,19.9z M22.8,16.2l-0.3-0.2
		c0.4-0.6,0.7-1.3,0.9-2.1l0.4,0.1l-0.1,0.5h2.6l0.1,0l0,0.1l0,0.1l0,3.4c0,1.7-0.3,2.7-0.7,3.1c-0.3,0.3-1,0.3-2.1,0l0-0.5
		c1,0.3,1.7,0.3,1.9,0.1c0.1-0.1,0.3-0.4,0.4-0.8c0.1-0.4,0.2-1,0.2-2c0-2,0.1-3,0-3.2l0,0h-2.4C23.3,15.3,23.1,15.8,22.8,16.2z
		 M25.2,19.9h-1.8c0,0-0.1,0-0.1-0.1v-4.1c0,0,0-0.1,0.1-0.1h1.8c0,0,0.1,0,0.1,0.1L25.2,19.9C25.2,19.9,25.2,19.9,25.2,19.9z
		 M23.7,16.1L23.7,16.1l0,3.4l0,0h1.1l0,0v-3.4l0,0H23.7z"/>
	<path class="st0" d="M28.2,17.5l-0.3-0.4c0.7-0.9,1.2-2,1.5-3.4l0.4,0.1c-0.2,0.7-0.4,1.3-0.6,1.8v5.6h-0.4v-4.8
		C28.6,16.8,28.4,17.2,28.2,17.5z M32.4,17.8h-2.2v-0.4h2.2v-2.2h-2.6v-0.4h5.6v0.4h-2.6v2.2h2.3v0.4h-2.3v2.8h2.7V21h-5.8v-0.4h2.7
		V17.8z M32.2,13.7c0.2,0.2,0.4,0.5,0.6,0.8l-0.4,0.2c-0.2-0.4-0.4-0.6-0.6-0.8L32.2,13.7z"/>
	<path class="st0" d="M37.5,21.3h-0.4v-6.3c0-0.1,0-0.1,0.1-0.1h0.8l0.4-1.1l0.4,0.1l-0.3,1h1.3c0.1,0,0.1,0,0.1,0.1v6.3h-0.4v-0.6
		h-2.1V21.3z M39.6,17.7v-2.3c0,0,0-0.1-0.1-0.1h-2c0,0-0.1,0-0.1,0.1v2.3H39.6z M37.5,18.1v2.3h2.1v-2.3H37.5z M40.7,16.4l-0.4-0.2
		c0.3-0.4,0.5-0.9,0.7-1.6v0c0.1-0.3,0.1-0.6,0.2-0.9l0.4,0.1l-0.2,0.8H44l0.1,0l0.1,0.1l0,0.2c0,1.8,0,3.2-0.1,4.2
		c-0.1,1.1-0.4,1.8-0.8,2c-0.4,0.3-1.2,0.3-2.2-0.1v-0.4c1,0.3,1.7,0.3,2,0.1c0.4-0.2,0.6-1.1,0.6-2.6c0.1-1.9,0.1-3,0-3l0,0h-2.3
		C41.1,15.6,40.9,16.1,40.7,16.4z M41.8,16.3c0.4,1,0.7,1.9,0.9,2.7l-0.4,0.1c-0.2-0.9-0.6-1.8-0.9-2.7L41.8,16.3z"/>
	<path class="st0" d="M53.1,19.1c-0.6,0.8-1.4,1.4-2.4,2l-0.3-0.3c2.1-1,3.2-2.6,3.5-4.8h-3.4v-0.4H54l0-0.6v-1.2h0.4V15l0,0.5v0.1
		h3.4V16h-3.4l0.1,0.6c0.2,0.7,0.4,1.2,0.6,1.5c0.6,1,1.6,1.9,2.9,2.8l-0.3,0.3l-1.1-0.8c-1.3-1.1-2-2.2-2.3-3.4
		C54,17.7,53.7,18.4,53.1,19.1z"/>
	<path class="st0" d="M60.2,15.8L60.2,15.8l0,5.4h-0.4v-5.7c0-0.1,0-0.1,0.1-0.1h3v-1h-3.4V14h7.1v0.4h-3.4v1h3c0.1,0,0.1,0,0.1,0.1
		v5.2c0,0.2-0.1,0.3-0.2,0.4c-0.2,0.2-0.7,0.2-1.5,0v-0.4c0.6,0.2,1,0.2,1.2,0.1c0.1,0,0.1-0.1,0.1-0.2v-4.8l0,0h-2.8v5.5h-0.4v-5.5
		H60.2z M60.6,17v-0.4h1.3c0.1,0,0.1,0,0.1,0.1c0,0.8,0.2,1.8,0.6,2.9l-0.4,0.1c-0.3-0.9-0.5-1.7-0.6-2.3c-0.1,0.7-0.4,1.5-0.9,2.3
		l-0.4-0.2c0.6-0.8,0.9-1.7,1-2.6H60.6z M63.8,17v-0.4H65c0.1,0,0.1,0,0.1,0.1c0,0.8,0.3,1.7,0.9,2.8l-0.4,0.1
		c-0.4-0.9-0.6-1.6-0.7-2.2v0.1c-0.1,0.7-0.3,1.4-0.7,2.1l-0.4-0.1c0.5-0.8,0.8-1.7,0.8-2.6H63.8z"/>
	<path class="st0" d="M69.7,21.3L69.4,21c0.9-0.7,1.4-1.7,1.4-3.2h-1.2v-0.4h2.6v-0.7h-3v1.1c0,1.2-0.2,2.3-0.6,3.3l-0.4-0.2
		c0.4-0.9,0.6-2,0.6-3v-3.4c0-0.1,0-0.1,0.1-0.1c2.4,0,4.5-0.2,6.1-0.5l0.1,0.4c-1.8,0.3-3.7,0.4-5.9,0.4c0,0-0.1,0-0.1,0.1v0.5h6.1
		c0.1,0,0.1,0,0.1,0.1v1.3c0,0.1,0,0.1-0.1,0.1h-2.8v0.7h3.2v0.4h-4.6l0,0.7h3.8c0.1,0,0.1,0,0.2,0c0,0,0.1,0.1,0.1,0.2
		c-0.1,1.3-0.2,2-0.5,2.2c-0.5,0.4-1.4,0.4-2.7,0.1l0-0.4c0.5,0.1,1,0.2,1.4,0.2c0.5,0,0.9-0.1,1-0.2c0,0,0.1-0.1,0.1-0.2v0
		c0.2-0.8,0.3-1.3,0.2-1.5l-0.1,0h-3.6C70.9,19.9,70.4,20.7,69.7,21.3z M69.2,15.6v0.7H75c0.1,0,0.1,0,0.1-0.1v-0.6
		c0,0,0-0.1-0.1-0.1H69.2z"/>
	<path class="st0" d="M88.7,19.1c-0.6,0.8-1.4,1.4-2.4,2L86,20.8c2.1-1,3.2-2.6,3.5-4.8h-3.4v-0.4h3.4l0-0.6v-1.2H90V15l0,0.5v0.1
		h3.4V16H90l0.1,0.6c0.2,0.7,0.4,1.2,0.6,1.5c0.6,1,1.6,1.9,2.9,2.8l-0.3,0.3l-1.1-0.8c-1.3-1.1-2-2.2-2.3-3.4
		C89.6,17.7,89.2,18.4,88.7,19.1z"/>
	<path class="st0" d="M102.4,20.5v0.4h-7.5v-0.4H102.4z M102.1,14.3v0.4h-6.8v-0.4H102.1z M101.8,17.3v0.4h-6.1v-0.4H101.8z"/>
	<path class="st0" d="M105.2,21.3l-0.3-0.3c0.9-0.7,1.4-1.7,1.4-3.2h-1.2v-0.4h2.6v-0.7h-3v1.1c0,1.2-0.2,2.3-0.6,3.3l-0.4-0.2
		c0.4-0.9,0.6-2,0.6-3v-3.4c0-0.1,0-0.1,0.1-0.1c2.4,0,4.5-0.2,6.1-0.5l0.1,0.4c-1.8,0.3-3.7,0.4-5.9,0.4c0,0-0.1,0-0.1,0.1v0.5h6.1
		c0.1,0,0.1,0,0.1,0.1v1.3c0,0.1,0,0.1-0.1,0.1h-2.8v0.7h3.2v0.4h-4.6l0,0.7h3.8c0.1,0,0.1,0,0.2,0c0,0,0.1,0.1,0.1,0.2
		c-0.1,1.3-0.2,2-0.5,2.2c-0.5,0.4-1.4,0.4-2.7,0.1l0-0.4c0.5,0.1,1,0.2,1.4,0.2c0.5,0,0.9-0.1,1-0.2c0,0,0.1-0.1,0.1-0.2v0
		c0.2-0.8,0.3-1.3,0.2-1.5l-0.1,0h-3.6C106.5,19.9,106,20.7,105.2,21.3z M104.7,15.6v0.7h5.8c0.1,0,0.1,0,0.1-0.1v-0.6
		c0,0,0-0.1-0.1-0.1H104.7z"/>
</g>
</svg>
