<svg xmlns="http://www.w3.org/2000/svg" xmlns:xlink="http://www.w3.org/1999/xlink" viewBox="0 0 352.9 362.28"><defs><style>.cls-1{fill:none;stroke:#db364a;stroke-miterlimit:10;stroke-width:10px;}.cls-2{fill:url(#未命名漸層_3);}.cls-3{fill:#112d81;}.cls-4{font-size:25.89px;fill:#fff;font-family:GenShinGothic-Regular, Gen Shin Gothic;}</style><linearGradient id="未命名漸層_3" x1="289.31" y1="159.98" x2="81.2" y2="159.98" gradientTransform="translate(164.18 -76.42) rotate(45)" gradientUnits="userSpaceOnUse"><stop offset="0" stop-color="#da3462"/><stop offset="1" stop-color="#cd382b"/></linearGradient></defs><g id="圖層_2" data-name="圖層 2"><g id="圖層_1-2" data-name="圖層 1"><path class="cls-1" d="M174.08,117.66,281.41,51.23c19.81-13.6,47.15-7.16,59.92,13.47h0A44.25,44.25,0,0,1,327,125.44L223,189.86"/><path class="cls-1" d="M217.88,136l.46,177.34A44.27,44.27,0,0,1,174,357.28h0A44.27,44.27,0,0,1,130.09,313l-.45-177.51"/><path class="cls-1" d="M111,178.18l-85.46-53.9A44.25,44.25,0,0,1,11.77,63.42h0C24.71,42.9,52.1,36.7,73.45,50.47l86.67,54.67"/><circle class="cls-2" cx="174.34" cy="159.98" r="79.93" transform="translate(-62.06 170.14) rotate(-45)"/><path class="cls-3" d="M196.08,141.41c-.64-2.65-1.27-5.14-2-7.46l5.62-1c.58,2.49,1.17,5.26,1.75,8.42h8.16v5.66h-21.3v-5.66Z"/><path class="cls-3" d="M197.4,171.48l-4.55,1.19c-1-7.52-2.12-16.17-3.5-23.12l4.77-.28C195.34,155.77,196.45,163.17,197.4,171.48Z"/><path class="cls-3" d="M204.18,172.5v0c-.76.25-1.56.48-2.39.7a40.55,40.55,0,0,1-4,.83c-3.24.68-6.52,1.25-9.85,1.65l1.33,5.66a191.25,191.25,0,0,0,19.17-4.3v-5.76C207.1,171.65,205.67,172.05,204.18,172.5Z"/><path class="cls-3" d="M204.76,169.79c1.25-6.14,2.23-13.59,2.92-20.68l-5.35,0q-.92,11.51-2.75,22Z"/><polygon class="cls-3" points="223.31 147.63 232.85 147.63 235.97 141.87 223.31 141.87 223.31 130.44 217.69 132.6 217.69 156.96 210.06 156.96 210.06 183.12 226.33 183.12 226.33 177.64 215.31 177.64 215.31 162.1 228.66 162.1 228.66 175.78 228.65 175.78 228.65 181.26 228.66 181.26 228.66 183.16 233.96 183.16 233.96 156.96 223.31 156.96 223.31 147.63"/><path class="cls-3" d="M149.05,175.2c1.49,1.35,2.84,2.65,4,3.89l3.7-4.36c-1.37-1.4-3.06-2.9-5-4.55A35.05,35.05,0,0,1,149.05,175.2Z"/><path class="cls-3" d="M148.35,144.07l-1.14,5.38h2a48.24,48.24,0,0,1-3.69,15.91c-1.3-1-2.71-2-4.22-3.09a102.16,102.16,0,0,0,3.18-11h0l1.52-7.15h0c.5-2.82,1.05-5.84,1.6-9.1h-5.39c-.48,3.09-1,6.14-1.57,9.1h-5.94v5.38h4.79c-1.25,5.21-2.6,10.05-4.11,14.53q4.14,3.11,7.65,6.06c-1.37,2.16-4.75,5.81-7.39,6.77v6.95c4.31-2.26,8.78-6,10.78-9,4.22-6.27,7.59-12.06,8.11-27.7v-3Z"/><path class="cls-3" d="M172.16,156.26v-4.15a77.81,77.81,0,0,0,6.26-7.4H172a61.1,61.1,0,0,1-5.29,5.69v5.86h-9.06l-2,5.43H166.7v13.62c0,1.81-.47,2.72-1.36,2.72-2.55,0-2.15-.06-4.23-.11l-1.33,5.27h7.8c3,0,4.58-2.08,4.58-6.23V161.69h9.21l1.72-5.43Z"/><polygon class="cls-3" points="178.78 142.1 181.93 136.67 158.2 136.67 158.2 142.1 167.04 142.1 178.78 142.1"/><polygon class="cls-3" points="115.44 178.21 109.67 178.21 109.67 144.52 125.79 144.52 125.79 150.29 115.44 150.29 115.44 178.21"/><rect class="cls-3" x="109.66" y="163.34" width="9.22" height="5.5"/><rect class="cls-3" x="119.13" y="172.81" width="9.22" height="5.5"/><polygon class="cls-3" points="128.42 178.33 122.65 178.33 122.65 160.07 119.57 160.07 119.57 154.3 128.42 154.3 128.42 178.33"/><text class="cls-4" transform="translate(38.52 88.3)">新板<tspan x="0" y="32.95">特區</tspan></text><text class="cls-4" transform="translate(148.6 284.74)">土城<tspan x="0" y="32.95">鴻海</tspan></text><text class="cls-4" transform="translate(274.25 84.61)">北市<tspan x="0" y="32.95">中心</tspan></text><path class="cls-1" d="M87.83,28.46C142.7-5.5,214.14-.81,262.4,31.09"/><path class="cls-1" d="M108,314.36A161.93,161.93,0,0,1,12.65,144.05"/><path class="cls-1" d="M334.06,149.24a162.12,162.12,0,0,1-98.84,166.35"/></g></g></svg>