<?xml version="1.0" encoding="utf-8"?>
<!-- Generator: Adobe Illustrator 24.1.1, SVG Export Plug-In . SVG Version: 6.00 Build 0)  -->
<svg version="1.1" id="圖層_1" xmlns="http://www.w3.org/2000/svg" xmlns:xlink="http://www.w3.org/1999/xlink" x="0px" y="0px"
	 viewBox="0 0 352.9 362.3" style="enable-background:new 0 0 352.9 362.3;" xml:space="preserve">
<style type="text/css">
	.st0{fill:none;stroke:#DB364A;stroke-width:10;stroke-miterlimit:10;}
	.st1{fill:url(#SVGID_1_);}
	.st2{fill:#112D81;}
	.st3{fill:#FFFFFF;}
	.st4{font-family:'GenShinGothic-Regular';}
	.st5{font-size:25.89px;}
</style>
<g>
	<path class="st0" d="M87.8,28.5c54.9-34,126.3-29.3,174.6,2.6"/>
	<path class="st0" d="M108,314.4C41.7,285.3,2.8,215.7,12.6,144.1"/>
	<path class="st0" d="M334.1,149.2c7.4,71.2-32.8,138.8-98.8,166.4"/>
</g>
<g>
	<path class="st0" d="M174.1,117.7l107.3-66.4c19.8-13.6,47.1-7.2,59.9,13.5l0,0c12.7,20.7,6.3,47.9-14.3,60.7l-104,64.4"/>
	<path class="st0" d="M217.9,136l0.5,177.3c-0.2,24.3-20,44-44.3,43.9l0,0c-24.3-0.2-43.9-20-43.9-44.3l-0.4-177.5"/>
	<path class="st0" d="M111,178.2l-85.5-53.9C5,111.2-1.2,84,11.8,63.4l0,0c12.9-20.5,40.3-26.7,61.7-12.9l86.7,54.7"/>
</g>
<linearGradient id="SVGID_1_" gradientUnits="userSpaceOnUse" x1="289.31" y1="204.0242" x2="81.2" y2="204.0242" gradientTransform="matrix(1 0 0 -1 -4.315203e-03 364.0101)">
	<stop  offset="0" style="stop-color:#DA3462"/>
	<stop  offset="1" style="stop-color:#CD382B"/>
</linearGradient>
<circle class="st1" cx="174.3" cy="160" r="79.9"/>
<path class="st2" d="M196.1,141.4c-0.6-2.6-1.3-5.1-2-7.5l5.6-1c0.6,2.5,1.2,5.3,1.8,8.4h8.2v5.7h-21.3v-5.7L196.1,141.4z
	 M197.4,171.5l-4.6,1.2c-1-7.5-2.1-16.2-3.5-23.1l4.8-0.3C195.3,155.8,196.4,163.2,197.4,171.5z M204.2,172.5L204.2,172.5
	c-0.8,0.3-1.6,0.5-2.4,0.7c-1.3,0.3-2.7,0.6-4,0.8c-3.2,0.7-6.5,1.3-9.9,1.6l1.3,5.7c6.5-1.1,12.9-2.5,19.2-4.3v-5.8
	C207.1,171.6,205.7,172.1,204.2,172.5z M204.8,169.8c1.3-6.1,2.2-13.6,2.9-20.7h-5.4c-0.6,7.7-1.5,15-2.8,22L204.8,169.8z
	 M223.3,147.6h9.5l3.1-5.8h-12.7v-11.4l-5.6,2.2V157h-7.6v26.2h16.3v-5.5h-11v-15.5h13.4v13.7h0v5.5h0v1.9h5.3V157h-10.7V147.6z
	 M149.1,175.2c1.5,1.4,2.8,2.6,4,3.9l3.7-4.4c-1.4-1.4-3.1-2.9-5-4.6C151,171.9,150.1,173.6,149.1,175.2z M148.4,144.1l-1.1,5.4h2
	c-0.3,5.5-1.6,10.9-3.7,15.9c-1.3-1-2.7-2-4.2-3.1c1.3-3.6,2.3-7.3,3.2-11l0,0l1.5-7.1l0,0c0.5-2.8,1.1-5.8,1.6-9.1h-5.4
	c-0.5,3.1-1,6.1-1.6,9.1h-5.9v5.4h4.8c-1.3,5.2-2.6,10.1-4.1,14.5c2.8,2.1,5.3,4.1,7.6,6.1c-1.4,2.2-4.8,5.8-7.4,6.8v6.9
	c4.3-2.3,8.8-6,10.8-9c4.2-6.3,7.6-12.1,8.1-27.7v-3L148.4,144.1z M172.2,156.3v-4.1c2.2-2.3,4.3-4.8,6.3-7.4H172
	c-1.6,2-3.4,3.9-5.3,5.7v5.9h-9.1l-2,5.4h11v13.6c0,1.8-0.5,2.7-1.4,2.7c-2.6,0-2.1-0.1-4.2-0.1l-1.3,5.3h7.8c3,0,4.6-2.1,4.6-6.2
	v-15.3h9.2l1.7-5.4L172.2,156.3z M178.8,142.1l3.1-5.4h-23.7v5.4h8.8H178.8z M115.4,178.2h-5.8v-33.7h16.1v5.8h-10.3V178.2z
	 M109.7,163.3h9.2v5.5h-9.2V163.3z M119.1,172.8h9.2v5.5h-9.2V172.8z M128.4,178.3h-5.8v-18.3h-3.1v-5.8h8.8V178.3z"/>
<text transform="matrix(1 0 0 1 38.52 88.2998)" class="st3 st4 st5">新板</text>
<text transform="matrix(1 0 0 1 38.52 121.25)" class="st3 st4 st5">特區</text>
<text transform="matrix(1 0 0 1 148.6 284.7402)" class="st3 st4 st5">土城</text>
<text transform="matrix(1 0 0 1 148.6 317.6899)" class="st3 st4 st5">鴻海</text>
<text transform="matrix(1 0 0 1 274.25 84.6099)" class="st3 st4 st5">北市</text>
<text transform="matrix(1 0 0 1 274.25 117.5601)" class="st3 st4 st5">中心</text>
</svg>
