<svg xmlns="http://www.w3.org/2000/svg" viewBox="0 0 1106.75 518.54"><defs><style>.cls-1{fill:#c00d23;}.cls-2{fill:#fff;}.cls-3{fill:#e65300;}.cls-4{fill:#64513d;}.cls-5{fill:#cf000e;fill-rule:evenodd;}.cls-6{fill:#c6000b;}.cls-7{fill:#595757;}</style></defs><g id="圖層_2" data-name="圖層 2"><g id="圖層_1-2" data-name="圖層 1"><rect class="cls-1" x="782.08" y="329.85" width="262.52" height="86.18" rx="11.91"/><path class="cls-2" d="M872.27,384.66c1.67-2.15,1.91-2.29,2.11-2.29s.48.14,2.16,1.64c.82.75,1,1,1,1.19s-.14.31-.48.31H849.44a13.34,13.34,0,0,0-2.56.24l-.34-1.33a14.39,14.39,0,0,0,2.84.24h13.18a92.71,92.71,0,0,0,4.38-13.33,30.55,30.55,0,0,0,.78-4.23c2.8.82,4.2,1.43,4.2,1.88s-.34.61-1.4.75a78.23,78.23,0,0,1-7,14.93Zm-1.58-20.33c1.61-1.88,1.92-2,2.12-2s.48.14,2.05,1.51c.75.61.92.85.92,1.06s-.13.3-.47.3H851.25a14.5,14.5,0,0,0-2.39.21l-.34-1.3a15.52,15.52,0,0,0,2.7.24h9.19v-4.2a16.86,16.86,0,0,0-.17-2.8c3.59.34,4,.65,4,1s-.28.54-1.2.95v5.06Zm-15.1,14.52a30.56,30.56,0,0,0-2.49-10.93c-.07-.17.27-.34.37-.21,3.22,3.62,5.16,8.13,5.16,11.17,0,1.58-.78,2.46-1.7,2.46S855.7,380.73,855.59,378.85Z"/><path class="cls-2" d="M885.42,382.06a43.81,43.81,0,0,0,6.91-1.95,16.37,16.37,0,0,0-2.4-4c-.1-.1.14-.31.24-.24,3.45,1.91,5.67,4.78,5.67,7,0,1.06-.51,1.84-1.33,1.84-.65,0-.89-.3-1.16-1.53-.24-.89-.48-1.71-.75-2.43a72.18,72.18,0,0,1-9.84,4.27c-.27,1-.41,1.23-.75,1.23s-.51-.1-1.44-3.59a23,23,0,0,0,2.46-.23V365.29a63.73,63.73,0,0,0-.2-7.45,25.65,25.65,0,0,1,2.94,1.43h6.66c1-1.09,1.23-1.26,1.43-1.26s.48.17,1.58,1.13c.44.37.58.58.58.78s-.07.41-.93,1v3c0,6.26.17,8.89.17,9.74s-.54,1.06-1.57,1.06c-.71,0-1-.24-1-.85v-.79h-7.32Zm7.32-21.93h-7.32v5.46h7.32Zm-7.32,12.13h7.32v-5.81h-7.32Zm15.79-2c0,5.81,0,11.45,0,16.26,0,.92-.58,1.2-1.6,1.2-.79,0-1.06-.34-1.06-.92,0-1.51.17-5.74.17-15.75,0-9.09,0-11.55-.17-13.26a20.79,20.79,0,0,1,2.94,1.5h5.91c1.09-1.19,1.26-1.33,1.47-1.33s.41.14,1.6,1.13c.55.51.65.68.65.89s-.14.48-1,1v5.16c0,10.66.11,11.68.11,12.91a2.61,2.61,0,0,1-1.2,2.29,4.19,4.19,0,0,1-2.22.55c-.48,0-.58-.14-.65-.72-.14-.95-.61-1.4-2.9-1.91-.17,0-.17-.44,0-.44,1.6.13,2.73.2,3.76.2.44,0,.58-.14.58-.55V360.13h-6.46Z"/><path class="cls-2" d="M922.6,378.71c0,3.66.11,5.06.11,6.05a2.34,2.34,0,0,1-1.3,2.29,3.64,3.64,0,0,1-1.64.51c-.52,0-.58-.1-.69-.65-.17-1-.75-1.47-3.45-1.94-.2,0-.2-.48,0-.48,2,.13,3.11.17,4.14.17.34,0,.48-.17.48-.58v-14.8H917a8.42,8.42,0,0,0-2.18.24l-.34-1.33a13.49,13.49,0,0,0,2.56.24h8.78c1-1.06,1.19-1.2,1.4-1.2s.41.14,1.5,1.2c.48.48.62.68.62.89s-.31.51-1.06.65c-.24,0-.34.13-.75.71a22.27,22.27,0,0,1-3.52,3.76c-.14.11-.38-.1-.31-.24a28.82,28.82,0,0,0,2.15-4.92H922.6Zm2.26-19.78c1.06-1.06,1.23-1.16,1.43-1.16s.45.1,1.68,1.26c.44.52.58.72.58.93,0,.37-.28.51-1.16.65a28.27,28.27,0,0,1-4.38,3.86,3,3,0,0,1,1,1.94,1.39,1.39,0,0,1-1.3,1.54c-.62,0-.92-.34-1.33-1.47a11.28,11.28,0,0,0-3-4.2c-.11-.07,0-.34.17-.31a13.51,13.51,0,0,1,4,2,15,15,0,0,0,2.46-4.2h-7a7.6,7.6,0,0,0-2.18.24l-.35-1.34a12.86,12.86,0,0,0,2.46.24Zm0,28.49a21,21,0,0,0,6.45-3.86,7.76,7.76,0,0,0,1.61-1.91c2.32,1.3,3,1.74,3,2.05s-.45.48-1.58.31a20.56,20.56,0,0,1-9.32,3.86C924.82,387.9,924.65,387.49,924.86,387.42Zm7.44-6.86c0,.75-.51,1.09-1.43,1.09-.72,0-1.09-.24-1.09-.89,0-1,.13-2.76.13-9.22,0-4.2,0-6.49-.17-8.92a15.53,15.53,0,0,1,2.84,1.37h2.18a25.9,25.9,0,0,0,.86-4.31h-4.07a13.51,13.51,0,0,0-2.22.21l-.37-1.3a11.41,11.41,0,0,0,2.56.24h10.15c1.4-1.57,1.64-1.74,1.84-1.74s.51.17,2,1.33c.69.55.86.75.86,1s-.11.3-.45.3h-7.31a26.42,26.42,0,0,1-2.9,4.31h5.6c1.06-1.13,1.23-1.23,1.44-1.23s.44.1,1.53,1c.55.48.65.68.65.89s-.13.51-.89.95v3.93c0,6.73.14,10,.14,11,0,.76-.51,1.13-1.5,1.13-.79,0-1.06-.31-1.06-1v-.41h-9.3Zm9.3-15.72h-9.3v4.07h9.3ZM932.3,374h9.3v-4.2h-9.3Zm0,5.47h9.3v-4.61h-9.3ZM943.2,387a12.75,12.75,0,0,0-5.05-4.44c-.14-.07,0-.41.13-.38,4.48.61,7.31,2.43,7.31,4.34a1.22,1.22,0,0,1-1.16,1.33C944,387.8,943.65,387.56,943.2,387Z"/><path class="cls-2" d="M948.57,385.34a34.79,34.79,0,0,0,2.16-6.59,14.24,14.24,0,0,0,.27-3.25c2.9.79,3.21.92,3.21,1.3s-.24.48-1.06.65a21.47,21.47,0,0,1-4.17,8.16C948.85,385.75,948.51,385.51,948.57,385.34Zm6.32-12.57c-1.23.24-2.52.44-4,.65-.28.78-.45.95-.72.95s-.58-.51-1.06-3.17a14.91,14.91,0,0,0,1.57.1c.65,0,1.3,0,2,0a52.9,52.9,0,0,0,4.48-6.87,17.44,17.44,0,0,0,1.37-3.18c2.56,1.23,3.11,1.54,3.11,1.95,0,.24-.28.44-1.3.44a40.61,40.61,0,0,1-6.7,7.62c2.08,0,4.17-.14,6.22-.31a9.5,9.5,0,0,0-1.51-2.9c-.06-.1.18-.31.28-.24,2.56,1.5,3.89,3.42,3.89,5,0,1-.48,1.68-1.16,1.68s-1-.24-1.13-1.85a6.69,6.69,0,0,0-.17-.95c-.95.24-1.88.48-2.83.68v6.53c0,3.79.1,7.17.1,8.19,0,.76-.51,1.1-1.54,1.1-.71,0-1.06-.24-1.06-.89s.17-2.8.17-7Zm-.06-6.77c0,.93-.52,1.58-1.23,1.58s-.93-.18-1.37-1.61a7.93,7.93,0,0,0-2.56-3.9c-.11-.1.07-.27.2-.23a11.7,11.7,0,0,1,2.74,1.26,27.42,27.42,0,0,0,1.74-4.2,11.3,11.3,0,0,0,.51-2.29c2.53.92,3.42,1.33,3.42,1.74s-.24.55-1.34.62a32.46,32.46,0,0,1-3.69,4.54A3.25,3.25,0,0,1,954.83,366Zm5.09,15a12.66,12.66,0,0,0-1.68-5.22c-.07-.11.17-.24.28-.18,2.49,1.75,3.86,4,3.86,5.68,0,1-.52,1.81-1.34,1.81C960.39,383.09,960.09,382.68,959.92,381Zm15.88-17.28c1.13-1.34,1.3-1.44,1.51-1.44s.41.1,1.67,1.23c.51.51.61.72.61,1s-.13.34-1,.92c-.24,8.3-.65,13.32-1.64,17.39a7.32,7.32,0,0,1-2,3.86,4.37,4.37,0,0,1-2.59.85c-.55,0-.72-.07-.82-.68-.24-1.09-.82-1.5-3.62-2.32-.24-.07-.24-.58,0-.55a31.62,31.62,0,0,0,4.16.44c1.64,0,2-.82,2.5-2.52.85-3.25,1.33-8.2,1.5-17.29H966.3a24,24,0,0,1-4.16,5.29c-.14.14-.48-.1-.38-.27a32.71,32.71,0,0,0,3.9-8.85,24.55,24.55,0,0,0,.71-3.89c3.25.82,3.76,1.13,3.76,1.5s-.24.55-1.26.72a31.18,31.18,0,0,1-2.09,4.65Zm-7.45,11.61a11.68,11.68,0,0,0-2.8-5.77c-.1-.11.11-.34.24-.28,3.08,1.37,5.23,3.69,5.23,5.61a1.67,1.67,0,0,1-1.5,1.84C968.9,376.73,968.59,376.39,968.35,375.33Z"/><polygon class="cls-3" points="17.96 485.64 12.29 485.64 11.54 485.64 0.6 485.64 0.6 490.7 11.54 490.7 11.54 490.7 11.54 490.7 14.75 489.45 17.96 490.7 28.9 490.7 28.9 485.64 17.96 485.64"/><polygon class="cls-4" points="14.75 490.7 8.24 493.23 0.6 493.23 0.6 513.94 3.15 513.94 3.99 513.94 10.72 513.94 10.72 502.87 14.75 501.31 18.79 502.87 18.79 513.94 25.52 513.94 27.5 513.94 28.9 513.94 28.9 493.23 21.26 493.23 14.75 490.7"/><path d="M44.57,497.94a24.89,24.89,0,0,1-2.83,3.1c-.11.07-.34-.19-.26-.29a34.77,34.77,0,0,0,4.16-8.49,23.77,23.77,0,0,0,1-4.25c3,.89,3.36,1.05,3.36,1.38s-.11.37-1.07.63a27,27,0,0,1-3,6c1.51.24,1.72.31,1.72.6s-.15.37-.68.6v13.39c0,.73-.44,1.09-1.4,1.09s-1.15-.26-1.15-1,.18-2.71.18-6.83Zm12.53.39h4.28c1.19-1.46,1.51-1.67,1.69-1.67s.49.21,1.64,1.17c.49.42.7.65.7.84s-.08.26-.34.26H50.15a19.37,19.37,0,0,0-2.24.15l-.29-1a14.69,14.69,0,0,0,2.48.21h4.53v-4.77H51.45a15.27,15.27,0,0,0-2.06.16l-.28-1a12.69,12.69,0,0,0,2.29.21h3.23v-1.77c0-1.09-.05-2.06-.11-3,3.08.29,3.34.55,3.34.81s-.26.47-.76.65V493h3.34c1.12-1.35,1.43-1.56,1.61-1.56s.52.21,1.59,1.09c.47.39.68.63.68.81s-.08.26-.34.26H57.1Zm0,11.54h4.43c1.25-1.49,1.56-1.7,1.75-1.7s.52.21,1.66,1.18c.52.44.73.67.73.86s-.08.26-.34.26H50.15a19.37,19.37,0,0,0-2.24.15l-.29-1a15.82,15.82,0,0,0,2.48.21h4.53v-5.6H51a15.74,15.74,0,0,0-2,.15l-.29-1a12,12,0,0,0,2.24.21h3.7v-1c0-1.07-.05-2.09-.11-3,3.08.26,3.34.52,3.34.78s-.26.47-.76.65v2.56h3.52c1.12-1.36,1.43-1.57,1.61-1.57s.53.21,1.57,1.1c.47.39.67.62.67.81s-.07.26-.33.26h-7Z"/><path d="M83.79,507.68c0,.88.42,1.07,2.35,1.07a5.8,5.8,0,0,0,2.76-.37c.83-.52,1.15-1.69,1.82-4.5,0-.13.32-.11.32,0v3.23c0,.65,0,.71.46.91a1,1,0,0,1,.58,1c0,.71-.39,1.18-1.33,1.46a17.28,17.28,0,0,1-4.79.44c-3.78,0-4.69-.46-4.69-2.63,0-1.66,0-3.17,0-5.13v-6.38H77.86c0,4.14-.6,7.11-1.8,9.27-1.46,2.63-3.93,4.15-8,5.4a.14.14,0,0,1-.11-.24c3.23-1.9,5.11-3.7,6.15-6.38a21.87,21.87,0,0,0,1.15-8H71a20.32,20.32,0,0,0-2.4.16l-.29-1a17.86,17.86,0,0,0,2.71.21h16.2c1.41-1.74,1.72-1.95,1.9-1.95s.52.21,2,1.35c.65.55.86.76.86.94s-.07.26-.34.26H83.79Zm.42-17.63c1.38-1.62,1.69-1.83,1.88-1.83s.52.21,1.87,1.23c.65.49.84.75.84.93s-.08.26-.34.26H74.08a20.54,20.54,0,0,0-2.27.16l-.28-1a15.8,15.8,0,0,0,2.47.21Z"/><path d="M97.38,510.7c0,.7-.49,1-1.45,1-.76,0-1.07-.24-1.07-.92,0-1.61.15-3.85.15-11.56,0-3.86,0-7.71-.18-11.57A14.66,14.66,0,0,1,97.59,489h4.56c.89-1,1.09-1.17,1.3-1.17s.47.16,1.41.91c.42.34.57.52.57.73s-.18.42-.75.78v1c0,2.52,0,4.29,0,4.87s-.5.86-1.41.86c-.67,0-.93-.21-.93-.76v-.49h-5Zm5-21.1h-5V492h5Zm-5,5.5h5v-2.53h-5Zm7.09,8.75c-.47,4-2,5.73-5.29,7.22-.13.05-.28-.11-.18-.21a9.5,9.5,0,0,0,3.2-7h-1.35a15.56,15.56,0,0,0-2.09.16l-.28-1a12.69,12.69,0,0,0,2.29.21h1.49c0-.75,0-1.56,0-2.5V499.6h-.91a12.18,12.18,0,0,0-1.75.16l-.29-1a9.92,9.92,0,0,0,2,.2h8.38c1-1.17,1.31-1.38,1.49-1.38s.52.21,1.43,1c.39.34.6.57.6.75s-.08.26-.34.26h-3.31v3.65h.66c1.14-1.35,1.45-1.56,1.64-1.56s.49.21,1.51,1.09c.41.39.62.63.62.81s-.08.26-.34.26h-4.09c0,2.37.11,5.11.11,6,0,.7-.52,1-1.38,1s-1.07-.21-1.07-.81.1-2.08.1-5.13v-1.07Zm2.86-.6V499.6h-2.68c0,1.23,0,2.43-.13,3.65ZM109.5,496c0,.65-.45.93-1.33.93-.71,0-1-.2-1-.78,0-.91,0-1.85,0-5.57,0-1,0-2-.1-2.95a18.34,18.34,0,0,1,2.66,1.33h4.79c.91-1,1.12-1.17,1.33-1.17s.47.16,1.43.94c.44.39.6.57.6.78s-.16.42-.7.76v3.12c0,14.59,0,15.26,0,16a2.06,2.06,0,0,1-.81,1.82,3.36,3.36,0,0,1-2,.5c-.5,0-.52-.06-.63-.6-.15-.91-.7-1.44-2.47-1.9-.13,0-.13-.32,0-.32,1.48.11,2.08.13,3.15.13.26,0,.31-.07.31-.36v-13H109.5Zm5.28-6.44H109.5V492h5.28Zm-5.28,5.5h5.28v-2.53H109.5Z"/><path d="M136.81,495.78c.32-.34.52-.58.68-.71-.42-.23-.81-.44-1.15-.65a14.12,14.12,0,0,1-4.09-4,18.8,18.8,0,0,1-7.65,5.44,8.94,8.94,0,0,0,1.12.08h1.59c.8-1,1-1.15,1.22-1.15s.47.16,1.38.91c.39.34.55.52.55.73s-.08.26-.71.71v.57c0,1.46.08,2.47.08,2.81,0,.63-.47.91-1.33.91-.67,0-1-.2-1-.73v-.33h-2.74c-.26,1.09-.52,2.31-.75,3.25h3.25c.86-1,1.07-1.12,1.28-1.12s.47.16,1.35.94c.39.34.55.52.55.73s-.08.26-.75.81a14.55,14.55,0,0,1-1.07,4.94,3.07,3.07,0,0,1-1.36,1.36,4.15,4.15,0,0,1-1.69.31c-.29,0-.34-.08-.42-.49-.18-1-.6-1.31-2.37-1.93-.13-.05-.13-.37,0-.37a27.07,27.07,0,0,0,2.74.19c.75,0,1-.16,1.2-.71a18,18,0,0,0,.67-4.06h-3.54a3.41,3.41,0,0,1-.16.57c-.15.5-.46.66-1.25.66s-1.12-.24-1.12-.55a2.24,2.24,0,0,1,.16-.65c.37-1.18.63-2.32.86-3.36a20,20,0,0,0,.36-2.35,18,18,0,0,1,2.38,1.23h2.42v-3.23h-1.88a4.38,4.38,0,0,0-1.33.21l-.2-.71a31.29,31.29,0,0,1-4.17,1.25c-.13,0-.26-.23-.13-.28,4.45-1.85,8.12-4.46,10-7.38H126a8.16,8.16,0,0,0-1.75.21l-.28-1a9.8,9.8,0,0,0,1.92.21h4c1.1-1.18,1.3-1.33,1.51-1.33s.47.15,1.46.93c.44.37.6.55.6.76s-.21.36-.83.6a16.19,16.19,0,0,0,1.74,1.35,14.84,14.84,0,0,0,1.33-2.05c.26-.5.49-1,.73-1.57,2.14,1.07,2.58,1.38,2.58,1.7s-.11.41-1.17.44a15.29,15.29,0,0,1-2.71,1.93,15.8,15.8,0,0,0,2,1l.41.16a10,10,0,0,0,1.38-1.83,18.18,18.18,0,0,0,.89-1.59c2.47,1.38,2.58,1.46,2.58,1.83s-.21.44-1.1.39a16.79,16.79,0,0,1-2.89,1.51,32.31,32.31,0,0,0,6,1.25c.13,0,.13.23,0,.29a2.22,2.22,0,0,0-1.45,1.84c-.06.19-.16.27-.32.27a4.42,4.42,0,0,1-1.17-.24c-.57-.18-1.22-.42-1.93-.7a.67.67,0,0,1,.21.39c0,.21-.15.36-.6.65v1.85c0,.44.16.52,1,.52s1.09,0,1.38-.42a7.62,7.62,0,0,0,.62-1.53c.06-.13.32-.13.32,0,0,.36,0,.7.05,1.06s.05.42.28.55a.81.81,0,0,1,.55.81,1.14,1.14,0,0,1-.78,1,5.81,5.81,0,0,1-2.45.39c-2.5,0-3.2-.47-3.2-2.21,0-.58,0-1.07,0-1.49v-1.2h-2.34v.45a5.81,5.81,0,0,1-.86,3,5.64,5.64,0,0,1-3.67,2.22c-.13,0-.26-.18-.16-.26a4.86,4.86,0,0,0,2.09-2.5,9.2,9.2,0,0,0,.31-2.79,15.35,15.35,0,0,0-.13-1.93,14.28,14.28,0,0,1,2.5,1.18ZM124.57,494c-.52,0-.65-.15-1.09-1.25a4.67,4.67,0,0,0-1.62-2.16.12.12,0,0,1,.11-.21c2.57.44,3.77,1.2,3.77,2.32A1.23,1.23,0,0,1,124.57,494Zm12.79,9c1.07-1.07,1.28-1.23,1.48-1.23s.47.16,1.49,1c.47.42.62.6.62.81s-.26.52-1,.8a13.66,13.66,0,0,1-2.5,3.23,19,19,0,0,0,6.15,1.78c.13,0,.13.31,0,.33-.89.24-1.25.63-1.56,1.67-.11.42-.13.47-.39.47a3.07,3.07,0,0,1-1.07-.29,17.49,17.49,0,0,1-3.54-1.92c-.37-.26-.73-.55-1-.81a18.35,18.35,0,0,1-7.35,2.92c-.13,0-.26-.26-.13-.32a18,18,0,0,0,6.2-3.88,13.71,13.71,0,0,1-2.19-4h-.29a5.12,5.12,0,0,0-1.45.21l-.29-1a9.15,9.15,0,0,0,2,.21Zm-4.22.6a9.84,9.84,0,0,0,2.58,2.91,11.64,11.64,0,0,0,1.77-2.91Z"/><path d="M151.47,497c.86-1,1.07-1.14,1.28-1.14s.47.15,1.32.88c.37.32.53.5.53.71s-.21.49-.68.73a22.4,22.4,0,0,1-2.35,7.63,6,6,0,0,0,.94.88c2,1.57,4.87,2.14,9.74,2.14a63.13,63.13,0,0,0,8.13-.52c.13,0,.1.18,0,.23a2,2,0,0,0-1.15,1.9c0,.32-.13.47-.78.55-.94.11-3.31.18-4.84.18-6.07,0-9.09-.78-11.52-3a10.42,10.42,0,0,1-1.19-1.3A17.93,17.93,0,0,1,146,511.3c-.11.08-.32-.16-.24-.26a19.33,19.33,0,0,0,4-5.89,25.59,25.59,0,0,1-1.54-3.88,1.16,1.16,0,0,0-.41-.7.42.42,0,0,1-.21-.29c0-.15.6-.42,1-.42.16,0,.26.08.26.21s-.15.42-.15.52a5.83,5.83,0,0,0,.41,1.33,17.12,17.12,0,0,0,1.07,2.09,27.86,27.86,0,0,0,1.3-6.41h-1.95c-.08.15-.18.34-.29.52-.36.57-.54.7-1,.7-.75,0-1.4-.39-1.4-.86a1.5,1.5,0,0,1,.23-.67,35,35,0,0,0,3.31-6.88h-2.32a6.39,6.39,0,0,0-1.64.16l-.23-1a7,7,0,0,0,1.82.23h2.32c.91-1,1.12-1.2,1.33-1.2s.44.16,1.33,1c.36.37.52.58.52.78s-.16.42-.86.73A56.27,56.27,0,0,1,150,497Zm10.5,1.1c0,.91,0,1.79,0,2.71h3.26c1-1.23,1.35-1.44,1.54-1.44s.52.21,1.56,1c.44.36.65.57.65.75s-.08.27-.34.27H162c0,.93,0,1.84.06,2.78H166c1.17-1.35,1.48-1.56,1.67-1.56s.52.21,1.64,1.09c.49.39.7.63.7.81s-.08.26-.34.26h-7.6c0,1.1,0,1.93,0,2.45,0,.76-.44,1.07-1.35,1.07s-1.1-.21-1.1-1.07c0-.47,0-1.25,0-2.45h-4.19a9.7,9.7,0,0,0-1.65.16l-.28-1a8.47,8.47,0,0,0,1.87.21h4.27c0-.94,0-1.85,0-2.78h-3.1a9.45,9.45,0,0,0-1.54.15l-.28-1a8.68,8.68,0,0,0,1.82.21h3.13c0-.92,0-1.83,0-2.71h-2.91a6.21,6.21,0,0,0-1.44.18l-.28-1a8.42,8.42,0,0,0,1.66.18h3v-2.81h-4a11.55,11.55,0,0,0-1.72.15l-.28-1a10.46,10.46,0,0,0,2,.21h4v-2.74h-2.68a6.35,6.35,0,0,0-1.61.21l-.29-1a8.31,8.31,0,0,0,1.85.21h2.71c0-1.14-.06-2-.11-2.91,2.61.28,3,.39,3,.83,0,.21-.1.31-.73.62v1.46H165c.89-1.09,1.1-1.25,1.31-1.25s.47.16,1.38,1c.39.36.54.54.54.75s-.07.26-.83.89v2h.24c.67-1.07,1-1.28,1.17-1.28s.44.21,1.09.89a1.43,1.43,0,0,1,.44.73c0,.18-.07.26-.33.26h-2.61c0,1.64.08,2.78.08,3.23,0,.7-.42,1-1.17,1s-1-.26-1-.86Zm0-4h3.33v-2.74h-3.33Zm3.33.6h-3.33c0,.93,0,1.87,0,2.81h3.3Z"/><path d="M179,493.17c1.12-1.38,1.44-1.59,1.62-1.59s.52.21,1.67,1.12c.49.39.7.63.7.81s-.08.26-.34.26h-8.23a11.22,11.22,0,0,0-1.77.16l-.29-1a10.6,10.6,0,0,0,2.09.21Zm-3.23,16.7v.8c0,.68-.46,1-1.32,1s-1.1-.26-1.1-.89c0-.8.08-1.64.08-5a35.58,35.58,0,0,0-.16-3.7,25.73,25.73,0,0,1,2.77,1.3h2.6c.91-1.09,1.12-1.25,1.33-1.25s.47.16,1.4.91c.42.37.58.55.58.76s-.18.47-.76.86v.86c0,2.24.11,3.78.11,4.27q0,1-1.41,1c-.7,0-1-.24-1-.81v-.18Zm2-20.22c1.15-1.35,1.46-1.56,1.64-1.56s.52.21,1.62,1.1c.47.39.67.62.67.8s-.07.26-.34.26h-6.09a9.59,9.59,0,0,0-1.54.16l-.28-1a8.6,8.6,0,0,0,1.82.2Zm.24,7c1-1.27,1.3-1.48,1.48-1.48s.52.21,1.51,1c.44.37.65.6.65.78s-.08.26-.34.26h-6a10.15,10.15,0,0,0-1.59.16l-.28-1a9,9,0,0,0,1.87.2Zm0,3.37c1-1.28,1.3-1.49,1.48-1.49s.52.21,1.54,1c.44.37.65.6.65.78s-.08.26-.34.26h-6a9.7,9.7,0,0,0-1.56.16l-.29-1a9,9,0,0,0,1.85.21Zm.86,4h-3.08v5.24h3.08ZM191,499.32c1.07-1,1.27-1.2,1.48-1.2s.5.16,1.57,1c.49.39.65.57.65.78s-.29.54-1,.8a19.83,19.83,0,0,1-3.46,5.34,15.07,15.07,0,0,0,6.25,2.35.14.14,0,0,1,0,.26c-.89.26-1.22.75-1.51,2-.08.39-.18.54-.37.54a4,4,0,0,1-1-.36,12.52,12.52,0,0,1-4.85-3.39,21,21,0,0,1-7.68,3.94c-.13,0-.26-.29-.13-.34a20.3,20.3,0,0,0,6.64-5.08,20.19,20.19,0,0,1-2.58-6h-.42a5.66,5.66,0,0,0-1.51.21l-.28-1a8.66,8.66,0,0,0,1.9.21Zm4.58-5.11c0,.39.11.5.52.65a.82.82,0,0,1,.37.79c0,.54-.34,1-1,1.19a7.94,7.94,0,0,1-2.53.32c-2.29,0-3.1-.58-3.1-2.22,0-1,0-1.27,0-2.29V490h-3.05v.5a10.47,10.47,0,0,1-.83,4.63c-.71,1.28-1.91,2.14-3.91,3.13-.11.05-.34-.1-.24-.18a7.19,7.19,0,0,0,2.22-3.62,12.61,12.61,0,0,0,.31-3.15,28.7,28.7,0,0,0-.18-3.13c1.3.55,1.53.63,2.71,1.22h2.86c.84-1,1-1.09,1.28-1.09s.47.1,1.33.83a1.4,1.4,0,0,1,.52.68c0,.26-.18.47-.68.76v4c0,.42.18.5,1,.5.62,0,1,0,1.22-.31a5.72,5.72,0,0,0,.86-2.32c0-.13.31-.13.31,0Zm-10,5.71a13.91,13.91,0,0,0,3.08,4.79,15.9,15.9,0,0,0,2.45-4.79Z"/><path d="M263.51,489.89h-.08a5.62,5.62,0,0,0-1.25.16l-.29-1a6.05,6.05,0,0,0,1.56.21h4.64c1-1.15,1.28-1.35,1.46-1.35s.52.2,1.51.93c.44.37.65.58.65.76s-.08.26-.34.26h-1.46v7.42c0,5,.06,11.23.06,13.29,0,.75-.47,1.12-1.33,1.12-.42,0-1-.11-1-1,0-.57.1-2.32.1-5.76a15.35,15.35,0,0,1-3.77,2.58c-.08.68-.27.94-.58.94s-.6-.52-1.35-2.87l1.46-.23Zm2.11,4.53h2.13v-4.53h-2.13Zm0,4.72h2.13V495h-2.13Zm0,5.73a22.27,22.27,0,0,0,2.13-.73v-4.41h-2.13Zm6.43-7.82a21.72,21.72,0,0,0,2.68-4.17,18,18,0,0,0,.84-2c1.95.81,2.44,1.1,2.44,1.38s-.2.42-1,.42a21.6,21.6,0,0,1-3.93,4.32,29.73,29.73,0,0,0,3.15-.31,5,5,0,0,0-.63-1.59.11.11,0,0,1,.16-.15c1.67.8,2.55,1.77,2.55,2.78,0,.73-.41,1.25-1,1.25s-.78-.34-.89-1.09c0-.18,0-.34-.05-.5a31.62,31.62,0,0,1-4.43,1.49c-.05.47-.21.65-.44.65s-.39-.31-1-2.47c.39,0,.7,0,.88,0Zm1.17-7.47a14.41,14.41,0,0,0,.5-1.83c1.95.63,2.6.94,2.6,1.23s-.18.36-.94.47a17.45,17.45,0,0,1-2.42,2.44,2,2,0,0,1,.94,1.57,1,1,0,0,1-1,1.14c-.44,0-.65-.2-.89-.91a5.38,5.38,0,0,0-1.35-2.52c-.08-.11,0-.24.1-.21a6.62,6.62,0,0,1,1.62.6C272.7,490.9,273,490.23,273.22,489.58Zm2,15.42a36.67,36.67,0,0,0,.15-3.68c0-.78,0-1.06-.05-1.69,2.74.21,3,.29,3,.65s-.19.44-.71.63c0,.91-.05,1.66-.07,2.31a11.22,11.22,0,0,1-.76,4.25c-.91,2.08-2.81,3.52-5.55,4.27-.13,0-.23-.18-.13-.26a7.88,7.88,0,0,0,3.15-3.12,7.35,7.35,0,0,0,.89-2.77h-1.67v.6c0,.66-.39.94-1.22.94-.6,0-.91-.23-.91-.81,0-.28.07-1.32.07-3.1,0-.91,0-1.84-.1-2.94,2.21.18,2.76.31,2.76.7,0,.21-.13.34-.6.55V505Zm5.21-15.22a12.79,12.79,0,0,0,.62-2c2,.65,2.58.93,2.58,1.22s-.18.37-.94.47a17.14,17.14,0,0,1-2.5,2.34,2,2,0,0,1,1.1,1.65,1,1,0,0,1-1,1.14c-.44,0-.67-.23-.88-.88a5.06,5.06,0,0,0-1.46-2.5c-.11-.08,0-.24.13-.21a7.74,7.74,0,0,1,1.54.49A16.16,16.16,0,0,0,280.44,489.78Zm1.85,3a21,21,0,0,0,.83-2c1.67.62,2.45,1,2.45,1.38s-.21.39-1,.39a21.54,21.54,0,0,1-4.09,4.38c1.15,0,2.32-.11,3.47-.24a6,6,0,0,0-.76-1.72c-.07-.1,0-.21.16-.15,1.8.83,2.81,1.9,2.81,3a1.11,1.11,0,0,1-1.06,1.22c-.55,0-.84-.36-.94-1.14,0-.16-.05-.31-.08-.44a36.45,36.45,0,0,1-4.19,1.32c-.06.45-.19.63-.42.63s-.44-.39-1-2.45c.39,0,.75,0,1.09,0A21.8,21.8,0,0,0,282.29,492.78Zm-1,12.81c0,2.64.08,4.43.08,5.16s-.42.94-1.35.94c-.68,0-1-.23-1-.86s.08-2.71.08-6.8a44,44,0,0,0-.13-4.45c2.71.31,3,.39,3,.78,0,.23-.18.44-.7.68v4h1.95v-3c0-.41,0-.7-.1-1.77,2.18.19,2.76.32,2.76.71,0,.2-.13.31-.65.54v.78c0,2.09.05,3.65.05,4.12,0,.73-.34,1-1.2,1-.63,0-.86-.21-.86-.76v-1Z"/><path d="M293.66,490.85a20,20,0,0,1-1.85,6.51c.08.08.18.13.26.21h2.06c.83-.94,1-1.09,1.25-1.09s.47.15,1.25.86c.34.31.5.49.5.7s-.16.42-.63.7v1.49c0,4,.11,6.69.11,7.58s-.42,1.12-1.36,1.12c-.65,0-.91-.26-.91-.91v-.6h-2.48v1.93c0,.75-.36,1.06-1.27,1.06s-1-.2-1-.93c0-1.54.13-3.21.13-7.38,0-.33,0-.91,0-1.56a22.28,22.28,0,0,1-2,2.11c-.1.08-.34-.13-.26-.23a23.22,23.22,0,0,0,3.7-11.57h-1.1a10.88,10.88,0,0,0-1.74.16l-.29-1a10.54,10.54,0,0,0,2,.2h4c1-1.38,1.33-1.59,1.52-1.59s.49.21,1.51,1.12c.41.4.62.63.62.81s-.08.26-.34.26Zm.68,7.32h-2.48v8.65h2.48Zm8.78,10.89a15.73,15.73,0,0,1-7.74,2.68c-.13,0-.26-.26-.13-.31a20,20,0,0,0,4.79-3,7.37,7.37,0,0,0,1.44-1.64c2.13,1.12,2.86,1.62,2.86,2S303.92,509.19,303.12,509.06Zm3-19a14.25,14.25,0,0,1-2.68,3.54h4.43c1-1,1.17-1.2,1.38-1.2s.49.16,1.48.94c.45.34.6.52.6.73s-.21.52-.78.83v1.8c0,4.79.1,8.07.1,9.17,0,.86-.44,1.2-1.51,1.2-.75,0-1-.29-1-1.05h-6.93c-.05.68-.47,1-1.33,1s-1.2-.23-1.2-.86c0-1.12.13-2.53.13-9.19,0-1.8,0-2.84-.15-4.67a18.6,18.6,0,0,1,2.76,1.28h1.09a18.75,18.75,0,0,0,.68-3.54h-3.23a12.78,12.78,0,0,0-1.8.15l-.28-1a9.71,9.71,0,0,0,2,.21h7.92c1.3-1.46,1.61-1.67,1.8-1.67s.52.21,1.74,1.17c.55.45.76.65.76.84s-.08.26-.34.26Zm2,4.14h-6.93v3.18h6.93Zm0,3.78h-6.93v3.23h6.93Zm0,3.82h-6.93v3.63h6.93Zm2.26,9.82c-.67,0-.73-.05-1.69-1.43a8,8,0,0,0-3.28-2.79c-.11-.05,0-.31.1-.28,4.27.54,6.18,1.51,6.18,3.1A1.33,1.33,0,0,1,310.38,511.66Z"/><path d="M317.83,500.46a22.35,22.35,0,0,1-3.31,2.14c-.11,0-.34-.21-.24-.31A28.08,28.08,0,0,0,319,496.5a14.55,14.55,0,0,0,1.38-2.94c2.63,1.25,3,1.46,3,1.8s-.31.55-1.09.55a29.1,29.1,0,0,1-2.37,2.7c.81.16.94.27.94.5s-.16.39-.71.62v10.94c0,.76-.44,1.1-1.35,1.1-.6,0-1.12-.24-1.12-1s.16-2.74.16-6.85Zm4-10.47a18.42,18.42,0,0,1-7.24,5.73c-.13.06-.28-.21-.18-.28a26,26,0,0,0,4.14-4.9,11.07,11.07,0,0,0,1.43-2.89c2.3,1,3.08,1.54,3.08,1.9S322.85,490,321.86,490Zm11.2,13.18c0,1.9.08,3.81.08,5.71a2.49,2.49,0,0,1-.65,1.82,3.44,3.44,0,0,1-2.42.81c-.52,0-.55,0-.65-.6-.18-1-.86-1.38-3.34-2-.13,0-.1-.42,0-.42,1.2.08,2.89.18,3.85.18.47,0,.58-.13.58-.54V497.08h-5.68a11.16,11.16,0,0,0-1.67.15l-.28-1a9.15,9.15,0,0,0,1.95.21H334c1.3-1.49,1.61-1.69,1.8-1.69s.52.2,1.74,1.17c.55.44.76.67.76.86s-.08.26-.34.26h-4.85Zm-.47-13c1.31-1.46,1.62-1.67,1.8-1.67s.52.21,1.77,1.18c.55.44.76.65.76.83s-.08.26-.34.26H325.85a10,10,0,0,0-1.69.16l-.29-1a9.41,9.41,0,0,0,2,.21Z"/><path d="M346.42,489.86c2.6.94,3.85,2,3.85,3.26a1.18,1.18,0,0,1-1.12,1.25c-.54,0-.65-.13-1.14-1.3a7,7,0,0,0-1.77-2.87,20.41,20.41,0,0,1-3.94,4.92,3.29,3.29,0,0,0,1,.13h2.92c.7-.93,1-1.14,1.2-1.14s.52.21,1.33.81c.34.28.54.49.54.67s-.07.26-.33.26h-2.48v3.65h.89c.78-1,1.09-1.25,1.27-1.25s.52.21,1.33.89c.34.28.55.52.55.7s-.08.26-.34.26h-3.7V508c1.33-.19,2.66-.4,3.75-.63.13,0,.18.29.08.34a48.72,48.72,0,0,1-8.1,3c-.08.63-.26.89-.55.89s-.47-.34-1.27-3.1c1.09,0,1.77,0,2.57-.1.42-.06.86-.08,1.31-.13V500.1h-2.09a7.25,7.25,0,0,0-1.43.16l-.29-1a6.64,6.64,0,0,0,1.65.21h2.16v-3.65h-.84a5.5,5.5,0,0,0-1.17.16l-.21-.65a13.31,13.31,0,0,1-1.9,1.35c-.1.06-.28-.15-.21-.26a23.12,23.12,0,0,0,3.6-5.62,12.43,12.43,0,0,0,1-3c2.27.65,3,1,3,1.33s-.26.46-1,.49ZM342.64,507c-.57,0-.83-.34-.88-1.2a9.67,9.67,0,0,0-.68-3.78c-.05-.13.1-.26.21-.18,1.69,1.54,2.39,2.66,2.39,3.8C343.68,506.38,343.24,507,342.64,507Zm7.09-3.93a17.13,17.13,0,0,1-2.4,4.19c-.08.1-.31,0-.29-.13a34.51,34.51,0,0,0,.68-3.52c.11-.75.18-1.51.24-2.24,2,.63,2.52.91,2.52,1.25S350.25,503,349.73,503Zm4,1.66c0,2.95,0,4.59,0,6.15,0,.7-.29,1-1.25,1-.68,0-1.09-.29-1.09-.81,0-1.77.15-3.54.15-10.68,0-1.62,0-3.23-.1-5.42a15.09,15.09,0,0,1-2,1.67c-.1.08-.34-.11-.26-.21a20.15,20.15,0,0,0,2.37-4.35,14.45,14.45,0,0,0,.76-2.5c2.29.94,2.78,1.2,2.78,1.51s-.2.37-.91.47a17.25,17.25,0,0,1-2.29,3c.68.36,1.36.75,2,1.17h1.8v-5.42a15.8,15.8,0,0,0-.13-2.44c2.92.28,3.26.57,3.26.83s-.27.49-.84.62v6.41h1.83c.72-.83.93-1,1.14-1s.5.16,1.36.83c.39.32.54.5.54.71s-.1.36-.62.7v2c0,9,.05,9.79.05,10.18a3,3,0,0,1-.52,2,2.23,2.23,0,0,1-1.82.65c-.63,0-.68-.15-.76-.86s-.91-1.14-2.5-1.61c-.13,0-.13-.34,0-.31,1.28.13,2.29.2,2.86.2.4,0,.47-.07.47-.34v-4.14Zm6.33-8.41h-6.33v3.54h6.33Zm-6.33,7.81h6.33v-3.67h-6.33Zm9.43-8.67c-.44,0-.78-.29-1-.91a9.69,9.69,0,0,0-2.92-4.38c-.1-.07,0-.28.1-.26,3.18.89,4.93,2.35,4.93,4.09C364.29,494.81,363.87,495.41,363.19,495.41Z"/><path class="cls-5" d="M241.64,503.29v9.38l-.43.87h8.91l-.44-.87V487.09l.44-.88H221.71l.44.88v25.58l-.44.87h8.91l-.43-.87v-9.38a5.73,5.73,0,1,1,11.45,0Z"/><path class="cls-6" d="M378.93,52.35c0-1.23-.92-2.3-2.92-4.14-4.45-3.69-5.68-4.61-7.22-4.61-1.12,0-2.28.82-5.2,4.65H359V18.12h22.26c1.69,0,2.3-.46,2.3-1.39,0-1.22-.92-2.45-3.53-4.76-6-4.91-7.21-5.83-8.75-5.83-1.1,0-2.21.76-6.84,6.32h-28a98.58,98.58,0,0,0-12.17-6c.77,15.5.93,30.86.93,46.21,0,54-.93,67.39-.93,80.9,0,2.92,1.69,4.46,5.68,4.46,5.84,0,8.14-2,8.14-6.45v-6.14h38.23c1.53,0,2-.46,2-1.54s-1.22-2.76-2.76-4.45c-4.45-4.61-5.68-5.83-7.06-5.83-1,0-2.53,1-6,6.17H359V85.2h4.91v2.15c0,3.53,1.54,4.61,4.91,4.61,4.92,0,7.38-1.23,7.38-5.22,0-2.46-.47-10-.47-23.49V56.34C378.47,53.89,378.93,53.43,378.93,52.35ZM338.09,79.57V53.88h25.79V79.57Zm0-31.32V18.12H347V48.25ZM347,119.78h-8.91V85.2H347Z"/><path class="cls-6" d="M414.7,87.35c-4.15-3.37-5.37-4.29-6.91-4.29-1.14,0-2.31.83-5.65,4.86H390.66c-4.32-2.34-5.71-2.82-11.58-4.86.46,9.82.62,19.65.62,29.32,0,17.19-.62,21.18-.62,25.33,0,3.07,1.38,4.3,4.91,4.3,5.53,0,7.37-1.54,7.37-5.38v-4.74h11.21v4c0,2.91,1.69,4.14,5.37,4.14,4.46,0,6.76-1.69,6.76-5.22,0-4-.31-15.66-.31-33.16V94.88c2.15-1.23,3.07-2.31,3.07-3.53S416.54,89,414.7,87.35Zm-23.34,38.92V93.54h11.21v32.73Z"/><path class="cls-6" d="M458,19.65c-6.6-5.53-8.13-6.75-9.52-6.75-1,0-2.6,1-7.86,7.46H403.35c1.57-2.38,3-4.74,4.29-7,6-1.08,6.6-1.54,6.6-3.38,0-2.15-3.23-3.53-18.42-8.29a138.38,138.38,0,0,1-4.15,16.12A107,107,0,0,1,377.24,45.6c-.46.61.61,1.84,1.23,1.38a72.7,72.7,0,0,0,13-11.67A138.9,138.9,0,0,1,392.44,53c0,14.43-.46,18.11-.46,21.64,0,3.23,1.84,4.61,5.68,4.61,4.76,0,7.52-1.69,7.52-5.07V72h27.63V74.3c0,3.08,2.15,4.3,5.84,4.3,4.91,0,8-1.84,8-5.22,0-2.45-.46-10-.46-21V48.21C449.24,45.9,450,45,450,43.6s-.92-2.3-3.23-4.14c-4.91-4-6.29-4.92-7.83-4.92-1.16,0-2.34.84-6.8,5.81H405c-5.24-2.35-6.75-2.83-13.28-5.19A89.57,89.57,0,0,0,399.32,26h48.92v0H460c1.53,0,2-.47,2-1.54S460.76,22,458,19.65ZM432.81,46V66.38H405.18V46Z"/><path class="cls-6" d="M458.45,87.05c-4-3.53-5.22-4.46-6.75-4.46-1.15,0-2.34.86-6.6,5.33H431.89A90.29,90.29,0,0,0,421,83.36c.46,15.2.62,30.25.62,45.29,0,4.45-.16,6.6-.16,7.83,0,2.92,1.69,4,5.22,4,4.61,0,7.07-1.53,7.07-4.6v-4h12v4.9c0,2.92,1.54,4.3,5.37,4.3,4.76,0,7.07-1.69,7.07-5.22,0-4-.46-16.28-.46-34.08V95c2.76-2,3.37-2.76,3.37-4S460.14,88.58,458.45,87.05Zm-24.71,39.22V93.54h12v32.73Z"/><path class="cls-6" d="M494.69,21.19c3.53,8.13,4.29,8.9,8.13,8.9a7.74,7.74,0,0,0,7.53-8c0-8.75-9.52-14.59-25.8-15.82-.76,0-1.23.77-.61,1.23C489.77,12.44,492.08,15.2,494.69,21.19Z"/><path class="cls-6" d="M486.09,56.8c3.68,8,4.14,8.45,7.83,8.45a7.83,7.83,0,0,0,7.67-7.83c0-8.29-9-13.67-25.48-14.89-.77,0-1.23.76-.61,1.22C481.64,48.82,483.17,50.66,486.09,56.8Z"/><path class="cls-6" d="M611.06,51.28c-7.07-6-8.91-7.07-10.29-7.07-1,0-2.63,1-8.08,8.07H543.26c.13-4.42.25-9,.25-13.9V29.32c19.65-2.3,39-7.37,53.88-14.43a15.84,15.84,0,0,0,5.38,1.23c2,0,2.76-.92,2.76-2.15,0-2.15-3.07-5.07-15-14A55.72,55.72,0,0,1,580.2,8.14C567.92,16,553.33,23.18,544,25.33c-7.37-3.53-8.45-4-16.12-7.06.61,8.14.92,15.81.92,29.32,0,21.19-1.08,37.15-3.69,50.51-3.37,16.89-9.52,29.32-19.65,42.37-.46.62.77,1.69,1.38,1.23,14.28-11.36,23.34-22.11,28.87-37.61C540,92.27,542.12,77.7,543,57.91H569.3V99.33c0,23.64-.46,35.46-.46,39.3,0,3.38,2.15,4.61,6.75,4.61,5.84,0,9.06-1.69,9.06-5.53,0-8.14-.46-32.7-.46-52.35V57.91h16.43v0h12.74c1.53,0,2-.46,2-1.54S614.28,53.89,611.06,51.28Z"/><path class="cls-6" d="M499.45,96.41c6.14-15.35,12.12-30.7,18.26-46,.31-.77-1.53-1.39-1.84-.77C502.52,75.07,495.45,87.66,491,94c-3.84,5.52-6,6-9.21,6-1.07,0-1.23,0-6.91-.92-.77-.15-1.23,2-.46,2.3,11.67,4,13.05,5.53,13.05,15.82,0,4.91-1.23,10-1.23,14.89,0,5.37,2.46,8,7.37,8,5.37,0,9.37-4.45,9.37-10.9,0-8.13-5.84-14.74-5.84-22.72A36.47,36.47,0,0,1,499.45,96.41Z"/><path d="M177.86,19.48l99.19,0c1.53,0,2-.46,2-1.54s-1.08-2.61-4.92-5.52c-8-6-9.67-7.22-11.05-7.22-1,0-2.64,1.06-9.23,8.63h-76Z"/><path d="M295,122.05c-2.61-1.23-2.76-1.53-2.76-5.37v-19c0-.77-1.69-.92-1.84-.15-4,16.58-5.84,23.49-10.75,26.56-3.53,2-8.29,2.15-16.27,2.15-11.37,0-13.82-1.08-13.82-6.3V55.73h46.21c1.53,0,2-.46,2-1.54s-1.22-2.3-5.06-5.52c-8.6-6.76-10.29-8-11.67-8-1,0-2.66,1.07-9.49,9.41H158.81v5.62l40.56,0c.15,20.57-2.15,35.62-6.76,47.44-6.14,15.81-17.19,26.4-36.23,37.61a.79.79,0,0,0,.61,1.38c23.8-7.37,38.39-16.27,47-31.78,7.06-12.74,10.44-30.24,10.6-54.65h20.26V93.34c0,11.52-.15,20.42-.15,30.25,0,12.74,5.37,15.5,27.63,15.5,13.51,0,22.57-.77,28.25-2.61,5.53-1.69,7.83-4.45,7.83-8.6C298.39,125.12,297.16,123,295,122.05Z"/><path d="M58.89,36.69H77.62v26H37.3v5.63H139.18c1.54,0,2-.46,2-1.54S140,64.33,137,61.87c-6.75-5.68-8.29-6.91-9.67-6.91-1,0-2.61,1-8.23,7.73H92.21v-26h40.53c1.53,0,2-.46,2-1.53s-1.23-2.46-4-4.76c-6.29-5.22-8-6.45-9.36-6.45-1,0-2.59,1-7.75,7.09H92.21V13.51c2.91-1.07,4.45-2.3,4.45-3.84S95.12,6.6,77,4.91c.3,5.68.61,11.36.61,17.81V31H44.76v5.63h1.72Z"/><path d="M26.19,51.43A160.57,160.57,0,0,0,43.85,15.81c5.68-1.53,6.29-1.84,6.29-3.68,0-2-2-2.92-19.8-8.14a139.18,139.18,0,0,1-5.68,25,204.35,204.35,0,0,1-24.57,50c-.46.62.92,2.15,1.54,1.69A147.52,147.52,0,0,0,18.36,62.48V97.64c0,24.26-1.07,36.23-1.07,40.22,0,4.46,1.84,6,6.75,6,5.68,0,8.29-2.15,8.29-6.45V58.49c3.07-1.38,4-2.15,4-3.53C36.32,53.27,35.1,52.81,26.19,51.43Z"/><path d="M138.42,129.73c-6.76-5.68-8.45-6.91-9.83-6.91-1,0-2.61,1-8.48,7.85H92.21V99.79h41.45c1.53,0,2-.46,2-1.54s-1.23-2.45-4-4.75c-6.14-5.22-7.83-6.45-9.21-6.45-1,0-2.58,1-7.75,7.1H92.21V73H77.62v21.2H43.11v5.62l34.51,0v30.88H37.3v5.63l103.42,0c1.53,0,2-.46,2-1.54S141.49,132.34,138.42,129.73Z"/><path d="M663.88,45.63c0,5.72-2,9.21-5.55,9.21a2.88,2.88,0,0,1-3-3c0-1.49.62-2.34,2.57-3.26,3.38-1.49,4.64-3.38,4.92-7.21,0-.29.69-.35.75-.06A30,30,0,0,1,663.88,45.63Zm18.54-16.25c0,2.06.06,3.6.06,4.46,0,1.72-.91,2.4-3.26,2.4-1.83,0-2.46-.57-2.46-2.11,0-.75.06-2.29.11-4.75H665.94v1c0,1.89-.91,2.4-3.15,2.4-2,0-2.57-.57-2.57-2.06s.17-3.2.17-9.16c0-3.26-.06-6.52-.34-9.84a55.9,55.9,0,0,1,6.69,3.2H677c0-4.46-.12-6.29-.23-9,6.12.63,7.1.92,7.1,1.89,0,.51-.4.92-1.66,1.43v5.72h11.33c2.17-2.4,2.63-2.74,3.09-2.74s1,.34,3.26,2.11c1,.81,1.32,1.21,1.32,1.66,0,.63-.46,1.09-1.66,1.78v2.06c0,5.49.11,9.56.11,10.82,0,1.77-.91,2.46-3.2,2.46-1.72,0-2.41-.57-2.41-2.18V29.38Zm-5.55-1.32c.06-2.35.12-5.38.12-9.22V16.21h-11V28.06Zm-2.8,22.72c0,1.66.8,1.83,7.32,1.83,4.07,0,6.13,0,7.56-1.08s2.06-2.92,3.2-6.7c.06-.29.63-.17.63.11,0,1.49-.11,2.92-.11,4.87,0,1.09.06,1.2,1.49,1.83a1.86,1.86,0,0,1,1,1.72c0,1.31-.8,2.23-2.75,2.86-2.29.69-6.06,1-12,1-10,0-11.67-.91-11.67-6.58,0-1.14.17-2.35.17-7.15a51.22,51.22,0,0,0-.29-5.9c6.3.74,7.1.92,7.1,1.66,0,.51-.35.8-1.66,1.55Zm10.82-3c-1.66,0-2.06-.46-3-3.49-.74-2.18-1.77-3.55-4.12-5.67-.23-.17.06-.52.34-.46,6.19,1,9.56,3.26,9.56,6.47A2.86,2.86,0,0,1,684.89,47.75ZM694,28.06V16.21H682.2l.17,11.85Zm8.59,26.5c-1.83,0-2.35-.74-3.21-4.41-1-4-1.88-5.72-4.17-8.18a.36.36,0,0,1,.4-.52c6.52,2.12,10,5.38,10,9.39C705.61,53,704.46,54.56,702.63,54.56Z"/><path d="M753.8,23.59c2.86-3.2,3.54-3.66,3.94-3.66s1.15.46,3.67,2.63c1.08.92,1.54,1.38,1.54,1.78s-.17.57-.74.57H745.15a72.56,72.56,0,0,1-7.27,5.84h8.88c2.4-2.35,2.91-2.69,3.37-2.69s1,.34,3.55,2.46c1.2,1,1.55,1.43,1.55,1.89,0,.8-.75,1.14-2.87,1.2a48.29,48.29,0,0,1-10.47,4.52c-.11.52-.63.92-1.72,1.49v2.46h12.65c2.75-3.09,3.44-3.55,3.84-3.55s1.14.46,3.66,2.46c1.14.92,1.6,1.43,1.6,1.84s-.17.57-.74.57h-21v3.09c0,4.35.17,5.26.17,6.75a6.5,6.5,0,0,1-.8,3.38c-1,1.66-2.92,2.46-5.72,2.46-1.15,0-1.15-.11-1.49-1.77-.28-1.49-2.06-2.64-6.41-3.61-.29-.06-.29-.8,0-.8,2.86.17,5.5.34,8.07.34.52,0,.69-.23.69-.86v-9h-14a22.14,22.14,0,0,0-3.6.34l-.58-1.83c-2,.69-4,1.32-6.06,1.83-.29.06-.57-.69-.29-.8a96.22,96.22,0,0,0,20-10.87h-7.38a12.86,12.86,0,0,0-3.32.45l-.63-2.23a16.27,16.27,0,0,0,3.78.46h9.39c2.4-1.83,4.8-3.78,7-5.84h-22.9a29.1,29.1,0,0,0-4,.34l-.63-2.11a21.47,21.47,0,0,0,4.35.45h15.57v-8h-9.78a22.16,22.16,0,0,0-3.5.34l-.63-2.11a18,18,0,0,0,4,.45h10V12.38A58.11,58.11,0,0,0,731.13,6c7,.63,7.67,1.26,7.67,1.89s-.63,1-1.89,1.49v4.86h3.66c2.29-2.74,3-3.2,3.38-3.2s1.09.46,3.21,2.23a4.69,4.69,0,0,1,1.2,1.26,57.1,57.1,0,0,0,4.23-6.75c4.58,2.4,6.36,3.6,6.36,4.29s-.8,1.09-2.87,1.09a89.36,89.36,0,0,1-9.5,10.41Zm-17.75,8.48A92.08,92.08,0,0,1,717,41.74a20.45,20.45,0,0,0,3.49.34h14.2v-.74a53.41,53.41,0,0,0-.17-5.44c3.26.52,5,.8,6.06,1.09a30.46,30.46,0,0,0,6-4.92Zm4.41-8.48a72.4,72.4,0,0,0,7.15-8h-10.7v8Z"/><path d="M774.57,29a54.07,54.07,0,0,1-6.7,6.24c-.23.17-.74-.28-.57-.51a60.31,60.31,0,0,0,10.25-20.44,52,52,0,0,0,1.71-7.95c5.21,1.43,7.56,2.35,7.56,3.15,0,.63-.57,1-2,1.26a70.06,70.06,0,0,1-6.24,12.93c2.29.4,2.69.69,2.69,1.2s-.34.75-1.54,1.32V31c0,13,.11,21.92.11,24.84,0,1.6-1,2.34-3.15,2.34-1.77,0-2.51-.57-2.51-1.94s.34-6.07.34-15.23Zm35.66,21.64c3-4,3.66-4.41,4.06-4.41s1.09.46,4.12,3c1.38,1.2,1.83,1.71,1.83,2.11s-.17.58-.74.58h-32a39.68,39.68,0,0,0-4.8.34l-.63-2.12a29.27,29.27,0,0,0,5.15.46Zm-2-32.68c2.92-3.67,3.61-4.12,4-4.12s1.09.45,3.78,2.86c1.2,1.09,1.66,1.6,1.66,2s-.17.57-.75.57H789.45a23.62,23.62,0,0,0-3.72.35l-.63-2.12a20.92,20.92,0,0,0,4.24.46Z"/><path d="M857.84,39.05c2.41-2.18,2.87-2.52,3.32-2.52s1,.34,3.38,2.29c1,.86,1.37,1.26,1.37,1.72,0,.85-.4,1.14-2.34,1.66a50.86,50.86,0,0,1-7.84,7.15A27.68,27.68,0,0,0,859,50.44c5.15,1.43,11.45,2,19.57,2,.29,0,.23.57,0,.63-2.18.57-3.21,1.66-3.78,4.06-.23,1.21-.57,1.61-1.49,1.61a19.74,19.74,0,0,1-3.09-.4,68.07,68.07,0,0,1-11.56-3.55,47.61,47.61,0,0,1-6.24-3.21c-7.1,4.24-15.45,6.36-26.56,7-.28,0-.46-.58-.17-.63,9.27-1.78,17.17-4.81,23.24-9a28.3,28.3,0,0,1-5.67-7.33,38.72,38.72,0,0,1-16,11.34c-.29.11-.58-.35-.35-.52a50,50,0,0,0,13-13.22,18.91,18.91,0,0,0,2.41-4.87c4.29.92,5.89,1.61,5.89,2.41,0,.46-.29.57-1.83.86-.34.51-.69,1-1,1.43ZM839.59,19.87c-.52-.22-.75-.85-1-2.06a7.94,7.94,0,0,0-2.34-4.8h-.46c-1.83,0-3.55-.12-5.1-.23-.28,0-.28-.86,0-.86,10.71-.86,21.24-2.52,28-4.35a23.6,23.6,0,0,0,6.36-2.46c4.8,2.86,6.18,3.89,6.18,4.63s-1.2.92-3,.4a188,188,0,0,1-19.4,2.47c3.78,1.2,5.72,2.86,5.72,4.69a2.73,2.73,0,0,1-2.06,2.57h8a43.59,43.59,0,0,0,2.12-5,23.45,23.45,0,0,0,1-3.83c5.38,1.83,6.41,2.4,6.41,3.09s-.51,1-2.29,1a33,33,0,0,1-5.38,4.69h6.76c2-2.63,2.46-3,2.92-3s1,.34,4.06,3.09c1.43,1.31,1.77,1.72,1.77,2.17,0,.81-.8,1.21-2.29,1.15a2.86,2.86,0,0,0-2.4.34,30,30,0,0,1-4,2.29c-.28.12-.51,0-.4-.29a19.92,19.92,0,0,0,1.38-4.46H832.49c.28,4.06-.86,7.9-3.89,7.9A2.87,2.87,0,0,1,825.68,26a2.66,2.66,0,0,1,1.54-2.52c3-1.83,3.55-2.92,3.72-6.64,0-.29.52-.4.63-.11a17.4,17.4,0,0,1,.8,3.14Zm-3,8.65c0,3.77-1.26,7.49-4.47,7.49a2.69,2.69,0,0,1-2.8-2.86c0-1.31.52-2,2.12-2.74,2.63-1.32,3.72-3,4-6.24,0-.29.51-.35.57-.06A15.53,15.53,0,0,1,836.61,28.52Zm14.82-8.65c-.74-.17-1.2-.8-1.43-2a9.5,9.5,0,0,0-2.17-5.09l-.06-.12q-4.8.35-9.62.35c3.15,1,4.93,2.69,4.93,4.52a2.56,2.56,0,0,1-1.61,2.34Zm10.36,8.25c0,.91.12,1,1.61,1.43a1.79,1.79,0,0,1,1.26,1.71,2.53,2.53,0,0,1-2.12,2.41c-2,.68-5.73,1-10,1-10.13,0-11.73-.75-11.73-4.92,0-.58.05-1.15.05-3.5a32.16,32.16,0,0,0-.22-4c5.83.69,6.35.8,6.35,1.6,0,.63-.52,1-1.55,1.2V29c0,1.49.92,1.78,5.27,1.78,5,0,6.81-.06,8-.86s1.66-2.12,2.58-4.75a.26.26,0,0,1,.51.06ZM844.28,40.36c-.17.18-.29.35-.46.52a32.66,32.66,0,0,0,7.38,6.35,32.35,32.35,0,0,0,6.64-6.87Zm9.44-10.93c-1.26,0-1.49-.28-2.23-3a9.51,9.51,0,0,0-2.86-4.07c-.23-.17-.06-.46.23-.4,4.86.75,7.44,2.41,7.44,4.92A2.55,2.55,0,0,1,853.72,29.43Zm16.95,5.78c-1.61,0-2-.45-2.87-3.49-1.08-3.32-2.17-4.92-4.23-6.47-.23-.17,0-.57.28-.51,6.59,1.43,9.56,3.72,9.56,7.15C873.41,33.84,872.32,35.21,870.67,35.21Z"/><path d="M917.25,13.81c2.41-2.58,2.86-2.92,3.32-2.92s1,.34,3.49,2.57c1.09,1,1.43,1.43,1.43,1.89,0,.8-.28,1-2.52,1.66-5.43,8.87-11.61,15.28-19.68,20.26l.11.06h19.12c2.11-2.4,2.57-2.75,3-2.75s1,.35,3.21,2.18c1,.86,1.31,1.26,1.31,1.72s-.4.85-1.6,1.66v2.69c0,7,.23,11.84.23,13.45s-1.09,2.23-3.44,2.23c-1.77,0-2.34-.52-2.34-2V55H903v1.37c0,1.6-1,2.23-3.26,2.23-1.78,0-2.41-.51-2.41-2.06,0-2.34.35-4.69.35-14.14,0-.68,0-1.43-.06-2.11a86.3,86.3,0,0,1-14,5.21c-.28,0-.57-.58-.28-.69a75.7,75.7,0,0,0,21-13.39,2.78,2.78,0,0,1-.63.11c-1.21,0-1.84-.74-2.41-2.8a12.8,12.8,0,0,0-3.6-6.53,53.12,53.12,0,0,1-12.48,7.5c-.29.11-.69-.4-.46-.57a54.58,54.58,0,0,0,14.65-15.74A34.13,34.13,0,0,0,903,5.68c5.72,1.32,7,1.89,7,2.86,0,.75-.46,1.09-2.17,1.55-.75,1.31-1.55,2.52-2.35,3.72Zm-12.76,1.31a43.68,43.68,0,0,1-6.13,6.53c5,1.32,8,3.83,8,6.64a3.36,3.36,0,0,1-.35,1.54,61.17,61.17,0,0,0,11.51-14.71Zm18.43,23.53H903V53.7h19.92Z"/><path d="M940.72,57.76c-.29.12-.63-.45-.41-.63C955.94,46,962,33.84,962,12.89a37,37,0,0,0-.29-4.81c7.5.69,8.3.86,8.3,1.95,0,.57-.28.8-2,1.6-.06,1.78-.12,3.49-.23,5.27a44.82,44.82,0,0,0,6.58,19.63,38.14,38.14,0,0,0,18.66,15c.29.11.29.62,0,.68-2,.57-3,1.66-3.78,4.12-.34,1-.57,1.21-1.08,1.21a7.49,7.49,0,0,1-3-1.66,46,46,0,0,1-14.2-18.43,56.78,56.78,0,0,1-3.54-15.34C965.27,40.31,957.66,50,940.72,57.76Z"/><path d="M1024.22,17.58c1.77-1.94,2.23-2.28,2.69-2.28s1,.34,2.86,2.11c.8.8,1.09,1.26,1.09,1.72,0,.63-.4.8-1.89,1a2.79,2.79,0,0,0-1.38.46,17.2,17.2,0,0,1-2.91,1.72,1.16,1.16,0,0,1,.51.85.71.71,0,0,1-.57.63l-10,1v1.43c0,1.09.46,1.38,2.06,1.38,2.86,0,4.41-.06,5.33-.52s1.2-1.26,1.66-2.8c.05-.29.74-.23.74.06v1.25c0,.58.11.75.69,1,.91.4,1.31.85,1.31,1.6,0,1.2-.86,2-2.86,2.46a33.72,33.72,0,0,1-6.81.51c-4.69,0-6.35-.57-6.35-3.83V25.31l-1.72.17a8.64,8.64,0,0,0-2.35.52l-.74-2a14,14,0,0,0,3.09.11l1.72-.17v-.57c0-.86-.06-2.29-.17-3.72,5.55.57,5.83.62,5.83,1.25,0,.4-.4.75-1.43,1.21v1.43l4.3-.46c1.37-2.29,1.83-2.63,2.28-2.63s1.21.34,2.87,1.43a14.88,14.88,0,0,0,.57-3H1005.1v2c0,10-.46,17.11-1.6,22.83a36.54,36.54,0,0,1-6.35,14.54c-.18.23-.69-.17-.58-.46a63,63,0,0,0,3-14.48,183.47,183.47,0,0,0,.69-18.66c0-3.77-.06-6.12-.18-10.18,2.81,1.48,3.21,1.71,5.79,3.14h4.75V11.92c0-1.83-.06-3.67-.23-5.55,6.35.51,6.92,1,6.92,1.54s-.57.92-1.66,1.43v3.27h3.55c2.18-2.69,2.86-3.15,3.26-3.15s1.15.46,3.15,2.17c1,.8,1.43,1.32,1.43,1.72s-.17.57-.74.57h-10.65v3.66ZM1011,45.52a1.63,1.63,0,0,1-.52,1c3,.85,4.29,1.94,4.29,4a2.31,2.31,0,0,1-.74,1.77c1.83-.12,2.81-.23,3.61-.34.28-1,.45-1.84.68-2.87a19.21,19.21,0,0,0,.4-3c3.55,1.26,4.93,1.83,4.93,2.46,0,.4-.18.51-1.55.69a21,21,0,0,1-2.35,2.46,80,80,0,0,0,8-1.38c.28,0,.4.46.17.58-4.69,2.51-14.14,5.32-21.52,6.46-.29,1.21-.52,1.61-1.09,1.61s-.91-1-2.17-6.13c1.71,0,3.6-.06,5.6-.17l2.58-.17a2.79,2.79,0,0,1-.57-1.6,13.12,13.12,0,0,0-1.32-3.9,6.89,6.89,0,0,1-1.14.06c-1.38,0-1.95-.4-1.95-1.54,0-.75.17-1.49.17-4.47,0-1.49-.06-3-.17-4.58,2.46.92,2.81,1.09,5.09,2.12H1021c1.48-1.6,1.94-2,2.4-2s1.09.35,2.69,1.61c.69.51,1,.91,1,1.37s-.17.57-1.2,1.32v.63c0,1.54.17,2.63.17,3,0,1.55-.8,2.12-2.8,2.12-1.09,0-1.66-.29-1.84-1.14Zm10.36-11.68c1.66-2.06,2.34-2.52,2.74-2.52s1.21.46,2.92,1.83c.8.63,1.26,1,1.26,1.43s-.17.58-.74.58h-18.78a14.63,14.63,0,0,0-2.91.34l-.63-2.12a13.2,13.2,0,0,0,3.43.46Zm0,6.07H1011V44.2h10.36Zm15.91-14a63.59,63.59,0,0,0,1.54,11.85c.46-1,.86-1.95,1.21-2.92a29,29,0,0,0,1.48-6.3c4.87,1.61,6.53,2.47,6.53,3.15s-.52.86-2.06,1.26a45.18,45.18,0,0,1-5.21,10.48,26.44,26.44,0,0,0,2.52,4.63c1,1.49,2,2.58,2.57,2.58s1.78-1.78,3.72-5.15c.12-.23.63,0,.58.28-1.15,5.67-1.21,6.13-1.21,6.41,0,.52.12.8.86,1.95a3,3,0,0,1,.52,1.6,2.56,2.56,0,0,1-2.52,2.58c-1.89,0-4.58-2-7-5.15a32.78,32.78,0,0,1-3.43-5.38,39.86,39.86,0,0,1-15.69,10.35c-.28.12-.57-.51-.34-.68a50.05,50.05,0,0,0,14.14-13.8,65,65,0,0,1-3.15-16.88l-2.06.4a10,10,0,0,0-2.52.86l-.92-2.06a12.85,12.85,0,0,0,3.27-.12l2.17-.4c-.23-3.55-.46-7.78-.63-12.93-.11-2.52-.11-3.38-.34-5.78,6.07.8,7.21,1.14,7.21,1.94,0,.46-.4.8-1.72,1.32.06,6.24.23,10.87.4,14.59l4.75-.85c1.89-3.44,2.35-3.72,2.81-3.72s1.14.34,3.49,1.71c1,.58,1.37,1,1.37,1.49a.62.62,0,0,1-.45.52Zm6-6.7c-1.2,0-1.66-.63-2.35-3.09a12.68,12.68,0,0,0-2.69-5.15c-.23-.17-.17-.46.12-.4,4.63.86,7.32,2.92,7.32,5.67A2.73,2.73,0,0,1,1043.28,19.24Z"/><path d="M1097.53,13c2.75-3.15,3.21-3.5,3.67-3.5s1.08.35,3.89,2.41c1.32,1,1.66,1.37,1.66,1.83s-.23.57-.86.57h-43.1c0,1.49.06,2.86.06,5,0,10.3-.34,16.31-1.78,22.44A36.57,36.57,0,0,1,1053.92,57c-.17.23-.8-.17-.69-.46a53.59,53.59,0,0,0,3.61-15.28c.57-5.72.69-12,.69-21.69a72.36,72.36,0,0,0-.46-9.67,39.81,39.81,0,0,1,6.58,3.09h15.23V10.83a42.65,42.65,0,0,0-.29-4.64c7,.69,7.67,1.38,7.67,2s-.69,1.14-2,1.66V13Zm-22,22.83c0,13.68.17,18.26.17,20.32,0,1.43-1,2.23-2.92,2.23-1.54,0-2.29-.51-2.29-1.89,0-2.17.46-11,.52-18.71a44.09,44.09,0,0,1-10.71,11.62c-.23.17-.68-.23-.51-.46a55.29,55.29,0,0,0,10-20.89h-2.63a19.12,19.12,0,0,0-3.32.34l-.63-2.12a15.35,15.35,0,0,0,3.72.46h3.78V21.3a46,46,0,0,0-.23-4.63c5.61.51,6.76.8,6.76,1.72,0,.68-.35,1-1.72,1.6v6.75h.51c1.78-2.29,2.46-2.74,2.87-2.74s1.14.45,3,1.94c.8.63,1.26,1.15,1.26,1.55s-.17.57-.74.57h-6.87V33.9c4.35.8,6.87,2.69,6.87,5.09a2.62,2.62,0,0,1-2.46,2.81c-1.09,0-1.49-.41-2.18-2.24a10.63,10.63,0,0,0-2.23-4.06Zm12.93,19.92c0,1.43-1,2.29-2.92,2.29-1.43,0-2.23-.74-2.23-1.95,0-4,.29-8.07.29-24.32,0-4.69-.06-9.39-.46-14.14a45.67,45.67,0,0,1,6,2.86h9.33c1.89-2.23,2.35-2.57,2.8-2.57s1,.34,3.09,2c.92.8,1.26,1.2,1.26,1.66,0,.63-.45,1-1.77,1.95v5.21c0,13.9.29,23.46.29,26.61,0,1.66-1,2.63-2.92,2.63-1.61,0-2.29-.68-2.29-2.11V54.39h-10.48Zm10.48-33.94h-10.48V31h10.48Zm-10.48,20h10.48V32.35h-10.48Zm0,11.27h10.48v-10h-10.48Z"/><path d="M660.5,102.9a51.49,51.49,0,0,1-7.44,7.16c-.23.17-.74-.29-.57-.52a61.08,61.08,0,0,0,10.3-19.06,45.59,45.59,0,0,0,2.29-9.55c5.21,1.43,7.56,2.4,7.56,3.14s-.57,1-1.95,1.32A67.59,67.59,0,0,1,663.54,99c3.15.46,3.6.63,3.6,1.26s-.34.8-1.54,1.43v29.6c0,1.66-1,2.4-2.92,2.4s-2.52-.34-2.52-2.18c0-1.48.34-6,.34-15.05Zm27.76,26H695c3-4,3.66-4.47,4.06-4.47s1.09.46,4.12,3.09c1.38,1.2,1.84,1.72,1.84,2.12s-.18.57-.75.57H673.9a40.28,40.28,0,0,0-4.87.35l-.63-2.12a30.34,30.34,0,0,0,5.15.46h9.1V103.53H672.52a23.62,23.62,0,0,0-3.72.35l-.63-2.12a20.92,20.92,0,0,0,4.24.46h10.24V90.43a73.34,73.34,0,0,0-.34-8.19c7.33.69,8,1.32,8,2s-.68,1.14-2.06,1.6v16.43h8.42c3-3.49,3.72-4,4.12-4s1.08.46,3.78,2.74c1.14,1,1.6,1.55,1.6,1.95s-.17.57-.75.57H688.26Z"/><path d="M717.51,105.14a77.31,77.31,0,0,0,6-10.82,38.92,38.92,0,0,0,2.17-5.78c4.47,2.06,6.24,3.2,6.24,3.95,0,.51-.57.91-2.23.86a69,69,0,0,1-10.42,11.79c2.81-.06,5.61-.18,8.42-.29a14.86,14.86,0,0,0-1.95-4.64c-.17-.23.23-.51.46-.34,4.24,2.52,6.18,4.75,6.18,7.5,0,1.83-1,3.2-2.34,3.2-1.15,0-1.66-.63-2.12-4.29-1.15.4-2.29.8-3.44,1.09v7.9c0,6.12.17,13.79.17,16.31,0,1.54-1,2.17-2.91,2.17-1.61,0-2.29-.51-2.29-1.77s.34-5,.34-12.42v-4a3.8,3.8,0,0,1-1.32.46,38.37,38.37,0,0,1-7.09,13c-.18.23-.75-.06-.63-.34a66.9,66.9,0,0,0,2.34-9,41.57,41.57,0,0,0,.86-7.55c3.61,1.08,5.21,1.6,5.84,2.06v-5.73c-1.43.35-3.09.69-5.15,1.15-.34,1.14-.69,1.6-1.2,1.6-.8,0-1.15-1.09-2.12-6.24a28.77,28.77,0,0,0,3,.12Zm1.71-20.09a44.51,44.51,0,0,0,.92-4.41C725.29,82.47,727,83.33,727,84s-.69,1-2.29,1a54.38,54.38,0,0,1-6.35,7.27,4.87,4.87,0,0,1,2.35,4.18c0,1.83-1.15,3.14-2.58,3.14s-1.66-.22-2.58-3.43a11.21,11.21,0,0,0-3.37-5.78c-.23-.23,0-.63.34-.57a25.89,25.89,0,0,1,4.69,1.77A46.27,46.27,0,0,0,719.22,85.05Zm10,39.83c-1.54,0-1.77-.57-2.06-4.52a19,19,0,0,0-1.89-7.38c-.11-.23.29-.52.52-.35,4.35,3.32,6,5.73,6,8.65C731.82,123.39,730.79,124.88,729.24,124.88ZM749.79,116c.11,7.44.17,12.71.17,15.17,0,1.83-1,2.58-3.15,2.58-1.94,0-2.46-.69-2.46-2.06,0-2.29.12-7.27.17-15.69h-6.06v1.78c0,1.54-1.21,2.12-3,2.12-1.6,0-2.12-.63-2.12-1.72,0-2.92.23-5.9.23-17.63,0-3.78,0-7.56-.28-11.33a43.08,43.08,0,0,1,5.66,3h5.73v-.86a73.57,73.57,0,0,0-.35-10.07c6.53.63,7.39.91,7.39,1.94,0,.69-.57,1.09-2,1.66V92.2h6.24c2-2.29,2.46-2.63,2.92-2.63s1,.34,3,2c.91.75,1.2,1.26,1.2,1.72,0,.63-.52,1.09-1.72,1.77v3.72c0,9.79.35,16.54.35,18.78,0,1.54-1.09,2.17-3.09,2.17-1.49,0-2.18-.51-2.18-1.72V116Zm-5.15-22.43h-6.18V103h6.18Zm-.12,21.12c0-.75,0-1.43.06-2.18v-8.18h-6.12v10.36ZM756.37,103V93.52h-6.7V103Zm0,11.68V104.28h-6.64c0,2.86,0,5.72.06,8.58v1.78Z"/><path d="M783.5,93.75h2.23c1.95-2.52,2.52-2.87,2.92-2.87s1.2.35,2.86,2c.75.69,1.2,1.26,1.2,1.66s-.17.57-.74.57H783.5v5.21h3.66c2-2.57,2.69-3,3.09-3s1.15.46,3,2.12c.85.8,1.37,1.25,1.37,1.65s-.17.58-.75.58H771.54a14.27,14.27,0,0,0-2.87.34L768,99.81a15.26,15.26,0,0,0,3.67.46h6.81V95.06h-4.35a11.34,11.34,0,0,0-2.52.35L771,93.29a10.32,10.32,0,0,0,3,.46h4.52V88.94h-6.13a11.3,11.3,0,0,0-2.57.34l-.63-2.12a11,11,0,0,0,3.09.46h6.24V86.36a51.82,51.82,0,0,0-.29-5.66c6.41.63,7,1.2,7,1.77s-.63.92-1.77,1.37v3.78h3.2c2.12-2.63,2.69-3.09,3.09-3.09s1.15.29,3.15,2.12c.86.8,1.38,1.32,1.38,1.72s-.18.57-.75.57H783.5Zm-8.24,25.58c0,8.41.11,10.76.11,12,0,1.6-1,2.29-3,2.29-1.48,0-2.17-.52-2.17-2.12,0-3.2.34-7.67.34-16.37,0-6.75,0-8.24-.23-11.44a39.54,39.54,0,0,1,5.27,2.57h10.53c1.49-2,2.06-2.35,2.52-2.35s1,.23,2.8,1.95c.75.69,1.09,1.2,1.09,1.66s-.17.74-1.2,1.6v3.15c0,11.85.17,13.91.17,15.11,0,2.23-.51,3.78-1.6,4.75a7.26,7.26,0,0,1-4.35,1.15c-.69,0-.8-.06-1-1.26-.29-2-1.38-3-4.58-4.18-.29-.12-.29-.75,0-.69a46.5,46.5,0,0,0,6,.4c.45,0,.57-.17.57-.86v-7.38Zm3.49-1.32V107.6h-3.49V118Zm7.84-10.41h-3.38V118h3.38Zm30.56-22.21a6.35,6.35,0,0,1-1.89-.29,69.08,69.08,0,0,1-14.36,2.81,24.93,24.93,0,0,1-8.24,9.73c-.23.17-.58-.17-.46-.4a33.85,33.85,0,0,0,3.37-8.59,19.8,19.8,0,0,0,.58-4.41,30.69,30.69,0,0,1,4.52,2.24,41.81,41.81,0,0,0,8.93-3.84,16.89,16.89,0,0,0,3.15-2.23c4.52,2.8,5.6,3.66,5.6,4.24S818,85.39,817.15,85.39Zm-9.38,32.74c0,3.26.11,8.13.11,9.73a4.76,4.76,0,0,1-.57,2.92c-.8,1.49-2.86,2.52-5.15,2.52-1,0-1.43-.23-1.49-.75-.29-2.69-1.55-3.66-5.38-4.63-.29-.06-.29-.81,0-.81,2.29.18,4.69.35,6.12.35,1.15,0,1.38-.23,1.38-.75v-8.58h-5.27a12.08,12.08,0,0,0-3,.4l-.63-2.12a17.48,17.48,0,0,0,3.61.4h5.27v-8.24h-5.33a26.14,26.14,0,0,0-3.89.34l-.63-2.11a23.39,23.39,0,0,0,4.52.45h5.33V99.76h-3.44a16.27,16.27,0,0,0-3.78.45L794.94,98a21,21,0,0,0,4.3.46h12.3c1.55-2,2-2.29,2.46-2.29s1.09.34,3.15,1.89c.92.69,1.26,1.09,1.26,1.54s-.17.58-1.49,1.55v6.12h.17c1.44-2.74,1.89-3.2,2.29-3.2s1.09.4,2.41,2.29c.46.63,1,1.26,1,1.66s-.17.57-.74.57h-5.1c.06,5.9.23,9.9.23,11.45s-1,2.11-3,2.11c-1.43,0-2.06-.51-2.06-1.88v-2.12Zm-1.21-20.89c-1.43,0-2.06-.8-2.06-2.75a14.64,14.64,0,0,0-1.26-5.95c-.11-.29.29-.52.52-.35,3.83,2.47,5.44,4.24,5.44,6.36A2.72,2.72,0,0,1,806.56,97.24Zm1.21,10h4.29V99.76h-4.29Zm4.29,1.32h-4.29v8.24h4.29Zm5.55-11.9c-1.6,0-2.12-.69-2.69-3a13.92,13.92,0,0,0-3.26-6.53c-.17-.22.17-.51.46-.4,5.49,2.41,8,4.7,8,7A2.79,2.79,0,0,1,817.61,96.67Z"/><path d="M837.64,111.83a41.55,41.55,0,0,1-12.31,6.36c-.28.11-.63-.52-.4-.63,7.44-4.3,13.11-10.25,15.86-16.83h-10a28.36,28.36,0,0,0-4.07.34L826.13,99a20.87,20.87,0,0,0,4.36.46h10.18V90.77h-6.58a28.89,28.89,0,0,0-4.12.34L829.34,89a24,24,0,0,0,4.58.45h6.75V86.71c0-2.06-.11-3.84-.28-5.61,6.69.57,7.32,1.14,7.32,1.71,0,.4-.63.92-1.89,1.55v5.09h10V86.71c0-2.06-.11-3.84-.28-5.61,6.75.57,7.27,1.14,7.27,1.71,0,.4-.58.92-1.84,1.55v5.09h4.81c2.64-3,3.32-3.43,3.72-3.43s1.15.46,3.67,2.46c1,.8,1.43,1.32,1.43,1.72s-.18.57-.75.57H860.93v8.64h7c3-3.43,3.67-3.89,4.07-3.89s1.14.46,3.89,2.75c1.2,1,1.66,1.49,1.66,1.89s-.17.57-.74.57H858.59a20,20,0,0,0,7.84,7.21A39.15,39.15,0,0,0,878.51,112c.28.06.22.75-.06.86-1.89.86-2.18,1.2-3.15,3.78-.29.69-.46.92-.86.92a5.77,5.77,0,0,1-1.71-.63,28.75,28.75,0,0,1-7.79-5c-.34-.34-.69-.63-1-1a5.1,5.1,0,0,1-.51.4v1.94c0,3.78.11,5.73.11,6.41,0,1.43-.8,2-2.8,2-1.49,0-2.18-.46-2.18-1.72v-1H842.68v7.33c0,1.54,1,1.66,10.53,1.66,8.76,0,10.93-.52,12.07-1.78.75-.8,1.38-2.4,2.47-6.07,0-.28.74-.28.74,0-.06,1.66-.11,4.24-.11,5.27,0,.52.11.69.91,1a2.05,2.05,0,0,1,1.15,2c0,1.43-.81,2.41-2.87,3-2.69.86-7.67,1.14-16.42,1.14-11.74,0-13.57-.8-13.57-5.61,0-1.94.06-7.61.06-13.91Zm9.16-11.1a36.12,36.12,0,0,1-5.21,7.55c.34.18.74.4,1.14.58h15.34c1.49-1.66,1.95-2,2.52-2a40.47,40.47,0,0,1-3.2-6.12Zm11.73,9.44H842.68v7.44h15.85Zm-12.71-19.4v8.64h10V90.77Z"/><path d="M925.61,89.68c2.34-2.74,2.8-3.09,3.26-3.09s1,.35,4.41,3.38c1.54,1.43,1.89,1.83,1.89,2.29,0,.8-.58,1.2-2.46,1.2-1.26-.11-1.72-.06-2.41.52a32.18,32.18,0,0,1-5.15,3.09c-.23.11-.69-.18-.57-.46A20.71,20.71,0,0,0,926.35,91H891.27c.23,4.52-1.55,7.61-4.53,7.61a2.85,2.85,0,0,1-2.91-3,2.7,2.7,0,0,1,1.83-2.75c3-1.55,3.77-2.69,4.18-6.35,0-.29.57-.35.63-.06a18.25,18.25,0,0,1,.68,3.26h14.54V86c0-1.89-.06-3.43-.17-4.64,7,.69,7.73,1.32,7.73,2s-.69,1.09-2,1.6v4.75Zm-23.13,14.08a91.51,91.51,0,0,1-15.79,1.66c-.29,0-.29-.74,0-.8a93.1,93.1,0,0,0,23.75-7.73c3-1.54,5.15-3.09,6.24-4.52,4.81,3.09,6.12,4.35,6.12,5.21,0,.57-.57.86-3.49.46a57.46,57.46,0,0,1-11.39,4.41V112l15.86-2.17c2.86-4.18,3.32-4.52,3.77-4.52s1.21.34,4.24,2.23c1.49,1,1.83,1.32,1.83,1.77s-.29.58-.69.63l-25,3.44v9.44c0,4.29.4,4.47,8.93,4.47,6.53,0,8.59-.4,9.67-1.66.69-.81,1.43-2.58,3.21-7.67.11-.29.57-.29.57,0-.11,2-.23,4.52-.23,6.52,0,.69.17,1,1,1.26a2.1,2.1,0,0,1,1.66,2.06c0,1.72-1.15,2.92-3.9,3.61s-7,1-13.22,1c-10.93,0-13.11-1.78-13.11-7.39v-11L888.8,116a26.84,26.84,0,0,0-3.54.8l-.8-2a33.09,33.09,0,0,0,4.12-.11l13.9-1.89Z"/><path d="M963,100c2.06-2.92,2.63-3.6,3.2-3.6s1.2.45,3.44,2.34c1.08,1,1.43,1.38,1.43,1.83,0,.29-.35.52-.8.52l-9.45.34c.06.69.12,1.38.23,2a33.22,33.22,0,0,0,3.55,12,11.3,11.3,0,0,0,2.17,2.74c.23,0,.69-.86,2.47-5.66.11-.29.68-.18.62.11-.28,2.12-.68,5.84-.68,6.7a2.91,2.91,0,0,0,.68,1.77,2.82,2.82,0,0,1,.75,1.89,2.45,2.45,0,0,1-2.69,2.52c-1.78,0-3.84-1.55-5.67-4.18a37.46,37.46,0,0,1-5.38-13.28,55.35,55.35,0,0,1-.91-6.47l-7.62.29V117a72.76,72.76,0,0,0,9.28-2.57c.28-.12.63.68.4.85a67.37,67.37,0,0,1-14.2,7.79c-.17,1.43-.57,2.12-1.37,2.12s-1.43-1.72-2.75-6.93c1.09-.06,2.29-.17,3.49-.34v-26a55.27,55.27,0,0,0-.34-7.21,43.47,43.47,0,0,1,6.12,3A45.6,45.6,0,0,0,959,84a27,27,0,0,0,4.46-2.81c3.78,2.41,5.56,4,5.56,4.58s-1,1.2-3.38.63a46.93,46.93,0,0,1-6.87,1.66c3.09.34,3.44.57,3.44,1.32,0,.51-.4.85-1.84,1.37,0,3.43.06,6.52.29,9.33Zm-6.53,28.39c2.41-3,3.09-3.43,3.49-3.43s1.15.45,3.67,2.4c1.08.92,1.54,1.37,1.54,1.77s-.17.58-.74.58H947.24a23.4,23.4,0,0,0-3.72.34l-.63-2.12a19.32,19.32,0,0,0,4.18.46Zm-.63-28.1c-.28-4-.46-7.84-.57-11.79a65.37,65.37,0,0,1-6.93.51v11.51Zm29.25-15.4c2-2.23,2.46-2.57,2.92-2.57s1,.34,3.38,2.51c1,1,1.37,1.44,1.37,1.89,0,.63-.29.86-1.95,1.26a114.84,114.84,0,0,1-9.38,14.6c7.49,5.21,10.07,9.16,10.07,15a8.39,8.39,0,0,1-2.06,5.9,6,6,0,0,1-4.41,1.77c-.91,0-1-.17-1.43-1.77s-2.17-2.75-5.61-3.44c-.28-.06-.28-.86,0-.86,2.23.17,3.49.23,5.44.23,1.66,0,1.95-.11,2.23-.4.4-.46.46-1.49.46-3.49,0-4.86-2-9-6-12.71a126,126,0,0,0,5.15-16.65h-8.13v35.26c0,4.69.12,8.41.12,9.9,0,1.83-1.15,2.4-3.09,2.4S972,133,972,131.75c0-4.41.17-10.93.17-31.59,0-10.13-.06-14.66-.29-18a55.19,55.19,0,0,1,5.78,2.75Z"/><path d="M11.2,268.52c0,7.05-2.46,11.36-6.84,11.36a3.56,3.56,0,0,1-3.73-3.74c0-1.84.77-2.89,3.17-4C8,270.29,9.51,268,9.86,263.23c0-.35.85-.42.92-.07A37.54,37.54,0,0,1,11.2,268.52Zm22.85-20c0,2.54.07,4.44.07,5.5,0,2.11-1.13,3-4,3-2.26,0-3-.71-3-2.61,0-.92.07-2.82.14-5.85H13.74v1.2c0,2.32-1.13,3-3.88,3-2.46,0-3.17-.71-3.17-2.54s.21-4,.21-11.28c0-4-.07-8-.42-12.13a66.78,66.78,0,0,1,8.25,3.95H27.35c0-5.5-.14-7.76-.28-11.14,7.54.77,8.74,1.13,8.74,2.32,0,.64-.49,1.13-2,1.77v7h14c2.68-3,3.24-3.39,3.81-3.39s1.26.43,4,2.61c1.2,1,1.63,1.48,1.63,2.05,0,.77-.57,1.34-2,2.18v2.54c0,6.77.14,11.78.14,13.33,0,2.18-1.13,3-4,3-2.11,0-3-.7-3-2.68V248.5Zm-6.84-1.62c.07-2.9.14-6.63.14-11.36v-3.24H13.74v14.6Zm-3.46,28c0,2,1,2.26,9,2.26,5,0,7.54-.08,9.31-1.34s2.54-3.6,3.95-8.25c.07-.36.77-.22.77.14-.07,1.83-.14,3.59-.14,6,0,1.34.07,1.48,1.83,2.26A2.28,2.28,0,0,1,49.7,278c0,1.62-1,2.75-3.38,3.53-2.82.84-7.48,1.2-14.74,1.2-12.34,0-14.38-1.13-14.38-8.11,0-1.41.21-2.89.21-8.82a63.89,63.89,0,0,0-.35-7.26c7.75.92,8.74,1.13,8.74,2.05,0,.63-.42,1-2.05,1.9Zm13.33-3.74c-2,0-2.54-.56-3.74-4.3-.91-2.68-2.18-4.37-5.07-7-.28-.21.07-.63.42-.56,7.62,1.26,11.78,4,11.78,8C40.47,269.51,39.06,271.13,37.08,271.13Zm11.28-24.25v-14.6H33.77l.21,14.6Zm10.58,32.64c-2.26,0-2.89-.91-3.95-5.43-1.27-4.93-2.33-7-5.15-10.08a.44.44,0,0,1,.5-.63c8,2.6,12.27,6.62,12.27,11.56C62.61,277.62,61.2,279.52,58.94,279.52Z"/><path d="M122,241.38c3.53-3.95,4.37-4.52,4.87-4.52s1.41.57,4.51,3.25c1.34,1.12,1.9,1.69,1.9,2.18s-.21.71-.91.71h-21a89.5,89.5,0,0,1-9,7.19H113.3c3-2.89,3.6-3.31,4.16-3.31s1.27.42,4.37,3c1.48,1.27,1.91,1.76,1.91,2.32,0,1-.92,1.41-3.53,1.49a59.91,59.91,0,0,1-12.9,5.57c-.14.63-.78,1.12-2.12,1.83v3h15.58c3.39-3.81,4.23-4.37,4.73-4.37s1.41.56,4.51,3c1.41,1.13,2,1.76,2,2.26s-.22.7-.92.7H105.19v3.81c0,5.36.21,6.49.21,8.32a8.13,8.13,0,0,1-1,4.16c-1.2,2.05-3.6,3-7.06,3-1.41,0-1.41-.14-1.83-2.18-.35-1.84-2.54-3.25-7.9-4.45-.35-.07-.35-1,0-1,3.53.21,6.77.42,10,.42.63,0,.84-.28.84-1.06V265.77H81.22a26.62,26.62,0,0,0-4.44.43l-.71-2.26c-2.47.85-4.94,1.62-7.47,2.26-.36.07-.71-.85-.36-1a118.59,118.59,0,0,0,24.68-13.4H83.83a15.41,15.41,0,0,0-4.09.57L79,249.63a19.89,19.89,0,0,0,4.65.56H95.18c3-2.26,5.92-4.65,8.67-7.19H75.65a34.45,34.45,0,0,0-4.94.42l-.77-2.61a26.31,26.31,0,0,0,5.35.57H94.47V231.5h-12a26.39,26.39,0,0,0-4.31.43l-.77-2.61a22,22,0,0,0,4.86.56H94.47v-2.32a72.38,72.38,0,0,0-.42-7.83c8.67.77,9.45,1.55,9.45,2.33s-.78,1.27-2.33,1.83v6h4.51c2.83-3.38,3.67-3.95,4.16-3.95s1.34.57,4,2.75a5.58,5.58,0,0,1,1.48,1.56,69.86,69.86,0,0,0,5.22-8.32c5.64,3,7.83,4.44,7.83,5.28,0,1-1,1.34-3.53,1.34a111.42,111.42,0,0,1-11.7,12.84Zm-21.86,10.43a112.74,112.74,0,0,1-23.48,11.92,25.57,25.57,0,0,0,4.31.42H98.42v-.92a65.34,65.34,0,0,0-.21-6.69c4,.63,6.21,1,7.47,1.34a37.93,37.93,0,0,0,7.41-6.07Zm5.43-10.43a89.7,89.7,0,0,0,8.82-9.88H101.17v9.88Z"/><path d="M159,265c0,12.34.21,15.65.21,17.06,0,2.05-1.2,2.75-3.81,2.75-2,0-2.68-.63-2.68-2.47,0-1.69.42-8.32.57-15.3-4.94,6.21-8,8.75-14,12-.28.14-.7-.49-.49-.78,6.56-6.84,10.22-12.41,13.47-20.66h-6.77a25.12,25.12,0,0,0-4.3.43l-.78-2.61a21.58,21.58,0,0,0,4.8.56h8v-2.11a53.73,53.73,0,0,0-.28-5.57c6,.49,8.11,1,8.11,2,0,.64-.49,1.06-2,1.69V256h4.93c2.47-3,3.32-3.59,3.81-3.59s1.41.56,3.81,2.53c1.06.85,1.62,1.48,1.62,2s-.21.7-.92.7H159v3.46c6.77,1.27,10.29,3.88,10.29,7.26a3,3,0,0,1-3,3.32c-1.69,0-2.4-.71-3.31-3.32a14.21,14.21,0,0,0-4-6.2Zm-1.2-19.6a71.14,71.14,0,0,0,2.82-8.54,44.55,44.55,0,0,0,.85-4.79c5.49,1.62,7.68,2.68,7.68,3.66,0,.78-.56,1.06-2.54,1.2a59.28,59.28,0,0,1-7,8.47h4.51c2.9-3.53,3.74-4.09,4.23-4.09s1.34.56,4.09,2.82c1.2,1.05,1.77,1.69,1.77,2.18s-.21.71-.92.71H145.17a24.54,24.54,0,0,0-4.16.42l-.78-2.61a22.23,22.23,0,0,0,4.87.57Zm-4.66-20.24c0-1.83-.07-3.53-.21-5.29,7.69.63,8.61,1.27,8.61,1.9s-.71,1.2-2.19,1.77v6.27H164c2.19-3,3-3.59,3.53-3.59s1.34.56,3.74,2.53c1,.85,1.55,1.49,1.55,2s-.21.7-.92.7h-25a24.39,24.39,0,0,0-4.23.43l-.78-2.61a21.58,21.58,0,0,0,4.8.56h6.48ZM151,244c-2.05,0-2.33-.56-2.89-4.79a13.36,13.36,0,0,0-1.83-5.71c-.22-.28.14-.71.49-.57,4.86,1.84,7.4,4.45,7.4,7.41C154.19,242.5,152.92,244,151,244Zm30.39,1a92.22,92.22,0,0,1-1.48,15c-2.26,11.85-6.77,18.26-14.53,23.69-.28.21-1.05-.49-.84-.77,5.92-7.12,8.74-14.25,10.08-26.87.56-5.43.56-11.91.56-19.81,0-3.81-.14-5.78-.42-9.24,3.39,1.41,4.09,1.62,7.41,3.24a42,42,0,0,0,9.16-6.06,28.67,28.67,0,0,0,3.88-3.81c4.79,2.82,7.05,4.59,7.05,5.5,0,.64-.49,1.13-3.1.85A70.66,70.66,0,0,1,181.62,232v1.69c0,3.67-.07,6.84-.14,9.66h14.17c2.89-3.67,3.74-4.23,4.23-4.23.64,0,1.34.56,4.23,3,1.27,1.06,1.84,1.69,1.84,2.19s-.21.7-.92.7h-9.59v13.12c0,9.09.14,20.37.14,24.11,0,1.76-1.48,2.54-4,2.54-1.83,0-2.82-.56-2.82-2.12,0-1.76.28-7.19.28-18.05V245Z"/><path d="M246.21,257.17h10.43c3.53-4.51,4.37-5.08,4.87-5.08s1.34.57,4.79,3.53c1.55,1.34,2.12,2,2.12,2.47s-.22.7-.92.7H246.21v19.67h15.37c4-4.72,4.86-5.28,5.36-5.28s1.41.56,5.14,3.66c1.7,1.41,2.26,2.05,2.26,2.54s-.21.71-.92.71H219.2a63.5,63.5,0,0,0-6.77.42l-.77-2.61a50.83,50.83,0,0,0,7.47.56h20.24V258.79H227.1a48.08,48.08,0,0,0-5.93.43l-.77-2.61a37.13,37.13,0,0,0,6.34.56h12.63V240.53h-12.7a40.42,40.42,0,0,1-13.6,15.23c-.29.21-.92-.28-.71-.56,4.3-5.29,8.18-13.61,10.44-21.65a63.08,63.08,0,0,0,1.69-8.18c6.56,1.69,9.09,2.68,9.09,3.81,0,.84-.77,1.27-2.82,1.83a72.28,72.28,0,0,1-3.24,7.9h11.85v-8.6a95.64,95.64,0,0,0-.43-10c9,.85,9.87,1.7,9.87,2.54s-.84,1.41-2.6,2v14.1h12.12c3.6-4.66,4.45-5.22,4.94-5.22s1.34.56,4.93,3.6c1.63,1.34,2.12,2,2.12,2.53s-.21.71-.92.71H246.21Z"/><path d="M297.75,231.22a45.44,45.44,0,0,0,1.83-5.22,42.57,42.57,0,0,0,1.27-5.5c5.64,1.84,7.26,2.47,7.26,3.32,0,.63-.56.92-2.19,1.06a29.09,29.09,0,0,1-5.92,6.34h4.8c2.39-2.75,3-3.17,3.52-3.17s1.34.42,3.6,2.19c1.06.84,1.48,1.33,1.48,1.9s-.28.7-1.06.7H302.19v6.07h1.69c1.62-2.33,2.47-2.89,3-2.89.64,0,1.41.56,3.32,2,.77.64,1.34,1.27,1.34,1.76s-.22.71-.92.71h-8.39v6.13h1.55c1.62-2.25,2.47-2.82,3-2.82s1.41.57,3.38,2c.78.63,1.34,1.2,1.34,1.69s-.21.71-.91.71h-8.32V255h3.17c1.83-2.53,2.68-3.1,3.17-3.1.64,0,1.41.57,3.46,2.19.84.7,1.41,1.34,1.41,1.83s-.21.71-.92.71H291.61v1.05c0,1.7-1.06,2.33-3.45,2.33-1.56,0-2.33-.42-2.33-1.76,0-3.25.35-6.49.35-19.6v-2.75a32.36,32.36,0,0,1-6.34,4.44c-.29.14-.64-.28-.43-.57a44.59,44.59,0,0,0,8-12.69,44,44,0,0,0,2.26-6.91c5.57,1.48,7.68,2.26,7.68,3.1s-.49,1-2.32,1.2a43.09,43.09,0,0,1-4.45,6.77Zm16.57,46.26c-8.75,4.09-19.25,6.48-32.44,7.4-.35,0-.78-1.13-.42-1.2,11.63-2.25,20.73-5.22,28-9.23A39.89,39.89,0,0,1,300.14,264h-8.67a17.26,17.26,0,0,0-4.3.56l-.78-2.75a22.78,22.78,0,0,0,5,.57h31.38c2.89-2.47,3.45-2.89,4-2.89s1.27.42,4.44,2.89c1.48,1.27,1.9,1.76,1.9,2.33,0,.91-.56,1.19-3.1,1.55a55,55,0,0,1-10.22,8.25c6.13,1.69,14,2.53,26.51,2.32.35,0,.28.64-.07.78-2.61,1.13-3.32,2.18-4.16,5.64-.21,1-.64,1.27-1.7,1.27a40.22,40.22,0,0,1-6.48-.71c-6.35-1.12-12.84-2.75-18.55-5.78ZM297,238.91v-6.07h-5.36v6.07Zm-5.36,7.75H297v-6.13h-5.36Zm0,8.32H297v-6.69h-5.36ZM302,264a36.54,36.54,0,0,0,11.28,8.18,48.89,48.89,0,0,0,9.52-8.18Zm18-6.7c0,1.69-.92,2.4-3.32,2.4-1.62,0-2.39-.57-2.39-1.69,0-2.26.21-4.59.21-13.82,0-2.75,0-5.5.07-8.25-1.06.77-2.12,1.62-3.39,2.39-.28.22-.7-.21-.49-.49a41.7,41.7,0,0,0,6-11.42,35.57,35.57,0,0,0,1.69-6.28c5.86,1.69,7.55,2.33,7.55,3.18,0,.63-.35.91-2.19,1.12a38.73,38.73,0,0,1-4.37,6.77h6.91a54.94,54.94,0,0,0,2.12-5.92,38.68,38.68,0,0,0,1-4.8c5.65,1.84,7.27,2.47,7.27,3.32,0,.63-.57.92-2.19,1.06a29.87,29.87,0,0,1-5.92,6.34h6.56c2.46-2.89,3-3.31,3.59-3.31.71,0,1.34.42,3.88,2.25,1.2.92,1.62,1.41,1.62,2s-.28.7-1.06.7H331.66v6.07h2.54c1.76-2.47,2.61-3,3.1-3s1.41.56,3.53,2.11c.91.78,1.48,1.34,1.48,1.83s-.21.71-.92.71h-9.73v6.13h2.47c1.76-2.39,2.61-3,3.1-3s1.41.57,3.53,2.12c.84.7,1.41,1.27,1.41,1.76s-.21.71-.92.71h-9.59V255h4.09c2.12-2.75,3-3.31,3.46-3.31s1.41.56,3.73,2.33c1,.84,1.55,1.41,1.55,1.9s-.21.71-.91.71H320Zm6.27-18.4v-6.07H320v6.07ZM320,246.66h6.27v-6.13H320Zm0,8.32h6.27v-6.69H320Z"/><path d="M365.64,251.67c2-.56,4.16-1.27,6.7-2.19.35-.14.57.64.28.85-2.32,1.69-4.72,3.31-7,4.72v6.56c0,6.91.07,13.05.07,15.66s-.56,4.23-1.76,5.43-3.17,1.69-5.85,1.69c-.64,0-1-.5-1.06-1.48-.07-2.75-1.27-3.67-6.34-5.22-.36-.07-.36-.92,0-.92,3,.28,5.57.36,7.68.36.92,0,1-.15,1-1.06V258.65c-1.2.57-2.33,1.13-3.46,1.62-.21,1.77-.7,2.54-1.48,2.54s-1.05-.63-3.45-8.11c1.48-.21,2.82-.42,4.09-.63,1.55-.28,3-.57,4.3-.85V237.43H355.7a18.92,18.92,0,0,0-3.66.42l-.78-2.61a18.35,18.35,0,0,0,4.44.57h3.67v-7.69a63.14,63.14,0,0,0-.35-8.32c7.26.63,8.88,1,8.88,2,0,.71-.63,1.2-2.26,1.91v12.06h.43c2.11-3.11,3-3.67,3.45-3.67.64,0,1.34.56,3.53,2.54.91.91,1.48,1.55,1.48,2s-.21.71-.92.71h-8Zm37.09-14.17c2-2.33,2.61-2.75,3.18-2.75s1.34.42,3.73,2.25c1.06.78,1.48,1.27,1.48,1.84s-.21.7-1.69,2v5.22h.21c2.05-3.31,2.89-3.88,3.39-3.88s1.2.57,3.17,2.75a4.19,4.19,0,0,1,1.27,2.05c0,.49-.21.7-.92.7h-7.12c.07,4.73.21,8,.21,9.24,0,1.69-1.34,2.47-3.52,2.47s-2.75-.78-2.75-2.19V257h-9v8.25H403c2.9-3.6,3.74-4.16,4.24-4.16s1.34.56,4.16,2.89c1.19,1.06,1.76,1.69,1.76,2.19s-.21.7-.92.7H394.34v10.22c2.47.22,5.5.29,9.1.29a111.79,111.79,0,0,0,13.61-.64c.35,0,.28.64,0,.85-2.05,1.34-2.89,2.25-3.25,4.65-.21,1.41-.42,1.69-1.2,1.76a24.39,24.39,0,0,1-3.38.15c-8,0-15.16-.78-20.31-3-4.58-1.9-7.54-4.93-10.15-9.59-3,6.07-7.12,10.37-12.55,12.77-.35.14-.92-.57-.64-.78,4-3.24,7.41-10,8.82-17.34a35.86,35.86,0,0,0,.7-6.07c6.77,1.06,8.25,1.48,8.25,2.4,0,.63-.49,1.06-1.9,1.55a41.33,41.33,0,0,1-1.83,5.57,15.13,15.13,0,0,0,8.6,6.56V257h-9.59a20.72,20.72,0,0,0-4.3.49l-.78-2.61a28,28,0,0,0,5.08.5h9.59v-7.62H376.43a25.12,25.12,0,0,0-4.3.43l-.77-2.61a23.77,23.77,0,0,0,5.07.56h11.78v-7h-7.34a22,22,0,0,0-4.86.56l-.78-2.75a28.14,28.14,0,0,0,5.57.57h7.41v-6.14H376.78a26.72,26.72,0,0,0-4.44.43l-.77-2.61a23.77,23.77,0,0,0,5.07.56h11.57V227a70.13,70.13,0,0,0-.21-7.12c7.61.78,8.32,1.48,8.32,2.19,0,.56-.57,1-2,1.62v6.06h9.73c3.46-4.09,4.3-4.65,4.8-4.65s1.41.56,4.79,3.24c1.48,1.2,2,1.83,2,2.33s-.21.7-.92.7H394.34v6.14Zm-8.39,8.6h9v-7h-9Zm0,1.62v7.62h9v-7.62Z"/><path class="cls-1" d="M453.64,219.45h3.1v65h-3.1Z"/><path d="M530.86,267.75l-4,11H493.14v-1.56q14.88-13.57,21-22.17t6.06-15.72a12.43,12.43,0,0,0-3.33-8.94,10.61,10.61,0,0,0-8-3.5,12.5,12.5,0,0,0-7.57,2.47,14.31,14.31,0,0,0-5,7.23h-1.56q1.05-7.8,5.42-12a15.15,15.15,0,0,1,10.89-4.17,16.08,16.08,0,0,1,11.61,4.46,14.12,14.12,0,0,1,4.66,10.54,20.37,20.37,0,0,1-2,8.68,57.25,57.25,0,0,1-10.12,14.46q-10.49,11.46-13.1,13.82H517a41.57,41.57,0,0,0,6.38-.33,8.52,8.52,0,0,0,3.31-1.37,9.06,9.06,0,0,0,2.57-2.93Z"/><path d="M538.83,232.47a23,23,0,0,1,6.17-8.91,13.9,13.9,0,0,1,9.29-3.14q6.87,0,10.54,4.46a11,11,0,0,1,2.78,7.13q0,6.23-7.84,12.89a17.07,17.07,0,0,1,8,5.9,15.29,15.29,0,0,1,2.7,9,19,19,0,0,1-4.72,12.86q-6.16,7.08-17.83,7.08-5.77,0-7.86-1.43c-1.39-1-2.09-2-2.09-3.08a2.86,2.86,0,0,1,1-2.15,3.35,3.35,0,0,1,2.38-.93,7.14,7.14,0,0,1,2.15.34,24.69,24.69,0,0,1,3.25,1.54,21.18,21.18,0,0,0,3.49,1.58,11.6,11.6,0,0,0,3.33.46,10,10,0,0,0,7.49-3.33,11,11,0,0,0,3.18-7.88,15.11,15.11,0,0,0-1.48-6.49,11.47,11.47,0,0,0-2.4-3.58,17.59,17.59,0,0,0-5-3.06,16.15,16.15,0,0,0-6.45-1.37h-1.35v-1.26a17.38,17.38,0,0,0,6.68-2.4A12.76,12.76,0,0,0,559.1,242a12.55,12.55,0,0,0,1.52-6.11,9.44,9.44,0,0,0-2.72-7,9.29,9.29,0,0,0-6.77-2.67q-6.52,0-10.91,7Z"/><path d="M618.57,255.13c.42-.43.7-.29,1.06.07s.42.7.07,1.19c-3,3.67-6.63,7.06-10.51,7.06a16,16,0,0,1-8.88-2.26c-4.24-2.26-7.13-4-9.88-4-3,0-4.72.28-8.39,2.75-.28.28-.63.14-1-.28s-.29-.64,0-1c3.1-3.6,6.62-6.63,10.57-6.63a18.19,18.19,0,0,1,8.68,2.12c4.08,2,7.12,4.09,10,4.09S615.47,257.59,618.57,255.13Z"/><path d="M660.69,221.6l-3.29,7.16H640.2l-3.75,7.67q11.17,1.65,17.7,8.3a18.67,18.67,0,0,1,5.61,13.49,19.15,19.15,0,0,1-1.83,8.35,22.68,22.68,0,0,1-4.62,6.53,23.55,23.55,0,0,1-6.19,4.34,22.94,22.94,0,0,1-10,2.32c-3.43,0-5.92-.59-7.48-1.75a4.89,4.89,0,0,1-2.34-3.86,2.76,2.76,0,0,1,1-2.08,3.4,3.4,0,0,1,2.44-.91,5,5,0,0,1,1.92.34,17.17,17.17,0,0,1,2.8,1.73,11.16,11.16,0,0,0,6.41,2.19,11.91,11.91,0,0,0,8.66-3.73,12.37,12.37,0,0,0,3.73-9.09,15.92,15.92,0,0,0-3.33-9.67,21.37,21.37,0,0,0-9.19-6.93q-4.59-1.91-12.52-2.19l11-22.21Z"/><path d="M670.76,232.47a23.24,23.24,0,0,1,6.17-8.91,13.92,13.92,0,0,1,9.3-3.14q6.87,0,10.53,4.46a10.92,10.92,0,0,1,2.79,7.13q0,6.23-7.84,12.89a17,17,0,0,1,8,5.9,15.29,15.29,0,0,1,2.7,9,19,19,0,0,1-4.72,12.86q-6.15,7.08-17.83,7.08-5.77,0-7.86-1.43c-1.39-1-2.09-2-2.09-3.08a2.86,2.86,0,0,1,1-2.15,3.37,3.37,0,0,1,2.39-.93,7.19,7.19,0,0,1,2.15.34,25.48,25.48,0,0,1,3.24,1.54,21.15,21.15,0,0,0,3.5,1.58,11.6,11.6,0,0,0,3.33.46,10,10,0,0,0,7.48-3.33,11,11,0,0,0,3.18-7.88,15.24,15.24,0,0,0-1.47-6.49,11.48,11.48,0,0,0-2.41-3.58,17.31,17.31,0,0,0-5-3.06,16.15,16.15,0,0,0-6.45-1.37h-1.35v-1.26a17.38,17.38,0,0,0,6.68-2.4A12.69,12.69,0,0,0,691,242a12.55,12.55,0,0,0,1.52-6.11,9.44,9.44,0,0,0-2.72-7,9.27,9.27,0,0,0-6.76-2.67q-6.54,0-10.92,7Z"/><path d="M726.81,262.53c3.1-1,6.13-2.19,8.81-3.31.36-.15.64.7.36.91A89.17,89.17,0,0,1,717.5,272c-.14,2.18-.56,3-1.55,3s-2-1.9-4.3-8.53a39,39,0,0,0,5.5-1.06l3.31-.85V241.73h-4.09a16.48,16.48,0,0,0-3.38.42l-.78-2.61a13.67,13.67,0,0,0,3.88.57h4.37v-11c-.07-3.39-.21-6.21-.42-8.61,8.46.85,9.31,1.63,9.31,2.4,0,.57-.85,1.27-2.54,2v15.16H728c2.33-3.18,3.17-3.74,3.66-3.74s1.34.56,3.6,2.61c.92.92,1.48,1.55,1.48,2s-.21.71-.91.71h-9Zm29.61-7h9.73c3.32-4.09,4.45-4.73,4.94-4.73s1.41.43,4.65,3.32c1.41,1.2,2,1.83,2,2.32s-.21.71-.92.71H756.42v3.74c0,10.57.43,18.68.43,20.73s-1.27,2.89-4.16,2.89c-2.12,0-3-.71-3-2.19,0-1.69.22-11.07.22-21.43V257.1H736.05a21.72,21.72,0,0,0-3.95.42l-.78-2.61a19.57,19.57,0,0,0,4.66.57h13.89V227.2H739.15a25.12,25.12,0,0,0-4.3.43l-.78-2.61a21,21,0,0,0,4.73.56h25.73c2.89-3.66,3.74-4.23,4.23-4.23s1.41.57,4.37,3c1.34,1.06,1.91,1.69,1.91,2.19s-.21.7-.92.7h-17.7Zm-14-5.64c-1.9,0-2.61-1.2-2.89-4.73-.49-5.78-1.34-9-3.17-12.41-.14-.28.28-.84.56-.63,6.21,3.81,9.38,8.46,9.38,13.18C746.27,248,744.58,249.84,742.39,249.84Zm28.77-13a67.15,67.15,0,0,1-10.58,14.46c-.21.28-1.19-.21-1.05-.57a74.49,74.49,0,0,0,3.87-11.49,71.12,71.12,0,0,0,1.63-7.83c7.54,2.47,8.81,3,8.81,4C773.84,236.23,773.06,236.65,771.16,236.86Z"/><path d="M843.1,267.75l-4,11H805.38v-1.56q14.86-13.57,20.94-22.17t6.07-15.72a12.43,12.43,0,0,0-3.33-8.94,10.61,10.61,0,0,0-8-3.5,12.48,12.48,0,0,0-7.57,2.47,14.31,14.31,0,0,0-4.95,7.23H807q1.05-7.8,5.41-12a15.15,15.15,0,0,1,10.9-4.17,16.08,16.08,0,0,1,11.61,4.46,14.12,14.12,0,0,1,4.66,10.54,20.52,20.52,0,0,1-2,8.68,57.51,57.51,0,0,1-10.12,14.46Q817,270,814.35,272.38h14.92a41.63,41.63,0,0,0,6.39-.33,8.59,8.59,0,0,0,3.31-1.37,9.06,9.06,0,0,0,2.57-2.93Z"/><path d="M887.65,255.13c.42-.43.7-.29,1.05.07s.43.7.07,1.19c-3,3.67-6.62,7.06-10.5,7.06a16.08,16.08,0,0,1-8.89-2.26c-4.23-2.26-7.12-4-9.87-4-3,0-4.72.28-8.39,2.75-.28.28-.63.14-1-.28s-.28-.64,0-1c3.11-3.6,6.63-6.63,10.58-6.63a18.13,18.13,0,0,1,8.67,2.12c4.09,2,7.13,4.09,10,4.09S884.54,257.59,887.65,255.13Z"/><path d="M932.46,257.67v6h-7.67v15.09h-6.95V263.66h-24.2v-5.4l26.52-37.84h4.63v37.25Zm-14.62,0V229.31l-20.06,28.36Z"/><path d="M951.46,256.54a51.73,51.73,0,0,1-2.4,11.49c-2.11,6.35-5.57,10.86-11.07,15.86-.28.22-.84-.28-.63-.56a50.1,50.1,0,0,0,6.41-17.49c1.2-6.62,1.7-14.87,1.7-26.37,0-4.44-.07-6.49-.36-10.36,3.81,1.69,4.52,1.9,8.32,3.87h35.19c2.68-2.89,3.24-3.31,3.81-3.31s1.27.42,3.87,2.54c1.13.92,1.56,1.41,1.56,2s-.22.78-2,2v2c0,2.68.14,5.22.14,7,0,2.33-1.13,3.25-3.66,3.25-2.19,0-3.11-.85-3.11-2.82V245h-37c-.07,3.32-.29,6.63-.64,9.87h17.07v-3.24c0-1.13-.15-2.82-.29-4.86,8,.77,8.75,1.55,8.75,2.32,0,.5-.71,1.13-2,1.91v3.87h15.58c3.39-3.87,4.23-4.44,4.73-4.44s1.41.57,4.65,3.1c1.48,1.2,2.05,1.77,2.05,2.26s-.21.71-.92.71H972.05a47.68,47.68,0,0,1-1.2,7.12h16.5c2.47-2.82,3-3.25,3.6-3.25s1.27.43,3.87,2.82c1.13,1.06,1.56,1.56,1.56,2.12s-.22.7-2.19,1.9c-.64,5.43-1.2,8.89-2.26,11.43a8.25,8.25,0,0,1-3.8,4.51,11.83,11.83,0,0,1-5.36,1c-1.77,0-2.12-.29-2.4-1.77-.35-2-2-3.38-7-4.79-.35-.07-.28-1.13.07-1.06a91,91,0,0,0,9.38.85c2,0,2.82-.57,3.45-2.68a42.33,42.33,0,0,0,1.62-9.45H970.36C967.11,275,959.64,281,947,284.67c-.36.07-.71-.71-.43-.85,12-6.41,17.84-14.8,18.83-27.28Zm38.71-32.72c3.74-4.09,4.58-4.65,5.08-4.65s1.48.56,5.14,3.24c1.7,1.27,2.26,1.83,2.26,2.33s-.21.7-.92.7H946.24a40,40,0,0,0-5.36.42l-.77-2.61a32.15,32.15,0,0,0,6,.57Zm-.92,10.79H952.38v2.89c0,2.11-.07,4-.07,5.92h36.94Z"/><path class="cls-1" d="M1040.51,219.45h3.1v65h-3.1Z"/><path class="cls-7" d="M401.63,505.39c0,1.3,0,3,.41,3.75s1.64.9,3,.9a8.05,8.05,0,0,0,5.3-1.58,11.58,11.58,0,0,0,2.42-3.1c.13-.22.19-.28.53-.19s.34.25.31.44a42.4,42.4,0,0,1-1.61,5.48c-2.76-.06-5.61-.09-8.19-.09s-5.67,0-8.43.09c-.22,0-.28-.06-.28-.37s.06-.37.28-.4c1.18-.12,1.77-.16,2.14-.81s.4-2,.4-4.12V494.13c0-3,0-3.38-.37-4.06s-1-.62-2.23-.74c-.25,0-.31-.06-.31-.41s.06-.43.31-.43c1.33,0,3,.13,4.4.13s3.07-.1,4.4-.13c.25,0,.34.06.34.43s-.09.38-.28.41c-1.17.12-1.82.12-2.17.74s-.34,2.11-.34,4.06Z"/><path class="cls-7" d="M429.5,504.06c0,4.15-2.88,7.53-7.25,7.53a7.12,7.12,0,0,1-7.23-7.47c0-4.16,3-7.63,7.23-7.63A7.23,7.23,0,0,1,429.5,504.06Zm-10.85,0c0,3.87,1.15,6.6,3.6,6.6s3.62-2.94,3.62-6.6c0-3.94-1.14-6.64-3.62-6.64S418.65,500.34,418.65,504.06Z"/><path class="cls-7" d="M438.64,505.64c.35,1,.5,1.52.81,2.57.4-1.08.62-1.61,1-2.73l1.3-4.06c.5-1.55.66-2.6.41-3.07s-.78-.53-1.61-.62c-.16,0-.22-.06-.22-.37s.06-.37.25-.37c.9.06,2.07.09,2.91.09s1.8,0,2.61-.09c.24,0,.3.06.3.37s-.06.34-.3.37a2.81,2.81,0,0,0-1.59.74,9.41,9.41,0,0,0-1.55,2.95l-2.07,5.77c-.59,1.61-.81,2.29-1.31,3.63a8.32,8.32,0,0,1-1.89.71.31.31,0,0,1-.28-.19c-.43-1.3-.8-2.35-1.42-4.06l-2.2-5.86a14.39,14.39,0,0,0-1.46-3.19c-.4-.41-.75-.44-1.64-.5-.19,0-.25-.06-.25-.37s0-.37.25-.37c1.17,0,2.54.09,3.56.09s2.57,0,3.75-.09c.22,0,.25.06.25.37s0,.37-.22.37c-.86,0-1.55.09-1.73.53s.21,1.42.87,3.16Z"/><path class="cls-7" d="M450.89,504c0,4.1,2.51,6.14,4.43,6.14a4.75,4.75,0,0,0,4.31-2.23.38.38,0,0,1,.31-.15.57.57,0,0,1,.28.12c.12.09.25.22.25.31a.86.86,0,0,1-.16.34,6.14,6.14,0,0,1-5.73,3.07c-4.28,0-7.16-3.16-7.16-7.44s3-7.66,7.19-7.66a6.12,6.12,0,0,1,6,5.77.66.66,0,0,1-.15.52c-.16.19-.28.16-.47.16-3.13-.09-6.26-.12-9-.06A4.76,4.76,0,0,0,450.89,504Zm6.08-2.32c.24,0,.27-.22.27-.5-.09-1.73-.83-3.75-2.63-3.75s-3,1.8-3.44,4.34A53.49,53.49,0,0,0,457,501.67Z"/><path class="cls-7" d="M484.34,507.59c0,2,.4,2.73,1.11,2.73a1.51,1.51,0,0,0,.9-.22c.13-.06.28-.06.41.16s.12.31-.1.46a4.3,4.3,0,0,1-2.63.72,2.64,2.64,0,0,1-2.64-1.68,5.4,5.4,0,0,1-4.34,1.83c-3,0-4-1.89-4-3.29a3.61,3.61,0,0,1,1.06-2.76c.93-.83,2-1.11,4-1.7a6.39,6.39,0,0,0,2.41-1.12,1.65,1.65,0,0,0,.72-1.21v-.86c0-2.33-.59-3.29-1.86-3.29a2,2,0,0,0-2.17,2.36c0,.83-.78,1.48-2.39,1.48-1,0-1.21-.37-1.21-1,0-1.46,2.39-3.72,6.2-3.72,4.56,0,4.62,2.2,4.59,4.62Zm-3.1-4.37c-.31.46-.75.71-2.48,1.36a3.14,3.14,0,0,0-2.27,3.26,2.32,2.32,0,0,0,2,2.54,2.7,2.7,0,0,0,2.76-2.7Z"/><path class="cls-7" d="M487.53,498.32c-.28,0-.34-.06-.34-.43s0-.41.37-.44a5.28,5.28,0,0,0,2.73-1.33,7,7,0,0,0,1.61-2.2c.09-.25.18-.31.53-.31s.43.09.43.31c0,1-.09,2.2-.09,3.16,1.39,0,3.1,0,4.4-.09.12,0,.15.09.12.21l-.34.9a.3.3,0,0,1-.31.22c-1.14-.06-2.6-.12-3.94-.12l-.06,7.93c0,1.74.16,2.61.59,3.2a2.08,2.08,0,0,0,1.68.83,3.08,3.08,0,0,0,2-.83c.16-.13.31-.1.5.09s.31.34.06.59a4.94,4.94,0,0,1-3.75,1.61,4.42,4.42,0,0,1-3.26-1.05,4.72,4.72,0,0,1-1.05-3.48c0-1.48,0-2.88.06-4.37l.06-4.43Z"/><path class="cls-7" d="M518.15,497.27a33,33,0,0,0,5.28-.47.31.31,0,0,1,.31.28c-.1,2.17-.13,4.06-.13,5.52v3.94a10.66,10.66,0,0,0,.22,3.28c.25.47.77.47,1.77.53.18,0,.21.09.21.37s0,.37-.21.37c-1.12,0-2.36-.09-3.41-.09s-2.36.06-3.41.09c-.25,0-.31-.06-.31-.37s.06-.37.27-.37c.9-.06,1.31-.09,1.55-.53s.22-1.52.22-3.28v-4.9a7.6,7.6,0,0,0-.22-2.61c-.21-.49-.55-.62-2.14-.62H514.4v8.1a9.6,9.6,0,0,0,.25,3.25c.22.4,1,.5,1.92.59.16,0,.25.09.25.37s-.09.37-.25.37c-1.21,0-2.63-.09-3.66-.09s-2.57.06-3.68.09c-.25,0-.31-.09-.31-.37s.06-.34.31-.37c.8-.06,1.58-.15,1.79-.59s.28-1.42.28-3.25V502.1c0-1.33,0-2.6,0-3.66-.74,0-1.52,0-2.57.1a.22.22,0,0,1-.19-.22l.25-.87a.29.29,0,0,1,.31-.18c.81,0,1.49,0,2.2,0,0-.62,0-1.43,0-1.83a8,8,0,0,1,3-6.23,9,9,0,0,1,5.92-2c2.11,0,3.5.53,3.5,1.64,0,1.34-.65,2.45-1.55,2.45s-1.39-.74-1.92-1.39c-.65-.81-1.15-1.27-2.05-1.27-1.14,0-2.44,1.08-3.13,3.25a20.72,20.72,0,0,0-.59,5.37Z"/><path class="cls-7" d="M527.48,498.75c-.34,0-.4,0-.43-.34s0-.4.37-.46a43.87,43.87,0,0,0,5-1.4c.22,0,.4.13.4.28,0,.87-.09,1.8-.09,3,.93-1.67,2.23-3.41,4-3.41,1.06,0,1.71.4,1.71,1,0,1.24-.93,2.33-1.68,2.33s-1.11-.69-1.73-.69c-.38,0-.81.16-1.43.93a4,4,0,0,0-.87,2.73v3.79a10.31,10.31,0,0,0,.22,3.28c.25.5.74.5,1.83.59.18,0,.22.06.22.4s-.07.31-.22.31c-1.18,0-2.48-.09-3.5-.09s-2.49.06-3.63.09c-.19,0-.25,0-.25-.31s.06-.37.25-.4c.93-.09,1.42-.09,1.64-.59a8.48,8.48,0,0,0,.31-3.28v-4.59a8.93,8.93,0,0,0-.25-2.55.88.88,0,0,0-1-.68Z"/><path class="cls-7" d="M543.7,504.65c-2.27-1.06-3.6-1.8-3.6-4.47,0-1.74,1.46-3.72,4.9-3.72a11.42,11.42,0,0,1,2.23.31,6.6,6.6,0,0,0,2,0c.06,1.09.15,2.57.28,3.6,0,.18-.07.25-.34.28a.36.36,0,0,1-.47-.22c-.84-1.71-2.14-3.13-3.63-3.13-1.73,0-2.42.93-2.42,2.2,0,.87.69,1.52,2.33,2.2l1.08.47c2.7,1.17,4.25,2.1,4.25,4.86,0,2.14-1.61,4.5-5.45,4.5a11.1,11.1,0,0,1-4.41-.87,24.37,24.37,0,0,1-.68-3.38c0-.22,0-.25.31-.28s.34,0,.43.19c1,2,2.73,3.44,4.35,3.44a2.49,2.49,0,0,0,2.69-2.76c0-1.33-1.05-1.89-2.85-2.76Z"/><path class="cls-7" d="M552.25,498.32c-.28,0-.34-.06-.34-.43s0-.41.37-.44a5.24,5.24,0,0,0,2.73-1.33,7,7,0,0,0,1.61-2.2c.1-.25.19-.31.53-.31s.43.09.43.31c0,1-.09,2.2-.09,3.16,1.4,0,3.1,0,4.4-.09.13,0,.16.09.13.21l-.34.9a.31.31,0,0,1-.31.22c-1.15-.06-2.61-.12-3.94-.12l-.06,7.93c0,1.74.15,2.61.59,3.2a2.08,2.08,0,0,0,1.67.83,3.08,3.08,0,0,0,2-.83c.16-.13.31-.1.5.09s.31.34.06.59a4.93,4.93,0,0,1-3.75,1.61,4.38,4.38,0,0,1-3.25-1.05,4.68,4.68,0,0,1-1.06-3.48c0-1.48,0-2.88.06-4.37l.07-4.43Z"/><path class="cls-7" d="M578,504.65c-2.26-1.06-3.6-1.8-3.6-4.47,0-1.74,1.46-3.72,4.9-3.72a11.42,11.42,0,0,1,2.24.31,6.54,6.54,0,0,0,2,0c.06,1.09.16,2.57.28,3.6,0,.18-.06.25-.34.28a.35.35,0,0,1-.46-.22c-.84-1.71-2.14-3.13-3.63-3.13-1.74,0-2.42.93-2.42,2.2,0,.87.68,1.52,2.32,2.2l1.09.47c2.7,1.17,4.25,2.1,4.25,4.86,0,2.14-1.61,4.5-5.46,4.5a11,11,0,0,1-4.4-.87,24.37,24.37,0,0,1-.68-3.38c0-.22,0-.25.31-.28s.34,0,.43.19c1,2,2.73,3.44,4.34,3.44a2.5,2.5,0,0,0,2.7-2.76c0-1.33-1.06-1.89-2.85-2.76Z"/><path class="cls-7" d="M589.05,502a13.56,13.56,0,0,0-.16-2.63c-.15-.5-.46-.69-1.15-.62l-.8.06c-.31,0-.37,0-.41-.34s0-.41.35-.47c1.21-.28,3.56-.93,5-1.43a.33.33,0,0,1,.37.31c-.09,2.27-.12,4-.12,5.49v4.06a11.32,11.32,0,0,0,.21,3.32c.25.47.78.47,1.77.53.19,0,.22.12.22.4s0,.37-.22.37c-1.11,0-2.39-.09-3.44-.09s-2.45.06-3.5.09c-.25,0-.31-.06-.31-.37s.06-.4.27-.4c.9-.06,1.4-.09,1.65-.53s.25-1.52.25-3.32Zm3.41-12a2.1,2.1,0,1,1-2.05-2.08A2.24,2.24,0,0,1,592.46,490Z"/><path class="cls-7" d="M604.52,508.77c5.39-.06,6,2.45,6,4.15,0,2.52-1.49,5.62-8.09,5.62-4.16,0-6.54-1.77-6.54-3.76,0-1.7,1.05-2.76,3.44-3.65-1.89-.53-2.45-1.34-2.45-2.33,0-1.27,1.11-2.14,3.38-3.07-2.3-.62-3.91-1.83-3.91-4.37s2.26-4.87,5.71-4.87a7.37,7.37,0,0,1,3.41.74c2.14,0,3.72-.12,5-.24a.21.21,0,0,1,.22.21l-.44,1c-.06.12-.12.21-.25.21-1.11-.09-2-.09-3.25-.09a3.75,3.75,0,0,1,1.42,2.94c0,2.67-1.89,4.75-5.73,4.75-.37,0-.75,0-1.06-.06-1,.62-1.58,1.08-1.58,1.89s.72,1,1.86,1Zm-2,2.73a20.78,20.78,0,0,1-2.11-.13,3.78,3.78,0,0,0-.65.56,3.46,3.46,0,0,0-.84,2.42c0,1.89,1.62,3.26,4.16,3.26,2.91,0,4.62-1.46,4.62-3.54,0-1.3-.4-2.57-3.94-2.57Zm-2.85-10.23c0,2.35,1,3.9,2.63,3.9s2.58-1.52,2.58-3.9-1-3.91-2.58-3.91S599.68,499,599.68,501.27Z"/><path class="cls-7" d="M616.88,499.41a5.4,5.4,0,0,1,4.69-2.89c1.11,0,4.65.4,4.65,4.4,0,1.71-.07,2.7-.07,3.51v2.11c0,1.83,0,2.76.22,3.25s.78.5,1.71.59c.18,0,.24.09.24.37s-.06.34-.27.34c-1.18,0-2.42-.09-3.45-.09s-2.32.06-3.47.09c-.25,0-.31,0-.31-.34s.06-.34.28-.37c.9-.09,1.4-.09,1.61-.59s.22-1.49.22-3.25v-4.22a7.16,7.16,0,0,0-.28-2.64,2.42,2.42,0,0,0-2.36-1.58,3.32,3.32,0,0,0-2.76,1.77,4.44,4.44,0,0,0-.65,2.48v4.19a10.82,10.82,0,0,0,.19,3.25c.19.44.68.5,1.71.59.24,0,.3.06.3.34s-.06.37-.3.37c-1.15,0-2.27-.09-3.29-.09s-2.48.06-3.69.09c-.19,0-.25-.06-.25-.37s.06-.31.25-.34c1-.09,1.42-.09,1.64-.59a9.59,9.59,0,0,0,.25-3.25v-14a17.66,17.66,0,0,0-.12-2.51.85.85,0,0,0-1-.74l-.87.06c-.31,0-.34,0-.37-.37s0-.38.31-.44a51,51,0,0,0,5.12-1.36c.12,0,.31.15.31.25-.09,2.29-.16,4.55-.16,7.56Z"/><path class="cls-7" d="M629.34,498.32c-.28,0-.34-.06-.34-.43s0-.41.37-.44a5.21,5.21,0,0,0,2.73-1.33,7,7,0,0,0,1.62-2.2c.09-.25.18-.31.52-.31s.44.09.44.31c0,1-.1,2.2-.1,3.16,1.4,0,3.1,0,4.41-.09.12,0,.15.09.12.21l-.34.9a.31.31,0,0,1-.31.22c-1.15-.06-2.6-.12-3.94-.12l-.06,7.93c0,1.74.15,2.61.59,3.2a2.08,2.08,0,0,0,1.67.83,3.08,3.08,0,0,0,2-.83c.15-.13.31-.1.49.09s.31.34.07.59a5,5,0,0,1-3.76,1.61,4.4,4.4,0,0,1-3.25-1.05,4.72,4.72,0,0,1-1.06-3.48c0-1.48,0-2.88.07-4.37l.06-4.43Z"/><path class="cls-7" d="M641.87,515.22c-.13.12-.34.12-.56-.13s-.19-.46,0-.59c1.27-.93,2-1.86,2-2.75,0-.41-.46-.78-.8-1-.53-.21-1.12-.37-1.12-1.2a2.39,2.39,0,0,1,2.23-2.18,2.43,2.43,0,0,1,2,2.52C645.53,511.19,645,513.05,641.87,515.22Z"/><path class="cls-7" d="M655.69,505.39c0,1.3,0,3,.41,3.75s1.64.9,3,.9a8.11,8.11,0,0,0,5.31-1.58,11.55,11.55,0,0,0,2.41-3.1c.13-.22.19-.28.53-.19s.34.25.31.44a42.4,42.4,0,0,1-1.61,5.48c-2.76-.06-5.61-.09-8.19-.09-2.73,0-5.67,0-8.43.09-.22,0-.28-.06-.28-.37s.06-.37.28-.4c1.18-.12,1.77-.16,2.14-.81s.4-2,.4-4.12V494.13c0-3,0-3.38-.37-4.06s-1-.62-2.23-.74c-.25,0-.31-.06-.31-.41s.06-.43.31-.43c1.33,0,3,.13,4.4.13s3.07-.1,4.4-.13c.25,0,.34.06.34.43s-.09.38-.27.41c-1.18.12-1.83.12-2.18.74s-.34,2.11-.34,4.06Z"/><path class="cls-7" d="M670.94,502a14.63,14.63,0,0,0-.15-2.63c-.16-.5-.47-.69-1.15-.62l-.8.06c-.31,0-.38,0-.41-.34s0-.41.34-.47c1.21-.28,3.57-.93,5-1.43a.33.33,0,0,1,.37.31c-.09,2.27-.13,4-.13,5.49v4.06a10.83,10.83,0,0,0,.22,3.32c.25.47.78.47,1.77.53.18,0,.22.12.22.4s0,.37-.22.37c-1.12,0-2.39-.09-3.44-.09s-2.45.06-3.51.09c-.24,0-.31-.06-.31-.37s.07-.4.28-.4c.9-.06,1.4-.09,1.65-.53s.24-1.52.24-3.32Zm3.41-12a2.09,2.09,0,1,1-2-2.08A2.23,2.23,0,0,1,674.35,490Z"/><path class="cls-7" d="M684.68,505.64c.34,1,.49,1.52.8,2.57.41-1.08.62-1.61,1-2.73l1.31-4.06c.49-1.55.65-2.6.4-3.07s-.78-.53-1.61-.62c-.16,0-.22-.06-.22-.37s.06-.37.25-.37c.9.06,2.08.09,2.91.09s1.8,0,2.61-.09c.25,0,.31.06.31.37s-.06.34-.31.37a2.76,2.76,0,0,0-1.58.74,9,9,0,0,0-1.55,2.95l-2.08,5.77c-.59,1.61-.81,2.29-1.3,3.63a8.45,8.45,0,0,1-1.9.71.28.28,0,0,1-.27-.19c-.44-1.3-.81-2.35-1.43-4.06l-2.2-5.86a13.93,13.93,0,0,0-1.46-3.19c-.4-.41-.74-.44-1.64-.5-.19,0-.25-.06-.25-.37s0-.37.25-.37c1.18,0,2.54.09,3.56.09s2.58,0,3.75-.09c.22,0,.25.06.25.37s0,.37-.21.37c-.87,0-1.55.09-1.74.53s.22,1.42.87,3.16Z"/><path class="cls-7" d="M696.92,504c0,4.1,2.51,6.14,4.43,6.14a4.74,4.74,0,0,0,4.31-2.23.39.39,0,0,1,.31-.15.53.53,0,0,1,.28.12c.13.09.25.22.25.31a1,1,0,0,1-.15.34,6.17,6.17,0,0,1-5.74,3.07c-4.28,0-7.16-3.16-7.16-7.44s3-7.66,7.19-7.66a6.14,6.14,0,0,1,6.05,5.77.63.63,0,0,1-.16.52c-.15.19-.28.16-.46.16-3.13-.09-6.27-.12-9-.06A4.76,4.76,0,0,0,696.92,504Zm6.08-2.32c.25,0,.28-.22.28-.5-.1-1.73-.84-3.75-2.64-3.75s-3,1.8-3.44,4.34A53.46,53.46,0,0,0,703,501.67Z"/><path class="cls-7" d="M724.23,506.44a9.74,9.74,0,0,0,.25,3.29c.21.43,1.11.53,2,.62.16,0,.25.09.25.37s-.09.37-.25.37c-1.24,0-2.79-.09-3.81-.09s-2.6.06-3.75.09c-.25,0-.31-.09-.31-.37s.06-.34.31-.37c.84-.06,1.61-.15,1.83-.62s.28-1.43.28-3.29V502c0-1.37,0-2.58,0-3.63-.75,0-1.55,0-2.61.09-.12,0-.18-.06-.18-.21l.24-.9a.29.29,0,0,1,.31-.19c.84,0,1.52,0,2.24,0,0-.62,0-1.18,0-1.58a8.86,8.86,0,0,1,2.57-6.2,6.19,6.19,0,0,1,4.77-2.14c1.12,0,1.83.25,1.83,1,0,1.46-.77,2.39-1.39,2.39s-.9-.31-1.3-.78-.9-1-1.31-.93c-1,.16-1.49,1.06-1.73,3.26a45.52,45.52,0,0,0-.19,5c1.18,0,2.51,0,3.78-.09.16,0,.22.06.22.18l-.28.93a.28.28,0,0,1-.25.22c-1.17-.09-2.26-.09-3.5-.09Z"/><path class="cls-7" d="M744.38,504.06c0,4.15-2.88,7.53-7.25,7.53a7.12,7.12,0,0,1-7.23-7.47c0-4.16,3-7.63,7.23-7.63A7.23,7.23,0,0,1,744.38,504.06Zm-10.85,0c0,3.87,1.15,6.6,3.6,6.6s3.62-2.94,3.62-6.6c0-3.94-1.14-6.64-3.62-6.64S733.53,500.34,733.53,504.06Z"/><path class="cls-7" d="M746.76,498.75c-.34,0-.4,0-.43-.34s0-.4.37-.46a43.29,43.29,0,0,0,5-1.4c.22,0,.41.13.41.28,0,.87-.1,1.8-.1,3,.93-1.67,2.24-3.41,4-3.41,1.06,0,1.71.4,1.71,1,0,1.24-.93,2.33-1.68,2.33s-1.11-.69-1.73-.69c-.37,0-.81.16-1.43.93a4,4,0,0,0-.87,2.73v3.79a10.31,10.31,0,0,0,.22,3.28c.25.5.74.5,1.83.59.19,0,.22.06.22.4s-.07.31-.22.31c-1.18,0-2.48-.09-3.5-.09s-2.48.06-3.63.09c-.19,0-.25,0-.25-.31s.06-.37.25-.4c.93-.09,1.42-.09,1.64-.59a8.48,8.48,0,0,0,.31-3.28v-4.59a8.93,8.93,0,0,0-.25-2.55.88.88,0,0,0-1.05-.68Z"/><path class="cls-7" d="M762.54,504c0,4.1,2.51,6.14,4.44,6.14a4.76,4.76,0,0,0,4.31-2.23.37.37,0,0,1,.31-.15.61.61,0,0,1,.28.12c.12.09.24.22.24.31a1,1,0,0,1-.15.34,6.16,6.16,0,0,1-5.74,3.07c-4.28,0-7.16-3.16-7.16-7.44s3-7.66,7.19-7.66a6.12,6.12,0,0,1,6,5.77.63.63,0,0,1-.16.52c-.15.19-.27.16-.46.16-3.13-.09-6.26-.12-9-.06A4.66,4.66,0,0,0,762.54,504Zm6.08-2.32c.25,0,.28-.22.28-.5-.09-1.73-.84-3.75-2.64-3.75s-3,1.8-3.44,4.34A53.46,53.46,0,0,0,768.62,501.67Z"/><path class="cls-7" d="M781,505.64c.34,1,.5,1.52.81,2.57.4-1.08.62-1.61,1-2.73l1.3-4.06c.5-1.55.65-2.6.4-3.07s-.77-.53-1.61-.62c-.16,0-.22-.06-.22-.37s.06-.37.25-.37c.9.06,2.08.09,2.92.09s1.79,0,2.6-.09c.25,0,.31.06.31.37s-.06.34-.31.37a2.76,2.76,0,0,0-1.58.74,9.21,9.21,0,0,0-1.55,2.95l-2.08,5.77c-.59,1.61-.8,2.29-1.3,3.63a8.55,8.55,0,0,1-1.89.71.29.29,0,0,1-.28-.19c-.44-1.3-.81-2.35-1.43-4.06l-2.2-5.86a13.49,13.49,0,0,0-1.46-3.19c-.4-.41-.74-.44-1.64-.5-.19,0-.25-.06-.25-.37s0-.37.25-.37c1.18,0,2.54.09,3.57.09s2.57,0,3.75-.09c.21,0,.25.06.25.37s0,.37-.22.37c-.87,0-1.55.09-1.74.53s.22,1.42.87,3.16Z"/><path class="cls-7" d="M793.26,504c0,4.1,2.51,6.14,4.44,6.14A4.76,4.76,0,0,0,802,507.9a.37.37,0,0,1,.31-.15.61.61,0,0,1,.28.12c.12.09.24.22.24.31a1,1,0,0,1-.15.34,6.16,6.16,0,0,1-5.74,3.07c-4.28,0-7.16-3.16-7.16-7.44s3-7.66,7.19-7.66a6.12,6.12,0,0,1,6,5.77.66.66,0,0,1-.15.52c-.16.19-.28.16-.47.16-3.13-.09-6.26-.12-9-.06A4.66,4.66,0,0,0,793.26,504Zm6.08-2.32c.25,0,.28-.22.28-.5-.09-1.73-.84-3.75-2.64-3.75s-3,1.8-3.44,4.34A53.46,53.46,0,0,0,799.34,501.67Z"/><path class="cls-7" d="M805,498.75c-.34,0-.4,0-.43-.34s0-.4.37-.46a43.87,43.87,0,0,0,5-1.4c.22,0,.4.13.4.28,0,.87-.09,1.8-.09,3,.93-1.67,2.23-3.41,4-3.41,1,0,1.7.4,1.7,1,0,1.24-.93,2.33-1.67,2.33s-1.12-.69-1.74-.69c-.37,0-.8.16-1.42.93a4,4,0,0,0-.87,2.73v3.79a10.31,10.31,0,0,0,.22,3.28c.24.5.74.5,1.82.59.19,0,.22.06.22.4s-.06.31-.22.31c-1.17,0-2.48-.09-3.5-.09s-2.48.06-3.63.09c-.18,0-.24,0-.24-.31s.06-.37.24-.4c.93-.09,1.43-.09,1.65-.59a8.48,8.48,0,0,0,.31-3.28v-4.59a8.93,8.93,0,0,0-.25-2.55.89.89,0,0,0-1-.68Z"/><path class="cls-7" d="M838.86,507.59c0,2,.41,2.73,1.12,2.73a1.53,1.53,0,0,0,.9-.22c.12-.06.28-.06.4.16s.13.31-.09.46a4.36,4.36,0,0,1-2.64.72,2.64,2.64,0,0,1-2.63-1.68,5.42,5.42,0,0,1-4.34,1.83c-3,0-4-1.89-4-3.29a3.61,3.61,0,0,1,1-2.76c.93-.83,2.05-1.11,4-1.7a6.46,6.46,0,0,0,2.42-1.12,1.67,1.67,0,0,0,.71-1.21v-.86c0-2.33-.59-3.29-1.86-3.29a2.14,2.14,0,0,0-1.61.62,2.16,2.16,0,0,0-.56,1.74c0,.83-.77,1.48-2.39,1.48-1,0-1.21-.37-1.21-1,0-1.46,2.39-3.72,6.21-3.72,4.55,0,4.62,2.2,4.59,4.62Zm-3.1-4.37c-.31.46-.74.71-2.48,1.36a3.14,3.14,0,0,0-2.26,3.26,2.31,2.31,0,0,0,2,2.54,2.7,2.7,0,0,0,2.76-2.7Z"/><path class="cls-7" d="M842.49,498.72c-.31,0-.41,0-.44-.34s0-.4.38-.46a41.27,41.27,0,0,0,4.89-1.37c.19,0,.38.13.38.25-.07.87-.07,1.83-.07,2.64a5.56,5.56,0,0,1,4.81-2.95c.93,0,4.53.5,4.53,4.43,0,1.15,0,2.7,0,3.45v2.14a10.49,10.49,0,0,0,.24,3.28c.22.47.72.5,1.62.59.18,0,.25.09.25.37s0,.34-.25.34c-1.15,0-2.33-.09-3.38-.09s-2.36.06-3.54.09c-.21,0-.25-.06-.25-.34s.07-.37.25-.37c.84-.06,1.34-.09,1.58-.59a9.56,9.56,0,0,0,.25-3.28v-4.22a5.87,5.87,0,0,0-.37-2.67,2.27,2.27,0,0,0-2.26-1.55,3.46,3.46,0,0,0-2.79,1.77,4,4,0,0,0-.66,2.48v4.19a10.84,10.84,0,0,0,.19,3.28c.25.5.74.5,1.71.59.21,0,.27.06.27.37s-.06.34-.27.34c-1.09,0-2.3-.09-3.32-.09s-2.39.06-3.57.09c-.18,0-.21-.06-.21-.34s.06-.34.21-.37c.9-.09,1.4-.09,1.65-.59a10.28,10.28,0,0,0,.21-3.28v-4.59a8.72,8.72,0,0,0-.21-2.61.82.82,0,0,0-1-.65Z"/><path class="cls-7" d="M871.51,492.55a12.36,12.36,0,0,0-.13-2.66c-.12-.5-.59-.65-1.12-.62l-.74.06c-.37,0-.43,0-.46-.34s.06-.41.37-.47a49.54,49.54,0,0,0,5.08-1.39c.16,0,.37.15.37.31-.12,2.14-.18,4.52-.18,7.53V506.6a9.54,9.54,0,0,0,.22,3.22c.21.47.55.47,1,.5l.71,0c.22,0,.28.06.28.34s-.06.37-.28.4c-1.24.07-3.44.28-4.84.53-.21,0-.31-.09-.31-.37,0-.75.07-1.33.07-2.11a4.72,4.72,0,0,1-4.07,2.48c-4.24,0-6.69-3.07-6.69-7.44s2.72-7.72,7.1-7.72a5,5,0,0,1,3.66,1.58Zm0,9.43a4.66,4.66,0,0,0-.59-2.73,3.21,3.21,0,0,0-2.67-1.77c-2.42,0-3.85,2.67-3.85,6.58s1.56,6.07,3.82,6.07a3.31,3.31,0,0,0,2.66-1.64,3.66,3.66,0,0,0,.63-2.51Z"/><path class="cls-7" d="M892.12,504c0,4.1,2.51,6.14,4.43,6.14a4.75,4.75,0,0,0,4.31-2.23.38.38,0,0,1,.31-.15.57.57,0,0,1,.28.12c.12.09.25.22.25.31a.86.86,0,0,1-.16.34,6.14,6.14,0,0,1-5.73,3.07c-4.28,0-7.17-3.16-7.17-7.44s3-7.66,7.2-7.66a6.12,6.12,0,0,1,6,5.77.66.66,0,0,1-.15.52c-.16.19-.28.16-.47.16-3.13-.09-6.26-.12-9-.06A4.76,4.76,0,0,0,892.12,504Zm6.07-2.32c.25,0,.28-.22.28-.5-.09-1.73-.83-3.75-2.63-3.75s-3,1.8-3.44,4.34A53.27,53.27,0,0,0,898.19,501.67Z"/><path class="cls-7" d="M910.59,505.64c.34,1,.5,1.52.81,2.57.4-1.08.62-1.61,1-2.73l1.3-4.06c.5-1.55.65-2.6.4-3.07s-.77-.53-1.61-.62c-.15,0-.21-.06-.21-.37s.06-.37.24-.37c.9.06,2.08.09,2.92.09s1.8,0,2.6-.09c.25,0,.31.06.31.37s-.06.34-.31.37a2.82,2.82,0,0,0-1.58.74,9.21,9.21,0,0,0-1.55,2.95l-2.08,5.77c-.58,1.61-.8,2.29-1.3,3.63a8.32,8.32,0,0,1-1.89.71.3.3,0,0,1-.28-.19c-.43-1.3-.81-2.35-1.43-4.06l-2.2-5.86a14,14,0,0,0-1.45-3.19c-.41-.41-.75-.44-1.65-.5-.18,0-.25-.06-.25-.37s0-.37.25-.37c1.18,0,2.54.09,3.57.09s2.57,0,3.75-.09c.22,0,.25.06.25.37s0,.37-.22.37c-.87,0-1.55.09-1.73.53s.21,1.42.86,3.16Z"/><path class="cls-7" d="M922.84,504c0,4.1,2.51,6.14,4.43,6.14a4.75,4.75,0,0,0,4.31-2.23.38.38,0,0,1,.31-.15.57.57,0,0,1,.28.12c.12.09.25.22.25.31a1,1,0,0,1-.16.34,6.14,6.14,0,0,1-5.73,3.07c-4.28,0-7.17-3.16-7.17-7.44s3-7.66,7.2-7.66a6.12,6.12,0,0,1,6,5.77.66.66,0,0,1-.15.52c-.16.19-.28.16-.47.16-3.13-.09-6.26-.12-9-.06A4.76,4.76,0,0,0,922.84,504Zm6.07-2.32c.25,0,.28-.22.28-.5-.09-1.73-.84-3.75-2.63-3.75s-3,1.8-3.44,4.34A53.27,53.27,0,0,0,928.91,501.67Z"/><path class="cls-7" d="M934.55,498.75c-.34,0-.4,0-.43-.34s0-.4.37-.46a43.87,43.87,0,0,0,5-1.4c.22,0,.4.13.4.28,0,.87-.09,1.8-.09,3,.93-1.67,2.23-3.41,4-3.41,1,0,1.71.4,1.71,1,0,1.24-.93,2.33-1.68,2.33s-1.11-.69-1.74-.69c-.37,0-.8.16-1.42.93a4,4,0,0,0-.87,2.73v3.79a10.31,10.31,0,0,0,.22,3.28c.25.5.74.5,1.83.59.18,0,.21.06.21.4s-.06.31-.21.31c-1.18,0-2.48-.09-3.51-.09s-2.48.06-3.62.09c-.19,0-.25,0-.25-.31s.06-.37.25-.4c.93-.09,1.42-.09,1.64-.59a8.48,8.48,0,0,0,.31-3.28v-4.59a8.93,8.93,0,0,0-.25-2.55.89.89,0,0,0-1-.68Z"/><path class="cls-1" d="M4.67,367.67a10.1,10.1,0,0,0-3,.47L1,365.83a16.38,16.38,0,0,0,3.8.47h15c1.9-2.07,2.37-2.43,2.85-2.43s1,.36,3,2.19c.89.89,1.25,1.31,1.25,1.78s-.48,1-1.84,1.31a1.5,1.5,0,0,0-.83.65,39.29,39.29,0,0,1-6.88,6.88c-.24.18-.71-.12-.59-.41a37.22,37.22,0,0,0,3.08-8.6H15.7v18.44c0,3.44.12,6.35.12,7.77,0,2.43-.6,3.56-2.43,4.63a6.72,6.72,0,0,1-3.5,1.07c-1.07,0-1.13-.12-1.37-1.37-.35-2.13-1.78-3.14-6.28-4.15-.3-.06-.3-.89,0-.89,3,.18,5.33.3,7.35.3.59,0,.77-.3.77-.89V367.67Zm13.11-17.86c2.13-2.25,2.6-2.61,3.08-2.61s1,.36,3.38,2.61c1.07,1.07,1.42,1.55,1.42,2,0,.65-.41.89-2.13,1.13a76.57,76.57,0,0,1-7.71,5.81,4.66,4.66,0,0,1,2,3.5,3.12,3.12,0,0,1-3,3.26c-1.48,0-2.14-.65-2.91-3a17.2,17.2,0,0,0-4.5-7c-.24-.18-.06-.66.23-.6a25.1,25.1,0,0,1,7,3,26.8,26.8,0,0,0,3.26-6.7H6a9.6,9.6,0,0,0-2.9.47l-.66-2.31a13.07,13.07,0,0,0,3.38.47Zm18.08,43.95c-5.51,3.68-9.9,5.22-17,6-.29.06-.53-.59-.24-.71A33.84,33.84,0,0,0,29,392.75a17.6,17.6,0,0,0,3.26-4c4.39,2.43,6.34,3.62,6.34,4.33C38.59,393.58,38.06,393.94,35.86,393.76Zm7.77-42.64a40.18,40.18,0,0,1-6,7.47h9.07c2.19-2.31,2.67-2.67,3.14-2.67s1.13.36,3.32,2.08c1,.83,1.37,1.24,1.37,1.72,0,.71-.42,1.18-1.72,1.9v4.15c0,11.09.24,18.56.24,21.05,0,1.55-1.07,2.38-3.27,2.38-1.78,0-2.43-.66-2.43-2v-.53H32.84v.29c0,1.43-1.19,2.26-3.2,2.26-1.6,0-2.43-.6-2.43-1.78,0-2.61.29-5,.29-15.54,0-5.34-.06-10.74-.35-16.14a46.14,46.14,0,0,1,6.22,2.85h2.49A52.21,52.21,0,0,0,37,351.12H30.7a25.21,25.21,0,0,0-3.79.35l-.65-2.19a20.1,20.1,0,0,0,4.33.47H46.9c2.78-3.08,3.5-3.55,3.91-3.55s1.19.47,3.86,2.49c1.18.95,1.66,1.42,1.66,1.84s-.18.59-.77.59ZM47.31,360H32.84V367H47.31Zm0,8.42H32.84v7.47H47.31Zm0,8.84H32.84v8.06H47.31Zm5,22.71a2.81,2.81,0,0,1-2.43-1.6,19.67,19.67,0,0,0-8.6-7.89c-.24-.12-.12-.71.18-.71,9.31.89,13.58,3.32,13.58,7.18A2.79,2.79,0,0,1,52.35,399.93Z"/><path class="cls-1" d="M68.72,382.2c-2.14,6.11-5.22,11.38-8.13,14a.36.36,0,0,1-.53-.41,50.39,50.39,0,0,0,3.38-11.15,28.36,28.36,0,0,0,.47-6.23c6,1.72,6.53,2,6.53,2.67S69.9,382,68.72,382.2Zm-1.25-11.39a95.11,95.11,0,0,0,6.94-11.21,38.87,38.87,0,0,0,2.73-6.11c5,2.31,6.64,3.26,6.64,4,0,.54-.53.89-2.31.84-6.17,7.23-6.53,7.65-12.16,12.51,3.38,0,6.76-.12,10.14-.24a14.81,14.81,0,0,0-2.55-5c-.18-.24.3-.53.54-.41,5.21,2.84,7.47,5.39,7.47,8.42,0,2.07-1.13,3.5-2.67,3.5s-2.19-.48-2.49-4.39l-.06-.65c-1.31.47-2.61.83-3.91,1.18v8.19c0,6.34.17,14.29.17,16.9,0,1.6-1,2.25-3.14,2.25-1.54,0-2.37-.47-2.37-1.83s.35-5.16.35-12.87V374.37c-2,.41-4.09.77-6.28,1.12-.42,1.19-.77,1.67-1.31,1.67-.71,0-1.19-1.19-2.19-6.47,1.54.12,2.07.12,3.14.12ZM70,349.22a25.6,25.6,0,0,0,.89-3.62c4.69,1.66,7.06,2.85,7.06,3.68,0,.65-.65,1-2.37,1-3.92,4.27-4.87,5.28-6.76,6.82,2,1.3,2.84,2.73,2.84,4.51,0,2.07-1.12,3.44-2.79,3.44s-2.07-.36-3.08-3.74a12.4,12.4,0,0,0-3.91-6.41c-.24-.17.06-.59.35-.53a32.83,32.83,0,0,1,5.16,1.9A62,62,0,0,0,70,349.22Zm11.86,42.41c-1.48,0-2.13-.89-2.55-4.87a19.09,19.09,0,0,0-2.67-8c-.17-.24.24-.54.48-.36,5.28,3.26,7.65,6.35,7.65,9.49C84.79,390,83.6,391.63,81.88,391.63Zm9.79-32.09a36.48,36.48,0,0,1-7.89,9.19c-.24.18-.83-.17-.65-.41A61,61,0,0,0,89,353.61,41.9,41.9,0,0,0,90.42,346c6.71,1.72,8.13,2.43,8.13,3.14s-.59,1.13-2.37,1.43a63.14,63.14,0,0,1-3.68,7.65h14.06c2.31-2.73,2.78-3.09,3.26-3.09s1.07.36,3.38,2.49c1.07.95,1.42,1.43,1.42,1.9s-.17.59-1.84,1.78c-.41,13.11-1,22.48-3.08,31a8.59,8.59,0,0,1-8.78,7.12c-1.18,0-1.42-.18-1.72-1.66-.59-2.55-1.78-3.27-6.64-4.69-.3-.06-.3-.95,0-.95,3.91.36,6.11.48,6.88.48,3.86,0,4.39-.42,4.8-1.9,1.78-6.41,2.67-15.84,2.91-31.14ZM96.42,381c-1.25,0-2-.59-2.38-2.61-1.36-5-2.49-7.77-4.74-10.14a.35.35,0,0,1,.35-.53c5.64,1.6,10,5.57,10,9.37C99.68,379.11,98.37,381,96.42,381Z"/><path class="cls-1" d="M160.11,389.85c0,1.18.06,2.19.06,4.86s-.65,3.86-2.91,4.87a10.31,10.31,0,0,1-4.21.77c-.65,0-.77-.18-1-1.72-.29-1.84-1.95-2.73-6.11-3.92-.29-.06-.23-.77.06-.77,2.79.24,5.76.42,7.65.42.78,0,1-.18,1-.89v-6.94H124.29a15.36,15.36,0,0,0-3,.35l-.65-2.19a15.55,15.55,0,0,0,3.73.47h30.25v-1.54a20.74,20.74,0,0,0-.29-3.44c6.88.89,7.23.95,7.23,1.9,0,.47-.41.77-1.48,1.24v1.84h5.57c2.44-3.08,3.15-3.56,3.56-3.56s1.19.48,3.74,2.49c1.13.89,1.6,1.43,1.6,1.84s-.18.6-.77.6h-13.7Zm-10.68-12.52c3.5-.11,6.94-.29,10.44-.53a14,14,0,0,0-3.79-2.14c-.3-.11-.18-.71.11-.71,8.07.66,12.28,2.79,12.28,6.17a2.43,2.43,0,0,1-2.31,2.61c-1,0-1.25-.18-2.91-2.31a21.81,21.81,0,0,0-2.07-2.43c-8.54,1.83-14.24,2.49-33.63,4.09-.54,1.36-.83,1.72-1.43,1.72-.77,0-1.24-1.37-2.55-6.76,3.92.35,6.59.41,14.59.41h6.11v-5.22H133.6v.66c0,1.54-.89,2.31-3.38,2.31-1.43,0-2.2-.48-2.2-1.78s.3-3.56.3-10.5c0-2.49-.06-5-.3-7.47a32.25,32.25,0,0,1,6.23,2.85h10v-4.39h-16.9a40.84,40.84,0,0,0-5,.35l-.66-2.19a31.65,31.65,0,0,0,5.34.47h17.2v-1.13c-.06-1.83-.18-3.67-.41-5.63,6.88.65,7.53,1.31,7.53,2s-.59,1.12-2,1.72v3.08h14.24c2.67-3.26,3.38-3.73,3.79-3.73s1.25.47,4.16,2.6c1.3,1,1.77,1.49,1.77,1.9s-.17.6-.77.6H149.43v4.39h11c2.13-2.26,2.6-2.61,3.08-2.61s1.07.35,3.26,2.07c1,.89,1.36,1.31,1.36,1.78s-.29.95-1.71,2v1.78c0,4.62.17,7.83.17,8.89,0,1.55-1,2.14-3.38,2.14-1.3,0-2.13-.42-2.13-1.66v-.42H149.43Zm-9.25,19.46c-1.25,0-1.9-.54-2.79-2.79a10.14,10.14,0,0,0-4.39-5.22.33.33,0,0,1,.18-.59c6.35.12,10,2.07,10,5.51A3,3,0,0,1,140.18,396.79Zm4.09-37.13H133.6v4.8h10.67Zm0,6.17H133.6v5h10.67Zm16.85-1.37v-4.8H149.43v4.8Zm0,6.41v-5H149.43v5Z"/><path class="cls-1" d="M188.69,374.25c-1.48.3-3.26.71-5.46,1.19-.35,1.18-.71,1.66-1.24,1.66-.77,0-1.19-1.13-2.2-6.47,1.49.12,2.08.12,3.09.12H186A79.9,79.9,0,0,0,192,360a38.7,38.7,0,0,0,2.43-6.4c4.63,2.13,6.47,3.32,6.47,4.09,0,.54-.71.95-2.31.89a74,74,0,0,1-10.68,12.16c3.08-.06,6.23-.18,9.31-.3a14.86,14.86,0,0,0-2.07-4.74c-.18-.24.23-.48.47-.36,4.57,2.55,6.7,5,6.7,7.77,0,1.84-1.18,3.32-2.61,3.32-1.24,0-1.95-.83-2.19-4l-.06-.59c-1.25.41-2.55.89-3.86,1.24v8.25c0,6.34.18,14.29.18,16.9,0,1.6-1.07,2.31-3,2.31-1.66,0-2.38-.59-2.38-1.89s.36-5.16.36-12.93v-3.86a3.45,3.45,0,0,1-1.54.59A39.57,39.57,0,0,1,179.79,396c-.17.23-.77-.06-.65-.36a65.93,65.93,0,0,0,2.49-9.73,42.55,42.55,0,0,0,.83-7.41c4.15,1.25,5.7,1.78,6.23,2.31Zm-1.07-23.49c.48-1.9.89-3.79,1.13-5.28,5.34,1.9,7.06,2.79,7.06,3.5s-.71,1-2.37,1a65,65,0,0,1-6.47,7.47,5,5,0,0,1,2.55,4.39c0,1.9-1.19,3.27-2.67,3.27s-1.66-.24-2.67-3.56a11.62,11.62,0,0,0-3.5-6c-.23-.24.06-.66.36-.6a27.44,27.44,0,0,1,4.63,1.72C186.38,354.85,187,352.78,187.62,350.76Zm10.8,39c-1.54,0-1.9-1.19-2.08-3.92a18.2,18.2,0,0,0-1.78-7.17c-.12-.24.24-.48.48-.3,4.21,2.91,6.11,5.28,6.11,8C201.15,388.37,200.14,389.79,198.42,389.79Zm20-4.63c0,4.27.18,8.07.18,9.67a5.38,5.38,0,0,1-1.6,4.09,6.36,6.36,0,0,1-4.27,1.37c-1,0-1.19-.24-1.48-1.6-.42-2.08-1.19-2.61-5.4-3.74-.3-.06-.24-.71.06-.71,2.73.23,4.69.35,6.41.35.77,0,1-.23,1.06-1.12V380.3a3,3,0,0,1-1.54.77c-3,7.65-7.12,12.1-15.42,16.13-.24.12-.71-.35-.47-.53a33.15,33.15,0,0,0,10.49-17.2h-3.32a13.44,13.44,0,0,0-3.44.47l-.65-2.31a16.4,16.4,0,0,0,3.91.47h3.27c1.84-2.25,2.31-2.61,2.78-2.61s1,.36,3.27,2.44a5.94,5.94,0,0,1,1.12,1.24v-8.6h-4.33v.6c0,1.48-1.12,2.07-3,2.07-1.25,0-2.14-.41-2.14-1.72,0-2.25.24-4,.24-13.22,0-2.85-.06-5.7-.24-8.55a35.9,35.9,0,0,1,5.82,2.91h2.72c.18-.89.42-2,.54-3.08.18-1.37.29-2.85.35-4.16,5.34,1.31,7.06,2,7.06,2.73s-.65,1-2.07,1a34.16,34.16,0,0,1-3.74,3.5h8c2.19-2.31,2.67-2.67,3.14-2.67s1.07.36,3.14,2.14c.95.83,1.31,1.24,1.31,1.72s-.12.71-1.72,1.89v2.44c0,6.46.24,11.27.24,12.75a1.74,1.74,0,0,1-1.07,1.78c4.68,2.78,5.87,3.62,5.87,4.33s-.59.95-2.43,1.06c-4.27,2.73-5.4,3.39-7.65,4.33a25.24,25.24,0,0,0,11.62,8c.3.12.24.36,0,.54a7.29,7.29,0,0,0-3.5,4.56c-.47,1.49-.71,1.6-1.18,1.6s-.83-.29-1.55-1a34.25,34.25,0,0,1-6.7-9c-1.84-4-2.73-7.18-3.79-13.64ZM223.39,354h-14.3v6.59h14.3Zm0,8h-14.3v7.24h14.3Zm-4.87,8.6a29.72,29.72,0,0,0,4.22,10.86,33.81,33.81,0,0,0,2.72-4,22.58,22.58,0,0,0,2.08-4.68,5,5,0,0,1-1.78.29c-1.78,0-2.37-.53-2.37-1.95v-.54Z"/><path d="M314.29,395.73l-5.06,13.92H266.56v-2q18.82-17.18,26.51-28.05t7.68-19.89a15.74,15.74,0,0,0-4.22-11.31A13.42,13.42,0,0,0,286.45,344a15.76,15.76,0,0,0-9.57,3.12,18.06,18.06,0,0,0-6.26,9.14h-2q1.33-9.87,6.86-15.14a19.15,19.15,0,0,1,13.78-5.28A20.37,20.37,0,0,1,304,341.5a17.88,17.88,0,0,1,5.9,13.33,25.93,25.93,0,0,1-2.56,11q-4,8.64-12.8,18.29-13.29,14.5-16.59,17.49H296.8a50.79,50.79,0,0,0,8.08-.43,10.5,10.5,0,0,0,4.19-1.73,11.46,11.46,0,0,0,3.25-3.71Z"/><path d="M324.58,411.15v-2A28.39,28.39,0,0,0,337.49,406q6-3.12,11.55-10.91a47.86,47.86,0,0,0,7.75-17.12q-8.37,5.38-15.14,5.39a17.19,17.19,0,0,1-13.07-5.89q-5.43-5.9-5.44-15.66a27.88,27.88,0,0,1,5.44-16.9q6.57-9,17.12-9,8.91,0,15.25,7.36,7.79,9.1,7.79,22.5a44.73,44.73,0,0,1-5.92,22.48,49.86,49.86,0,0,1-16.48,17.3,33.34,33.34,0,0,1-18.72,5.66ZM357.65,374a85.2,85.2,0,0,0,1-11.1,40,40,0,0,0-1.76-11.17,21.17,21.17,0,0,0-5-9.2,10.15,10.15,0,0,0-7.33-3.2q-4.75,0-8.32,4.27t-3.57,12.69q0,11.25,4.74,17.6,3.47,4.59,8.54,4.59a18.18,18.18,0,0,0,5.81-1.18A18.89,18.89,0,0,0,357.65,374Z"/><path d="M422.39,335.85v2a35.13,35.13,0,0,0-11.49,2.8,32,32,0,0,0-8.8,6.43,40.26,40.26,0,0,0-7.2,9.62,57.68,57.68,0,0,0-4.78,12.61Q397.8,364,405.54,364a16.86,16.86,0,0,1,12.85,6q5.43,6,5.44,15.35a27.28,27.28,0,0,1-5.49,16.54q-6.61,9.06-17.5,9.06a17.6,17.6,0,0,1-12.58-4.9q-10.14-9.55-10.13-24.75A44.79,44.79,0,0,1,382,362.83a47.65,47.65,0,0,1,11.12-15.52q7.22-6.76,13.84-9.12a37,37,0,0,1,12.32-2.34Zm-33.17,37.33a92,92,0,0,0-1,11.62,37.21,37.21,0,0,0,1.89,11.12,21.77,21.77,0,0,0,5.63,9.52,9.39,9.39,0,0,0,6.61,2.51q4.64,0,8.29-4.38t3.66-12.48a32.5,32.5,0,0,0-3.63-15.78q-3.63-6.66-10.29-6.67a12.66,12.66,0,0,0-4.35.86A41.76,41.76,0,0,0,389.22,373.18Z"/><path d="M477,335.85v2a35.26,35.26,0,0,0-11.5,2.8,32.16,32.16,0,0,0-8.8,6.43,40.49,40.49,0,0,0-7.19,9.62,57.18,57.18,0,0,0-4.78,12.61q7.68-5.28,15.41-5.28A16.87,16.87,0,0,1,473,370q5.43,6,5.44,15.35a27.29,27.29,0,0,1-5.5,16.54q-6.62,9.06-17.49,9.06a17.59,17.59,0,0,1-12.58-4.9q-10.14-9.55-10.14-24.75a44.8,44.8,0,0,1,3.9-18.45,47.65,47.65,0,0,1,11.12-15.52q7.22-6.76,13.83-9.12a37.11,37.11,0,0,1,12.32-2.34Zm-33.17,37.33a92,92,0,0,0-1,11.62,37.21,37.21,0,0,0,1.89,11.12,21.77,21.77,0,0,0,5.63,9.52A9.39,9.39,0,0,0,457,408q4.63,0,8.29-4.38t3.65-12.48a32.61,32.61,0,0,0-3.62-15.78q-3.63-6.66-10.3-6.67a12.61,12.61,0,0,0-4.34.86A41.76,41.76,0,0,0,443.83,373.18Z"/><path d="M487.07,381.12h27.58v8.05H487.07Z"/><path d="M540,373.23q-8.6-7-11.07-11.31a17.39,17.39,0,0,1-2.48-8.85,16,16,0,0,1,5.44-12.13q5.45-5.1,14.45-5.09,8.74,0,14.08,4.74t5.33,10.83a14.61,14.61,0,0,1-2.88,8.26q-2.88,4.21-12,9.92,9.38,7.26,12.42,11.42a18.87,18.87,0,0,1,4.05,11.46,17.16,17.16,0,0,1-5.81,13q-5.81,5.42-15.25,5.41-10.29,0-16-6.45a16,16,0,0,1-1.36-20.83Q532.09,378.94,540,373.23Zm2.5,2a24.92,24.92,0,0,0-6.56,8.13,21.53,21.53,0,0,0-2.13,9.52c0,4.58,1.25,8.26,3.76,11a12.36,12.36,0,0,0,9.57,4.13,12.94,12.94,0,0,0,9.23-3.25,10.42,10.42,0,0,0,3.46-7.89,12.11,12.11,0,0,0-2-6.88Q554,384.38,542.48,375.26Zm5.87-7.74c4.26-3.84,7-6.87,8.1-9.09a16.3,16.3,0,0,0,1.71-7.55q0-5.6-3.15-8.77a11.53,11.53,0,0,0-8.58-3.17,12.52,12.52,0,0,0-8.85,3.15,9.69,9.69,0,0,0-3.42,7.35,12,12,0,0,0,1.42,5.55,19.8,19.8,0,0,0,4,5.28Z"/><path d="M594.58,373.23q-8.58-7-11.06-11.31a17.39,17.39,0,0,1-2.48-8.85,16,16,0,0,1,5.44-12.13q5.43-5.1,14.45-5.09,8.75,0,14.08,4.74t5.33,10.83a14.61,14.61,0,0,1-2.88,8.26q-2.88,4.21-12,9.92,9.39,7.26,12.43,11.42a18.87,18.87,0,0,1,4.05,11.46,17.19,17.19,0,0,1-5.81,13q-5.82,5.42-15.25,5.41-10.3,0-16.06-6.45a16,16,0,0,1-1.35-20.83Q586.69,378.94,594.58,373.23Zm2.51,2a24.92,24.92,0,0,0-6.56,8.13,21.53,21.53,0,0,0-2.13,9.52c0,4.58,1.25,8.26,3.76,11a12.33,12.33,0,0,0,9.57,4.13A13,13,0,0,0,611,404.8a10.42,10.42,0,0,0,3.46-7.89,12.11,12.11,0,0,0-2-6.88Q608.61,384.38,597.09,375.26Zm5.87-7.74q6.39-5.76,8.1-9.09a16.3,16.3,0,0,0,1.71-7.55q0-5.6-3.15-8.77a11.57,11.57,0,0,0-8.58-3.17,12.56,12.56,0,0,0-8.86,3.15,9.72,9.72,0,0,0-3.41,7.35,12.16,12.16,0,0,0,1.41,5.55,20.06,20.06,0,0,0,4,5.28Z"/><path d="M649.19,373.23q-8.58-7-11.06-11.31a17.29,17.29,0,0,1-2.48-8.85,16,16,0,0,1,5.44-12.13q5.43-5.1,14.45-5.09,8.75,0,14.08,4.74T675,351.42a14.61,14.61,0,0,1-2.88,8.26q-2.88,4.21-12,9.92,9.39,7.26,12.43,11.42a18.87,18.87,0,0,1,4,11.46,17.19,17.19,0,0,1-5.81,13q-5.82,5.42-15.26,5.41-10.29,0-16.05-6.45a16,16,0,0,1-1.36-20.83Q641.3,378.94,649.19,373.23Zm2.51,2a24.92,24.92,0,0,0-6.56,8.13,21.53,21.53,0,0,0-2.13,9.52c0,4.58,1.25,8.26,3.76,11a12.33,12.33,0,0,0,9.57,4.13,12.91,12.91,0,0,0,9.22-3.25,10.43,10.43,0,0,0,3.47-7.89,12.12,12.12,0,0,0-2-6.88Q663.22,384.38,651.7,375.26Zm5.86-7.74q6.41-5.76,8.11-9.09a16.3,16.3,0,0,0,1.71-7.55q0-5.6-3.15-8.77a11.57,11.57,0,0,0-8.59-3.17,12.55,12.55,0,0,0-8.85,3.15,9.72,9.72,0,0,0-3.41,7.35,12.16,12.16,0,0,0,1.41,5.55,19.85,19.85,0,0,0,4,5.28Z"/><path d="M703.8,373.23q-8.58-7-11.07-11.31a17.39,17.39,0,0,1-2.48-8.85,16.08,16.08,0,0,1,5.44-12.13q5.44-5.1,14.46-5.09,8.75,0,14.07,4.74t5.34,10.83a14.61,14.61,0,0,1-2.88,8.26q-2.88,4.21-12,9.92,9.39,7.26,12.42,11.42a18.82,18.82,0,0,1,4.06,11.46,17.17,17.17,0,0,1-5.82,13q-5.8,5.42-15.25,5.41-10.29,0-16.05-6.45a16,16,0,0,1-1.36-20.83Q695.91,378.94,703.8,373.23Zm2.51,2a24.92,24.92,0,0,0-6.56,8.13,21.4,21.4,0,0,0-2.14,9.52c0,4.58,1.26,8.26,3.76,11a12.37,12.37,0,0,0,9.58,4.13,12.91,12.91,0,0,0,9.22-3.25,10.43,10.43,0,0,0,3.47-7.89,12.12,12.12,0,0,0-2-6.88Q717.83,384.38,706.31,375.26Zm5.86-7.74q6.41-5.76,8.11-9.09a16.3,16.3,0,0,0,1.71-7.55q0-5.6-3.15-8.77a11.57,11.57,0,0,0-8.59-3.17,12.53,12.53,0,0,0-8.85,3.15,9.68,9.68,0,0,0-3.41,7.35A12.16,12.16,0,0,0,699.4,355a19.64,19.64,0,0,0,4,5.28Z"/></g></g></svg>