<svg width="1460" height="26" viewBox="0 0 1460 26" fill="none" xmlns="http://www.w3.org/2000/svg">
<g style="mix-blend-mode:multiply">
<path d="M24.4247 18.4533C23.7462 20.0051 22.8345 21.3232 21.6684 22.4711C20.5023 23.5978 19.1453 24.4694 17.5976 25.0859C16.0498 25.7024 14.396 26 12.6575 26C10.9189 26 9.30753 25.7024 7.78098 25.1072C6.23322 24.5119 4.89749 23.6616 3.75257 22.5561C2.60766 21.4507 1.69596 20.1327 1.0175 18.6021C0.36023 17.0714 0.0209961 15.392 0.0209961 13.5425C0.0209961 11.5868 0.381432 9.84356 1.0811 8.29169C1.78077 6.73981 2.73487 5.42179 3.92219 4.3376C5.10951 3.25342 6.50885 2.42434 8.09901 1.85036C9.68917 1.27638 11.3641 0.97876 13.1451 0.97876C15.0745 0.97876 16.7919 1.3189 18.3184 1.99917C19.845 2.67944 21.1383 3.59356 22.1984 4.74151C23.2585 5.88947 24.0642 7.2075 24.6367 8.6956C25.2091 10.1837 25.4848 11.7568 25.4848 13.3937C25.4848 15.2007 25.1455 16.8801 24.4671 18.432L24.4247 18.4533ZM20.7143 9.26958C20.3538 7.86652 19.8238 6.591 19.1241 5.44305C18.4032 4.29509 17.534 3.35971 16.4526 2.65818C15.3925 1.93539 14.1416 1.59526 12.6787 1.59526C11.2157 1.59526 9.94359 1.95665 8.86228 2.65818C7.78098 3.38097 6.91169 4.29509 6.21202 5.42179C5.51235 6.54849 5.0035 7.84526 4.68547 9.29084C4.36743 10.7364 4.19782 12.182 4.19782 13.6701C4.19782 15.1582 4.36743 16.6888 4.74907 18.1344C5.10951 19.5587 5.63956 20.8129 6.36043 21.9184C7.08131 23.0026 7.9718 23.8742 9.0319 24.5332C10.1132 25.1922 11.3641 25.5111 12.7847 25.5111C14.2052 25.5111 15.4561 25.1497 16.4951 24.4269C17.534 23.7041 18.4244 22.7687 19.1241 21.6208C19.8238 20.4728 20.3538 19.1973 20.6931 17.7517C21.0535 16.3274 21.2231 14.9031 21.2231 13.4575C21.2231 12.0119 21.0535 10.6726 20.6931 9.26958H20.7143Z" fill="#3E3A39"/>
</g>
<g style="mix-blend-mode:multiply">
<path d="M161.666 2.31798C161.157 2.63686 160.776 3.1258 160.5 3.78482C160.33 4.12495 160.246 4.76271 160.203 5.67682C160.161 6.59094 160.118 7.56883 160.076 8.6105C160.034 9.58839 159.991 10.7363 159.949 12.0544C159.906 13.3724 159.906 14.7967 159.906 16.3273V18.4957C159.906 19.2823 159.906 20.0901 159.906 20.9192C159.906 21.7483 159.906 22.5773 159.906 23.3852V25.596C159.906 25.596 159.885 25.7661 159.822 25.8086C159.758 25.8511 159.673 25.8937 159.567 25.8937C159.398 25.8937 159.186 25.7874 158.952 25.5535C157.023 23.3426 155.284 21.3018 153.694 19.4311C152.104 17.5816 150.599 15.7959 149.157 14.1164C147.715 12.437 146.316 10.7789 144.938 9.16322C143.56 7.54757 142.097 5.88941 140.57 4.16747V18.517C140.57 19.6649 140.591 20.7066 140.655 21.642C140.718 22.5773 140.846 23.2576 141.079 23.7253C141.333 24.2568 141.715 24.6394 142.245 24.8945C142.775 25.1496 143.496 25.3409 144.429 25.4472V25.7874H136.075V25.4472C136.626 25.3835 137.156 25.2346 137.708 25.0221C138.259 24.8095 138.683 24.4481 139.001 23.9591C139.319 23.4914 139.531 22.7899 139.616 21.8545C139.701 20.9192 139.764 19.8137 139.828 18.517C139.87 17.5391 139.913 16.3911 139.934 15.0731C139.955 13.7551 139.976 12.3307 139.976 10.8001V6.65471C139.976 6.20829 139.976 5.65556 139.934 4.99655C139.87 4.33754 139.701 3.80607 139.468 3.3809C139.213 2.95573 138.916 2.63686 138.577 2.40301C138.238 2.16917 137.877 1.9991 137.475 1.89281C137.072 1.78652 136.69 1.72274 136.33 1.68022V1.34009H143.22L159.292 20.1751V8.6105C159.292 7.69638 159.292 6.84604 159.249 6.01696C159.228 5.18788 159.122 4.52886 158.952 4.06118C158.719 3.42342 158.316 2.91322 157.744 2.50931C157.171 2.10539 156.344 1.82903 155.242 1.68022V1.34009H163.659V1.68022C162.832 1.78652 162.154 2.02036 161.645 2.31798H161.666Z" fill="#3E3A39"/>
</g>
<g style="mix-blend-mode:multiply">
<path d="M296.152 25.8299H274.377V25.4897C274.949 25.4047 275.501 25.2559 276.052 25.0433C276.603 24.8307 277.048 24.5544 277.366 24.193C277.472 24.0654 277.578 23.8528 277.663 23.5977C277.748 23.3426 277.812 23.045 277.854 22.7049C277.897 22.3647 277.939 22.0034 277.981 21.642C278.024 21.2593 278.024 20.8979 278.024 20.5365C278.024 20.2176 278.024 19.7925 278.024 19.2397C278.024 18.687 278.045 18.0918 278.066 17.454C278.066 16.8163 278.066 16.136 278.066 15.4557V5.69808C278.066 5.29417 278.066 4.91152 278.024 4.55012C277.981 4.18873 277.939 3.89111 277.875 3.61475C277.812 3.33839 277.706 3.1258 277.578 2.97699C277.26 2.59434 276.836 2.29672 276.306 2.08414C275.776 1.87155 275.225 1.744 274.631 1.68022V1.34009H285.444V1.68022C285.148 1.72274 284.808 1.78652 284.384 1.89281C283.982 1.97784 283.6 2.12665 283.239 2.33924C282.879 2.55182 282.561 2.82818 282.307 3.21084C282.052 3.59349 281.904 4.08244 281.882 4.69893C281.861 5.4855 281.84 6.20829 281.84 6.8673C281.84 7.52631 281.819 8.16407 281.798 8.80182C281.798 9.43958 281.798 10.0986 281.798 10.7789V16.9651C281.798 17.5603 281.798 18.1556 281.798 18.7933C281.798 19.4098 281.798 20.1113 281.798 20.8767C281.819 21.5994 281.84 22.301 281.882 22.96C281.925 23.619 282.031 24.1079 282.243 24.4268C282.328 24.5331 282.519 24.6607 282.794 24.767C283.07 24.8733 283.388 24.9795 283.769 25.0646C284.151 25.1496 284.575 25.2134 285.02 25.2772C285.466 25.3409 285.932 25.3622 286.377 25.3622C286.547 25.3622 286.844 25.3622 287.247 25.3622C287.649 25.3622 288.074 25.3197 288.561 25.2984C289.028 25.2559 289.515 25.2134 290.024 25.1496C290.512 25.0858 290.957 24.9795 291.339 24.8733C292.25 24.6181 292.992 24.2993 293.586 23.8954C294.18 23.4915 294.689 23.0238 295.134 22.4923C295.558 21.9608 295.918 21.3869 296.215 20.7491C296.512 20.1113 296.788 19.4736 297.063 18.7933L297.402 18.8996L296.152 25.9149V25.8299Z" fill="#3E3A39"/>
</g>
<g style="mix-blend-mode:multiply">
<path d="M427.308 2.14791C426.862 2.38175 426.438 2.67937 426.057 3.04077C425.675 3.40216 425.315 3.82733 424.954 4.33754C424.594 4.84774 424.233 5.40046 423.809 6.03822C423.534 6.46339 423.152 7.05863 422.664 7.78141C422.177 8.5042 421.689 9.29077 421.18 10.0773C420.671 10.8639 420.184 11.6292 419.696 12.352C419.23 13.0748 418.848 13.6488 418.572 14.0527V20.8979C418.572 21.5569 418.572 22.1947 418.615 22.8112C418.657 23.4277 418.763 23.8741 418.933 24.1292C419.272 24.6182 419.717 24.9583 420.247 25.1071C420.777 25.2559 421.307 25.3835 421.816 25.4897V25.8299H411.364V25.4897C411.957 25.426 412.466 25.3197 412.911 25.1709C413.357 25.0221 413.823 24.6607 414.311 24.1079C414.417 24.0017 414.502 23.8103 414.565 23.534C414.629 23.2576 414.671 22.96 414.692 22.6199C414.735 22.2797 414.756 21.9183 414.756 21.5357C414.756 21.153 414.756 20.7704 414.756 20.409C414.777 19.7712 414.798 19.0272 414.798 18.1556C414.798 17.284 414.798 16.221 414.798 14.9668C414.756 14.903 414.608 14.6904 414.396 14.329C414.183 13.9676 413.887 13.5212 413.569 12.9897C413.229 12.4583 412.869 11.863 412.487 11.204C412.084 10.545 411.703 9.90726 411.321 9.29077C410.94 8.67427 410.579 8.07903 410.24 7.54757C409.901 7.01611 409.625 6.56968 409.392 6.22954C408.968 5.57053 408.565 4.97529 408.226 4.42257C407.886 3.86985 407.526 3.42342 407.166 3.01951C406.805 2.6156 406.445 2.31798 406.105 2.10539C405.766 1.89281 405.363 1.744 404.897 1.72274V1.34009H415.18V1.68022C414.841 1.70148 414.502 1.744 414.162 1.78652C413.823 1.82903 413.505 1.91407 413.208 1.9991C412.911 2.08414 412.678 2.23295 412.487 2.40301C412.318 2.57308 412.212 2.80692 412.212 3.10454C412.212 3.40216 412.381 3.84859 412.699 4.44383C413.017 5.03907 413.378 5.65556 413.738 6.27206C413.993 6.67597 414.29 7.16492 414.629 7.76016C414.968 8.33414 415.35 8.95063 415.752 9.58839C416.155 10.2261 416.579 10.9064 416.982 11.5867C417.385 12.267 417.788 12.9047 418.148 13.5212C418.445 13.096 418.806 12.5433 419.23 11.863C419.654 11.204 420.099 10.5238 420.544 9.82223C420.989 9.1207 421.413 8.46169 421.795 7.82393C422.177 7.18618 422.495 6.69723 422.686 6.33584C422.792 6.16577 422.919 5.95318 423.067 5.69808C423.194 5.46424 423.322 5.20914 423.449 4.95403C423.576 4.69893 423.682 4.42257 423.767 4.14621C423.852 3.86985 423.894 3.61475 423.894 3.40216C423.894 3.04077 423.809 2.76441 423.618 2.55182C423.428 2.33924 423.194 2.19043 422.919 2.08414C422.643 1.97784 422.325 1.89281 421.986 1.82903C421.647 1.76526 421.329 1.72274 421.011 1.68022V1.34009H428.855V1.68022C428.219 1.76526 427.689 1.93533 427.223 2.14791H427.308Z" fill="#3E3A39"/>
</g>
<g style="mix-blend-mode:multiply">
<path d="M674.567 7.22869C673.634 6.08073 672.765 5.08158 671.917 4.27376C671.09 3.46594 670.263 2.84944 669.479 2.46679C669.097 2.29672 668.397 2.12665 667.401 1.9991C666.404 1.87155 665.217 1.80777 663.881 1.80777C663.648 1.80777 663.394 1.80777 663.097 1.80777C662.8 1.80777 662.524 1.82903 662.249 1.85029C661.973 1.85029 661.719 1.87155 661.485 1.89281C661.252 1.89281 661.083 1.89281 660.955 1.89281C660.934 2.02036 660.913 2.16917 660.871 2.29672C660.828 2.42427 660.807 2.59434 660.786 2.76441C660.765 2.95573 660.743 3.16832 660.722 3.46594C660.701 3.76356 660.68 4.10369 660.659 4.50761C660.637 5.29417 660.616 6.16577 660.616 7.10114C660.616 8.03652 660.616 8.92937 660.616 9.77971V13.011H661.231C661.591 13.011 661.994 13.011 662.44 12.9685C662.885 12.926 663.33 12.926 663.818 12.8835C664.284 12.8409 664.687 12.7984 665.005 12.7346C665.811 12.5433 666.468 12.3095 666.934 12.0119C667.401 11.7142 667.782 11.3741 668.058 10.9489C668.334 10.545 668.524 10.0986 668.631 9.60965C668.737 9.1207 668.843 8.58924 668.927 8.03652H669.33V18.9846H668.927C668.737 18.2619 668.482 17.4966 668.143 16.6887C667.804 15.8809 667.401 15.2644 666.913 14.8392C666.489 14.4566 666.023 14.159 665.535 13.9676C665.047 13.7763 664.475 13.6488 663.818 13.6062C663.478 13.585 663.182 13.5637 662.927 13.5637C662.673 13.5637 662.439 13.5637 662.206 13.5637H660.574V17.7729C660.574 18.4107 660.574 18.9846 660.574 19.5161C660.574 20.0476 660.574 20.5153 660.574 20.8979C660.595 21.6207 660.637 22.301 660.701 22.96C660.765 23.5977 660.892 24.0867 661.083 24.4056C661.273 24.7244 661.634 24.9583 662.121 25.1284C662.609 25.2984 663.309 25.4047 664.242 25.4472V25.7874H653.386V25.4472C653.959 25.3622 654.468 25.2134 654.955 25.0008C655.443 24.7882 655.846 24.5119 656.164 24.1505C656.27 24.0229 656.376 23.8103 656.439 23.5552C656.503 23.3001 656.567 23.0025 656.63 22.6624C656.694 22.3222 656.736 21.9608 656.757 21.5994C656.779 21.2168 656.8 20.8554 656.8 20.494C656.8 20.1751 656.8 19.75 656.8 19.1972C656.8 18.6445 656.821 18.0493 656.842 17.4115C656.842 16.7738 656.842 16.0935 656.842 15.4132V6.84604C656.842 6.44213 656.842 6.01696 656.842 5.59179C656.842 5.16662 656.8 4.76271 656.779 4.3588C656.757 3.95488 656.694 3.63601 656.609 3.31713C656.524 2.99825 656.418 2.78567 656.291 2.65812C655.952 2.29672 655.591 2.06288 655.21 1.95658C654.828 1.85029 654.319 1.76526 653.725 1.65897V1.34009H672.595L674.906 7.05863L674.567 7.22869Z" fill="#3E3A39"/>
</g>
<g style="mix-blend-mode:multiply">
<path d="M808.267 18.4533C807.589 20.0051 806.677 21.3232 805.511 22.4711C804.345 23.5978 802.988 24.4694 801.44 25.0859C799.893 25.7024 798.239 26 796.5 26C794.762 26 793.15 25.7024 791.624 25.1072C790.076 24.5119 788.74 23.6616 787.595 22.5561C786.45 21.4507 785.539 20.1327 784.86 18.6021C784.203 17.0714 783.864 15.392 783.864 13.5425C783.864 11.5868 784.224 9.84356 784.924 8.29169C785.624 6.73981 786.578 5.42179 787.765 4.3376C788.952 3.25342 790.352 2.42434 791.942 1.85036C793.532 1.27638 795.207 0.97876 796.988 0.97876C798.917 0.97876 800.635 1.3189 802.161 1.99917C803.688 2.67944 804.981 3.59356 806.041 4.74151C807.101 5.88947 807.907 7.2075 808.479 8.6956C809.052 10.1837 809.328 11.7568 809.328 13.3937C809.328 15.2007 808.988 16.8801 808.31 18.432L808.267 18.4533ZM804.557 9.26958C804.197 7.86652 803.667 6.591 802.967 5.44305C802.246 4.29509 801.377 3.35971 800.295 2.65818C799.235 1.93539 797.984 1.59526 796.521 1.59526C795.058 1.59526 793.786 1.95665 792.705 2.65818C791.624 3.38097 790.754 4.29509 790.055 5.42179C789.355 6.54849 788.846 7.84526 788.528 9.29084C788.21 10.7364 788.041 12.182 788.041 13.6701C788.041 15.1582 788.21 16.6888 788.592 18.1344C788.952 19.5587 789.482 20.8129 790.203 21.9184C790.924 23.0026 791.815 23.8742 792.875 24.5332C793.956 25.1922 795.207 25.5111 796.627 25.5111C798.048 25.5111 799.299 25.1497 800.338 24.4269C801.377 23.7041 802.267 22.7687 802.967 21.6208C803.667 20.4728 804.197 19.1973 804.536 17.7517C804.896 16.3274 805.066 14.9031 805.066 13.4575C805.066 12.0119 804.896 10.6726 804.536 9.26958H804.557Z" fill="#3E3A39"/>
</g>
<g style="mix-blend-mode:multiply">
<path d="M938.894 25.8299C938.682 25.6173 938.533 25.4685 938.449 25.3622C938.364 25.2559 938.258 25.1496 938.152 25.0008C938.046 24.8732 937.897 24.6607 937.728 24.4056C937.558 24.1505 937.283 23.7465 936.922 23.2363C936.498 22.5986 936.116 22.0246 935.777 21.5144C935.459 21.0042 935.12 20.494 934.781 20.0051C934.442 19.5161 934.081 19.0059 933.678 18.4957C933.275 17.9855 932.809 17.4115 932.279 16.7738C931.834 16.2423 931.325 15.7746 930.795 15.3069C930.265 14.8605 929.713 14.5629 929.12 14.4566C928.696 14.3715 928.357 14.329 928.144 14.329C927.932 14.329 927.678 14.329 927.36 14.2865V18.1343C927.36 19.2185 927.36 20.1326 927.402 20.8979C927.424 21.6207 927.445 22.2372 927.466 22.7687C927.487 23.3001 927.614 23.7253 927.848 24.0654C928.017 24.363 928.378 24.6607 928.908 24.9583C929.438 25.2559 930.159 25.4472 931.07 25.4897V25.8299H920.215V25.4897C920.787 25.4047 921.317 25.2559 921.847 25.0858C922.378 24.8945 922.78 24.6394 923.077 24.278C923.183 24.1505 923.289 23.9379 923.353 23.6615C923.416 23.3852 923.48 23.0875 923.501 22.7474C923.544 22.4073 923.565 22.0459 923.586 21.6632C923.607 21.2806 923.628 20.8979 923.628 20.5365C923.628 20.2176 923.628 19.7925 923.628 19.2397C923.628 18.687 923.65 18.0918 923.671 17.454C923.671 16.8163 923.671 16.136 923.671 15.4557V6.84604C923.671 6.44213 923.671 6.01696 923.671 5.61305C923.671 5.18788 923.628 4.80522 923.607 4.42257C923.586 4.03992 923.522 3.69978 923.438 3.40216C923.353 3.10454 923.247 2.8707 923.12 2.74315C922.78 2.38175 922.399 2.12665 921.975 2.02036C921.551 1.89281 921.042 1.78652 920.427 1.70148V1.34009H921.826C922.59 1.34009 923.459 1.34009 924.434 1.34009C925.409 1.34009 926.385 1.34009 927.36 1.34009H929.735C931.24 1.34009 932.597 1.3826 933.763 1.46764C934.929 1.55267 936.01 1.87155 936.986 2.38175C937.982 2.91322 938.788 3.61475 939.403 4.5076C940.018 5.40046 940.314 6.52716 940.314 7.88771C940.314 8.71679 940.166 9.48209 939.848 10.1411C939.551 10.8001 939.127 11.3954 938.618 11.9056C938.109 12.4158 937.516 12.8622 936.837 13.2236C936.159 13.585 935.438 13.8826 934.696 14.1377V14.244C935.078 14.4566 935.459 14.7329 935.82 15.1369C936.18 15.5195 936.541 15.9447 936.88 16.4336C937.473 17.3052 938.109 18.2193 938.788 19.2185C939.488 20.2176 940.102 21.1105 940.633 21.8758C941.459 23.045 942.286 23.9166 943.071 24.4693C943.855 25.0221 944.788 25.3622 945.848 25.5323V25.8724H938.894V25.8299ZM935.544 4.63516C934.972 3.7423 934.145 3.04077 933.063 2.53056C932.512 2.27546 931.94 2.10539 931.346 1.97784C930.752 1.87155 930.116 1.80777 929.459 1.80777C928.993 1.80777 928.59 1.80777 928.314 1.85029C928.017 1.87155 927.784 1.89281 927.636 1.91407C927.614 2.04162 927.593 2.16917 927.572 2.27546C927.551 2.38175 927.53 2.50931 927.53 2.65812C927.53 2.82818 927.508 3.04077 927.487 3.31713C927.487 3.59349 927.466 3.9974 927.445 4.52886C927.424 5.31543 927.402 6.20828 927.402 7.20743C927.402 8.20658 927.402 9.16322 927.402 10.0986V13.8401C928.335 13.8401 929.183 13.7976 929.989 13.7125C930.795 13.6275 931.558 13.4787 932.321 13.2236C933.042 12.9897 933.657 12.6921 934.187 12.3095C934.717 11.9268 935.141 11.4804 935.459 10.9914C935.777 10.5025 936.032 9.97104 936.18 9.41832C936.35 8.84434 936.413 8.27036 936.413 7.65386C936.413 6.52716 936.138 5.50675 935.565 4.63516H935.544Z" fill="#3E3A39"/>
</g>
<g style="mix-blend-mode:multiply">
<path d="M1194.04 7.73896C1193.85 7.33505 1193.64 6.90988 1193.4 6.46345C1193.17 6.01702 1192.9 5.61311 1192.64 5.23046C1192.39 4.84781 1192.13 4.48641 1191.88 4.16754C1191.62 3.84866 1191.41 3.59356 1191.24 3.44475C1190.78 2.99832 1190.25 2.7007 1189.69 2.55189C1189.14 2.40308 1188.44 2.31805 1187.57 2.29679C1187.15 2.29679 1186.77 2.29679 1186.45 2.29679C1186.13 2.29679 1185.81 2.29679 1185.5 2.29679H1183.25C1183.25 2.87077 1183.25 3.63607 1183.25 4.61396C1183.25 5.59186 1183.25 6.61226 1183.25 7.67519V20.983C1183.25 21.642 1183.25 22.2798 1183.29 22.875C1183.33 23.4703 1183.44 23.8954 1183.61 24.1505C1183.95 24.6395 1184.44 24.9796 1185.05 25.1709C1185.67 25.341 1186.24 25.4898 1186.73 25.5749V25.915H1175.7V25.5749C1176.29 25.5111 1176.85 25.4048 1177.4 25.2347C1177.95 25.0859 1178.48 24.7033 1178.99 24.108C1179.09 24.0017 1179.18 23.8104 1179.24 23.5553C1179.31 23.3002 1179.35 23.0026 1179.37 22.6624C1179.41 22.3436 1179.43 21.9822 1179.43 21.5995C1179.43 21.2169 1179.43 20.8342 1179.43 20.4728C1179.43 20.1539 1179.43 19.7288 1179.43 19.2186C1179.43 18.6871 1179.43 18.1131 1179.47 17.4754C1179.47 16.8376 1179.47 16.1786 1179.47 15.4983V2.23301H1177.23C1176.93 2.23301 1176.61 2.23301 1176.29 2.23301C1175.98 2.23301 1175.59 2.23301 1175.15 2.23301C1174.28 2.25427 1173.58 2.36056 1173.03 2.53063C1172.48 2.72196 1171.97 3.04083 1171.48 3.48726C1171.29 3.65733 1171.1 3.89117 1170.85 4.21005C1170.59 4.52893 1170.36 4.86907 1170.1 5.25172C1169.85 5.63437 1169.59 6.03828 1169.36 6.46345C1169.13 6.88862 1168.94 7.31379 1168.81 7.71771L1168.51 7.61141L1169.53 1.14883C1170.06 1.25512 1170.53 1.36141 1170.97 1.42519C1171.42 1.48896 1172.05 1.53148 1172.88 1.55274C1173.75 1.574 1174.51 1.59526 1175.19 1.59526C1175.87 1.59526 1176.53 1.59526 1177.16 1.59526H1183.61C1184.29 1.59526 1184.94 1.59526 1185.58 1.59526C1186.22 1.59526 1186.87 1.574 1187.55 1.55274C1188.23 1.55274 1188.99 1.55274 1189.86 1.55274C1190.61 1.53148 1191.22 1.46771 1191.71 1.36141C1192.2 1.25512 1192.7 1.12757 1193.21 0.97876L1194.29 7.61141L1194 7.71771L1194.04 7.73896Z" fill="#3E3A39"/>
</g>
<g style="mix-blend-mode:multiply">
<path d="M1327.87 18.4533C1327.19 20.0051 1326.28 21.3232 1325.11 22.4711C1323.95 23.5978 1322.59 24.4694 1321.04 25.0859C1319.49 25.7024 1317.84 26 1316.1 26C1314.36 26 1312.75 25.7024 1311.22 25.1072C1309.68 24.5119 1308.34 23.6616 1307.2 22.5561C1306.05 21.4507 1305.14 20.1327 1304.46 18.6021C1303.8 17.0714 1303.46 15.392 1303.46 13.5425C1303.46 11.5868 1303.83 9.84356 1304.52 8.29169C1305.22 6.73981 1306.18 5.42179 1307.37 4.3376C1308.55 3.25342 1309.95 2.42434 1311.54 1.85036C1313.13 1.27638 1314.81 0.97876 1316.59 0.97876C1318.52 0.97876 1320.24 1.3189 1321.76 1.99917C1323.29 2.67944 1324.58 3.59356 1325.64 4.74151C1326.7 5.88947 1327.51 7.2075 1328.08 8.6956C1328.65 10.1837 1328.93 11.7568 1328.93 13.3937C1328.93 15.2007 1328.59 16.8801 1327.91 18.432L1327.87 18.4533ZM1324.16 9.26958C1323.8 7.86652 1323.27 6.591 1322.57 5.44305C1321.85 4.29509 1320.98 3.35971 1319.9 2.65818C1318.84 1.93539 1317.59 1.59526 1316.12 1.59526C1314.66 1.59526 1313.39 1.95665 1312.31 2.65818C1311.22 3.38097 1310.36 4.29509 1309.66 5.42179C1308.96 6.54849 1308.45 7.84526 1308.13 9.29084C1307.81 10.7364 1307.64 12.182 1307.64 13.6701C1307.64 15.1582 1307.81 16.6888 1308.19 18.1344C1308.55 19.5587 1309.08 20.8129 1309.8 21.9184C1310.53 23.0026 1311.42 23.8742 1312.48 24.5332C1313.56 25.1922 1314.81 25.5111 1316.23 25.5111C1317.65 25.5111 1318.9 25.1497 1319.94 24.4269C1320.98 23.7041 1321.87 22.7687 1322.57 21.6208C1323.27 20.4728 1323.8 19.1973 1324.14 17.7517C1324.5 16.3274 1324.67 14.9031 1324.67 13.4575C1324.67 12.0119 1324.5 10.6726 1324.14 9.26958H1324.16Z" fill="#3E3A39"/>
</g>
<g style="mix-blend-mode:multiply">
<path d="M1459.6 10.6938C1459.32 11.3741 1458.96 11.9693 1458.54 12.5008C1458.09 13.0323 1457.58 13.4787 1456.99 13.8401C1456.4 14.2227 1455.8 14.5204 1455.19 14.7329C1454.55 14.9668 1453.87 15.1369 1453.15 15.2431C1452.43 15.3494 1451.69 15.4345 1450.97 15.4983C1450.23 15.562 1449.5 15.5833 1448.81 15.5833H1446.98V18.7721C1446.98 19.1547 1446.98 19.5161 1446.98 19.835C1446.98 20.1539 1446.98 20.5153 1446.98 20.8979C1447 21.6207 1447.02 22.2372 1447.05 22.7687C1447.07 23.3001 1447.19 23.7253 1447.43 24.0654C1447.6 24.363 1447.96 24.6607 1448.49 24.9583C1449.02 25.2559 1449.74 25.426 1450.65 25.4685V25.8086H1439.79V25.4685C1440.37 25.3835 1440.9 25.2346 1441.43 25.0646C1441.96 24.8733 1442.36 24.6181 1442.66 24.2568C1442.76 24.1292 1442.87 23.9166 1442.93 23.6403C1443 23.3639 1443.06 23.0663 1443.08 22.7261C1443.12 22.386 1443.14 22.0246 1443.17 21.642C1443.19 21.2593 1443.21 20.8767 1443.21 20.5153C1443.21 20.1964 1443.21 19.7712 1443.21 19.2185C1443.21 18.6658 1443.23 18.0705 1443.25 17.4328C1443.25 16.795 1443.25 16.1147 1443.25 15.4345V6.84604C1443.25 6.44213 1443.25 6.01696 1443.25 5.61305C1443.25 5.18788 1443.21 4.80522 1443.19 4.42257C1443.17 4.03992 1443.1 3.69978 1443.02 3.40216C1442.93 3.10454 1442.83 2.8707 1442.7 2.74315C1442.36 2.38175 1441.91 2.12665 1441.38 2.02036C1440.85 1.89281 1440.28 1.78652 1439.67 1.70148V1.34009H1440.47C1440.9 1.34009 1441.41 1.34009 1441.98 1.34009C1442.55 1.34009 1443.19 1.34009 1443.86 1.34009C1444.54 1.34009 1445.22 1.34009 1445.88 1.34009C1446.54 1.34009 1447.17 1.34009 1447.77 1.34009H1449.29C1450.78 1.34009 1452.11 1.40386 1453.26 1.55267C1454.4 1.70148 1455.5 2.06288 1456.52 2.6156C1457.52 3.16832 1458.35 3.93363 1459 4.93278C1459.66 5.93192 1459.98 7.10114 1459.98 8.46169C1459.98 9.31203 1459.85 10.0561 1459.58 10.7363L1459.6 10.6938ZM1455.34 4.74145C1454.68 3.72104 1453.79 2.95573 1452.71 2.42427C1452.15 2.16917 1451.58 1.9991 1450.97 1.91407C1450.35 1.82903 1449.72 1.78652 1449.06 1.78652C1448.59 1.78652 1448.21 1.78652 1447.96 1.82903C1447.7 1.87155 1447.49 1.89281 1447.32 1.91407C1447.3 2.04162 1447.28 2.16917 1447.24 2.27546C1447.19 2.38175 1447.17 2.50931 1447.15 2.65812C1447.13 2.82818 1447.11 3.04077 1447.09 3.31713C1447.07 3.59349 1447.05 3.9974 1447.02 4.52886C1447 5.31543 1446.98 6.29332 1446.98 7.42002C1446.98 8.54672 1446.98 9.67342 1446.98 10.7576V15.1156C1447.91 15.1156 1448.78 15.0943 1449.59 15.0306C1450.4 14.9668 1451.16 14.818 1451.86 14.5629C1453.3 14.0739 1454.42 13.2449 1455.19 12.0969C1455.95 10.9489 1456.33 9.67342 1456.33 8.22784C1456.33 6.90982 1455.99 5.7406 1455.34 4.72019V4.74145Z" fill="#3E3A39"/>
</g>
</svg>
