<svg xmlns="http://www.w3.org/2000/svg" viewBox="0 0 365 216">
<style type="text/css">
	.st0{fill:#3E3A39;}
	.st1{fill:#727171;}
	.st2{fill:#5E5D5C;}
</style>
<path class="st0" d="M159.2,40c0,0,7.8,6.1,12.5,10.7c-0.3,1.6-1.6,2.3-3.4,2.3h-50.7c-3.3,5.9-7.6,13-11.4,18.3H146l5.6-7.1
	l12.7,10.6c-0.9,1-2.7,2.1-5.1,2.8v36.2c0,9.5-1.6,14.7-15.2,16.2c-0.6-8.8-1.6-11.9-10.9-13.8v-2c0,0,9.4,0.7,11.7,0.7
	c2,0,2.5-0.8,2.5-2.7V75.4h-15.9v39.5c0,0.6-3.6,3-9,3h-2V75.4h-15.5v44.4c0,0.7-3.6,3.1-9,3.1h-1.9V75.4h-15v50.5
	c0,1.3-5.1,4.4-9.8,4.4h-1.8V65.6l12.6,5.8h19.7c1.4-5.5,2.8-12.7,3.8-18.3H56l-1-4.1h97.6L159.2,40L159.2,40z M76.4,42.3l-12.6-8.5
	c0.9-1.1,2.3-2.4,3.8-3.5V5.6l16.6,2.1c-0.3,1.6-1.4,2.7-5,3.4v20.3h27.2V0l16.6,1.7c-0.3,2-1.4,3.4-4.7,4v25.8h28V6.2l16.8,1.7
	c-0.4,2-1.4,3.2-4.7,3.9v26.4c0,1-5.3,3.1-9.9,3.1h-2.2v-5.8H80.2L76.4,42.3L76.4,42.3z"/>
<path class="st0" d="M210.5,27.2c3.9,14.5,3.2,26.1,0.1,32.3c-2,4.4-7.8,5.5-10.3,2c-2-3.2-0.9-7.2,1.8-10.2
	c2.9-4.2,6.7-15.1,6.3-24.3L210.5,27.2L210.5,27.2z M234.2,2.1c-0.4,2-1.3,3.4-4.7,4V127c0,1.4-5,4.1-9.3,4.1h-2.4V0.1L234.2,2.1
	L234.2,2.1z M231.9,22.1c21.6,13.7,10.9,32.1,3.2,23.3c0.4-7.3-2.2-16.5-4.8-22.6L231.9,22.1L231.9,22.1z M307.2,116.3
	c1-0.1,1.5-0.4,2.2-1.7c1-2.3,2.7-10.3,4.3-18.5h1.5l0.4,19.2l-0.1,0c3.1,1.6,3.7,3.1,3.7,5.5c0,5.2-4.2,7.8-18.9,7.8h-8.4
	c-9.7,0-11.2-2.8-11.2-11.4V71.1h-8.1c-2,29.9-11,48.9-39,60.3l-0.8-2c21.4-14.2,26.6-32.7,27.3-58.4h-1.9v2.7
	c0.1,1.6-7.2,4.7-11.7,4.1V26.5l12.3,5.6h21.4c3.6-9.3,7.5-22.4,9.5-31.9l17.7,6.6c-0.5,1.7-2.2,2.5-4.8,2.4
	c-4.6,6.8-12.1,15.9-19.4,22.8h11.7l5.6-6.8l12.1,10c-0.8,1-2.5,2.1-4.8,2.7v35.4c-0.3,1.2-8.2,4-11.8,3.4v-5.8h-3.6v42.9
	c0,2,0.4,2.5,2.8,2.5L307.2,116.3z M251.4,1.1c31.8,9.9,21.5,36.1,9.9,26.5c-1-8.7-6.3-19-11.3-25.7L251.4,1.1L251.4,1.1z
	 M258.2,67.1h37.6V36.2h-37.6V67.1z"/>
<path class="st1" d="M16.3,181.2H9.7v21h-3v-21H0v-3h16.3V181.2z M72.1,202.1h-3v-10.7H58.7v10.7h-3v-24h3v10.2H69v-10.2h3V202.1z
	 M127.7,202.1h-14.9v-24h14.5v3h-11.5v7.1h10.8v3h-10.8v7.8h11.9V202.1z M252.4,181.2h-6.7v21h-3v-21H236v-3h16.3L252.4,181.2
	L252.4,181.2z M300.4,177.8c5.9,0.5,9.1,4.6,9.5,12.5c-0.3,7.7-3.5,11.8-9.6,12.2c-6.1-0.4-9.3-4.5-9.5-12.2
	C291.1,182.3,294.3,178.2,300.4,177.8z M300.2,199.6c4-0.2,6.2-3.3,6.4-9.2c-0.2-5.9-2.3-9-6.3-9.4c-4,0.4-6.1,3.5-6.4,9.4
	C294.2,196.1,296.2,199.2,300.2,199.6z M357.8,193.1h-4.9v9h-3v-24h8.3c4.4,0.2,6.7,2.7,6.9,7.3C364.9,190.4,362.5,193,357.8,193.1
	L357.8,193.1z M357.4,181.1h-4.6v9.1h4.6c2.9-0.1,4.4-1.6,4.5-4.7C361.7,182.6,360.2,181.1,357.4,181.1z"/>
<path class="st2" d="M209.2,185.4C209.2,185.4,209.2,185.3,209.2,185.4l-0.2-0.1c-1.9-0.7-3.2-2.6-3.1-4.5c0-0.6,0.2-1.3,0.5-1.8
	l0-0.1c0,0,0-0.1,0-0.1c-0.7-3.7-2.9-5.7-4.6-6.7c-1.8-1.1-3.4-1.3-3.5-1.3l-0.1,0.1c-1.8,0.8-4.1,0.4-5.4-1c-0.4-0.5-0.8-1-0.9-1.7
	l-0.1-0.1c-3.2-2.1-6.1-2-8-1.6c-2,0.5-3.4,1.5-3.4,1.5l-0.1,0.1c-0.6,1.9-2.5,3.2-4.4,3.2c-0.1,0-0.1,0-0.2,0
	c-0.6,0-1.1-0.2-1.8-0.5l-0.1-0.1c-3.8,0.7-5.8,2.9-6.8,4.6c-1.1,1.8-1.3,3.4-1.3,3.5l0.1,0.1c0.9,1.8,0.4,4.1-1,5.4
	c-0.5,0.4-1,0.8-1.6,0.9l-0.1,0.1c-2.1,3.2-2,6.1-1.6,8c0.5,2,1.4,3.3,1.5,3.4l0.1,0.1c1.9,0.7,3.3,2.6,3.2,4.6
	c0,0.6-0.2,1.3-0.5,1.8l-0.1,0.1c0,0,0.2,1.7,1.3,3.5c1,1.7,3,3.8,6.8,4.6c0,0,0,0,0.1,0c0,0,0.1,0,0.1,0c1.8-0.9,4.2-0.5,5.5,0.9
	c0.4,0.5,0.7,1,0.9,1.6v0.2c0,0,1.4,1,3.4,1.5c0.8,0.2,1.5,0.3,2.3,0.3c2,0,3.9-0.6,5.7-1.9l0.1-0.1c0.7-1.8,2.5-3.2,4.4-3.2
	c0.1,0,0.1,0,0.2,0c0.6,0,1.3,0.2,1.8,0.5l0.1,0.1c0,0,1.7-0.2,3.5-1.3c1.7-1,3.8-3,4.6-6.7c0,0,0,0,0.1-0.1c0,0,0-0.1,0-0.1l0-0.1
	c-0.8-1.8-0.4-4.1,1-5.4c0.5-0.4,1-0.7,1.6-0.9l0.1-0.1c0,0,1-1.4,1.5-3.4C211.3,191.4,211.4,188.5,209.2,185.4L209.2,185.4z
	 M208.9,185.5c-0.3,0.4-1.7,2.5-4.3,4.6c-0.2,0.1-0.3,0.3-0.5,0.4c-2.2-1.7-4.6-3-7-3.9l8.9-3.8C206.7,184,207.7,185,208.9,185.5z
	 M199.3,210.3c0.1,0,1.2-0.3,2.5-1.1c1.2-0.8,2.8-2.3,3.6-5l0.1-0.2l-0.2,0c0,0-2.4,0.5-5.8,0.1V204c0,0,0.2,0,0.3,0
	c3.1,0.3,5.4,0,6.1-0.1c-1,3-2.8,4.7-4.1,5.6c-1.2,0.8-2.2,1.1-2.7,1.2c0.1-0.7,0.5-3.1,0.2-6.4h0.1c0.3,3.3,0,5.8,0,5.8v0.2
	L199.3,210.3z M199.5,205.6c0,0,0.1,0,0.3,0c0.4,0.9,0.5,1.7,0.5,2c-0.2,0.1-0.5,0.1-0.7,0.1C199.6,207,199.6,206.3,199.5,205.6
	L199.5,205.6z M199.5,205.4L199.5,205.4L199.5,205.4c0.1-0.1,0.3-0.1,0.4-0.2l0,0.1C199.8,205.3,199.6,205.4,199.5,205.4z
	 M199.6,207.9c0.3,0,0.6-0.1,0.9-0.2c0,0,0,0,0,0c0.1,0,0.1,0,0.1-0.1c0,0,0.1,0,0.1,0c0.3-0.1,0.5-0.3,0.8-0.4c0,0,0,0,0.1,0
	c0.6-0.4,1-1,1.3-1.6c0,0,0,0,0-0.1c0.1-0.3,0.2-0.7,0.2-1h0.1c0,0.8-0.4,1.7-1.1,2.3c-0.7,0.7-1.5,1.1-2.4,1.1V207.9L199.6,207.9z
	 M202,206.4c-0.2,0.2-0.3,0.4-0.5,0.5c-0.1-0.2-0.3-0.7-0.7-1.3C201.3,206.1,201.8,206.3,202,206.4z M200.8,205.2
	c0.7,0.3,1.4,0.4,1.7,0.4c-0.1,0.1-0.1,0.3-0.2,0.4C202.1,205.9,201.5,205.7,200.8,205.2z M202.7,205.2c-0.3,0-1.1-0.1-2-0.5
	c0-0.1,0-0.1,0-0.2c0.7,0,1.4,0.1,2.1,0C202.8,204.7,202.7,205,202.7,205.2z M201.1,207.2c-0.1,0.1-0.3,0.2-0.4,0.2
	c0-0.3-0.1-0.9-0.4-1.7C200.8,206.4,201.1,207,201.1,207.2z M200.4,204.8L200.4,204.8c-0.1-0.1,0-0.2-0.1-0.4h0.1
	C200.4,204.6,200.4,204.7,200.4,204.8L200.4,204.8z M200.3,204.9c0,0-0.1,0.2-0.2,0.2c-0.1,0.1-0.1,0.1-0.2,0.1l-0.1-0.1
	c0,0,0.1-0.1,0.1-0.1C200.2,205,200.2,204.9,200.3,204.9L200.3,204.9L200.3,204.9z M200,204.9c-0.1,0.1-0.3,0.1-0.4,0.1h0
	c0-0.2,0-0.4-0.1-0.7c0.2,0,0.4,0,0.7,0.1C200.1,204.7,200.1,204.8,200,204.9z M199.6,208.2c0.9,0,1.8-0.4,2.5-1.1
	c0.7-0.7,1.1-1.6,1.2-2.5c0.9-0.1,1.5-0.1,1.9-0.2c-0.8,2.5-2.3,4-3.5,4.7c-1,0.7-1.9,0.9-2.2,1
	C199.5,209.8,199.5,209.1,199.6,208.2L199.6,208.2z M199.1,204.1V204h0v0.1C199.2,204,199.2,204.1,199.1,204.1L199.1,204.1
	L199.1,204.1z M199.1,203.7v-0.2h0.1C199.1,203.5,199.1,203.7,199.1,203.7L199.1,203.7z M199.1,203.3L199.1,203.3
	c-0.4-2.8-1.2-5.4-2.5-7.8l0.1,0c0,0,0,0.1,0.1,0.1h0.1C198,197.9,198.8,200.5,199.1,203.3L199.1,203.3z M169.5,205.6
	c0.1,0.3,0.3,0.5,0.4,0.8c0,0,0,0,0,0.1c0.4,0.6,1,1,1.6,1.2c0,0,0,0,0.1,0c0.3,0.1,0.7,0.2,1,0.2v0.1c-0.8,0-1.7-0.4-2.3-1.1
	c-0.7-0.7-1.1-1.5-1.1-2.4h0.1c0,0.3,0.1,0.6,0.2,0.9v0C169.4,205.4,169.4,205.5,169.5,205.6C169.4,205.5,169.4,205.6,169.5,205.6
	L169.5,205.6z M172.6,207.6c-0.2,0-0.4-0.1-0.7-0.1c0-0.3,0.1-1.1,0.5-2c0.1,0,0.1,0,0.1,0C172.6,206.2,172.5,206.9,172.6,207.6z
	 M172.6,205.3c-0.1,0-0.2,0-0.3-0.1l0-0.1C172.4,205.2,172.5,205.2,172.6,205.3L172.6,205.3L172.6,205.3z M172.6,205
	c-0.2,0-0.3-0.1-0.4-0.2c-0.1-0.1-0.1-0.3-0.1-0.4c0.2,0,0.4,0,0.7-0.1C172.7,204.5,172.6,204.7,172.6,205L172.6,205z M172.3,205.1
	L172.3,205.1c-0.1,0.1-0.2,0-0.3-0.1c-0.1-0.1-0.1-0.1-0.1-0.2l0.1-0.1c0,0,0.1,0.1,0.1,0.1C172.1,205,172.1,205.1,172.3,205.1
	L172.3,205.1z M171.8,204.9c-0.1-0.2-0.1-0.4-0.1-0.4h0.1C171.8,204.5,171.8,204.7,171.8,204.9L171.8,204.9z M171.9,205.7
	c-0.3,0.7-0.4,1.4-0.4,1.7c-0.1-0.1-0.3-0.1-0.4-0.2C171.2,207,171.4,206.4,171.9,205.7z M171.4,205.7c-0.4,0.5-0.6,1-0.7,1.3
	c-0.2-0.2-0.4-0.3-0.5-0.5C170.4,206.3,170.9,206.1,171.4,205.7z M169.9,206c-0.1-0.1-0.2-0.3-0.2-0.4c0.3,0,0.9-0.1,1.7-0.4
	C170.7,205.7,170.1,205.9,169.9,206z M169.5,205.2c-0.1-0.2-0.1-0.5-0.1-0.7c0.7,0,1.4,0,2.1,0c0,0.1,0,0.2,0,0.3
	C170.7,205.1,169.8,205.2,169.5,205.2L169.5,205.2z M170.1,207c0.7,0.7,1.6,1.1,2.5,1.2c0.1,0.9,0.1,1.5,0.2,1.8
	c-2.5-0.8-4-2.3-4.7-3.5c-0.7-1-0.9-1.9-1-2.2c0.3,0,0.9,0.1,1.9,0.1C168.9,205.3,169.4,206.2,170.1,207L170.1,207z M172.7,204.1
	c-3.3,0.3-5.7,0-5.8,0h-0.2l0,0.1c0,0,0.2,1.1,1.1,2.4c0.8,1.2,2.3,2.8,5,3.6l0.2,0.1l0-0.2c0,0-0.4-2.1-0.2-5c0,0,0,0,0-0.1
	c0-0.3,0-0.5,0.1-0.8h0.2v0.2c-0.3,3.2,0,5.5,0.1,6.2c-3-1-4.7-2.8-5.6-4.1c-0.8-1.2-1.1-2.2-1.2-2.7
	C166.9,204,169.4,204.4,172.7,204.1L172.7,204.1L172.7,204.1z M173.1,204.1h-0.2v0L173.1,204.1L173.1,204.1L173.1,204.1z
	 M172.9,203.8v-0.2h0c0,0,0.1,0,0.2-0.1c0,0.1,0,0.1,0,0.2C173.1,203.8,173,203.8,172.9,203.8z M173,203.4c0.4-2.8,1.2-5.4,2.4-7.8
	h0c0,0,0.1,0,0.2,0.1c-1.2,2.5-2,5.1-2.4,7.8C173.1,203.4,173.1,203.4,173,203.4L173,203.4z M172.9,171.8c-2.7,0.8-4.2,2.4-5,3.6
	c-0.9,1.3-1.1,2.4-1.1,2.4l0,0.2h0.2c0,0,0.9-0.2,2.4-0.2c1.1,0,2.3,0,3.4,0.1v0.1c-3.3-0.3-5.8,0.1-6.4,0.2
	c0.1-0.4,0.4-1.5,1.2-2.7c0.9-1.4,2.6-3.2,5.6-4.1c-0.1,0.7-0.5,3-0.1,6.1c0,0.1,0,0.2,0,0.3h-0.2c-0.3-3.4,0.1-5.7,0.1-5.8l0-0.2
	L172.9,171.8L172.9,171.8z M169.4,176.5c0,0,0,0.1-0.1,0.1c-0.1,0.3-0.2,0.6-0.2,0.9h-0.1c0-0.8,0.4-1.7,1.1-2.4
	c0.7-0.7,1.5-1.1,2.4-1.1v0.1c-0.3,0-0.7,0.1-1,0.2c0,0,0,0-0.1,0c-0.6,0.2-1.2,0.7-1.6,1.3c0,0,0,0,0,0.1
	C169.7,175.9,169.6,176.2,169.4,176.5C169.4,176.5,169.4,176.5,169.4,176.5L169.4,176.5z M172.4,176.5c-0.5-0.9-0.5-1.8-0.5-2
	c0.2-0.1,0.4-0.1,0.7-0.1c0,0.7,0,1.4,0,2.1C172.5,176.5,172.5,176.5,172.4,176.5L172.4,176.5z M172.6,176.7L172.6,176.7
	c-0.1,0.1-0.2,0.1-0.3,0.1l-0.1-0.1C172.3,176.7,172.4,176.7,172.6,176.7L172.6,176.7z M170.2,175.7c0.2-0.2,0.3-0.4,0.5-0.5
	c0.1,0.2,0.3,0.7,0.7,1.3C170.9,176,170.4,175.8,170.2,175.7z M171.4,176.8c-0.7-0.3-1.4-0.4-1.7-0.4c0.1-0.1,0.1-0.3,0.2-0.4
	C170.1,176.1,170.7,176.3,171.4,176.8z M169.5,176.8c0.3,0,1.1,0.1,2,0.5c0,0.1,0,0.2,0,0.2c-0.5,0-1.1,0-1.6,0c-0.2,0-0.3,0-0.5,0
	C169.4,177.3,169.5,177.1,169.5,176.8z M171,174.8c0.1-0.1,0.3-0.2,0.4-0.2c0,0.3,0.1,0.9,0.4,1.7
	C171.3,175.6,171.1,175.1,171,174.8z M171.8,177.2L171.8,177.2c0,0.2,0,0.3,0,0.4h-0.1C171.7,177.5,171.7,177.3,171.8,177.2z
	 M171.8,177.1c0,0,0.1-0.1,0.1-0.2c0.1-0.1,0.1-0.1,0.2-0.2l0.1,0.1c-0.1,0-0.2,0.1-0.3,0.2C171.9,177.1,171.9,177.1,171.8,177.1
	L171.8,177.1L171.8,177.1z M172.1,177.2c0.1-0.1,0.2-0.2,0.4-0.2h0c0,0.2,0,0.4,0.1,0.7c-0.2,0-0.4,0-0.7-0.1
	C172,177.5,172,177.3,172.1,177.2z M172.6,173.9c-0.9,0-1.8,0.5-2.5,1.2c-0.7,0.7-1.1,1.6-1.1,2.5c-0.9,0-1.6,0.1-1.9,0.1
	c0.1-0.4,0.4-1.2,1-2.2c0.8-1.1,2.2-2.7,4.7-3.5C172.7,172.3,172.6,172.9,172.6,173.9L172.6,173.9z M173.1,177.9L173.1,177.9
	l-0.2,0.1v-0.1L173.1,177.9L173.1,177.9z M173.1,178.3c0,0,0,0.2,0,0.2c-0.1,0-0.1,0-0.2,0c0-0.1,0-0.2,0-0.2L173.1,178.3
	L173.1,178.3z M173.2,178.7c0.4,2.6,1.2,5.2,2.4,7.6c-0.1,0-0.2,0.1-0.2,0.1c-1.2-2.4-2-5-2.4-7.7
	C173.1,178.7,173.1,178.7,173.2,178.7L173.2,178.7z M199.9,176.8L199.9,176.8c-0.2,0-0.3,0-0.4,0h0v-0.1
	C199.5,176.7,199.7,176.7,199.9,176.8z M199.5,176.5c0-0.7,0.1-1.4,0-2.1c0.2,0,0.5,0.1,0.7,0.1c0,0.3-0.1,1.1-0.5,2
	C199.6,176.5,199.5,176.5,199.5,176.5L199.5,176.5z M199.5,177c0.1,0,0.3,0,0.4,0.1c0.1,0.1,0.2,0.3,0.2,0.5c-0.2,0-0.4,0-0.7,0.1
	C199.4,177.5,199.4,177.3,199.5,177L199.5,177L199.5,177z M200.1,177c0,0-0.1-0.1-0.1-0.1l0.1-0.1c0,0,0.1,0.1,0.2,0.1
	c0.1,0.1,0.1,0.1,0.2,0.2l-0.1,0.1C200.2,177.2,200.1,177.1,200.1,177L200.1,177z M200.3,177.2c0,0.1,0.1,0.2,0.1,0.4h-0.1
	C200.3,177.5,200.3,177.4,200.3,177.2L200.3,177.2L200.3,177.2z M200.3,176.4c0.3-0.7,0.4-1.4,0.4-1.7c0.1,0.1,0.3,0.1,0.4,0.2
	C201,175.1,200.8,175.7,200.3,176.4z M200.7,176.4c0.4-0.5,0.6-1,0.7-1.3c0.2,0.2,0.4,0.3,0.5,0.5
	C201.8,175.8,201.3,176,200.7,176.4z M202.3,176.1c0.1,0.1,0.2,0.3,0.2,0.4c-0.3,0-0.9,0.1-1.7,0.4
	C201.5,176.4,202.1,176.1,202.3,176.1z M202.6,176.9c0.1,0.2,0.1,0.4,0.1,0.7c-0.2,0-0.4,0-0.6,0c-0.5,0-1,0-1.6,0.1
	c0-0.1,0-0.1,0-0.2C201.5,177,202.4,176.9,202.6,176.9z M202.8,176.5c-0.2-0.6-0.7-1.2-1.3-1.6c0,0,0,0-0.1,0
	c-0.2-0.2-0.5-0.3-0.8-0.4c0,0-0.1-0.1-0.1,0c-0.1,0-0.1,0-0.1-0.1h0c-0.3-0.1-0.6-0.2-0.9-0.2v-0.1c0.8,0,1.7,0.4,2.4,1.1
	c0.7,0.7,1.1,1.5,1.1,2.3H203C203,177.3,202.9,176.9,202.8,176.5C202.8,176.6,202.8,176.6,202.8,176.5L202.8,176.5z M202.1,175.1
	c-0.7-0.7-1.6-1.1-2.5-1.2c0-0.9-0.1-1.6-0.1-1.9c0.4,0.1,1.2,0.4,2.2,1c1.1,0.8,2.7,2.2,3.5,4.7c-0.3-0.1-1-0.1-1.9-0.2
	C203.2,176.7,202.8,175.8,202.1,175.1z M205.2,178l0.2,0l-0.1-0.2c-0.8-2.7-2.4-4.2-3.6-5c-1.3-0.8-2.3-1.1-2.5-1.1l-0.2,0v0.2
	c0,0,0.4,2.5,0.1,5.8h-0.1c0.3-3.2,0-5.7-0.1-6.4c0.4,0.1,1.5,0.4,2.7,1.2c1.4,0.9,3.2,2.6,4.1,5.6c-0.4-0.1-1.7-0.3-3.5-0.3
	c-0.9,0-1.8,0.1-2.6,0.1c-0.1,0-0.2,0-0.3,0v-0.2h0C202.9,177.6,205.2,178,205.2,178z M199.2,177.9v0.2h-0.1L199.2,177.9
	L199.2,177.9z M199.1,178.3c0,0,0,0.1,0,0.2l-0.1,0L199.1,178.3L199.1,178.3z M199.1,178.7c-0.4,2.8-1.1,5.4-2.3,7.7l-0.1,0h-0.1
	C197.9,184,198.7,181.4,199.1,178.7L199.1,178.7L199.1,178.7z M197.6,201.6c-0.7-1-2.5-3.3-3-4.2c0.3-0.2,0.6-0.4,0.9-0.4
	C195.8,198,197,200.4,197.6,201.6z M195.7,197.1L195.7,197.1c0.2,0.5,0.5,1.2,0.8,2C196.2,198.3,195.9,197.6,195.7,197.1
	L195.7,197.1z M197.6,202.5c0.1-0.1,0.2-0.2,0.4-0.2C197.8,202.3,197.7,202.4,197.6,202.5C197.6,202.5,197.5,202.5,197.6,202.5
	C197.5,202.6,197.5,202.5,197.6,202.5L197.6,202.5z M197.4,202.7c0,0-0.1,0.1-0.1,0.2v0C197.4,202.8,197.4,202.8,197.4,202.7
	L197.4,202.7L197.4,202.7L197.4,202.7z M197.3,203c0,0,0,0.1,0,0.1C197.3,203.1,197.3,203,197.3,203L197.3,203L197.3,203z
	 M195.2,198.7c-0.3-0.5-0.6-0.9-0.7-1.2C194.6,197.8,194.8,198.2,195.2,198.7L195.2,198.7z M197.1,201.7l-3.6-3.6
	c0.1-0.2,0.4-0.4,0.7-0.5C194.7,198.6,196.3,200.7,197.1,201.7L197.1,201.7z M196.9,202c-1-0.8-3.2-2.5-4.2-2.9
	c0.1-0.3,0.3-0.6,0.5-0.7L196.9,202z M193.9,200.1c-0.5-0.3-1-0.6-1.3-0.8C192.9,199.5,193.4,199.7,193.9,200.1z M196.9,202.6
	c-1.1-0.6-3.7-1.9-4.8-2.2c0-0.3,0.1-0.6,0.4-0.9C193.5,199.9,196,201.9,196.9,202.6z M193.7,201.2c-0.6-0.3-1.2-0.5-1.5-0.6
	C192.5,200.7,193.1,201,193.7,201.2z M196.6,202.9c-1.6-0.4-3.3-0.9-4.8-1.6c0.1-0.1,0.1-0.3,0.2-0.4l0-0.1
	C193,201,195.5,202.4,196.6,202.9L196.6,202.9z M197.1,203.2C197.1,203.2,197.2,203.2,197.1,203.2L197.1,203.2c0.1,0,0.2,0,0.2,0
	c0,0,0,0,0.1,0c0.3,0.1,0.7,0.1,1,0.2v0.2c-2.6-0.4-5.2-1.2-7.6-2.4l0-0.1c0.1,0.1,0.2,0.1,0.3,0.2c0,0,0,0,0,0c0,0,0,0,0,0
	c0.1,0,0.2,0.1,0.3,0.1c0,0,0,0,0.1,0h0C193.4,202.2,195.2,202.8,197.1,203.2L197.1,203.2z M197.5,203.1c0-0.2,0.1-0.4,0.2-0.5
	c0.2-0.2,0.4-0.2,0.5-0.2c0.1,0.3,0.1,0.6,0.1,0.8C198.1,203.2,197.8,203.1,197.5,203.1z M195.9,196.9
	C195.9,196.9,195.9,196.9,195.9,196.9c0.2-0.1,0.3-0.2,0.5-0.3c0.7,1.6,1.3,3.3,1.7,5.1C197.6,200.8,196.2,197.9,195.9,196.9
	L195.9,196.9z M195.8,196.7c0,0-0.1,0.1-0.2,0.1c-0.4-0.1-1,0.1-1.3,0.4c0,0,0,0,0,0l0,0h0c0,0-0.2,0-0.2,0.1
	c-0.4,0.1-0.7,0.4-0.8,0.7c0,0,0,0.1,0,0.1c0,0-0.1,0-0.1,0.1v0c-0.3,0.2-0.6,0.5-0.7,0.9c0,0,0,0,0,0.1c0,0,0,0.1,0,0.1
	c0,0,0,0.1,0,0.1c-0.3,0.3-0.6,0.8-0.5,1.2c0,0,0,0,0,0.1c0,0,0,0.1,0,0.1c-0.1,0.1-0.1,0.2-0.1,0.2c-0.1,0.1-0.2,0.3-0.2,0.4
	l-0.1-0.1h0c0.1-0.2,0.3-0.4,0.4-0.5l0-0.1v-0.1c-0.1-0.4,0.1-0.9,0.4-1.2c0,0,0,0,0.1-0.1h0v-0.1c0.1-0.3,0.2-0.5,0.4-0.8
	c0.1-0.1,0.2-0.2,0.3-0.3c0.1,0,0.1,0,0.1-0.1c0.1-0.2,0.3-0.3,0.3-0.4c0.2-0.2,0.5-0.3,0.8-0.4h0v0l0.1-0.1
	c0.3-0.3,0.8-0.5,1.2-0.4h0.1c0.1-0.1,0.3-0.3,0.6-0.4l0.1,0.1C196.1,196.5,195.9,196.6,195.8,196.7L195.8,196.7z M195.6,196.5
	c-0.5-0.1-1,0.2-1.4,0.5l0,0c-0.3,0.1-0.6,0.2-0.8,0.4c-0.1,0.1-0.2,0.2-0.3,0.4c-0.2,0.1-0.4,0.3-0.4,0.4c-0.2,0.2-0.4,0.5-0.4,0.8
	l0,0c-0.3,0.3-0.6,0.9-0.5,1.4c-0.1,0.1-0.2,0.3-0.4,0.5c-0.1-0.1-0.2-0.1-0.3-0.1c0.4-1.4,0.7-2.8,0.7-4.3c1.5-0.2,2.9-0.4,4.3-0.8
	c0.1,0.1,0.1,0.2,0.2,0.3C195.9,196.2,195.7,196.4,195.6,196.5z M191.2,196.2C191.2,196.2,191.2,196.2,191.2,196.2
	c-0.1,1.5-0.4,3-0.8,4.4l-0.2-0.1c0.4-1.5,0.7-3,0.8-4.6c1.5-0.2,3.1-0.5,4.6-0.9l0.1,0.1c-1.4,0.4-2.9,0.7-4.4,0.9
	C191.3,196,191.3,196.1,191.2,196.2C191.3,196.1,191.2,196.1,191.2,196.2L191.2,196.2z M186.3,206.3v-5.1c0.3-0.1,0.6,0,0.9,0.1
	C186.8,202.4,186.5,205.1,186.3,206.3z M186.1,213.4L186.1,213.4c-1,0-1.9-0.3-2.5-0.9l0.1-0.1c0.2,0.2,0.5,0.4,0.7,0.5c0,0,0,0,0,0
	c0,0,0.1,0,0.1,0.1c0,0,0.1,0,0.1,0c0.3,0.1,0.5,0.2,0.9,0.2c0,0,0,0,0.1,0c0.7,0.1,1.4,0,2-0.2c0,0,0,0,0.1,0
	c0.3-0.1,0.6-0.3,0.8-0.5l0.1,0.1C187.9,213.1,187,213.4,186.1,213.4L186.1,213.4z M188.7,212.7c0.7,0.6,1.2,1,1.4,1.2
	c-2.4,1.2-4.4,1.1-5.8,0.9c-1.2-0.2-2-0.6-2.3-0.8c0.2-0.2,0.8-0.6,1.4-1.2c0.7,0.6,1.6,1,2.6,1h0
	C187.1,213.6,188,213.3,188.7,212.7z M186.1,211.7c0.1,0.7,0.3,1.2,0.4,1.4c-0.3,0-0.5,0-0.8,0C185.8,212.9,186,212.4,186.1,211.7z
	 M185.9,210.9L185.9,210.9c0-0.1,0.1-0.1,0.2-0.1c0.1,0,0.2,0,0.3-0.1v0.1c0,0-0.2,0.1-0.2,0.1C186.1,210.9,186,210.9,185.9,210.9
	L185.9,210.9z M185.3,213c-0.2,0-0.3-0.1-0.4-0.1c0.2-0.2,0.6-0.7,0.9-1.5C185.6,212.2,185.4,212.8,185.3,213z M185.8,210.8
	c-0.2-0.1-0.3-0.2-0.4-0.3l0-0.1C185.5,210.5,185.7,210.7,185.8,210.8L185.8,210.8L185.8,210.8z M185.5,210.9c-0.3,1-0.9,1.6-1,1.8
	c-0.2-0.1-0.4-0.3-0.6-0.4c0.5-0.5,1-1,1.5-1.5C185.3,210.8,185.4,210.9,185.5,210.9L185.5,210.9z M187.8,212.7
	c-0.2-0.2-0.8-0.9-1.1-1.8c0,0,0.1-0.1,0.1-0.1c0.5,0.5,1,1.1,1.5,1.5C188.2,212.5,188,212.6,187.8,212.7z M187.4,212.9
	c-0.2,0.1-0.3,0.1-0.4,0.1c-0.1-0.2-0.4-0.8-0.4-1.6C186.8,212.1,187.2,212.7,187.4,212.9L187.4,212.9z M186.4,210.8L186.4,210.8
	c0-0.1,0.1-0.2,0.2-0.3l0.1,0.1C186.6,210.7,186.5,210.8,186.4,210.8L186.4,210.8z M186,210.6c-0.2,0-0.3-0.1-0.4-0.2
	c0.2-0.2,0.3-0.3,0.4-0.5c0.1,0.2,0.3,0.3,0.4,0.5C186.3,210.5,186.2,210.6,186,210.6L186,210.6z M180.8,196
	c-1.5-0.2-2.9-0.5-4.3-0.9c0-0.1,0.1-0.1,0.1-0.1c1.4,0.4,2.9,0.7,4.5,0.9c0.2,1.6,0.5,3.1,0.9,4.6c-0.1,0-0.1,0.1-0.1,0.1
	c-0.4-1.5-0.8-3-0.9-4.5v0v0L180.8,196L180.8,196L180.8,196z M181.2,200.9c-0.1,0.1-0.2,0.1-0.3,0.1c-0.1-0.2-0.3-0.5-0.4-0.6
	c0.1-0.5-0.2-1-0.5-1.4l0,0c-0.1-0.3-0.2-0.6-0.4-0.8c-0.1-0.1-0.2-0.2-0.4-0.3c-0.1-0.2-0.3-0.4-0.4-0.4c-0.2-0.2-0.5-0.4-0.8-0.4
	l0,0c-0.3-0.3-0.9-0.6-1.4-0.5c-0.1-0.1-0.3-0.3-0.6-0.4c0.1-0.1,0.1-0.2,0.2-0.4c1.4,0.4,2.8,0.7,4.2,0.8
	C180.5,198.1,180.8,199.5,181.2,200.9z M180.3,200.6c0.1,0.1,0.3,0.3,0.4,0.6l-0.1,0.1c-0.1-0.2-0.2-0.4-0.3-0.5
	c0,0-0.1-0.1-0.1-0.2c0.1-0.4-0.1-1-0.4-1.3c0,0,0,0,0,0l0,0c-0.1-0.4-0.3-0.9-0.7-1c0,0-0.1,0-0.1,0h0c-0.2-0.4-0.6-0.8-1.1-0.8
	c-0.3-0.3-0.7-0.5-1.1-0.5c0,0-0.1,0-0.1,0c0,0,0,0-0.1,0c0,0-0.1,0-0.1,0c-0.1-0.1-0.2-0.1-0.2-0.1c-0.1-0.1-0.3-0.2-0.5-0.2
	l0.1-0.1c0.2,0.1,0.4,0.3,0.5,0.4l0.1,0h0.1c0.4-0.1,0.9,0.1,1.2,0.4l0.1,0.1h0l0,0c0.3,0,0.5,0.2,0.8,0.4c0.1,0.1,0.2,0.2,0.3,0.3
	c0,0.1,0,0.1,0.1,0.1c0.2,0.1,0.3,0.3,0.4,0.3c0.2,0.2,0.3,0.5,0.4,0.8v0h0l0.1,0.1c0.3,0.3,0.5,0.8,0.4,1.2L180.3,200.6
	L180.3,200.6z M174.5,202.1c0.7-0.8,2.7-3.5,3.3-4.6h0C177.2,198.7,174.7,201.8,174.5,202.1z M176.7,197c0.3,0,0.6,0.2,0.9,0.4
	c-0.4,1-2.4,3.5-3.1,4.3C175,200.8,176.4,198.1,176.7,197L176.7,197z M175.6,199.1c0.4-0.8,0.7-1.6,0.8-2
	C176.3,197.6,175.9,198.3,175.6,199.1L175.6,199.1z M178,197.6c0.3,0.1,0.6,0.3,0.7,0.5l-3.6,3.6C175.9,200.7,177.6,198.5,178,197.6
	z M175.4,202l3.6-3.6c0.2,0.1,0.4,0.4,0.5,0.7C178.6,199.5,176.5,201.1,175.4,202L175.4,202z M179.6,199.3c-0.8,0.4-2.2,1.4-3.3,2.3
	C177.4,200.8,178.8,199.7,179.6,199.3z M179.7,199.5c0.2,0.3,0.4,0.6,0.4,0.9c-1,0.3-3.7,1.6-4.7,2.2
	C176.2,201.9,178.7,200,179.7,199.5z M180,200.6c-0.3,0.1-0.6,0.2-1,0.4C179.4,200.9,179.8,200.7,180,200.6L180,200.6z M180.2,200.8
	C180.2,200.8,180.2,200.9,180.2,200.8c0.1,0.1,0.2,0.3,0.3,0.5c-1.6,0.7-3.3,1.3-5.1,1.7C176.3,202.6,179.1,201.1,180.2,200.8
	L180.2,200.8z M176.2,196.9L176.2,196.9L176.2,196.9l0.1,0.1c-0.3,1-1.5,3.4-2.1,4.6c0.4-1.7,0.9-3.3,1.6-4.9
	C175.9,196.7,176,196.8,176.2,196.9L176.2,196.9z M174.6,202.5c0.1,0.2,0.2,0.3,0.2,0.5C174.8,202.8,174.8,202.6,174.6,202.5
	c-0.2-0.1-0.3-0.2-0.6-0.2C174.3,202.2,174.5,202.3,174.6,202.5z M174.5,202.7c0.2,0.2,0.2,0.4,0.2,0.5c-0.3,0.1-0.6,0.1-0.8,0.1
	c0.1-0.3,0.1-0.6,0.2-0.9C174.2,202.5,174.4,202.5,174.5,202.7L174.5,202.7z M174.8,203.4L174.8,203.4c0.1,0,0.1,0,0.1,0h0
	c0,0,0.1,0,0.1,0c2.2-0.4,4.3-1.2,6.3-2.1c0,0.1,0,0.1,0.1,0.2c-2.4,1.2-4.9,2-7.6,2.3l0-0.2C174.1,203.5,174.5,203.4,174.8,203.4
	L174.8,203.4z M174,179.6c-0.1-0.3-0.1-0.5-0.1-0.8c0.3,0,0.5,0.1,0.8,0.1c0,0.1-0.1,0.3-0.2,0.5C174.4,179.5,174.2,179.6,174,179.6
	L174,179.6z M174.1,179.8L174.1,179.8C174.1,179.8,174.1,179.8,174.1,179.8C174.1,179.8,174.1,179.8,174.1,179.8L174.1,179.8z
	 M186.1,168.7L186.1,168.7c1,0,1.9,0.3,2.4,0.9l-0.1,0.1c-0.2-0.2-0.5-0.4-0.8-0.5c0,0,0,0-0.1,0c-0.6-0.3-1.3-0.3-2-0.2
	c0,0,0,0-0.1,0c-0.3,0.1-0.6,0.1-0.8,0.2c0,0-0.1,0-0.1,0c0,0-0.1,0.1-0.1,0.1c0,0,0,0,0,0c-0.3,0.1-0.5,0.3-0.7,0.5l-0.1-0.1
	C184.3,169,185.1,168.6,186.1,168.7L186.1,168.7z M183.5,169.4c-0.7-0.7-1.2-1.1-1.4-1.2c0.3-0.2,1.1-0.6,2.3-0.8
	c1.3-0.3,3.4-0.3,5.8,0.9c-0.2,0.2-0.7,0.5-1.4,1.2c-0.6-0.6-1.6-0.9-2.6-0.9h0C185.1,168.4,184.1,168.8,183.5,169.4z M186.1,170.3
	c-0.1-0.7-0.3-1.2-0.4-1.4c0.3,0,0.5,0,0.8,0C186.4,169.2,186.2,169.7,186.1,170.3z M186.3,171.2v0.1c-0.1-0.1-0.2-0.1-0.3-0.1h0
	c0,0-0.1,0-0.2,0v-0.1c0,0,0.1,0,0.2,0C186.2,171.1,186.3,171.1,186.3,171.2z M185.7,170.6c-0.3-0.7-0.7-1.2-0.9-1.5
	c0.1-0.1,0.3-0.1,0.4-0.1C185.4,169.2,185.6,169.8,185.7,170.6z M186.4,171.2c0.1,0.1,0.2,0.1,0.3,0.2l-0.1,0.1
	C186.6,171.5,186.4,171.3,186.4,171.2L186.4,171.2z M186.5,170.6c0.1-0.8,0.4-1.4,0.4-1.6c0.2,0,0.3,0.1,0.4,0.1
	C187.2,169.4,186.8,169.9,186.5,170.6L186.5,170.6z M187.8,169.3c0.2,0.1,0.4,0.2,0.5,0.4c-0.5,0.5-1,1-1.5,1.5c0,0-0.1-0.1-0.1-0.1
	C187,170.2,187.6,169.5,187.8,169.3L187.8,169.3z M184.4,169.3c0.2,0.2,0.7,0.8,1,1.8c-0.1,0.1-0.2,0.1-0.2,0.2
	c-0.5-0.5-1-1-1.5-1.5C184,169.6,184.2,169.4,184.4,169.3L184.4,169.3z M185.8,171.2L185.8,171.2c-0.1,0.1-0.3,0.2-0.3,0.3l0-0.1
	C185.4,171.4,185.6,171.2,185.8,171.2z M186,171.4L186,171.4c0.2,0,0.3,0.1,0.4,0.2c-0.1,0.2-0.3,0.3-0.4,0.5
	c-0.1-0.2-0.3-0.3-0.4-0.5C185.7,171.6,185.9,171.4,186,171.4z M188,179.2c0.1,0.3,0.3,0.7,0.4,1c-0.2,0.2-0.5,0.3-0.9,0.4
	c-0.4-1-0.7-3.8-0.9-5C187.1,176.7,187.5,177.9,188,179.2z M191.3,185.9C191.3,185.9,191.3,185.9,191.3,185.9l0.1,0
	c1.5,0.1,3,0.4,4.4,0.8c-0.1,0.1-0.1,0.2-0.1,0.3c-1.5-0.4-3-0.7-4.6-0.8c-0.1-1.5-0.4-3.1-0.8-4.5l0.2-0.1c0.4,1.4,0.7,2.8,0.8,4.2
	L191.3,185.9C191.2,185.8,191.2,185.9,191.3,185.9L191.3,185.9z M192.9,190.9l-6.6,0l4.6-4.6c1.5,0.1,3.1,0.4,4.5,0.8
	C194.8,188.5,193.9,189.7,192.9,190.9L192.9,190.9L192.9,190.9z M195.5,194.9c-1.5,0.4-3,0.7-4.5,0.9h0l-4.6-4.6l6.6,0
	C193.9,192.3,194.8,193.6,195.5,194.9L195.5,194.9z M190.2,181.4c0,0,0-0.1-0.1-0.2l0.2-0.1c0,0,0,0.1,0.1,0.2
	C190.3,181.4,190.3,181.4,190.2,181.4L190.2,181.4z M190.1,181l-0.1-0.2c0,0,0.1-0.1,0.2-0.1c0,0.1,0.1,0.1,0.1,0.2
	C190.2,180.9,190.1,181,190.1,181L190.1,181z M190.1,181.7c0.4,1.5,0.7,3,0.8,4.5v0l-4.6,4.5v-6.4
	C187.5,183.3,188.7,182.5,190.1,181.7L190.1,181.7z M186.2,184.1c-1.2-1-2.5-1.9-3.8-2.6c0-0.1,0.1-0.2,0.1-0.2
	c1.3,0.7,2.5,1.6,3.7,2.5h0.1c0,0,0,0,0,0h0.1c1.2-0.9,2.4-1.8,3.7-2.5c0,0.1,0,0.1,0.1,0.2C188.7,182.3,187.4,183.1,186.2,184.1z
	 M185.9,191.1l-4.7,4.6c-1.5-0.2-3-0.4-4.5-0.9c0.7-1.3,1.6-2.6,2.6-3.8L185.9,191.1L185.9,191.1z M176.7,187.1
	c1.5-0.4,3.1-0.7,4.6-0.8l4.6,4.7l-6.6,0C178.3,189.7,177.5,188.4,176.7,187.1z M186.1,191.2v6.6h0c-1.2,1-2.5,1.9-3.8,2.7
	c-0.4-1.5-0.7-3-0.9-4.6L186.1,191.2L186.1,191.2z M181.5,186.1c0.2-1.5,0.4-3,0.8-4.4c1.3,0.7,2.6,1.6,3.8,2.6v6.5L181.5,186.1z
	 M186.2,183.6c-1.1-0.9-2.4-1.8-3.7-2.5c0-0.1,0.1-0.2,0.1-0.2c1.3,0.7,2.4,1.5,3.5,2.4h0.1v0c0,0,0,0,0.1,0h0.1
	c1.1-0.9,2.3-1.7,3.6-2.4c0,0.1,0,0.1,0.1,0.2C188.6,181.8,187.4,182.6,186.2,183.6L186.2,183.6z M186.1,183c-1-0.9-2.2-1.7-3.5-2.4
	c0-0.1,0.1-0.2,0.1-0.3c0.2,0.1,0.4,0.1,0.5,0.1c0.3,0.4,0.9,0.6,1.3,0.6h0.1c0.2,0.2,0.6,0.3,0.9,0.3c0,0,0.1,0,0.1,0
	c0.1,0,0.3,0,0.5-0.1c0.2,0.1,0.4,0.1,0.5,0.1c0.3,0,0.7-0.1,0.9-0.3h0.1c0.5,0,1.1-0.2,1.3-0.6c0.2,0,0.5-0.1,0.7-0.1
	c0,0.1,0.1,0.2,0.1,0.4C188.5,181.4,187.3,182.2,186.1,183L186.1,183z M188.9,180.2L188.9,180.2L188.9,180.2
	c-0.3,0.4-0.8,0.6-1.3,0.6h-0.1c-0.2,0.2-0.5,0.3-0.8,0.3c-0.1,0-0.3,0-0.5-0.1c0,0-0.1,0-0.1,0c-0.2,0-0.4,0-0.4,0
	c-0.3,0-0.6-0.1-0.8-0.3h-0.1c-0.4,0-1-0.2-1.2-0.6l0-0.1h-0.1c-0.1,0-0.3,0-0.5-0.1l0-0.1c0.1,0,0.2,0.1,0.4,0.1c0,0,0.1,0,0.2,0
	c0,0,0,0,0,0.1c0,0,0,0,0,0.1c0.2,0.3,0.7,0.5,1.2,0.5h0c0.2,0.2,0.6,0.3,0.9,0.3c0.2,0,0.3,0,0.5-0.1h0c0,0,0.1,0.1,0.1,0.1
	c0.1,0,0.2,0.1,0.3,0.1c0.3,0,0.7-0.1,0.9-0.3h0.1c0,0,0,0,0,0c0.4,0,1-0.2,1.2-0.6c0,0,0.2,0,0.2,0c0.1,0,0.3-0.1,0.5-0.2l0.1,0.1
	C189.3,180.2,188.9,180.2,188.9,180.2z M185.6,178.3v-0.2l0.1-0.2c0.1-0.8,0.2-1.5,0.3-2.1c0,1.7,0,3.4,0,5c-0.3,0.1-0.6,0-0.9-0.1
	C185.3,179.9,185.4,179.1,185.6,178.3L185.6,178.3z M185.5,174.6C185.5,174.6,185.6,174.7,185.5,174.6
	C185.6,174.7,185.6,174.6,185.5,174.6z M184.9,180.6c0.2-0.7,0.5-2,0.6-3.2c0,0.2-0.1,0.3-0.1,0.5c0,0.1,0,0.3-0.1,0.4
	C185.2,179.1,185.1,179.8,184.9,180.6L184.9,180.6z M184.6,180.5c-0.4,0-0.7-0.2-0.9-0.4c0.2-0.3,0.3-0.7,0.4-1
	c0.5-1.3,1-2.7,1.4-3.9C185.4,176.4,185,179.5,184.6,180.5z M183.6,180c0.2-0.3,0.3-0.7,0.5-1.2c0,0.1-0.1,0.2-0.1,0.3
	C183.8,179.4,183.7,179.7,183.6,180L183.6,180z M183.3,179.9L183.3,179.9c-0.2,0-0.3-0.1-0.4-0.1c0.6-1.5,1.3-3,2.1-4.4
	C184.7,176.7,183.8,179.1,183.3,179.9L183.3,179.9z M187.2,180.7c-0.3,0.1-0.6,0.2-0.9,0.1v-4.9
	C186.5,177.5,186.7,179.1,187.2,180.7z M187.3,180.3c0,0.1,0.1,0.2,0.1,0.3C187.4,180.5,187.3,180.4,187.3,180.3L187.3,180.3z
	 M188.6,180c-0.2-0.3-0.3-0.6-0.4-0.8c0-0.1-0.1-0.2-0.1-0.3C188.3,179.3,188.5,179.7,188.6,180z M188.9,179.9L188.9,179.9
	c-0.7-1-1.7-4.2-2-5.1c1,1.5,1.8,3.2,2.5,4.9C189.3,179.9,189,179.9,188.9,179.9L188.9,179.9z M187.1,179.6c-0.2-1-0.4-2.1-0.5-3.1
	C186.7,177.4,186.9,178.6,187.1,179.6z M186.1,174.6c-0.2,0-0.3-0.1-0.4-0.2c0.2-0.3,0.3-0.5,0.5-0.7c0.2,0.2,0.3,0.4,0.5,0.7
	C186.6,174.5,186.4,174.6,186.1,174.6L186.1,174.6z M186.2,173.4c0,0-0.1-0.1-0.1-0.2l0.1-0.1L186.2,173.4L186.2,173.4z
	 M186.1,172.8c0,0-0.1-0.1-0.1-0.2l0.1-0.1l0.1,0.2L186.1,172.8z M185.9,173.4c0,0,0.1,0.1,0.1,0.2c-0.2,0.3-0.4,0.5-0.5,0.8
	c0,0-0.1,0.1-0.1,0.1v0l0,0.1c0,0-0.1,0.1-0.1,0.1c0,0,0,0,0,0c-1,1.6-1.9,3.3-2.5,5.1c0,0-0.1,0.2-0.1,0.2c0,0.1,0,0.1-0.1,0.2
	c-0.1,0-0.1,0.2-0.1,0.2c0,0.1-0.1,0.2-0.1,0.2c-0.1,0-0.1-0.1-0.2-0.1C183.1,177.9,184.3,175.5,185.9,173.4L185.9,173.4z
	 M185.8,172.9L185.8,172.9c0.1-0.1,0.1,0,0.2,0.1l-0.1,0.1C185.9,173,185.8,172.9,185.8,172.9z M182.4,180.7l-0.1,0.2l-0.2-0.1
	c0,0,0.1-0.2,0.1-0.2C182.3,180.7,182.4,180.7,182.4,180.7z M182.3,181.2c0,0-0.1,0.2-0.1,0.2c-0.1,0-0.1-0.1-0.2-0.1
	c0-0.1,0.1-0.2,0.1-0.2C182.1,181.1,182.2,181.1,182.3,181.2z M182.1,181.6c-0.4,1.4-0.7,2.9-0.9,4.5c-1.6,0.1-3.1,0.4-4.6,0.9
	c0-0.1-0.1-0.1-0.1-0.2c1.4-0.4,2.9-0.7,4.4-0.8h0.1v0h0v0v0c0.2-1.5,0.5-2.9,0.9-4.3C182,181.6,182,181.6,182.1,181.6L182.1,181.6z
	 M180.8,185.7c-1.5,0.1-3,0.4-4.4,0.8c0-0.1-0.1-0.1-0.1-0.2c1.4-0.4,2.9-0.7,4.3-0.7h0.1v0h0v0h0v0c0.2-1.4,0.4-2.8,0.8-4.2
	c0.1,0,0.1,0.1,0.2,0.1C181.3,182.8,181.1,184.2,180.8,185.7L180.8,185.7z M170.7,191.2h5.1c0.1,0.3,0,0.6-0.1,0.9
	C174.8,191.7,172,191.4,170.7,191.2z M175.6,192.3c-0.8-0.3-2.6-0.5-4-0.7C173,191.7,174.9,192,175.6,192.3L175.6,192.3z
	 M175.9,190.8h-5.1c1.3-0.2,4-0.5,5-0.9C175.9,190.2,175.9,190.6,175.9,190.8z M170.5,190.4c1.3-0.4,3.8-1.2,4.7-1.7
	c0.2,0.2,0.3,0.5,0.4,0.9C174.6,189.9,171.7,190.3,170.5,190.4z M173.7,189.1c0.5-0.2,1-0.4,1.3-0.6h0
	C174.7,188.7,174.2,188.9,173.7,189.1z M170.1,190.1c1.5-1,3.1-1.7,4.7-2.4c0.1,0.2,0.1,0.4,0.1,0.5v0.1
	C174.1,188.8,171.2,189.8,170.1,190.1L170.1,190.1z M173,192.8c0.8,0.3,1.6,0.6,2,0.8C174.6,193.4,173.8,193.1,173,192.8L173,192.8z
	 M175,193.8L175,193.8c0,0.2-0.1,0.3-0.1,0.5c-1.6-0.6-3.1-1.3-4.6-2.2C171.5,192.5,174.1,193.3,175,193.8z M170.3,191.6
	c1.1,0.1,4.3,0.5,5.3,0.9c0,0.4-0.2,0.7-0.4,0.9C174.2,192.9,171.3,192,170.3,191.6z M175.2,193.9L175.2,193.9c0,0,0-0.1,0-0.2
	c0,0,0.1,0,0.1-0.1c0,0,0,0,0.1,0c0.3-0.3,0.5-0.8,0.5-1.2c0.2-0.3,0.4-0.9,0.2-1.4v0c0,0,0.1-0.1,0.1-0.1c0.1-0.4,0-1-0.2-1.2v-0.1
	c0,0,0,0,0,0c0-0.4-0.2-1-0.6-1.2c0-0.1,0-0.2,0-0.2c0-0.1-0.1-0.3-0.1-0.5l0.1-0.1c0.1,0.3,0.1,0.6,0.1,0.7v0.1l0.1,0
	c0.4,0.2,0.5,0.8,0.6,1.2v0.1c0.2,0.2,0.3,0.5,0.3,0.8c0,0.1,0,0.3-0.1,0.5c0,0,0,0.1,0,0.1c0,0.2,0,0.4,0,0.4
	c0,0.3-0.1,0.6-0.3,0.8v0.1c0,0.4-0.2,1-0.6,1.2l-0.1,0v0.1c0,0.1,0,0.4-0.1,0.6l-0.1-0.1C175.1,194.2,175.2,194.1,175.2,193.9
	L175.2,193.9L175.2,193.9z M175.5,193.9c0.4-0.3,0.6-0.9,0.6-1.3v-0.1c0.2-0.2,0.3-0.6,0.3-0.9c0-0.1,0-0.4-0.1-0.6
	c0.1-0.2,0.1-0.4,0.1-0.5c0-0.3-0.1-0.7-0.3-0.9v-0.1c0-0.5-0.2-1.1-0.6-1.3c0-0.2,0-0.4-0.1-0.7c0.1,0,0.2-0.1,0.4-0.1
	c0.7,1.2,1.5,2.4,2.4,3.6c-0.9,1.1-1.7,2.3-2.4,3.6c-0.1,0-0.2-0.1-0.4-0.1C175.5,194.3,175.5,194,175.5,193.9L175.5,193.9z
	 M178.4,191.1L178.4,191.1L178.4,191.1V191v0c-0.9-1.1-1.7-2.3-2.4-3.6c0.1,0,0.1-0.1,0.2-0.1c0.7,1.3,1.5,2.5,2.4,3.7
	c-0.9,1.2-1.8,2.4-2.5,3.7c-0.1,0-0.1-0.1-0.2-0.1C176.6,193.4,177.4,192.2,178.4,191.1L178.4,191.1z M176.2,187l-0.1-0.1l0.1,0
	c0,0,0.1,0.1,0.1,0.2C176.4,187,176.3,187,176.2,187L176.2,187z M180.6,181.6c0.1-0.1,0.3-0.3,0.4-0.5c0.1,0.1,0.2,0.1,0.3,0.2
	c-0.4,1.4-0.7,2.8-0.8,4.2c-1.4,0.1-2.9,0.3-4.3,0.8c0-0.1-0.1-0.2-0.1-0.2c0.2-0.1,0.4-0.2,0.5-0.4c0.5,0.1,1-0.2,1.4-0.5l0,0
	c0.3-0.1,0.6-0.2,0.8-0.4c0.1-0.1,0.3-0.3,0.4-0.4c0.2-0.1,0.4-0.3,0.4-0.3c0.2-0.2,0.4-0.5,0.4-0.8l0,0
	C180.4,182.6,180.7,182.1,180.6,181.6L180.6,181.6z M181.4,181c-0.1-0.1-0.2-0.1-0.3-0.2c0,0,0-0.1-0.1-0.1c0,0-0.1,0-0.1,0
	c-0.1,0-0.1-0.1-0.2-0.1c0,0,0-0.1-0.1-0.1c0,0,0,0-0.1,0c-1.7-0.8-3.6-1.4-5.5-1.8l-0.2,0h-0.1l-0.2,0c-0.3-0.1-0.6-0.1-0.9-0.2
	c0-0.1,0-0.2,0-0.2c2.7,0.4,5.3,1.2,7.7,2.4C181.5,180.9,181.5,180.9,181.4,181L181.4,181z M174.5,180.3c0.7,0.9,2.7,3.4,3.1,4.4
	c-0.3,0.2-0.6,0.4-0.9,0.4C176.4,184,175.1,181.4,174.5,180.3z M176.5,185c-0.1-0.4-0.3-0.9-0.6-1.5
	C176.2,184.1,176.4,184.7,176.5,185L176.5,185z M174.9,179.1l0,0.1h0c-0.1,0.2-0.1,0.3-0.2,0.4c0,0-0.1,0.1-0.1,0.1h0
	c0,0,0.1-0.1,0.1-0.1C174.8,179.5,174.9,179.3,174.9,179.1L174.9,179.1z M176.9,183.1c0.4,0.6,0.8,1.1,0.9,1.5h0
	C177.6,184.2,177.3,183.7,176.9,183.1z M175.1,180.3l3.6,3.6c-0.1,0.2-0.4,0.4-0.7,0.5C177.6,183.6,176,181.5,175.1,180.3z
	 M175.4,180.1c1,0.8,3.2,2.4,4.1,2.9c-0.1,0.3-0.3,0.6-0.5,0.7L175.4,180.1L175.4,180.1z M178.2,181.9c0.5,0.4,1,0.7,1.3,0.8
	C179.2,182.6,178.8,182.3,178.2,181.9z M175.5,179.7c1.2,0.6,3.6,1.8,4.6,2.1c0,0.3-0.1,0.6-0.4,0.9
	C178.8,182.2,176.5,180.4,175.5,179.7z M178.3,180.8c0.7,0.3,1.3,0.6,1.8,0.7C179.6,181.4,179,181.1,178.3,180.8L178.3,180.8z
	 M175.6,179.2c1.7,0.4,3.4,0.9,4.9,1.6c-0.1,0.2-0.2,0.4-0.2,0.4c0,0,0,0,0,0.1C179.3,181,176.8,179.8,175.6,179.2L175.6,179.2z
	 M174.4,179.8C174.4,179.8,174.4,179.8,174.4,179.8c-0.1,0.1-0.1,0.1-0.1,0.1h-0.1C174.3,179.8,174.4,179.8,174.4,179.8z
	 M176.3,185.2L176.3,185.2c-0.2,0.1-0.3,0.2-0.4,0.2c-0.7-1.5-1.3-3.2-1.6-4.8C174.8,181.6,176.1,184.2,176.3,185.2L176.3,185.2z
	 M176.4,185.4c0,0,0.1-0.1,0.2-0.1c0,0,0.1,0,0.1,0s0.1,0,0.1,0c0,0,0.1,0,0.1,0c0.4,0,0.9-0.3,1.1-0.5c0,0,0.1,0,0.1,0
	c0,0,0.1,0,0.1,0c0,0,0,0,0,0c0.4-0.1,0.7-0.4,0.9-0.7c0,0,0,0,0,0c0,0,0-0.1,0-0.1h0c0,0,0.1,0,0.1,0c0.3-0.2,0.5-0.5,0.7-0.8
	c0,0,0.1-0.2,0.1-0.2l0-0.1c0.3-0.3,0.6-0.9,0.4-1.3c0.1-0.1,0.1-0.2,0.1-0.2c0.1-0.1,0.2-0.3,0.3-0.4h0.1l0.1,0.1
	c-0.1,0.2-0.3,0.5-0.4,0.5l0,0.1v0.1c0.1,0.4-0.1,0.9-0.4,1.2l-0.1,0.1h0v0.1c-0.1,0.3-0.2,0.5-0.4,0.8c-0.1,0.1-0.2,0.2-0.4,0.3
	c0,0-0.1,0.1-0.1,0.1c-0.1,0.2-0.2,0.3-0.3,0.3c-0.2,0.2-0.5,0.3-0.8,0.4h0v0l-0.1,0.1c-0.3,0.3-0.8,0.5-1.2,0.4h-0.1
	c-0.1,0.1-0.3,0.3-0.5,0.4l-0.1-0.1C176.1,185.5,176.2,185.4,176.4,185.4L176.4,185.4z M176.1,186.4c0,0,0.1,0.1,0.1,0.2h-0.1
	l-0.1,0l-0.1-0.2L176.1,186.4L176.1,186.4z M176.1,187.1c0,0-0.2,0.1-0.2,0.1c0-0.1-0.1-0.1-0.1-0.2c0.1,0,0.1-0.1,0.2-0.1
	C176,187,176,187.1,176.1,187.1z M175.9,186.7c0,0-0.1,0-0.2,0.1c0-0.1-0.1-0.1-0.1-0.2c0.1,0,0.1-0.1,0.2-0.1
	C175.7,186.5,175.8,186.7,175.9,186.7L175.9,186.7z M175.5,187.1L175.5,187.1l0.1,0.2c-2.1,0.7-4.1,1.7-6,2.9c0,0-0.2,0.1-0.2,0.1h0
	c0,0-0.1,0.1-0.1,0.1c-0.3,0.2-0.5,0.4-0.8,0.5c-0.1-0.1-0.1-0.1-0.2-0.1C170.6,189.2,173,187.9,175.5,187.1z M168.8,191.1
	c0.2-0.2,0.4-0.3,0.7-0.5c0.1,0.1,0.2,0.3,0.2,0.5c0,0.2-0.1,0.3-0.2,0.5C169.2,191.4,169,191.3,168.8,191.1L168.8,191.1z
	 M169.9,191.1c0-0.2-0.1-0.4-0.2-0.5C169.8,190.7,169.9,190.9,169.9,191.1c0,0.2-0.1,0.4-0.2,0.6
	C169.8,191.5,169.9,191.3,169.9,191.1L169.9,191.1z M168.6,191.2c0.3,0.2,0.5,0.4,0.8,0.6c0,0,0,0,0,0l0.1,0l0.1,0.1h0
	c0,0,0,0,0,0.1c1.6,1.1,3.4,1.9,5.2,2.6c0,0,0,0,0.1,0c0.1,0,0.2,0.1,0.3,0.1h0c0,0,0,0,0.1,0c0.1,0.1,0.3,0.1,0.4,0.1l-0.1,0.1
	c-2.6-0.8-4.9-2.1-7.1-3.6C168.5,191.3,168.6,191.3,168.6,191.2L168.6,191.2z M175.7,195.2c0,0,0.1,0.1,0.2,0.1
	c0,0.1-0.1,0.1-0.1,0.2c-0.1,0-0.2-0.1-0.2-0.1C175.6,195.4,175.6,195.3,175.7,195.2z M175.8,195.1l0.1-0.1l0.2,0.1v0l-0.1,0.1
	C176,195.1,175.8,195.1,175.8,195.1L175.8,195.1z M176.1,195.4l0.1,0h0c0,0-0.1,0.1-0.1,0.2l-0.1,0h0
	C176,195.6,176.1,195.4,176.1,195.4z M176.2,195.2l0.1-0.1l0.1,0.1l-0.1,0.1L176.2,195.2z M176.4,194.9c0.7-1.3,1.5-2.6,2.5-3.8v0v0
	v0c-0.9-1.2-1.8-2.4-2.5-3.7c0.1,0,0.1,0,0.1-0.1c0.7,1.3,1.6,2.6,2.6,3.8c-1,1.2-1.9,2.5-2.6,3.9L176.4,194.9L176.4,194.9z
	 M182.1,200.9l0.1,0.2h0c0,0-0.1,0.1-0.1,0.1L182,201V201L182.1,200.9z M182.2,201.3c0,0,0,0.1,0.1,0.2h0l-0.1,0.1l-0.1-0.2
	C182.1,201.4,182.2,201.3,182.2,201.3L182.2,201.3z M182.3,201.7c0.9,2.5,2.1,4.8,3.7,7l-0.1,0.1c-1.6-2.1-2.8-4.5-3.7-7
	L182.3,201.7L182.3,201.7z M185.1,201.5c0.3-0.1,0.6-0.2,0.9-0.1v5.1C185.8,205.1,185.4,202.5,185.1,201.5z M185.9,207.4
	c0,0-0.1,0.1-0.2,0.1v0h0C185.7,207.4,185.8,207.4,185.9,207.4L185.9,207.4L185.9,207.4z M185.6,207.5
	C185.6,207.5,185.5,207.5,185.6,207.5C185.5,207.6,185.6,207.5,185.6,207.5L185.6,207.5z M185.2,203c-0.1-0.6-0.2-1.1-0.3-1.4
	C184.9,201.9,185.1,202.4,185.2,203L185.2,203z M185.5,206.9c-0.4-1.2-1.3-4-1.8-4.9c0.2-0.2,0.5-0.3,0.9-0.4
	C185,202.6,185.4,205.6,185.5,206.9z M184.3,203.9c-0.3-0.7-0.5-1.4-0.7-1.7C183.8,202.6,184,203.2,184.3,203.9L184.3,203.9z
	 M185.1,207c-0.9-1.5-1.7-3-2.3-4.6c0.1-0.1,0.3-0.1,0.5-0.2h0.1C183.8,203.1,184.8,205.9,185.1,207z M185.9,209.1
	c0,0,0.1,0.1,0.1,0.2l-0.1,0.2l-0.1-0.2C185.8,209.3,185.9,209.2,185.9,209.1z M186.2,209.5l-0.1,0.1l0-0.1
	C186,209.6,186.1,209.5,186.2,209.5L186.2,209.5L186.2,209.5z M186.1,209.1L186,209c0,0,0.1-0.1,0.1-0.2c0,0.1,0.1,0.1,0.1,0.2
	L186.1,209.1L186.1,209.1z M186.1,208.5c-0.2-0.2-0.3-0.5-0.5-0.7c0.2-0.1,0.3-0.2,0.5-0.2c0.2,0,0.4,0.1,0.5,0.2
	C186.5,208,186.3,208.2,186.1,208.5z M186,207.4c0,0,0.1,0,0.1,0c0.1,0,0.3,0,0.4,0.1c-0.1-0.1-0.2-0.1-0.4-0.1
	C186.1,207.4,186,207.4,186,207.4z M187.4,201.6c-0.1,0.4-0.3,1-0.4,1.6C187.1,202.6,187.3,202,187.4,201.6z M187.6,201.6
	c0.3,0,0.7,0.2,0.9,0.4c-0.5,0.9-1.3,3.4-1.7,4.7C186.9,205.3,187.3,202.6,187.6,201.6z M188.6,202.2c-0.2,0.5-0.5,1.2-0.8,2
	C188.1,203.4,188.4,202.6,188.6,202.2z M188.9,202.2L188.9,202.2c0.1,0,0.4,0.1,0.6,0.1c-0.6,1.7-1.4,3.3-2.4,4.8
	C187.4,206,188.3,203.1,188.9,202.2L188.9,202.2z M189,202c0,0-0.1,0-0.2,0c-0.2-0.4-0.8-0.6-1.2-0.6c0,0,0,0,0,0h0c0,0,0,0,0,0h0
	c0,0-0.1-0.1-0.2-0.1c-0.3-0.2-0.7-0.2-1-0.1c0,0-0.1,0-0.1,0h0c0,0,0,0-0.1,0c0,0-0.1,0-0.1,0c-0.3-0.1-0.7,0-1.1,0.1
	c0,0,0,0-0.1,0c0,0-0.1,0-0.1,0.1c0,0,0,0-0.1,0h0c-0.4,0-0.9,0.2-1.2,0.5c0,0,0,0,0,0.1s0,0.1,0,0.1c-0.1,0-0.2,0-0.2,0
	c-0.1,0-0.3,0.1-0.5,0.2l-0.1-0.1c0.2-0.1,0.5-0.1,0.7-0.1h0.1l0-0.1c0.2-0.4,0.8-0.5,1.2-0.6c0,0,0.1,0,0.1,0h0.1
	c0.2-0.2,0.5-0.3,0.8-0.3c0.1,0,0.3,0,0.4,0c0,0,0.1,0.1,0.1,0c0.2-0.1,0.4-0.1,0.5-0.1c0.3,0,0.6,0.1,0.8,0.3h0.1c0,0,0.1,0,0.1,0
	c0.4,0,1,0.2,1.2,0.6l0,0.1h0.1c0.1,0,0.4,0,0.7,0.1l-0.1,0.1C189.3,202.1,189.1,202,189,202z M188.9,201.7
	c-0.3-0.4-0.9-0.6-1.3-0.6h-0.1c-0.2-0.2-0.6-0.3-0.9-0.3c-0.1,0-0.3,0-0.5,0.1c-0.2-0.1-0.4-0.1-0.6-0.1c-0.3,0-0.7,0.1-0.9,0.3
	h-0.1c-0.5,0-1.1,0.2-1.3,0.6c-0.2,0-0.4,0.1-0.7,0.1c0-0.1-0.1-0.2-0.1-0.3c1.3-0.7,2.5-1.6,3.6-2.5c1.1,0.9,2.3,1.7,3.6,2.4
	c0,0.1-0.1,0.2-0.1,0.4C189.4,201.8,189.1,201.7,188.9,201.7L188.9,201.7z M186.2,198.9L186.2,198.9L186.2,198.9c0,0-0.2-0.1-0.2,0
	c-1.1,1-2.3,1.8-3.6,2.5c0-0.1,0-0.1-0.1-0.2c1.3-0.7,2.6-1.6,3.8-2.6c1.2,0.9,2.4,1.7,3.7,2.4c0,0.1-0.1,0.1-0.1,0.2
	C188.6,200.6,187.4,199.8,186.2,198.9z M186.2,198.4C186.2,198.4,186.2,198.4,186.2,198.4c-0.1,0-0.1,0-0.2,0c0,0,0,0,0,0
	c-1.1,1-2.4,1.8-3.7,2.6c0-0.1-0.1-0.1-0.1-0.2c1.4-0.8,2.7-1.7,3.9-2.7c1.2,1,2.5,1.9,3.8,2.6l0,0.2
	C188.7,200.2,187.4,199.3,186.2,198.4L186.2,198.4z M186.3,197.9v-6.6l4.6,4.7c-0.1,1.5-0.4,3-0.8,4.5
	C188.8,199.8,187.5,198.9,186.3,197.9z M190.1,201.2L190.1,201.2l0.2,0.1c0,0-0.1,0.2-0.1,0.2c-0.1,0-0.1-0.1-0.2-0.1
	C190,201.3,190.1,201.3,190.1,201.2z M190.2,201L190.2,201l0-0.2c0,0,0.1,0.1,0.2,0.1l0,0.1L190.2,201z M193.1,191.1
	c1-1.2,1.9-2.4,2.6-3.8c0.1,0,0.1,0,0.2,0.1c-0.7,1.3-1.6,2.5-2.5,3.6h0c0,0,0,0.1,0,0.1s0,0.1,0,0.1h0c0.9,1.1,1.8,2.3,2.5,3.6
	c-0.1,0-0.1,0-0.2,0.1C195,193.6,194.1,192.3,193.1,191.1L193.1,191.1z M191.8,181.5c-0.1-0.1-0.2-0.3-0.3-0.5l0.1-0.1
	c0.1,0.1,0.1,0.2,0.2,0.4c0,0,0.1,0.1,0.1,0.2c0,0,0,0.1,0,0.1s0,0,0,0.1c0,0.4,0.2,0.9,0.5,1.2c0,0,0,0.1,0,0.1c0,0,0,0.1,0,0.1
	c0,0,0,0,0,0c0.1,0.4,0.4,0.7,0.7,0.9c0,0,0,0,0,0c0,0,0.1,0,0.1,0c0,0,0,0.1,0,0.1c0.1,0.3,0.5,0.5,0.8,0.7c0,0,0,0.1,0.1,0.1
	c0.1,0,0.1,0,0.1,0h0l0,0c0,0,0,0,0,0c0.3,0.3,0.9,0.6,1.3,0.4c0.1,0,0.1,0.1,0.2,0.1c0.1,0.1,0.3,0.2,0.5,0.3v0l-0.1,0.1
	c-0.3-0.1-0.5-0.3-0.6-0.4l-0.1,0h-0.1c-0.4,0.1-0.9-0.1-1.2-0.4l-0.1-0.1h0l0,0c-0.3,0-0.5-0.2-0.8-0.4c-0.1-0.1-0.2-0.2-0.3-0.4
	c0,0-0.1-0.1-0.1-0.1c-0.2-0.1-0.3-0.2-0.3-0.3c-0.2-0.2-0.3-0.5-0.4-0.8v0h0c0,0,0-0.1-0.1-0.1C192,182.5,191.8,182,191.8,181.5
	L191.8,181.5L191.8,181.5z M197.5,180.6c-0.6,1.2-1.8,3.6-2.1,4.6c-0.3,0-0.6-0.1-0.9-0.4C195,183.8,196.8,181.5,197.5,180.6z
	 M197.3,179.1L197.3,179.1L197.3,179.1z M197.3,179.3c0,0,0.1,0.1,0.1,0.2h0v-0.1C197.4,179.4,197.3,179.3,197.3,179.3L197.3,179.3z
	 M197.5,179.6C197.5,179.6,197.5,179.6,197.5,179.6c0.2,0.2,0.3,0.2,0.4,0.3C197.8,179.8,197.7,179.7,197.5,179.6
	C197.5,179.6,197.5,179.6,197.5,179.6z M196.5,183.2c-0.3,0.7-0.6,1.4-0.8,1.8h0C195.8,184.6,196.1,183.9,196.5,183.2z M194.4,184.6
	c0.2-0.3,0.5-0.8,0.8-1.3C194.9,183.8,194.6,184.2,194.4,184.6L194.4,184.6z M194.2,184.5c-0.3-0.1-0.6-0.3-0.7-0.5l3.6-3.6
	C196.3,181.4,194.7,183.6,194.2,184.5L194.2,184.5z M196.9,180.1l-3.6,3.6c-0.2-0.1-0.4-0.4-0.5-0.7
	C193.7,182.6,195.8,180.9,196.9,180.1z M192.6,182.8c0.3-0.2,0.7-0.4,1.1-0.7C193.3,182.4,192.9,182.7,192.6,182.8z M192.5,182.6
	c-0.2-0.3-0.4-0.6-0.4-0.9c1.1-0.3,3.7-1.6,4.8-2.2C196,180.2,193.5,182.2,192.5,182.6z M192.1,181.5c0.4-0.1,1-0.4,1.7-0.7
	C193.2,181.1,192.6,181.4,192.1,181.5z M192,181.3L192,181.3c-0.1-0.2-0.2-0.3-0.2-0.4c1.5-0.7,3-1.2,4.6-1.6
	C195.2,179.9,192.9,181,192,181.3L192,181.3z M196,185.2C196,185.2,195.9,185.2,196,185.2c0.2-1.1,1.7-4,2.1-4.9
	c-0.4,1.8-0.9,3.5-1.7,5.1C196.2,185.4,196.1,185.3,196,185.2L196,185.2z M197.7,179.5c-0.1-0.1-0.2-0.3-0.2-0.4
	c0.3-0.1,0.6-0.1,0.8-0.2c0,0.3-0.1,0.5-0.1,0.8C198.1,179.7,197.9,179.6,197.7,179.5L197.7,179.5z M197.5,178.8c0,0-0.2,0-0.2,0
	h-0.1c0,0-0.2,0-0.2,0.1c-1.9,0.4-3.7,1-5.4,1.8c0,0-0.1,0-0.1,0c-0.1,0-0.1,0.1-0.1,0.1h0l-0.1,0.1h0c0,0-0.1,0-0.1,0
	c-0.1,0-0.1,0.1-0.1,0.1c-0.1,0.1-0.2,0.1-0.3,0.1c0-0.1,0-0.1-0.1-0.2c2.4-1.2,5-2,7.6-2.4l0,0.2
	C198.1,178.7,197.8,178.8,197.5,178.8L197.5,178.8z M191.3,181.1c0.1,0.2,0.2,0.4,0.3,0.5c-0.1,0.5,0.2,1,0.5,1.4l0,0
	c0.1,0.3,0.2,0.6,0.4,0.8c0.1,0.1,0.3,0.3,0.4,0.4c0.1,0.2,0.3,0.4,0.3,0.4c0.2,0.2,0.5,0.4,0.8,0.4l0,0c0.3,0.3,0.9,0.6,1.4,0.5
	c0.1,0.1,0.4,0.3,0.6,0.4c0,0.1-0.1,0.2-0.1,0.3c-1.4-0.4-2.9-0.7-4.4-0.8c-0.1-1.4-0.3-2.8-0.7-4.2
	C191.1,181.2,191.2,181.2,191.3,181.1L191.3,181.1z M196.6,187c-0.1,0.1-0.1,0.2-0.1,0.3l-0.2-0.1c0.1-0.1,0.1-0.2,0.1-0.3
	C196.5,187,196.5,187,196.6,187z M196.5,186.8L196.5,186.8l0.1-0.2l0.2,0.1c0,0-0.1,0.1-0.1,0.2
	C196.6,186.8,196.6,186.8,196.5,186.8z M197.2,193.9L197.2,193.9c0.9-0.5,3.4-1.4,4.7-1.8c-1.4,0.9-3,1.6-4.6,2.2
	C197.3,194.2,197.3,194.1,197.2,193.9l0,0.1L197.2,193.9L197.2,193.9z M201.5,190.9h-5.1c-0.1-0.3,0-0.6,0.1-0.9
	C197.5,190.4,200.1,190.7,201.5,190.9z M196.6,189.8c0.4,0.1,1,0.2,1.6,0.4C197.6,190.1,197,190,196.6,189.8L196.6,189.8z
	 M196.4,191.3h5.1c-1.3,0.2-4,0.5-5,0.9C196.3,191.9,196.3,191.5,196.4,191.3z M198,192c-0.6,0.1-1.1,0.2-1.4,0.3
	C196.9,192.2,197.4,192.1,198,192z M201.9,191.7c-1.2,0.4-4,1.3-4.9,1.8c-0.2-0.2-0.3-0.5-0.4-0.9
	C197.6,192.2,200.8,191.8,201.9,191.7L201.9,191.7z M198.9,192.9c-0.7,0.3-1.4,0.5-1.7,0.7C197.6,193.4,198.2,193.2,198.9,192.9
	L198.9,192.9z M197.2,188.3L197.2,188.3c0-0.2,0.1-0.3,0.1-0.5c1.6,0.6,3.2,1.4,4.7,2.3C200.9,189.8,198.1,188.9,197.2,188.3z
	 M199.1,189.4c-0.8-0.3-1.5-0.6-1.9-0.8h0C197.6,188.8,198.3,189.1,199.1,189.4z M201.7,190.5c-1.2-0.2-4.1-0.5-5.1-0.9
	c0-0.3,0.2-0.7,0.4-0.9C197.9,189.2,200.4,190.1,201.7,190.5z M197,188.2c0,0,0,0.1,0,0.2c-0.4,0.2-0.6,0.8-0.6,1.2c0,0,0,0,0,0v0.1
	c0,0,0,0-0.1,0c0,0-0.1,0.1,0,0.2c-0.2,0.3-0.2,0.8-0.1,1c0,0,0,0.1,0,0.1c0,0-0.1,0.1-0.1,0.1c0,0,0,0,0,0c-0.1,0.3,0,0.8,0.1,1.1
	c0,0,0,0,0,0.1c0,0,0,0.1,0.1,0.1l0,0.1c0,0.4,0.2,1,0.5,1.2c0,0,0,0,0.1,0c0,0,0.1,0,0.1,0.1c0,0.1,0,0.2,0,0.2
	c0,0.1,0.1,0.3,0.1,0.5l-0.1,0.1c-0.1-0.2-0.1-0.5-0.1-0.6v-0.1l-0.1,0c-0.4-0.2-0.5-0.8-0.6-1.2c0,0,0-0.1,0-0.1v-0.1
	c-0.2-0.2-0.3-0.5-0.3-0.8c0-0.1,0-0.3,0-0.4c0,0,0.1-0.1,0-0.1c-0.1-0.2-0.1-0.4-0.1-0.5c0-0.3,0.1-0.6,0.3-0.8v-0.1
	c0,0,0-0.1,0-0.1c0-0.4,0.2-1,0.6-1.2l0.1,0v-0.1c0-0.1,0-0.4,0.1-0.6l0.1,0.1C197.1,188,197,188.2,197,188.2L197,188.2z
	 M196.7,188.3c-0.4,0.3-0.6,0.9-0.6,1.3v0.1c-0.2,0.2-0.3,0.6-0.3,0.9c0,0.1,0,0.3,0.1,0.5c-0.1,0.2-0.1,0.4-0.1,0.6
	c0,0.3,0.1,0.7,0.3,0.9v0.1c0,0.5,0.2,1.1,0.6,1.3c0,0.1,0,0.4,0.1,0.6c-0.1,0-0.2,0.1-0.3,0.1c-0.7-1.3-1.5-2.5-2.5-3.5
	c0.9-1.1,1.8-2.3,2.5-3.5c0.1,0,0.2,0.1,0.3,0.1C196.8,187.9,196.7,188.1,196.7,188.3L196.7,188.3z M193.8,191.2L193.8,191.2
	c1,1.1,1.8,2.2,2.5,3.5l-0.2,0.1c-0.7-1.3-1.6-2.5-2.5-3.6c0.9-1.1,1.8-2.4,2.5-3.7h0l0.1,0.1c-0.7,1.3-1.5,2.4-2.5,3.5h0
	c0,0,0,0.1,0,0.1C193.8,191.1,193.8,191.2,193.8,191.2L193.8,191.2z M196.3,186.7c0,0-0.1-0.1-0.2-0.1l0.1-0.2c0,0,0.1,0,0.2,0.1
	L196.3,186.7z M196.2,186.9c-0.1,0.1-0.1,0.2-0.1,0.3l-0.2-0.1c0.1-0.1,0.1-0.2,0.1-0.3C196.1,186.9,196.1,186.9,196.2,186.9z
	 M196.1,195l0.1,0.1c0,0-0.1,0-0.2,0.1l0-0.1l-0.1-0.1L196.1,195L196.1,195z M196.1,195.6c0,0-0.1-0.1-0.1-0.2c0.1,0,0.1,0,0.2-0.1
	c0,0.1,0.1,0.1,0.1,0.2L196.1,195.6z M196.3,195l0.1,0h0.1l0.1,0.1l-0.2,0.1L196.3,195L196.3,195z M196.6,195.2c0,0,0.1,0.1,0.1,0.2
	h0l-0.1,0.1c0,0-0.1-0.1-0.1-0.2L196.6,195.2z M196.7,194.8c0.1-0.1,0.2-0.1,0.3-0.1h0h0c0.1-0.1,0.2-0.1,0.3-0.1c0,0,0,0,0.1,0
	c1.8-0.7,3.6-1.6,5.2-2.6c0,0,0,0,0,0l0.1-0.1c0,0,0.1,0,0.1-0.1c0,0,0,0,0,0c0.3-0.2,0.5-0.4,0.8-0.6l0.1,0.1
	c-2.1,1.6-4.5,2.8-7,3.6L196.7,194.8L196.7,194.8z M202.4,191.1c0,0,0,0.1,0,0.1h0C202.3,191.2,202.3,191.1,202.4,191.1
	c0-0.1,0-0.3,0.1-0.4C202.4,190.8,202.3,190.9,202.4,191.1L202.4,191.1z M202.5,191.5L202.5,191.5L202.5,191.5c0,0-0.1-0.1-0.1-0.1
	c0,0,0,0,0-0.1C202.4,191.4,202.4,191.5,202.5,191.5L202.5,191.5z M202.6,191.7C202.6,191.7,202.5,191.6,202.6,191.7
	C202.5,191.6,202.5,191.6,202.6,191.7C202.5,191.6,202.6,191.7,202.6,191.7L202.6,191.7z M202.6,191.1c0-0.2,0.1-0.4,0.2-0.5
	c0.2,0.2,0.4,0.3,0.7,0.5c-0.2,0.2-0.4,0.3-0.7,0.5C202.7,191.4,202.6,191.3,202.6,191.1L202.6,191.1z M202.8,190.3
	C202.8,190.3,202.8,190.3,202.8,190.3L202.8,190.3L202.8,190.3z M202.5,190.2c-1.6-1.1-3.3-1.9-5.1-2.6c0,0-0.1-0.1-0.2-0.1
	l-0.2-0.1c0,0-0.1-0.1-0.1-0.1c0,0,0,0,0,0c-0.1,0-0.2-0.1-0.3-0.1c0.1-0.1,0.1-0.2,0.1-0.3c2.5,0.8,4.9,2.1,7,3.7
	c-0.1,0.1-0.1,0.1-0.2,0.1c-0.2-0.2-0.5-0.4-0.7-0.5L202.5,190.2z M196.9,186.9l0.1-0.2c2.5,0.8,4.8,2.1,7.1,3.9l-0.1,0
	C201.8,189,199.4,187.7,196.9,186.9L196.9,186.9z M199,178v0.2c0,0-0.2,0-0.2,0V178h0C198.8,178,198.9,178,199,178L199,178z
	 M198.9,178.4l0,0.2l-0.2,0c0,0,0-0.1,0-0.2C198.8,178.4,198.8,178.4,198.9,178.4z M198.9,178.8c-0.4,2.7-1.2,5.2-2.3,7.5
	c-0.1,0-0.1-0.1-0.2-0.1c1-2,1.7-4,2.1-6.2c0,0,0-0.1,0-0.1c0,0,0,0,0-0.1v-0.1h0v-0.1c0.1-0.3,0.1-0.6,0.2-0.9L198.9,178.8
	L198.9,178.8z M198.5,178.2c-2.7,0.4-5.2,1.2-7.7,2.4c0-0.1,0-0.1-0.1-0.2c2.5-1.2,5.1-2,7.8-2.4
	C198.5,178.1,198.5,178.1,198.5,178.2L198.5,178.2z M190.8,181.3c0.4,1.4,0.6,2.8,0.7,4.2c0,0,0,0,0,0c0,0,0,0.1,0,0.1
	c0,0,0.1,0,0.1,0h0c1.4,0.1,2.9,0.3,4.3,0.7l-0.1,0.2c-1.5-0.4-2.9-0.7-4.5-0.8c-0.1-1.4-0.4-2.9-0.8-4.3
	C190.7,181.4,190.8,181.4,190.8,181.3z M190.8,181.1l-0.2,0.1c0,0,0-0.1-0.1-0.2l0.2-0.1C190.7,180.9,190.7,181,190.8,181.1
	L190.8,181.1L190.8,181.1z M190.6,180.7c0,0-0.1,0.1-0.2,0.1c0-0.1,0-0.1-0.1-0.2c0.1,0,0.1-0.1,0.2-0.1L190.6,180.7L190.6,180.7z
	 M190.3,180.4c-0.9-2.5-2.1-4.9-3.8-7.1l0.1-0.1c1.8,2.3,3.1,4.7,3.9,7.2L190.3,180.4z M190.2,180.5L190.2,180.5l-0.2,0.1
	c-0.8-2.5-2-4.9-3.6-7.1l0.1-0.1C188.1,175.6,189.3,178,190.2,180.5z M186.4,173.1l-0.1-0.1v0l0.1-0.1c0,0,0.1,0.1,0.1,0.1
	L186.4,173.1L186.4,173.1z M186.4,172.5l-0.1-0.2c2.2-2.7,4.2-4,4.2-4l0.2-0.1l-0.2-0.1c-2.5-1.3-4.7-1.3-6.1-1
	c-1.5,0.3-2.5,0.9-2.5,1l-0.1,0.1l0.1,0.1c0,0,2,1.5,4.2,4.1l-0.1,0.1c-2-2.5-4-4-4.6-4.4c0.3-0.2,1.3-0.7,2.7-1
	c1.6-0.3,4.1-0.4,6.9,1c-0.6,0.4-2.4,1.8-4.4,4.2C186.6,172.3,186.5,172.4,186.4,172.5L186.4,172.5z M182.1,180.3
	c0,0-0.1-0.1-0.2-0.1c0.9-2.6,2.1-5,3.8-7.2c0,0.1,0.1,0.1,0.1,0.2C184.2,175.3,183,177.7,182.1,180.3L182.1,180.3z M182,180.5
	c0,0-0.1,0.2-0.1,0.2l-0.2-0.1l0.1-0.2C181.9,180.4,182,180.5,182,180.5L182,180.5z M181.9,180.9c0,0-0.1,0.2-0.1,0.2
	c-0.1,0-0.1-0.1-0.2-0.1c0-0.1,0.1-0.2,0.1-0.2L181.9,180.9z M181.6,180.5c-2.4-1.2-5-2-7.8-2.4V178c2.8,0.4,5.5,1.1,7.8,2.3
	C181.6,180.4,181.6,180.4,181.6,180.5z M173.8,179.7C173.8,179.7,173.8,179.8,173.8,179.7l0,0.2c0,0,0,0,0,0.1
	c0.4,1.9,1,3.8,1.8,5.5c0,0,0,0.1,0,0.1c0,0.1,0.1,0.2,0.1,0.3v0c0,0,0,0,0,0c0,0.1,0.1,0.2,0.1,0.3h0l-0.1,0
	c-1.2-2.4-2-4.9-2.4-7.5h0.2C173.7,179.1,173.8,179.4,173.8,179.7L173.8,179.7z M173.5,178.5c0,0,0-0.2,0-0.2h0.2c0,0.1,0,0.2,0,0.2
	C173.6,178.6,173.6,178.6,173.5,178.5L173.5,178.5z M173.6,178.1h-0.1V178h0.2L173.6,178.1L173.6,178.1z M175.5,186.8
	c-2.6,0.9-5,2.1-7.2,3.8l-0.1-0.1c2.3-1.8,4.7-3.1,7.2-3.9C175.4,186.7,175.4,186.8,175.5,186.8z M168.3,190.9c0,0,0.1,0.1,0.2,0.1
	l-0.1,0.1c0,0-0.1-0.1-0.2-0.1L168.3,190.9L168.3,190.9z M168.3,191.4c2.2,1.6,4.6,2.8,7.2,3.7c0,0.1-0.1,0.1-0.1,0.2
	c-2.6-0.9-5-2.1-7.2-3.8L168.3,191.4z M173.4,204h0.2v0.1L173.4,204L173.4,204z M173.5,203.8c0,0,0-0.1,0-0.2h0.2v0.2h0L173.5,203.8
	L173.5,203.8z M173.5,203.4c0.4-2.7,1.2-5.2,2.4-7.7h0l0.1,0.1c-1.2,2.4-2,5-2.4,7.6L173.5,203.4L173.5,203.4z M173.8,204
	c2.7-0.4,5.3-1.2,7.7-2.4l0.1,0.2C179.3,202.9,176.7,203.7,173.8,204L173.8,204L173.8,204z M181.6,200.9c-0.4-1.4-0.7-2.9-0.9-4.3v0
	v0h-0.1l0,0c-1.4-0.2-2.8-0.4-4.2-0.8c0-0.1,0.1-0.1,0.1-0.2c1.4,0.4,2.8,0.7,4.3,0.9c0.2,1.5,0.5,3,0.9,4.5
	C181.7,200.8,181.7,200.9,181.6,200.9L181.6,200.9z M181.9,201l0.1,0.2c0,0-0.1,0.1-0.2,0.1l-0.1-0.2
	C181.7,201.1,181.8,201,181.9,201z M182,201.4l0.1,0.2c0,0-0.1,0.1-0.2,0.1c0-0.1,0-0.1-0.1-0.2C181.9,201.5,181.9,201.4,182,201.4z
	 M182.1,201.8c0.9,2.6,2.1,4.9,3.7,7.1c0,0.1-0.1,0.1-0.1,0.2c-1.7-2.2-2.9-4.6-3.8-7.2C182,201.8,182,201.8,182.1,201.8z
	 M186,209.7L186,209.7c-2.1,2.6-4.1,4.1-4.1,4.1l-0.1,0.1l0.1,0.1c0,0,1,0.6,2.5,1c0.5,0.1,1.1,0.2,1.7,0.2c1.5,0,3-0.4,4.4-1.1
	l0.2-0.1l-0.2-0.1c0,0-1.7-1.2-3.7-3.4c0,0,0,0,0,0c-0.2-0.2-0.3-0.4-0.5-0.6c0-0.1,0.1-0.1,0.1-0.2l0.1,0.2c2,2.5,3.9,3.9,4.5,4.3
	c-2.8,1.5-5.3,1.4-6.9,1c-1.4-0.3-2.4-0.8-2.7-1C182,213.7,183.9,212.2,186,209.7L186,209.7z M186.5,209.1l-0.1,0.1l0-0.1
	L186.5,209.1L186.5,209.1L186.5,209.1z M186.5,208.7c0,0-0.1-0.1-0.1-0.2c0.2-0.3,0.4-0.5,0.6-0.8c0,0,0,0,0,0l0.1-0.1c0,0,0,0,0,0
	c0,0,0-0.1,0-0.1c1.3-1.9,2.2-3.9,2.9-6c0.1,0,0.1,0.1,0.2,0.1C189.4,204.2,188.1,206.5,186.5,208.7L186.5,208.7z M190.4,201.7
	l0.1,0.1h0c-0.8,2.5-2.2,4.9-3.9,7.2l0-0.1C188.3,206.7,189.6,204.3,190.4,201.7L190.4,201.7z M190.5,201.5c0,0,0.1-0.2,0.1-0.2
	c0.1,0,0.1,0.1,0.2,0.1c0,0.1-0.1,0.2-0.1,0.2L190.5,201.5z M190.6,201.1c0,0,0-0.1,0-0.1c0,0,0.1,0.1,0.2,0.1v0.1l0,0.1
	L190.6,201.1L190.6,201.1z M190.7,200.7c0.4-1.4,0.7-2.9,0.8-4.4c1.5-0.2,2.9-0.5,4.4-0.9c0,0.1,0.1,0.1,0.1,0.2
	c-1.4,0.4-2.8,0.7-4.3,0.8c0,0,0,0,0,0h0c0,0-0.1,0.1-0.1,0.1c-0.1,1.4-0.3,2.8-0.7,4.3C190.8,200.8,190.8,200.7,190.7,200.7
	L190.7,200.7z M190.9,201.5c2.4,1.2,5,2,7.7,2.4v0.2c-2.7-0.4-5.3-1.2-7.8-2.4C190.9,201.6,190.9,201.5,190.9,201.5z M198.6,202.3
	C198.6,202.3,198.6,202.3,198.6,202.3v-0.2c0,0,0,0,0-0.1c0,0,0-0.1,0-0.1c-0.4-2.2-1.2-4.3-2.2-6.3c0.1,0,0.1,0,0.2-0.1
	c1.2,2.4,2,4.9,2.4,7.7c-0.1,0-0.1,0-0.2,0C198.7,202.9,198.6,202.6,198.6,202.3L198.6,202.3z M198.9,203.5L198.9,203.5l0.1,0.2
	c0,0-0.1,0-0.2,0L198.9,203.5L198.9,203.5L198.9,203.5z M199,204c0,0,0,0.1,0,0.2h-0.2v-0.2C198.8,203.9,198.9,204,199,204L199,204z
	 M196.9,195.1c2.6-0.9,4.9-2.1,7.1-3.7c0.1,0,0.1,0.1,0.2,0.1c-2.2,1.6-4.6,2.9-7.2,3.8C197,195.2,196.9,195.1,196.9,195.1
	L196.9,195.1z M204,191.1c0,0-0.1-0.1-0.1-0.1c0.1-0.1,0.1-0.1,0.2-0.1l0.1,0l0.1,0.1C204.2,191,204.1,191.1,204,191.1L204,191.1z
	 M204.4,191.1L204.4,191.1l0.2,0.1c0,0-0.1,0.1-0.2,0.1c-0.1,0-0.1-0.1-0.2-0.1C204.3,191.2,204.3,191.2,204.4,191.1z M204.4,190.9
	l-0.1-0.1h0l0.1-0.1L204.4,190.9L204.4,190.9L204.4,190.9z M205.8,180.7c0,0.6,0.1,1.3,0.3,1.9l-9,3.8c1.1-2.3,1.9-4.9,2.2-7.7
	c0.2,0,0.4-0.1,0.6-0.1c3.3-0.3,5.8,0.1,6.3,0.2C206,179.4,205.9,180.1,205.8,180.7L205.8,180.7z M201.9,172.2
	c1.6,1,3.7,2.9,4.4,6.5c-0.4-0.1-1.9-0.3-3.9-0.3c-0.8,0-1.6,0-2.5,0.1c-0.2,0-0.4,0-0.6,0.1v-0.2c0.1,0,0.2,0,0.3,0
	c3.6-0.4,6.1,0.1,6.2,0.2l0.2,0l-0.1-0.2c-1-3.2-2.8-5-4.3-5.9c-1.5-1-2.8-1.3-2.9-1.3l-0.2,0l0,0.2c0,0,0.5,2.8,0.2,6.5l-0.2,0.1
	c0-0.2,0-0.3,0-0.4c0.3-3.3-0.1-5.8-0.3-6.5C199.1,171,200.5,171.3,201.9,172.2L201.9,172.2z M196.3,171.4c0.7,0,1.4-0.2,2.1-0.4
	c0.1,0.7,0.5,3.2,0.3,6.4c0,0.1,0,0.3-0.1,0.4c-2.7,0.4-5.3,1.2-7.7,2.3l3.7-9.1C195.1,171.3,195.7,171.4,196.3,171.4L196.3,171.4z
	 M192.8,169.9c0.4,0.5,1,0.8,1.6,1.1l-3.7,9.1c-0.9-2.5-2.2-4.8-3.9-7.1c0.1-0.2,0.3-0.3,0.4-0.5c2.1-2.6,4.1-4,4.6-4.3
	C192,168.8,192.3,169.4,192.8,169.9L192.8,169.9z M183.9,166.6c1.8-0.4,4.7-0.6,7.7,1.4c-0.6,0.4-2.6,1.8-4.6,4.3
	c-0.1,0.2-0.3,0.3-0.4,0.5l-0.1-0.2c0.1-0.1,0.1-0.2,0.2-0.3c2.3-2.9,4.5-4.3,4.5-4.3l0.2-0.1l-0.2-0.1c-2.9-1.6-5.5-1.5-7.2-1.1
	c-1.8,0.4-2.9,1.1-2.9,1.1L181,168l0.1,0.1c0.1,0.1,2.3,1.6,4.7,4.5l-0.1,0.1c-0.1-0.1-0.2-0.2-0.3-0.3c-2.2-2.6-4.3-4-4.8-4.3
	C181.1,167.8,182.3,167,183.9,166.6L183.9,166.6z M180.6,168.2c0.5,0.3,2.6,1.7,4.8,4.3c0.1,0.1,0.2,0.2,0.3,0.3
	c-1.6,2.2-2.9,4.6-3.8,7.1l-3.9-8.9C179.1,170.5,180.1,169.4,180.6,168.2L180.6,168.2z M174,171c0.6,0.3,1.2,0.5,1.8,0.5
	c0.1,0,0.1,0,0.2,0c0.6,0,1.2-0.1,1.8-0.4l3.9,8.9c-2.4-1.1-5-1.8-7.8-2.2c0-0.2-0.1-0.4-0.1-0.6C173.4,174,173.8,171.6,174,171z
	 M167.3,175.4c1-1.6,2.9-3.7,6.5-4.4c-0.1,0.7-0.5,3.1-0.2,6.3c0,0.2,0,0.3,0.1,0.6h-0.2c0-0.1,0-0.2,0-0.3
	c-0.4-3.6,0.2-6.2,0.2-6.2l0-0.2l-0.2,0.1c-3.2,1-5,2.8-5.9,4.3c-1,1.5-1.3,2.9-1.3,2.9l0,0.2l0.2,0c0.1,0,2.7-0.5,6.5-0.2v0l0,0.2
	c-0.1,0-0.2,0-0.3,0c-3.3-0.3-5.8,0.1-6.5,0.2C166.1,178.1,166.4,176.8,167.3,175.4L167.3,175.4z M166,178.9
	c0.5-0.1,3.1-0.5,6.5-0.2c0.1,0,0.3,0,0.4,0c0.4,2.7,1.2,5.3,2.4,7.7l-9.1-3.6C166.6,181.5,166.6,180,166,178.9L166,178.9z
	 M165,184.5c0.5-0.4,0.8-1,1.1-1.6l9,3.6c-2.5,0.9-4.8,2.2-7.1,3.9c-0.2-0.1-0.3-0.3-0.5-0.4c-2.6-2.1-4-4.2-4.3-4.6
	C163.9,185.3,164.5,184.9,165,184.5L165,184.5z M168,191.1c0,0,0.1,0.1,0.2,0.1l-0.2,0.1c0,0-0.1-0.1-0.2-0.1
	C167.9,191.2,167.9,191.2,168,191.1L168,191.1z M167.9,190.8c0,0,0.1-0.1,0.1-0.1l0.1,0.1L167.9,190.8L167.9,190.8L167.9,190.8z
	 M163.1,196.5c-0.3-0.4-1-1.6-1.4-3.2c-0.4-1.8-0.6-4.7,1.4-7.7c0.4,0.6,1.8,2.6,4.3,4.6c0.1,0.1,0.3,0.2,0.4,0.3l-0.1,0.1
	c0,0-0.2-0.1-0.2-0.2c-2.9-2.3-4.3-4.5-4.3-4.5l-0.1-0.2l-0.1,0.2c-1.6,2.9-1.5,5.5-1.1,7.2c0.4,1.8,1.1,2.9,1.1,2.9l0.1,0.1
	l0.1-0.1c0,0,1.5-2.3,4.5-4.7c0.1,0.1,0.1,0.1,0.2,0.1c-0.1,0.1-0.2,0.1-0.2,0.2C165,193.9,163.4,196,163.1,196.5L163.1,196.5z
	 M167.8,191l-0.1,0.1h-0.1l-0.1,0C167.6,191.1,167.7,191,167.8,191L167.8,191L167.8,191z M163.8,191c0-0.9,0.3-1.8,0.9-2.4l0,0
	c-0.2,0.3-0.4,0.5-0.5,0.9c0,0,0,0,0,0.1c-0.3,0.6-0.3,1.3-0.2,2c0,0,0,0,0,0.1c0.1,0.3,0.1,0.6,0.2,0.9c0,0,0,0.1,0,0.1
	c0,0,0.1,0.1,0.1,0.1c0,0,0,0,0,0c0.1,0.3,0.3,0.5,0.5,0.7l-0.1,0.1C164.1,192.9,163.7,192,163.8,191L163.8,191z M164.5,193.6
	c-0.7,0.7-1.1,1.2-1.3,1.5c-0.2-0.3-0.6-1.1-0.8-2.3c-0.3-1.3-0.3-3.4,0.9-5.8c0.2,0.3,0.6,0.8,1.2,1.4c-0.6,0.7-0.9,1.6-0.9,2.6
	C163.5,192.1,163.9,193,164.5,193.6L164.5,193.6z M166.3,191.3L166.3,191.3c-0.1,0-0.1-0.1-0.1-0.2c0-0.1,0-0.2,0.1-0.3h0.1
	c-0.1,0.1-0.1,0.2-0.1,0.3C166.3,191.1,166.3,191.2,166.3,191.3z M166.3,190.7c0.1-0.1,0.1-0.2,0.2-0.3l0.1,0h0
	C166.5,190.6,166.4,190.7,166.3,190.7L166.3,190.7L166.3,190.7z M166.3,190.4c-1-0.3-1.6-0.9-1.8-1.1c0.1-0.2,0.2-0.4,0.4-0.5
	c0.5,0.5,1,1,1.5,1.5C166.3,190.3,166.3,190.4,166.3,190.4L166.3,190.4z M165.7,191.4c-0.7,0.3-1.3,0.7-1.5,0.9
	c-0.1-0.1-0.1-0.3-0.1-0.4C164.3,191.7,164.9,191.5,165.7,191.4z M164.1,191.4c0-0.3,0-0.5,0-0.8c0.2,0.1,0.7,0.3,1.4,0.4
	C164.8,191.1,164.3,191.3,164.1,191.4z M164.1,190.2c0-0.2,0.1-0.3,0.1-0.4c0.2,0.2,0.7,0.6,1.5,0.9
	C164.9,190.6,164.3,190.3,164.1,190.2L164.1,190.2z M164.4,192.7c0.2-0.2,0.8-0.7,1.8-1c0.1,0.1,0.1,0.1,0.2,0.2
	c-0.5,0.5-1,1-1.5,1.5C164.7,193.1,164.6,192.9,164.4,192.7L164.4,192.7z M166.3,191.3L166.3,191.3c0.1,0.1,0.2,0.3,0.3,0.3l-0.1,0
	C166.5,191.7,166.4,191.5,166.3,191.3z M166.5,191.1c0-0.1,0.1-0.3,0.2-0.4c0.2,0.2,0.3,0.3,0.5,0.4c-0.2,0.1-0.3,0.3-0.5,0.4
	C166.7,191.4,166.5,191.3,166.5,191.1z M163.4,186.7l-0.1-0.2l-0.1,0.2c-1.3,2.5-1.3,4.7-1,6.1c0.3,1.5,0.9,2.5,1,2.5l0.1,0.1
	l0.1-0.1c0,0,0.6-0.8,1.6-1.8c0,0,0,0,0,0c0,0,0,0,0,0c0.6-0.6,1.2-1.2,1.8-1.7c0,0,0,0,0.1,0c0.2-0.2,0.4-0.3,0.6-0.5l0.1,0.1
	c-2.5,2-4,4-4.4,4.6c-0.2-0.3-0.7-1.3-1-2.7c-0.3-1.6-0.4-4.1,1-6.9c0.4,0.6,1.8,2.4,4.2,4.4c0.1,0.1,0.1,0.1,0.2,0.2l-0.1,0
	l-0.1,0.1C164.8,188.8,163.4,186.7,163.4,186.7L163.4,186.7z M163.3,196.6c0.3-0.5,1.8-2.6,4.4-4.7c0.1-0.1,0.2-0.2,0.3-0.2
	c2.2,1.7,4.6,2.9,7.3,3.8l-9.1,3.8C165.6,198.1,164.5,197,163.3,196.6L163.3,196.6z M166.6,201.4c0-0.6-0.1-1.3-0.3-1.9l9-3.8
	c-1.2,2.4-2,5-2.3,7.7c-0.1,0-0.3,0-0.4,0c-3.2,0.3-5.7-0.1-6.4-0.2C166.4,202.7,166.6,202,166.6,201.4L166.6,201.4z M167.3,206.7
	c-0.9-1.5-1.2-2.8-1.3-3.3c0.7,0.2,3.2,0.6,6.5,0.3c0.1,0,0.2,0,0.4,0v0.2c-3.8,0.4-6.5-0.2-6.5-0.2l-0.2,0l0,0.2
	c0,0,0.3,1.4,1.3,2.9c0.9,1.4,2.7,3.3,5.9,4.3l0.2,0.1l0-0.2c0,0-0.5-2.6-0.2-6.3l0-0.3h0.2c0,0.2,0,0.3-0.1,0.5
	c-0.3,3.3,0.1,5.7,0.2,6.4C170.2,210.4,168.3,208.3,167.3,206.7L167.3,206.7z M174,211.2c-0.1-0.5-0.6-3-0.3-6.4
	c0-0.2,0-0.4,0.1-0.5c2.8-0.4,5.4-1.1,7.7-2.2l-3.6,9C176.6,210.6,175.1,210.6,174,211.2L174,211.2z M179.7,212.2
	c-0.4-0.5-1-0.8-1.6-1.1l3.6-9.1c0.9,2.6,2.2,5,3.8,7.2c-0.1,0.1-0.2,0.2-0.3,0.3c-2.1,2.5-4.1,3.9-4.7,4.3
	C180.4,213.2,180.1,212.7,179.7,212.2L179.7,212.2z M183.9,215.5c-1.7-0.4-2.9-1.2-3.2-1.4c0.5-0.3,2.6-1.8,4.8-4.4
	c0.1-0.1,0.2-0.2,0.2-0.3c0,0.1,0.1,0.1,0.1,0.2c-2.4,2.9-4.6,4.4-4.7,4.5l-0.1,0.1l0.1,0.1c0,0,1.1,0.8,3,1.1
	c0.7,0.1,1.3,0.2,2,0.2c1.8,0,3.5-0.5,5.2-1.4l0.2-0.1l-0.2-0.1c0,0-2.2-1.5-4.6-4.3l-0.2-0.2l0.1-0.2c0.1,0.1,0.2,0.3,0.3,0.4
	c2.1,2.5,4.1,3.9,4.7,4.3C188.6,216,185.8,215.9,183.9,215.5z M191.8,213.9c-0.5-0.3-2.5-1.7-4.7-4.3c-0.1-0.1-0.2-0.3-0.3-0.4
	c1.7-2.2,3.1-4.6,3.9-7l3.8,9C193.2,211.6,192.3,212.6,191.8,213.9L191.8,213.9z M198.4,211.1c-0.6-0.3-1.2-0.5-1.9-0.5
	c-0.1,0-0.1,0-0.2,0c-0.6,0-1.2,0.1-1.7,0.4l-3.8-9.1c2.5,1.2,5.1,2,7.8,2.4c0,0.1,0,0.3,0,0.4C199,208.1,198.5,210.6,198.4,211.1
	L198.4,211.1z M201.9,209.9c-1.5,0.9-2.8,1.2-3.3,1.3c0.2-0.7,0.6-3.2,0.3-6.5c0-0.1,0-0.2,0-0.4h0.2c0.4,3.8-0.2,6.5-0.2,6.5l0,0.2
	l0.2,0c0,0,1.4-0.3,2.9-1.3c1.4-0.9,3.3-2.7,4.3-5.9l0.1-0.2l-0.2,0c0,0-2.5,0.6-6.2,0.2c-0.1,0-0.2,0-0.3,0v-0.2
	c0.2,0,0.4,0.1,0.5,0.1c3.2,0.3,5.6-0.1,6.3-0.2C205.6,207,203.5,208.9,201.9,209.9L201.9,209.9z M206.4,203.2
	c-0.5,0.1-3,0.6-6.3,0.3c-0.2,0-0.4,0-0.6-0.1c-0.4-2.8-1.1-5.3-2.2-7.6l9,3.6C205.8,200.6,205.8,202,206.4,203.2z M207.4,197.6
	c-0.5,0.4-0.8,1-1.1,1.6l-9.2-3.7c2.6-0.9,5-2.2,7.2-3.8c0.1,0.1,0.2,0.2,0.3,0.3c2.5,2.1,4,4.1,4.4,4.7
	C208.4,196.8,207.8,197.1,207.4,197.6L207.4,197.6z M210.6,193.3c-0.4,1.7-1.2,2.9-1.4,3.2c-0.4-0.6-1.9-2.6-4.4-4.7
	c-0.1-0.1-0.2-0.2-0.3-0.3c0.1,0,0.1-0.1,0.2-0.1h0c2.9,2.3,4.4,4.6,4.5,4.7l0.1,0.1l0.1-0.1c0,0,0.8-1.1,1.1-3
	c0.3-1.7,0.4-4.3-1.1-7.2l-0.1-0.2l-0.1,0.2c0,0-1.4,2.2-4.3,4.5c-0.1,0.1-0.2,0.1-0.3,0.2l-0.1-0.1c0.2-0.1,0.3-0.2,0.4-0.4
	c2.6-2.1,4-4.2,4.3-4.6C211.2,188.6,211.1,191.4,210.6,193.3L210.6,193.3z M204.5,191L204.5,191l0.2,0.1l-0.1,0l0,0L204.5,191z
	 M208.6,191c0,1-0.3,1.8-0.9,2.4l-0.1-0.1c0.2-0.2,0.4-0.5,0.5-0.7c0-0.1,0.1-0.1,0.1-0.2c0,0,0-0.1,0-0.1
	C208.4,192,208.5,191.5,208.6,191c-0.1-0.5-0.2-1.1-0.3-1.5c-0.1-0.3-0.3-0.6-0.6-0.9l0.1-0.1C208.3,189.2,208.6,190.1,208.6,191
	L208.6,191z M207.9,188.4c0.6-0.7,1-1.2,1.2-1.4c1.2,2.3,1.1,4.4,0.9,5.8c-0.2,1.2-0.7,2-0.8,2.3c-0.2-0.3-0.6-0.8-1.3-1.4
	c0.6-0.7,1-1.6,1-2.6C208.8,190,208.5,189.1,207.9,188.4L207.9,188.4z M206,190.8h0.1c0,0,0.1,0.2,0.1,0.3c0,0.1,0,0.1,0,0.2H206
	c0,0,0-0.1,0-0.2C206,191,206,190.9,206,190.8z M206,191.3L206,191.3c0,0.2-0.1,0.3-0.2,0.4l-0.1,0
	C205.8,191.6,205.9,191.4,206,191.3z M206.1,191.6c1,0.3,1.6,0.9,1.8,1c-0.1,0.2-0.3,0.4-0.4,0.6c-0.5-0.5-1-1-1.5-1.5
	C206,191.8,206.1,191.7,206.1,191.6L206.1,191.6z M206.9,191c0.7-0.1,1.2-0.3,1.4-0.4c0,0.1,0,0.3,0,0.4c0,0.1,0,0.2,0,0.4
	C208.1,191.3,207.6,191.1,206.9,191z M208.2,191.8c0,0.2-0.1,0.3-0.1,0.4c-0.2-0.2-0.7-0.6-1.5-0.9
	C207.5,191.5,208.1,191.7,208.2,191.8z M206.6,190.7c0.7-0.3,1.3-0.7,1.5-0.9c0.1,0.2,0.1,0.3,0.1,0.4
	C208.1,190.3,207.5,190.6,206.6,190.7L206.6,190.7z M207.9,189.4c-0.2,0.2-0.9,0.8-1.8,1.1c0,0-0.1-0.1-0.1-0.1c0.5-0.5,1-1,1.5-1.5
	C207.7,189,207.8,189.2,207.9,189.4L207.9,189.4z M206,190.7L206,190.7c-0.1,0-0.2-0.1-0.3-0.2l0.1-0.1
	C205.9,190.5,206,190.6,206,190.7L206,190.7z M205.8,191.1c0,0.2-0.2,0.3-0.2,0.4c-0.2-0.2-0.3-0.3-0.5-0.4c0.2-0.1,0.3-0.3,0.5-0.4
	C205.8,190.8,205.8,190.9,205.8,191.1z M209,195.4l0.1,0.1l0.1-0.1c0,0,0.7-1,1-2.5c0.3-1.4,0.3-3.6-1-6.1l-0.1-0.2l-0.1,0.2
	c0,0-1.4,2-4,4.2c-0.1,0-0.1-0.1-0.2-0.1c0.1-0.1,0.2-0.1,0.2-0.2c2.4-2,3.8-3.8,4.2-4.4c1.5,2.8,1.4,5.3,1,6.9
	c-0.3,1.4-0.8,2.4-1,2.7c-0.4-0.6-1.9-2.6-4.4-4.6l0.1,0C207.5,193.4,209,195.4,209,195.4L209,195.4z"/>
</svg>
