<svg xmlns="http://www.w3.org/2000/svg" viewBox="0 0 442.91 33.93"><defs><style>.cls-1{fill:#fff;}</style></defs><g id="圖層_2" data-name="圖層 2"><g id="圖層_1-2" data-name="圖層 1"><path class="cls-1" d="M16.93,18.88c-2.44.81-5,1.59-7.67,2.25v9.66c0,1.59-.89,2.4-2.59,2.4h-4l-.14-.77c1.32,0,2.61.07,3.87.07s2-.62,2-1.88V21.32C5.79,22,3,22.53.11,23L0,22.24c3-.48,5.79-1,8.45-1.7V12H.15v-.78h8.3V3.91c-2.22.48-4.58.88-7,1.18l-.15-.81A60.6,60.6,0,0,0,15.6,1l.26.77a59.29,59.29,0,0,1-6.6,2v7.44H20.17Q19.8,6.37,19.8.44h.78c0,4.06.11,7.64.37,10.73h12V12H21a55.54,55.54,0,0,0,1.15,7.89,38.36,38.36,0,0,0,1.14,4.06,36.41,36.41,0,0,0,5.86-8.85l.7.37a36.14,36.14,0,0,1-6.27,9.29,23.18,23.18,0,0,0,2.29,4.57c1.4,2,2.62,3,3.58,3,1.21-.08,2.21-2.47,3-7.27l.66.37c-.81,5.13-2,7.71-3.5,7.71-1.33,0-2.77-1.14-4.39-3.39A22.9,22.9,0,0,1,23,25.3a30.41,30.41,0,0,1-10.1,6.6l-.41-.7a28.4,28.4,0,0,0,10.22-6.67,40.94,40.94,0,0,1-1.37-4.69A54.77,54.77,0,0,1,20.25,12h-11v8.41a76.73,76.73,0,0,0,7.67-2.29ZM31.5,6.93l-.56.56a53.13,53.13,0,0,0-6.86-6L24.64,1A45.23,45.23,0,0,1,31.5,6.93Zm5.86,11.44v-.78H69.55v.78H54.21v5.86H65.57V25H54.21V32a69.23,69.23,0,0,0,7.38.36c3,0,5.56,0,7.63-.11l-.22.85c-2.73,0-5.2,0-7.34,0-6,0-10.07-.51-12.1-1.47s-4-3-5.6-6.05a23.18,23.18,0,0,1-5.79,7.86l-.56-.56a22.64,22.64,0,0,0,7.23-12.28l.78.15a32.2,32.2,0,0,1-1.33,4.06q2.49,4.92,5.83,6.3a16.52,16.52,0,0,0,3.32.82V18.37Zm27-16.45V13.68H42.92V1.92Zm-.81,5.57V2.69H43.7v4.8Zm0,.81H43.7v4.61H63.58ZM75.3,3.91,85.18,29.5h.08L95.14,3.91h1.07L85.89,30.24H84.56L74.23,3.91Zm27.14,0V30.24h-.88V3.91Zm6.42,0,9.88,25.59h.07L128.7,3.91h1.07L119.44,30.24h-1.33L107.79,3.91Zm27.14,0V30.24h-.89V3.91ZM169.89,0l-13.5,33.93h-1L168.93,0ZM203,18.88c-2.43.81-5,1.59-7.67,2.25v9.66c0,1.59-.89,2.4-2.58,2.4h-4l-.14-.77c1.32,0,2.62.07,3.87.07s2-.62,2-1.88V21.32c-2.66.66-5.42,1.21-8.34,1.69l-.11-.77c3-.48,5.79-1,8.45-1.7V12h-8.3v-.78h8.3V3.91c-2.22.48-4.58.88-7.05,1.18l-.14-.81A60.62,60.62,0,0,0,201.67,1l.26.77a59.29,59.29,0,0,1-6.6,2v7.44h10.92C206,8,205.88,4.39,205.88.44h.77c0,4.06.11,7.64.37,10.73H219V12H207.09a55.54,55.54,0,0,0,1.15,7.89,38.36,38.36,0,0,0,1.14,4.06,36.13,36.13,0,0,0,5.86-8.85l.71.37a36.65,36.65,0,0,1-6.27,9.29A22.64,22.64,0,0,0,212,29.28c1.4,2,2.62,3,3.58,3,1.22-.08,2.21-2.47,3-7.27l.66.37c-.81,5.13-2,7.71-3.5,7.71-1.33,0-2.77-1.14-4.39-3.39a22.33,22.33,0,0,1-2.21-4.43A30.55,30.55,0,0,1,199,31.9l-.41-.7a28.4,28.4,0,0,0,10.22-6.67,41,41,0,0,1-1.36-4.69A53.31,53.31,0,0,1,206.32,12h-11v8.41A76.73,76.73,0,0,0,203,18.07ZM217.57,6.93l-.56.56a53.65,53.65,0,0,0-6.85-6l.55-.51A45.23,45.23,0,0,1,217.57,6.93ZM232.5.7a48,48,0,0,1-3.76,8.37V33.78h-.81V10.44a45.51,45.51,0,0,1-5,6.38l-.22-.78a41.79,41.79,0,0,0,9-15.67Zm22.72,6.6v.81H244.71V19h9.48v.77h-9.48V31.57h11.21v.81H232.68v-.81H243.9V19.8h-9.44V19h9.44V8.11H233.38V7.3ZM244.89,5.57l-.77.29A37.38,37.38,0,0,0,241.9.59l.82-.22A44.71,44.71,0,0,1,244.89,5.57Zm37.54-1.66v.88H272.1V30.24h-.88V4.79H260.86V3.91Zm6.23,0V16.08H307V3.91h.89V30.24H307V17H288.66V30.24h-.89V3.91Zm44.69,0v.88H316.13V16.08h16.38V17H316.13v12.4H334v.88H315.25V3.91Zm19.51,0,9.88,25.59h.08L372.7,3.91h1.07L363.44,30.24h-1.32L351.79,3.91Zm27.14,0V30.24h-.89V3.91Zm26,0v.88H388.81V16.08h16.38V17H388.81v12.4h17.85v.88H387.93V3.91Zm5.3,0,7.19,25.48h.11L426,3.91h1.36l7.3,25.48h.11l7.2-25.48h1l-7.56,26.33H434L426.68,4.83h-.11l-7.34,25.41h-1.32L410.35,3.91Z"/></g></g></svg>