<svg xmlns="http://www.w3.org/2000/svg" viewBox="0 0 166.27 16.36"><defs><style>.cls-1{fill:#fff;}</style></defs><g id="圖層_2" data-name="圖層 2"><g id="圖層_1-2" data-name="圖層 1"><path class="cls-1" d="M8.28,1.7h7.13V2.87H0V1.7H6.94V0H8.28Zm6.45,7v6.11A1.34,1.34,0,0,1,14.19,16a.76.76,0,0,1-.18.09,13.47,13.47,0,0,1-3,.19,5,5,0,0,0-.42-1.24,23.25,23.25,0,0,0,2.46,0c.22-.06.35-.17.37-.33v-5H2v6.57H.79V8.65ZM2.94,3.86h9.55V7.51H2.94Zm8.24,2.69V4.81h-7V6.55ZM11.1,14.7H5.5v.89H4.32V10.92H11.1ZM9.91,11.88H5.5V13.7H9.91ZM36.13,4.33H33.3l1,.32-.34.45c-.11.15-.22.3-.34.44H36.1v4.68H25V5.54h2.6a6.75,6.75,0,0,0-.64-.89l.82-.32H24V5.92c0,.75,0,1.57-.07,2.47s-.14,1.8-.28,2.71a19.8,19.8,0,0,1-.6,2.69A10.38,10.38,0,0,1,22,16.21a3.17,3.17,0,0,0-.55-.39,4.59,4.59,0,0,0-.62-.29,9.36,9.36,0,0,0,1-2.28,17.07,17.07,0,0,0,.55-2.51,24.18,24.18,0,0,0,.24-2.51c0-.83.05-1.6.05-2.31V.7H36.13ZM34.79,1.78H24V3.25H34.79Zm-9,9.25h9.66v5.24H34.1v-.54h-7v.57H25.77Zm.42-1.66h3.63v-3H26.19Zm1.59-2.68a8.23,8.23,0,0,1,.74.95,7.13,7.13,0,0,1,.55.92l-.85.49a7.93,7.93,0,0,0-.55-.94,8.58,8.58,0,0,0-.73-1Zm-.72,5.24v1h7v-1Zm7,2.9v-1h-7v1ZM32.27,5.54c.16-.2.31-.4.45-.61a4.85,4.85,0,0,0,.35-.6H28l.45.6a4.52,4.52,0,0,1,.37.61Zm2.53.84H31.08v3H34.8ZM31.85,8.63a4.19,4.19,0,0,0,.32-.44l.34-.52c.11-.17.21-.35.31-.52s.18-.34.25-.48l.88.46c-.21.36-.44.71-.68,1s-.45.63-.65.87Zm15.08,4.25,1.22.49A19.17,19.17,0,0,1,43.52,16a6.08,6.08,0,0,0-1-.94A16.08,16.08,0,0,0,46.93,12.88ZM58.46,6.73V7.81H42.77V6.73H50V5.61h-5.1v-5h11.6v5H51.28V6.73ZM56.1,12.49H51.31v2.57c0,.55-.17.89-.5,1a.45.45,0,0,1-.18.07,10.89,10.89,0,0,1-2.6.18,4.39,4.39,0,0,0-.39-1.09c.61,0,1.29,0,2,0,.18-.06.28-.15.29-.26V12.49H45.27V8.75H56.1Zm-10-10.94V2.69h9V1.55Zm0,2V4.7h9V3.56Zm.4,6.17V11.5h8.27V9.73Zm6.4,3.86.86-.75a24.14,24.14,0,0,1,4.64,2.27l.07.06-.92.82a21.33,21.33,0,0,0-4.32-2.26A2.52,2.52,0,0,1,52.92,13.59Zm25.24,1.35H79c.16,0,.26-.12.31-.37a11.51,11.51,0,0,0,.12-2,4.89,4.89,0,0,0,1,.45c0,1.5-.24,2.42-.58,2.74a1.14,1.14,0,0,1-.73.23H78c-.62,0-1-.17-1.15-.52a2.73,2.73,0,0,1-.14-1V10.61H75.51a8.32,8.32,0,0,1-1.12,4.14,5.09,5.09,0,0,1-2.11,1.59,3.86,3.86,0,0,0-.76-1l.13-.07H66.32v.87h-1.1V10.8a12,12,0,0,1-.86,1.1,5.16,5.16,0,0,0-.72-.89A10.34,10.34,0,0,0,66,7H64.55V3.72H68V7H66.39l.64.19c-.11.32-.29.74-.52,1.28h2c.3-.82.47-1.31.52-1.47h-.24V3.72h3.54V7H69.15l1,.26s-.2.44-.58,1.21H72.4v1H69.32v1H72v.87H69.32v1.07H72v.89H69.32v1h3.13v.55a3.83,3.83,0,0,0,1.73-2.72,14.3,14.3,0,0,0,.18-1.57H73.22V.7h6.32v9.91H77.85v3.88c0,.26.05.41.14.43ZM66.06,3.34V2.18h-2v-1h2V.05h1.15V1.22h2.37V.05h1.14V1.22h1.87v1H70.72V3.34H69.58V2.18H67.21V3.34ZM65.5,4.61V6.12H67V4.61Zm2.72,5.86v-1h-1.9v1Zm0,1.94V11.34h-1.9v1.07Zm-1.9.89v1h1.9v-1Zm3.39-8.69V6.12h1.6V4.61Zm4.66-2.74v1.8h4V1.87Zm0,2.87v1.8h4V4.74Zm0,2.86V9.44h4V7.6Zm24.48,5.07A10,10,0,0,0,102,15.22a3.87,3.87,0,0,0-.89,1,10.58,10.58,0,0,1-3-2.59,11.62,11.62,0,0,1-3.14,2.59,3.82,3.82,0,0,0-.79-1s-.06,0-.07-.06a10.52,10.52,0,0,0,3.23-2.62,19,19,0,0,1-2.42-5.71v.21c0,4.23-.79,7.3-2.33,9.23a3.62,3.62,0,0,0-1-.76h-.06a6.77,6.77,0,0,0,.68-1l0-.07-.91.41c0-.19-.15-.53-.31-1l-5.28,1.75-.44-1.24c.61-.16,1-.28,1.23-.35V4.66c-.2.19-.4.37-.6.53a3.38,3.38,0,0,0-.75-.89A10.49,10.49,0,0,0,88.59.19L88.68,0h1.21a23.45,23.45,0,0,1,2.9,3.11l0,.07-.89.85A23,23,0,0,0,89.45,1.1a19.61,19.61,0,0,1-2.94,3.55h2.4V3H90V4.65h2.1v5.78H87.61V13.7c.84-.2,1.83-.48,3-.84-.24-.52-.5-1.06-.79-1.61l1-.4a17.18,17.18,0,0,1,1.54,3.39l.05-.1a16.41,16.41,0,0,0,1.21-7V.87h7.84V2.13H94.87V5.56h5.57l.26-.06.79.3A17.5,17.5,0,0,1,98.85,12.67ZM91,5.63H87.61V7H91Zm0,3.82V8H87.61V9.45Zm7,2.13a14.83,14.83,0,0,0,2-4.82H96A16.65,16.65,0,0,0,98.06,11.58Zm18.21-9.27h6.83V3.58H109.64V6.92q0,6.26-1.78,9.44a3.87,3.87,0,0,0-1.12-.76q1.58-2.76,1.59-8.49V2.31h6.57V0h1.37ZM116.84,4V6.08h6V7.29h-6V9.84h4.81v6.48H120.3v-.66h-7.72v.7h-1.31V9.84h4.25V4Zm3.46,10.5V11h-7.72v3.42ZM137.16,1.52h6.89V4.77h-1.26V2.69H130.31V4.77h-1.22V1.52h6.76V0h1.31Zm6.15,8.63V15a1.17,1.17,0,0,1-.45,1.09l-.16.07a10.51,10.51,0,0,1-2.39.17,3.54,3.54,0,0,0-.39-1.08c.9,0,1.51,0,1.84,0s.28-.13.29-.27V11.29h-5v1.57l2.1-.09c-.19-.21-.46-.49-.82-.85l.91-.41A9.52,9.52,0,0,1,141.23,14l.13.23-.93.45a4.12,4.12,0,0,0-.47-.84L137,14l-4.82.23L132.06,13c.27,0,.72,0,1.34,0l2.45-.09V11.29h-4.73v5.05h-1.26V10.15h6V9h-4.32V3.77h10.05V9h-4.49v1.13ZM132.72,4.74V5.92h3.13V4.74Zm0,3.33h3.13V6.83h-3.13Zm7.62-2.15V4.74h-3.25V5.92Zm0,2.15V6.83h-3.25V8.07ZM157.55,10h-5.38a15.28,15.28,0,0,1-1.54,6.27,2.53,2.53,0,0,0-.86-.78l-.15-.09a15.75,15.75,0,0,0,1.29-7V1.52l.87.26A25.64,25.64,0,0,0,156.55.23l1.1,1a30.52,30.52,0,0,1-5.43,1.61V4.4h5.33Zm-1.28-4.37h-4.05V7.81c0,.43,0,.75,0,1h4.07Zm10,.46V7.34h-2v9H163v-9h-3.09q-.16,5.88-3,9a3.06,3.06,0,0,0-.88-.84l-.1-.05q2.52-2.69,2.71-7.7c0-.38,0-.77,0-1.19V1.76l1,.28A21.69,21.69,0,0,0,164.73.23l1.19,1a30.07,30.07,0,0,1-6,2V6.05Z"/></g></g></svg>