<svg xmlns="http://www.w3.org/2000/svg" viewBox="0 0 208.25 39.55"><defs><style>.cls-1{fill:#fff;}</style></defs><g id="圖層_2" data-name="圖層 2"><g id="圖層_1-2" data-name="圖層 1"><path class="cls-1" d="M208.25,39.55H0V0H208.25ZM.71,38.85H207.54V.71H.71ZM21.37,21.79v-.91a9.24,9.24,0,0,0-.12-1.71,17.64,17.64,0,0,1,3,.28c.23.05.33.14.33.27s-.2.3-.84.49v1.58h1.5c.6-.66.77-.89,1.41-1.55.87.71,1.14,1,2,1.75.1.08.13.13.13.2s-.08.12-.18.12H23.74v1a9.68,9.68,0,0,1,3.16,1.14,1.74,1.74,0,0,1,.62,1.13,2.83,2.83,0,0,1-.25.92,1.43,1.43,0,0,1-1,.89c-.25,0-.42-.2-.57-.67a6.51,6.51,0,0,0-1.93-3c0,.82,0,3.19.12,7.16V31a.38.38,0,0,1-.27.4,9.51,9.51,0,0,1-1.87.15c-.33,0-.42-.1-.42-.42.09-3.83.12-4,.12-4.55,0-.17,0-.47,0-.81a17.77,17.77,0,0,1-4.69,3.73l-.15-.2a18.73,18.73,0,0,0,3.12-4.15A15.57,15.57,0,0,0,21,22.31H19.1c-.74,0-1.19,0-2.08.1l-.17-.76c.57.07,1.6.14,2.22.14Zm3.88-3.58,1.53-1.63c.69.57,1.41,1.19,2.17,1.83a.35.35,0,0,1,.1.15c0,.1-.1.17-.22.17H18.9c-.54,0-1,0-2,.1L16.75,18a16,16,0,0,0,2.15.17H23A15.93,15.93,0,0,0,24.26,13c2.59.84,3.29,1.14,3.29,1.41s-.23.32-1,.4a25,25,0,0,1-2.91,3.38Zm-.17-5.78a20.72,20.72,0,0,1,1.43-1.6c.91.71,1.18,1,2.1,1.75a.3.3,0,0,1,.15.2.21.21,0,0,1-.2.17H19.44c-.49,0-.94,0-2,.1l-.15-.79a19.7,19.7,0,0,0,2.12.17H21.3v-.67a15.27,15.27,0,0,0-.2-2.66c3.06.19,3.23.22,3.58.47a.26.26,0,0,1,.12.17c0,.17-.27.32-1,.57v2.12Zm-6.16.74a16,16,0,0,1,2.13,1.51,2.3,2.3,0,0,1,.89,1.51A2,2,0,0,1,20.33,18c-.44,0-.59-.22-.64-.91a8.82,8.82,0,0,0-.94-3.76Zm13,4.65c-.05,4.64-.74,7.46-2.47,9.8a13.48,13.48,0,0,1-4.18,3.76L25,31.13a12.18,12.18,0,0,0,3.56-6,32.22,32.22,0,0,0,.76-8.45c0-3.11-.05-4.62-.14-6.1,1.28.64,1.68.84,2.86,1.48a16.42,16.42,0,0,0,4.6-3c2.39,1.45,3.16,2,3.16,2.24s-.22.25-.5.25a6,6,0,0,1-1-.12,34.44,34.44,0,0,1-6.37,1.33c0,.89,0,.89-.05,4.55h4.05c.79-.87,1-1.11,1.78-2,1.11.91,1.43,1.18,2.52,2.17.07.07.1.12.1.15s-.1.15-.2.15h-3v5.11c0,2.87,0,4.05.1,7.86,0,.32-.12.44-.42.51a16.36,16.36,0,0,1-1.75.13c-.5,0-.62-.08-.65-.45.08-2.76.08-2.76.1-8V17.82Zm24.18-3.36,1.18-1.68c.84.76,1.09,1,1.88,1.78.1.12.15.19.15.27s-.1.15-.27.15H55.5v2.07c2.08,1.06,3.11,2.1,3.11,3.09s-.81,2.15-1.53,2.15c-.27,0-.39-.22-.49-1-.35-2.2-.49-2.7-1.09-3.69V18c0,.1,0,1.54,0,12.85,0,.64-.3.77-1.78.77-.79,0-.94-.1-.94-.57.15-3.68.15-4.1.23-7.22l0-3.21A16.74,16.74,0,0,1,49.5,26l-.25-.22A38.35,38.35,0,0,0,52.78,15H51.15a4.75,4.75,0,0,0-1.35.17l-.15-.92a4.46,4.46,0,0,0,1.5.23H53V11.91a22.58,22.58,0,0,0-.15-3l1.76.18c1.55.14,1.88.24,1.88.54s-.18.3-.94.62l0,4.25Zm5.88,2.39a27.24,27.24,0,0,1-1.22,7.93,14.68,14.68,0,0,1-4.57,6.7l-.22-.2a18,18,0,0,0,2.62-6.72c.64-3,.82-5.46.82-10.8,0-2.09,0-3.11-.15-4.59,1.46.72,1.87.94,3.21,1.73h5.8C69,10,69.24,9.69,70,8.82c1.24.92,1.61,1.22,2.75,2.18.12.12.17.2.17.25s-.13.17-.3.17H62.07c0,2.39,0,3.23-.12,4.91h6c.67-.71.89-.91,1.56-1.58.91.7,1.18.89,2,1.58.25.23.33.33.33.45s-.18.35-1,.72C69.81,21.32,69,23,67.53,25.05a11.58,11.58,0,0,0,5.64,2.67V28a3.55,3.55,0,0,0-2,2.52c-.07.22-.15.32-.27.32A6.46,6.46,0,0,1,69.46,30a17,17,0,0,1-3.34-3.31,18.49,18.49,0,0,1-7.9,4.79l-.12-.27a21.18,21.18,0,0,0,6.84-6.3,20.69,20.69,0,0,1-2.17-8.06Zm1.3,0A12.07,12.07,0,0,0,64,19.79a16.3,16.3,0,0,0,1.88,3.54,21.43,21.43,0,0,0,2.25-6.48Zm26.48-2c.59-.74.76-1,1.36-1.68A27.8,27.8,0,0,1,93.14,15c.1.09.13.14.13.22s-.08.12-.23.12H89.29v4.94a24.47,24.47,0,0,0,3.26-1.18l.12.22a28.76,28.76,0,0,1-3.38,2.35v5.43l0,2.17v1.49c0,.34-.07.49-.34.59a5.93,5.93,0,0,1-1.53.17c-.82,0-1-.07-1-.57.1-2.07.15-4.39.15-5.9V23.23c-.77.44-.86.49-2.07,1.11,0,.86-.15,1.13-.38,1.13s-.46-.42-1.53-3.43a30.35,30.35,0,0,0,4-1V15.37H85.19a15.82,15.82,0,0,1-2.6,4.87l-.22-.08a29.09,29.09,0,0,0,1-4.37,34.71,34.71,0,0,0,.42-4.37V10.8c1.44.32,1.86.42,2.87.69a22.81,22.81,0,0,0-.1-2.74c3.63.4,3.83.44,3.83.79s-.27.4-1.06.62v4.69Zm-3.09-2.74-.57.12a24.23,24.23,0,0,1-.69,2.62h1.26Zm5.61,5.36a7.25,7.25,0,0,0-1.43.15l-.18-.87a6.82,6.82,0,0,0,1.61.2h3.83V13.07H93.39a6.55,6.55,0,0,0-1.41.15l-.15-.86a7.15,7.15,0,0,0,1.56.19h2.67V10.88a15.89,15.89,0,0,0-.13-2.06c.72.08,1.29.13,1.66.15,1.9.2,2.25.27,2.25.6s-.23.34-1,.61v2.37h1.93c.71-.86.71-.86,1.68-2,1.16.92,1.5,1.19,2.57,2.15a.49.49,0,0,1,.14.22c0,.1-.1.15-.27.15h-6V17h2.82c.74-.86,1-1.13,1.73-2,1.16.92,1.5,1.21,2.59,2.18.1.09.12.14.12.19s-.1.15-.24.15h-3.69v3.39h.3c.62-.75.82-1,1.41-1.66.89.77,1.16,1,2,1.85a.36.36,0,0,1,.1.18c0,.09-.1.14-.22.14h-3.59v3c0,.84,0,2.34.08,4.12,0,1.14-.15,1.61-.67,2.08a4,4,0,0,1-2.2.84,6.37,6.37,0,0,1-.76.1c-.3,0-.35-.08-.42-.52a1.77,1.77,0,0,0-.87-1.38c-.44-.3-.64-.35-3-.92l0-.3c3.31.13,3.31.13,4.72.15.34,0,.44-.1.44-.39v-6.8h-7a6.3,6.3,0,0,0-1.36.15l-.15-.84a6,6,0,0,0,1.53.18h7V17.47ZM92.5,22c3.46,1.18,4.6,2,4.6,3.26a2,2,0,0,1-1.66,1.92c-.42,0-.59-.22-.86-1.18a8.65,8.65,0,0,0-2.18-3.81Zm40.73-11.74c.94-.84,1.21-1.09,2-1.85,1.19.86,1.56,1.14,2.72,2,.1.07.15.12.15.14,0,.18-.05.2-.3.2h-18.1V29.6h14.05c.92-.91,1.19-1.19,1.78-1.73a6.28,6.28,0,0,1-.64,0c-.5,0-.69-.13-.69-.42v-.72H131.7v.77a.41.41,0,0,1,0,.22A3.79,3.79,0,0,1,130,28c-.52,0-.69-.12-.69-.49,0-1.22.07-3.64.07-5.91,0-.25,0-.54-.07-2.07,1.16.54,1.51.71,2.62,1.28h2.15l1.23-1.28c.77.54,1,.71,1.73,1.26.23.17.3.27.3.37s-.05.17-.17.27l-.37.2-.25.17c0,.42.05,2.22.1,5.43v.1c0,.27-.13.37-.52.47,1.43,1.16,1.43,1.16,2.37,2a.79.79,0,0,1,.12.2c0,.07-.09.12-.24.12H119.72v1.09c0,.17,0,.27-.1.32a2.56,2.56,0,0,1-1.14.22h-.57c-.76,0-1-.15-1-.54v-.1c0-.84.13-4.75.13-5,0-2.25,0-2.25,0-4.86v-3c0-3.63-.07-8.2-.15-9.41,1.34.59,1.73.77,3,1.43Zm-7.64,10.55c.57-.54.75-.72,1.29-1.28a18.75,18.75,0,0,1,1.51,1.23c.22.17.29.27.29.37s-.15.3-.61.59c0,2,0,2,0,5.69v.1c0,.37-.44.54-1.4.54s-.94-.08-.94-.47v-.84h-2.25v.84c0,.25-.07.35-.22.39a6.82,6.82,0,0,1-1.61.18c-.42,0-.57-.15-.59-.55.05-2.49.07-3.58.07-4.34,0-1.78,0-2.89-.07-3.73,1.11.56,1.46.74,2.47,1.28Zm-2.07.52v4.89h2.25V21.35Zm7.19-8.3c.76-.72.76-.72,1.46-1.36.79.57,1,.72,1.77,1.28.23.15.3.28.3.37s-.15.33-.81.7c0,.86,0,1,0,1.73s0,.74,0,1.8c0,.37,0,.42,0,.94v.1c0,.42-.49.59-1.87.59-.52,0-.72-.1-.72-.4v-.59h-4.67v.54c0,.2,0,.25-.17.35a6,6,0,0,1-1.76.2c-.49,0-.64-.13-.64-.5,0-.12,0-.76,0-1.53s.05-1,.05-2.24,0-2.23-.1-3.34c1.29.57,1.66.74,2.84,1.36Zm-4.45.52v4.12h4.67V13.57Zm5.44,7.78v4.89h2.52V21.35ZM149,30A12.6,12.6,0,0,1,151,24.38c1.1-1.67,2.43-3,5.72-5.78a8.52,8.52,0,0,0,2.4-2.66,6,6,0,0,0,.61-2.66c0-2.51-1.36-4.16-3.41-4.16a2.62,2.62,0,0,0-2.69,1.94,8,8,0,0,0-.32,2.63c-.06,1.13-.58,1.59-1.85,1.59s-2.05-.49-2.05-1.53a5,5,0,0,1,2.4-4.08,8.35,8.35,0,0,1,4.8-1.3c4.36,0,7,2,7,5.35a5.34,5.34,0,0,1-1.3,3.64,12.37,12.37,0,0,1-3.18,2.37c-3.81,2.14-4.68,2.72-6,3.93a7.58,7.58,0,0,0-2.28,3.27h8.38c2.37,0,3.21-.76,3.73-3.36l1,.21-1,6.24Zm23.36-2a2.45,2.45,0,1,1-4.89,0,2.45,2.45,0,0,1,4.89,0Zm5.46-16.79a6.94,6.94,0,0,1,11.18,0,14.64,14.64,0,0,1,2.11,8.21A14.46,14.46,0,0,1,189,27.62a6.89,6.89,0,0,1-11.18,0,14.89,14.89,0,0,1-2.11-8.18A14.7,14.7,0,0,1,177.86,11.23Zm2.66,16c.63,1.68,1.62,2.52,2.95,2.52s2.48-1,3.12-3a24.92,24.92,0,0,0,.75-7.31c0-3.76-.29-6.16-.93-7.8s-1.59-2.52-2.94-2.52c-2.69,0-3.88,3.15-3.88,10.32C179.59,23.11,179.88,25.6,180.52,27.24Z"/></g></g></svg>