<svg xmlns="http://www.w3.org/2000/svg" viewBox="0 0 274.4 20"><defs><style>.cls-1{fill:#fff;}</style></defs><g id="圖層_2" data-name="圖層 2"><g id="圖層_1-2" data-name="圖層 1"><path class="cls-1" d="M19.32,14.38v1.38H10.45v2.56a1.36,1.36,0,0,1-.68,1.38,1.21,1.21,0,0,1-.35.13A26.34,26.34,0,0,1,5.47,20a5.2,5.2,0,0,0-.56-1.34c.54,0,1.65,0,3.32,0,.33-.1.51-.23.54-.4V15.76H0V14.38H8.77v-1.3h1a24.83,24.83,0,0,0,3.68-1.31H2V10.42h13.7l.39-.06,1.06.87A26.1,26.1,0,0,1,10.45,14v.36ZM19,2V3.38H.21V2H8.74V.06h1.68V2ZM16.49,9.11H3V4.77H16.49Zm-12-3.17v2H14.79v-2Zm53.14,4.21,1.07.68a13.68,13.68,0,0,1-5,5.47,28,28,0,0,0,8.06,2.1,5.88,5.88,0,0,0-1,1.51,26.31,26.31,0,0,1-8.7-2.7,29.74,29.74,0,0,1-8.79,2.7,5.63,5.63,0,0,0-1-1.44,30,30,0,0,0,8.19-2.17,15.43,15.43,0,0,1-4.41-4.49l.24-.09h-.94V10.21H57.35ZM44.38,7.74v3H42.86V6.32h3.47a13.45,13.45,0,0,0-1.44-2.87L46.29,3a10.87,10.87,0,0,1,1.53,2.85l-1.27.43H56a24.59,24.59,0,0,0,2.05-3.7l1.61.49c-.62,1.1-1.29,2.17-2,3.21H61.4v4.42H59.8v-3ZM59.06,0l1.12,1.3A105.7,105.7,0,0,1,43.44,3a5,5,0,0,0-.36-1.36A107.92,107.92,0,0,0,58.46.13ZM56.33,11.72H47.91a12.72,12.72,0,0,0,4.27,3.75A11.74,11.74,0,0,0,56.33,11.72ZM53.25,5.81l-1.51.38A11.18,11.18,0,0,0,50.63,3l1.47-.32A11.55,11.55,0,0,1,53.25,5.81ZM93.5.75h1.78a4.79,4.79,0,0,0,0,.48c0,.23,0,.4,0,.52A24.72,24.72,0,0,0,98,11.81a14.63,14.63,0,0,0,6.83,6.61,4.48,4.48,0,0,0-1.19,1.34Q97.45,16.85,95,8.87c-.17-.55-.33-1.12-.47-1.7q-2,8.94-8.72,12.59a5.7,5.7,0,0,0-1.3-1.25q8.31-4.26,8.93-16.72c0-.13,0-.31,0-.56S93.5.84,93.5.75ZM138,17.7h8.83v1.58H127.47V17.7h8.83V12.17h-6.47V10.62h6.47V5.85h-5.13a18.49,18.49,0,0,1-2.28,3.55,7,7,0,0,0-1.47-1,18.63,18.63,0,0,0,4-7.7c0-.12.06-.22.09-.32l1.64.36a30.24,30.24,0,0,1-1.24,3.49h4.43V.09H138V4.28h7.8V5.85H138v4.77h7v1.55h-7Zm51.46-4.47H185.1a9.43,9.43,0,0,1-2.75,3.47,64.8,64.8,0,0,1,6.39,2l-1,1.32a58.74,58.74,0,0,0-7-2.28q-3.51,1.77-10,2.22a4.46,4.46,0,0,0-.61-1.41,31,31,0,0,0,8.36-1.36c-1.36-.33-2.68-.61-3.94-.85l-.45.57-1.53-.51c.33-.41,1.1-1.46,2.32-3.15h-5.08V11.89h6c.65-1,1.08-1.64,1.3-2h-5.73V4.3h4.81V2.47h-5.87V1h18.59V2.47h-6.1V4.3H188V9.89h-9.7l.57.15c-.15.26-.56.87-1.21,1.85h11.81ZM172.86,5.62V8.55h3.28V5.62Zm10.45,7.61h-6.62l-1.36,1.92q2.14.4,5.09,1.08A8,8,0,0,0,183.31,13.23ZM177.69,2.47V4.3h3.51V2.47Zm0,6.08h3.51V5.62h-3.51Zm8.66-2.93h-3.59V8.55h3.59ZM218,12.87v4.24a13.29,13.29,0,0,0,5.21.76l2.68,0c3.66,0,5.77,0,6.34-.06a4.46,4.46,0,0,0-.64,1.61h-8.34q-4.26,0-6.21-1.06a6.41,6.41,0,0,1-2.66-3,13.52,13.52,0,0,1-1.55,4.51,3.55,3.55,0,0,0-1.13-.91q1.74-3,1.7-9.09l1.38.11c0,1,0,1.92-.08,2.74a7.39,7.39,0,0,0,1.83,3.43V8.45h-4.32V7h4.08V4.11h-3.48V2.68h3.48V.09h1.49V2.68h3.43V4.11h-3.43V7h3.83V8.45H218v3h3.29v1.45ZM225.73.13h1.45a17,17,0,0,0,4,4.74,10,10,0,0,0,1.12.83,14.12,14.12,0,0,0-.89,1.36,19.61,19.61,0,0,1-4.11-4.25c-.29-.43-.56-.83-.78-1.21a16.14,16.14,0,0,1-3.73,4.68q-.56.48-1.08.87a7.51,7.51,0,0,0-.85-1.3,14.38,14.38,0,0,0,3.95-4.1A12.4,12.4,0,0,0,225.73.13Zm4,10.78,1.44.54q-2.25,3.66-7.61,5.53c-.4.14-.8.27-1.22.38a6,6,0,0,0-.91-1.23,14.9,14.9,0,0,0,7.19-3.83A9.13,9.13,0,0,0,229.71,10.91Zm-1.45-2.8,1.34.57a14.84,14.84,0,0,1-5.42,3.91c-.3.15-.6.27-.9.39a5.85,5.85,0,0,0-1-1.09,14.69,14.69,0,0,0,5.19-3A5.73,5.73,0,0,0,228.26,8.11ZM227.11,5l1.34.56A13.22,13.22,0,0,1,223.88,9a3.52,3.52,0,0,0-.39.17,6.61,6.61,0,0,0-1-1,12.07,12.07,0,0,0,4.12-2.58Zm47.29,8.24v1.55h-9.13V20h-1.63V14.83h-8.9V13.28h8.9V10.06H257v-9H272v9h-6.69v3.22ZM258.59,2.55V4.87h11.73V2.55Zm0,3.7V8.6h11.73V6.25Z"/></g></g></svg>