<svg xmlns="http://www.w3.org/2000/svg" viewBox="0 0 104.93 144.87"><defs><style>.cls-1{fill:#fff;}</style></defs><g id="圖層_2" data-name="圖層 2"><g id="圖層_1-2" data-name="圖層 1"><path class="cls-1" d="M51.88,73.39h-.12A16,16,0,0,1,37.53,64.7L3.72,0,5.07,0,38.61,64.13a14.74,14.74,0,0,0,13.16,8h.11A14.74,14.74,0,0,0,65,64.32L99.8,0h1.38L66.11,64.9A15.94,15.94,0,0,1,51.88,73.39Zm11.47-10.2L97.52,0H96.11L62.28,62.62a11.64,11.64,0,0,1-10.39,6.19H51.8a11.63,11.63,0,0,1-10.38-6.34L8.75,0,7.4,0,40.34,63A12.83,12.83,0,0,0,51.8,70h.09A12.84,12.84,0,0,0,63.35,63.19Zm-2.12-1.84L94.41,0H93L60.16,60.77A9.25,9.25,0,0,1,51.9,65.7h-.07a9.26,9.26,0,0,1-8.26-5L11.85,0,10.5,0l32,61.19a10.47,10.47,0,0,0,9.34,5.7h.07A10.45,10.45,0,0,0,61.23,61.35Zm-2.36-1.82L91.06,0H89.65L57.79,59a6.57,6.57,0,0,1-5.88,3.51h0A6.58,6.58,0,0,1,46,58.87L15.2,0,13.85,0l31.06,59.4a7.76,7.76,0,0,0,7,4.24h.06A7.79,7.79,0,0,0,58.87,59.53ZM56.58,57.4,87.59,0H86.21L55.51,56.82A4,4,0,0,1,51.93,59h0a4,4,0,0,1-3.58-2.18L18.63,0,17.28,0l30,57.3a5.19,5.19,0,0,0,4.65,2.84h0A5.21,5.21,0,0,0,56.58,57.4Zm-1.7-3L84.33,0H82.91L53.81,53.85a2.12,2.12,0,0,1-3.74,0L21.93,0,20.58,0,49,54.39a3.28,3.28,0,0,0,2.93,1.79h0A3.29,3.29,0,0,0,54.88,54.43Zm13.84,12.2L104.75,0h-1.41L67.65,66.06a17.68,17.68,0,0,1-15.78,9.41h-.13A17.7,17.7,0,0,1,36,65.84L1.56,0,.18,0,34.88,66.4A18.88,18.88,0,0,0,51.73,76.68h.14A18.87,18.87,0,0,0,68.72,66.63ZM31,114c0-.23-.17-.46-.55-.46a15.07,15.07,0,0,1-1.55-.13c-.84-.1-1-.56-1.14-1.51a67.87,67.87,0,0,1-.18-6.85V91.9l4.17,0c3.47.07,4,.84,4.07,1.51l0,.34c0,.29.06.79.55.79.24,0,.52-.18.52-.68,0-.14,0-.53,0-1,0-.8.07-1.89.07-2.49,0-.17,0-.65-.44-.65l-.36,0a6.61,6.61,0,0,1-.67.12,16.1,16.1,0,0,1-2.46.15H19.88c-.42,0-1.77-.06-2.76-.16A3.35,3.35,0,0,1,16,89.66a1.08,1.08,0,0,0-.43-.12c-.32,0-.47.41-.61.8,0,0-.79,3-.79,3.37s.24.56.45.56a.66.66,0,0,0,.6-.47,4.46,4.46,0,0,1,.57-.94c.49-.67,1.25-.88,3.38-.91l4.94-.06v13.16a67.54,67.54,0,0,1-.18,6.84c-.14.94-.3,1.43-.81,1.52a5.37,5.37,0,0,1-1,.13c-.38,0-.55.23-.55.46,0,.52.63.52.84.52.75,0,2.07,0,2.86-.08l.59,0,.41,0c.78,0,2.42.08,3.92.08C30.89,114.52,31,114.19,31,114Zm38.11,0c0-.23-.17-.46-.55-.46a15.07,15.07,0,0,1-1.55-.13c-.84-.1-1-.56-1.14-1.51a67.87,67.87,0,0,1-.18-6.85V99.46c0-4.94,0-5.83.07-6.84s.32-1.43,1.08-1.56a6.15,6.15,0,0,1,.84-.09.49.49,0,0,0,.55-.46c0-.52-.63-.52-.83-.52-.76,0-2.08,0-2.87.07l-.59,0h-.46C62.73,90,61.16,90,60,90c-.21,0-.84,0-.84.52a.49.49,0,0,0,.55.46,6.88,6.88,0,0,1,1.15.09c1,.2,1.23.58,1.3,1.56s.07,1.9.07,6.84v.59H47.38v-.59c0-4.94,0-5.83.07-6.84s.32-1.43,1.07-1.56a6.31,6.31,0,0,1,.84-.09.49.49,0,0,0,.55-.46c0-.52-.62-.52-.83-.52-.75,0-2.08,0-2.87.07l-.58,0h-.47c-.75,0-2.32-.08-3.51-.08-.21,0-.83,0-.83.52a.49.49,0,0,0,.55.46,6.84,6.84,0,0,1,1.14.09c1,.2,1.24.58,1.3,1.56s.07,1.9.07,6.84v5.59c0,3,0,5.53-.17,6.84-.15.94-.31,1.44-.81,1.52a5.47,5.47,0,0,1-1,.13c-.39,0-.56.23-.56.46,0,.52.61.52.84.52.75,0,2.07,0,2.86-.08l.59,0,.41,0c.79,0,2.43.08,3.92.08.73,0,.83-.33.83-.52s-.17-.46-.55-.46a15.07,15.07,0,0,1-1.55-.13c-.83-.1-1-.56-1.14-1.51-.17-1.32-.17-3.88-.17-6.85v-3.26H62.2v3.26a67.54,67.54,0,0,1-.18,6.84c-.14.94-.3,1.43-.8,1.52a5.56,5.56,0,0,1-1,.13c-.38,0-.55.23-.55.46,0,.52.63.52.83.52.76,0,2.08,0,2.88-.08l.57,0,.42,0c.79,0,2.43.08,3.92.08C69,114.52,69.11,114.19,69.11,114Zm21.19-.41a26.87,26.87,0,0,0,.47-3.15c0-.22,0-.74-.48-.74s-.53.45-.58.69c-.24,1.23-.61,1.78-1.42,2.09a11,11,0,0,1-3.29.33c-3.4,0-3.72-.39-3.81-2.35,0-.47,0-2.52,0-4,0-.58,0-1.09,0-1.39V102.3c.65,0,4.07.06,5,.16,1.35.12,1.52.66,1.6.93a2.81,2.81,0,0,1,.12,1,.51.51,0,0,0,.52.55c.52,0,.52-.61.52-.87s.07-1.37.14-2a11.92,11.92,0,0,1,.21-1.38,1.92,1.92,0,0,0,.07-.43.45.45,0,0,0-.44-.52c-.25,0-.42.17-.67.44l-.06,0c-.23.24-.63.3-1.48.36-.58,0-3.16.07-5.45.07h-.07V91.76c.64,0,4.18,0,4.74.1,1.93.19,2.12.58,2.28.92a2.79,2.79,0,0,1,.19,1c0,.62.38.68.55.68s.4-.09.51-.57c.05-.25.09-.87.13-1.42,0-.3,0-.57,0-.69a8.11,8.11,0,0,1,.21-1.09,2.1,2.1,0,0,0,.07-.43c0-.53-.34-.56-.41-.56a.85.85,0,0,0-.38.11,1.15,1.15,0,0,1-.17.06,11.19,11.19,0,0,1-1.47.15c-.79,0-7.75,0-8,0L78,90c-.79,0-1.72,0-2.55,0-.21,0-.83,0-.83.52a.49.49,0,0,0,.55.46,6.84,6.84,0,0,1,1.14.09c1,.2,1.24.58,1.3,1.56s.07,1.9.07,6.84v5.59c0,3,0,5.53-.17,6.84-.15.94-.31,1.44-.81,1.52a5.47,5.47,0,0,1-1,.13c-.39,0-.56.23-.56.46,0,.52.61.52.84.52l.89,0c.37,0,.78,0,1.16,0,.73,0,1.33,0,1.4,0,.49,0,1.26,0,2.74.1l.86,0c1.32,0,3,.07,5.1.07C89.53,114.61,90,114.61,90.3,113.59ZM13.35,142.93c.67,1.49.88,1.94,1.34,1.94s.7-.51,1.62-2.35c.77-1.59,2.43-5.05,4.69-9.68,1.9-3.91,2.85-5.62,4.22-8.6,1-2,1.48-2.57,1.94-2.86a3.33,3.33,0,0,1,1.73-.38c.35,0,.56-.07.56-.29s-.28-.28-.74-.28c-1.06,0-2.71.09-3.31.09s-1.94-.09-3.7-.09c-.67,0-1,.06-1,.31s.29.26.6.26a5,5,0,0,1,1.41.16.61.61,0,0,1,.46.6,3.45,3.45,0,0,1-.32,1.17c-.84,2.1-5.42,12.32-6.94,15.81h-.14L9.72,124.33a8.85,8.85,0,0,1-.81-2.44.75.75,0,0,1,.35-.67,2.83,2.83,0,0,1,1.38-.22c.32,0,.53-.07.53-.29s-.39-.28-.81-.28c-1.76,0-3.45.09-4.34.09-1.23,0-3.24-.09-5.1-.09-.53,0-.92,0-.92.28s.1.29.42.29a5.9,5.9,0,0,1,1.38.13c1.27.31,1.86.66,2.68,2.41Zm20.92-7.71c0,3.08,0,5.58-.17,6.92-.11.92-.32,1.46-1,1.58a5.9,5.9,0,0,1-1.27.13c-.42,0-.56.1-.56.25s.24.32.7.32c1.41,0,3.63-.09,4.44-.09s3.17.09,5.49.09c.39,0,.67-.09.67-.32s-.18-.25-.56-.25a14.94,14.94,0,0,1-1.8-.13c-1-.12-1.3-.69-1.41-1.55-.14-1.37-.14-3.87-.14-6.95v-5.59c0-4.82,0-5.71.07-6.73s.35-1.65,1.31-1.81a6.87,6.87,0,0,1,1-.09c.35,0,.56-.07.56-.32s-.28-.25-.73-.25c-1.34,0-3.42.09-4.3.09s-3.24-.09-4.58-.09c-.56,0-.85.06-.85.25s.22.32.57.32a5.32,5.32,0,0,1,1.27.13c.77.15,1.12.69,1.19,1.77s.07,1.91.07,6.73Zm14.86,0c0,2.92,0,5.43-.17,6.76-.14.92-.32,1.62-1,1.74a5.9,5.9,0,0,1-1.27.13c-.43,0-.57.1-.57.25s.25.32.71.32c.7,0,1.62-.06,2.43-.06s1.62,0,2,0c1,0,2.15,0,3.66.09s3.45.1,6.09.1c1.34,0,1.66,0,1.91-.83a23.18,23.18,0,0,0,.45-3.52c0-.32,0-.57-.28-.57s-.31.12-.38.48a2.68,2.68,0,0,1-1.59,2.34,9.66,9.66,0,0,1-3.31.39c-3.59,0-4.16-.48-4.23-2.67,0-.92,0-3.84,0-4.92v-2.51c0-.19,0-.32.21-.32.85,0,4.34,0,5,.1,1.3.12,1.79.6,2,1.24a9,9,0,0,1,.14,1.14c0,.16.07.28.31.28s.32-.35.32-.6.11-1.49.14-2.13c.15-1.61.29-2.12.29-2.31a.23.23,0,0,0-.25-.26c-.18,0-.32.16-.56.42a2.69,2.69,0,0,1-1.7.47c-.8.07-4.86.07-5.63.07-.21,0-.25-.13-.25-.35v-8c0-.23.07-.32.25-.32.7,0,4.4.06,5,.13,1.76.19,2.11.57,2.36,1.14a3,3,0,0,1,.21,1.14c0,.29.07.44.32.44s.32-.18.35-.34c.07-.38.14-1.78.18-2.1a17,17,0,0,1,.28-2.06c0-.16,0-.29-.21-.29a3.9,3.9,0,0,0-.57.13c-.28.06-.84.13-1.51.19s-7.68,0-8.81,0c-.49,0-1.3,0-2.21-.06l-2.86,0c-.53,0-.77.06-.77.28s.21.29.6.29a8.44,8.44,0,0,1,1.37.09c1.16.23,1.44.73,1.51,1.81s.07,1.91.07,6.73Zm26.59,8.47c.32.83.46,1.18.82,1.18s.59-.38,1.26-1.69c1.52-2.92,6.2-14.18,6.87-15.8h.07l7.33,15.93c.53,1.18.74,1.56,1.09,1.56s.64-.38,1-1.49c1.73-4.77,5.43-14.86,7-18.86.74-1.81,1.13-3.08,2-3.36a4.16,4.16,0,0,1,1.23-.16c.32,0,.5-.1.5-.32s-.25-.25-.64-.25c-1.16,0-2.67.09-2.92.09s-1.8-.09-3.66-.09c-.53,0-.81.06-.81.28s.24.29.59.29c1.38,0,1.7.44,1.7,1a6.05,6.05,0,0,1-.36,1.84c-1.23,3.71-4,12.09-4.68,14.22H94l-7.32-16c-.46-1-.64-1.49-1-1.49s-.53.26-.87,1.15L78,138.23h-.11c-.63-1.77-3.91-11.39-4.5-13.49a18,18,0,0,1-.78-2.92c0-.35.07-.57.39-.69a2,2,0,0,1,.88-.13c.35,0,.63,0,.63-.29s-.24-.28-.74-.28c-2,0-3.59.09-3.91.09s-2.25-.09-4.08-.09c-.5,0-.78.06-.78.28s.21.29.57.29a3.39,3.39,0,0,1,1.4.28,4.53,4.53,0,0,1,1.31,2.26Z"/></g></g></svg>