<svg xmlns="http://www.w3.org/2000/svg" viewBox="0 0 273.74 20.04"><defs><style>.cls-1{fill:#fff;}</style></defs><g id="圖層_2" data-name="圖層 2"><g id="圖層_1-2" data-name="圖層 1"><path class="cls-1" d="M0,1.06H18.13V19.93H16.47V19H1.62v1H0ZM1.62,17.4H16.47V2.62H1.62Zm13.66-9H10c.84,3.39,2.65,5.57,5.45,6.54a5.32,5.32,0,0,0-1,1.31,9.23,9.23,0,0,1-5.41-6.17.13.13,0,0,0,0-.08,8.57,8.57,0,0,1-3.64,5.36,10.36,10.36,0,0,1-1.91,1,3.91,3.91,0,0,0-1-1.26,7.62,7.62,0,0,0,4.53-4A11.05,11.05,0,0,0,7.87,8.4H2.81V7H8.06c.07-.73.14-1.87.19-3.43H9.77c-.06,1.56-.13,2.7-.2,3.43h5.71Zm45.63,3.13a1.15,1.15,0,0,1,0,.26,1.42,1.42,0,0,1-.06.44c-.1,1.14-.2,2.11-.3,2.93s-.2,1.5-.32,2.05a7.07,7.07,0,0,1-.38,1.33,2.42,2.42,0,0,1-.47.76,1.74,1.74,0,0,1-.66.43,3.39,3.39,0,0,1-.83.16,2.62,2.62,0,0,1-.43,0H56c-.29,0-.59,0-.9,0a4.83,4.83,0,0,0-.16-.75,2.94,2.94,0,0,0-.31-.74,14.26,14.26,0,0,0,1.52.12h1a2.09,2.09,0,0,0,.48,0A1,1,0,0,0,58,18.3a1.62,1.62,0,0,0,.32-.55,6.74,6.74,0,0,0,.3-1c.1-.42.2-.95.29-1.57s.18-1.37.26-2.23H45.76a18.64,18.64,0,0,1-1.67,1.39c-.59.43-1.2.84-1.84,1.22q-.15-.27-.42-.69a3.91,3.91,0,0,0-.48-.65,18.83,18.83,0,0,0,4.82-3.94,25.47,25.47,0,0,0,3.46-5.08H42.46V3.7h7.89c.26-.61.5-1.22.73-1.84S51.51.62,51.69,0l1.62.43c-.18.55-.37,1.1-.57,1.64s-.42,1.09-.66,1.63h5.66c-.12.65-.25,1.33-.4,2s-.29,1.33-.43,1.9H59.4l-.42,2c-.15.7-.29,1.33-.41,1.9Zm-18,7.36a5.72,5.72,0,0,0,.83-1,9.17,9.17,0,0,0,.7-1.18c.2-.42.38-.84.54-1.27s.28-.87.38-1.29l1.36.42c-.12.46-.27.92-.43,1.4s-.35.93-.56,1.38A10,10,0,0,1,45,18.66a5.55,5.55,0,0,1-.87,1.1ZM47.29,3.66c-.1-.21-.23-.45-.38-.7s-.33-.52-.52-.78l-.61-.79c-.21-.26-.43-.5-.64-.73l1.41-.6c.21.22.42.45.64.71s.43.51.62.76.37.51.54.76a6.09,6.09,0,0,1,.41.67Zm9.77,7.87c.08-.37.17-.76.27-1.19s.19-.86.28-1.3H49.16c-.31.44-.63.87-1,1.28s-.67.81-1,1.21Zm-7.64,2.94a18.6,18.6,0,0,1,.48,2.25,14.26,14.26,0,0,1,.18,2.09L48.65,19a11.35,11.35,0,0,0-.12-2.09,14.71,14.71,0,0,0-.47-2.27Zm2-9.28q-.3.61-.63,1.23c-.22.42-.45.81-.69,1.2H55.4a11.65,11.65,0,0,0,.3-1.14q.15-.63.27-1.29Zm1.12,9c.15.3.28.61.42.94s.26.65.38,1,.22.66.31,1,.15.59.19.84l-1.36.36c0-.25-.1-.54-.17-.86s-.16-.64-.27-1-.22-.67-.35-1-.26-.66-.4-1Zm3.56,2.89a9.16,9.16,0,0,0-.65-1.42,14,14,0,0,0-1-1.51l1.15-.45a16.29,16.29,0,0,1,1,1.47,12.07,12.07,0,0,1,.7,1.4ZM90.69,4.49l.91.15a30.08,30.08,0,0,1-1.91,9.81,18.21,18.21,0,0,1,1.7,1.91l-1,1.26A13.06,13.06,0,0,0,89,15.94a10.85,10.85,0,0,1-3.74,4,6.23,6.23,0,0,0-1-1.29,9.42,9.42,0,0,0,3.57-3.83c-.42-.43-1.07-1-1.93-1.73l-.21.83-1.34-.72Q85,10.64,85.94,6H84.07V4.53h2.17q.62-3.26.81-4.47L88.6.21c-.13.75-.4,2.19-.83,4.32h2.64ZM90.07,6H87.45q-.3,1.51-1.21,5.49c.87.67,1.62,1.28,2.26,1.85A26.4,26.4,0,0,0,90.07,6Zm12-.58H98.75V18a1.68,1.68,0,0,1-.66,1.58l-.13.06a9.68,9.68,0,0,1-2.87.28,6.3,6.3,0,0,0-.55-1.56,16.5,16.5,0,0,0,2.25,0c.26,0,.39-.15.41-.36V5.42H94.88a17.8,17.8,0,0,1-2.11,4,8.12,8.12,0,0,0-1.38-.85c1.54-1.88,2.69-4.7,3.42-8.44l1.58.27a34.9,34.9,0,0,1-1,3.58h7.17l.3-.09,1.06.3a21.07,21.07,0,0,1-1.44,4.68L101.2,8.4A15.6,15.6,0,0,0,102.11,5.42ZM94.18,9.17l1.49.28A21.15,21.15,0,0,1,93,16.51a8.51,8.51,0,0,0-1.37-.79A17.14,17.14,0,0,0,94.18,9.17Zm6.08.32,1.36-.43A30.57,30.57,0,0,1,104,15.64c0,.1.05.19.07.27l-1.47.51A34.78,34.78,0,0,0,100.26,9.49Zm26.38-.58h19.78v1.77H126.64Zm53.14,4.43v4.42a19.66,19.66,0,0,0,3.53.28c3,0,4.87,0,5.57,0a4,4,0,0,0-.61,1.64h-5a13.89,13.89,0,0,1-6.86-1.36,7.92,7.92,0,0,1-2.89-3.11A11.89,11.89,0,0,1,170.23,20,6.44,6.44,0,0,0,168.91,19c2.17-1.71,3.52-4.66,4.06-8.88l1.66.15c-.13,1-.3,2-.51,2.9a6.8,6.8,0,0,0,4,4.21V8.21h-5.4V6.68h12.61V8.21h-5.55v3.62h6.45v1.51Zm-8.26-9.28V7.25h-1.59V2.55h8.17V.06h1.68V2.55H188v4.7h-1.66V4.06Zm44.83-4,1.46.44a31.39,31.39,0,0,1-2.21,5V19.93h-1.51v-12a26.39,26.39,0,0,1-1.85,2.36,10.17,10.17,0,0,0-.89-1.6,23.27,23.27,0,0,0,4.51-7.27Zm13.08,17.82h1.94V19.3H216.84V17.91h2.06V5.72h3.74c.16-.75.3-1.42.43-2h-5.32V2.28h5.55c.15-1.1.24-1.83.28-2.22l1.72.11c0,.16-.07.4-.15.72C225,1.52,225,2,224.9,2.28h5.81V3.7H224.6c-.27,1.18-.43,1.85-.49,2h5.32ZM227.92,7h-7.55V8.83h7.55Zm0,4.87V10h-7.55v1.85ZM220.37,13v1.87h7.55V13Zm0,3.09v1.78h7.55V16.13ZM259,4.87l1.4.58a23.14,23.14,0,0,1-1.79,2.68v11.8H257V10a21.64,21.64,0,0,1-2.53,2.34,7.27,7.27,0,0,0-.86-1.53,20.74,20.74,0,0,0,4.71-4.83C258.54,5.57,258.76,5.21,259,4.87ZM258.55.13l1.56.59a20.4,20.4,0,0,1-4.34,4.45c-.35.25-.67.49-1,.7a6.44,6.44,0,0,0-.85-1.3,16.54,16.54,0,0,0,3.91-3.48A8.2,8.2,0,0,0,258.55.13Zm15.19,12.46V14h-3.25v4.19a1.57,1.57,0,0,1-.6,1.45l-.23.1a12.91,12.91,0,0,1-3.3.26,5.09,5.09,0,0,0-.53-1.49c1.29,0,2.16.05,2.61,0,.26-.09.4-.21.43-.38V14h-8.72V12.59h8.72V10.74h-8.23V9.34h12.7v1.4h-2.85v1.85ZM272.32.75V7.89H262V.75ZM262,15.08l1.15-.72a16.9,16.9,0,0,1,2.76,3l-1.23.87A17.79,17.79,0,0,0,262,15.08ZM270.7,3.7V2h-7.15V3.7Zm0,2.94V4.87h-7.15V6.64Z"/></g></g></svg>