<?xml version="1.0" encoding="utf-8"?>
<!-- Generator: Adobe Illustrator 24.1.2, SVG Export Plug-In . SVG Version: 6.00 Build 0)  -->
<svg version="1.1" id="圖層_1" xmlns="http://www.w3.org/2000/svg" xmlns:xlink="http://www.w3.org/1999/xlink" x="0px" y="0px"
	 viewBox="0 0 776.3 413.2" style="enable-background:new 0 0 776.3 413.2;" xml:space="preserve">
<style type="text/css">
	.st0{fill:none;}
	.st1{clip-path:url(#SVGID_2_);}
	.st2{fill:none;stroke:#FFFFFF;stroke-width:46;stroke-linecap:round;stroke-linejoin:round;stroke-miterlimit:10;}
	.st3{fill:none;stroke:#FFFFFF;stroke-width:33;stroke-linecap:round;stroke-linejoin:round;stroke-miterlimit:10;}
	.st4{fill:none;stroke:#FFFFFF;stroke-width:30;stroke-linecap:round;stroke-linejoin:round;stroke-miterlimit:10;}
	.st5{fill:none;stroke:#FFFFFF;stroke-width:21;stroke-linecap:round;stroke-linejoin:round;stroke-miterlimit:10;}
	.st6{fill:none;stroke:#FFFFFF;stroke-width:22;stroke-linecap:round;stroke-linejoin:round;stroke-miterlimit:10;}
	.st7{fill:none;stroke:#FFFFFF;stroke-width:36;stroke-linecap:round;stroke-linejoin:round;stroke-miterlimit:10;}
	.st8{fill:none;stroke:#FFFFFF;stroke-width:27;stroke-linecap:round;stroke-linejoin:round;stroke-miterlimit:10;}
	.st9{fill:none;stroke:#FFFFFF;stroke-width:24;stroke-linecap:round;stroke-linejoin:round;stroke-miterlimit:10;}
	.st10{fill:none;stroke:#FFFFFF;stroke-width:19;stroke-linecap:round;stroke-linejoin:round;stroke-miterlimit:10;}
	.st11{fill:none;stroke:#FFFFFF;stroke-width:23;stroke-linecap:round;stroke-linejoin:round;stroke-miterlimit:10;}
	.st12{fill:none;stroke:#FFFFFF;stroke-width:40;stroke-linecap:round;stroke-linejoin:round;stroke-miterlimit:10;}
	.st13{fill:none;stroke:#FFFFFF;stroke-width:16;stroke-linecap:round;stroke-linejoin:round;stroke-miterlimit:10;}
	.st14{fill:none;stroke:#FFFFFF;stroke-width:34;stroke-linecap:round;stroke-linejoin:round;stroke-miterlimit:10;}
	.st15{fill:none;stroke:#FFFFFF;stroke-width:29;stroke-linecap:round;stroke-linejoin:round;stroke-miterlimit:10;}
	.st16{fill:none;stroke:#FFFFFF;stroke-width:20;stroke-linecap:round;stroke-linejoin:round;stroke-miterlimit:10;}
	.st17{fill:none;stroke:#FFFFFF;stroke-width:18;stroke-linecap:round;stroke-linejoin:round;stroke-miterlimit:10;}
	.st18{fill:none;stroke:#FFFFFF;stroke-width:25;stroke-linecap:round;stroke-linejoin:round;stroke-miterlimit:10;}
</style>
<path class="st0" d="M636.3,267c3.1,0.7,4.2-0.5,3.6-4.2C637.9,262.8,636.5,264.3,636.3,267z M625.4,297.3c-0.3-0.1-1.1,0.6-1,0.8
	c0.1,0.5,0.6,1,1.1,1.8c0.5-0.7,1-1.2,0.9-1.5C626.3,297.9,625.8,297.4,625.4,297.3z M703.6,317.7c0.4-1.2,0.9-2.5,1.2-3.8
	c0.1-0.6-0.2-1.5-0.6-1.7c-0.4-0.2-0.6-0.5-0.7-0.7c0,0,0,0.1,0,0.1C703.5,314.7,703.5,317.8,703.6,317.7z M637.6,193.7
	c0-1.1-0.5-1.7-1.7-1.7c-1.4,0-1.9,0.7-2,2.6c0.4,0.3,1.1,1,1.8,1.1C636.9,195.7,637.6,194.9,637.6,193.7z M649.5,118.1
	c-1.4,1.2-2.5,2.2-3.9,3.5C647.6,121.5,649.2,120.1,649.5,118.1z M741.2,228.8c-1.4-1.6-2.9-3.2-4.4-4.7c-1.3-1.4-2.7-2.7-4.8-2.9
	c-0.3,0-0.5-0.2-0.8-0.4c-2.3-2.4-3.5-2.8-6.1-1.4c-2.9,1.7-5.9,1.5-9,1.1c-1.3-0.1-1.4,0.6-1.3,1.5c0.1,0.4,0.4,0.9,0.7,1.2
	c1,1.3,0.7,2.2-0.6,2.9c-1.6,0.9-3.3,1.7-4.9,2.5c-1.4-2-0.8-4.2-1.2-6.3c-1.2-6.3,1.6-9.6,6.4-12.7c2.1-1.3,3.3-3.4,3.9-5.5
	c0.8-0.4,1.6-0.5,1.9-0.9c1.1-1.6,2.2-3.3,2.8-5.1c0.3-0.9-0.4-2.2-0.7-3.3c-0.3,0-0.5,0-0.8,0c-1,1.8-2,3.7-3,5.5
	c-1-0.8-1.8-1.4-2.6-2c-0.7-0.5-0.7-0.9,0.1-1.5c1.8-1.5,3.6-3,5.3-4.7c1-1,0.9-2.8-0.4-3.4c-1.2-0.6-2.9-1.1-4-0.8
	c-1.7,0.5-3.3,0.7-5,0.6c-1.4-0.1-1.7-0.7-1.6-1.8c0.1-1.4,0.4-2.8,0.5-4.3c0-1.6,0.2-2.5,2-1.4c0.3,0.2,0.9,0.1,1.1-0.1
	c0.2-0.2,0.1-0.8,0-1.1c-0.2-0.5-0.7-1-0.6-1.4c0.4-1.1,1-2.2,1.6-3.2c2.2-3.5,1.6-5.6-2.1-7.5c-0.9-0.5-1.4-1-1.1-2.2
	c0.7-2.1-0.2-3.8-1.7-5.2c-0.9-0.9-1.6-2-2.4-2.9c-0.5-0.5-1-1.2-1.5-1.2c-1.2,0-3.7,2.7-4,3.9c-0.1,0.5-0.4,1.3-0.7,1.5
	c-2.7,1-3.1,3.7-3.6,5.8c-0.4,1.6-0.1,3.7,0.6,5.1c1.2,2.1,1.7,4.1,1.6,6.5c-0.1,3.5-0.1,7.1-0.2,10.6c0,0.7-0.5,1.6-1.1,2
	c-2.6,1.5-5.3,2.8-7.9,4.3c-2.3,1.4-4.4,3-6.5,4.6c-1.9,1.5-3.7,3-5.3,4.7c-3.2,3.2-6.1,6.5-9.3,9.7c-3.6,3.6-7.4,7.1-11.2,10.7
	c-0.7,0.6-1.5,0.9-2.3,1.4c0-0.8,0-1.6,0-2.4c0-0.2-0.1-0.3-0.1-0.5c-0.2-2.4-0.5-4.9-0.5-7.3c0.1-2.4,0-4.7-1.5-6.8
	c-0.9-1.3-2.1-3-0.2-4.8c0.9-0.8,1.4-2.3,1.5-3.6c0.2-2.4,1.6-4,3-5.7c1.8-2.3,3.9-4.4,5.7-6.7c0.9-1.1,1.6-2.4,2.3-3.6
	c0.5-0.7,1-1.1,1.9-0.6c1.3,0.5,2-0.6,1.8-1.5c-0.5-2.6,0.4-4.9,1-7.3c1.1-4.5,4.2-7.5,7.6-10.1c1.8-1.4,4.1-2.3,6.2-3.2
	c2.8-1.3,5.6-2.5,8.5-3.6c1.4-0.5,3-0.6,4.2-1.3c1.6-1,2.9-2.5,4.4-3.8c0.6-0.5,1.1-1,1.6-1.6c0.5-0.6,1.1-1.3,1.4-2
	c0.6-1.4,1-3,1.6-4.4c0.6-1.4,1.9-2.8,1.7-4c-0.4-1.9-1.3-4.2-2.7-5.4c-2.2-1.8-5.1-2.4-7.9-0.8c-1.6,1-3.1,2.2-4.7,3.4
	c-0.5-0.6-0.9-0.9-1-1.1c-0.6,0.9-1.2,1.7-1.6,2.6c-0.5,1.2-1.3,1-2.1,0.5c-0.8-0.5-1.6-1.1-0.7-2.3c0.3-0.4,0.3-1.1,0.4-1.6
	c-1.3,1-2.3,2-3.3,3.1c-0.1,0.2-0.1,0.6-0.1,0.9c1,2.8-1.2,4.2-2.6,6c-0.4,0.5-0.9,1.1-1,1.7c0,2.1,0,4.1,0.1,6.1
	c0.1,2.1-0.7,3.6-2.1,5.1c-2.8,2.9-5.6,5.9-8.4,8.7c-0.5,0.5-1.5,0.9-2,0.7c-0.6-0.2-1-1.2-1.1-1.8c-0.2-1.8,0-3.7-0.1-5.6
	c-0.2-2.6,0.7-4.6,3-6c1.7-1,3.2-2.2,4.9-3.3c-0.7-0.5-1.2-0.9-1.3-1c0.1-1.4,0.6-2.8,0.1-3.3c-0.4-0.6-1.9-0.4-3-0.6
	c-1.3-2.6-1.6-5.4-0.4-8.5c0.7-1.9,0.8-4.1,1.5-6c1.1-2.6,2-5.3,5-6.7c2.4-1.1,4.7-2.6,7.2-3.7c2-0.9,4.3-2.1,6.4-1.9
	c4,0.4,7.3-1.2,10.7-2.7c0.6-0.2,1.1-0.7,1.5-1.2c1-1.2,0.7-2.1-0.8-2.5c-1-0.2-2-0.3-3-0.6c-0.5-0.1-0.8-0.6-1.2-0.9
	c0.3-0.3,0.7-0.8,1.1-1c0.9-0.5,1.9-0.9,2.9-1.4c-0.9-1.7,0.2-2.9,1.2-4c0.6-0.7,0.9-1.3-0.1-1.6c-1.7-0.4-3.5-0.8-5.2-0.8
	c-2.3-0.1-4.6,0.1-6.9,0c-1.3,0-2.7-0.4-4-0.5c-0.8-0.1-1.6,0-2.6,0c1.2,3.2,0.9,3.8-1.9,4.6c-0.3,0.1-0.7,0.3-1,0.4
	c-1.1,0.5-2.1,1.1-3.2,1.3c-0.4,0.1-1.3-0.7-1.3-1.1c-0.1-1.2,0.2-2.5,0.3-3.7c0.1-1.2,0.6-1.7,1.8-2c1.2-0.3,2.3-1.2,3.3-1.9
	c0.8-0.5,1.7-1.6,2.3-1.4c1.5,0.4,1.4-0.5,1.7-1.3c0.2-0.5,0.3-1.2,0.7-1.5c1.8-1.4,3.6-2.7,5.4-4.1c0.3-0.2,0.6-0.6,0.6-0.8
	c-0.6-1.6,0.6-2.4,1.4-3.4c0.3-0.3,0.5-0.9,0.3-1.3c-0.5-1.2,0.2-1.8,1-2.5c0.6-0.6,1-1.6,0.9-2.4c-0.1-0.9-0.7-1.8-1.3-2.5
	c-0.7-1-0.7-1.5,0.7-1.9c0.4-0.1,1.1-1,1.1-1.4c-0.6-2.4-2-4.2-4.3-5.1c-3.1-1.2-6,0-8.7,1.4c-0.9,0.5-1.3,0.4-1.7-0.3
	c-1.4-2.5-3.4-4.3-5.8-5.9c-0.3-0.2-0.3-0.7-0.5-1c0.4-0.1,0.9-0.5,1.2-0.4c1.7,0.6,3.4,1.3,5.1,2.1c0.4,0.2,0.8,0.2,1.3,0.4
	c0-1.5-0.2-2.9,0-4.1c0.4-1.7,0.1-2.9-1.6-3.5c-1.9-0.6-3.9-1.2-5.9-1.4c-1.3-0.2-2.1-0.2-2.2-1.8c-0.1-1-0.8-1.9-1.2-2.9
	c0-0.1,0.3-0.4,0.3-0.4c-0.6-0.8-1-1.8-1.8-2.4c-0.3-0.2-1.2,0-1.8,0.3c-0.9,0.5-1.7,1.1-3,2c0.7,0.7,1.6,1.7,2.5,2.5
	c1.1,0.8,2.2,1.5,3.5,2.4c-1.6,1.2-2.8,2.6-4.3,3.1c-2.2,0.8-3.2,2.4-4.1,4.3c-0.3,0.7-0.9,1.3-1.5,1.7c-1.8,1-4.3,0.9-4.8,3.7
	c-1.8-2-2-3.2-0.6-5.3c-0.6-0.3-1.3-0.6-1.9-0.9c-0.1,0.7-0.4,1.4-0.4,2.1c0.1,0.8,0.3,1.7,0.5,2.5c0.4,1.8,0.8,3.6,1.1,5.4
	c0.4-0.4,0.5-0.9,0.6-1.3c0.1-0.5,0.2-0.9,0.3-1.3c2.9,0.3,3,0.2,4,2.6c0.6,1.4,0.7,2.9,0.9,4.4c0.1,0.5,0,1.1,0.1,1.6
	c1.1,3.1-0.2,6.2-3.1,7.8c-3.9,2-7.7,4.3-11.6,6.2c-2.2,1.1-4.5,1.9-6.9,2.6c-1.2,0.4-2.3-0.1-2.7-1.5c-0.5-1.8-1.2-3.5-2.9-4.6
	c-0.3-0.2-0.5-0.8-0.4-1c0.1-0.3,0.6-0.6,1-0.6c0.6-0.1,1.4,0,2.4,0c-0.8-1.5-1.7-2.3-3.2-2.7c-1.2-0.3-2.3-1.1-3.5-1.4
	c-1.2-0.3-2.9-0.8-3.6-0.2c-1.6,1.3-3.3,2.9-2.9,5.4c0.2,0.9-0.3,1.1-1.1,1.3c-1.6,0.5-3.2,1.1-4.5,2.1c-0.8,0.7-1.5,2.1-1.5,3.2
	c0,5.9,2,11,6.8,14.7c0.5,0.3,1.1,0.6,1.6,0.6c3.8-0.2,7.2,0.9,10.1,3.6c1.5,1.3,3.8,1,5-0.6c0.7-1,1.4-1.3,2.6-0.9
	c1.7,0.6,2.9-0.2,3-1.9c0.1-1.8,0.4-3.8-0.1-5.5c-0.9-3.1,0.6-5.1,2.7-6.6c2.8-2,5.6-4.4,9.5-4.6c1.8-0.1,3.4,0.7,3.5,2.4
	c0.2,2.4-0.4,4.4-2.4,6.2c-1.5,1.5-2.5,3.7-3.5,5.6c-1.1,2.1-1.7,4.4-3.1,6.2c-1.9,2.5-4.2,4.7-6.5,6.8c-3.2,2.7-6.7,5.2-10.1,7.7
	c0-0.2,0-0.3-0.1-0.5c-1.1-0.2-2.4-1-3.2-0.6c-1,0.6-1.9,1.9-2.3,3.1c-0.9,2.5-2.5,3.9-4.9,4.9c-2.7,1-5.3,2.1-7.8,3.4
	c-1.4,0.8-2.5,2.1-3.9,3c-3,2.1-3.4,3.8-0.8,6.2c2.6,2.6,4.8,6.8,9.8,5.4c0.3-0.1,0.7,0.2,1,0.2c2.6,0,5.3,0.6,7.5-1.3
	c1-0.9,1.7-2,2.7-2.9c1.1-1.1,2.3-2.1,3.7-2.9c1.2-0.8,2.6-1.1,3.9-1.8c0.5-0.3,0.8-0.7,1.2-1.1c-0.1-0.1-0.2-0.2-0.2-0.2
	c-1.1,0.5-2.2,1.1-3.6,1.8v-2.5c-1,0.9-1.6,1.6-2.3,2.1c-0.4,0.3-1.1,0.4-1.6,0.3c-0.3,0-0.5-0.5-0.6-0.7c-2.9,1.2-5.5,2.5-8.3,3.6
	c-2.1,0.8-2.8,0.3-3.5-2.2c2.2,0.1,3.8-0.9,5.1-2.6c0.4-0.5,1.1-1.1,1.7-1.1c1.4-0.1,2-0.7,2.1-2.1c0.1-1.6,1.3-2.1,2.8-1.7
	c0.5,0.1,1,0,1.5-0.1c0.9-0.3,1.7-0.7,2.6-0.9c0.4-0.1,0.9,0.3,1.4,0.4c-0.2,0.4-0.3,0.9-0.5,1.2c-0.5,0.7-1.1,1.3-1.7,1.9
	c0.3,0.3,0.5,0.5,0.8,0.8c0.6-0.8,1.1-1.7,1.8-2.4c1.2-1.3,2.3-2.8,3.7-3.8c2-1.5,3.7-3.1,6.2-4c2.4-0.9,4.5-2.9,6.8-4.3
	c0.4-0.2,0.9-0.2,1.3-0.2c0.1,0.4,0.2,0.9,0.2,1.3c-0.3,2.3-1.4,4-3.5,5.1c-0.6,0.3-1.5,1.1-1.4,1.4c0.8,2.1-1,1.6-2,1.9
	c0.3-0.5,0.6-1,1.1-2c-3.3,1.2-6.2,2.3-9,3.4c0,0.2,0,0.3,0.1,0.5c2.1-0.3,4.3-0.6,6.9-0.9c-1.1,0.9-1.9,1.6-2.7,2.3
	c0.1,0.1,0.2,0.3,0.3,0.4c2-1.2,3.9-2.5,5.9-3.6c0.4-0.3,0.9-0.3,1.4-0.4c0.1,0.5,0.4,1,0.3,1.5c-0.6,3.3-1.3,6.5-2.1,9.8
	c-0.4,2-0.9,4.1-1.5,6.1c-0.1,0.4-0.8,0.5-1.3,0.7c-0.8-2.3-4.2-1.4-4.9-3.8c-0.1-0.2-0.7-0.3-1-0.2c-2.1,0.4-4.3,0.8-6.3,1.3
	c-1.4,0.4-1.7,1.6-1.1,3c0.3,0.7,0.3,1.6,0,2.3c-0.9,2.5-2.8,4.2-5,5.6c-1,0.7-1.1,1.3-1.1,2.5c-0.2,2-0.1,3.7,1.2,5.3
	c0.2,0.2,0,0.7,0.1,1.1c0.6,3.3,0.4,7,4.8,8c0.4,0.1,0.9,0.5,1.1,0.9c0.9,1.4,2.2,1,3.1,0.3c2.1-1.5,3.6-3.6,6-4.9
	c2-1.1,3.6-3,5.6-4.7c0.9,2.1,1.6,4.1,2.4,5.9c0.4,1.1,0.3,1.9-0.7,2.7c-1.8,1.3-3.5,2.8-5.4,4.1c-3.3,2.2-5.5,5.3-7.7,8.5
	c-0.8,1.1-1.6,2.6-2.8,3.2c-3.7,1.9-6.9,4.1-9,7.9c-1.7,3.1-3.9,6-5.8,9c-1.4,2.3-2.7,4.7-4.3,7c-1.8,2.7-3.9,5.1-5.8,7.8
	c-0.8,1.1-1.7,1.4-2.9,1.1c-2.8-0.7-5.6-1.4-8.4-1.9c-1.8-0.4-3.8-0.2-5.7-0.7c-2.6-0.8-5.1-1.6-7.9-0.6c-0.4,0.2-1.7-0.5-1.6-0.8
	c0.2-2.8,0.3-5.6,1.1-8.2c0.6-2.1,1.1-4-0.1-6c-0.9-1.5-1.7-3.1-2.3-4.8c-0.5-1.4-0.6-3-1-4.5c-0.6-2.2-0.4-2.5,1.7-3.6
	c2.9-1.5,5.7-3.2,8.5-5c1.5-1.1,1.3-1.8,0.2-3.5c-0.5-0.7-0.7-2.1-0.4-2.9c1-2.4,2.2-4.8,3.5-7c0.4-0.8,1.4-1.4,2.2-1.9
	c0.6-0.5,1.4-0.6,1.9-1.2c2-2.4,4.1-4.6,7-6c1.5-0.7,1.3-1.4-0.1-2.5c-1.7-1.4-3.6-2.6-5.1-4.2c-1.2-1.4-1.7-3.4-3.3-4.7
	c-2.1-1.7-4-3.7-6.1-5.3c-2-1.4-4.4-1.8-6.8-1.4c-1.6,0.2-3.2,0.6-4.7,1c-1.7,0.4-2.2,0.1-2-1.5c0.2-2,1.1-4,1.1-5.9
	c0-4.1,2.8-6.4,5-9.1c0.3-0.3,0.8-0.6,1.2-0.7c2.5-0.5,4.7-1.7,6.6-3.4c2.9-2.6,3.3-7.9,0.6-10.2c-2.4-2-4.6-4.1-7.5-5.6
	c-2.6-1.2-4.9-1.2-7.4-0.7c-2.4,0.4-3.7-0.4-3.8-2.9c0-0.4-0.2-0.8-0.2-1.2c-0.4-3.3-0.8-6.5-1.2-9.7c-0.1-1-0.1-2.1-0.2-3.1h-0.2
	c-0.2,0.7-0.3,1.4-0.5,2.1c-2.2-1.2-2.5-4.8-0.6-7.3c0.3,1.2,0.5,2.3,0.7,3.3c0.2-0.8,0-1.6,0.2-2.1c0.4-1.2,0-1.8-0.9-2.6
	c-0.9-0.7-1.9-1.9-2-2.9c-0.3-2.6-0.4-2.9-3-3.2c-0.4-0.1-0.9-0.1-1.2-0.3c-2.2-1.3-4.4-0.8-6.4,0.2c-1.9,0.9-3.5,2.3-5.3,3.4
	c-3,1.7-3.7,4.8-5.2,7.4c-0.7,1.4-1.1,3-2.1,4.1c-1.6,1.8-2.1,4.1-2.5,6.2c-0.5,3.1-0.5,6.3-0.5,9.4c0,1.3,0.5,2.7,0.8,3.9
	c0.5,1.7,1,3.4,1.6,5c0.1,0.4,0.9,1,1.2,0.9c2.1-0.4,4.3-0.7,6.3-1.4c1.7-0.6,3.8-0.3,5.2-1.9c0.3-0.3,1.5-0.5,1.7-0.2
	c0.4,0.6,0.7,1.5,0.7,2.2c0,0.3-0.5,0.8-0.9,1.1c-2.9,2.2-5.8,4.4-8.8,6.4c-1.4,1-3.2,1.6-4.8,2.4c-1.2,0.5-2.1,0.3-2.3-1.2
	c-0.2-1-0.3-2.1-0.5-3.5c-0.5,0.7-0.8,1.1-1.1,1.5c-1,1.4-1.9,3-3.1,4.1c-1.6,1.4-3.6,2.3-5.4,3.4c-1.8,1.1-2,2.2-1.6,4.4
	c0.4,2.7,2.2,4.5,3.6,6.5c0.5,0.7,2.6,1.4,2.8,1.2c1.1-1.3,2.1-0.6,3.2-0.3c0.5,0.1,1.2-0.2,1.7-0.4c2.1-1.2,4.3-2.2,6.1-3.7
	c1.4-1.2,3.5-2.1,3.6-4.5c0-0.3,0.6-0.6,1-0.8c0.1,0,0.5,0.5,0.6,0.8c0.2,0.2,0.2,0.5,0.2,0.9c3.9-0.9,5.1,1.1,4.8,4.8
	c0.6-0.8,0.9-1.4,1.3-2c0.2-0.3,0.7-0.7,1.1-0.7c0.3,0,0.9,0.5,0.9,0.9c0.1,1.6,0,3.2,0.1,4.8c0,0.8,0.2,1.6,0.2,2.4
	c0,1.6,0.4,3.5-0.3,4.8c-0.7,1.3-2.5,2-3.7,3c-2.1,1.8-3.9,0.9-6-0.5c-1.8-1.2-3.8-2.3-5.9-2.9c-2.4-0.7-3.1-1.2-3.2-3.7
	c0-0.3-0.1-0.7-0.2-1.5c-1.4,0.8-2.6,1.5-3.8,2.1c-1.7,0.8-3.5,1.4-5.1,2.4c-3.6,2.2-5.2,5.8-6.8,9.5c-1.6,3.6-2.9,7.3-5,10.5
	c-3.8,6.1-8.3,11.9-12.1,18.1c-1.8,2.8-2.8,6.1-4.2,9.1c-0.6,1.2-1.1,2.4-1.8,3.6c-1,1.4-1.7,2.8-1,4.6c0.4,1.1,0.3,2.4,0.4,3.6
	c0,0.4-0.2,0.9,0,1.2c1.1,1.6,0.6,3.3,0.2,4.9c-1,3.9-2.1,7.8-3.3,11.7c-1.1,4.1-2.2,8.3-3.6,12.4c-1.5,4.6-3.3,9-4.9,13.5
	c-1.2,3.5-2.4,7-3.5,10.6c-0.8,2.8-1.7,5.6-2,8.5c-0.4,3.9-0.3,7.9-0.4,11.9c0,0.2,0,0.5,0.1,0.7c1.2,2.4,3,4,5.7,4.6
	c1.6,0.3,2.6-0.1,3.2-1.7c0.3-0.9,1-1.7,1.6-2.4c1.2-1.2,2-2.3,1.9-4.2c-0.8-9.4,0.2-18.6,3.9-27.5c0.8-1.9,1.3-4,2-6
	c1.1-3.3,2.4-6.5,3.4-9.8c0.5-1.5,0.1-3.4,0.9-4.6c2.1-3.4,2.7-6.9,3-10.7c0.2-2.5,1-4.9,1.6-7.3c0.2-0.9,1-1.7,1.5-2.6
	c0.5-1,0.8-2.2,1.4-3.3c0.9-1.6,2-3,3-4.6c0.5-0.8,0.7-1.9,1.4-2.6c2.4-2.5,4.8-5,7.3-7.4c2.1-2,4.3-3.9,6.6-5.7
	c1.5-1.1,3.2-2,4.8-2.8c0.3-0.2,1.4,0.2,1.5,0.6c0.8,1.9,1.6,3.7,2.1,5.7c0.2,0.6-0.2,1.7-0.8,2.2c-1.7,1.4-3.5,2.6-5.3,3.8
	c-2.4,1.7-4.9,3.3-7.2,5.3c-2,1.8-3.8,3.9-5.7,5.8c-0.2,0.2-0.4,0.5-0.4,0.8c-0.2,1.3,3.3,4.1,4.5,3.6c1.4-0.6,2-0.1,2.8,1
	c3.5,4.7,5.7,4.5,10.1,2.6c1.3-0.5,2.7-1.7,2.8-3.6c0-0.4,0.3-0.9,0.6-1.2c2.5-1.8,4.8-3.9,7.6-5.1c2.7-1.2,5-2.6,7.4-4.3
	c0.8-0.6,1.7-1.1,2.5-1.6c1.8-1.1,3.7-2,5.5-3.1c1.2-0.8,2.1-0.6,2.2,0.8c0.1,2.6,0.1,5.1-0.2,7.7c-0.3,3.4-1.2,6.7-1.4,10.1
	c-0.1,3.2,0.4,6.4,0.6,9.6c0.1,0.9,0.2,1.8-1.1,1.7c-1.7-0.1-3.1-1-2.9-2.1c0.3-1.1,0.8-2.1,1.1-3.2c0.2-0.7,0.3-1.5,0.5-2.2
	c-0.2-0.1-0.4-0.1-0.7-0.2c-0.6,1.3-1.2,2.5-1.7,3.8c-0.7,1.8-1.5,1.9-3,0.8c-1.5-1-3.3-2.5-4.8-2.3c-3,0.3-6.2,0.5-8.8,2.7
	c-0.3,0.3-1.4,0.3-1.8,0c-1.1-0.8-2-2-3.1-2.9c-4.1-2.9-8.4-4.2-13.3-1.9c-1.7,0.8-3.5,1.6-5,2.3c0.2,1.1,0.7,1.9,0.5,2.6
	c-0.6,2.5-1.4,4.9-2.1,7.3c-0.1,0.3-0.2,0.7-0.1,1.1c0.5,2.1,0.7,4.2,1.5,6.2c1.6,4,2.4,8.4,5.1,12c3.3,4.3,6.5,8.6,11.1,11.5
	c1.1,0.7,1.9,0.8,2.6-0.5c0.2-0.3,0.7-0.6,1-0.6c1.4,0.1,2.9,0.2,4.2,0.4c1.1,0.1,2.3,0.6,3.3,0.3c0.9-0.3,2.4-1.7,2.3-1.9
	c-1.1-2.2,0.9-3.6,1.4-5.3c0.2-0.6,1.3-1.4,1.8-1.2c1.7,0.6,2.3-0.5,2.6-1.6c0.5-1.8,0.9-3.7,0.9-5.6c0.1-3.9,0.4-4,4.5-5.2
	c0.4-0.1,0.9-0.1,1.3-0.2c1.3-0.3,2,0.1,2.6,1.3c1.1,2.3,2.1,4.6,3.4,6.7c1.2,2,2.8,3.7,4.6,5.1c0.2-0.1,0.4-0.3,0.6-0.4
	c-0.6-1.7-1.2-3.3-2-5.5c1,0.5,1.6,0.7,2.1,1c2.5,1.5,5,3.1,7.6,4.6c0.4,0.2,1,0.2,1.4,0.2c-0.1-0.4,0-0.9-0.2-1.3
	c-0.4-1-1-1.9-1.5-2.9c-0.6-1-0.5-1.8,0.7-2.5c1.7-1,3.2-2.4,4.9-3.5c0.2-0.2,0.7-0.3,1-0.3c2.7,0.5,3.1,0.3,4.3-2.3
	c0.7-1.6,1.5-3.3,2.6-4.7c1.1-1.5,2.6-2.8,3.8-4.2c0.6-0.6,1.1-1.2,1.8-1.9c0.5,0.7,0.8,1.1,1.1,1.6c1.7,2.5,0.8,4.9,0,7.4
	c-0.4,1.1-0.6,2.3-0.5,3.5c0.1,1,0.8,1.3,1.8,1.1c1.2-0.2,2.6-0.4,3.8-0.1c2.8,0.5,7.2-0.9,8.5-3.1c1-1.7,2-3.4,2.5-5.3
	c0.7-2.3,3.8-3.2,3.4-6c0-0.1,0.2-0.3,0.4-0.3c2.1-0.6,2.4-2.8,3.5-4.2c1.7-2.1,3.3-4.2,5-6.2c1-1.2,2.1-2.4,3.2-3.4
	c0.3-0.3,0.9-0.3,1.4-0.4c0,0.5,0.2,1,0,1.4c-1.6,4.2-3.2,8.5-5,12.7c-1,2.4-2.2,4.8-3.6,7c-2.2,3.2-4.9,6-7.1,9.1
	c-3.4,4.7-8.2,7.6-13.2,10.2c-2.4,1.2-5.1,1.8-7.7,2.7c-0.6,0.2-1.4,0.8-1.4,1.3c-0.3,2.5-0.5,5-0.5,7.5c0,0.5,0.6,1.5,1,1.5
	c2,0.2,2.1,1.7,2.6,3.1c0.2,0.5,0.5,1.1,0.9,1.5c1.2,1.4,2.1,1.2,3-0.3c0.4-0.7,0.8-1.4,1.1-2.2c0.3-1.2,1-1.5,2-1.1
	c3.5,1.2,5.8-0.3,7.7-3c1.2-1.7,1.8-1.5,2.9,0.3c1.1,1.8,2.3,3.5,3.5,5.3c0.2-0.1,0.5-0.1,0.7-0.1c0.5-1.4,1-2.8,1.5-4.4
	c0.4,0.4,0.9,0.6,1.1,1c0.9,1.6,1.9,0.3,2.8,0.1c0.3-0.1,0.4-1.1,0.4-1.7c0.1-1.2-0.4-2.7,0.1-3.6c0.8-1.6,0.1-3.2,0.6-4.7
	c0.1-0.2-0.2-0.5-0.2-0.8c-3.4,1.6-1.6,5.8-4.2,8.3c-0.1-1-0.3-1.6-0.3-2.1c0.2-1.5,0.4-3,0.8-4.4c0.7-2.8,0.9-5.8,2.9-8
	c2.7-3,5.8-5.6,8.5-8.5c1.9-2.1,3.8-4.3,5.4-6.7c2.5-3.7,4.6-7.6,8.1-10.5c0.5-0.4,0.7-1.1,1.1-1.7h-0.1h0c-0.8,0.3-1.6,0.7-2.9,1.2
	c1.3-3.1,3.9-4.1,5.6-6c0.4,0.7,0.4,0.7-0.9,2.4c-0.6,0.8-1.2,1.6-1.8,2.4c0,0,0,0,0,0v0c0.6-0.3,1.3-0.4,1.8-0.9c1-0.8,2-1.8,3-2.7
	c2-2,4.1-4,6.1-6.1c1.6-1.7,3.2-3.5,4.8-5.2c0.4-0.4,1-0.4,1.6-0.5c-0.1,0.5,0,1.1-0.2,1.6c-2,4.6-4.3,9.2-6,13.9
	c-1.1,3.1-1.6,6.4-2.4,9.7c-0.1,0.6,0.1,1.3,0.3,1.9c0.8,2,0.1,4.4-1.8,5.3c-0.6,0.2-1.3,0.1-1.9,0.1c-0.5,0-1.1,0-1.5,0
	c-0.8,0-1.6,0.2-2.3,0c-1-0.2-2.5,1-2.2,2c0.9,4.2,2.9,7.7,6.7,9.7c2.3,1.2,4.9,1.7,7.4,2.4c1.1,0.3,2.6,0.9,3.5,0.4
	c2.5-1.2,5.2-0.7,7.8-1.8c4-1.6,8.1-2.9,12.2-4.4c0.5-0.2,1.4-0.3,1.8,0c0.4,0.3,0.5,1.1,0.5,1.8c-0.1,3.3-0.4,6.5-0.5,9.8
	c-0.1,5-0.1-3.9-0.4,1.1c-0.2,4-0.8,8-1,12c-0.7,11.3-1.4,8.9-2.1,20.3c-0.2,2.3-0.2,4.6-0.3,6.8c-0.5,8.2-1.3,16.4-1.4,24.6
	c-0.2,9.4-1.4,18.7-2.3,28.1c-0.1,1.1,0.3,2.4,0.7,3.6c0.5,1.2,1.3,1.4,2.1,0.2c1.1-1.7,2.2-3.5,3.4-5.2c0.3-0.4,0.9-0.6,1.5-1.1v6
	c0.2,0,0.4,0,0.5,0c0.4-2.6,0.8-5.3,1.2-8.2c-0.1-0.1-0.6-0.5-0.8-1c-0.4-1.6-1.2-2.4-2.8-1.3c-0.7-1.7-0.1-3.9,1.6-5.6
	c-0.1,1.2-0.3,2.1-0.4,3.6c0.7-0.4,1.4-0.6,1.5-1c0.5-2.2,1.2-4.3,1.4-6.5c0.6-6.8,1.1-13.7,1.6-20.5c0.2-2.3,0.1-2.3-2.2-2.2
	c-0.4,0-0.7,0-1.1-0.2c-0.4-0.1-0.9-0.3-1.2-0.6c-0.1-0.1,0.1-0.9,0.3-0.9c0.4-0.1,0.9,0,1.3,0.2c1.2,0.7,2,0.3,2.5-0.9
	c0.5-1.3,1.1-2.5,1.5-3.8c0.2-0.4,0.2-0.9,0.2-1.4c-0.1-1.8-0.4-3.6-0.5-5.4c0-0.3,0.2-0.7,0.3-1v-0.2c0,0,0,0.1,0,0.1
	c0.1-0.1,0.1-0.2,0.2-0.4c0.2-0.6,0.6-1.3,0.4-1.8c-0.3-0.9,0-2,0-2.9c-0.2,1.2-0.4,2.4-0.6,3.5c0,0.1,0,0.3-0.1,0.4
	c-0.1-2.9-0.1-5.6-0.1-5.6c0.6,0.5,0.7,1.1,0.7,1.7c0.1-1,0.3-2,0.6-2.9c0.5-2.1-0.6-4.3,0.7-6.4c0.4-0.6,0.1-1.7,0.2-2.6
	c0.1-0.6,0.1-1.1,0.3-1.7c0.1-0.3,0.4-0.6,0.4-0.9c0.1-1.9,0-3.8,0.1-5.6c0.3-4.8,0.6-9.6,1-14.3c0.2-2.3,0.8-4.6,0.9-6.9
	c0.1-3,0,7.8,0.9,4.9c0.1-0.3,0.1-0.6,0.1-0.9c0.4-4.9,0.6-9.8,1.2-14.7c0.2-1.6,1-3.1,2.6-4.1c2-1.1,4-2.3,5.5-3.9
	c1.9-1.9,4.1-2.4,6.5-3c1.2-0.3,2.7-0.9,3.2-1.9c1.9-3.2,5-4.7,8-6.3c1.1-0.6,2.2-1.4,3.5-1.8C741.9,232.7,742.7,230.6,741.2,228.8z
	 M711.4,198.7c0.3-0.1,1,0.7,1.5,1.1c-0.6,0.7-1.3,1.3-2.2,2.3c-0.6-0.9-1.1-1.5-1-1.7C710.2,199.7,710.7,199,711.4,198.7z
	 M677.8,97.8c1-1.9,2.1-3.7,3.2-5.5c0.2-0.3,0.8-0.5,1.1-0.8c0.1,0.5,0.6,1.1,0.4,1.4c-0.7,1.3-1.5,2.6-2.4,3.8
	c-0.6,0.9-1.3,1.7-2,2.6c-0.1,0-0.3,0-0.5,0.1C677.7,98.9,677.5,98.2,677.8,97.8z M693.9,114.4c0.5,0.1,1.1,0.9,1.1,1.4
	c0,0.4-0.7,1.1-1.2,1.3c-1.4,0.4-2.6,0.4-3.5-1.2c-0.4-0.8-1.3-1.3-2.4-2.3C690.2,113.9,692.1,114,693.9,114.4z M675.1,123.2
	c1.1-3.2,3.5-5.4,6.2-7.3c2.6-1.9,5-1.5,7,0.9c0.3,0.4,0.9,0.6,1.3,0.9c0.3,0.2,0.6,0.5,0.9,0.9c-0.4,0.3-0.6,0.6-0.9,0.7
	c-4.2,2-8.4,4-12.6,5.9c-0.7,0.3-1.5,0.2-2.2,0.3C674.8,124.7,674.8,123.9,675.1,123.2z M663.3,108.9c-0.2-1.3-0.5-2.5-0.8-4
	C664,105.5,664.5,107.3,663.3,108.9z M656.9,121c-0.9,0.8-1.9,1.7-2.8,2.5c-0.2,0.2-0.7,0.2-1,0.4c0.1-0.4,0-1,0.2-1.2
	c1.5-1.4,3.1-2.7,4.7-4.1c1.1-1,2.3-2,3.5-2.9c0.3-0.2,0.8-0.6,1-0.6c0.3,0.2,0.5,0.7,0.6,0.8c0,2-1.1,3-2.4,3.1
	C658.9,119.1,657.9,120.1,656.9,121z M568.4,189.4c-0.3,0.5-0.6,1.1-0.8,1.6c-0.2,0.6-0.1,1.5-0.4,1.7c-1,0.3-2.3,0.9-3.1,0.5
	c-2.1-1-2.1-2.1-0.5-3.8c0.7-0.7,1.3-1.6,1.6-2.5c0.4-1.8,1.8-1.9,3-2c1.6-0.2,1.4,1.3,1.9,2.7C569.5,188.2,568.9,188.7,568.4,189.4
	z M552.6,258.7c-0.7,1.7-1.7,1.6-3.1,0.5c-3.5-2.8-5.4-6.5-5.4-11c0-1.4,0.7-3,1.5-4.1c1.1-1.5,2.7-2.7,4.2-3.9
	c0.4-0.3,1.4-0.4,1.6-0.1c2.2,2.4,3.2,5.4,3.9,9.5C554.6,252.1,553.8,255.5,552.6,258.7z M582.6,183.7c-0.6-1-1.3-1.6-1.3-2.3
	c-0.2-3,1.9-6.3,5.1-7.3c1.4-0.4,2.7-1.3,4.1-1.8c0.4-0.2,1,0,1.5,0c0,0.5,0.1,1-0.1,1.3c-1.5,2.5-2.9,5.1-4.7,7.3
	C586.2,182,584.5,182.6,582.6,183.7z M585.9,222.6v5.6c-0.2,0-0.3,0-0.5,0c-0.1-0.8-0.4-1.6-0.3-2.3c0.2-3.1,0.2-6.2,0.8-9.2
	c0.3-1.9,1.6-3.7,1.2-5.8c0-0.2,0.4-0.6,0.6-0.7c0.2-0.1,0.7,0.2,0.7,0.4c0.3,1.4,0.8,2.9,0.7,4.3c-0.2,2.2-0.6,4.3-1,6.5
	C587.8,222.4,587.6,223.4,585.9,222.6z M596.9,242.9c-2.2,3-4.4,5.8-6.6,8.8c-0.3-0.1-0.6-0.2-0.8-0.3c-2.3-5.1,0.1-10.3-0.8-15.9
	c1,0.4,1.6,0.6,2.1,0.9c1.9,1.3,3.7,2.6,5.5,3.9C597.3,240.9,597.6,242,596.9,242.9z M699.2,235.4c-0.4,2.6-3.2,2.4-4.7,3.9
	c-0.2,0-0.5,0-0.7,0c-0.1-0.7-0.5-1.7-0.2-2.2c1.5-2.7,3.2-5.2,4.9-7.8c0.1-0.1,0.3-0.1,0.7-0.3C700,231.2,699.5,233.3,699.2,235.4z
	 M707,182.3c-0.1,0.4-1,0.8-1.5,1.1c-0.2-0.1-0.4-0.2-0.6-0.3c-0.3,1.4-0.6,2.8-0.9,4.2c-0.1,0-0.3,0.1-0.4,0.1
	c-0.1-0.4-0.4-0.7-0.4-1.1c0-1.6,0.3-3.2,0.1-4.8c-0.1-1.3-0.7-2.5-1-3.8c-0.5-1.9,0.2-2.8,2.1-3.1c1-0.1,1.6,0.2,2.2,1.3
	C707.8,178,707.4,180.2,707,182.3z M645,122.1c-1.6,0.3-2.2,1.7-3.1,2.8c0.1,0.1,0.2,0.2,0.3,0.3c1.1-0.9,2.2-1.7,3.3-2.6
	C645.2,122.4,645.1,122.2,645,122.1z M256,146.2c-2.2-1-4.7-1.2-6.7-2.8c-0.5-0.4-1.2-0.4-1.9-0.6c-3.8-1-7.3,0.8-10.8,1.7
	c-4.1,0.9-8.2,2.5-12.3,3.7c-1.5,0.5-3.2,0.6-4.8,0.9c-0.1-0.2-0.2-0.4-0.2-0.6c3.8-2.5,5.7-6.8,9.8-9.1c2.7-1.5,5.1-3.5,7.7-5.2
	c1.2-0.8,2.5-1.5,3.7-2.4c0.3-0.2,0.7-0.8,0.6-1.1c-0.4-1.4-0.6-3.2-1.6-4c-3-2.8-6.7-4-10.8-3.6c-2,0.2-4.1,0.6-6.1,0.2
	c-1.9-0.4-2.5,0.3-2.8,1.7c-0.6,2.3-2,4-3.7,5.5c-1.5,1.3-2.9,2.8-4,4.3c-0.6,0.7-0.3,2-0.9,2.8c-1.4,2.1-2.8,4.2-4.5,6.2
	c-2.1,2.5-4.5,4.7-6.6,7.2c-1.6,1.8-2.8,3.8-4.4,5.6c-0.4,0.5-1.2,0.6-1.8,0.9c-0.2-0.5-0.6-1-0.5-1.4c0.5-1.7,1-3.4,1.7-4.9
	c0.8-1.7,2.5-3.3,2.5-4.8c-0.1-1.7,0.9-2.5,1.7-3.4c1-1.2,2.4-2.3,4.3-2c-0.2,0.7-0.2,1.2-0.3,1.8c0.1,0.1,0.2,0.1,0.4,0.2
	c1.1-1.4,3.3-1.5,4.1-4c-1.3,0.4-2.2,0.7-3.1,1c-0.2-0.1-0.3-0.2-0.5-0.3c1.9-1.1,1.9-2.5,1-3.9c-0.4-0.6-0.8-1.2-1.2-1.7
	c-0.5-0.7-1.3-1.2-1.6-2c-0.7-2.1-1.8-4.3-0.4-6.6c0.3-0.6,0.3-1.4,0.4-2.1c0.2-2,0.8-3.8,2-5.4c0.8-1.1,1.4-2.7,1.3-4
	c-0.2-1.8,0.4-2.7,1.8-3.6c0.7-0.4,1.2-1.1,2-1.9c-0.9,0.2-1.5,0.3-2.1,0.5c0.2-1.5,1.1-2,2.5-1.9c1.3,0,3,0.3,4-0.3
	c1.5-1,3-1,4.6-1c3.4,0,6.8-0.2,10.1-1.5c2.2-0.9,4.3-3.1,7-1.3c0,0,0.2-0.1,0.4-0.2c0-0.2,0.2-0.4,0.1-0.6
	c-0.8-4.8-1.6-9.7-2.4-14.5c0-0.2-0.2-0.3-0.3-0.5c-1.1-1.6-2.6-3.1-3.1-4.9c-0.7-2.5-2.5-3.9-4.1-5.4c-3-2.9-6.7-3.3-10.6-2.9
	c-1.4,0.2-2.8,0.4-4.2,0.7c-0.9,0.2-1.7,0.5-2.5,0.7c-1.4,0.2-2.8,0.3-4.2,0.4c-0.2,0-0.3-0.3-0.5-0.4c-0.6-0.5-1.3-1-1.9-1.6
	c-1.1-1.1-2.2-2.4-3.4-3.6c-0.9-0.9-1.7-1.7-2.6-2.4c-0.9-0.8-2.1-1.3-2.8-2.2c-0.6-0.8-1-1.8-0.9-3.2c0.2-2.2-1.6-3.3-3.4-4.3
	c-2.4-1.3-7.6-1.2-9.7,0.5c-0.3,0.2-0.5,0.5-0.7,0.8c-0.2,0.2-0.3,0.7-0.5,0.7c-2.1,0-2,1.8-2.7,3c-0.1,0.2-0.2,0.6-0.4,0.8
	c-2,2-1.3,4.7-1.6,7c-0.3,1.8,0.9,3.5,1.5,5.3c0.8,2.5,0.7,5.5,0.4,8.2c-0.1,2-0.9,4-1.9,5.7c-0.6,1-2.1,1.5-3.2,2.2
	c-1.5,0.9-3.1,1.9-4.7,2.7c-1.7,0.9-3.8,1.4-5.1,2.7c-1.7,1.7-3.9,2.2-5.7,3.6c-2.5,1.9-5.1,3.6-7.7,5.3c-2.2,1.5-4.3,3.4-6.8,4.2
	c-3.6,1.2-6.9,2.8-9.1,5.9c-1.6,2.3-3.2,4.3-6.4,4.1c-0.5,0-1.6,1-1.5,1.3c0.2,0.9,0.6,2,2,1.9c0.8,0,1.7-0.1,2.5,0.1
	c0.5,0,1.1,0.2,1.4,0.6c1.3,1.8,2.5,3.7,3.7,5.6c0.2,0.3,0,0.8,0,1.2c-0.1,2.9,1.1,5.5,2.9,7.6c1.6,1.9,4,3.1,6.2,4.6
	c1.2,0.8,2.7,0.7,3.9-0.2c0.9-0.8,1.9-1.7,2.6-2.7c1-1.6,1.6-3.5,2.8-4.9c1.8-2,2-5.1,4.8-6.3c0.1,0,0.3-0.2,0.2-0.2
	c-0.4-1.7,1.2-1.9,2-2.6c1.3-1.2,2.6-2.4,4.1-3.2c1.7-0.9,3.6-1.4,5.4-2c0.4-0.2,1-0.1,1.5-0.2c-0.1,0.9-0.4,1.6-0.1,2.1
	c1,1.9,1.5,3.8,1.1,6c-0.1,0.5-0.1,1,0.1,1.4c0.9,1.9-0.2,3-1.5,3.9c-4.4,2.9-8.9,5.8-14.2,6.9c-1.1,0.3-2.1,0.9-1.3,2.5
	c0.6,1.2-0.6,4.8-1.7,5.7c-1.2,1-1.8,2.2-1.2,3.8c1.3,3.8,2.9,7.4,5,10.8c2.3,3.6,9.1,4.8,11.7,2c0.8-0.8,1.7-2.2,2.4-2.1
	c1,0.2,1.7,1.5,2.6,2.3c0.2,0.2,0.3,0.4,0.4,0.6c1.4,1.6,1.2,2.4-0.8,3.3c-0.9,0.4-1.8,1-2.5,1.8c-1,1.2-2,1.7-3.5,1.6
	c-0.7,0-2,0.3-2,0.6c-0.2,1.9-1.9,2.3-3.1,3.1c-1.7,1-3.3,2.1-5.2,3.3c-1-0.5-1.9-0.1-2.3,1.4c-0.1,0.4-0.5,0.7-0.8,0.9
	c-3.7,2.9-7.5,5.6-11.2,8.6c-3.5,2.9-6.9,5.9-10.2,9.1c-1.5,1.4-2.4,3.5-3.9,4.8c-1.4,1.3-3.5,1.8-5.1,2.9c-2.2,1.6-3.7,3.8-3.9,6.4
	c-0.1,2.1,0.5,4.2,1,6.4c0.7,3.2,2.9,5.2,5.7,6.6c0.7,0.4,1.6,0.4,2.3,0.9c0.9,0.6,1.6,0.9,2.6,0.2c0.6-0.4,1.4-0.7,2.1-0.7
	c2.4,0,2.8-0.4,3.1-2.7c0.1-1,0.4-2.6,0.9-2.7c2.6-0.7,2.6-2.7,2.8-4.7c0.2-2.1,0.8-3.9,2.6-5.3c0.4-0.3,0.7-0.8,1.1-1.2
	c1.7-1.8,3.1-3.9,5-5.3c8.3-6.1,16.4-12.6,25.7-17.1c1.4-0.7,2.3-2,3.5-3.1c0.5-0.4,0.9-1,1.4-1.3c3.6-1.5,7.2-3,10.9-4.5
	c1.7-0.7,3.3-1.5,5-2.1c0.8-0.4,1.9-0.4,2.6-0.9c2.1-1.5,4-3.3,6.1-4.8c3.9-2.9,7.8-5.8,12.6-6.7v0c-3.7-1-6.6,2.1-10.2,2.3
	c0.2-1.6,0.8-2.5,2.2-2.8c0.7-0.2,1.3-0.7,2-1c0.2-0.1,0.6-0.3,0.8-0.3c2.5,0.1,4.7-1.2,7.1-1.7c0.4-0.1,0.8-0.3,1.1-0.6
	c1.1-1.2,2.3-1.6,4-1.8c2.8-0.3,5.5-1.4,8.2-1.9c2.7-0.4,5.5-0.4,8.2-0.6c0.1,0.2,0.1,0.5,0.1,0.7c-1.8,0.5-3.5,1-5.3,1.6
	c-5.1,1.5-10.3,3.2-15.5,4.7c-1.1,0.3-2.3,0.3-2.8,1.6h0l0,0c0,0,0,0,0,0c0.9-0.2,1.9-0.5,2.8-0.7c1.9-0.4,4-0.6,5.8-1.3
	c4.5-1.8,9.1-2.8,13.9-3.5c4-0.6,8.3,0.3,12-2.1c2.1-1.4,5.2-0.7,6.8-3.5c0.7-1.4,1.7-5.8,0.9-7.2
	C256.8,146.5,256.4,146.4,256,146.2z M162.2,178.5c0.1,0.2,0.2,0.4,0.4,0.5c-2.8,1.8-5.6,3.7-8.6,5.7
	C154.3,182.9,160.4,178.7,162.2,178.5z M161.9,182c-1.3,0.8-2.7,1.7-4,2.5c-0.2-0.2-0.3-0.5-0.5-0.7c1.3-0.9,2.6-1.8,3.9-2.7
	C161.5,181.4,161.7,181.7,161.9,182z M136.9,197c1.9-3,14.4-12.3,16.4-12.1C148,189.2,142.7,193.5,136.9,197z M149.4,190.1
	c0,0-0.1,0.1-0.1,0.1c-0.1,0-0.2,0.1-0.3,0.2c-1.3,1.3-2.6,2.6-3.9,3.8c-0.5,0.4-1.2,0.6-2,0.8c1.7-1.9,3.7-3.4,6-4.6
	c0.1-0.1,0.1-0.1,0.2-0.2C149.3,190.2,149.4,190.2,149.4,190.1c1.6-1.4,3.2-2.7,4.8-4.1c0.2,0.2,0.3,0.4,0.5,0.6
	C153.2,188.3,151.7,189.7,149.4,190.1z M157.5,188.7c-0.2-0.3-0.3-0.7-0.5-1c2.8-1.4,5.5-2.8,8.3-4.2c0.1,0.2,0.3,0.5,0.4,0.7
	C162.8,185.5,160.3,187.4,157.5,188.7z M163.2,181.1c0.3-2,1.2-2.4,2.5-1.9c0.1,0.2,0.2,0.4,0.3,0.5
	C165.1,180.1,164.4,180.5,163.2,181.1z M164.1,177c1.3-0.7,2.5-1.3,3.8-2c0.1,0.2,0.2,0.5,0.3,0.7
	C166.9,176.1,166.2,178.1,164.1,177z M173.8,179.7c-0.2-0.3-0.3-0.7-0.5-1c1.6-0.7,3.2-1.4,4.8-2.1c0.1,0.2,0.2,0.4,0.3,0.7
	C177,178.1,175.4,178.9,173.8,179.7z M215.6,136.5c-0.2,0.1-0.9-0.5-1.2-0.7c-0.1-2.1,3.6-4.8,5-4.1c0.3,0.1,0.7,1.4,0.5,1.5
	C218.5,134.5,217.1,135.6,215.6,136.5z M252.5,155.4c-0.7-0.1-1.4-0.3-2.1-0.5c0.1-0.3,0.3-0.8,0.4-0.8c0.9-0.1,2-0.5,2.6,0.9
	C253,155.2,252.7,155.4,252.5,155.4z M441.8,153.4c-0.9-0.3-1.3-0.4-1.7-0.5c-0.3-0.1-0.6-0.2-1-0.3c0.7-0.5,1.3-0.6,1.9-0.8
	c2.9-0.7,2.9-0.7,4.5,1.9c0.8,1.2,1.8,1.5,2.6,0.4c0.9-1.4,1.6-3,2-4.6c0.3-1.2,0.5-1.3,1.4-0.6c0.2,0.1,0.5,0.2,0.8,0.3
	c-0.3-0.9-2.5-2.2-3.6-2.1c-2.6,0.2-3.6-0.5-4.7-2.8c-0.3-0.6-0.6-1.2-1-1.8c-1,0.9-1.7,2.1-2.6,2.3c-2.7,0.6-5.5,0.9-8.3,1.2
	c-3.2,0.4-6.5,0.4-9.6,1c-3.2,0.6-6.4,1.6-9.6,2.4c-1.8,0.5-3.7,0.8-5.6,1.2c-3.4,0.8-6.8,1.8-10.1,2.6c-1.2,0.3-2.4,0.4-4.3,0.7
	c0.6-1,1.1-1.6,1.4-2.3c0.6-1.4,1.7-2.8,1.7-4.2c0-4.1,0.8-7.8,4-10.6c1.2-1,1.7-2.2,1.3-3.8c-0.1-0.5,0.1-1.2,0.3-1.7
	c1.7-3.8,3.3-7.7,5.1-11.4c1.9-3.9,3.8-7.7,4.7-11.9c0.7-3.2,2.1-6.2,3.1-9.4c0.4-1.3,0.8-2.7,0.8-4.1c0-2.4-0.5-4.7-0.5-7.1
	c0-4.9-2.2-8.7-5.3-12.2c-0.8-0.9-1.7-1.6-2.7-2.3c-1.7-1.1-3.5-2.3-5.4-3.2c-1.4-0.7-3.2-0.6-4.3-1.4c-2-1.6-4.2-2.2-6.6-2.4
	c-1.1-0.1-2.3,0-3.4-0.1c-4.6-0.3-9.1,0.5-13.4,1.9c-5.3,1.7-10.4,4.2-15.6,6.4c-4.5,1.8-9,3.6-13.4,5.5c-2,0.8-4.1,1.6-6.1,2.4
	c-1.7,0.7-3.4,1.3-5.1,1.9c-0.2,0.1-0.3,0.5-0.4,0.8c-0.3,1-0.7,2-0.7,3c0,1.8-1.2,2.3-2.5,2.4c-1.2,0.1-2.5-0.1-3.7-0.3
	c-1.4-0.2-2.4-0.1-3,1.4c-0.2,0.6-1.2,1.5-1.7,1.5c-2.4-0.2-3.8,1.3-5.2,2.7c-2.7,2.6-5.3,5.3-7.9,8c-0.8,0.8-1.5,1.8-2.3,2.7
	c-0.7,0.7-1.8,4.3-1.7,5.2c0.3,1.7,0.4,3.5,0.5,5.2c0.3,2.3-0.6,4.7,0.3,7c1.6,4,3,8.1,4.8,12.1c0.6,1.3,1.3,2.9,3.4,2.4
	c0.2-0.1,0.8,0.5,1,0.8c0.4,0.7,0.7,1.4,1,2.1c1,2.2,2.1,4.4,5.2,4.3c0.5,0,1.1,0.5,1.6,0.8c1.4,0.9,2.9,1.7,4.2,2.7
	c1.5,1,3.1,2,4.4,3.1c1.1,1,2.1,2.2,3.1,3.4c1.7,2,3.4,4.1,5,6.1c0.2,0.2,0.2,0.4,0.3,0.7c0.8,2.1,1.9,3,3.8,2.9
	c1.7-0.1,3.5-0.3,3.5-2.7c0-0.3,0.3-0.6,0.5-0.7c2-0.7,2.3-2.5,3.1-4.1c1.1-2.1,5.4-3.1,6.6-1.2c1.3,2,1.5,4.6,2.3,7.4
	c-1.2-1-2-1.6-3.2-2.6c0.1,1,0.2,1.7,0.1,2.3c0,0.6-0.3,1.1-0.5,1.7c-0.1-0.1-0.3-0.1-0.5-0.2c-0.1-0.8-0.1-1.6-0.2-2.5
	c-0.2,0-0.3,0-0.5-0.1c-0.1,0.5-0.2,1.1-0.4,1.6c-0.3,0.6-0.6,1.5-1.1,1.7c-4.8,1.7-9.6,3.3-14.4,4.8c-4.4,1.4-8.8,2.6-13.2,3.9
	c-1.3,0.4-2.6,0.6-3.9,1c-1.8,0.6-3.6,1.3-5.4,1.9c-1.1,0.4-2.4,0.5-1.4,2.2c0.1,0.2-0.1,0.6-0.3,0.8c-0.8,0.9-1.6,2-2.6,2.7
	c-0.5,0.3-1.5,0.3-2.1,0c-0.3-0.1-0.5-1.4-0.3-1.7c1.5-1.7-0.1-2.9-0.8-4.3c-0.5,2-1.1,3.9-1.7,6c-1.7-1.3-3.2-1.3-5-0.6
	c-1.2,0.5-2.7,0.8-4.1,0.9c-1.2,0-2.4-0.7-3.6-0.6c-0.9,0-2.3,0.4-2.7,1c-1.1,1.6-1.9,3.4-2.5,5.2c-0.9,3,1.2,5.4,4.1,5.1
	c0.3,0,0.6,0.4,0.9,0.5c-0.3,0.3-0.6,0.8-0.8,0.8c-1.2-0.2-2.4-0.5-3.6-0.9c-0.9-0.3-1.8-0.8-2.6-1.2c-0.2,0.1-0.4,0.2-0.6,0.3
	c0.5,3.2,0.8,6.4,1.7,9.5c0.4,1.3,2,2.3,3.3,3.7c0.2-0.6,0.3-1.1,0.5-1.6c1.3-2.5,0.8-6.1,4.5-7c0.9-0.2,1.8-0.4,2.7-0.2
	c4,0.7,6.2-3,9.5-4.1c2.6-0.9,3.9-4.1,6.8-5.2c1-0.4,1.9-1,3.1-0.9c0.5,0,1.1-0.1,1.6-0.2c2.9-1,5.8-2.2,8.7-3.1
	c6-1.8,12.2-3.3,18.2-5.1c3.7-1.1,7.4-2.5,11.1-3.7c3.2-1,6.3-2.3,9.6-2.7c5.4-0.7,10.3-3,15.4-4.5c2.1-0.6,4-1.4,6.1-2
	c3-0.8,6-1.4,9-2.1c5.3-1.2,10.6-2.5,15.9-3.5c7.8-1.5,15.6-2.8,23.4-4.3C438.9,155.2,440.1,154.2,441.8,153.4z M317.4,138
	c-1.1-0.6-2.4-1-3.1-1.9c-0.8-1.1-1.1-2.6-1.2-4c-0.3-2.3-0.2-4.5-0.2-6.8c0-1,0.1-2-1.1-2.5c-0.4-0.1-0.5-0.7-0.8-1.1
	c0.1-0.1,0.2-0.2,0.3-0.3c1.3,0.7,2.9,1.2,3.8,2.3c0.8,0.8,1,2.4,1.1,3.6c0.2,1.3,0,2.7,0.1,4.1c0.1,0.6,0.3,1.3,0.6,1.8
	C318.6,135.3,318.6,135.3,317.4,138z M342.3,113.5c-2.9,1.7-5,0.5-5.3-2.7c-0.2-1.5-0.9-3.1-1.7-4.4c-1.7-2.7,0.3-7.6,3.3-8.1
	c0.2,0,0.4-0.1,0.5-0.1c3.4-1.6,6.7-3.3,10.1-4.9c3.9-1.9,7.5-4.3,12.2-4.3c3.8,0,7.2-2,10.7-3.2c3.2-1.1,6.5-1.5,9.6,0.1
	c0.9,0.5,1.3,2,1.7,3.2c0.5,1.7,0.7,3.5,0.9,4.6c0,3.1-0.6,3.9-3.1,4.4c-0.3,0.1-0.6,0.1-0.8,0.3c-2.6,2.3-5.8,2.8-9.1,3.3
	c-2.4,0.4-4.8,1.2-7.2,2c-0.6,0.2-1.1,1.1-1.7,1.4c-1.6,0.6-3.3,1.1-5,1.7c-4.8,1.5-9.4,3-13.6,5.8
	C343.3,112.9,342.9,113.2,342.3,113.5z M370.1,132.1c-2.1-0.3-2.7,1.2-3.6,2.5c-0.2,0.4-0.7,0.6-1.1,0.9c-1.6,1-3.2,1.8-4.7,3
	c-2.1,1.5-4,2.4-6.8,1.9c-2.1-0.4-4.5,0-6.8,0.1c-1.6,0.1-2.9-0.4-3.7-1c0.4-1.5,0.7-2.8,1.2-3.9c0.1-0.4,0.6-0.9,0.8-0.9
	c2.2,0.6,2.7-1.6,4.1-2.3c1.4-0.8,2.8-1.7,4.2-2.6c0.6-0.5,1.1-1.2,1.6-1.9c1.8-2.9,4.9-3.6,7.8-4.5c1.1-0.3,2.1-0.9,3.1-1.2
	c0.8-0.2,1.6-0.2,2.4-0.2c0.3,0,0.7,0.2,1,0c1.2-0.8,2.3-1.8,3.6-2.4c1.5-0.8,3.2-1.6,4.8-1.7c2.3-0.2,2.6,2.3,1.9,4.5
	c-0.3,0.7-1,1.2-1.4,1.8c-0.5,0.7-0.8,1.9-1.6,2.2c-1.9,0.9-1.8,4-4.4,4.1c-0.4,0-0.7,0.4-1,0.7
	C371.1,131.4,370.5,132.2,370.1,132.1z M380.2,156.4c-1.5,0.1-3.3,0.5-4.6-0.1c-1.1-0.5-2.2-2-2.7-3.2c-0.6-1.4-0.7-3.1-0.5-4.6
	c0.1-0.8,1.1-1.5,1.9-2c0.5-0.3,1.2-0.5,1.9-0.4c0.7,0.1,1.8,0.3,2,0.7c1.5,3.2,3.8,5.7,6.3,8c0.2,0.2,0.3,0.4,0.6,0.9
	C383.2,155.9,381.7,156.2,380.2,156.4z M407.5,196.7c-0.2-0.3-0.4-0.8-0.3-1.1c0.2-1.3-0.6-1.8-1.5-2.4c-1.8-1.4-4-1.8-6.1-2.1
	c-1.7-0.2-2.4-0.9-2.3-2.7c0.1-0.9-0.4-2.1-1-2.9c-0.8-1.1-1.9-2-3-2.7c-0.6-0.4-1.5-0.4-2.2-0.2c-1.2,0.2-2.3,0.9-3.4,0.9
	c-4.5,0-8.7,0.9-12.8,2.7c-1.7,0.8-3.4,1.3-5.2,2c-2,0.8-4,1.7-6,2.5c-3.3,1.4-6.6,2.7-9.9,4.1c-1.5,0.6-2.9,0.5-4.5,0.2
	c-3.4-0.5-6.3,0.6-8.5,3.4c-1.3,1.6-2.8,2-4.4,0.5c-1.4-1.2-2.5-2.6-4.2-2.1c-0.4-1.5-0.7-2.9-1.2-4.1c-0.2-0.5-1.1-1.2-1.6-1
	c-0.6,0.2-1.3,1-1.4,1.5c-0.2,1.9-0.1,3.7-0.3,5.6c-0.2,1.7,1,4-1.8,4.9c-0.3,0.1-0.5,0.8-0.5,1.2c0.1,1.1-0.6,1.3-1.3,1.1
	c-1.4-0.4-2.3,0.4-3.4,1.1c-0.6,0.4-1.4,0.7-2.1,0.7c-2.6,0.1-3.6,1-3.7,3.6c0,0.3-0.2,0.7-0.3,1c-0.5,1.7,0.9,4.7,2.1,5.7
	c0.8,0.6,1.1,1.8,1.4,2.8c0.2,0.8,0.1,1.8,0.2,2.6c0.2,1.4,0.5,2.8,0.9,4.2c0.8,3.1,1.3,6.3,2.7,9.2c2.2,4.6,4.6,9.1,7.5,13.3
	c1.8,2.7,3.2,5.9,6.4,7.5c0.4,0.2,0.5,0.9,0.8,1.3c0.7,1.3,1,2.7,2,3.7c2.7,2.8,7,1.9,10,4c0,0,0.1,0,0.2,0
	c3.7-0.3,7.5-0.4,11.1-0.8c0.6-0.1,1.2-0.7,1.8-1.1c0.5-0.4,1.1-0.7,1.5-1.1c1.4-1.2,3.1-2.2,4-3.7c1.1-2,2.9-2.7,4.5-3.9
	c1.7-1.2,3.9-1.9,5.9-2.8c0.8-0.4,1.8-0.7,2.5-1.1c3.1-1.9,5.2-2,7.7,1.5c0.7,0.9,1.2,1.8,2.4,0.6c0.2-0.1,0.8,0,1.1,0.1
	c0.6,0.2,1.2,0.4,1.9,0.7c0.1-1,0.2-1.7,0.2-2.5c1.3,0.5,2.4,0.8,3.8,1.3c0.1-0.3,0.3-0.7,0.5-1.2c0.7-2.7,1.3-5.5,2.3-8.1
	c1.2-2.9,2.5-5.6,3.2-8.7c1-4.1,2.7-8,3.7-12c0.8-2.9,1.1-6,1.6-8.9c0.3-1.4,0.6-2.9,0.7-4.3c0.3-2.1,0.8-4.3,0.5-6.3
	C409.3,201.5,409.1,198.9,407.5,196.7z M379.7,232.2c-1.5,1.6-1.7,3.8-2.3,5.7c-0.8,2.2-2.6,2.7-4.3,3.5c-0.6,0.3-1.2,0.5-1.8,0.7
	c-0.3,0.1-0.7,0.3-0.9,0.2c-1.3-0.9-2.5-1.9-3.8-2.9c-0.1-0.1-0.1-0.5-0.1-0.8c0.1-0.6,0.4-1.1,0.7-2.1c0.1,0,0.6-0.1,1.3-0.3
	c-0.4-1-0.8-1.9-1.1-2.9c1.4-0.6,2.5-1.7,4.4-1.2c1,0.2,2.2-0.6,3.6-1.1c0.7,0.9,2,0.4,3.3,0c0.4-0.1,0.9-0.1,1.3-0.1
	C379.9,231.3,379.9,231.8,379.7,232.2z M386.9,208c-1.5-0.5-2.4-0.1-3.3,1.1c-0.6,0.8-2,1.1-3.1,1.4c-1.7,0.6-3.4,1-5.1,1.6
	c1,2.2,1.1,2.2,2.8,0.9c0.7-0.5,1.2-1.6,2.4-0.7c0.2,0.1,0.9-0.5,1.9-0.5c-0.2,0.5-0.2,1.1-0.6,1.4c-0.5,0.4-1.1,0.7-1.8,0.9
	c-4.4,0.9-8.4,3-12.5,4.7c-2.3,0.9-4.5,1.7-6.8,2.6c-0.4,0.2-0.8,0.4-1.2,0.7c0.1,0.2,0.2,0.3,0.2,0.5c5.6-2.1,11.3-4.2,16.9-6.2
	c0.1,0.1,0.2,0.2,0.2,0.3c-0.3,0.4-0.5,1-0.9,1.1c-2.5,1.2-4.6,3.1-7.5,3.5c-0.5,0.1-1.1,0-1.4,0.3c-1.9,2.2-4.6,1.7-7,2.4
	c-1.8,0.5-1.7-1.3-2.5-2c-0.5-0.5-0.8-1.2-1.4-1.6c-1.4-0.9-1.4-1.6-0.1-2.5c0.8-0.6,1.4-1.4,2.3-1.8c1-0.5,2-0.7,3.1-1
	c0.5-0.2,1.2-0.1,1.4-0.4c1.3-2.2,3.6-2.8,5.7-3.8c3.5-1.6,7.1-3.2,10.6-4.7c1.6-0.7,3.3-1.2,4.9-1.8c2.1-0.6,2.8-0.1,2.7,2
	C387.1,206.9,387,207.4,386.9,208z M389.8,190.6c-3.4-0.4-6.3,1.1-9.2,2.3c-6.2,2.4-12.3,5.1-18.6,7.4c-2.6,1-5.5,1.1-8.4,1.7
	c-0.3-3.7-0.1-3.8,3-5.2c1.3-0.6,2.6-0.7,4-0.7c1.8-0.1,3.5-1.3,5.3-2c1.1-0.4,2.2-1.1,3.3-1.2c1.7-0.2,3.1-0.7,4.1-2.2
	c0.2-0.3,0.9-0.3,1.4-0.6c0.5-0.3,1.2-0.7,1.3-1.1c0.4-1.1,0.9-1.1,1.5-0.4c0.8,0.9,1,0.5,1.7-0.2c0.5-0.6,1.7-0.5,2.6-0.6
	c0.4-0.1,0.9,0.2,1.1,0c1.7-1.9,3.9-1.8,6.1-1.9c0.3,0,0.5,0.1,0.7,0.1c2.1-0.1,2.6,0.3,2.7,2.2C392.4,189,390.9,190.7,389.8,190.6z
	 M396,190c-0.6-0.4-1.3-0.7-1.8-1.2c-0.2-0.2,0.2-0.9,0.3-1.4c0.7,0.6,1.4,1.1,2.1,1.7C396.5,189.4,396.3,189.7,396,190z
	 M396.8,282.4c-0.3-0.6-0.6-1.3-1-1.8c-1-1.6-2.5-3-2.4-5.2c0.1-0.9-0.4-2.5-0.8-2.5c-2.1-0.4-2-2.2-2.7-3.4
	c-0.5-1.1-0.9-2.1-1.3-3.2c-0.1-0.3-0.4-0.6-0.6-0.8c-0.9-1.1-1.9-2.2-3.2-3.7c-1,0.2-2.1-1.9-3.9-1c-0.1,0-0.3-0.3-0.5-0.4
	c-0.9-0.3-1.9-1-2.5-0.8c-2.9,1-6,1.3-8.7,3.2c-1.2,0.9-3.4,0.6-3.9,2.7c0,0.1-0.1,0.1-0.2,0.1c-3.5-0.4-1.6,3.7-3.6,4.5
	c0,0,0.3,0.6,0.3,0.9c0.1,0.9,0,1.7,0.1,2.6c0,0.7,0,1.3,0.1,2c0.1,0.4,0.2,0.9,0.4,1.3c0.3,0.7,0.4,1.6,0.9,2.1
	c1,0.9,1.2,1.8,0.4,2.8c-1.8,2.2-2.3,5.5-5.2,6.9c-0.2,0.1-0.3,0.5-0.4,0.8c-0.6,0.9-1,1.9-1.7,2.5c-1.3,0.9-2.7,1.7-4.2,2
	c-0.8,0.2-2-0.3-2.8-0.7c-2-1.1-3.9-1.9-6.2-2c-2.4,0-4.8-0.8-7.1-0.5c-3,0.4-5.8,1.5-8.3,3.4c-0.3,0.2-0.5,0.5-0.7,0.7
	c-0.9,1.4-1.7,2.8-2.7,4.2c-0.6,0.8-1.1,6.1-0.4,6.7c1.7,1.4,0.6,3.1,0.9,4.7c0.4,2.6-0.5,5.3,1.9,7.5c1.1,1,1.5,2.7,2.3,3.9
	c1.3,1.9,2.5,4.3,4.3,5.4c2.5,1.5,4.2,4.1,7.2,5c1.9,0.6,2.4,1,3.5-0.8c1-1.7,2.3-2.8,4.2-3.2c1.3-0.2,2.7-0.2,4-0.3
	c1.2,0,1.6-0.4,1-1.5c-0.2-0.3-0.3-0.7-0.3-1c-0.4-2.8-0.8-5.6-1.1-8.5c0-0.5,0.7-1.3,1.2-1.6c2.1-0.9,3.5-0.3,5,1.5
	c1.4,1.7,2.8,3.4,4.2,5c0.2,0.2,0.5,0.4,0.7,0.5c1.4,1,2.8,1.9,4.2,2.9c2.8,2.2,5.7,4,9.3,4.1c1.3,0.1,2.6,0.3,4,0.4
	c0.3,0,0.6,0,0.9,0c1.4-0.1,2.3-1.1,3.4-1.5c1.7-0.7,1.8-1.9,2.3-3.2c0.7-2.4,1.5-4.8,2.5-7.2c0.6-1.3,1.7-2.4,2.2-3.7
	c0.9-2,1.3-4.2,2.2-6.2c1.3-3.2,1.1-6.1-0.2-9.2c-0.6-1.3-0.7-2.9-0.9-4.4c0-0.4,0.5-1.3,0.8-1.3c1.8,0,3.5,0.3,5.2,0.4
	c0.5,0,1.2-0.1,1.4-0.4c1.6-1.9,1.1-3.9-0.9-6.4C398.2,285.8,397.6,284,396.8,282.4z M382.6,317.5c-1.2-0.7-2.6-1-1.6-2.8
	c0.2-0.3-0.3-1-0.3-1.5c0-1.4,0.3-2.7,1.5-3.6c0.4-0.3,0.6-0.7,1-0.9c0.5-0.3,1.1-0.4,1.7-0.6c0,0.5,0.1,1.1,0.1,1.6
	c0,0.1-0.1,0.3-0.4,0.8c0.4,0.2,0.9,0.5,1.6,0.9C384.9,313.5,383.8,315.4,382.6,317.5z M471,288.1c-0.5,1.7-1.1,3.9-1.7,6.1
	c-0.9,3.2-1.7,6.4-2.5,9.6c-0.4,1.4-0.1,3.3-0.9,4.1c-1.4,1.3-1.5,4-4.2,4c-0.5,0-1.1,0.8-1.5,1.4c-0.3,0.4-0.1,1-0.4,1.3
	c-0.9,1.1-0.3,3.4-2.5,3.4c-1.5,0-3,0-4.5-0.4c-1.9-0.5-3.7-1.1-5.5-1.8c-3.8-1.6-7.5-3.5-9.9-7c-0.8-1.2-1.1-2.7-0.5-4.4
	c0.7-1.9,1.1-3.9,1.6-5.9c0-0.1,0.1-0.3,0-0.4c-1.5-2.6,1.2-5.2-0.1-7.8c-0.4-0.8,0.1-2,0.1-3c0-0.4-0.1-0.9-0.4-1.1
	c-1.5-1.1-1.2-2.5-0.5-3.8c0.8-1.4,1.6-2.8,2.8-3.8c0.6-0.6,2-0.7,2.9-0.5c1.5,0.3,2,0.1,2.1-1.4c0.2-2.7,2.5-4.8,5.3-4.9
	c1.3-0.1,2.6-0.8,3.8-0.6c3.3,0.5,6.7,1.4,9.3,3.5c2.3,1.8,4.3,4.1,5.7,6.6C470.4,283.1,470.4,285.4,471,288.1z M321,315.8
	c0.1,0.5-0.5,1.1-1.1,1.9c-0.8-0.9-1.3-1.4-1.7-1.9c0.5-0.5,1-1.2,1.6-1.3C320.1,314.5,321,315.3,321,315.8z M369.9,215.6
	c0,0.2,0.1,0.5,0.2,0.7c-1.4,0.6-2.8,1.2-4.2,1.8c-0.1-0.2-0.1-0.4-0.2-0.6C367.1,216.9,368.5,216.3,369.9,215.6z M223.2,331.8
	c0.1-0.1,0.2-0.3,0.4-0.5c0.5-0.1,0.9-0.2,1.6-0.3c-0.6-1.1-1-1.9-1.5-2.8c-1-1.9-2-3.9-3.1-5.8c-2-3.8-0.8-8-1.2-11.9
	c-0.2-2.5,0.6-5.1,0.8-7.6c0.1-0.6,0.2-1.3,0.3-1.9c0.3-2.4,0.5-4.8,0.8-7.1c0.3-1.9,1.1-3.8,0.1-5.7c-0.4-0.7-0.3-1.6-0.3-2.5
	c-0.1-1.6,0-3.3-0.1-5c-0.1-2.7-0.4-5.5-0.4-8.2c-0.1-5.3,0.1-10.6-0.1-15.9c-0.1-2.7-0.9-5.4-1-8.2c-0.3-6.6-0.4-13.1-0.5-19.7
	c0-1.1,0.3-2.2,0.5-3.5c1.2,0.2,2.2,0.5,3,0.6c0.4-1,1.1-1.8,1-2.5c-0.1-1.5-0.4-3.2-1-4.6c-1.2-2.4-1.9-4.8-1.5-7.6
	c0.4-2.9-1.4-4.5-3.7-5.9c-0.8-0.5-1.4-1.3-2.1-2c-1.3-1.3-2.4-2.7-3.8-3.9c-0.9-0.7-1.7-1.2-1.2-2.6c0.1-0.4-0.6-1.5-1.1-1.7
	c-2-0.6-4-1.3-6.1-1.5c-2.1-0.1-4.5-0.2-6.5,0.6c-3.1,1.3-5.9,3.3-8.8,5c-1.1,0.6-2.2,1.2-3.2,1.9c-3.4,2.1-5.8,5.4-8.3,8.3
	c-1.6,1.8-3.7,2.5-5.7,3.5c-2.2,1.1-4.9,1.4-6.3,3.9c-0.6,1.2-1.8,2.2-1.9,3.4c-0.3,2.2-1.1,4.7,0.8,6.7c0.1,0.1,0,0.2,0,0.3
	c-0.2,2.8,0.9,5.7-1,8.3c-0.1,0.2,0,0.5,0,0.7c-0.1,1.3-0.3,2.6-0.2,3.9c0.1,1.3,0.4,2.6,0.7,4c0.4,1.7,1.1,3.5,1.1,5.3
	c-0.1,3-0.9,5.9-1.2,8.9c-0.4,4.3-0.5,8.6-0.8,12.9c-0.2,2.7-0.6,5.3-0.8,8c-0.2,1.7-0.4,3.4-0.4,5.1c0,2.4,0.3,4.9,0.4,7.4
	c0.1,1.7,0,3.4,0,5.2c0,1.8,0.1,3.5-1.5,4.9c-0.6,0.6-0.7,1.9-0.6,2.9c0.1,3.6,0.4,7.3,0.6,10.9c0.1,1.3,0.2,2.6,0.5,3.9
	c0.5,2.6,1.3,5.2,1.8,7.8c0.2,1-0.1,2.3,0.3,3.2c1.2,2.9,2.7,5.7,4.1,8.6c0.3,0.7,0.5,1.5,0.8,2.2c0.8,2,1.9,3.7,3.8,5
	c2.4,1.6,5,2.7,7.2,4.8c1.8,1.7,3.5,4.7,7.1,3.4c0.1,0,0.4,0.1,0.5,0.2c2.7,2,5.6,1.3,8.4,0.5c1.9-0.5,2.5-1.5,2.2-3.5
	c-0.1-0.7,0-1.5-0.2-2.2c-0.6-2.4-1.2-4.8-1.9-7.2c-0.1-0.5-0.6-1.1-1-1.2c-1.4-0.5-1.5-1.7-1.7-2.9c-0.1-0.6-0.4-1.1-0.5-1.7
	c-0.2-2.2-2.2-4.1-1.1-6.5c1-2.2,0.4-4-1.1-5.6c-0.2-0.2-0.2-0.6-0.1-1c0.2-1.4-1.2-3.7-2.5-3.9c-1.7-0.2-2.6-1.3-3.2-2.8
	c-0.3-0.8-0.7-1.6-1.1-2.5c-0.9-2-2.2-3.9-2.8-6c-0.7-2.9-0.5-6-1.5-8.7c-1-2.8-1.1-5.6-1.1-8.4c-0.1-2.6,0.7-5.1,1.3-7.6
	c0.3-1.2,1.2-2.2,1.4-3.4c0.4-2,0.6-4.1,0.8-6.1c0.1-0.9,1-1.8,0-2.7c-0.1-0.1,0.5-0.9,0.8-1.4c0.4-0.7,1-1.4,1.2-2.1
	c0.3-1.3,0.3-2.6,0.6-3.9c0.5-2.1,1.2-4.2,1.9-6.2c0.6-1.5,1.4-3,2.4-4.3c0.7-1,1.8-0.7,2,0.6c0.2,2.2,2.5,3.9,1.3,6.3
	c-0.1,0.1,0.3,0.4,0.8,1.1c0.4-1.2,1-2,0.9-2.7c-0.2-3.1,0.8-6.4-1-9.6c2.2,0.9,4.2,1.6,6.1,2.4c0.4,0.1,0.7,0.7,0.6,1.3
	c-0.2,1.6-0.8,3.2-0.6,4.8c0.5,5.4-1.6,10.4-2.3,15.5c-0.3,1.8-0.7,3.5,1.1,5.4c-1,0.1-2.1,0.5-2.2,0.3c-0.5-0.8-0.8-1.8-0.9-2.7
	c-0.2-1.2,0.1-2.4-0.1-3.6c-0.1-0.5-0.7-1.2-1.2-1.3c-1.8-0.4-2.3-1.1-2-3c0.1-0.8,0.1-1.7,0.2-2.6c-0.3,0-0.6-0.1-0.9-0.1
	c-0.3,1.3-0.7,2.7-0.9,4.1c-0.2,0.9,0,1.9-0.2,2.8c-0.6,2.2,0,4.1,1.8,5.6c0.9,0.8,1.7,1.5,1.4,3c-0.4,2.2-0.8,4.5-0.7,6.7
	c0.2,1.9,0.7,4.1,1.9,5.4c2.3,2.6,3.2,5.8,4.5,8.8c0.4,0.9,0.3,2.2,0.9,2.8c1.8,1.8,3.8,3.4,5.9,4.9c2.1,1.5,2.9,3,1.9,5.4
	c-0.5,1.2-0.7,2.2-0.1,3.5c0.2,0.7-0.3,1.6-0.5,2.4c-0.2,0.7-0.7,1.5-0.6,2.1c0.3,2,0,2.5-2,2.9c-3.1,0.6-5.7-0.9-8.5-1.9
	c-0.7-0.2-1.4-0.5-2.3-0.8c1.1,1.7,2.1,2.8,2.5,4.2c0.4,1.3,0.1,2.7,0.1,4c0.2,0,0.3,0.1,0.6,0.1c0.4-1.8,2.8-2.5,1.9-5
	c0.9,0.2,1.8,0.4,3,0.8c-0.9,0.8-1.4,1.2-1.8,1.6c1.6,1.5,3.2,3,4.8,4.5c0.6,0.5,0.8,1.7,1.4,1.9c2.3,0.8,2.6,2.8,2.9,4.5
	c0.7,3.4,2.7,5.8,5.9,6.6c0.4,0.1,0.8,0.6,1,1.1c1.5,2.7,5.1,4,7.9,2.6c1.7-0.8,3.1-2.1,4.7-3c1.6-0.9,2.4-2.3,2.4-4
	c0-0.3,0.1-0.6,0.2-0.9c1-2.4-0.2-5.9-2.3-7.3C224.8,333.8,224,332.7,223.2,331.8z M198.4,246.7c-0.6-0.4-1.2-0.9-1.5-1.5
	c-0.9-1.8-1.7-3.7-2.5-5.6c0-0.1,0.1-0.2,0.2-0.4c0.5,0.3,1,0.5,1.4,0.8c0.5,0.3,0.8,0.7,1.3,0.9c0.6,0.3,1.7,0.4,1.7,0.8
	c0.3,1.5,0.4,3,0.4,4.5C199.5,246.5,198.7,246.9,198.4,246.7z M201.6,276.7c-3.2-0.7-3.4-1.2-2.3-5.5
	C201.5,271.2,202.7,274.1,201.6,276.7z M203.9,233.9c-0.4,1.1-1.2,2.1-2,3.1c-0.5,0.7-1.7,0.3-2.1-0.7c-0.8-2.3-1.9-4.2-4.6-4.6
	c-1.3-0.2-2.7-0.7-3.7-1.5c-1.7-1.2-2.9,0.1-4.3,0.3c-1.4,0.2-2.8,0.5-4.2,0.8c0.3-2.5,0.5-4.3,0.7-6.3c4-2.3,7.7-5.4,11.2-8.8
	c0.3-0.3,1.1-0.6,1.3-0.5c1.7,1.4,4.2,1.7,5.1,4.1c0.2,0.7,1.3,1,1.7,1.7C205,225.4,205.3,229.7,203.9,233.9z M126.5,243.6
	c0.8,1.1,0.9,2,0,3.1c-1.2,1.4-2.2,2.8-1.9,4.9c0.1,0.4-0.3,0.9-0.6,1.2c-4.5,4.9-9,9.9-13.6,14.7c-2.2,2.3-4.8,4.4-7,6.7
	c-1.6,1.6-2.9,3.5-4.3,5.3c-0.8,1.1-0.9,2.2,0.4,3.1c1,0.7,2.1,2.1,3,1.9c0.9-0.1,1.7-1.6,2.2-2.3c-0.5-1.5-1-2.7-1.3-3.8
	c2.8-3.2,5.4-6.1,8.1-9c0.3,0.2,0.5,0.3,0.7,0.5c-1.4,2.4-2.7,4.8-4.1,7.2c0.1,0.1,0.2,0.2,0.3,0.2c2.6-2.8,5.3-5.5,8-8.4
	c0.6,1.1,1,2,1.4,2.9c-0.6,2.1-1.4,4.4-2.1,6.8c-0.1,0.3-0.2,0.8,0,1c1.1,1.7,0.3,3.1-0.5,4.7c-0.8,1.4-1.2,3.1-1.7,4.7
	c-0.2,0.6-0.4,1.2-0.7,1.6c-1.5,1.8-1.1,3.1,0.2,5.1c1.1,1.5,2.1,2.9,3.4,4.1c0.4,0.4,0.5,1.4,0.4,2.1c-0.4,1.9-1,3.8-1.6,5.6
	c-0.8,2.6-3.3,3.9-5.9,3.4c-1.3-0.3-2.6-0.2-3.3,1.4c-0.2,0.4-0.8,0.9-1.3,1c-2,0.4-4.1,0.6-5.7,2.1c-0.4,0.4-1.5,0.3-2.3,0.3
	c-0.8,0-1.5-0.2-2.2-0.3c-0.5-0.1-1-0.2-1.5-0.3c-0.1,0-0.3-0.3-0.4-0.3c-1.6,0-3.2-0.2-4.6,0.3c-1.2,0.4-1.6,0.1-2.4-0.6
	c-1.3-1.2-2.7-2.3-4.1-3.3c-0.5-0.4-1.3-0.4-2.2-0.2c-1.8-2.1-3.6-4.2-5.4-6.2c-0.7-0.7-1.9-1.1-2.4-1.9c-0.6-0.8-1.2-2.1-1-2.9
	c0.7-2.5,1.9-4.8,2.9-7.2c1-2.4,1.7-4.9,3-7.2c1.4-2.5,0.7-5,0.8-7.4c0-1.5,0.1-2.9,0.9-4.3c1.7-3.2,0.4-6.6,0.1-9.9
	c-0.3-2.8-1.1-5.6-1.6-8.5c-0.2-0.9-0.1-1.9-0.1-3.1c2.4,0,3.2,1.5,3.9,2.8c1.6,3.3,3.1,6.8,4.9,10.1c1.7,3,3.5,5.9,5.5,8.8
	c1.1,1.7,2,1.8,3.4,0.3c6.4-6.5,12.7-13.1,19.1-19.7c2.8-2.8,5.6-5.8,8.5-8.5C123,245.3,124.9,244.6,126.5,243.6z M111.5,206
	c0.1,0.3,0.4,0.6,0.4,1c0.3,1.5,1.8,3-0.2,4.6c-0.6,0.5-0.7,1.7-1.1,2.6c-0.5,1.4-1.2,2.8-1.9,4.4c0.9,1,2.1,2.1,3.1,3.4
	c0.5,0.6,0.7,1.6,0.7,2.4c-0.2,3.9-3,6.7-6.8,7.2c-0.8,0.1-1.6,0.4-2.4,0.6c-3.1,0.9-6.1,0.7-9.1,0c-0.5-0.1-0.9-0.3-1.3-0.6
	c-1.1-0.8-1.9-1.7-3.3,0.1c-0.7,0.9-2.8,0.9-4.4,1.1c-1.6,0.2-3.2,0-4.8,0.2c-1,0.2-2.1,0.7-2.9,1.3c-1.2,0.9-1.9,0.3-2.2-0.7
	c-0.6-1.8-0.7-3.7-1.5-5.5c-0.6-1.5-0.4-2.7,0.1-4.2c0.4-1.3-0.6-3-0.4-4.4c0.3-3.6,0.8-7.1,1.4-10.7c0.7-4.5,1.6-9,2.1-13.6
	c0.2-1.4-0.8-2.9-0.7-4.4c0.1-1.4,0.5-2.9,1.2-4c1-1.5,1-3,0.5-4.6c-0.4-1.3-0.7-2.7-1-4.1c0.2-0.1,0.5-0.2,0.8-0.3
	c0.3,0.5,0.6,1,0.8,1.5c0.3,0.7,0.5,1.5,0.9,2.1c0.2,0.3,1.1,0.5,1.3,0.4c1.9-1.6,4.1-0.9,6.1-0.7c0.6,0.1,1.2,0.9,1.7,1.4
	c0.5,0.5,1,1.1,1.5,1.8c1.4,2.1,2.6,4.2,1.6,7.1c-0.6,1.6-0.5,3.4-0.5,5.1c0,0.3,0.3,0.8,0.6,1c0.2,0.1,0.7-0.1,0.9-0.2
	c1.3-1.3,2.5-2.6,3.8-3.9c0.3-0.3,0.7-0.5,1.1-0.4c1.7,0.4,3.8,0.5,5.1,1.5C106.6,197.5,110.4,200.8,111.5,206z M70.9,154.3
	c-0.5-0.2-1.1-0.3-1.6-0.2c-1.8,0.3-3.5-0.3-4.1-2c-0.8-2.3-1.4-4.6-2.1-7c-0.1-0.3,0-0.8-0.2-1c-2.3-2.6-2.5-5.9-2.9-9.1
	c-0.1-0.7,0.2-1.6,0.6-2.3c1.6-2.4,3.2-4.6,4.8-7c1.1-1.6,1.9-3.3,3.2-4.7c0.8-0.9,2.1-1.3,3.1-2c1.9-1.3,3.7-2.9,5.8-3.9
	c2.2-1,4.4-2,7.1-1c2.2,0.8,4.6,1.4,6.9-0.2c0.9-0.6,5.9,0.7,6.5,1.6c1.3,1.9,2.7,3.8,3.7,5.8c0.6,1,0.6,2.4,0.6,3.6
	c0.1,2.9,1.4,5.2,3.6,7.1c0.6,0.5,1.2,1.5,1.1,2.3c-0.3,3-0.7,5.9-1.2,8.9c-0.1,0.4-0.6,0.7-1,1c-2.2,1.7-2.9,4.4-4,6.7
	c-0.6,1.1-0.1,2.8,0.1,4.1c0.2,1.4-0.7,3.5-1.7,4.4c-2.1,1.8-4.4,1.7-6.9,0.9c-0.9-0.3-1.9-0.3-2.8-0.7c-0.9-0.4-1.8-1-2.3-1.8
	c-1-1.8-1.8-3.8-2.5-5.7c-0.2-0.4,0.2-1,0.4-1.5c0.2-0.7,0.9-1.7,0.6-2.1c-1.4-2.7-0.9-5.3-0.4-8c0.2-1.2-0.1-1.9-1.3-2.3
	c-3.2-1.2-5.3-3.5-6.6-6.6c-0.4-1-1.2-0.9-1.9-0.4c-1.9,1.5-3.8,3.1-5.5,4.8c-0.4,0.3-0.5,1.1-0.6,1.6c-0.1,0.5,0,1.3-0.3,1.5
	c-2,1.5-0.4,2.7,0.4,3.6c1.2,1.5,2.7,2.7,3.2,4.7c0,0.2,0.2,0.5,0.3,0.6c2.2,1.8,4.5,3.5,6.7,5.2c0.6,0.4,1,0.9,1.8,1.6
	C77.6,156.4,74.3,155.8,70.9,154.3z M192.1,265.1c-0.1-1.3-0.1-2.7-0.2-4c0.2,0,0.4,0,0.7,0c0,1.3,0,2.7,0,4
	C192.4,265.1,192.2,265.1,192.1,265.1z"/>
<g>
	<defs>
		<path id="SVGID_1_" d="M636.3,267c3.1,0.7,4.2-0.5,3.6-4.2C637.9,262.8,636.5,264.3,636.3,267z M625.4,297.3
			c-0.3-0.1-1.1,0.6-1,0.8c0.1,0.5,0.6,1,1.1,1.8c0.5-0.7,1-1.2,0.9-1.5C626.3,297.9,625.8,297.4,625.4,297.3z M703.6,317.7
			c0.4-1.2,0.9-2.5,1.2-3.8c0.1-0.6-0.2-1.5-0.6-1.7c-0.4-0.2-0.6-0.5-0.7-0.7c0,0,0,0.1,0,0.1C703.5,314.7,703.5,317.8,703.6,317.7
			z M637.6,193.7c0-1.1-0.5-1.7-1.7-1.7c-1.4,0-1.9,0.7-2,2.6c0.4,0.3,1.1,1,1.8,1.1C636.9,195.7,637.6,194.9,637.6,193.7z
			 M649.5,118.1c-1.4,1.2-2.5,2.2-3.9,3.5C647.6,121.5,649.2,120.1,649.5,118.1z M741.2,228.8c-1.4-1.6-2.9-3.2-4.4-4.7
			c-1.3-1.4-2.7-2.7-4.8-2.9c-0.3,0-0.5-0.2-0.8-0.4c-2.3-2.4-3.5-2.8-6.1-1.4c-2.9,1.7-5.9,1.5-9,1.1c-1.3-0.1-1.4,0.6-1.3,1.5
			c0.1,0.4,0.4,0.9,0.7,1.2c1,1.3,0.7,2.2-0.6,2.9c-1.6,0.9-3.3,1.7-4.9,2.5c-1.4-2-0.8-4.2-1.2-6.3c-1.2-6.3,1.6-9.6,6.4-12.7
			c2.1-1.3,3.3-3.4,3.9-5.5c0.8-0.4,1.6-0.5,1.9-0.9c1.1-1.6,2.2-3.3,2.8-5.1c0.3-0.9-0.4-2.2-0.7-3.3c-0.3,0-0.5,0-0.8,0
			c-1,1.8-2,3.7-3,5.5c-1-0.8-1.8-1.4-2.6-2c-0.7-0.5-0.7-0.9,0.1-1.5c1.8-1.5,3.6-3,5.3-4.7c1-1,0.9-2.8-0.4-3.4
			c-1.2-0.6-2.9-1.1-4-0.8c-1.7,0.5-3.3,0.7-5,0.6c-1.4-0.1-1.7-0.7-1.6-1.8c0.1-1.4,0.4-2.8,0.5-4.3c0-1.6,0.2-2.5,2-1.4
			c0.3,0.2,0.9,0.1,1.1-0.1c0.2-0.2,0.1-0.8,0-1.1c-0.2-0.5-0.7-1-0.6-1.4c0.4-1.1,1-2.2,1.6-3.2c2.2-3.5,1.6-5.6-2.1-7.5
			c-0.9-0.5-1.4-1-1.1-2.2c0.7-2.1-0.2-3.8-1.7-5.2c-0.9-0.9-1.6-2-2.4-2.9c-0.5-0.5-1-1.2-1.5-1.2c-1.2,0-3.7,2.7-4,3.9
			c-0.1,0.5-0.4,1.3-0.7,1.5c-2.7,1-3.1,3.7-3.6,5.8c-0.4,1.6-0.1,3.7,0.6,5.1c1.2,2.1,1.7,4.1,1.6,6.5c-0.1,3.5-0.1,7.1-0.2,10.6
			c0,0.7-0.5,1.6-1.1,2c-2.6,1.5-5.3,2.8-7.9,4.3c-2.3,1.4-4.4,3-6.5,4.6c-1.9,1.5-3.7,3-5.3,4.7c-3.2,3.2-6.1,6.5-9.3,9.7
			c-3.6,3.6-7.4,7.1-11.2,10.7c-0.7,0.6-1.5,0.9-2.3,1.4c0-0.8,0-1.6,0-2.4c0-0.2-0.1-0.3-0.1-0.5c-0.2-2.4-0.5-4.9-0.5-7.3
			c0.1-2.4,0-4.7-1.5-6.8c-0.9-1.3-2.1-3-0.2-4.8c0.9-0.8,1.4-2.3,1.5-3.6c0.2-2.4,1.6-4,3-5.7c1.8-2.3,3.9-4.4,5.7-6.7
			c0.9-1.1,1.6-2.4,2.3-3.6c0.5-0.7,1-1.1,1.9-0.6c1.3,0.5,2-0.6,1.8-1.5c-0.5-2.6,0.4-4.9,1-7.3c1.1-4.5,4.2-7.5,7.6-10.1
			c1.8-1.4,4.1-2.3,6.2-3.2c2.8-1.3,5.6-2.5,8.5-3.6c1.4-0.5,3-0.6,4.2-1.3c1.6-1,2.9-2.5,4.4-3.8c0.6-0.5,1.1-1,1.6-1.6
			c0.5-0.6,1.1-1.3,1.4-2c0.6-1.4,1-3,1.6-4.4c0.6-1.4,1.9-2.8,1.7-4c-0.4-1.9-1.3-4.2-2.7-5.4c-2.2-1.8-5.1-2.4-7.9-0.8
			c-1.6,1-3.1,2.2-4.7,3.4c-0.5-0.6-0.9-0.9-1-1.1c-0.6,0.9-1.2,1.7-1.6,2.6c-0.5,1.2-1.3,1-2.1,0.5c-0.8-0.5-1.6-1.1-0.7-2.3
			c0.3-0.4,0.3-1.1,0.4-1.6c-1.3,1-2.3,2-3.3,3.1c-0.1,0.2-0.1,0.6-0.1,0.9c1,2.8-1.2,4.2-2.6,6c-0.4,0.5-0.9,1.1-1,1.7
			c0,2.1,0,4.1,0.1,6.1c0.1,2.1-0.7,3.6-2.1,5.1c-2.8,2.9-5.6,5.9-8.4,8.7c-0.5,0.5-1.5,0.9-2,0.7c-0.6-0.2-1-1.2-1.1-1.8
			c-0.2-1.8,0-3.7-0.1-5.6c-0.2-2.6,0.7-4.6,3-6c1.7-1,3.2-2.2,4.9-3.3c-0.7-0.5-1.2-0.9-1.3-1c0.1-1.4,0.6-2.8,0.1-3.3
			c-0.4-0.6-1.9-0.4-3-0.6c-1.3-2.6-1.6-5.4-0.4-8.5c0.7-1.9,0.8-4.1,1.5-6c1.1-2.6,2-5.3,5-6.7c2.4-1.1,4.7-2.6,7.2-3.7
			c2-0.9,4.3-2.1,6.4-1.9c4,0.4,7.3-1.2,10.7-2.7c0.6-0.2,1.1-0.7,1.5-1.2c1-1.2,0.7-2.1-0.8-2.5c-1-0.2-2-0.3-3-0.6
			c-0.5-0.1-0.8-0.6-1.2-0.9c0.3-0.3,0.7-0.8,1.1-1c0.9-0.5,1.9-0.9,2.9-1.4c-0.9-1.7,0.2-2.9,1.2-4c0.6-0.7,0.9-1.3-0.1-1.6
			c-1.7-0.4-3.5-0.8-5.2-0.8c-2.3-0.1-4.6,0.1-6.9,0c-1.3,0-2.7-0.4-4-0.5c-0.8-0.1-1.6,0-2.6,0c1.2,3.2,0.9,3.8-1.9,4.6
			c-0.3,0.1-0.7,0.3-1,0.4c-1.1,0.5-2.1,1.1-3.2,1.3c-0.4,0.1-1.3-0.7-1.3-1.1c-0.1-1.2,0.2-2.5,0.3-3.7c0.1-1.2,0.6-1.7,1.8-2
			c1.2-0.3,2.3-1.2,3.3-1.9c0.8-0.5,1.7-1.6,2.3-1.4c1.5,0.4,1.4-0.5,1.7-1.3c0.2-0.5,0.3-1.2,0.7-1.5c1.8-1.4,3.6-2.7,5.4-4.1
			c0.3-0.2,0.6-0.6,0.6-0.8c-0.6-1.6,0.6-2.4,1.4-3.4c0.3-0.3,0.5-0.9,0.3-1.3c-0.5-1.2,0.2-1.8,1-2.5c0.6-0.6,1-1.6,0.9-2.4
			c-0.1-0.9-0.7-1.8-1.3-2.5c-0.7-1-0.7-1.5,0.7-1.9c0.4-0.1,1.1-1,1.1-1.4c-0.6-2.4-2-4.2-4.3-5.1c-3.1-1.2-6,0-8.7,1.4
			c-0.9,0.5-1.3,0.4-1.7-0.3c-1.4-2.5-3.4-4.3-5.8-5.9c-0.3-0.2-0.3-0.7-0.5-1c0.4-0.1,0.9-0.5,1.2-0.4c1.7,0.6,3.4,1.3,5.1,2.1
			c0.4,0.2,0.8,0.2,1.3,0.4c0-1.5-0.2-2.9,0-4.1c0.4-1.7,0.1-2.9-1.6-3.5c-1.9-0.6-3.9-1.2-5.9-1.4c-1.3-0.2-2.1-0.2-2.2-1.8
			c-0.1-1-0.8-1.9-1.2-2.9c0-0.1,0.3-0.4,0.3-0.4c-0.6-0.8-1-1.8-1.8-2.4c-0.3-0.2-1.2,0-1.8,0.3c-0.9,0.5-1.7,1.1-3,2
			c0.7,0.7,1.6,1.7,2.5,2.5c1.1,0.8,2.2,1.5,3.5,2.4c-1.6,1.2-2.8,2.6-4.3,3.1c-2.2,0.8-3.2,2.4-4.1,4.3c-0.3,0.7-0.9,1.3-1.5,1.7
			c-1.8,1-4.3,0.9-4.8,3.7c-1.8-2-2-3.2-0.6-5.3c-0.6-0.3-1.3-0.6-1.9-0.9c-0.1,0.7-0.4,1.4-0.4,2.1c0.1,0.8,0.3,1.7,0.5,2.5
			c0.4,1.8,0.8,3.6,1.1,5.4c0.4-0.4,0.5-0.9,0.6-1.3c0.1-0.5,0.2-0.9,0.3-1.3c2.9,0.3,3,0.2,4,2.6c0.6,1.4,0.7,2.9,0.9,4.4
			c0.1,0.5,0,1.1,0.1,1.6c1.1,3.1-0.2,6.2-3.1,7.8c-3.9,2-7.7,4.3-11.6,6.2c-2.2,1.1-4.5,1.9-6.9,2.6c-1.2,0.4-2.3-0.1-2.7-1.5
			c-0.5-1.8-1.2-3.5-2.9-4.6c-0.3-0.2-0.5-0.8-0.4-1c0.1-0.3,0.6-0.6,1-0.6c0.6-0.1,1.4,0,2.4,0c-0.8-1.5-1.7-2.3-3.2-2.7
			c-1.2-0.3-2.3-1.1-3.5-1.4c-1.2-0.3-2.9-0.8-3.6-0.2c-1.6,1.3-3.3,2.9-2.9,5.4c0.2,0.9-0.3,1.1-1.1,1.3c-1.6,0.5-3.2,1.1-4.5,2.1
			c-0.8,0.7-1.5,2.1-1.5,3.2c0,5.9,2,11,6.8,14.7c0.5,0.3,1.1,0.6,1.6,0.6c3.8-0.2,7.2,0.9,10.1,3.6c1.5,1.3,3.8,1,5-0.6
			c0.7-1,1.4-1.3,2.6-0.9c1.7,0.6,2.9-0.2,3-1.9c0.1-1.8,0.4-3.8-0.1-5.5c-0.9-3.1,0.6-5.1,2.7-6.6c2.8-2,5.6-4.4,9.5-4.6
			c1.8-0.1,3.4,0.7,3.5,2.4c0.2,2.4-0.4,4.4-2.4,6.2c-1.5,1.5-2.5,3.7-3.5,5.6c-1.1,2.1-1.7,4.4-3.1,6.2c-1.9,2.5-4.2,4.7-6.5,6.8
			c-3.2,2.7-6.7,5.2-10.1,7.7c0-0.2,0-0.3-0.1-0.5c-1.1-0.2-2.4-1-3.2-0.6c-1,0.6-1.9,1.9-2.3,3.1c-0.9,2.5-2.5,3.9-4.9,4.9
			c-2.7,1-5.3,2.1-7.8,3.4c-1.4,0.8-2.5,2.1-3.9,3c-3,2.1-3.4,3.8-0.8,6.2c2.6,2.6,4.8,6.8,9.8,5.4c0.3-0.1,0.7,0.2,1,0.2
			c2.6,0,5.3,0.6,7.5-1.3c1-0.9,1.7-2,2.7-2.9c1.1-1.1,2.3-2.1,3.7-2.9c1.2-0.8,2.6-1.1,3.9-1.8c0.5-0.3,0.8-0.7,1.2-1.1
			c-0.1-0.1-0.2-0.2-0.2-0.2c-1.1,0.5-2.2,1.1-3.6,1.8v-2.5c-1,0.9-1.6,1.6-2.3,2.1c-0.4,0.3-1.1,0.4-1.6,0.3
			c-0.3,0-0.5-0.5-0.6-0.7c-2.9,1.2-5.5,2.5-8.3,3.6c-2.1,0.8-2.8,0.3-3.5-2.2c2.2,0.1,3.8-0.9,5.1-2.6c0.4-0.5,1.1-1.1,1.7-1.1
			c1.4-0.1,2-0.7,2.1-2.1c0.1-1.6,1.3-2.1,2.8-1.7c0.5,0.1,1,0,1.5-0.1c0.9-0.3,1.7-0.7,2.6-0.9c0.4-0.1,0.9,0.3,1.4,0.4
			c-0.2,0.4-0.3,0.9-0.5,1.2c-0.5,0.7-1.1,1.3-1.7,1.9c0.3,0.3,0.5,0.5,0.8,0.8c0.6-0.8,1.1-1.7,1.8-2.4c1.2-1.3,2.3-2.8,3.7-3.8
			c2-1.5,3.7-3.1,6.2-4c2.4-0.9,4.5-2.9,6.8-4.3c0.4-0.2,0.9-0.2,1.3-0.2c0.1,0.4,0.2,0.9,0.2,1.3c-0.3,2.3-1.4,4-3.5,5.1
			c-0.6,0.3-1.5,1.1-1.4,1.4c0.8,2.1-1,1.6-2,1.9c0.3-0.5,0.6-1,1.1-2c-3.3,1.2-6.2,2.3-9,3.4c0,0.2,0,0.3,0.1,0.5
			c2.1-0.3,4.3-0.6,6.9-0.9c-1.1,0.9-1.9,1.6-2.7,2.3c0.1,0.1,0.2,0.3,0.3,0.4c2-1.2,3.9-2.5,5.9-3.6c0.4-0.3,0.9-0.3,1.4-0.4
			c0.1,0.5,0.4,1,0.3,1.5c-0.6,3.3-1.3,6.5-2.1,9.8c-0.4,2-0.9,4.1-1.5,6.1c-0.1,0.4-0.8,0.5-1.3,0.7c-0.8-2.3-4.2-1.4-4.9-3.8
			c-0.1-0.2-0.7-0.3-1-0.2c-2.1,0.4-4.3,0.8-6.3,1.3c-1.4,0.4-1.7,1.6-1.1,3c0.3,0.7,0.3,1.6,0,2.3c-0.9,2.5-2.8,4.2-5,5.6
			c-1,0.7-1.1,1.3-1.1,2.5c-0.2,2-0.1,3.7,1.2,5.3c0.2,0.2,0,0.7,0.1,1.1c0.6,3.3,0.4,7,4.8,8c0.4,0.1,0.9,0.5,1.1,0.9
			c0.9,1.4,2.2,1,3.1,0.3c2.1-1.5,3.6-3.6,6-4.9c2-1.1,3.6-3,5.6-4.7c0.9,2.1,1.6,4.1,2.4,5.9c0.4,1.1,0.3,1.9-0.7,2.7
			c-1.8,1.3-3.5,2.8-5.4,4.1c-3.3,2.2-5.5,5.3-7.7,8.5c-0.8,1.1-1.6,2.6-2.8,3.2c-3.7,1.9-6.9,4.1-9,7.9c-1.7,3.1-3.9,6-5.8,9
			c-1.4,2.3-2.7,4.7-4.3,7c-1.8,2.7-3.9,5.1-5.8,7.8c-0.8,1.1-1.7,1.4-2.9,1.1c-2.8-0.7-5.6-1.4-8.4-1.9c-1.8-0.4-3.8-0.2-5.7-0.7
			c-2.6-0.8-5.1-1.6-7.9-0.6c-0.4,0.2-1.7-0.5-1.6-0.8c0.2-2.8,0.3-5.6,1.1-8.2c0.6-2.1,1.1-4-0.1-6c-0.9-1.5-1.7-3.1-2.3-4.8
			c-0.5-1.4-0.6-3-1-4.5c-0.6-2.2-0.4-2.5,1.7-3.6c2.9-1.5,5.7-3.2,8.5-5c1.5-1.1,1.3-1.8,0.2-3.5c-0.5-0.7-0.7-2.1-0.4-2.9
			c1-2.4,2.2-4.8,3.5-7c0.4-0.8,1.4-1.4,2.2-1.9c0.6-0.5,1.4-0.6,1.9-1.2c2-2.4,4.1-4.6,7-6c1.5-0.7,1.3-1.4-0.1-2.5
			c-1.7-1.4-3.6-2.6-5.1-4.2c-1.2-1.4-1.7-3.4-3.3-4.7c-2.1-1.7-4-3.7-6.1-5.3c-2-1.4-4.4-1.8-6.8-1.4c-1.6,0.2-3.2,0.6-4.7,1
			c-1.7,0.4-2.2,0.1-2-1.5c0.2-2,1.1-4,1.1-5.9c0-4.1,2.8-6.4,5-9.1c0.3-0.3,0.8-0.6,1.2-0.7c2.5-0.5,4.7-1.7,6.6-3.4
			c2.9-2.6,3.3-7.9,0.6-10.2c-2.4-2-4.6-4.1-7.5-5.6c-2.6-1.2-4.9-1.2-7.4-0.7c-2.4,0.4-3.7-0.4-3.8-2.9c0-0.4-0.2-0.8-0.2-1.2
			c-0.4-3.3-0.8-6.5-1.2-9.7c-0.1-1-0.1-2.1-0.2-3.1h-0.2c-0.2,0.7-0.3,1.4-0.5,2.1c-2.2-1.2-2.5-4.8-0.6-7.3
			c0.3,1.2,0.5,2.3,0.7,3.3c0.2-0.8,0-1.6,0.2-2.1c0.4-1.2,0-1.8-0.9-2.6c-0.9-0.7-1.9-1.9-2-2.9c-0.3-2.6-0.4-2.9-3-3.2
			c-0.4-0.1-0.9-0.1-1.2-0.3c-2.2-1.3-4.4-0.8-6.4,0.2c-1.9,0.9-3.5,2.3-5.3,3.4c-3,1.7-3.7,4.8-5.2,7.4c-0.7,1.4-1.1,3-2.1,4.1
			c-1.6,1.8-2.1,4.1-2.5,6.2c-0.5,3.1-0.5,6.3-0.5,9.4c0,1.3,0.5,2.7,0.8,3.9c0.5,1.7,1,3.4,1.6,5c0.1,0.4,0.9,1,1.2,0.9
			c2.1-0.4,4.3-0.7,6.3-1.4c1.7-0.6,3.8-0.3,5.2-1.9c0.3-0.3,1.5-0.5,1.7-0.2c0.4,0.6,0.7,1.5,0.7,2.2c0,0.3-0.5,0.8-0.9,1.1
			c-2.9,2.2-5.8,4.4-8.8,6.4c-1.4,1-3.2,1.6-4.8,2.4c-1.2,0.5-2.1,0.3-2.3-1.2c-0.2-1-0.3-2.1-0.5-3.5c-0.5,0.7-0.8,1.1-1.1,1.5
			c-1,1.4-1.9,3-3.1,4.1c-1.6,1.4-3.6,2.3-5.4,3.4c-1.8,1.1-2,2.2-1.6,4.4c0.4,2.7,2.2,4.5,3.6,6.5c0.5,0.7,2.6,1.4,2.8,1.2
			c1.1-1.3,2.1-0.6,3.2-0.3c0.5,0.1,1.2-0.2,1.7-0.4c2.1-1.2,4.3-2.2,6.1-3.7c1.4-1.2,3.5-2.1,3.6-4.5c0-0.3,0.6-0.6,1-0.8
			c0.1,0,0.5,0.5,0.6,0.8c0.2,0.2,0.2,0.5,0.2,0.9c3.9-0.9,5.1,1.1,4.8,4.8c0.6-0.8,0.9-1.4,1.3-2c0.2-0.3,0.7-0.7,1.1-0.7
			c0.3,0,0.9,0.5,0.9,0.9c0.1,1.6,0,3.2,0.1,4.8c0,0.8,0.2,1.6,0.2,2.4c0,1.6,0.4,3.5-0.3,4.8c-0.7,1.3-2.5,2-3.7,3
			c-2.1,1.8-3.9,0.9-6-0.5c-1.8-1.2-3.8-2.3-5.9-2.9c-2.4-0.7-3.1-1.2-3.2-3.7c0-0.3-0.1-0.7-0.2-1.5c-1.4,0.8-2.6,1.5-3.8,2.1
			c-1.7,0.8-3.5,1.4-5.1,2.4c-3.6,2.2-5.2,5.8-6.8,9.5c-1.6,3.6-2.9,7.3-5,10.5c-3.8,6.1-8.3,11.9-12.1,18.1
			c-1.8,2.8-2.8,6.1-4.2,9.1c-0.6,1.2-1.1,2.4-1.8,3.6c-1,1.4-1.7,2.8-1,4.6c0.4,1.1,0.3,2.4,0.4,3.6c0,0.4-0.2,0.9,0,1.2
			c1.1,1.6,0.6,3.3,0.2,4.9c-1,3.9-2.1,7.8-3.3,11.7c-1.1,4.1-2.2,8.3-3.6,12.4c-1.5,4.6-3.3,9-4.9,13.5c-1.2,3.5-2.4,7-3.5,10.6
			c-0.8,2.8-1.7,5.6-2,8.5c-0.4,3.9-0.3,7.9-0.4,11.9c0,0.2,0,0.5,0.1,0.7c1.2,2.4,3,4,5.7,4.6c1.6,0.3,2.6-0.1,3.2-1.7
			c0.3-0.9,1-1.7,1.6-2.4c1.2-1.2,2-2.3,1.9-4.2c-0.8-9.4,0.2-18.6,3.9-27.5c0.8-1.9,1.3-4,2-6c1.1-3.3,2.4-6.5,3.4-9.8
			c0.5-1.5,0.1-3.4,0.9-4.6c2.1-3.4,2.7-6.9,3-10.7c0.2-2.5,1-4.9,1.6-7.3c0.2-0.9,1-1.7,1.5-2.6c0.5-1,0.8-2.2,1.4-3.3
			c0.9-1.6,2-3,3-4.6c0.5-0.8,0.7-1.9,1.4-2.6c2.4-2.5,4.8-5,7.3-7.4c2.1-2,4.3-3.9,6.6-5.7c1.5-1.1,3.2-2,4.8-2.8
			c0.3-0.2,1.4,0.2,1.5,0.6c0.8,1.9,1.6,3.7,2.1,5.7c0.2,0.6-0.2,1.7-0.8,2.2c-1.7,1.4-3.5,2.6-5.3,3.8c-2.4,1.7-4.9,3.3-7.2,5.3
			c-2,1.8-3.8,3.9-5.7,5.8c-0.2,0.2-0.4,0.5-0.4,0.8c-0.2,1.3,3.3,4.1,4.5,3.6c1.4-0.6,2-0.1,2.8,1c3.5,4.7,5.7,4.5,10.1,2.6
			c1.3-0.5,2.7-1.7,2.8-3.6c0-0.4,0.3-0.9,0.6-1.2c2.5-1.8,4.8-3.9,7.6-5.1c2.7-1.2,5-2.6,7.4-4.3c0.8-0.6,1.7-1.1,2.5-1.6
			c1.8-1.1,3.7-2,5.5-3.1c1.2-0.8,2.1-0.6,2.2,0.8c0.1,2.6,0.1,5.1-0.2,7.7c-0.3,3.4-1.2,6.7-1.4,10.1c-0.1,3.2,0.4,6.4,0.6,9.6
			c0.1,0.9,0.2,1.8-1.1,1.7c-1.7-0.1-3.1-1-2.9-2.1c0.3-1.1,0.8-2.1,1.1-3.2c0.2-0.7,0.3-1.5,0.5-2.2c-0.2-0.1-0.4-0.1-0.7-0.2
			c-0.6,1.3-1.2,2.5-1.7,3.8c-0.7,1.8-1.5,1.9-3,0.8c-1.5-1-3.3-2.5-4.8-2.3c-3,0.3-6.2,0.5-8.8,2.7c-0.3,0.3-1.4,0.3-1.8,0
			c-1.1-0.8-2-2-3.1-2.9c-4.1-2.9-8.4-4.2-13.3-1.9c-1.7,0.8-3.5,1.6-5,2.3c0.2,1.1,0.7,1.9,0.5,2.6c-0.6,2.5-1.4,4.9-2.1,7.3
			c-0.1,0.3-0.2,0.7-0.1,1.1c0.5,2.1,0.7,4.2,1.5,6.2c1.6,4,2.4,8.4,5.1,12c3.3,4.3,6.5,8.6,11.1,11.5c1.1,0.7,1.9,0.8,2.6-0.5
			c0.2-0.3,0.7-0.6,1-0.6c1.4,0.1,2.9,0.2,4.2,0.4c1.1,0.1,2.3,0.6,3.3,0.3c0.9-0.3,2.4-1.7,2.3-1.9c-1.1-2.2,0.9-3.6,1.4-5.3
			c0.2-0.6,1.3-1.4,1.8-1.2c1.7,0.6,2.3-0.5,2.6-1.6c0.5-1.8,0.9-3.7,0.9-5.6c0.1-3.9,0.4-4,4.5-5.2c0.4-0.1,0.9-0.1,1.3-0.2
			c1.3-0.3,2,0.1,2.6,1.3c1.1,2.3,2.1,4.6,3.4,6.7c1.2,2,2.8,3.7,4.6,5.1c0.2-0.1,0.4-0.3,0.6-0.4c-0.6-1.7-1.2-3.3-2-5.5
			c1,0.5,1.6,0.7,2.1,1c2.5,1.5,5,3.1,7.6,4.6c0.4,0.2,1,0.2,1.4,0.2c-0.1-0.4,0-0.9-0.2-1.3c-0.4-1-1-1.9-1.5-2.9
			c-0.6-1-0.5-1.8,0.7-2.5c1.7-1,3.2-2.4,4.9-3.5c0.2-0.2,0.7-0.3,1-0.3c2.7,0.5,3.1,0.3,4.3-2.3c0.7-1.6,1.5-3.3,2.6-4.7
			c1.1-1.5,2.6-2.8,3.8-4.2c0.6-0.6,1.1-1.2,1.8-1.9c0.5,0.7,0.8,1.1,1.1,1.6c1.7,2.5,0.8,4.9,0,7.4c-0.4,1.1-0.6,2.3-0.5,3.5
			c0.1,1,0.8,1.3,1.8,1.1c1.2-0.2,2.6-0.4,3.8-0.1c2.8,0.5,7.2-0.9,8.5-3.1c1-1.7,2-3.4,2.5-5.3c0.7-2.3,3.8-3.2,3.4-6
			c0-0.1,0.2-0.3,0.4-0.3c2.1-0.6,2.4-2.8,3.5-4.2c1.7-2.1,3.3-4.2,5-6.2c1-1.2,2.1-2.4,3.2-3.4c0.3-0.3,0.9-0.3,1.4-0.4
			c0,0.5,0.2,1,0,1.4c-1.6,4.2-3.2,8.5-5,12.7c-1,2.4-2.2,4.8-3.6,7c-2.2,3.2-4.9,6-7.1,9.1c-3.4,4.7-8.2,7.6-13.2,10.2
			c-2.4,1.2-5.1,1.8-7.7,2.7c-0.6,0.2-1.4,0.8-1.4,1.3c-0.3,2.5-0.5,5-0.5,7.5c0,0.5,0.6,1.5,1,1.5c2,0.2,2.1,1.7,2.6,3.1
			c0.2,0.5,0.5,1.1,0.9,1.5c1.2,1.4,2.1,1.2,3-0.3c0.4-0.7,0.8-1.4,1.1-2.2c0.3-1.2,1-1.5,2-1.1c3.5,1.2,5.8-0.3,7.7-3
			c1.2-1.7,1.8-1.5,2.9,0.3c1.1,1.8,2.3,3.5,3.5,5.3c0.2-0.1,0.5-0.1,0.7-0.1c0.5-1.4,1-2.8,1.5-4.4c0.4,0.4,0.9,0.6,1.1,1
			c0.9,1.6,1.9,0.3,2.8,0.1c0.3-0.1,0.4-1.1,0.4-1.7c0.1-1.2-0.4-2.7,0.1-3.6c0.8-1.6,0.1-3.2,0.6-4.7c0.1-0.2-0.2-0.5-0.2-0.8
			c-3.4,1.6-1.6,5.8-4.2,8.3c-0.1-1-0.3-1.6-0.3-2.1c0.2-1.5,0.4-3,0.8-4.4c0.7-2.8,0.9-5.8,2.9-8c2.7-3,5.8-5.6,8.5-8.5
			c1.9-2.1,3.8-4.3,5.4-6.7c2.5-3.7,4.6-7.6,8.1-10.5c0.5-0.4,0.7-1.1,1.1-1.7h-0.1h0c-0.8,0.3-1.6,0.7-2.9,1.2
			c1.3-3.1,3.9-4.1,5.6-6c0.4,0.7,0.4,0.7-0.9,2.4c-0.6,0.8-1.2,1.6-1.8,2.4c0,0,0,0,0,0v0c0.6-0.3,1.3-0.4,1.8-0.9
			c1-0.8,2-1.8,3-2.7c2-2,4.1-4,6.1-6.1c1.6-1.7,3.2-3.5,4.8-5.2c0.4-0.4,1-0.4,1.6-0.5c-0.1,0.5,0,1.1-0.2,1.6
			c-2,4.6-4.3,9.2-6,13.9c-1.1,3.1-1.6,6.4-2.4,9.7c-0.1,0.6,0.1,1.3,0.3,1.9c0.8,2,0.1,4.4-1.8,5.3c-0.6,0.2-1.3,0.1-1.9,0.1
			c-0.5,0-1.1,0-1.5,0c-0.8,0-1.6,0.2-2.3,0c-1-0.2-2.5,1-2.2,2c0.9,4.2,2.9,7.7,6.7,9.7c2.3,1.2,4.9,1.7,7.4,2.4
			c1.1,0.3,2.6,0.9,3.5,0.4c2.5-1.2,5.2-0.7,7.8-1.8c4-1.6,8.1-2.9,12.2-4.4c0.5-0.2,1.4-0.3,1.8,0c0.4,0.3,0.5,1.1,0.5,1.8
			c-0.1,3.3-0.4,6.5-0.5,9.8c-0.1,5-0.1-3.9-0.4,1.1c-0.2,4-0.8,8-1,12c-0.7,11.3-1.4,8.9-2.1,20.3c-0.2,2.3-0.2,4.6-0.3,6.8
			c-0.5,8.2-1.3,16.4-1.4,24.6c-0.2,9.4-1.4,18.7-2.3,28.1c-0.1,1.1,0.3,2.4,0.7,3.6c0.5,1.2,1.3,1.4,2.1,0.2
			c1.1-1.7,2.2-3.5,3.4-5.2c0.3-0.4,0.9-0.6,1.5-1.1v6c0.2,0,0.4,0,0.5,0c0.4-2.6,0.8-5.3,1.2-8.2c-0.1-0.1-0.6-0.5-0.8-1
			c-0.4-1.6-1.2-2.4-2.8-1.3c-0.7-1.7-0.1-3.9,1.6-5.6c-0.1,1.2-0.3,2.1-0.4,3.6c0.7-0.4,1.4-0.6,1.5-1c0.5-2.2,1.2-4.3,1.4-6.5
			c0.6-6.8,1.1-13.7,1.6-20.5c0.2-2.3,0.1-2.3-2.2-2.2c-0.4,0-0.7,0-1.1-0.2c-0.4-0.1-0.9-0.3-1.2-0.6c-0.1-0.1,0.1-0.9,0.3-0.9
			c0.4-0.1,0.9,0,1.3,0.2c1.2,0.7,2,0.3,2.5-0.9c0.5-1.3,1.1-2.5,1.5-3.8c0.2-0.4,0.2-0.9,0.2-1.4c-0.1-1.8-0.4-3.6-0.5-5.4
			c0-0.3,0.2-0.7,0.3-1v-0.2c0,0,0,0.1,0,0.1c0.1-0.1,0.1-0.2,0.2-0.4c0.2-0.6,0.6-1.3,0.4-1.8c-0.3-0.9,0-2,0-2.9
			c-0.2,1.2-0.4,2.4-0.6,3.5c0,0.1,0,0.3-0.1,0.4c-0.1-2.9-0.1-5.6-0.1-5.6c0.6,0.5,0.7,1.1,0.7,1.7c0.1-1,0.3-2,0.6-2.9
			c0.5-2.1-0.6-4.3,0.7-6.4c0.4-0.6,0.1-1.7,0.2-2.6c0.1-0.6,0.1-1.1,0.3-1.7c0.1-0.3,0.4-0.6,0.4-0.9c0.1-1.9,0-3.8,0.1-5.6
			c0.3-4.8,0.6-9.6,1-14.3c0.2-2.3,0.8-4.6,0.9-6.9c0.1-3,0,7.8,0.9,4.9c0.1-0.3,0.1-0.6,0.1-0.9c0.4-4.9,0.6-9.8,1.2-14.7
			c0.2-1.6,1-3.1,2.6-4.1c2-1.1,4-2.3,5.5-3.9c1.9-1.9,4.1-2.4,6.5-3c1.2-0.3,2.7-0.9,3.2-1.9c1.9-3.2,5-4.7,8-6.3
			c1.1-0.6,2.2-1.4,3.5-1.8C741.9,232.7,742.7,230.6,741.2,228.8z M711.4,198.7c0.3-0.1,1,0.7,1.5,1.1c-0.6,0.7-1.3,1.3-2.2,2.3
			c-0.6-0.9-1.1-1.5-1-1.7C710.2,199.7,710.7,199,711.4,198.7z M677.8,97.8c1-1.9,2.1-3.7,3.2-5.5c0.2-0.3,0.8-0.5,1.1-0.8
			c0.1,0.5,0.6,1.1,0.4,1.4c-0.7,1.3-1.5,2.6-2.4,3.8c-0.6,0.9-1.3,1.7-2,2.6c-0.1,0-0.3,0-0.5,0.1
			C677.7,98.9,677.5,98.2,677.8,97.8z M693.9,114.4c0.5,0.1,1.1,0.9,1.1,1.4c0,0.4-0.7,1.1-1.2,1.3c-1.4,0.4-2.6,0.4-3.5-1.2
			c-0.4-0.8-1.3-1.3-2.4-2.3C690.2,113.9,692.1,114,693.9,114.4z M675.1,123.2c1.1-3.2,3.5-5.4,6.2-7.3c2.6-1.9,5-1.5,7,0.9
			c0.3,0.4,0.9,0.6,1.3,0.9c0.3,0.2,0.6,0.5,0.9,0.9c-0.4,0.3-0.6,0.6-0.9,0.7c-4.2,2-8.4,4-12.6,5.9c-0.7,0.3-1.5,0.2-2.2,0.3
			C674.8,124.7,674.8,123.9,675.1,123.2z M663.3,108.9c-0.2-1.3-0.5-2.5-0.8-4C664,105.5,664.5,107.3,663.3,108.9z M656.9,121
			c-0.9,0.8-1.9,1.7-2.8,2.5c-0.2,0.2-0.7,0.2-1,0.4c0.1-0.4,0-1,0.2-1.2c1.5-1.4,3.1-2.7,4.7-4.1c1.1-1,2.3-2,3.5-2.9
			c0.3-0.2,0.8-0.6,1-0.6c0.3,0.2,0.5,0.7,0.6,0.8c0,2-1.1,3-2.4,3.1C658.9,119.1,657.9,120.1,656.9,121z M568.4,189.4
			c-0.3,0.5-0.6,1.1-0.8,1.6c-0.2,0.6-0.1,1.5-0.4,1.7c-1,0.3-2.3,0.9-3.1,0.5c-2.1-1-2.1-2.1-0.5-3.8c0.7-0.7,1.3-1.6,1.6-2.5
			c0.4-1.8,1.8-1.9,3-2c1.6-0.2,1.4,1.3,1.9,2.7C569.5,188.2,568.9,188.7,568.4,189.4z M552.6,258.7c-0.7,1.7-1.7,1.6-3.1,0.5
			c-3.5-2.8-5.4-6.5-5.4-11c0-1.4,0.7-3,1.5-4.1c1.1-1.5,2.7-2.7,4.2-3.9c0.4-0.3,1.4-0.4,1.6-0.1c2.2,2.4,3.2,5.4,3.9,9.5
			C554.6,252.1,553.8,255.5,552.6,258.7z M582.6,183.7c-0.6-1-1.3-1.6-1.3-2.3c-0.2-3,1.9-6.3,5.1-7.3c1.4-0.4,2.7-1.3,4.1-1.8
			c0.4-0.2,1,0,1.5,0c0,0.5,0.1,1-0.1,1.3c-1.5,2.5-2.9,5.1-4.7,7.3C586.2,182,584.5,182.6,582.6,183.7z M585.9,222.6v5.6
			c-0.2,0-0.3,0-0.5,0c-0.1-0.8-0.4-1.6-0.3-2.3c0.2-3.1,0.2-6.2,0.8-9.2c0.3-1.9,1.6-3.7,1.2-5.8c0-0.2,0.4-0.6,0.6-0.7
			c0.2-0.1,0.7,0.2,0.7,0.4c0.3,1.4,0.8,2.9,0.7,4.3c-0.2,2.2-0.6,4.3-1,6.5C587.8,222.4,587.6,223.4,585.9,222.6z M596.9,242.9
			c-2.2,3-4.4,5.8-6.6,8.8c-0.3-0.1-0.6-0.2-0.8-0.3c-2.3-5.1,0.1-10.3-0.8-15.9c1,0.4,1.6,0.6,2.1,0.9c1.9,1.3,3.7,2.6,5.5,3.9
			C597.3,240.9,597.6,242,596.9,242.9z M699.2,235.4c-0.4,2.6-3.2,2.4-4.7,3.9c-0.2,0-0.5,0-0.7,0c-0.1-0.7-0.5-1.7-0.2-2.2
			c1.5-2.7,3.2-5.2,4.9-7.8c0.1-0.1,0.3-0.1,0.7-0.3C700,231.2,699.5,233.3,699.2,235.4z M707,182.3c-0.1,0.4-1,0.8-1.5,1.1
			c-0.2-0.1-0.4-0.2-0.6-0.3c-0.3,1.4-0.6,2.8-0.9,4.2c-0.1,0-0.3,0.1-0.4,0.1c-0.1-0.4-0.4-0.7-0.4-1.1c0-1.6,0.3-3.2,0.1-4.8
			c-0.1-1.3-0.7-2.5-1-3.8c-0.5-1.9,0.2-2.8,2.1-3.1c1-0.1,1.6,0.2,2.2,1.3C707.8,178,707.4,180.2,707,182.3z M645,122.1
			c-1.6,0.3-2.2,1.7-3.1,2.8c0.1,0.1,0.2,0.2,0.3,0.3c1.1-0.9,2.2-1.7,3.3-2.6C645.2,122.4,645.1,122.2,645,122.1z M256,146.2
			c-2.2-1-4.7-1.2-6.7-2.8c-0.5-0.4-1.2-0.4-1.9-0.6c-3.8-1-7.3,0.8-10.8,1.7c-4.1,0.9-8.2,2.5-12.3,3.7c-1.5,0.5-3.2,0.6-4.8,0.9
			c-0.1-0.2-0.2-0.4-0.2-0.6c3.8-2.5,5.7-6.8,9.8-9.1c2.7-1.5,5.1-3.5,7.7-5.2c1.2-0.8,2.5-1.5,3.7-2.4c0.3-0.2,0.7-0.8,0.6-1.1
			c-0.4-1.4-0.6-3.2-1.6-4c-3-2.8-6.7-4-10.8-3.6c-2,0.2-4.1,0.6-6.1,0.2c-1.9-0.4-2.5,0.3-2.8,1.7c-0.6,2.3-2,4-3.7,5.5
			c-1.5,1.3-2.9,2.8-4,4.3c-0.6,0.7-0.3,2-0.9,2.8c-1.4,2.1-2.8,4.2-4.5,6.2c-2.1,2.5-4.5,4.7-6.6,7.2c-1.6,1.8-2.8,3.8-4.4,5.6
			c-0.4,0.5-1.2,0.6-1.8,0.9c-0.2-0.5-0.6-1-0.5-1.4c0.5-1.7,1-3.4,1.7-4.9c0.8-1.7,2.5-3.3,2.5-4.8c-0.1-1.7,0.9-2.5,1.7-3.4
			c1-1.2,2.4-2.3,4.3-2c-0.2,0.7-0.2,1.2-0.3,1.8c0.1,0.1,0.2,0.1,0.4,0.2c1.1-1.4,3.3-1.5,4.1-4c-1.3,0.4-2.2,0.7-3.1,1
			c-0.2-0.1-0.3-0.2-0.5-0.3c1.9-1.1,1.9-2.5,1-3.9c-0.4-0.6-0.8-1.2-1.2-1.7c-0.5-0.7-1.3-1.2-1.6-2c-0.7-2.1-1.8-4.3-0.4-6.6
			c0.3-0.6,0.3-1.4,0.4-2.1c0.2-2,0.8-3.8,2-5.4c0.8-1.1,1.4-2.7,1.3-4c-0.2-1.8,0.4-2.7,1.8-3.6c0.7-0.4,1.2-1.1,2-1.9
			c-0.9,0.2-1.5,0.3-2.1,0.5c0.2-1.5,1.1-2,2.5-1.9c1.3,0,3,0.3,4-0.3c1.5-1,3-1,4.6-1c3.4,0,6.8-0.2,10.1-1.5
			c2.2-0.9,4.3-3.1,7-1.3c0,0,0.2-0.1,0.4-0.2c0-0.2,0.2-0.4,0.1-0.6c-0.8-4.8-1.6-9.7-2.4-14.5c0-0.2-0.2-0.3-0.3-0.5
			c-1.1-1.6-2.6-3.1-3.1-4.9c-0.7-2.5-2.5-3.9-4.1-5.4c-3-2.9-6.7-3.3-10.6-2.9c-1.4,0.2-2.8,0.4-4.2,0.7c-0.9,0.2-1.7,0.5-2.5,0.7
			c-1.4,0.2-2.8,0.3-4.2,0.4c-0.2,0-0.3-0.3-0.5-0.4c-0.6-0.5-1.3-1-1.9-1.6c-1.1-1.1-2.2-2.4-3.4-3.6c-0.9-0.9-1.7-1.7-2.6-2.4
			c-0.9-0.8-2.1-1.3-2.8-2.2c-0.6-0.8-1-1.8-0.9-3.2c0.2-2.2-1.6-3.3-3.4-4.3c-2.4-1.3-7.6-1.2-9.7,0.5c-0.3,0.2-0.5,0.5-0.7,0.8
			c-0.2,0.2-0.3,0.7-0.5,0.7c-2.1,0-2,1.8-2.7,3c-0.1,0.2-0.2,0.6-0.4,0.8c-2,2-1.3,4.7-1.6,7c-0.3,1.8,0.9,3.5,1.5,5.3
			c0.8,2.5,0.7,5.5,0.4,8.2c-0.1,2-0.9,4-1.9,5.7c-0.6,1-2.1,1.5-3.2,2.2c-1.5,0.9-3.1,1.9-4.7,2.7c-1.7,0.9-3.8,1.4-5.1,2.7
			c-1.7,1.7-3.9,2.2-5.7,3.6c-2.5,1.9-5.1,3.6-7.7,5.3c-2.2,1.5-4.3,3.4-6.8,4.2c-3.6,1.2-6.9,2.8-9.1,5.9c-1.6,2.3-3.2,4.3-6.4,4.1
			c-0.5,0-1.6,1-1.5,1.3c0.2,0.9,0.6,2,2,1.9c0.8,0,1.7-0.1,2.5,0.1c0.5,0,1.1,0.2,1.4,0.6c1.3,1.8,2.5,3.7,3.7,5.6
			c0.2,0.3,0,0.8,0,1.2c-0.1,2.9,1.1,5.5,2.9,7.6c1.6,1.9,4,3.1,6.2,4.6c1.2,0.8,2.7,0.7,3.9-0.2c0.9-0.8,1.9-1.7,2.6-2.7
			c1-1.6,1.6-3.5,2.8-4.9c1.8-2,2-5.1,4.8-6.3c0.1,0,0.3-0.2,0.2-0.2c-0.4-1.7,1.2-1.9,2-2.6c1.3-1.2,2.6-2.4,4.1-3.2
			c1.7-0.9,3.6-1.4,5.4-2c0.4-0.2,1-0.1,1.5-0.2c-0.1,0.9-0.4,1.6-0.1,2.1c1,1.9,1.5,3.8,1.1,6c-0.1,0.5-0.1,1,0.1,1.4
			c0.9,1.9-0.2,3-1.5,3.9c-4.4,2.9-8.9,5.8-14.2,6.9c-1.1,0.3-2.1,0.9-1.3,2.5c0.6,1.2-0.6,4.8-1.7,5.7c-1.2,1-1.8,2.2-1.2,3.8
			c1.3,3.8,2.9,7.4,5,10.8c2.3,3.6,9.1,4.8,11.7,2c0.8-0.8,1.7-2.2,2.4-2.1c1,0.2,1.7,1.5,2.6,2.3c0.2,0.2,0.3,0.4,0.4,0.6
			c1.4,1.6,1.2,2.4-0.8,3.3c-0.9,0.4-1.8,1-2.5,1.8c-1,1.2-2,1.7-3.5,1.6c-0.7,0-2,0.3-2,0.6c-0.2,1.9-1.9,2.3-3.1,3.1
			c-1.7,1-3.3,2.1-5.2,3.3c-1-0.5-1.9-0.1-2.3,1.4c-0.1,0.4-0.5,0.7-0.8,0.9c-3.7,2.9-7.5,5.6-11.2,8.6c-3.5,2.9-6.9,5.9-10.2,9.1
			c-1.5,1.4-2.4,3.5-3.9,4.8c-1.4,1.3-3.5,1.8-5.1,2.9c-2.2,1.6-3.7,3.8-3.9,6.4c-0.1,2.1,0.5,4.2,1,6.4c0.7,3.2,2.9,5.2,5.7,6.6
			c0.7,0.4,1.6,0.4,2.3,0.9c0.9,0.6,1.6,0.9,2.6,0.2c0.6-0.4,1.4-0.7,2.1-0.7c2.4,0,2.8-0.4,3.1-2.7c0.1-1,0.4-2.6,0.9-2.7
			c2.6-0.7,2.6-2.7,2.8-4.7c0.2-2.1,0.8-3.9,2.6-5.3c0.4-0.3,0.7-0.8,1.1-1.2c1.7-1.8,3.1-3.9,5-5.3c8.3-6.1,16.4-12.6,25.7-17.1
			c1.4-0.7,2.3-2,3.5-3.1c0.5-0.4,0.9-1,1.4-1.3c3.6-1.5,7.2-3,10.9-4.5c1.7-0.7,3.3-1.5,5-2.1c0.8-0.4,1.9-0.4,2.6-0.9
			c2.1-1.5,4-3.3,6.1-4.8c3.9-2.9,7.8-5.8,12.6-6.7v0c-3.7-1-6.6,2.1-10.2,2.3c0.2-1.6,0.8-2.5,2.2-2.8c0.7-0.2,1.3-0.7,2-1
			c0.2-0.1,0.6-0.3,0.8-0.3c2.5,0.1,4.7-1.2,7.1-1.7c0.4-0.1,0.8-0.3,1.1-0.6c1.1-1.2,2.3-1.6,4-1.8c2.8-0.3,5.5-1.4,8.2-1.9
			c2.7-0.4,5.5-0.4,8.2-0.6c0.1,0.2,0.1,0.5,0.1,0.7c-1.8,0.5-3.5,1-5.3,1.6c-5.1,1.5-10.3,3.2-15.5,4.7c-1.1,0.3-2.3,0.3-2.8,1.6h0
			l0,0c0,0,0,0,0,0c0.9-0.2,1.9-0.5,2.8-0.7c1.9-0.4,4-0.6,5.8-1.3c4.5-1.8,9.1-2.8,13.9-3.5c4-0.6,8.3,0.3,12-2.1
			c2.1-1.4,5.2-0.7,6.8-3.5c0.7-1.4,1.7-5.8,0.9-7.2C256.8,146.5,256.4,146.4,256,146.2z M162.2,178.5c0.1,0.2,0.2,0.4,0.4,0.5
			c-2.8,1.8-5.6,3.7-8.6,5.7C154.3,182.9,160.4,178.7,162.2,178.5z M161.9,182c-1.3,0.8-2.7,1.7-4,2.5c-0.2-0.2-0.3-0.5-0.5-0.7
			c1.3-0.9,2.6-1.8,3.9-2.7C161.5,181.4,161.7,181.7,161.9,182z M136.9,197c1.9-3,14.4-12.3,16.4-12.1
			C148,189.2,142.7,193.5,136.9,197z M149.4,190.1c0,0-0.1,0.1-0.1,0.1c-0.1,0-0.2,0.1-0.3,0.2c-1.3,1.3-2.6,2.6-3.9,3.8
			c-0.5,0.4-1.2,0.6-2,0.8c1.7-1.9,3.7-3.4,6-4.6c0.1-0.1,0.1-0.1,0.2-0.2C149.3,190.2,149.4,190.2,149.4,190.1
			c1.6-1.4,3.2-2.7,4.8-4.1c0.2,0.2,0.3,0.4,0.5,0.6C153.2,188.3,151.7,189.7,149.4,190.1z M157.5,188.7c-0.2-0.3-0.3-0.7-0.5-1
			c2.8-1.4,5.5-2.8,8.3-4.2c0.1,0.2,0.3,0.5,0.4,0.7C162.8,185.5,160.3,187.4,157.5,188.7z M163.2,181.1c0.3-2,1.2-2.4,2.5-1.9
			c0.1,0.2,0.2,0.4,0.3,0.5C165.1,180.1,164.4,180.5,163.2,181.1z M164.1,177c1.3-0.7,2.5-1.3,3.8-2c0.1,0.2,0.2,0.5,0.3,0.7
			C166.9,176.1,166.2,178.1,164.1,177z M173.8,179.7c-0.2-0.3-0.3-0.7-0.5-1c1.6-0.7,3.2-1.4,4.8-2.1c0.1,0.2,0.2,0.4,0.3,0.7
			C177,178.1,175.4,178.9,173.8,179.7z M215.6,136.5c-0.2,0.1-0.9-0.5-1.2-0.7c-0.1-2.1,3.6-4.8,5-4.1c0.3,0.1,0.7,1.4,0.5,1.5
			C218.5,134.5,217.1,135.6,215.6,136.5z M252.5,155.4c-0.7-0.1-1.4-0.3-2.1-0.5c0.1-0.3,0.3-0.8,0.4-0.8c0.9-0.1,2-0.5,2.6,0.9
			C253,155.2,252.7,155.4,252.5,155.4z M441.8,153.4c-0.9-0.3-1.3-0.4-1.7-0.5c-0.3-0.1-0.6-0.2-1-0.3c0.7-0.5,1.3-0.6,1.9-0.8
			c2.9-0.7,2.9-0.7,4.5,1.9c0.8,1.2,1.8,1.5,2.6,0.4c0.9-1.4,1.6-3,2-4.6c0.3-1.2,0.5-1.3,1.4-0.6c0.2,0.1,0.5,0.2,0.8,0.3
			c-0.3-0.9-2.5-2.2-3.6-2.1c-2.6,0.2-3.6-0.5-4.7-2.8c-0.3-0.6-0.6-1.2-1-1.8c-1,0.9-1.7,2.1-2.6,2.3c-2.7,0.6-5.5,0.9-8.3,1.2
			c-3.2,0.4-6.5,0.4-9.6,1c-3.2,0.6-6.4,1.6-9.6,2.4c-1.8,0.5-3.7,0.8-5.6,1.2c-3.4,0.8-6.8,1.8-10.1,2.6c-1.2,0.3-2.4,0.4-4.3,0.7
			c0.6-1,1.1-1.6,1.4-2.3c0.6-1.4,1.7-2.8,1.7-4.2c0-4.1,0.8-7.8,4-10.6c1.2-1,1.7-2.2,1.3-3.8c-0.1-0.5,0.1-1.2,0.3-1.7
			c1.7-3.8,3.3-7.7,5.1-11.4c1.9-3.9,3.8-7.7,4.7-11.9c0.7-3.2,2.1-6.2,3.1-9.4c0.4-1.3,0.8-2.7,0.8-4.1c0-2.4-0.5-4.7-0.5-7.1
			c0-4.9-2.2-8.7-5.3-12.2c-0.8-0.9-1.7-1.6-2.7-2.3c-1.7-1.1-3.5-2.3-5.4-3.2c-1.4-0.7-3.2-0.6-4.3-1.4c-2-1.6-4.2-2.2-6.6-2.4
			c-1.1-0.1-2.3,0-3.4-0.1c-4.6-0.3-9.1,0.5-13.4,1.9c-5.3,1.7-10.4,4.2-15.6,6.4c-4.5,1.8-9,3.6-13.4,5.5c-2,0.8-4.1,1.6-6.1,2.4
			c-1.7,0.7-3.4,1.3-5.1,1.9c-0.2,0.1-0.3,0.5-0.4,0.8c-0.3,1-0.7,2-0.7,3c0,1.8-1.2,2.3-2.5,2.4c-1.2,0.1-2.5-0.1-3.7-0.3
			c-1.4-0.2-2.4-0.1-3,1.4c-0.2,0.6-1.2,1.5-1.7,1.5c-2.4-0.2-3.8,1.3-5.2,2.7c-2.7,2.6-5.3,5.3-7.9,8c-0.8,0.8-1.5,1.8-2.3,2.7
			c-0.7,0.7-1.8,4.3-1.7,5.2c0.3,1.7,0.4,3.5,0.5,5.2c0.3,2.3-0.6,4.7,0.3,7c1.6,4,3,8.1,4.8,12.1c0.6,1.3,1.3,2.9,3.4,2.4
			c0.2-0.1,0.8,0.5,1,0.8c0.4,0.7,0.7,1.4,1,2.1c1,2.2,2.1,4.4,5.2,4.3c0.5,0,1.1,0.5,1.6,0.8c1.4,0.9,2.9,1.7,4.2,2.7
			c1.5,1,3.1,2,4.4,3.1c1.1,1,2.1,2.2,3.1,3.4c1.7,2,3.4,4.1,5,6.1c0.2,0.2,0.2,0.4,0.3,0.7c0.8,2.1,1.9,3,3.8,2.9
			c1.7-0.1,3.5-0.3,3.5-2.7c0-0.3,0.3-0.6,0.5-0.7c2-0.7,2.3-2.5,3.1-4.1c1.1-2.1,5.4-3.1,6.6-1.2c1.3,2,1.5,4.6,2.3,7.4
			c-1.2-1-2-1.6-3.2-2.6c0.1,1,0.2,1.7,0.1,2.3c0,0.6-0.3,1.1-0.5,1.7c-0.1-0.1-0.3-0.1-0.5-0.2c-0.1-0.8-0.1-1.6-0.2-2.5
			c-0.2,0-0.3,0-0.5-0.1c-0.1,0.5-0.2,1.1-0.4,1.6c-0.3,0.6-0.6,1.5-1.1,1.7c-4.8,1.7-9.6,3.3-14.4,4.8c-4.4,1.4-8.8,2.6-13.2,3.9
			c-1.3,0.4-2.6,0.6-3.9,1c-1.8,0.6-3.6,1.3-5.4,1.9c-1.1,0.4-2.4,0.5-1.4,2.2c0.1,0.2-0.1,0.6-0.3,0.8c-0.8,0.9-1.6,2-2.6,2.7
			c-0.5,0.3-1.5,0.3-2.1,0c-0.3-0.1-0.5-1.4-0.3-1.7c1.5-1.7-0.1-2.9-0.8-4.3c-0.5,2-1.1,3.9-1.7,6c-1.7-1.3-3.2-1.3-5-0.6
			c-1.2,0.5-2.7,0.8-4.1,0.9c-1.2,0-2.4-0.7-3.6-0.6c-0.9,0-2.3,0.4-2.7,1c-1.1,1.6-1.9,3.4-2.5,5.2c-0.9,3,1.2,5.4,4.1,5.1
			c0.3,0,0.6,0.4,0.9,0.5c-0.3,0.3-0.6,0.8-0.8,0.8c-1.2-0.2-2.4-0.5-3.6-0.9c-0.9-0.3-1.8-0.8-2.6-1.2c-0.2,0.1-0.4,0.2-0.6,0.3
			c0.5,3.2,0.8,6.4,1.7,9.5c0.4,1.3,2,2.3,3.3,3.7c0.2-0.6,0.3-1.1,0.5-1.6c1.3-2.5,0.8-6.1,4.5-7c0.9-0.2,1.8-0.4,2.7-0.2
			c4,0.7,6.2-3,9.5-4.1c2.6-0.9,3.9-4.1,6.8-5.2c1-0.4,1.9-1,3.1-0.9c0.5,0,1.1-0.1,1.6-0.2c2.9-1,5.8-2.2,8.7-3.1
			c6-1.8,12.2-3.3,18.2-5.1c3.7-1.1,7.4-2.5,11.1-3.7c3.2-1,6.3-2.3,9.6-2.7c5.4-0.7,10.3-3,15.4-4.5c2.1-0.6,4-1.4,6.1-2
			c3-0.8,6-1.4,9-2.1c5.3-1.2,10.6-2.5,15.9-3.5c7.8-1.5,15.6-2.8,23.4-4.3C438.9,155.2,440.1,154.2,441.8,153.4z M317.4,138
			c-1.1-0.6-2.4-1-3.1-1.9c-0.8-1.1-1.1-2.6-1.2-4c-0.3-2.3-0.2-4.5-0.2-6.8c0-1,0.1-2-1.1-2.5c-0.4-0.1-0.5-0.7-0.8-1.1
			c0.1-0.1,0.2-0.2,0.3-0.3c1.3,0.7,2.9,1.2,3.8,2.3c0.8,0.8,1,2.4,1.1,3.6c0.2,1.3,0,2.7,0.1,4.1c0.1,0.6,0.3,1.3,0.6,1.8
			C318.6,135.3,318.6,135.3,317.4,138z M342.3,113.5c-2.9,1.7-5,0.5-5.3-2.7c-0.2-1.5-0.9-3.1-1.7-4.4c-1.7-2.7,0.3-7.6,3.3-8.1
			c0.2,0,0.4-0.1,0.5-0.1c3.4-1.6,6.7-3.3,10.1-4.9c3.9-1.9,7.5-4.3,12.2-4.3c3.8,0,7.2-2,10.7-3.2c3.2-1.1,6.5-1.5,9.6,0.1
			c0.9,0.5,1.3,2,1.7,3.2c0.5,1.7,0.7,3.5,0.9,4.6c0,3.1-0.6,3.9-3.1,4.4c-0.3,0.1-0.6,0.1-0.8,0.3c-2.6,2.3-5.8,2.8-9.1,3.3
			c-2.4,0.4-4.8,1.2-7.2,2c-0.6,0.2-1.1,1.1-1.7,1.4c-1.6,0.6-3.3,1.1-5,1.7c-4.8,1.5-9.4,3-13.6,5.8
			C343.3,112.9,342.9,113.2,342.3,113.5z M370.1,132.1c-2.1-0.3-2.7,1.2-3.6,2.5c-0.2,0.4-0.7,0.6-1.1,0.9c-1.6,1-3.2,1.8-4.7,3
			c-2.1,1.5-4,2.4-6.8,1.9c-2.1-0.4-4.5,0-6.8,0.1c-1.6,0.1-2.9-0.4-3.7-1c0.4-1.5,0.7-2.8,1.2-3.9c0.1-0.4,0.6-0.9,0.8-0.9
			c2.2,0.6,2.7-1.6,4.1-2.3c1.4-0.8,2.8-1.7,4.2-2.6c0.6-0.5,1.1-1.2,1.6-1.9c1.8-2.9,4.9-3.6,7.8-4.5c1.1-0.3,2.1-0.9,3.1-1.2
			c0.8-0.2,1.6-0.2,2.4-0.2c0.3,0,0.7,0.2,1,0c1.2-0.8,2.3-1.8,3.6-2.4c1.5-0.8,3.2-1.6,4.8-1.7c2.3-0.2,2.6,2.3,1.9,4.5
			c-0.3,0.7-1,1.2-1.4,1.8c-0.5,0.7-0.8,1.9-1.6,2.2c-1.9,0.9-1.8,4-4.4,4.1c-0.4,0-0.7,0.4-1,0.7
			C371.1,131.4,370.5,132.2,370.1,132.1z M380.2,156.4c-1.5,0.1-3.3,0.5-4.6-0.1c-1.1-0.5-2.2-2-2.7-3.2c-0.6-1.4-0.7-3.1-0.5-4.6
			c0.1-0.8,1.1-1.5,1.9-2c0.5-0.3,1.2-0.5,1.9-0.4c0.7,0.1,1.8,0.3,2,0.7c1.5,3.2,3.8,5.7,6.3,8c0.2,0.2,0.3,0.4,0.6,0.9
			C383.2,155.9,381.7,156.2,380.2,156.4z M407.5,196.7c-0.2-0.3-0.4-0.8-0.3-1.1c0.2-1.3-0.6-1.8-1.5-2.4c-1.8-1.4-4-1.8-6.1-2.1
			c-1.7-0.2-2.4-0.9-2.3-2.7c0.1-0.9-0.4-2.1-1-2.9c-0.8-1.1-1.9-2-3-2.7c-0.6-0.4-1.5-0.4-2.2-0.2c-1.2,0.2-2.3,0.9-3.4,0.9
			c-4.5,0-8.7,0.9-12.8,2.7c-1.7,0.8-3.4,1.3-5.2,2c-2,0.8-4,1.7-6,2.5c-3.3,1.4-6.6,2.7-9.9,4.1c-1.5,0.6-2.9,0.5-4.5,0.2
			c-3.4-0.5-6.3,0.6-8.5,3.4c-1.3,1.6-2.8,2-4.4,0.5c-1.4-1.2-2.5-2.6-4.2-2.1c-0.4-1.5-0.7-2.9-1.2-4.1c-0.2-0.5-1.1-1.2-1.6-1
			c-0.6,0.2-1.3,1-1.4,1.5c-0.2,1.9-0.1,3.7-0.3,5.6c-0.2,1.7,1,4-1.8,4.9c-0.3,0.1-0.5,0.8-0.5,1.2c0.1,1.1-0.6,1.3-1.3,1.1
			c-1.4-0.4-2.3,0.4-3.4,1.1c-0.6,0.4-1.4,0.7-2.1,0.7c-2.6,0.1-3.6,1-3.7,3.6c0,0.3-0.2,0.7-0.3,1c-0.5,1.7,0.9,4.7,2.1,5.7
			c0.8,0.6,1.1,1.8,1.4,2.8c0.2,0.8,0.1,1.8,0.2,2.6c0.2,1.4,0.5,2.8,0.9,4.2c0.8,3.1,1.3,6.3,2.7,9.2c2.2,4.6,4.6,9.1,7.5,13.3
			c1.8,2.7,3.2,5.9,6.4,7.5c0.4,0.2,0.5,0.9,0.8,1.3c0.7,1.3,1,2.7,2,3.7c2.7,2.8,7,1.9,10,4c0,0,0.1,0,0.2,0
			c3.7-0.3,7.5-0.4,11.1-0.8c0.6-0.1,1.2-0.7,1.8-1.1c0.5-0.4,1.1-0.7,1.5-1.1c1.4-1.2,3.1-2.2,4-3.7c1.1-2,2.9-2.7,4.5-3.9
			c1.7-1.2,3.9-1.9,5.9-2.8c0.8-0.4,1.8-0.7,2.5-1.1c3.1-1.9,5.2-2,7.7,1.5c0.7,0.9,1.2,1.8,2.4,0.6c0.2-0.1,0.8,0,1.1,0.1
			c0.6,0.2,1.2,0.4,1.9,0.7c0.1-1,0.2-1.7,0.2-2.5c1.3,0.5,2.4,0.8,3.8,1.3c0.1-0.3,0.3-0.7,0.5-1.2c0.7-2.7,1.3-5.5,2.3-8.1
			c1.2-2.9,2.5-5.6,3.2-8.7c1-4.1,2.7-8,3.7-12c0.8-2.9,1.1-6,1.6-8.9c0.3-1.4,0.6-2.9,0.7-4.3c0.3-2.1,0.8-4.3,0.5-6.3
			C409.3,201.5,409.1,198.9,407.5,196.7z M379.7,232.2c-1.5,1.6-1.7,3.8-2.3,5.7c-0.8,2.2-2.6,2.7-4.3,3.5c-0.6,0.3-1.2,0.5-1.8,0.7
			c-0.3,0.1-0.7,0.3-0.9,0.2c-1.3-0.9-2.5-1.9-3.8-2.9c-0.1-0.1-0.1-0.5-0.1-0.8c0.1-0.6,0.4-1.1,0.7-2.1c0.1,0,0.6-0.1,1.3-0.3
			c-0.4-1-0.8-1.9-1.1-2.9c1.4-0.6,2.5-1.7,4.4-1.2c1,0.2,2.2-0.6,3.6-1.1c0.7,0.9,2,0.4,3.3,0c0.4-0.1,0.9-0.1,1.3-0.1
			C379.9,231.3,379.9,231.8,379.7,232.2z M386.9,208c-1.5-0.5-2.4-0.1-3.3,1.1c-0.6,0.8-2,1.1-3.1,1.4c-1.7,0.6-3.4,1-5.1,1.6
			c1,2.2,1.1,2.2,2.8,0.9c0.7-0.5,1.2-1.6,2.4-0.7c0.2,0.1,0.9-0.5,1.9-0.5c-0.2,0.5-0.2,1.1-0.6,1.4c-0.5,0.4-1.1,0.7-1.8,0.9
			c-4.4,0.9-8.4,3-12.5,4.7c-2.3,0.9-4.5,1.7-6.8,2.6c-0.4,0.2-0.8,0.4-1.2,0.7c0.1,0.2,0.2,0.3,0.2,0.5c5.6-2.1,11.3-4.2,16.9-6.2
			c0.1,0.1,0.2,0.2,0.2,0.3c-0.3,0.4-0.5,1-0.9,1.1c-2.5,1.2-4.6,3.1-7.5,3.5c-0.5,0.1-1.1,0-1.4,0.3c-1.9,2.2-4.6,1.7-7,2.4
			c-1.8,0.5-1.7-1.3-2.5-2c-0.5-0.5-0.8-1.2-1.4-1.6c-1.4-0.9-1.4-1.6-0.1-2.5c0.8-0.6,1.4-1.4,2.3-1.8c1-0.5,2-0.7,3.1-1
			c0.5-0.2,1.2-0.1,1.4-0.4c1.3-2.2,3.6-2.8,5.7-3.8c3.5-1.6,7.1-3.2,10.6-4.7c1.6-0.7,3.3-1.2,4.9-1.8c2.1-0.6,2.8-0.1,2.7,2
			C387.1,206.9,387,207.4,386.9,208z M389.8,190.6c-3.4-0.4-6.3,1.1-9.2,2.3c-6.2,2.4-12.3,5.1-18.6,7.4c-2.6,1-5.5,1.1-8.4,1.7
			c-0.3-3.7-0.1-3.8,3-5.2c1.3-0.6,2.6-0.7,4-0.7c1.8-0.1,3.5-1.3,5.3-2c1.1-0.4,2.2-1.1,3.3-1.2c1.7-0.2,3.1-0.7,4.1-2.2
			c0.2-0.3,0.9-0.3,1.4-0.6c0.5-0.3,1.2-0.7,1.3-1.1c0.4-1.1,0.9-1.1,1.5-0.4c0.8,0.9,1,0.5,1.7-0.2c0.5-0.6,1.7-0.5,2.6-0.6
			c0.4-0.1,0.9,0.2,1.1,0c1.7-1.9,3.9-1.8,6.1-1.9c0.3,0,0.5,0.1,0.7,0.1c2.1-0.1,2.6,0.3,2.7,2.2
			C392.4,189,390.9,190.7,389.8,190.6z M396,190c-0.6-0.4-1.3-0.7-1.8-1.2c-0.2-0.2,0.2-0.9,0.3-1.4c0.7,0.6,1.4,1.1,2.1,1.7
			C396.5,189.4,396.3,189.7,396,190z M396.8,282.4c-0.3-0.6-0.6-1.3-1-1.8c-1-1.6-2.5-3-2.4-5.2c0.1-0.9-0.4-2.5-0.8-2.5
			c-2.1-0.4-2-2.2-2.7-3.4c-0.5-1.1-0.9-2.1-1.3-3.2c-0.1-0.3-0.4-0.6-0.6-0.8c-0.9-1.1-1.9-2.2-3.2-3.7c-1,0.2-2.1-1.9-3.9-1
			c-0.1,0-0.3-0.3-0.5-0.4c-0.9-0.3-1.9-1-2.5-0.8c-2.9,1-6,1.3-8.7,3.2c-1.2,0.9-3.4,0.6-3.9,2.7c0,0.1-0.1,0.1-0.2,0.1
			c-3.5-0.4-1.6,3.7-3.6,4.5c0,0,0.3,0.6,0.3,0.9c0.1,0.9,0,1.7,0.1,2.6c0,0.7,0,1.3,0.1,2c0.1,0.4,0.2,0.9,0.4,1.3
			c0.3,0.7,0.4,1.6,0.9,2.1c1,0.9,1.2,1.8,0.4,2.8c-1.8,2.2-2.3,5.5-5.2,6.9c-0.2,0.1-0.3,0.5-0.4,0.8c-0.6,0.9-1,1.9-1.7,2.5
			c-1.3,0.9-2.7,1.7-4.2,2c-0.8,0.2-2-0.3-2.8-0.7c-2-1.1-3.9-1.9-6.2-2c-2.4,0-4.8-0.8-7.1-0.5c-3,0.4-5.8,1.5-8.3,3.4
			c-0.3,0.2-0.5,0.5-0.7,0.7c-0.9,1.4-1.7,2.8-2.7,4.2c-0.6,0.8-1.1,6.1-0.4,6.7c1.7,1.4,0.6,3.1,0.9,4.7c0.4,2.6-0.5,5.3,1.9,7.5
			c1.1,1,1.5,2.7,2.3,3.9c1.3,1.9,2.5,4.3,4.3,5.4c2.5,1.5,4.2,4.1,7.2,5c1.9,0.6,2.4,1,3.5-0.8c1-1.7,2.3-2.8,4.2-3.2
			c1.3-0.2,2.7-0.2,4-0.3c1.2,0,1.6-0.4,1-1.5c-0.2-0.3-0.3-0.7-0.3-1c-0.4-2.8-0.8-5.6-1.1-8.5c0-0.5,0.7-1.3,1.2-1.6
			c2.1-0.9,3.5-0.3,5,1.5c1.4,1.7,2.8,3.4,4.2,5c0.2,0.2,0.5,0.4,0.7,0.5c1.4,1,2.8,1.9,4.2,2.9c2.8,2.2,5.7,4,9.3,4.1
			c1.3,0.1,2.6,0.3,4,0.4c0.3,0,0.6,0,0.9,0c1.4-0.1,2.3-1.1,3.4-1.5c1.7-0.7,1.8-1.9,2.3-3.2c0.7-2.4,1.5-4.8,2.5-7.2
			c0.6-1.3,1.7-2.4,2.2-3.7c0.9-2,1.3-4.2,2.2-6.2c1.3-3.2,1.1-6.1-0.2-9.2c-0.6-1.3-0.7-2.9-0.9-4.4c0-0.4,0.5-1.3,0.8-1.3
			c1.8,0,3.5,0.3,5.2,0.4c0.5,0,1.2-0.1,1.4-0.4c1.6-1.9,1.1-3.9-0.9-6.4C398.2,285.8,397.6,284,396.8,282.4z M382.6,317.5
			c-1.2-0.7-2.6-1-1.6-2.8c0.2-0.3-0.3-1-0.3-1.5c0-1.4,0.3-2.7,1.5-3.6c0.4-0.3,0.6-0.7,1-0.9c0.5-0.3,1.1-0.4,1.7-0.6
			c0,0.5,0.1,1.1,0.1,1.6c0,0.1-0.1,0.3-0.4,0.8c0.4,0.2,0.9,0.5,1.6,0.9C384.9,313.5,383.8,315.4,382.6,317.5z M471,288.1
			c-0.5,1.7-1.1,3.9-1.7,6.1c-0.9,3.2-1.7,6.4-2.5,9.6c-0.4,1.4-0.1,3.3-0.9,4.1c-1.4,1.3-1.5,4-4.2,4c-0.5,0-1.1,0.8-1.5,1.4
			c-0.3,0.4-0.1,1-0.4,1.3c-0.9,1.1-0.3,3.4-2.5,3.4c-1.5,0-3,0-4.5-0.4c-1.9-0.5-3.7-1.1-5.5-1.8c-3.8-1.6-7.5-3.5-9.9-7
			c-0.8-1.2-1.1-2.7-0.5-4.4c0.7-1.9,1.1-3.9,1.6-5.9c0-0.1,0.1-0.3,0-0.4c-1.5-2.6,1.2-5.2-0.1-7.8c-0.4-0.8,0.1-2,0.1-3
			c0-0.4-0.1-0.9-0.4-1.1c-1.5-1.1-1.2-2.5-0.5-3.8c0.8-1.4,1.6-2.8,2.8-3.8c0.6-0.6,2-0.7,2.9-0.5c1.5,0.3,2,0.1,2.1-1.4
			c0.2-2.7,2.5-4.8,5.3-4.9c1.3-0.1,2.6-0.8,3.8-0.6c3.3,0.5,6.7,1.4,9.3,3.5c2.3,1.8,4.3,4.1,5.7,6.6
			C470.4,283.1,470.4,285.4,471,288.1z M321,315.8c0.1,0.5-0.5,1.1-1.1,1.9c-0.8-0.9-1.3-1.4-1.7-1.9c0.5-0.5,1-1.2,1.6-1.3
			C320.1,314.5,321,315.3,321,315.8z M369.9,215.6c0,0.2,0.1,0.5,0.2,0.7c-1.4,0.6-2.8,1.2-4.2,1.8c-0.1-0.2-0.1-0.4-0.2-0.6
			C367.1,216.9,368.5,216.3,369.9,215.6z M223.2,331.8c0.1-0.1,0.2-0.3,0.4-0.5c0.5-0.1,0.9-0.2,1.6-0.3c-0.6-1.1-1-1.9-1.5-2.8
			c-1-1.9-2-3.9-3.1-5.8c-2-3.8-0.8-8-1.2-11.9c-0.2-2.5,0.6-5.1,0.8-7.6c0.1-0.6,0.2-1.3,0.3-1.9c0.3-2.4,0.5-4.8,0.8-7.1
			c0.3-1.9,1.1-3.8,0.1-5.7c-0.4-0.7-0.3-1.6-0.3-2.5c-0.1-1.6,0-3.3-0.1-5c-0.1-2.7-0.4-5.5-0.4-8.2c-0.1-5.3,0.1-10.6-0.1-15.9
			c-0.1-2.7-0.9-5.4-1-8.2c-0.3-6.6-0.4-13.1-0.5-19.7c0-1.1,0.3-2.2,0.5-3.5c1.2,0.2,2.2,0.5,3,0.6c0.4-1,1.1-1.8,1-2.5
			c-0.1-1.5-0.4-3.2-1-4.6c-1.2-2.4-1.9-4.8-1.5-7.6c0.4-2.9-1.4-4.5-3.7-5.9c-0.8-0.5-1.4-1.3-2.1-2c-1.3-1.3-2.4-2.7-3.8-3.9
			c-0.9-0.7-1.7-1.2-1.2-2.6c0.1-0.4-0.6-1.5-1.1-1.7c-2-0.6-4-1.3-6.1-1.5c-2.1-0.1-4.5-0.2-6.5,0.6c-3.1,1.3-5.9,3.3-8.8,5
			c-1.1,0.6-2.2,1.2-3.2,1.9c-3.4,2.1-5.8,5.4-8.3,8.3c-1.6,1.8-3.7,2.5-5.7,3.5c-2.2,1.1-4.9,1.4-6.3,3.9c-0.6,1.2-1.8,2.2-1.9,3.4
			c-0.3,2.2-1.1,4.7,0.8,6.7c0.1,0.1,0,0.2,0,0.3c-0.2,2.8,0.9,5.7-1,8.3c-0.1,0.2,0,0.5,0,0.7c-0.1,1.3-0.3,2.6-0.2,3.9
			c0.1,1.3,0.4,2.6,0.7,4c0.4,1.7,1.1,3.5,1.1,5.3c-0.1,3-0.9,5.9-1.2,8.9c-0.4,4.3-0.5,8.6-0.8,12.9c-0.2,2.7-0.6,5.3-0.8,8
			c-0.2,1.7-0.4,3.4-0.4,5.1c0,2.4,0.3,4.9,0.4,7.4c0.1,1.7,0,3.4,0,5.2c0,1.8,0.1,3.5-1.5,4.9c-0.6,0.6-0.7,1.9-0.6,2.9
			c0.1,3.6,0.4,7.3,0.6,10.9c0.1,1.3,0.2,2.6,0.5,3.9c0.5,2.6,1.3,5.2,1.8,7.8c0.2,1-0.1,2.3,0.3,3.2c1.2,2.9,2.7,5.7,4.1,8.6
			c0.3,0.7,0.5,1.5,0.8,2.2c0.8,2,1.9,3.7,3.8,5c2.4,1.6,5,2.7,7.2,4.8c1.8,1.7,3.5,4.7,7.1,3.4c0.1,0,0.4,0.1,0.5,0.2
			c2.7,2,5.6,1.3,8.4,0.5c1.9-0.5,2.5-1.5,2.2-3.5c-0.1-0.7,0-1.5-0.2-2.2c-0.6-2.4-1.2-4.8-1.9-7.2c-0.1-0.5-0.6-1.1-1-1.2
			c-1.4-0.5-1.5-1.7-1.7-2.9c-0.1-0.6-0.4-1.1-0.5-1.7c-0.2-2.2-2.2-4.1-1.1-6.5c1-2.2,0.4-4-1.1-5.6c-0.2-0.2-0.2-0.6-0.1-1
			c0.2-1.4-1.2-3.7-2.5-3.9c-1.7-0.2-2.6-1.3-3.2-2.8c-0.3-0.8-0.7-1.6-1.1-2.5c-0.9-2-2.2-3.9-2.8-6c-0.7-2.9-0.5-6-1.5-8.7
			c-1-2.8-1.1-5.6-1.1-8.4c-0.1-2.6,0.7-5.1,1.3-7.6c0.3-1.2,1.2-2.2,1.4-3.4c0.4-2,0.6-4.1,0.8-6.1c0.1-0.9,1-1.8,0-2.7
			c-0.1-0.1,0.5-0.9,0.8-1.4c0.4-0.7,1-1.4,1.2-2.1c0.3-1.3,0.3-2.6,0.6-3.9c0.5-2.1,1.2-4.2,1.9-6.2c0.6-1.5,1.4-3,2.4-4.3
			c0.7-1,1.8-0.7,2,0.6c0.2,2.2,2.5,3.9,1.3,6.3c-0.1,0.1,0.3,0.4,0.8,1.1c0.4-1.2,1-2,0.9-2.7c-0.2-3.1,0.8-6.4-1-9.6
			c2.2,0.9,4.2,1.6,6.1,2.4c0.4,0.1,0.7,0.7,0.6,1.3c-0.2,1.6-0.8,3.2-0.6,4.8c0.5,5.4-1.6,10.4-2.3,15.5c-0.3,1.8-0.7,3.5,1.1,5.4
			c-1,0.1-2.1,0.5-2.2,0.3c-0.5-0.8-0.8-1.8-0.9-2.7c-0.2-1.2,0.1-2.4-0.1-3.6c-0.1-0.5-0.7-1.2-1.2-1.3c-1.8-0.4-2.3-1.1-2-3
			c0.1-0.8,0.1-1.7,0.2-2.6c-0.3,0-0.6-0.1-0.9-0.1c-0.3,1.3-0.7,2.7-0.9,4.1c-0.2,0.9,0,1.9-0.2,2.8c-0.6,2.2,0,4.1,1.8,5.6
			c0.9,0.8,1.7,1.5,1.4,3c-0.4,2.2-0.8,4.5-0.7,6.7c0.2,1.9,0.7,4.1,1.9,5.4c2.3,2.6,3.2,5.8,4.5,8.8c0.4,0.9,0.3,2.2,0.9,2.8
			c1.8,1.8,3.8,3.4,5.9,4.9c2.1,1.5,2.9,3,1.9,5.4c-0.5,1.2-0.7,2.2-0.1,3.5c0.2,0.7-0.3,1.6-0.5,2.4c-0.2,0.7-0.7,1.5-0.6,2.1
			c0.3,2,0,2.5-2,2.9c-3.1,0.6-5.7-0.9-8.5-1.9c-0.7-0.2-1.4-0.5-2.3-0.8c1.1,1.7,2.1,2.8,2.5,4.2c0.4,1.3,0.1,2.7,0.1,4
			c0.2,0,0.3,0.1,0.6,0.1c0.4-1.8,2.8-2.5,1.9-5c0.9,0.2,1.8,0.4,3,0.8c-0.9,0.8-1.4,1.2-1.8,1.6c1.6,1.5,3.2,3,4.8,4.5
			c0.6,0.5,0.8,1.7,1.4,1.9c2.3,0.8,2.6,2.8,2.9,4.5c0.7,3.4,2.7,5.8,5.9,6.6c0.4,0.1,0.8,0.6,1,1.1c1.5,2.7,5.1,4,7.9,2.6
			c1.7-0.8,3.1-2.1,4.7-3c1.6-0.9,2.4-2.3,2.4-4c0-0.3,0.1-0.6,0.2-0.9c1-2.4-0.2-5.9-2.3-7.3C224.8,333.8,224,332.7,223.2,331.8z
			 M198.4,246.7c-0.6-0.4-1.2-0.9-1.5-1.5c-0.9-1.8-1.7-3.7-2.5-5.6c0-0.1,0.1-0.2,0.2-0.4c0.5,0.3,1,0.5,1.4,0.8
			c0.5,0.3,0.8,0.7,1.3,0.9c0.6,0.3,1.7,0.4,1.7,0.8c0.3,1.5,0.4,3,0.4,4.5C199.5,246.5,198.7,246.9,198.4,246.7z M201.6,276.7
			c-3.2-0.7-3.4-1.2-2.3-5.5C201.5,271.2,202.7,274.1,201.6,276.7z M203.9,233.9c-0.4,1.1-1.2,2.1-2,3.1c-0.5,0.7-1.7,0.3-2.1-0.7
			c-0.8-2.3-1.9-4.2-4.6-4.6c-1.3-0.2-2.7-0.7-3.7-1.5c-1.7-1.2-2.9,0.1-4.3,0.3c-1.4,0.2-2.8,0.5-4.2,0.8c0.3-2.5,0.5-4.3,0.7-6.3
			c4-2.3,7.7-5.4,11.2-8.8c0.3-0.3,1.1-0.6,1.3-0.5c1.7,1.4,4.2,1.7,5.1,4.1c0.2,0.7,1.3,1,1.7,1.7
			C205,225.4,205.3,229.7,203.9,233.9z M126.5,243.6c0.8,1.1,0.9,2,0,3.1c-1.2,1.4-2.2,2.8-1.9,4.9c0.1,0.4-0.3,0.9-0.6,1.2
			c-4.5,4.9-9,9.9-13.6,14.7c-2.2,2.3-4.8,4.4-7,6.7c-1.6,1.6-2.9,3.5-4.3,5.3c-0.8,1.1-0.9,2.2,0.4,3.1c1,0.7,2.1,2.1,3,1.9
			c0.9-0.1,1.7-1.6,2.2-2.3c-0.5-1.5-1-2.7-1.3-3.8c2.8-3.2,5.4-6.1,8.1-9c0.3,0.2,0.5,0.3,0.7,0.5c-1.4,2.4-2.7,4.8-4.1,7.2
			c0.1,0.1,0.2,0.2,0.3,0.2c2.6-2.8,5.3-5.5,8-8.4c0.6,1.1,1,2,1.4,2.9c-0.6,2.1-1.4,4.4-2.1,6.8c-0.1,0.3-0.2,0.8,0,1
			c1.1,1.7,0.3,3.1-0.5,4.7c-0.8,1.4-1.2,3.1-1.7,4.7c-0.2,0.6-0.4,1.2-0.7,1.6c-1.5,1.8-1.1,3.1,0.2,5.1c1.1,1.5,2.1,2.9,3.4,4.1
			c0.4,0.4,0.5,1.4,0.4,2.1c-0.4,1.9-1,3.8-1.6,5.6c-0.8,2.6-3.3,3.9-5.9,3.4c-1.3-0.3-2.6-0.2-3.3,1.4c-0.2,0.4-0.8,0.9-1.3,1
			c-2,0.4-4.1,0.6-5.7,2.1c-0.4,0.4-1.5,0.3-2.3,0.3c-0.8,0-1.5-0.2-2.2-0.3c-0.5-0.1-1-0.2-1.5-0.3c-0.1,0-0.3-0.3-0.4-0.3
			c-1.6,0-3.2-0.2-4.6,0.3c-1.2,0.4-1.6,0.1-2.4-0.6c-1.3-1.2-2.7-2.3-4.1-3.3c-0.5-0.4-1.3-0.4-2.2-0.2c-1.8-2.1-3.6-4.2-5.4-6.2
			c-0.7-0.7-1.9-1.1-2.4-1.9c-0.6-0.8-1.2-2.1-1-2.9c0.7-2.5,1.9-4.8,2.9-7.2c1-2.4,1.7-4.9,3-7.2c1.4-2.5,0.7-5,0.8-7.4
			c0-1.5,0.1-2.9,0.9-4.3c1.7-3.2,0.4-6.6,0.1-9.9c-0.3-2.8-1.1-5.6-1.6-8.5c-0.2-0.9-0.1-1.9-0.1-3.1c2.4,0,3.2,1.5,3.9,2.8
			c1.6,3.3,3.1,6.8,4.9,10.1c1.7,3,3.5,5.9,5.5,8.8c1.1,1.7,2,1.8,3.4,0.3c6.4-6.5,12.7-13.1,19.1-19.7c2.8-2.8,5.6-5.8,8.5-8.5
			C123,245.3,124.9,244.6,126.5,243.6z M111.5,206c0.1,0.3,0.4,0.6,0.4,1c0.3,1.5,1.8,3-0.2,4.6c-0.6,0.5-0.7,1.7-1.1,2.6
			c-0.5,1.4-1.2,2.8-1.9,4.4c0.9,1,2.1,2.1,3.1,3.4c0.5,0.6,0.7,1.6,0.7,2.4c-0.2,3.9-3,6.7-6.8,7.2c-0.8,0.1-1.6,0.4-2.4,0.6
			c-3.1,0.9-6.1,0.7-9.1,0c-0.5-0.1-0.9-0.3-1.3-0.6c-1.1-0.8-1.9-1.7-3.3,0.1c-0.7,0.9-2.8,0.9-4.4,1.1c-1.6,0.2-3.2,0-4.8,0.2
			c-1,0.2-2.1,0.7-2.9,1.3c-1.2,0.9-1.9,0.3-2.2-0.7c-0.6-1.8-0.7-3.7-1.5-5.5c-0.6-1.5-0.4-2.7,0.1-4.2c0.4-1.3-0.6-3-0.4-4.4
			c0.3-3.6,0.8-7.1,1.4-10.7c0.7-4.5,1.6-9,2.1-13.6c0.2-1.4-0.8-2.9-0.7-4.4c0.1-1.4,0.5-2.9,1.2-4c1-1.5,1-3,0.5-4.6
			c-0.4-1.3-0.7-2.7-1-4.1c0.2-0.1,0.5-0.2,0.8-0.3c0.3,0.5,0.6,1,0.8,1.5c0.3,0.7,0.5,1.5,0.9,2.1c0.2,0.3,1.1,0.5,1.3,0.4
			c1.9-1.6,4.1-0.9,6.1-0.7c0.6,0.1,1.2,0.9,1.7,1.4c0.5,0.5,1,1.1,1.5,1.8c1.4,2.1,2.6,4.2,1.6,7.1c-0.6,1.6-0.5,3.4-0.5,5.1
			c0,0.3,0.3,0.8,0.6,1c0.2,0.1,0.7-0.1,0.9-0.2c1.3-1.3,2.5-2.6,3.8-3.9c0.3-0.3,0.7-0.5,1.1-0.4c1.7,0.4,3.8,0.5,5.1,1.5
			C106.6,197.5,110.4,200.8,111.5,206z M70.9,154.3c-0.5-0.2-1.1-0.3-1.6-0.2c-1.8,0.3-3.5-0.3-4.1-2c-0.8-2.3-1.4-4.6-2.1-7
			c-0.1-0.3,0-0.8-0.2-1c-2.3-2.6-2.5-5.9-2.9-9.1c-0.1-0.7,0.2-1.6,0.6-2.3c1.6-2.4,3.2-4.6,4.8-7c1.1-1.6,1.9-3.3,3.2-4.7
			c0.8-0.9,2.1-1.3,3.1-2c1.9-1.3,3.7-2.9,5.8-3.9c2.2-1,4.4-2,7.1-1c2.2,0.8,4.6,1.4,6.9-0.2c0.9-0.6,5.9,0.7,6.5,1.6
			c1.3,1.9,2.7,3.8,3.7,5.8c0.6,1,0.6,2.4,0.6,3.6c0.1,2.9,1.4,5.2,3.6,7.1c0.6,0.5,1.2,1.5,1.1,2.3c-0.3,3-0.7,5.9-1.2,8.9
			c-0.1,0.4-0.6,0.7-1,1c-2.2,1.7-2.9,4.4-4,6.7c-0.6,1.1-0.1,2.8,0.1,4.1c0.2,1.4-0.7,3.5-1.7,4.4c-2.1,1.8-4.4,1.7-6.9,0.9
			c-0.9-0.3-1.9-0.3-2.8-0.7c-0.9-0.4-1.8-1-2.3-1.8c-1-1.8-1.8-3.8-2.5-5.7c-0.2-0.4,0.2-1,0.4-1.5c0.2-0.7,0.9-1.7,0.6-2.1
			c-1.4-2.7-0.9-5.3-0.4-8c0.2-1.2-0.1-1.9-1.3-2.3c-3.2-1.2-5.3-3.5-6.6-6.6c-0.4-1-1.2-0.9-1.9-0.4c-1.9,1.5-3.8,3.1-5.5,4.8
			c-0.4,0.3-0.5,1.1-0.6,1.6c-0.1,0.5,0,1.3-0.3,1.5c-2,1.5-0.4,2.7,0.4,3.6c1.2,1.5,2.7,2.7,3.2,4.7c0,0.2,0.2,0.5,0.3,0.6
			c2.2,1.8,4.5,3.5,6.7,5.2c0.6,0.4,1,0.9,1.8,1.6C77.6,156.4,74.3,155.8,70.9,154.3z M192.1,265.1c-0.1-1.3-0.1-2.7-0.2-4
			c0.2,0,0.4,0,0.7,0c0,1.3,0,2.7,0,4C192.4,265.1,192.2,265.1,192.1,265.1z"/>
	</defs>
	<clipPath id="SVGID_2_">
		<use xlink:href="#SVGID_1_"  style="overflow:visible;"/>
	</clipPath>
	<g class="st1">
		<polyline class="st2" points="81.3,131.6 89.1,142.7 66.7,174.5 93.1,216 59.1,261 88.1,310.2 133,254.7 		"/>
		<path class="st3" d="M136.1,130.5c16.6-21.6,65.9-45.7,95.5-41"/>
		<path class="st4" d="M161.9,153.3c16.4-7.3,25.6-12.8,31-18.2"/>
		<path class="st5" d="M127.2,218.2c21.9-27.8,82.5-64.9,120.6-64.9"/>
		<path class="st6" d="M229.5,128.6c-22.5,43.5-101.8,82.7-104.4,86.9"/>
		<path class="st7" d="M187.5,70.6c9.5,20.9-5.7,88.5-3.6,96.5"/>
		<path class="st8" d="M173.9,220.2c-5.9,20-18.5,89.9,11.2,125.3"/>
		<path class="st8" d="M172.9,224c8.1-9.9,23-23.2,31.9-19.9c26.8,10,9.6,115,15.2,128.8c5.6,13.8-19.6-7.1-19.6-7.1"/>
		<path class="st8" d="M178.5,246.8c11.3-8.7,18.5-8.5,23.5,0c5,8.5-10.1,19.7-5.9,28.3c5.2,10.7,11.2,26.3,21.1,33"/>
		<path class="st3" d="M319.3,102.9c1.4,22.7,13.3,47.7,19.3,51.8"/>
		<path class="st3" d="M325.5,95.4c7.8-6.9,50.4-29.4,66.9-20c16.6,9.4,2.7,56.6-6.1,68.7"/>
		<path class="st9" d="M334.7,127.5c31.5-15.8,55.1-23.6,59.5-22.6"/>
		<path class="st10" d="M346.9,150.3c4.2-2.4,37.3-17.1,37.6-17.8"/>
		<line class="st10" x1="361.9" y1="148.3" x2="367.6" y2="160.1"/>
		<path class="st11" d="M293.3,194.6c18.7-15.3,104.1-41.5,148.7-45.2"/>
		<path class="st12" d="M333.7,211.6c4.9,22.1,14.6,35.1,20.7,38.2"/>
		<path class="st2" d="M340.5,224c20.4-14.5,76.1-32.9,76-15.6c-0.1,17.3-18.8,35.9-18.8,35.9"/>
		<path class="st13" d="M357.8,254c17.1-9.4,24.6-7.2,27.2-7.7"/>
		<path class="st12" d="M377.6,277.6c7.4,13.2,10.7,43.1,2,41c-8.7-2.1-35.9-19-39-13.7c-3.1,5.2,3.9,20.5,7.7,23.5"/>
		<path class="st14" d="M454.5,287.1c0,9.1-2.4,15.1-4.4,18.3"/>
		<path class="st14" d="M561.5,99.5c7.2,11.8,0.6,16.6,0.6,16.6"/>
		<path class="st9" d="M547.7,144.7c0,0,28.2-19.5,41.3-15"/>
		<path class="st15" d="M547.7,166.6c-14,20.8-54.9,64.2-50.6,125.2"/>
		<path class="st16" d="M531.3,197.1c36.9-27.5,72-41.9,73.6-33.6c1.6,8.3-12,23.9-12,23.9"/>
		<path class="st17" d="M538.6,223.4c12.1-13.8,44.7-31.7,53.9-32.7"/>
		<path class="st17" d="M553,178.6c4.2,18.8,8.5,25.5,8.5,25.5"/>
		<path class="st17" d="M577.3,135.8c-3.1,13.5,0.7,57.8,0.7,57.8"/>
		<path class="st5" d="M540.9,236.1c-9.9,8.6,3.7,35.3,14.5,31c10.7-4.2-6.4-34.8,14-24.9"/>
		<path class="st16" d="M583.3,204.6c-2.2,11.1-6.2,45.6,4.8,54.4"/>
		<path class="st17" d="M590,230.8c16.6,4.7,19.8,8.5,9.9,18.2"/>
		<path class="st5" d="M624.4,149c16.1-3.9,55.5-41.9,72.6-35.7"/>
		<path class="st13" d="M662,65.7c20.5,27.1-3.1,55.3,0.6,106.4"/>
		<path class="st5" d="M673.2,56.6c9.7,9.9-2.8,17.6-3.5,24.4"/>
		<path class="st8" d="M631.1,98.5c14.2,26.7,71.1-50.3,59.3-17.9c-4.8,13.3-33.6,40.5-33.6,40.5"/>
		<path class="st17" d="M647.5,159.1c-5.3,12.8-10.3,18.9-7.5,16.9s23.2-15.9,31.1-26"/>
		<path class="st11" d="M700,143.7c-19.7,8.8-64.2,70.3-82.1,103.2"/>
		<path class="st18" d="M641,198.5c6.5,1.6,8.4,69.5-26,79.1"/>
		<path class="st10" d="M649.5,235.8c16.7-22.9,46.5-49.9,71.2-37.3"/>
		<path class="st8" d="M709.7,200.4c-27.1,18.8-44.9,58.3-40,58.6s31.9-20.2,59.1-30.2"/>
		<path class="st16" d="M706.8,161.6c3.6,1.4-6.3,161.6-9.9,201.8"/>
	</g>
</g>
</svg>
